<?xml version="1.0" encoding="utf-8" standalone="no"?>
<!DOCTYPE svg PUBLIC "-//W3C//DTD SVG 1.1//EN"
  "http://www.w3.org/Graphics/SVG/1.1/DTD/svg11.dtd">
<svg xmlns:xlink="http://www.w3.org/1999/xlink" width="628.588035pt" height="618.987579pt" viewBox="0 0 628.588035 618.987579" xmlns="http://www.w3.org/2000/svg" version="1.1">
 <metadata>
  <rdf:RDF xmlns:dc="http://purl.org/dc/elements/1.1/" xmlns:cc="http://creativecommons.org/ns#" xmlns:rdf="http://www.w3.org/1999/02/22-rdf-syntax-ns#">
   <cc:Work>
    <dc:type rdf:resource="http://purl.org/dc/dcmitype/StillImage"/>
    <dc:date>2024-12-11T12:10:54.262124</dc:date>
    <dc:format>image/svg+xml</dc:format>
    <dc:creator>
     <cc:Agent>
      <dc:title>Matplotlib v3.9.3, https://matplotlib.org/</dc:title>
     </cc:Agent>
    </dc:creator>
   </cc:Work>
  </rdf:RDF>
 </metadata>
 <defs>
  <style type="text/css">*{stroke-linejoin: round; stroke-linecap: butt}</style>
 </defs>
 <g id="figure_1">
  <g id="patch_1">
   <path d="M 0 618.987579 
L 628.588035 618.987579 
L 628.588035 0 
L 0 0 
z
" style="fill: #ffffff"/>
  </g>
  <g id="axes_1">
   <g id="patch_2">
    <path d="M 313.074726 62.51869 
L 315.565864 62.531146 
L 318.056754 62.568512 
L 320.547145 62.630785 
L 323.036789 62.717958 
L 325.525437 62.830023 
L 328.01284 62.966968 
L 330.498749 63.12878 
L 332.982916 63.315443 
L 335.465092 63.526937 
L 337.945029 63.763242 
L 340.422478 64.024335 
L 342.897194 64.310188 
L 345.368926 64.620774 
L 347.83743 64.956062 
L 350.302457 65.316017 
L 352.763762 65.700604 
L 355.221097 66.109784 
L 357.674218 66.543517 
L 360.122879 67.001759 
L 362.566836 67.484465 
L 365.005843 67.991585 
L 367.439657 68.52307 
L 369.868035 69.078865 
L 372.290733 69.658917 
L 374.70751 70.263166 
L 377.118123 70.891552 
L 379.522333 71.544012 
L 381.919897 72.220482 
L 384.310578 72.920893 
L 386.694134 73.645175 
L 389.070329 74.393257 
L 391.438924 75.165062 
L 393.799683 75.960514 
L 396.152369 76.779534 
L 398.496748 77.62204 
L 400.832585 78.487946 
L 403.159646 79.377168 
L 405.477698 80.289615 
L 407.78651 81.225196 
L 410.085852 82.183819 
L 412.375492 83.165386 
L 414.655202 84.169801 
L 416.924754 85.196962 
L 417.487693 85.455985 
L 420.71696 78.460705 
L 420.136611 78.193671 
L 417.796866 77.134742 
L 415.44665 76.099263 
L 413.086196 75.087338 
L 410.715741 74.099067 
L 408.335522 73.13455 
L 405.945777 72.193883 
L 403.546745 71.27716 
L 401.138666 70.384473 
L 398.721781 69.51591 
L 396.296331 68.67156 
L 393.862559 67.851506 
L 391.420708 67.05583 
L 388.971023 66.284612 
L 386.513748 65.53793 
L 384.049129 64.815856 
L 381.577413 64.118465 
L 379.098847 63.445826 
L 376.613678 62.798005 
L 374.122156 62.175068 
L 371.624529 61.577076 
L 369.121047 61.004091 
L 366.61196 60.456169 
L 364.09752 59.933364 
L 361.577977 59.43573 
L 359.053584 58.963315 
L 356.524593 58.516168 
L 353.991258 58.094333 
L 351.45383 57.697851 
L 348.912565 57.326763 
L 346.367716 56.981106 
L 343.819538 56.660914 
L 341.268285 56.36622 
L 338.714213 56.097053 
L 336.157577 55.853439 
L 333.598633 55.635403 
L 331.037637 55.442968 
L 328.474844 55.276151 
L 325.910511 55.13497 
L 323.344894 55.01944 
L 320.778251 54.92957 
L 318.210837 54.865372 
L 315.64291 54.82685 
L 313.074726 54.814009 
z
" clip-path="url(#p397df3eab0)" style="fill: #000080"/>
   </g>
   <g id="patch_3">
    <path d="M 436.803319 95.416861 
L 438.959295 96.664937 
L 441.102682 97.93451 
L 443.233268 99.225454 
L 445.350837 100.537638 
L 447.455179 101.870932 
L 449.546082 103.225202 
L 451.623339 104.600313 
L 453.686741 105.996128 
L 455.736082 107.412507 
L 457.771157 108.849308 
L 459.791763 110.306387 
L 461.797697 111.7836 
L 463.788758 113.280797 
L 465.764749 114.79783 
L 467.72547 116.334547 
L 469.670727 117.890793 
L 471.600324 119.466415 
L 473.514069 121.061253 
L 475.41177 122.675148 
L 477.293237 124.307939 
L 479.158283 125.959463 
L 481.00672 127.629555 
L 482.838364 129.318047 
L 484.634138 131.006823 
L 489.940099 125.420332 
L 488.088786 123.679326 
L 486.200493 121.938612 
L 484.294887 120.216868 
L 482.37216 118.514266 
L 480.432503 116.830976 
L 478.47611 115.167166 
L 476.503178 113.523003 
L 474.513902 111.898652 
L 472.508483 110.294274 
L 470.487121 108.71003 
L 468.450017 107.146078 
L 466.397376 105.602576 
L 464.329403 104.079676 
L 462.246305 102.577532 
L 460.148289 101.096294 
L 458.035567 99.63611 
L 455.908348 98.197126 
L 453.766846 96.779485 
L 451.611275 95.38333 
L 449.441851 94.008801 
L 447.258789 92.656033 
L 445.06231 91.325164 
L 442.852632 90.016326 
L 440.629976 88.729649 
z
" clip-path="url(#p397df3eab0)" style="fill: #0000d6"/>
   </g>
   <g id="patch_4">
    <path d="M 499.724234 146.646563 
L 501.364776 148.521276 
L 502.986488 150.412301 
L 504.58921 152.319448 
L 506.17278 154.242527 
L 507.737041 156.181345 
L 509.281836 158.135708 
L 510.80701 160.105421 
L 512.312411 162.090288 
L 513.797889 164.090109 
L 515.263294 166.104684 
L 515.951284 167.065309 
L 522.225817 162.594029 
L 521.516549 161.603694 
L 520.005822 159.526812 
L 518.474401 157.465141 
L 516.922442 155.418887 
L 515.350097 153.388254 
L 513.757525 151.373447 
L 512.144885 149.374665 
L 510.512338 147.39211 
L 508.860048 145.425979 
L 507.188179 143.476469 
L 505.496899 141.543774 
z
" clip-path="url(#p397df3eab0)" style="fill: #001cff"/>
   </g>
   <g id="patch_5">
    <path d="M 527.779505 185.297304 
L 529.032143 187.450633 
L 530.263185 189.616381 
L 531.472509 191.79433 
L 532.659993 193.984264 
L 533.825518 196.185962 
L 534.968969 198.399206 
L 536.090231 200.623773 
L 537.189191 202.859442 
L 538.26574 205.105988 
L 539.31977 207.363187 
L 540.351176 209.630813 
L 541.359854 211.90864 
L 542.345704 214.19644 
L 543.308627 216.493983 
L 544.248526 218.801041 
L 545.165309 221.117382 
L 546.058883 223.442775 
L 546.929158 225.776988 
L 547.776049 228.119786 
L 548.599469 230.470936 
L 549.399337 232.830202 
L 550.175573 235.197349 
L 550.928099 237.57214 
L 551.65684 239.954338 
L 552.361722 242.343703 
L 553.042677 244.739998 
L 553.699634 247.142982 
L 554.33253 249.552416 
L 554.941299 251.968058 
L 555.525883 254.389667 
L 556.086221 256.817 
L 556.622259 259.249815 
L 556.673835 259.490171 
L 564.207828 257.877391 
L 564.154657 257.629602 
L 563.602041 255.121545 
L 563.024372 252.619139 
L 562.421709 250.122636 
L 561.794111 247.632283 
L 561.141642 245.148331 
L 560.464366 242.671027 
L 559.762351 240.20062 
L 559.035668 237.737357 
L 558.284389 235.281484 
L 557.508589 232.833246 
L 556.708346 230.392888 
L 555.883739 227.960654 
L 555.034852 225.536788 
L 554.16177 223.121532 
L 553.264578 220.715128 
L 552.343368 218.317815 
L 551.398232 215.929835 
L 550.429263 213.551425 
L 549.436559 211.182823 
L 548.420219 208.824267 
L 547.380344 206.475992 
L 546.317039 204.138233 
L 545.23041 201.811223 
L 544.120566 199.495196 
L 542.987618 197.190383 
L 541.831678 194.897015 
L 540.652863 192.615321 
L 539.45129 190.345528 
L 538.227079 188.087865 
L 536.980354 185.842556 
L 535.711238 183.609827 
L 534.419859 181.3899 
z
" clip-path="url(#p397df3eab0)" style="fill: #006cff"/>
   </g>
   <g id="patch_6">
    <path d="M 560.291737 280.919665 
L 560.586542 283.39333 
L 560.856595 285.869819 
L 561.101871 288.348885 
L 561.322344 290.830279 
L 561.517992 293.313755 
L 561.688797 295.799062 
L 561.83474 298.285953 
L 561.955807 300.774179 
L 562.051987 303.263492 
L 562.123269 305.753642 
L 562.169646 308.24438 
L 562.191114 310.735457 
L 562.187671 313.226624 
L 562.159317 315.717633 
L 562.106054 318.208233 
L 562.027888 320.698176 
L 561.924828 323.187213 
L 561.796882 325.675096 
L 561.644065 328.161574 
L 561.46639 330.646399 
L 561.263877 333.129324 
L 561.036545 335.6101 
L 560.784417 338.088478 
L 560.507519 340.564211 
L 560.205877 343.037051 
L 559.879522 345.506752 
L 559.528487 347.973065 
L 559.152807 350.435745 
L 558.75252 352.894545 
L 558.327664 355.349219 
L 557.878284 357.799522 
L 557.404423 360.245208 
L 556.90613 362.686034 
L 556.383454 365.121755 
L 555.836447 367.552128 
L 555.265164 369.976909 
L 554.669663 372.395856 
L 554.050002 374.808727 
L 553.406243 377.215281 
L 552.738452 379.615277 
L 552.363927 380.922102 
L 559.764624 383.06495 
L 560.150732 381.717707 
L 560.839177 379.243484 
L 561.502845 376.762501 
L 562.141671 374.275005 
L 562.75559 371.781245 
L 563.344542 369.28147 
L 563.908466 366.775932 
L 564.447308 364.264879 
L 564.961012 361.748564 
L 565.449528 359.227237 
L 565.912807 356.701152 
L 566.350802 354.17056 
L 566.76347 351.635715 
L 567.150769 349.09687 
L 567.51266 346.554279 
L 567.849108 344.008196 
L 568.160079 341.458876 
L 568.445542 338.906574 
L 568.705468 336.351545 
L 568.93983 333.794044 
L 569.148607 331.234328 
L 569.331776 328.672652 
L 569.48932 326.109272 
L 569.621223 323.544446 
L 569.727471 320.978428 
L 569.808054 318.411476 
L 569.862964 315.843847 
L 569.892195 313.275797 
L 569.895745 310.707583 
L 569.873613 308.139462 
L 569.825801 305.571691 
L 569.752315 303.004526 
L 569.653161 300.438225 
L 569.528349 297.873043 
L 569.377892 295.309238 
L 569.201805 292.747065 
L 569.000105 290.186782 
L 568.772813 287.628643 
L 568.519952 285.072905 
L 568.241546 282.519824 
L 567.937624 279.969654 
z
" clip-path="url(#p397df3eab0)" style="fill: #00b8ff"/>
   </g>
   <g id="patch_7">
    <path d="M 545.414739 401.513879 
L 544.504365 403.832746 
L 543.570849 406.142394 
L 542.614283 408.442592 
L 541.634764 410.733109 
L 540.632388 413.013716 
L 539.607257 415.284186 
L 538.559473 417.544292 
L 537.489141 419.793806 
L 536.396367 422.032505 
L 535.281262 424.260164 
L 534.143936 426.476562 
L 532.984503 428.681475 
L 531.80308 430.874684 
L 530.599783 433.055969 
L 529.374735 435.225113 
L 528.128056 437.381897 
L 526.859873 439.526107 
L 525.570311 441.657529 
L 524.2595 443.775948 
L 522.92757 445.881154 
L 521.574656 447.972935 
L 520.200891 450.051083 
L 518.806414 452.11539 
L 517.391365 454.165648 
L 515.955883 456.201654 
L 514.500114 458.223204 
L 513.024202 460.230095 
L 511.528296 462.222127 
L 510.012544 464.1991 
L 508.477099 466.160817 
L 506.922113 468.107082 
L 505.347743 470.037701 
L 503.754146 471.952479 
L 502.141481 473.851225 
L 500.50991 475.733751 
L 498.859595 477.599867 
L 497.190702 479.449386 
L 495.503398 481.282125 
L 493.79785 483.097899 
L 492.074231 484.896527 
L 490.536374 486.471348 
L 496.024878 491.878605 
L 497.610298 490.255078 
L 499.387225 488.400822 
L 501.145522 486.52889 
L 502.885011 484.639469 
L 504.605519 482.732748 
L 506.306874 480.808917 
L 507.988907 478.868169 
L 509.651448 476.910698 
L 511.294332 474.9367 
L 512.917393 472.946372 
L 514.520471 470.939914 
L 516.103404 468.917525 
L 517.666035 466.879408 
L 519.208207 464.825767 
L 520.729765 462.756807 
L 522.230558 460.672735 
L 523.710436 458.57376 
L 525.16925 456.460091 
L 526.606855 454.33194 
L 528.023107 452.18952 
L 529.417865 450.033044 
L 530.790988 447.862729 
L 532.14234 445.678791 
L 533.471785 443.48145 
L 534.77919 441.270924 
L 536.064426 439.047434 
L 537.327362 436.811204 
L 538.567874 434.562456 
L 539.785836 432.301416 
L 540.981128 430.02831 
L 542.153629 427.743364 
L 543.303222 425.446808 
L 544.429793 423.138871 
L 545.533228 420.819784 
L 546.613418 418.489778 
L 547.670254 416.149088 
L 548.703631 413.797946 
L 549.713445 411.436588 
L 550.699595 409.06525 
L 551.661983 406.68417 
L 552.600513 404.293585 
z
" clip-path="url(#p397df3eab0)" style="fill: #1cffdb"/>
   </g>
   <g id="patch_8">
    <path d="M 474.623236 501.272851 
L 472.718829 502.878827 
L 470.798457 504.46568 
L 468.862314 506.033249 
L 466.910591 507.58138 
L 464.943485 509.109915 
L 462.961193 510.618704 
L 460.963912 512.107595 
L 458.951842 513.576439 
L 456.925185 515.025089 
L 454.884142 516.4534 
L 452.828919 517.86123 
L 450.759721 519.248437 
L 448.676754 520.614884 
L 446.580227 521.960432 
L 444.470349 523.284949 
L 442.347332 524.588301 
L 440.211388 525.870358 
L 438.062731 527.130992 
L 435.901575 528.370077 
L 433.728136 529.587488 
L 431.542632 530.783105 
L 429.345281 531.956807 
L 427.136303 533.108477 
L 424.915919 534.238 
L 422.684352 535.345264 
L 420.441823 536.430156 
L 418.188558 537.49257 
L 415.924781 538.532398 
L 413.650719 539.549537 
L 411.3666 540.543884 
L 409.072652 541.515341 
L 406.769104 542.463811 
L 404.456187 543.389198 
L 402.134132 544.291409 
L 399.803171 545.170356 
L 397.463537 546.025949 
L 395.115464 546.858104 
L 392.759187 547.666737 
L 390.394942 548.451767 
L 388.022965 549.213115 
L 385.643493 549.950707 
L 383.256765 550.664467 
L 380.863018 551.354324 
L 378.462492 552.02021 
L 376.055428 552.662058 
L 373.642066 553.279803 
L 371.222647 553.873384 
L 368.797413 554.442742 
L 366.366607 554.987819 
L 363.930472 555.508562 
L 361.489251 556.004917 
L 359.043189 556.476836 
L 356.59253 556.924271 
L 354.137519 557.347178 
L 351.678403 557.745513 
L 349.215425 558.119238 
L 346.748834 558.468315 
L 344.278876 558.792709 
L 341.805797 559.092388 
L 339.329844 559.367321 
L 336.851267 559.617482 
L 334.370312 559.842844 
L 331.887227 560.043386 
L 329.402261 560.219088 
L 326.915662 560.369931 
L 324.427679 560.495902 
L 321.938561 560.596987 
L 319.448557 560.673176 
L 316.957915 560.724461 
L 314.466885 560.750838 
L 311.975715 560.752304 
L 309.484656 560.728858 
L 306.993955 560.680504 
L 304.503863 560.607245 
L 302.014628 560.509089 
L 299.526498 560.386047 
L 297.039724 560.238129 
L 294.554553 560.065352 
L 292.071234 559.867732 
L 289.590015 559.645289 
L 287.111145 559.398046 
L 284.634871 559.126026 
L 282.161441 558.829258 
L 279.691102 558.507771 
L 277.224102 558.161597 
L 274.760687 557.79077 
L 272.301103 557.395329 
L 271.045483 557.183711 
L 269.745609 564.777948 
L 271.040063 564.996111 
L 273.575717 565.403783 
L 276.11532 565.786078 
L 278.658619 566.142958 
L 281.20536 566.474388 
L 283.755288 566.780335 
L 286.308148 567.060767 
L 288.863684 567.315658 
L 291.421641 567.54498 
L 293.981764 567.748712 
L 296.543796 567.926833 
L 299.107481 568.079325 
L 301.672563 568.206173 
L 304.238785 568.307365 
L 306.80589 568.382889 
L 309.373623 568.432739 
L 311.941725 568.45691 
L 314.509941 568.455399 
L 317.078014 568.428206 
L 319.645686 568.375335 
L 322.212701 568.296789 
L 324.778802 568.192578 
L 327.343732 568.062712 
L 329.907236 567.907203 
L 332.469057 567.726067 
L 335.028938 567.519323 
L 337.586624 567.28699 
L 340.141858 567.029093 
L 342.694386 566.745656 
L 345.243952 566.436709 
L 347.790301 566.102283 
L 350.333179 565.742409 
L 352.872331 565.357126 
L 355.407503 564.946471 
L 357.938442 564.510485 
L 360.464894 564.049211 
L 362.986607 563.562697 
L 365.50333 563.05099 
L 368.014809 562.514142 
L 370.520795 561.952207 
L 373.021036 561.36524 
L 375.515282 560.753301 
L 378.003285 560.11645 
L 380.484794 559.454751 
L 382.959563 558.768271 
L 385.427343 558.057078 
L 387.887888 557.321243 
L 390.340952 556.560839 
L 392.786289 555.775944 
L 395.223655 554.966635 
L 397.652806 554.132993 
L 400.0735 553.275101 
L 402.485494 552.393046 
L 404.888546 551.486916 
L 407.282418 550.5568 
L 409.666869 549.602793 
L 412.04166 548.62499 
L 414.406555 547.623488 
L 416.761317 546.598387 
L 419.105711 545.54979 
L 421.439501 544.477803 
L 423.762455 543.382531 
L 426.07434 542.264085 
L 428.374925 541.122576 
L 430.663981 539.958119 
L 432.941278 538.77083 
L 435.206588 537.560828 
L 437.459685 536.328234 
L 439.700343 535.07317 
L 441.928339 533.795764 
L 444.14345 532.496141 
L 446.345454 531.174433 
L 448.534132 529.830771 
L 450.709263 528.46529 
L 452.870631 527.078126 
L 455.018019 525.669418 
L 457.151214 524.239308 
L 459.27 522.787937 
L 461.374168 521.315451 
L 463.463505 519.821997 
L 465.537804 518.307725 
L 467.596857 516.772787 
L 469.640457 515.217334 
L 471.668402 513.641524 
L 473.680486 512.045514 
L 475.676511 510.429462 
L 477.656275 508.793532 
L 479.619582 507.137886 
z
" clip-path="url(#p397df3eab0)" style="fill: #5dff9a"/>
   </g>
   <g id="patch_9">
    <path d="M 249.804586 552.586241 
L 247.398294 551.941503 
L 244.99857 551.272734 
L 242.605653 550.580002 
L 240.219784 549.863376 
L 237.841199 549.122928 
L 235.470138 548.358731 
L 233.106838 547.570862 
L 230.751534 546.7594 
L 228.404462 545.924425 
L 226.065858 545.066022 
L 223.735954 544.184277 
L 221.414984 543.279277 
L 219.10318 542.351113 
L 216.800773 541.399877 
L 214.507993 540.425666 
L 212.22507 539.428575 
L 209.952232 538.408706 
L 207.689705 537.36616 
L 205.437718 536.301041 
L 203.196494 535.213456 
L 200.966257 534.103513 
L 198.747232 532.971324 
L 196.539639 531.817001 
L 194.343699 530.640661 
L 192.159633 529.44242 
L 189.987658 528.222399 
L 187.827991 526.98072 
L 185.680849 525.717506 
L 183.546447 524.432885 
L 181.424997 523.126984 
L 179.316712 521.799934 
L 177.221802 520.451868 
L 175.140478 519.082921 
L 173.072947 517.693229 
L 171.019416 516.282932 
L 168.980091 514.85217 
L 166.955175 513.401087 
L 164.944871 511.929828 
L 162.949379 510.43854 
L 160.9689 508.927371 
L 159.003632 507.396474 
L 157.05377 505.846001 
L 155.119511 504.276107 
L 153.201047 502.686949 
L 151.29857 501.078686 
L 149.41227 499.45148 
L 147.542337 497.805492 
L 145.688957 496.140887 
L 143.852315 494.457832 
L 142.032595 492.756495 
L 140.229979 491.037047 
L 138.444648 489.299658 
L 136.67678 487.544503 
L 134.926551 485.771758 
L 133.194137 483.981599 
L 131.47971 482.174206 
L 129.783444 480.349759 
L 128.105506 478.508442 
L 126.446065 476.650437 
L 124.805286 474.775931 
L 123.183334 472.885111 
L 121.580372 470.978166 
L 119.996558 469.055287 
L 118.432053 467.116667 
L 116.887011 465.162499 
L 115.361588 463.192978 
L 113.855936 461.208302 
L 112.370206 459.208669 
L 110.904546 457.194279 
L 109.459103 455.165333 
L 108.034022 453.122034 
L 106.629444 451.064587 
L 105.245511 448.993197 
L 103.88236 446.908072 
L 102.540128 444.80942 
L 101.21895 442.69745 
L 99.918957 440.572375 
L 98.64028 438.434406 
L 97.383046 436.283757 
L 96.14738 434.120644 
L 94.933408 431.945283 
L 93.741249 429.75789 
L 92.571023 427.558686 
L 91.422848 425.34789 
L 90.296838 423.125723 
L 89.193105 420.892406 
L 88.11176 418.648165 
L 87.567728 417.496908 
L 80.593285 420.770934 
L 81.154143 421.957797 
L 82.268931 424.271449 
L 83.4068 426.573836 
L 84.567635 428.864731 
L 85.751321 431.143902 
L 86.957739 433.411123 
L 88.186769 435.666166 
L 89.438287 437.908807 
L 90.712169 440.138821 
L 92.008287 442.355984 
L 93.326511 444.560076 
L 94.66671 446.750875 
L 96.028749 448.928163 
L 97.412493 451.091722 
L 98.817803 453.241336 
L 100.244538 455.376789 
L 101.692557 457.497869 
L 103.161713 459.604362 
L 104.65186 461.696059 
L 106.16285 463.77275 
L 107.69453 465.834228 
L 109.246749 467.880285 
L 110.81935 469.910719 
L 112.412176 471.925326 
L 114.025069 473.923903 
L 115.657866 475.906252 
L 117.310405 477.872175 
L 118.98252 479.821474 
L 120.674044 481.753954 
L 122.384808 483.669423 
L 124.114641 485.567689 
L 125.86337 487.448562 
L 127.630819 489.311854 
L 129.416813 491.157378 
L 131.221173 492.984951 
L 133.043718 494.794388 
L 134.884266 496.585511 
L 136.742632 498.358138 
L 138.618632 500.112094 
L 140.512077 501.847202 
L 142.422778 503.563289 
L 144.350545 505.260184 
L 146.295183 506.937717 
L 148.2565 508.595719 
L 150.234298 510.234026 
L 152.22838 511.852474 
L 154.238546 513.4509 
L 156.264596 515.029144 
L 158.306327 516.58705 
L 160.363535 518.124461 
L 162.436014 519.641223 
L 164.523556 521.137185 
L 166.625953 522.612197 
L 168.742995 524.066111 
L 170.87447 525.498783 
L 173.020165 526.910069 
L 175.179866 528.299828 
L 177.353356 529.66792 
L 179.540417 531.01421 
L 181.740833 532.338562 
L 183.954381 533.640844 
L 186.180841 534.920926 
L 188.419991 536.178679 
L 190.671606 537.413979 
L 192.935461 538.626701 
L 195.21133 539.816724 
L 197.498985 540.98393 
L 199.798198 542.1282 
L 202.108738 543.249422 
L 204.430375 544.347483 
L 206.762876 545.422273 
L 209.106008 546.473685 
L 211.459537 547.501613 
L 213.823228 548.505955 
L 216.196843 549.48661 
L 218.580146 550.44348 
L 220.972899 551.37647 
L 223.374862 552.285486 
L 225.785794 553.170437 
L 228.205456 554.031235 
L 230.633604 554.867794 
L 233.069996 555.68003 
L 235.514389 556.467862 
L 237.966538 557.231211 
L 240.426197 557.970001 
L 242.893122 558.684157 
L 245.367064 559.37361 
L 247.847777 560.038288 
z
" clip-path="url(#p397df3eab0)" style="fill: #9aff5d"/>
   </g>
   <g id="patch_10">
    <path d="M 79.199526 397.439848 
L 78.353203 395.096845 
L 77.530351 392.745496 
L 76.731054 390.386036 
L 75.955391 388.018701 
L 75.20344 385.643728 
L 74.475275 383.261354 
L 73.770971 380.871819 
L 73.090596 378.475359 
L 72.43422 376.072216 
L 71.801908 373.662629 
L 71.193722 371.24684 
L 70.609725 368.82509 
L 70.049974 366.397621 
L 69.514525 363.964676 
L 69.003432 361.526498 
L 68.516746 359.083331 
L 68.054515 356.63542 
L 67.616787 354.183009 
L 67.203603 351.726343 
L 66.815007 349.265668 
L 66.451037 346.801231 
L 66.111729 344.333277 
L 65.797116 341.862053 
L 65.507232 339.387807 
L 65.242104 336.910786 
L 65.001759 334.431237 
L 64.786221 331.949409 
L 64.595511 329.46555 
L 64.42965 326.979908 
L 64.288653 324.492731 
L 64.172534 322.004269 
L 64.081305 319.51477 
L 64.014975 317.024484 
L 63.973551 314.533658 
L 63.957037 312.042543 
L 63.965435 309.551387 
L 63.998743 307.06044 
L 64.056958 304.569951 
L 64.140076 302.080168 
L 64.248086 299.591341 
L 64.273656 299.074259 
L 56.578777 298.685729 
L 56.552417 299.218804 
L 56.441066 301.784605 
L 56.355378 304.351391 
L 56.295362 306.918906 
L 56.261024 309.486893 
L 56.252366 312.055095 
L 56.269391 314.623255 
L 56.312096 317.191116 
L 56.380477 319.758422 
L 56.474528 322.324915 
L 56.594238 324.89034 
L 56.739596 327.454439 
L 56.910587 330.016957 
L 57.107195 332.577637 
L 57.329399 335.136222 
L 57.577177 337.692458 
L 57.850505 340.246088 
L 58.149355 342.796857 
L 58.473698 345.344511 
L 58.8235 347.888793 
L 59.198727 350.42945 
L 59.599342 352.966229 
L 60.025304 355.498874 
L 60.476571 358.027133 
L 60.953097 360.550753 
L 61.454835 363.069481 
L 61.981735 365.583066 
L 62.533744 368.091257 
L 63.110807 370.593803 
L 63.712867 373.090452 
L 64.339862 375.580957 
L 64.99173 378.065067 
L 65.668407 380.542534 
L 66.369824 383.013111 
L 67.095911 385.47655 
L 67.846596 387.932605 
L 68.621803 390.381031 
L 69.421456 392.821582 
L 70.245474 395.254015 
L 71.093774 397.678086 
L 71.966273 400.093553 
z
" clip-path="url(#p397df3eab0)" style="fill: #dbff1c"/>
   </g>
   <g id="patch_11">
    <path d="M 66.315309 277.437621 
L 66.669632 274.971778 
L 67.048595 272.509601 
L 67.452161 270.051337 
L 67.880289 267.597232 
L 68.332936 265.14753 
L 68.810057 262.702477 
L 69.311604 260.262318 
L 69.837528 257.827296 
L 70.387774 255.397655 
L 70.96229 252.973638 
L 71.561016 250.555487 
L 72.183894 248.143444 
L 72.83086 245.737751 
L 73.501851 243.338647 
L 74.196799 240.946373 
L 74.915634 238.561168 
L 75.658285 236.183271 
L 76.424678 233.812919 
L 77.214735 231.450349 
L 77.423376 230.839252 
L 70.13519 228.340362 
L 69.920096 228.970358 
L 69.105604 231.405997 
L 68.315509 233.849659 
L 67.549889 236.3011 
L 66.808822 238.760074 
L 66.092381 241.226336 
L 65.400638 243.699639 
L 64.733662 246.179735 
L 64.09152 248.666377 
L 63.474276 251.159316 
L 62.881992 253.658303 
L 62.314728 256.163087 
L 61.772539 258.673419 
L 61.255479 261.189047 
L 60.763602 263.70972 
L 60.296956 266.235186 
L 59.855587 268.765191 
L 59.43954 271.299484 
L 59.048856 273.837811 
L 58.683574 276.379917 
z
" clip-path="url(#p397df3eab0)" style="fill: #ffcc00"/>
   </g>
   <g id="patch_12">
    <path d="M 85.362063 210.608343 
L 86.383716 208.336305 
L 87.428037 206.074598 
L 88.494923 203.823447 
L 89.584266 201.583077 
L 90.695959 199.353712 
L 91.829889 197.135576 
L 92.985943 194.928889 
L 94.164006 192.733873 
L 95.36396 190.550748 
L 96.585685 188.379731 
L 97.829059 186.221039 
L 99.093957 184.074889 
L 100.380252 181.941495 
L 101.687818 179.82107 
L 103.016521 177.713827 
L 104.366231 175.619976 
L 105.736811 173.539727 
L 107.128124 171.473287 
L 108.540032 169.420864 
L 109.972394 167.382662 
L 111.425065 165.358885 
L 112.897901 163.349736 
L 114.390755 161.355415 
L 115.374287 160.063875 
L 109.259841 155.376055 
L 108.24589 156.70754 
L 106.706866 158.76354 
L 105.188478 160.834828 
L 103.690878 162.921196 
L 102.214217 165.022435 
L 100.758642 167.138336 
L 99.324298 169.268686 
L 97.911329 171.413273 
L 96.519876 173.571883 
L 95.150078 175.744298 
L 93.802073 177.930303 
L 92.475995 180.129678 
L 91.171976 182.342204 
L 89.890148 184.567659 
L 88.630637 186.805821 
L 87.393571 189.056466 
L 86.179073 191.319369 
L 84.987265 193.594304 
L 83.818265 195.881042 
L 82.67219 198.179356 
L 81.549155 200.489016 
L 80.449273 202.809791 
L 79.372653 205.141448 
L 78.319403 207.483754 
z
" clip-path="url(#p397df3eab0)" style="fill: #ff8600"/>
   </g>
   <g id="patch_13">
    <path d="M 129.33704 143.409927 
L 131.028467 141.580992 
L 132.738098 139.769062 
L 134.465762 137.974319 
L 136.211287 136.196942 
L 137.974499 134.437109 
L 139.75522 132.694996 
L 141.553274 130.970777 
L 141.725883 130.807061 
L 136.426434 125.214391 
L 136.248486 125.383171 
L 134.394823 127.160717 
L 132.559028 128.956709 
L 130.741284 130.77097 
L 128.941774 132.603318 
L 127.160676 134.453568 
L 125.39817 136.321537 
L 123.654431 138.207037 
z
" clip-path="url(#p397df3eab0)" style="fill: #ff3b00"/>
   </g>
   <g id="patch_14">
    <path d="M 158.138259 116.561137 
L 160.096729 115.021552 
L 162.070497 113.501628 
L 164.059365 112.001517 
L 166.063134 110.52137 
L 168.081605 109.061335 
L 170.114574 107.621556 
L 172.16184 106.202179 
L 174.223196 104.803345 
L 176.298438 103.425195 
L 178.387357 102.067865 
L 180.489745 100.731492 
L 182.235963 99.643771 
L 178.189403 93.087289 
L 176.389179 94.208651 
L 174.221769 95.586355 
L 172.068244 96.985664 
L 169.928819 98.406437 
L 167.803709 99.848534 
L 165.693126 101.311809 
L 163.597281 102.796117 
L 161.516384 104.301308 
L 159.450643 105.827233 
L 157.400263 107.373739 
L 155.365451 108.94067 
L 153.34641 110.527872 
z
" clip-path="url(#p397df3eab0)" style="fill: #d60000"/>
   </g>
   <g id="patch_15">
    <path d="M 201.210246 89.047119 
L 203.441698 87.939622 
L 205.684113 86.854495 
L 207.937267 85.791846 
L 210.200935 84.751781 
L 212.47489 83.734404 
L 214.758905 82.739818 
L 217.052752 81.768121 
L 219.3562 80.81941 
L 221.669021 79.893781 
L 223.990982 78.991327 
L 226.321851 78.112136 
L 228.661395 77.256298 
L 231.009381 76.423898 
L 233.365573 75.615018 
L 235.729736 74.829741 
L 238.101634 74.068144 
L 240.481028 73.330304 
L 242.867682 72.616295 
L 245.261357 71.926187 
L 247.661813 71.26005 
L 250.06881 70.61795 
L 252.482108 69.999953 
L 254.901464 69.406118 
L 257.326639 68.836507 
L 259.757388 68.291175 
L 262.193468 67.770178 
L 264.634637 67.273567 
L 267.08065 66.801392 
L 269.531262 66.353701 
L 271.986228 65.930537 
L 274.445303 65.531944 
L 276.908241 65.157962 
L 279.374796 64.808627 
L 281.844721 64.483974 
L 284.317768 64.184037 
L 286.793692 63.908845 
L 289.272243 63.658425 
L 291.36266 63.466659 
L 290.691152 55.791297 
L 288.536084 55.988994 
L 285.980876 56.247158 
L 283.428378 56.530862 
L 280.878844 56.840075 
L 278.33253 57.174769 
L 275.78969 57.534908 
L 273.250579 57.920457 
L 270.71545 58.331377 
L 268.184557 58.767628 
L 265.658152 59.229166 
L 263.13649 59.715944 
L 260.619821 60.227914 
L 258.108398 60.765025 
L 255.602471 61.327222 
L 253.102291 61.91445 
L 250.608109 62.526651 
L 248.120173 63.163762 
L 245.638733 63.82572 
L 243.164036 64.512459 
L 240.69633 65.223911 
L 238.235862 65.960003 
L 235.782878 66.720663 
L 233.337623 67.505814 
L 230.900342 68.315378 
L 228.471278 69.149275 
L 226.050674 70.007419 
L 223.638772 70.889727 
L 221.235814 71.796109 
L 218.84204 72.726474 
L 216.457689 73.680731 
L 214.083 74.658783 
L 211.71821 75.660532 
L 209.363555 76.685879 
L 207.019271 77.734721 
L 204.685593 78.806953 
L 202.362754 79.902468 
L 200.050986 81.021156 
L 197.75052 82.162905 
z
" clip-path="url(#p397df3eab0)" style="fill: #800000"/>
   </g>
   <g id="PatchCollection_1">
    <path d="M 79.199526 397.439848 
L 79.199526 397.439848 
L 78.625046 395.857462 
L 78.625046 395.857462 
Q 313.074726 311.636709 560.291737 280.919665 
L 560.291737 280.919665 
L 560.291737 280.919665 
L 560.493665 282.590952 
L 560.493665 282.590952 
Q 313.074726 311.636709 79.199526 397.439848 
z
" clip-path="url(#p397df3eab0)" style="fill: #dbff1c; fill-opacity: 0.5; stroke: #808080; stroke-opacity: 0.5; stroke-width: 0.1"/>
    <path d="M 78.625046 395.857462 
L 78.625046 395.857462 
L 78.341819 395.064822 
L 78.341819 395.064822 
Q 313.074726 311.636709 66.315309 277.437621 
L 66.315309 277.437621 
L 66.315309 277.437621 
L 66.432269 276.604065 
L 66.432269 276.604065 
Q 313.074726 311.636709 78.625046 395.857462 
z
" clip-path="url(#p397df3eab0)" style="fill: #dbff1c; fill-opacity: 0.5; stroke: #808080; stroke-opacity: 0.5; stroke-width: 0.1"/>
    <path d="M 78.341819 395.064822 
L 78.341819 395.064822 
L 77.519288 392.713361 
L 76.720313 390.353792 
L 76.698844 390.2893 
L 76.698844 390.2893 
Q 313.074726 311.636709 527.779505 185.297304 
L 527.779505 185.297304 
L 527.779505 185.297304 
L 529.032143 187.450633 
L 530.263185 189.616381 
L 530.29647 189.675645 
L 530.29647 189.675645 
Q 313.074726 311.636709 78.341819 395.064822 
z
" clip-path="url(#p397df3eab0)" style="fill: #dbff1c; fill-opacity: 0.5; stroke: #808080; stroke-opacity: 0.5; stroke-width: 0.1"/>
    <path d="M 76.698844 390.2893 
L 76.698844 390.2893 
L 76.434442 389.490183 
L 76.434442 389.490183 
Q 313.074726 311.636709 499.724234 146.646563 
L 499.724234 146.646563 
L 499.724234 146.646563 
L 500.280638 147.278156 
L 500.280638 147.278156 
Q 313.074726 311.636709 76.698844 390.2893 
z
" clip-path="url(#p397df3eab0)" style="fill: #dbff1c; fill-opacity: 0.5; stroke: #808080; stroke-opacity: 0.5; stroke-width: 0.1"/>
    <path d="M 76.434442 389.490183 
L 76.434442 389.490183 
L 75.913745 387.889294 
L 75.913745 387.889294 
Q 313.074726 311.636709 436.803319 95.416861 
L 436.803319 95.416861 
L 436.803319 95.416861 
L 438.261613 96.257902 
L 438.261613 96.257902 
Q 313.074726 311.636709 76.434442 389.490183 
z
" clip-path="url(#p397df3eab0)" style="fill: #dbff1c; fill-opacity: 0.5; stroke: #808080; stroke-opacity: 0.5; stroke-width: 0.1"/>
    <path d="M 75.913745 387.889294 
L 75.913745 387.889294 
L 75.16309 385.513911 
L 75.153013 385.481453 
L 75.153013 385.481453 
Q 313.074726 311.636709 313.074726 62.51869 
L 313.074726 62.51869 
L 313.074726 62.51869 
L 315.565864 62.531146 
L 315.599848 62.531488 
L 315.599848 62.531488 
Q 313.074726 311.636709 75.913745 387.889294 
z
" clip-path="url(#p397df3eab0)" style="fill: #dbff1c; fill-opacity: 0.5; stroke: #808080; stroke-opacity: 0.5; stroke-width: 0.1"/>
    <path d="M 249.804586 552.586241 
L 249.804586 552.586241 
L 247.398294 551.941503 
L 244.99857 551.272734 
L 242.605653 550.580002 
L 240.219784 549.863376 
L 237.841199 549.122928 
L 235.470138 548.358731 
L 233.106838 547.570862 
L 230.751534 546.7594 
L 228.404462 545.924425 
L 227.326087 545.531896 
L 227.326087 545.531896 
Q 313.074726 311.636709 545.414739 401.513879 
L 545.414739 401.513879 
L 545.414739 401.513879 
L 544.504365 403.832746 
L 543.570849 406.142394 
L 542.614283 408.442592 
L 541.634764 410.733109 
L 540.632388 413.013716 
L 539.607257 415.284186 
L 538.559473 417.544292 
L 537.489141 419.793806 
L 536.396367 422.032505 
L 535.885447 423.060091 
L 535.885447 423.060091 
Q 313.074726 311.636709 249.804586 552.586241 
z
" clip-path="url(#p397df3eab0)" style="fill: #9aff5d; fill-opacity: 0.5; stroke: #808080; stroke-opacity: 0.5; stroke-width: 0.1"/>
    <path d="M 227.326087 545.531896 
L 227.326087 545.531896 
L 224.991462 544.662729 
L 222.665644 543.77026 
L 220.348868 542.854578 
L 218.041364 541.915774 
L 216.362113 541.21558 
L 216.362113 541.21558 
Q 313.074726 311.636709 560.493665 282.590952 
L 560.493665 282.590952 
L 560.493665 282.590952 
L 560.771747 285.066552 
L 561.025059 287.54481 
L 561.253577 290.025476 
L 561.457276 292.508304 
L 561.590352 294.322814 
L 561.590352 294.322814 
Q 313.074726 311.636709 227.326087 545.531896 
z
" clip-path="url(#p397df3eab0)" style="fill: #9aff5d; fill-opacity: 0.5; stroke: #808080; stroke-opacity: 0.5; stroke-width: 0.1"/>
    <path d="M 216.362113 541.21558 
L 216.362113 541.21558 
L 214.071198 540.236991 
L 211.790183 539.235542 
L 209.519297 538.211334 
L 207.258766 537.164468 
L 205.008817 536.09505 
L 202.769674 535.003186 
L 200.541562 533.888986 
L 198.324703 532.75256 
L 196.119319 531.594024 
L 195.107301 531.052921 
L 195.107301 531.052921 
Q 313.074726 311.636709 158.138259 116.561137 
L 158.138259 116.561137 
L 158.138259 116.561137 
L 160.096729 115.021552 
L 162.070497 113.501628 
L 164.059365 112.001517 
L 166.063134 110.52137 
L 168.081605 109.061335 
L 170.114574 107.621556 
L 172.16184 106.202179 
L 174.223196 104.803345 
L 176.298438 103.425195 
L 177.25904 102.797328 
L 177.25904 102.797328 
Q 313.074726 311.636709 216.362113 541.21558 
z
" clip-path="url(#p397df3eab0)" style="fill: #9aff5d; fill-opacity: 0.5; stroke: #808080; stroke-opacity: 0.5; stroke-width: 0.1"/>
    <path d="M 195.107301 531.052921 
L 195.107301 531.052921 
L 192.919073 529.862296 
L 190.742862 528.649848 
L 189.951221 528.201688 
L 189.951221 528.201688 
Q 313.074726 311.636709 129.33704 143.409927 
L 129.33704 143.409927 
L 129.33704 143.409927 
L 131.028467 141.580992 
L 132.738098 139.769062 
L 133.3669 139.111682 
L 133.3669 139.111682 
Q 313.074726 311.636709 195.107301 531.052921 
z
" clip-path="url(#p397df3eab0)" style="fill: #9aff5d; fill-opacity: 0.5; stroke: #808080; stroke-opacity: 0.5; stroke-width: 0.1"/>
    <path d="M 189.951221 528.201688 
L 189.951221 528.201688 
L 187.791764 526.959645 
L 185.644834 525.696071 
L 183.510648 524.41109 
L 181.389418 523.104832 
L 179.281356 521.777428 
L 177.186673 520.429009 
L 175.105579 519.059712 
L 173.038282 517.669673 
L 170.984989 516.25903 
L 168.945904 514.827925 
L 166.921232 513.376502 
L 164.911176 511.904904 
L 162.915935 510.41328 
L 160.93571 508.901778 
L 160.559222 508.610841 
L 160.559222 508.610841 
Q 313.074726 311.636709 85.362063 210.608343 
L 85.362063 210.608343 
L 85.362063 210.608343 
L 86.383716 208.336305 
L 87.428037 206.074598 
L 88.494923 203.823447 
L 89.584266 201.583077 
L 90.695959 199.353712 
L 91.829889 197.135576 
L 92.985943 194.928889 
L 94.164006 192.733873 
L 95.36396 190.550748 
L 96.585685 188.379731 
L 97.829059 186.221039 
L 99.093957 184.074889 
L 100.380252 181.941495 
L 101.687818 179.82107 
L 101.939964 179.417573 
L 101.939964 179.417573 
Q 313.074726 311.636709 189.951221 528.201688 
z
" clip-path="url(#p397df3eab0)" style="fill: #9aff5d; fill-opacity: 0.5; stroke: #808080; stroke-opacity: 0.5; stroke-width: 0.1"/>
    <path d="M 160.559222 508.610841 
L 160.559222 508.610841 
L 158.597139 507.075863 
L 156.650504 505.521341 
L 154.719511 503.94743 
L 152.804354 502.354289 
L 150.905223 500.742076 
L 149.022309 499.110953 
L 147.155801 497.461083 
L 146.978419 497.30255 
L 146.978419 497.30255 
Q 313.074726 311.636709 66.432269 276.604065 
L 66.432269 276.604065 
L 66.432269 276.604065 
L 66.794922 274.139433 
L 67.182202 271.678551 
L 67.594072 269.221664 
L 68.030489 266.769019 
L 68.491411 264.320861 
L 68.97679 261.877435 
L 69.486579 259.438984 
L 69.536538 259.206387 
L 69.536538 259.206387 
Q 313.074726 311.636709 160.559222 508.610841 
z
" clip-path="url(#p397df3eab0)" style="fill: #9aff5d; fill-opacity: 0.5; stroke: #808080; stroke-opacity: 0.5; stroke-width: 0.1"/>
    <path d="M 146.978419 497.30255 
L 146.978419 497.30255 
L 145.130096 495.632331 
L 143.298568 493.943713 
L 141.484017 492.236865 
L 139.686625 490.511956 
L 137.906572 488.76916 
L 136.144035 487.008651 
L 134.399191 485.230606 
L 134.233495 485.059896 
L 134.233495 485.059896 
Q 313.074726 311.636709 530.29647 189.675645 
L 530.29647 189.675645 
L 530.29647 189.675645 
L 531.5052 191.853924 
L 532.692086 194.044182 
L 533.857011 196.246198 
L 534.999858 198.459754 
L 536.120512 200.684627 
L 537.218862 202.920595 
L 538.294798 205.167435 
L 538.396371 205.382563 
L 538.396371 205.382563 
Q 313.074726 311.636709 146.978419 497.30255 
z
" clip-path="url(#p397df3eab0)" style="fill: #9aff5d; fill-opacity: 0.5; stroke: #808080; stroke-opacity: 0.5; stroke-width: 0.1"/>
    <path d="M 134.233495 485.059896 
L 134.233495 485.059896 
L 132.508234 483.262842 
L 130.80103 481.448626 
L 130.182151 480.781894 
L 130.182151 480.781894 
Q 313.074726 311.636709 500.280638 147.278156 
L 500.280638 147.278156 
L 500.280638 147.278156 
L 501.914836 149.158402 
L 503.53015 151.054895 
L 504.115268 151.751442 
L 504.115268 151.751442 
Q 313.074726 311.636709 134.233495 485.059896 
z
" clip-path="url(#p397df3eab0)" style="fill: #9aff5d; fill-opacity: 0.5; stroke: #808080; stroke-opacity: 0.5; stroke-width: 0.1"/>
    <path d="M 130.182151 480.781894 
L 130.182151 480.781894 
L 128.499872 478.944542 
L 126.83605 477.090459 
L 125.190852 475.21983 
L 123.564442 473.332844 
L 121.956983 471.429688 
L 120.368636 469.510553 
L 118.799559 467.57563 
L 117.24991 465.625114 
L 115.719842 463.659199 
L 115.021627 462.748448 
L 115.021627 462.748448 
Q 313.074726 311.636709 438.261613 96.257902 
L 438.261613 96.257902 
L 438.261613 96.257902 
L 440.409106 97.520519 
L 442.543866 98.804547 
L 444.665679 100.109858 
L 446.774332 101.436322 
L 448.869616 102.783806 
L 450.951321 104.152175 
L 453.019238 105.541292 
L 455.07316 106.951018 
L 457.112883 108.381213 
L 458.047675 109.046898 
L 458.047675 109.046898 
Q 313.074726 311.636709 130.182151 480.781894 
z
" clip-path="url(#p397df3eab0)" style="fill: #9aff5d; fill-opacity: 0.5; stroke: #808080; stroke-opacity: 0.5; stroke-width: 0.1"/>
    <path d="M 115.021627 462.748448 
L 115.021627 462.748448 
L 113.520438 460.760395 
L 112.039203 458.757429 
L 111.50331 458.022337 
L 111.50331 458.022337 
Q 313.074726 311.636709 315.599848 62.531488 
L 315.599848 62.531488 
L 315.599848 62.531488 
L 318.090733 62.569194 
L 320.581116 62.631806 
L 321.490344 62.660877 
L 321.490344 62.660877 
Q 313.074726 311.636709 115.021627 462.748448 
z
" clip-path="url(#p397df3eab0)" style="fill: #9aff5d; fill-opacity: 0.5; stroke: #808080; stroke-opacity: 0.5; stroke-width: 0.1"/>
    <path d="M 474.623236 501.272851 
L 474.623236 501.272851 
L 472.718829 502.878827 
L 470.798457 504.46568 
L 468.862314 506.033249 
L 466.910591 507.58138 
L 464.943485 509.109915 
L 462.961193 510.618704 
L 460.963912 512.107595 
L 460.7724 512.248734 
L 460.7724 512.248734 
Q 313.074726 311.636709 535.885447 423.060091 
L 535.885447 423.060091 
L 535.885447 423.060091 
L 534.760091 425.28259 
L 533.612567 427.493724 
L 532.442989 429.693273 
L 531.251475 431.881016 
L 530.038143 434.056735 
L 528.803115 436.220212 
L 527.546515 438.371231 
L 527.425389 438.575988 
L 527.425389 438.575988 
Q 313.074726 311.636709 474.623236 501.272851 
z
" clip-path="url(#p397df3eab0)" style="fill: #5dff9a; fill-opacity: 0.5; stroke: #808080; stroke-opacity: 0.5; stroke-width: 0.1"/>
    <path d="M 460.7724 512.248734 
L 460.7724 512.248734 
L 458.758928 513.715655 
L 456.730888 515.162369 
L 454.688483 516.588731 
L 452.631916 517.994597 
L 450.561394 519.379828 
L 448.477123 520.744285 
L 446.379312 522.087831 
L 444.268171 523.410332 
L 442.14391 524.711656 
L 440.006743 525.991673 
L 437.856882 527.250254 
L 436.072048 528.273377 
L 436.072048 528.273377 
Q 313.074726 311.636709 561.590352 294.322814 
L 561.590352 294.322814 
L 561.590352 294.322814 
L 561.751062 296.808795 
L 561.886905 299.296258 
L 561.997867 301.784956 
L 562.083937 304.274638 
L 562.145106 306.765057 
L 562.181368 309.255963 
L 562.19272 311.747107 
L 562.179161 314.238239 
L 562.140691 316.729112 
L 562.077314 319.219476 
L 561.989038 321.709081 
L 561.89737 323.764321 
L 561.89737 323.764321 
Q 313.074726 311.636709 460.7724 512.248734 
z
" clip-path="url(#p397df3eab0)" style="fill: #5dff9a; fill-opacity: 0.5; stroke: #808080; stroke-opacity: 0.5; stroke-width: 0.1"/>
    <path d="M 436.072048 528.273377 
L 436.072048 528.273377 
L 433.899568 529.492498 
L 431.715005 530.689834 
L 430.914309 531.121606 
L 430.914309 531.121606 
Q 313.074726 311.636709 177.25904 102.797328 
L 177.25904 102.797328 
L 177.25904 102.797328 
L 179.35419 101.449636 
L 181.462711 100.122962 
L 182.235963 99.643771 
L 182.235963 99.643771 
Q 313.074726 311.636709 436.072048 528.273377 
z
" clip-path="url(#p397df3eab0)" style="fill: #5dff9a; fill-opacity: 0.5; stroke: #808080; stroke-opacity: 0.5; stroke-width: 0.1"/>
    <path d="M 430.914309 531.121606 
L 430.914309 531.121606 
L 428.713605 532.289008 
L 426.501336 533.434345 
L 424.277726 534.557503 
L 422.042995 535.658368 
L 420.404002 536.448216 
L 420.404002 536.448216 
Q 313.074726 311.636709 133.3669 139.111682 
L 133.3669 139.111682 
L 133.3669 139.111682 
L 135.101107 137.32326 
L 136.853111 135.552269 
L 138.622737 133.798886 
L 140.409808 132.063287 
L 141.725883 130.807061 
L 141.725883 130.807061 
Q 313.074726 311.636709 430.914309 531.121606 
z
" clip-path="url(#p397df3eab0)" style="fill: #5dff9a; fill-opacity: 0.5; stroke: #808080; stroke-opacity: 0.5; stroke-width: 0.1"/>
    <path d="M 420.404002 536.448216 
L 420.404002 536.448216 
L 418.150558 537.510251 
L 415.886607 538.549698 
L 413.612374 539.566454 
L 411.328088 540.560417 
L 409.033976 541.531489 
L 406.730269 542.47957 
L 404.417196 543.404568 
L 402.094989 544.306389 
L 399.76388 545.184944 
L 398.687093 545.581809 
L 398.687093 545.581809 
Q 313.074726 311.636709 101.939964 179.417573 
L 101.939964 179.417573 
L 101.939964 179.417573 
L 103.27269 177.312872 
L 104.626396 175.221602 
L 106.000947 173.143974 
L 107.396205 171.080196 
L 108.81203 169.030473 
L 110.248282 166.99501 
L 111.704816 164.974011 
L 113.181487 162.967679 
L 114.678147 160.976213 
L 115.374287 160.063875 
L 115.374287 160.063875 
Q 313.074726 311.636709 420.404002 536.448216 
z
" clip-path="url(#p397df3eab0)" style="fill: #5dff9a; fill-opacity: 0.5; stroke: #808080; stroke-opacity: 0.5; stroke-width: 0.1"/>
    <path d="M 398.687093 545.581809 
L 398.687093 545.581809 
L 396.343401 546.426222 
L 393.991381 547.247155 
L 391.63127 548.044528 
L 389.263304 548.81826 
L 386.887718 549.568274 
L 384.504752 550.294495 
L 382.114642 550.996851 
L 379.717629 551.67527 
L 377.313951 552.329687 
L 374.903849 552.960034 
L 372.487565 553.566248 
L 370.487637 554.048642 
L 370.487637 554.048642 
Q 313.074726 311.636709 69.536538 259.206387 
L 69.536538 259.206387 
L 69.536538 259.206387 
L 70.073009 256.773668 
L 70.633781 254.346434 
L 71.218796 251.92493 
L 71.827996 249.509396 
L 72.461321 247.100075 
L 73.118707 244.697208 
L 73.800089 242.301035 
L 74.505398 239.911795 
L 75.234563 237.529728 
L 75.987513 235.155071 
L 76.764171 232.788063 
L 77.423376 230.839252 
L 77.423376 230.839252 
Q 313.074726 311.636709 398.687093 545.581809 
z
" clip-path="url(#p397df3eab0)" style="fill: #5dff9a; fill-opacity: 0.5; stroke: #808080; stroke-opacity: 0.5; stroke-width: 0.1"/>
    <path d="M 370.487637 554.048642 
L 370.487637 554.048642 
L 368.060688 554.610641 
L 365.628239 555.148343 
L 363.190536 555.661693 
L 360.747821 556.150642 
L 358.300339 556.615139 
L 355.848334 557.055139 
L 353.392052 557.470597 
L 353.157269 557.508987 
L 353.157269 557.508987 
Q 313.074726 311.636709 538.396371 205.382563 
L 538.396371 205.382563 
L 538.396371 205.382563 
L 539.447629 207.641055 
L 540.476249 209.909946 
L 541.48213 212.189009 
L 542.46517 214.478018 
L 543.425272 216.776742 
L 544.362338 219.084952 
L 545.276276 221.402417 
L 545.362341 221.624204 
L 545.362341 221.624204 
Q 313.074726 311.636709 370.487637 554.048642 
z
" clip-path="url(#p397df3eab0)" style="fill: #5dff9a; fill-opacity: 0.5; stroke: #808080; stroke-opacity: 0.5; stroke-width: 0.1"/>
    <path d="M 353.157269 557.508987 
L 353.157269 557.508987 
L 350.696583 557.897513 
L 348.232135 558.261412 
L 345.764171 558.600649 
L 343.292938 558.91519 
L 341.486196 559.129286 
L 341.486196 559.129286 
Q 313.074726 311.636709 504.115268 151.751442 
L 504.115268 151.751442 
L 504.115268 151.751442 
L 505.704542 153.66981 
L 507.274554 155.603975 
L 508.825145 157.553742 
L 510.356162 159.518918 
L 511.461855 160.96377 
L 511.461855 160.96377 
Q 313.074726 311.636709 353.157269 557.508987 
z
" clip-path="url(#p397df3eab0)" style="fill: #5dff9a; fill-opacity: 0.5; stroke: #808080; stroke-opacity: 0.5; stroke-width: 0.1"/>
    <path d="M 341.486196 559.129286 
L 341.486196 559.129286 
L 339.00989 559.401022 
L 336.530992 559.647981 
L 334.049748 559.870139 
L 331.566406 560.067475 
L 329.751561 560.195898 
L 329.751561 560.195898 
Q 313.074726 311.636709 458.047675 109.046898 
L 458.047675 109.046898 
L 458.047675 109.046898 
L 460.066291 110.506733 
L 462.070208 111.986681 
L 464.059225 113.486593 
L 466.033144 115.00632 
L 467.465106 116.128658 
L 467.465106 116.128658 
Q 313.074726 311.636709 341.486196 559.129286 
z
" clip-path="url(#p397df3eab0)" style="fill: #5dff9a; fill-opacity: 0.5; stroke: #808080; stroke-opacity: 0.5; stroke-width: 0.1"/>
    <path d="M 329.751561 560.195898 
L 329.751561 560.195898 
L 327.265176 560.350236 
L 324.777373 560.479703 
L 322.288399 560.584285 
L 319.798504 560.663973 
L 317.307937 560.718759 
L 314.816946 560.748636 
L 312.325782 560.753602 
L 312.087882 560.752774 
L 312.087882 560.752774 
Q 313.074726 311.636709 321.490344 62.660877 
L 321.490344 62.660877 
L 321.490344 62.660877 
L 323.97964 62.757481 
L 326.467846 62.878972 
L 328.954712 63.025339 
L 331.439991 63.196566 
L 333.923432 63.392638 
L 336.404789 63.613534 
L 338.883813 63.859231 
L 339.120423 63.883991 
L 339.120423 63.883991 
Q 313.074726 311.636709 329.751561 560.195898 
z
" clip-path="url(#p397df3eab0)" style="fill: #5dff9a; fill-opacity: 0.5; stroke: #808080; stroke-opacity: 0.5; stroke-width: 0.1"/>
    <path d="M 527.425389 438.575988 
L 527.425389 438.575988 
L 526.1453 440.713112 
L 524.843904 442.837329 
L 523.521331 444.948425 
L 522.177714 447.046191 
L 520.813187 449.130415 
L 520.253123 449.972891 
L 520.253123 449.972891 
Q 313.074726 311.636709 75.153013 385.481453 
L 75.153013 385.481453 
L 75.153013 385.481453 
L 74.426474 383.098583 
L 73.7238 380.708567 
L 73.04506 378.311645 
L 72.390323 375.908054 
L 71.759654 373.498037 
L 71.51043 372.517565 
L 71.51043 372.517565 
Q 313.074726 311.636709 527.425389 438.575988 
z
" clip-path="url(#p397df3eab0)" style="fill: #1cffdb; fill-opacity: 0.5; stroke: #808080; stroke-opacity: 0.5; stroke-width: 0.1"/>
    <path d="M 520.253123 449.972891 
L 520.253123 449.972891 
L 518.859425 452.037724 
L 517.445149 454.088517 
L 516.010436 456.125064 
L 514.55543 458.147163 
L 513.080276 460.154611 
L 511.585122 462.147208 
L 510.070116 464.124753 
L 508.535412 466.08705 
L 506.981161 468.033902 
L 506.258642 468.925495 
L 506.258642 468.925495 
Q 313.074726 311.636709 201.210246 89.047119 
L 201.210246 89.047119 
L 201.210246 89.047119 
L 203.441698 87.939622 
L 205.684113 86.854495 
L 207.937267 85.791846 
L 210.200935 84.751781 
L 212.47489 83.734404 
L 214.758905 82.739818 
L 217.052752 81.768121 
L 219.3562 80.81941 
L 221.669021 79.893781 
L 222.737541 79.475169 
L 222.737541 79.475169 
Q 313.074726 311.636709 520.253123 449.972891 
z
" clip-path="url(#p397df3eab0)" style="fill: #1cffdb; fill-opacity: 0.5; stroke: #808080; stroke-opacity: 0.5; stroke-width: 0.1"/>
    <path d="M 506.258642 468.925495 
L 506.258642 468.925495 
L 504.676121 470.849437 
L 503.07444 472.757459 
L 501.45376 474.649368 
L 499.814241 476.524977 
L 498.605041 477.884385 
L 498.605041 477.884385 
Q 313.074726 311.636709 111.50331 458.022337 
L 111.50331 458.022337 
L 111.50331 458.022337 
L 110.049557 455.999337 
L 108.616106 453.961901 
L 107.2031 451.910233 
L 105.810682 449.844537 
L 104.806843 448.32715 
L 104.806843 448.32715 
Q 313.074726 311.636709 506.258642 468.925495 
z
" clip-path="url(#p397df3eab0)" style="fill: #1cffdb; fill-opacity: 0.5; stroke: #808080; stroke-opacity: 0.5; stroke-width: 0.1"/>
    <path d="M 498.605041 477.884385 
L 498.605041 477.884385 
L 496.933315 479.731345 
L 495.243204 481.561495 
L 493.534876 483.374653 
L 491.808502 485.170638 
L 490.536374 486.471348 
L 490.536374 486.471348 
Q 313.074726 311.636709 312.087882 560.752774 
L 312.087882 560.752774 
L 312.087882 560.752774 
L 309.596812 560.73045 
L 307.10609 560.683216 
L 304.615965 560.611079 
L 302.126686 560.514044 
L 300.309364 560.42745 
L 300.309364 560.42745 
Q 313.074726 311.636709 498.605041 477.884385 
z
" clip-path="url(#p397df3eab0)" style="fill: #1cffdb; fill-opacity: 0.5; stroke: #808080; stroke-opacity: 0.5; stroke-width: 0.1"/>
    <path d="M 561.89737 323.764321 
L 561.89737 323.764321 
L 561.763655 326.251899 
L 561.605071 328.738017 
L 561.421635 331.222424 
L 561.213364 333.704872 
L 560.980279 336.185114 
L 560.722404 338.6629 
L 560.439764 341.137985 
L 560.132388 343.610119 
L 559.800306 346.079055 
L 559.757831 346.381965 
L 559.757831 346.381965 
Q 313.074726 311.636709 71.51043 372.517565 
L 71.51043 372.517565 
L 71.51043 372.517565 
L 70.91371 370.098918 
L 70.341205 367.674425 
L 69.792974 365.244329 
L 69.269071 362.808872 
L 68.769548 360.368297 
L 68.294455 357.922849 
L 67.843841 355.472773 
L 67.417749 353.018313 
L 67.016222 350.559716 
L 66.968617 350.25757 
L 66.968617 350.25757 
Q 313.074726 311.636709 561.89737 323.764321 
z
" clip-path="url(#p397df3eab0)" style="fill: #00b8ff; fill-opacity: 0.5; stroke: #808080; stroke-opacity: 0.5; stroke-width: 0.1"/>
    <path d="M 559.757831 346.381965 
L 559.757831 346.381965 
L 559.398051 348.847018 
L 559.013638 351.308349 
L 558.604631 353.765714 
L 558.171072 356.218866 
L 557.713003 358.667559 
L 557.23047 361.11155 
L 556.723522 363.550593 
L 556.19221 365.984444 
L 555.636586 368.412861 
L 555.056706 370.835601 
L 554.452628 373.25242 
L 553.824412 375.663078 
L 553.172122 378.067334 
L 552.495822 380.464946 
L 552.363927 380.922102 
L 552.363927 380.922102 
Q 313.074726 311.636709 222.737541 79.475169 
L 222.737541 79.475169 
L 222.737541 79.475169 
L 225.063635 78.58342 
L 227.398529 77.714977 
L 229.741992 76.869925 
L 232.093787 76.04835 
L 234.45368 75.250333 
L 236.821436 74.475955 
L 239.196816 73.725293 
L 241.579585 72.998422 
L 243.969502 72.295414 
L 246.366331 71.61634 
L 248.76983 70.961268 
L 251.179759 70.330264 
L 253.595878 69.72339 
L 256.017945 69.140707 
L 256.481204 69.032173 
L 256.481204 69.032173 
Q 313.074726 311.636709 559.757831 346.381965 
z
" clip-path="url(#p397df3eab0)" style="fill: #00b8ff; fill-opacity: 0.5; stroke: #808080; stroke-opacity: 0.5; stroke-width: 0.1"/>
    <path d="M 545.362341 221.624204 
L 545.362341 221.624204 
L 546.250837 223.951542 
L 547.116016 226.287649 
L 547.95779 228.63229 
L 548.776076 230.985232 
L 549.570793 233.346239 
L 550.34186 235.715074 
L 550.658439 236.711635 
L 550.658439 236.711635 
Q 313.074726 311.636709 66.968617 350.25757 
L 66.968617 350.25757 
L 66.968617 350.25757 
L 66.59472 347.794619 
L 66.245471 345.328052 
L 65.920905 342.858116 
L 65.621053 340.385058 
L 65.345947 337.909125 
L 65.095614 335.430565 
L 64.997927 334.389501 
L 64.997927 334.389501 
Q 313.074726 311.636709 545.362341 221.624204 
z
" clip-path="url(#p397df3eab0)" style="fill: #006cff; fill-opacity: 0.5; stroke: #808080; stroke-opacity: 0.5; stroke-width: 0.1"/>
    <path d="M 550.658439 236.711635 
L 550.658439 236.711635 
L 551.395798 239.091179 
L 552.109325 241.477977 
L 552.798949 243.871791 
L 553.464601 246.272382 
L 553.935562 248.029753 
L 553.935562 248.029753 
Q 313.074726 311.636709 104.806843 448.32715 
L 104.806843 448.32715 
L 104.806843 448.32715 
L 103.450375 446.237671 
L 102.114869 444.134733 
L 100.800459 442.018544 
L 99.507276 439.889318 
L 98.57631 438.326161 
L 98.57631 438.326161 
Q 313.074726 311.636709 550.658439 236.711635 
z
" clip-path="url(#p397df3eab0)" style="fill: #006cff; fill-opacity: 0.5; stroke: #808080; stroke-opacity: 0.5; stroke-width: 0.1"/>
    <path d="M 553.935562 248.029753 
L 553.935562 248.029753 
L 554.559578 250.441501 
L 555.159446 252.859369 
L 555.735105 255.283115 
L 556.286499 257.712496 
L 556.673835 259.490171 
L 556.673835 259.490171 
Q 313.074726 311.636709 300.309364 560.42745 
L 300.309364 560.42745 
L 300.309364 560.42745 
L 297.822136 560.28736 
L 295.336434 560.122404 
L 292.852505 559.9326 
L 290.370599 559.717966 
L 288.559404 559.545536 
L 288.559404 559.545536 
Q 313.074726 311.636709 553.935562 248.029753 
z
" clip-path="url(#p397df3eab0)" style="fill: #006cff; fill-opacity: 0.5; stroke: #808080; stroke-opacity: 0.5; stroke-width: 0.1"/>
    <path d="M 511.461855 160.96377 
L 511.461855 160.96377 
L 512.95864 162.955142 
L 514.435437 164.961382 
L 515.892097 166.982289 
L 515.951284 167.065309 
L 515.951284 167.065309 
Q 313.074726 311.636709 64.997927 334.389501 
L 64.997927 334.389501 
L 64.997927 334.389501 
L 64.782807 331.907637 
L 64.592515 329.423746 
L 64.427072 326.938076 
L 64.42083 326.836309 
L 64.42083 326.836309 
Q 313.074726 311.636709 511.461855 160.96377 
z
" clip-path="url(#p397df3eab0)" style="fill: #001cff; fill-opacity: 0.5; stroke: #808080; stroke-opacity: 0.5; stroke-width: 0.1"/>
    <path d="M 467.465106 116.128658 
L 467.465106 116.128658 
L 469.412434 117.682311 
L 471.344129 119.25536 
L 473.259997 120.847647 
L 475.159847 122.459012 
L 475.901026 123.096572 
L 475.901026 123.096572 
Q 313.074726 311.636709 64.42083 326.836309 
L 64.42083 326.836309 
L 64.42083 326.836309 
L 64.28127 324.349052 
L 64.166588 321.860523 
L 64.076797 319.370972 
L 64.011905 316.880647 
L 63.993243 315.90316 
L 63.993243 315.90316 
Q 313.074726 311.636709 467.465106 116.128658 
z
" clip-path="url(#p397df3eab0)" style="fill: #0000d6; fill-opacity: 0.5; stroke: #808080; stroke-opacity: 0.5; stroke-width: 0.1"/>
    <path d="M 475.901026 123.096572 
L 475.901026 123.096572 
L 477.778255 124.734234 
L 479.639013 126.390587 
L 480.314357 127.000057 
L 480.314357 127.000057 
Q 313.074726 311.636709 256.481204 69.032173 
L 256.481204 69.032173 
L 256.481204 69.032173 
L 258.910038 68.478378 
L 261.344289 67.948898 
L 262.234497 67.761621 
L 262.234497 67.761621 
Q 313.074726 311.636709 475.901026 123.096572 
z
" clip-path="url(#p397df3eab0)" style="fill: #0000d6; fill-opacity: 0.5; stroke: #808080; stroke-opacity: 0.5; stroke-width: 0.1"/>
    <path d="M 480.314357 127.000057 
L 480.314357 127.000057 
L 482.15233 128.681657 
L 483.973397 130.381553 
L 484.634138 131.006823 
L 484.634138 131.006823 
Q 313.074726 311.636709 98.57631 438.326161 
L 98.57631 438.326161 
L 98.57631 438.326161 
L 97.320162 436.174878 
L 96.085588 434.011142 
L 95.640166 433.217957 
L 95.640166 433.217957 
Q 313.074726 311.636709 480.314357 127.000057 
z
" clip-path="url(#p397df3eab0)" style="fill: #0000d6; fill-opacity: 0.5; stroke: #808080; stroke-opacity: 0.5; stroke-width: 0.1"/>
    <path d="M 339.120423 63.883991 
L 339.120423 63.883991 
L 341.596606 64.156832 
L 344.069938 64.454419 
L 346.54017 64.776725 
L 349.007055 65.123717 
L 351.470347 65.49536 
L 353.9298 65.891617 
L 355.790415 66.208191 
L 355.790415 66.208191 
Q 313.074726 311.636709 63.993243 315.90316 
L 63.993243 315.90316 
L 63.993243 315.90316 
L 63.963033 313.412174 
L 63.957735 310.92101 
L 63.977347 308.429917 
L 64.021869 305.939145 
L 64.091297 303.448943 
L 64.185622 300.95956 
L 64.273656 299.074259 
L 64.273656 299.074259 
Q 313.074726 311.636709 339.120423 63.883991 
z
" clip-path="url(#p397df3eab0)" style="fill: #000080; fill-opacity: 0.5; stroke: #808080; stroke-opacity: 0.5; stroke-width: 0.1"/>
    <path d="M 355.790415 66.208191 
L 355.790415 66.208191 
L 358.242524 66.647612 
L 360.690115 67.111532 
L 363.132946 67.599904 
L 365.57077 68.11268 
L 368.003345 68.649808 
L 370.430427 69.211234 
L 372.851774 69.796903 
L 375.267143 70.406755 
L 377.676292 71.04073 
L 380.078982 71.698765 
L 382.474971 72.380793 
L 384.448427 72.962072 
L 384.448427 72.962072 
Q 313.074726 311.636709 262.234497 67.761621 
L 262.234497 67.761621 
L 262.234497 67.761621 
L 264.675749 67.265421 
L 267.121841 66.793658 
L 269.572528 66.346378 
L 272.027566 65.923628 
L 274.486708 65.525449 
L 276.949709 65.151881 
L 279.416323 64.802961 
L 281.886302 64.478724 
L 284.3594 64.179203 
L 286.835369 63.904427 
L 289.313963 63.654424 
L 291.36266 63.466659 
L 291.36266 63.466659 
Q 313.074726 311.636709 355.790415 66.208191 
z
" clip-path="url(#p397df3eab0)" style="fill: #000080; fill-opacity: 0.5; stroke: #808080; stroke-opacity: 0.5; stroke-width: 0.1"/>
    <path d="M 384.448427 72.962072 
L 384.448427 72.962072 
L 386.831565 73.687731 
L 389.207328 74.437185 
L 391.575477 75.210358 
L 393.935776 76.007174 
L 396.287989 76.827552 
L 398.631881 77.671411 
L 400.967217 78.538666 
L 401.189779 78.622708 
L 401.189779 78.622708 
Q 313.074726 311.636709 95.640166 433.217957 
L 95.640166 433.217957 
L 95.640166 433.217957 
L 94.435246 431.037569 
L 93.252189 428.845241 
L 92.091114 426.641191 
L 90.952138 424.425642 
L 89.835373 422.198814 
L 88.740932 419.960929 
L 87.668925 417.712213 
L 87.567728 417.496908 
L 87.567728 417.496908 
Q 313.074726 311.636709 384.448427 72.962072 
z
" clip-path="url(#p397df3eab0)" style="fill: #000080; fill-opacity: 0.5; stroke: #808080; stroke-opacity: 0.5; stroke-width: 0.1"/>
    <path d="M 401.189779 78.622708 
L 401.189779 78.622708 
L 403.515475 79.515494 
L 405.832126 80.431493 
L 408.139502 81.370611 
L 410.437371 82.332757 
L 412.725505 83.317832 
L 415.003673 84.325739 
L 417.271648 85.356377 
L 417.487693 85.455985 
L 417.487693 85.455985 
Q 313.074726 311.636709 288.559404 559.545536 
L 288.559404 559.545536 
L 288.559404 559.545536 
L 286.081583 559.287992 
L 283.606461 559.005682 
L 281.134286 558.698636 
L 278.665305 558.366884 
L 276.199765 558.010459 
L 273.737912 557.629397 
L 271.279993 557.223736 
L 271.045483 557.183711 
L 271.045483 557.183711 
Q 313.074726 311.636709 401.189779 78.622708 
z
" clip-path="url(#p397df3eab0)" style="fill: #000080; fill-opacity: 0.5; stroke: #808080; stroke-opacity: 0.5; stroke-width: 0.1"/>
   </g>
   <g id="patch_16">
    <path d="M 313.074726 62.51869 
L 315.565864 62.531146 
L 318.056754 62.568512 
L 320.547145 62.630785 
L 323.036789 62.717958 
L 325.525437 62.830023 
L 328.01284 62.966968 
L 330.498749 63.12878 
L 332.982916 63.315443 
L 335.465092 63.526937 
L 337.945029 63.763242 
L 340.422478 64.024335 
L 342.897194 64.310188 
L 345.368926 64.620774 
L 347.83743 64.956062 
L 350.302457 65.316017 
L 352.763762 65.700604 
L 355.221097 66.109784 
L 357.674218 66.543517 
L 360.122879 67.001759 
L 362.566836 67.484465 
L 365.005843 67.991585 
L 367.439657 68.52307 
L 369.868035 69.078865 
L 372.290733 69.658917 
L 374.70751 70.263166 
L 377.118123 70.891552 
L 379.522333 71.544012 
L 381.919897 72.220482 
L 384.310578 72.920893 
L 386.694134 73.645175 
L 389.070329 74.393257 
L 391.438924 75.165062 
L 393.799683 75.960514 
L 396.152369 76.779534 
L 398.496748 77.62204 
L 400.832585 78.487946 
L 403.159646 79.377168 
L 405.477698 80.289615 
L 407.78651 81.225196 
L 410.085852 82.183819 
L 412.375492 83.165386 
L 414.655202 84.169801 
L 416.924754 85.196962 
L 417.487693 85.455985 
L 420.71696 78.460705 
L 420.136611 78.193671 
L 417.796866 77.134742 
L 415.44665 76.099263 
L 413.086196 75.087338 
L 410.715741 74.099067 
L 408.335522 73.13455 
L 405.945777 72.193883 
L 403.546745 71.27716 
L 401.138666 70.384473 
L 398.721781 69.51591 
L 396.296331 68.67156 
L 393.862559 67.851506 
L 391.420708 67.05583 
L 388.971023 66.284612 
L 386.513748 65.53793 
L 384.049129 64.815856 
L 381.577413 64.118465 
L 379.098847 63.445826 
L 376.613678 62.798005 
L 374.122156 62.175068 
L 371.624529 61.577076 
L 369.121047 61.004091 
L 366.61196 60.456169 
L 364.09752 59.933364 
L 361.577977 59.43573 
L 359.053584 58.963315 
L 356.524593 58.516168 
L 353.991258 58.094333 
L 351.45383 57.697851 
L 348.912565 57.326763 
L 346.367716 56.981106 
L 343.819538 56.660914 
L 341.268285 56.36622 
L 338.714213 56.097053 
L 336.157577 55.853439 
L 333.598633 55.635403 
L 331.037637 55.442968 
L 328.474844 55.276151 
L 325.910511 55.13497 
L 323.344894 55.01944 
L 320.778251 54.92957 
L 318.210837 54.865372 
L 315.64291 54.82685 
L 313.074726 54.814009 
L 313.074726 62.51869 
z
" clip-path="url(#p397df3eab0)" style="fill: none; stroke: #000000; stroke-width: 0.5; stroke-linejoin: miter"/>
   </g>
   <g id="patch_17">
    <path d="M 436.803319 95.416861 
L 438.959295 96.664937 
L 441.102682 97.93451 
L 443.233268 99.225454 
L 445.350837 100.537638 
L 447.455179 101.870932 
L 449.546082 103.225202 
L 451.623339 104.600313 
L 453.686741 105.996128 
L 455.736082 107.412507 
L 457.771157 108.849308 
L 459.791763 110.306387 
L 461.797697 111.7836 
L 463.788758 113.280797 
L 465.764749 114.79783 
L 467.72547 116.334547 
L 469.670727 117.890793 
L 471.600324 119.466415 
L 473.514069 121.061253 
L 475.41177 122.675148 
L 477.293237 124.307939 
L 479.158283 125.959463 
L 481.00672 127.629555 
L 482.838364 129.318047 
L 484.634138 131.006823 
L 489.940099 125.420332 
L 488.088786 123.679326 
L 486.200493 121.938612 
L 484.294887 120.216868 
L 482.37216 118.514266 
L 480.432503 116.830976 
L 478.47611 115.167166 
L 476.503178 113.523003 
L 474.513902 111.898652 
L 472.508483 110.294274 
L 470.487121 108.71003 
L 468.450017 107.146078 
L 466.397376 105.602576 
L 464.329403 104.079676 
L 462.246305 102.577532 
L 460.148289 101.096294 
L 458.035567 99.63611 
L 455.908348 98.197126 
L 453.766846 96.779485 
L 451.611275 95.38333 
L 449.441851 94.008801 
L 447.258789 92.656033 
L 445.06231 91.325164 
L 442.852632 90.016326 
L 440.629976 88.729649 
L 436.803319 95.416861 
z
" clip-path="url(#p397df3eab0)" style="fill: none; stroke: #000000; stroke-width: 0.5; stroke-linejoin: miter"/>
   </g>
   <g id="patch_18">
    <path d="M 499.724234 146.646563 
L 501.364776 148.521276 
L 502.986488 150.412301 
L 504.58921 152.319448 
L 506.17278 154.242527 
L 507.737041 156.181345 
L 509.281836 158.135708 
L 510.80701 160.105421 
L 512.312411 162.090288 
L 513.797889 164.090109 
L 515.263294 166.104684 
L 515.951284 167.065309 
L 522.225817 162.594029 
L 521.516549 161.603694 
L 520.005822 159.526812 
L 518.474401 157.465141 
L 516.922442 155.418887 
L 515.350097 153.388254 
L 513.757525 151.373447 
L 512.144885 149.374665 
L 510.512338 147.39211 
L 508.860048 145.425979 
L 507.188179 143.476469 
L 505.496899 141.543774 
L 499.724234 146.646563 
z
" clip-path="url(#p397df3eab0)" style="fill: none; stroke: #000000; stroke-width: 0.5; stroke-linejoin: miter"/>
   </g>
   <g id="patch_19">
    <path d="M 527.779505 185.297304 
L 529.032143 187.450633 
L 530.263185 189.616381 
L 531.472509 191.79433 
L 532.659993 193.984264 
L 533.825518 196.185962 
L 534.968969 198.399206 
L 536.090231 200.623773 
L 537.189191 202.859442 
L 538.26574 205.105988 
L 539.31977 207.363187 
L 540.351176 209.630813 
L 541.359854 211.90864 
L 542.345704 214.19644 
L 543.308627 216.493983 
L 544.248526 218.801041 
L 545.165309 221.117382 
L 546.058883 223.442775 
L 546.929158 225.776988 
L 547.776049 228.119786 
L 548.599469 230.470936 
L 549.399337 232.830202 
L 550.175573 235.197349 
L 550.928099 237.57214 
L 551.65684 239.954338 
L 552.361722 242.343703 
L 553.042677 244.739998 
L 553.699634 247.142982 
L 554.33253 249.552416 
L 554.941299 251.968058 
L 555.525883 254.389667 
L 556.086221 256.817 
L 556.622259 259.249815 
L 556.673835 259.490171 
L 564.207828 257.877391 
L 564.154657 257.629602 
L 563.602041 255.121545 
L 563.024372 252.619139 
L 562.421709 250.122636 
L 561.794111 247.632283 
L 561.141642 245.148331 
L 560.464366 242.671027 
L 559.762351 240.20062 
L 559.035668 237.737357 
L 558.284389 235.281484 
L 557.508589 232.833246 
L 556.708346 230.392888 
L 555.883739 227.960654 
L 555.034852 225.536788 
L 554.16177 223.121532 
L 553.264578 220.715128 
L 552.343368 218.317815 
L 551.398232 215.929835 
L 550.429263 213.551425 
L 549.436559 211.182823 
L 548.420219 208.824267 
L 547.380344 206.475992 
L 546.317039 204.138233 
L 545.23041 201.811223 
L 544.120566 199.495196 
L 542.987618 197.190383 
L 541.831678 194.897015 
L 540.652863 192.615321 
L 539.45129 190.345528 
L 538.227079 188.087865 
L 536.980354 185.842556 
L 535.711238 183.609827 
L 534.419859 181.3899 
L 527.779505 185.297304 
z
" clip-path="url(#p397df3eab0)" style="fill: none; stroke: #000000; stroke-width: 0.5; stroke-linejoin: miter"/>
   </g>
   <g id="patch_20">
    <path d="M 560.291737 280.919665 
L 560.586542 283.39333 
L 560.856595 285.869819 
L 561.101871 288.348885 
L 561.322344 290.830279 
L 561.517992 293.313755 
L 561.688797 295.799062 
L 561.83474 298.285953 
L 561.955807 300.774179 
L 562.051987 303.263492 
L 562.123269 305.753642 
L 562.169646 308.24438 
L 562.191114 310.735457 
L 562.187671 313.226624 
L 562.159317 315.717633 
L 562.106054 318.208233 
L 562.027888 320.698176 
L 561.924828 323.187213 
L 561.796882 325.675096 
L 561.644065 328.161574 
L 561.46639 330.646399 
L 561.263877 333.129324 
L 561.036545 335.6101 
L 560.784417 338.088478 
L 560.507519 340.564211 
L 560.205877 343.037051 
L 559.879522 345.506752 
L 559.528487 347.973065 
L 559.152807 350.435745 
L 558.75252 352.894545 
L 558.327664 355.349219 
L 557.878284 357.799522 
L 557.404423 360.245208 
L 556.90613 362.686034 
L 556.383454 365.121755 
L 555.836447 367.552128 
L 555.265164 369.976909 
L 554.669663 372.395856 
L 554.050002 374.808727 
L 553.406243 377.215281 
L 552.738452 379.615277 
L 552.363927 380.922102 
L 559.764624 383.06495 
L 560.150732 381.717707 
L 560.839177 379.243484 
L 561.502845 376.762501 
L 562.141671 374.275005 
L 562.75559 371.781245 
L 563.344542 369.28147 
L 563.908466 366.775932 
L 564.447308 364.264879 
L 564.961012 361.748564 
L 565.449528 359.227237 
L 565.912807 356.701152 
L 566.350802 354.17056 
L 566.76347 351.635715 
L 567.150769 349.09687 
L 567.51266 346.554279 
L 567.849108 344.008196 
L 568.160079 341.458876 
L 568.445542 338.906574 
L 568.705468 336.351545 
L 568.93983 333.794044 
L 569.148607 331.234328 
L 569.331776 328.672652 
L 569.48932 326.109272 
L 569.621223 323.544446 
L 569.727471 320.978428 
L 569.808054 318.411476 
L 569.862964 315.843847 
L 569.892195 313.275797 
L 569.895745 310.707583 
L 569.873613 308.139462 
L 569.825801 305.571691 
L 569.752315 303.004526 
L 569.653161 300.438225 
L 569.528349 297.873043 
L 569.377892 295.309238 
L 569.201805 292.747065 
L 569.000105 290.186782 
L 568.772813 287.628643 
L 568.519952 285.072905 
L 568.241546 282.519824 
L 567.937624 279.969654 
L 560.291737 280.919665 
z
" clip-path="url(#p397df3eab0)" style="fill: none; stroke: #000000; stroke-width: 0.5; stroke-linejoin: miter"/>
   </g>
   <g id="patch_21">
    <path d="M 545.414739 401.513879 
L 544.504365 403.832746 
L 543.570849 406.142394 
L 542.614283 408.442592 
L 541.634764 410.733109 
L 540.632388 413.013716 
L 539.607257 415.284186 
L 538.559473 417.544292 
L 537.489141 419.793806 
L 536.396367 422.032505 
L 535.281262 424.260164 
L 534.143936 426.476562 
L 532.984503 428.681475 
L 531.80308 430.874684 
L 530.599783 433.055969 
L 529.374735 435.225113 
L 528.128056 437.381897 
L 526.859873 439.526107 
L 525.570311 441.657529 
L 524.2595 443.775948 
L 522.92757 445.881154 
L 521.574656 447.972935 
L 520.200891 450.051083 
L 518.806414 452.11539 
L 517.391365 454.165648 
L 515.955883 456.201654 
L 514.500114 458.223204 
L 513.024202 460.230095 
L 511.528296 462.222127 
L 510.012544 464.1991 
L 508.477099 466.160817 
L 506.922113 468.107082 
L 505.347743 470.037701 
L 503.754146 471.952479 
L 502.141481 473.851225 
L 500.50991 475.733751 
L 498.859595 477.599867 
L 497.190702 479.449386 
L 495.503398 481.282125 
L 493.79785 483.097899 
L 492.074231 484.896527 
L 490.536374 486.471348 
L 496.024878 491.878605 
L 497.610298 490.255078 
L 499.387225 488.400822 
L 501.145522 486.52889 
L 502.885011 484.639469 
L 504.605519 482.732748 
L 506.306874 480.808917 
L 507.988907 478.868169 
L 509.651448 476.910698 
L 511.294332 474.9367 
L 512.917393 472.946372 
L 514.520471 470.939914 
L 516.103404 468.917525 
L 517.666035 466.879408 
L 519.208207 464.825767 
L 520.729765 462.756807 
L 522.230558 460.672735 
L 523.710436 458.57376 
L 525.16925 456.460091 
L 526.606855 454.33194 
L 528.023107 452.18952 
L 529.417865 450.033044 
L 530.790988 447.862729 
L 532.14234 445.678791 
L 533.471785 443.48145 
L 534.77919 441.270924 
L 536.064426 439.047434 
L 537.327362 436.811204 
L 538.567874 434.562456 
L 539.785836 432.301416 
L 540.981128 430.02831 
L 542.153629 427.743364 
L 543.303222 425.446808 
L 544.429793 423.138871 
L 545.533228 420.819784 
L 546.613418 418.489778 
L 547.670254 416.149088 
L 548.703631 413.797946 
L 549.713445 411.436588 
L 550.699595 409.06525 
L 551.661983 406.68417 
L 552.600513 404.293585 
L 545.414739 401.513879 
z
" clip-path="url(#p397df3eab0)" style="fill: none; stroke: #000000; stroke-width: 0.5; stroke-linejoin: miter"/>
   </g>
   <g id="patch_22">
    <path d="M 474.623236 501.272851 
L 472.718829 502.878827 
L 470.798457 504.46568 
L 468.862314 506.033249 
L 466.910591 507.58138 
L 464.943485 509.109915 
L 462.961193 510.618704 
L 460.963912 512.107595 
L 458.951842 513.576439 
L 456.925185 515.025089 
L 454.884142 516.4534 
L 452.828919 517.86123 
L 450.759721 519.248437 
L 448.676754 520.614884 
L 446.580227 521.960432 
L 444.470349 523.284949 
L 442.347332 524.588301 
L 440.211388 525.870358 
L 438.062731 527.130992 
L 435.901575 528.370077 
L 433.728136 529.587488 
L 431.542632 530.783105 
L 429.345281 531.956807 
L 427.136303 533.108477 
L 424.915919 534.238 
L 422.684352 535.345264 
L 420.441823 536.430156 
L 418.188558 537.49257 
L 415.924781 538.532398 
L 413.650719 539.549537 
L 411.3666 540.543884 
L 409.072652 541.515341 
L 406.769104 542.463811 
L 404.456187 543.389198 
L 402.134132 544.291409 
L 399.803171 545.170356 
L 397.463537 546.025949 
L 395.115464 546.858104 
L 392.759187 547.666737 
L 390.394942 548.451767 
L 388.022965 549.213115 
L 385.643493 549.950707 
L 383.256765 550.664467 
L 380.863018 551.354324 
L 378.462492 552.02021 
L 376.055428 552.662058 
L 373.642066 553.279803 
L 371.222647 553.873384 
L 368.797413 554.442742 
L 366.366607 554.987819 
L 363.930472 555.508562 
L 361.489251 556.004917 
L 359.043189 556.476836 
L 356.59253 556.924271 
L 354.137519 557.347178 
L 351.678403 557.745513 
L 349.215425 558.119238 
L 346.748834 558.468315 
L 344.278876 558.792709 
L 341.805797 559.092388 
L 339.329844 559.367321 
L 336.851267 559.617482 
L 334.370312 559.842844 
L 331.887227 560.043386 
L 329.402261 560.219088 
L 326.915662 560.369931 
L 324.427679 560.495902 
L 321.938561 560.596987 
L 319.448557 560.673176 
L 316.957915 560.724461 
L 314.466885 560.750838 
L 311.975715 560.752304 
L 309.484656 560.728858 
L 306.993955 560.680504 
L 304.503863 560.607245 
L 302.014628 560.509089 
L 299.526498 560.386047 
L 297.039724 560.238129 
L 294.554553 560.065352 
L 292.071234 559.867732 
L 289.590015 559.645289 
L 287.111145 559.398046 
L 284.634871 559.126026 
L 282.161441 558.829258 
L 279.691102 558.507771 
L 277.224102 558.161597 
L 274.760687 557.79077 
L 272.301103 557.395329 
L 271.045483 557.183711 
L 269.745609 564.777948 
L 271.040063 564.996111 
L 273.575717 565.403783 
L 276.11532 565.786078 
L 278.658619 566.142958 
L 281.20536 566.474388 
L 283.755288 566.780335 
L 286.308148 567.060767 
L 288.863684 567.315658 
L 291.421641 567.54498 
L 293.981764 567.748712 
L 296.543796 567.926833 
L 299.107481 568.079325 
L 301.672563 568.206173 
L 304.238785 568.307365 
L 306.80589 568.382889 
L 309.373623 568.432739 
L 311.941725 568.45691 
L 314.509941 568.455399 
L 317.078014 568.428206 
L 319.645686 568.375335 
L 322.212701 568.296789 
L 324.778802 568.192578 
L 327.343732 568.062712 
L 329.907236 567.907203 
L 332.469057 567.726067 
L 335.028938 567.519323 
L 337.586624 567.28699 
L 340.141858 567.029093 
L 342.694386 566.745656 
L 345.243952 566.436709 
L 347.790301 566.102283 
L 350.333179 565.742409 
L 352.872331 565.357126 
L 355.407503 564.946471 
L 357.938442 564.510485 
L 360.464894 564.049211 
L 362.986607 563.562697 
L 365.50333 563.05099 
L 368.014809 562.514142 
L 370.520795 561.952207 
L 373.021036 561.36524 
L 375.515282 560.753301 
L 378.003285 560.11645 
L 380.484794 559.454751 
L 382.959563 558.768271 
L 385.427343 558.057078 
L 387.887888 557.321243 
L 390.340952 556.560839 
L 392.786289 555.775944 
L 395.223655 554.966635 
L 397.652806 554.132993 
L 400.0735 553.275101 
L 402.485494 552.393046 
L 404.888546 551.486916 
L 407.282418 550.5568 
L 409.666869 549.602793 
L 412.04166 548.62499 
L 414.406555 547.623488 
L 416.761317 546.598387 
L 419.105711 545.54979 
L 421.439501 544.477803 
L 423.762455 543.382531 
L 426.07434 542.264085 
L 428.374925 541.122576 
L 430.663981 539.958119 
L 432.941278 538.77083 
L 435.206588 537.560828 
L 437.459685 536.328234 
L 439.700343 535.07317 
L 441.928339 533.795764 
L 444.14345 532.496141 
L 446.345454 531.174433 
L 448.534132 529.830771 
L 450.709263 528.46529 
L 452.870631 527.078126 
L 455.018019 525.669418 
L 457.151214 524.239308 
L 459.27 522.787937 
L 461.374168 521.315451 
L 463.463505 519.821997 
L 465.537804 518.307725 
L 467.596857 516.772787 
L 469.640457 515.217334 
L 471.668402 513.641524 
L 473.680486 512.045514 
L 475.676511 510.429462 
L 477.656275 508.793532 
L 479.619582 507.137886 
L 474.623236 501.272851 
z
" clip-path="url(#p397df3eab0)" style="fill: none; stroke: #000000; stroke-width: 0.5; stroke-linejoin: miter"/>
   </g>
   <g id="patch_23">
    <path d="M 249.804586 552.586241 
L 247.398294 551.941503 
L 244.99857 551.272734 
L 242.605653 550.580002 
L 240.219784 549.863376 
L 237.841199 549.122928 
L 235.470138 548.358731 
L 233.106838 547.570862 
L 230.751534 546.7594 
L 228.404462 545.924425 
L 226.065858 545.066022 
L 223.735954 544.184277 
L 221.414984 543.279277 
L 219.10318 542.351113 
L 216.800773 541.399877 
L 214.507993 540.425666 
L 212.22507 539.428575 
L 209.952232 538.408706 
L 207.689705 537.36616 
L 205.437718 536.301041 
L 203.196494 535.213456 
L 200.966257 534.103513 
L 198.747232 532.971324 
L 196.539639 531.817001 
L 194.343699 530.640661 
L 192.159633 529.44242 
L 189.987658 528.222399 
L 187.827991 526.98072 
L 185.680849 525.717506 
L 183.546447 524.432885 
L 181.424997 523.126984 
L 179.316712 521.799934 
L 177.221802 520.451868 
L 175.140478 519.082921 
L 173.072947 517.693229 
L 171.019416 516.282932 
L 168.980091 514.85217 
L 166.955175 513.401087 
L 164.944871 511.929828 
L 162.949379 510.43854 
L 160.9689 508.927371 
L 159.003632 507.396474 
L 157.05377 505.846001 
L 155.119511 504.276107 
L 153.201047 502.686949 
L 151.29857 501.078686 
L 149.41227 499.45148 
L 147.542337 497.805492 
L 145.688957 496.140887 
L 143.852315 494.457832 
L 142.032595 492.756495 
L 140.229979 491.037047 
L 138.444648 489.299658 
L 136.67678 487.544503 
L 134.926551 485.771758 
L 133.194137 483.981599 
L 131.47971 482.174206 
L 129.783444 480.349759 
L 128.105506 478.508442 
L 126.446065 476.650437 
L 124.805286 474.775931 
L 123.183334 472.885111 
L 121.580372 470.978166 
L 119.996558 469.055287 
L 118.432053 467.116667 
L 116.887011 465.162499 
L 115.361588 463.192978 
L 113.855936 461.208302 
L 112.370206 459.208669 
L 110.904546 457.194279 
L 109.459103 455.165333 
L 108.034022 453.122034 
L 106.629444 451.064587 
L 105.245511 448.993197 
L 103.88236 446.908072 
L 102.540128 444.80942 
L 101.21895 442.69745 
L 99.918957 440.572375 
L 98.64028 438.434406 
L 97.383046 436.283757 
L 96.14738 434.120644 
L 94.933408 431.945283 
L 93.741249 429.75789 
L 92.571023 427.558686 
L 91.422848 425.34789 
L 90.296838 423.125723 
L 89.193105 420.892406 
L 88.11176 418.648165 
L 87.567728 417.496908 
L 80.593285 420.770934 
L 81.154143 421.957797 
L 82.268931 424.271449 
L 83.4068 426.573836 
L 84.567635 428.864731 
L 85.751321 431.143902 
L 86.957739 433.411123 
L 88.186769 435.666166 
L 89.438287 437.908807 
L 90.712169 440.138821 
L 92.008287 442.355984 
L 93.326511 444.560076 
L 94.66671 446.750875 
L 96.028749 448.928163 
L 97.412493 451.091722 
L 98.817803 453.241336 
L 100.244538 455.376789 
L 101.692557 457.497869 
L 103.161713 459.604362 
L 104.65186 461.696059 
L 106.16285 463.77275 
L 107.69453 465.834228 
L 109.246749 467.880285 
L 110.81935 469.910719 
L 112.412176 471.925326 
L 114.025069 473.923903 
L 115.657866 475.906252 
L 117.310405 477.872175 
L 118.98252 479.821474 
L 120.674044 481.753954 
L 122.384808 483.669423 
L 124.114641 485.567689 
L 125.86337 487.448562 
L 127.630819 489.311854 
L 129.416813 491.157378 
L 131.221173 492.984951 
L 133.043718 494.794388 
L 134.884266 496.585511 
L 136.742632 498.358138 
L 138.618632 500.112094 
L 140.512077 501.847202 
L 142.422778 503.563289 
L 144.350545 505.260184 
L 146.295183 506.937717 
L 148.2565 508.595719 
L 150.234298 510.234026 
L 152.22838 511.852474 
L 154.238546 513.4509 
L 156.264596 515.029144 
L 158.306327 516.58705 
L 160.363535 518.124461 
L 162.436014 519.641223 
L 164.523556 521.137185 
L 166.625953 522.612197 
L 168.742995 524.066111 
L 170.87447 525.498783 
L 173.020165 526.910069 
L 175.179866 528.299828 
L 177.353356 529.66792 
L 179.540417 531.01421 
L 181.740833 532.338562 
L 183.954381 533.640844 
L 186.180841 534.920926 
L 188.419991 536.178679 
L 190.671606 537.413979 
L 192.935461 538.626701 
L 195.21133 539.816724 
L 197.498985 540.98393 
L 199.798198 542.1282 
L 202.108738 543.249422 
L 204.430375 544.347483 
L 206.762876 545.422273 
L 209.106008 546.473685 
L 211.459537 547.501613 
L 213.823228 548.505955 
L 216.196843 549.48661 
L 218.580146 550.44348 
L 220.972899 551.37647 
L 223.374862 552.285486 
L 225.785794 553.170437 
L 228.205456 554.031235 
L 230.633604 554.867794 
L 233.069996 555.68003 
L 235.514389 556.467862 
L 237.966538 557.231211 
L 240.426197 557.970001 
L 242.893122 558.684157 
L 245.367064 559.37361 
L 247.847777 560.038288 
L 249.804586 552.586241 
z
" clip-path="url(#p397df3eab0)" style="fill: none; stroke: #000000; stroke-width: 0.5; stroke-linejoin: miter"/>
   </g>
   <g id="patch_24">
    <path d="M 79.199526 397.439848 
L 78.353203 395.096845 
L 77.530351 392.745496 
L 76.731054 390.386036 
L 75.955391 388.018701 
L 75.20344 385.643728 
L 74.475275 383.261354 
L 73.770971 380.871819 
L 73.090596 378.475359 
L 72.43422 376.072216 
L 71.801908 373.662629 
L 71.193722 371.24684 
L 70.609725 368.82509 
L 70.049974 366.397621 
L 69.514525 363.964676 
L 69.003432 361.526498 
L 68.516746 359.083331 
L 68.054515 356.63542 
L 67.616787 354.183009 
L 67.203603 351.726343 
L 66.815007 349.265668 
L 66.451037 346.801231 
L 66.111729 344.333277 
L 65.797116 341.862053 
L 65.507232 339.387807 
L 65.242104 336.910786 
L 65.001759 334.431237 
L 64.786221 331.949409 
L 64.595511 329.46555 
L 64.42965 326.979908 
L 64.288653 324.492731 
L 64.172534 322.004269 
L 64.081305 319.51477 
L 64.014975 317.024484 
L 63.973551 314.533658 
L 63.957037 312.042543 
L 63.965435 309.551387 
L 63.998743 307.06044 
L 64.056958 304.569951 
L 64.140076 302.080168 
L 64.248086 299.591341 
L 64.273656 299.074259 
L 56.578777 298.685729 
L 56.552417 299.218804 
L 56.441066 301.784605 
L 56.355378 304.351391 
L 56.295362 306.918906 
L 56.261024 309.486893 
L 56.252366 312.055095 
L 56.269391 314.623255 
L 56.312096 317.191116 
L 56.380477 319.758422 
L 56.474528 322.324915 
L 56.594238 324.89034 
L 56.739596 327.454439 
L 56.910587 330.016957 
L 57.107195 332.577637 
L 57.329399 335.136222 
L 57.577177 337.692458 
L 57.850505 340.246088 
L 58.149355 342.796857 
L 58.473698 345.344511 
L 58.8235 347.888793 
L 59.198727 350.42945 
L 59.599342 352.966229 
L 60.025304 355.498874 
L 60.476571 358.027133 
L 60.953097 360.550753 
L 61.454835 363.069481 
L 61.981735 365.583066 
L 62.533744 368.091257 
L 63.110807 370.593803 
L 63.712867 373.090452 
L 64.339862 375.580957 
L 64.99173 378.065067 
L 65.668407 380.542534 
L 66.369824 383.013111 
L 67.095911 385.47655 
L 67.846596 387.932605 
L 68.621803 390.381031 
L 69.421456 392.821582 
L 70.245474 395.254015 
L 71.093774 397.678086 
L 71.966273 400.093553 
L 79.199526 397.439848 
z
" clip-path="url(#p397df3eab0)" style="fill: none; stroke: #000000; stroke-width: 0.5; stroke-linejoin: miter"/>
   </g>
   <g id="patch_25">
    <path d="M 66.315309 277.437621 
L 66.669632 274.971778 
L 67.048595 272.509601 
L 67.452161 270.051337 
L 67.880289 267.597232 
L 68.332936 265.14753 
L 68.810057 262.702477 
L 69.311604 260.262318 
L 69.837528 257.827296 
L 70.387774 255.397655 
L 70.96229 252.973638 
L 71.561016 250.555487 
L 72.183894 248.143444 
L 72.83086 245.737751 
L 73.501851 243.338647 
L 74.196799 240.946373 
L 74.915634 238.561168 
L 75.658285 236.183271 
L 76.424678 233.812919 
L 77.214735 231.450349 
L 77.423376 230.839252 
L 70.13519 228.340362 
L 69.920096 228.970358 
L 69.105604 231.405997 
L 68.315509 233.849659 
L 67.549889 236.3011 
L 66.808822 238.760074 
L 66.092381 241.226336 
L 65.400638 243.699639 
L 64.733662 246.179735 
L 64.09152 248.666377 
L 63.474276 251.159316 
L 62.881992 253.658303 
L 62.314728 256.163087 
L 61.772539 258.673419 
L 61.255479 261.189047 
L 60.763602 263.70972 
L 60.296956 266.235186 
L 59.855587 268.765191 
L 59.43954 271.299484 
L 59.048856 273.837811 
L 58.683574 276.379917 
L 66.315309 277.437621 
z
" clip-path="url(#p397df3eab0)" style="fill: none; stroke: #000000; stroke-width: 0.5; stroke-linejoin: miter"/>
   </g>
   <g id="patch_26">
    <path d="M 85.362063 210.608343 
L 86.383716 208.336305 
L 87.428037 206.074598 
L 88.494923 203.823447 
L 89.584266 201.583077 
L 90.695959 199.353712 
L 91.829889 197.135576 
L 92.985943 194.928889 
L 94.164006 192.733873 
L 95.36396 190.550748 
L 96.585685 188.379731 
L 97.829059 186.221039 
L 99.093957 184.074889 
L 100.380252 181.941495 
L 101.687818 179.82107 
L 103.016521 177.713827 
L 104.366231 175.619976 
L 105.736811 173.539727 
L 107.128124 171.473287 
L 108.540032 169.420864 
L 109.972394 167.382662 
L 111.425065 165.358885 
L 112.897901 163.349736 
L 114.390755 161.355415 
L 115.374287 160.063875 
L 109.259841 155.376055 
L 108.24589 156.70754 
L 106.706866 158.76354 
L 105.188478 160.834828 
L 103.690878 162.921196 
L 102.214217 165.022435 
L 100.758642 167.138336 
L 99.324298 169.268686 
L 97.911329 171.413273 
L 96.519876 173.571883 
L 95.150078 175.744298 
L 93.802073 177.930303 
L 92.475995 180.129678 
L 91.171976 182.342204 
L 89.890148 184.567659 
L 88.630637 186.805821 
L 87.393571 189.056466 
L 86.179073 191.319369 
L 84.987265 193.594304 
L 83.818265 195.881042 
L 82.67219 198.179356 
L 81.549155 200.489016 
L 80.449273 202.809791 
L 79.372653 205.141448 
L 78.319403 207.483754 
L 85.362063 210.608343 
z
" clip-path="url(#p397df3eab0)" style="fill: none; stroke: #000000; stroke-width: 0.5; stroke-linejoin: miter"/>
   </g>
   <g id="patch_27">
    <path d="M 129.33704 143.409927 
L 131.028467 141.580992 
L 132.738098 139.769062 
L 134.465762 137.974319 
L 136.211287 136.196942 
L 137.974499 134.437109 
L 139.75522 132.694996 
L 141.553274 130.970777 
L 141.725883 130.807061 
L 136.426434 125.214391 
L 136.248486 125.383171 
L 134.394823 127.160717 
L 132.559028 128.956709 
L 130.741284 130.77097 
L 128.941774 132.603318 
L 127.160676 134.453568 
L 125.39817 136.321537 
L 123.654431 138.207037 
L 129.33704 143.409927 
z
" clip-path="url(#p397df3eab0)" style="fill: none; stroke: #000000; stroke-width: 0.5; stroke-linejoin: miter"/>
   </g>
   <g id="patch_28">
    <path d="M 158.138259 116.561137 
L 160.096729 115.021552 
L 162.070497 113.501628 
L 164.059365 112.001517 
L 166.063134 110.52137 
L 168.081605 109.061335 
L 170.114574 107.621556 
L 172.16184 106.202179 
L 174.223196 104.803345 
L 176.298438 103.425195 
L 178.387357 102.067865 
L 180.489745 100.731492 
L 182.235963 99.643771 
L 178.189403 93.087289 
L 176.389179 94.208651 
L 174.221769 95.586355 
L 172.068244 96.985664 
L 169.928819 98.406437 
L 167.803709 99.848534 
L 165.693126 101.311809 
L 163.597281 102.796117 
L 161.516384 104.301308 
L 159.450643 105.827233 
L 157.400263 107.373739 
L 155.365451 108.94067 
L 153.34641 110.527872 
L 158.138259 116.561137 
z
" clip-path="url(#p397df3eab0)" style="fill: none; stroke: #000000; stroke-width: 0.5; stroke-linejoin: miter"/>
   </g>
   <g id="patch_29">
    <path d="M 201.210246 89.047119 
L 203.441698 87.939622 
L 205.684113 86.854495 
L 207.937267 85.791846 
L 210.200935 84.751781 
L 212.47489 83.734404 
L 214.758905 82.739818 
L 217.052752 81.768121 
L 219.3562 80.81941 
L 221.669021 79.893781 
L 223.990982 78.991327 
L 226.321851 78.112136 
L 228.661395 77.256298 
L 231.009381 76.423898 
L 233.365573 75.615018 
L 235.729736 74.829741 
L 238.101634 74.068144 
L 240.481028 73.330304 
L 242.867682 72.616295 
L 245.261357 71.926187 
L 247.661813 71.26005 
L 250.06881 70.61795 
L 252.482108 69.999953 
L 254.901464 69.406118 
L 257.326639 68.836507 
L 259.757388 68.291175 
L 262.193468 67.770178 
L 264.634637 67.273567 
L 267.08065 66.801392 
L 269.531262 66.353701 
L 271.986228 65.930537 
L 274.445303 65.531944 
L 276.908241 65.157962 
L 279.374796 64.808627 
L 281.844721 64.483974 
L 284.317768 64.184037 
L 286.793692 63.908845 
L 289.272243 63.658425 
L 291.36266 63.466659 
L 290.691152 55.791297 
L 288.536084 55.988994 
L 285.980876 56.247158 
L 283.428378 56.530862 
L 280.878844 56.840075 
L 278.33253 57.174769 
L 275.78969 57.534908 
L 273.250579 57.920457 
L 270.71545 58.331377 
L 268.184557 58.767628 
L 265.658152 59.229166 
L 263.13649 59.715944 
L 260.619821 60.227914 
L 258.108398 60.765025 
L 255.602471 61.327222 
L 253.102291 61.91445 
L 250.608109 62.526651 
L 248.120173 63.163762 
L 245.638733 63.82572 
L 243.164036 64.512459 
L 240.69633 65.223911 
L 238.235862 65.960003 
L 235.782878 66.720663 
L 233.337623 67.505814 
L 230.900342 68.315378 
L 228.471278 69.149275 
L 226.050674 70.007419 
L 223.638772 70.889727 
L 221.235814 71.796109 
L 218.84204 72.726474 
L 216.457689 73.680731 
L 214.083 74.658783 
L 211.71821 75.660532 
L 209.363555 76.685879 
L 207.019271 77.734721 
L 204.685593 78.806953 
L 202.362754 79.902468 
L 200.050986 81.021156 
L 197.75052 82.162905 
L 201.210246 89.047119 
z
" clip-path="url(#p397df3eab0)" style="fill: none; stroke: #000000; stroke-width: 0.5; stroke-linejoin: miter"/>
   </g>
   <g id="text_1">
    <text style="font: 10px 'DejaVu Sans', 'Bitstream Vera Sans', 'Computer Modern Sans Serif', 'Lucida Grande', 'Verdana', 'Geneva', 'Lucid', 'Arial', 'Helvetica', 'Avant Garde', sans-serif; text-anchor: middle" x="371.380657" y="46.222014" transform="rotate(-347.610147 371.380657 46.222014)">CA1v</text>
   </g>
   <g id="text_2">
    <text style="font: 10px 'DejaVu Sans', 'Bitstream Vera Sans', 'Computer Modern Sans Serif', 'Lucida Grande', 'Verdana', 'Geneva', 'Lucid', 'Arial', 'Helvetica', 'Avant Garde', sans-serif; text-anchor: middle" x="475.293675" y="93.62397" transform="rotate(-323.347797 475.293675 93.62397)">CA1d</text>
   </g>
   <g id="text_3">
    <text style="font: 10px 'DejaVu Sans', 'Bitstream Vera Sans', 'Computer Modern Sans Serif', 'Lucida Grande', 'Verdana', 'Geneva', 'Lucid', 'Arial', 'Helvetica', 'Avant Garde', sans-serif; text-anchor: middle" x="525.818298" y="142.566562" transform="rotate(-308.474633 525.818298 142.566562)">CA2</text>
   </g>
   <g id="text_4">
    <text style="font: 10px 'DejaVu Sans', 'Bitstream Vera Sans', 'Computer Modern Sans Serif', 'Lucida Grande', 'Verdana', 'Geneva', 'Lucid', 'Arial', 'Helvetica', 'Avant Garde', sans-serif; text-anchor: middle" x="566.293027" y="213.021122" transform="rotate(-291.278371 566.293027 213.021122)">CA3</text>
   </g>
   <g id="text_5">
    <text style="font: 10px 'DejaVu Sans', 'Bitstream Vera Sans', 'Computer Modern Sans Serif', 'Lucida Grande', 'Verdana', 'Geneva', 'Lucid', 'Arial', 'Helvetica', 'Avant Garde', sans-serif; text-anchor: middle" x="589.469827" y="333.548254" transform="rotate(-85.46729 589.469827 333.548254)">SUBv</text>
   </g>
   <g id="text_6">
    <text style="font: 10px 'DejaVu Sans', 'Bitstream Vera Sans', 'Computer Modern Sans Serif', 'Lucida Grande', 'Verdana', 'Geneva', 'Lucid', 'Arial', 'Helvetica', 'Avant Garde', sans-serif; text-anchor: middle" x="545.973459" y="462.077887" transform="rotate(-57.139519 545.973459 462.077887)">SUBd</text>
   </g>
   <g id="text_7">
    <text style="font: 10px 'DejaVu Sans', 'Bitstream Vera Sans', 'Computer Modern Sans Serif', 'Lucida Grande', 'Verdana', 'Geneva', 'Lucid', 'Arial', 'Helvetica', 'Avant Garde', sans-serif; text-anchor: middle" x="386.503452" y="578.998991" transform="rotate(-15.357143 386.503452 578.998991)">MS</text>
   </g>
   <g id="text_8">
    <text style="font: 10px 'DejaVu Sans', 'Bitstream Vera Sans', 'Computer Modern Sans Serif', 'Lucida Grande', 'Verdana', 'Geneva', 'Lucid', 'Arial', 'Helvetica', 'Avant Garde', sans-serif; text-anchor: middle" x="135.659503" y="524.705258" transform="rotate(-320.216956 135.659503 524.705258)">NDB</text>
   </g>
   <g id="text_9">
    <text style="font: 10px 'DejaVu Sans', 'Bitstream Vera Sans', 'Computer Modern Sans Serif', 'Lucida Grande', 'Verdana', 'Geneva', 'Lucid', 'Arial', 'Helvetica', 'Avant Garde', sans-serif; text-anchor: middle" x="38.950303" y="353.232003" transform="rotate(-278.628171 38.950303 353.232003)">LS</text>
   </g>
   <g id="text_10">
    <text style="font: 10px 'DejaVu Sans', 'Bitstream Vera Sans', 'Computer Modern Sans Serif', 'Lucida Grande', 'Verdana', 'Geneva', 'Lucid', 'Arial', 'Helvetica', 'Avant Garde', sans-serif; text-anchor: middle" x="48.737842" y="248.624375" transform="rotate(-76.592123 48.737842 248.624375)">DG</text>
   </g>
   <g id="text_11">
    <text style="font: 10px 'DejaVu Sans', 'Bitstream Vera Sans', 'Computer Modern Sans Serif', 'Lucida Grande', 'Verdana', 'Geneva', 'Lucid', 'Arial', 'Helvetica', 'Avant Garde', sans-serif; text-anchor: middle" x="79.417703" y="172.896167" transform="rotate(-59.299065 79.417703 172.896167)">PAR</text>
   </g>
   <g id="text_12">
    <text style="font: 10px 'DejaVu Sans', 'Bitstream Vera Sans', 'Computer Modern Sans Serif', 'Lucida Grande', 'Verdana', 'Geneva', 'Lucid', 'Arial', 'Helvetica', 'Avant Garde', sans-serif; text-anchor: middle" x="119.284607" y="121.137544" transform="rotate(-45.490654 119.284607 121.137544)">PRE</text>
   </g>
   <g id="text_13">
    <text style="font: 10px 'DejaVu Sans', 'Bitstream Vera Sans', 'Computer Modern Sans Serif', 'Lucida Grande', 'Verdana', 'Geneva', 'Lucid', 'Arial', 'Helvetica', 'Avant Garde', sans-serif; text-anchor: middle" x="156.936842" y="89.228294" transform="rotate(-35.070093 156.936842 89.228294)">POST</text>
   </g>
   <g id="text_14">
    <text style="font: 10px 'DejaVu Sans', 'Bitstream Vera Sans', 'Computer Modern Sans Serif', 'Lucida Grande', 'Verdana', 'Geneva', 'Lucid', 'Arial', 'Helvetica', 'Avant Garde', sans-serif; text-anchor: middle" x="238.896688" y="50.213373" transform="rotate(-15.841121 238.896688 50.213373)">ACB</text>
   </g>
  </g>
 </g>
 <defs>
  <clipPath id="p397df3eab0">
   <path d="M 582.738561 311.636709 
C 582.738561 276.224779 575.763183 241.157185 562.211624 208.440827 
C 548.660065 175.724469 528.795868 145.995599 503.755852 120.955583 
C 478.715836 95.915567 448.986965 76.05137 416.270608 62.499811 
C 383.55425 48.948252 348.486656 41.972874 313.074726 41.972874 
C 277.662795 41.972874 242.595201 48.948252 209.878844 62.499811 
C 177.162486 76.05137 147.433615 95.915567 122.393599 120.955583 
C 97.353583 145.995599 77.489387 175.724469 63.937828 208.440827 
C 50.386269 241.157185 43.41089 276.224779 43.41089 311.636709 
C 43.41089 347.048639 50.386269 382.116233 63.937828 414.832591 
C 77.489387 447.548949 97.353583 477.277819 122.393599 502.317836 
C 147.433615 527.357852 177.162486 547.222048 209.878844 560.773607 
C 242.595201 574.325166 277.662795 581.300544 313.074726 581.300544 
C 348.486656 581.300544 383.55425 574.325166 416.270608 560.773607 
C 448.986965 547.222048 478.715836 527.357852 503.755852 502.317836 
C 528.795868 477.277819 548.660065 447.548949 562.211624 414.832591 
C 575.763183 382.116233 582.738561 347.048639 582.738561 311.636709 
M 313.074726 311.636709 
C 313.074726 311.636709 313.074726 311.636709 313.074726 311.636709 
C 313.074726 311.636709 313.074726 311.636709 313.074726 311.636709 
C 313.074726 311.636709 313.074726 311.636709 313.074726 311.636709 
C 313.074726 311.636709 313.074726 311.636709 313.074726 311.636709 
C 313.074726 311.636709 313.074726 311.636709 313.074726 311.636709 
C 313.074726 311.636709 313.074726 311.636709 313.074726 311.636709 
C 313.074726 311.636709 313.074726 311.636709 313.074726 311.636709 
C 313.074726 311.636709 313.074726 311.636709 313.074726 311.636709 
C 313.074726 311.636709 313.074726 311.636709 313.074726 311.636709 
C 313.074726 311.636709 313.074726 311.636709 313.074726 311.636709 
C 313.074726 311.636709 313.074726 311.636709 313.074726 311.636709 
C 313.074726 311.636709 313.074726 311.636709 313.074726 311.636709 
C 313.074726 311.636709 313.074726 311.636709 313.074726 311.636709 
C 313.074726 311.636709 313.074726 311.636709 313.074726 311.636709 
C 313.074726 311.636709 313.074726 311.636709 313.074726 311.636709 
C 313.074726 311.636709 313.074726 311.636709 313.074726 311.636709 
z
"/>
  </clipPath>
 </defs>
</svg>
