<?xml version="1.0" encoding="utf-8" standalone="no"?>
<!DOCTYPE svg PUBLIC "-//W3C//DTD SVG 1.1//EN"
  "http://www.w3.org/Graphics/SVG/1.1/DTD/svg11.dtd">
<svg xmlns:xlink="http://www.w3.org/1999/xlink" width="624.726197pt" height="626.291314pt" viewBox="0 0 624.726197 626.291314" xmlns="http://www.w3.org/2000/svg" version="1.1">
 <metadata>
  <rdf:RDF xmlns:dc="http://purl.org/dc/elements/1.1/" xmlns:cc="http://creativecommons.org/ns#" xmlns:rdf="http://www.w3.org/1999/02/22-rdf-syntax-ns#">
   <cc:Work>
    <dc:type rdf:resource="http://purl.org/dc/dcmitype/StillImage"/>
    <dc:date>2024-11-18T10:58:37.161579</dc:date>
    <dc:format>image/svg+xml</dc:format>
    <dc:creator>
     <cc:Agent>
      <dc:title>Matplotlib v3.9.2, https://matplotlib.org/</dc:title>
     </cc:Agent>
    </dc:creator>
   </cc:Work>
  </rdf:RDF>
 </metadata>
 <defs>
  <style type="text/css">*{stroke-linejoin: round; stroke-linecap: butt}</style>
 </defs>
 <g id="figure_1">
  <g id="patch_1">
   <path d="M 0 626.291314 
L 624.726197 626.291314 
L 624.726197 0 
L 0 0 
z
" style="fill: #ffffff"/>
  </g>
  <g id="axes_1">
   <g id="patch_2">
    <path d="M 312.825999 65.985681 
L 315.295932 65.998031 
L 317.765619 66.035079 
L 320.234811 66.096821 
L 322.703263 66.183252 
L 325.170727 66.294363 
L 327.636956 66.430143 
L 330.101704 66.590577 
L 332.564725 66.775651 
L 335.025772 66.985345 
L 337.484599 67.219639 
L 339.94096 67.478509 
L 342.394609 67.761929 
L 343.86817 67.944105 
L 344.828237 60.365579 
L 343.309102 60.177768 
L 340.779567 59.885583 
L 338.247236 59.618706 
L 335.712363 59.377166 
L 333.175201 59.160987 
L 330.636004 58.970189 
L 328.095027 58.804793 
L 325.552522 58.664814 
L 323.008745 58.550266 
L 320.46395 58.461162 
L 317.918391 58.39751 
L 315.372322 58.359316 
L 312.825999 58.346584 
z
" clip-path="url(#pe56e1c7245)" style="fill: #000080"/>
   </g>
   <g id="patch_3">
    <path d="M 365.106604 71.582056 
L 367.51796 72.116924 
L 369.923848 72.675877 
L 372.324025 73.258862 
L 374.718253 73.865818 
L 377.106292 74.496686 
L 379.487903 75.151403 
L 381.862847 75.829902 
L 384.230888 76.532116 
L 386.591789 77.257976 
L 388.945313 78.007408 
L 391.291225 78.780337 
L 393.629291 79.576686 
L 395.959276 80.396376 
L 398.280948 81.239324 
L 400.594075 82.105446 
L 402.898425 82.994656 
L 404.738892 83.723975 
L 407.581559 76.633486 
L 405.68417 75.88161 
L 403.308552 74.964899 
L 400.923885 74.07199 
L 398.530408 73.202971 
L 396.128362 72.35793 
L 393.717985 71.536951 
L 391.299518 70.740117 
L 388.873205 69.967507 
L 386.439287 69.219198 
L 383.998008 68.495266 
L 381.549611 67.795782 
L 379.094342 67.120817 
L 376.632447 66.470437 
L 374.164171 65.844709 
L 371.689761 65.243694 
L 369.209464 64.667453 
L 366.72353 64.116044 
z
" clip-path="url(#pe56e1c7245)" style="fill: #0000d6"/>
   </g>
   <g id="patch_4">
    <path d="M 424.370388 92.607112 
L 426.568535 93.733556 
L 428.755307 94.881925 
L 430.930486 96.052103 
L 433.093855 97.243975 
L 435.245197 98.457421 
L 437.384298 99.692318 
L 439.510943 100.948545 
L 441.624919 102.225975 
L 443.726015 103.52448 
L 444.669025 104.116769 
L 448.746644 97.656985 
L 447.77447 97.046378 
L 445.608391 95.707712 
L 443.429034 94.390774 
L 441.236616 93.095695 
L 439.031358 91.822605 
L 436.813479 90.57163 
L 434.583202 89.342896 
L 432.340749 88.136527 
L 430.086345 86.952641 
L 427.820215 85.791359 
z
" clip-path="url(#pe56e1c7245)" style="fill: #001cff"/>
   </g>
   <g id="patch_5">
    <path d="M 462.371225 116.402445 
L 464.329522 117.907702 
L 466.272669 119.432465 
L 468.200471 120.976584 
L 470.112736 122.539903 
L 472.009272 124.122266 
L 473.88989 125.723515 
L 475.754402 127.34349 
L 477.602621 128.982029 
L 479.434363 130.638968 
L 481.249444 132.314141 
L 483.047682 134.007381 
L 484.828899 135.718518 
L 486.592916 137.447381 
L 488.339556 139.193798 
L 490.068644 140.957594 
L 491.780009 142.738592 
L 493.473479 144.536614 
L 495.148883 146.351481 
L 496.806056 148.183011 
L 498.444831 150.031021 
L 500.065044 151.895326 
L 501.666533 153.77574 
L 503.249139 155.672074 
L 504.812702 157.584139 
L 506.357067 159.511744 
L 507.882079 161.454696 
L 509.387585 163.4128 
L 510.873435 165.385862 
L 512.339481 167.373683 
L 513.785576 169.376065 
L 515.211575 171.392808 
L 516.617335 173.423709 
L 518.002717 175.468567 
L 519.367581 177.527175 
L 520.711791 179.599329 
L 522.035212 181.684822 
L 523.337713 183.783444 
L 524.619163 185.894986 
L 525.879434 188.019237 
L 527.118399 190.155984 
L 528.335936 192.305013 
L 529.531922 194.46611 
L 530.706237 196.639059 
L 531.858764 198.823643 
L 532.989389 201.019642 
L 534.097997 203.226837 
L 535.184478 205.445008 
L 536.248723 207.673932 
L 537.290627 209.913388 
L 538.310084 212.16315 
L 539.306993 214.422994 
L 540.281254 216.692695 
L 541.23277 218.972024 
L 542.161445 221.260754 
L 543.067187 223.558656 
L 543.949904 225.865501 
L 544.80951 228.181057 
L 545.645918 230.505094 
L 546.459043 232.837378 
L 547.248806 235.177677 
L 547.943694 237.303473 
L 555.215375 234.962865 
L 554.498996 232.771322 
L 553.684808 230.358643 
L 552.846534 227.954226 
L 551.984258 225.558313 
L 551.098067 223.171141 
L 550.188048 220.792951 
L 549.254294 218.423979 
L 548.296896 216.064464 
L 547.315952 213.71464 
L 546.31156 211.374743 
L 545.283819 209.045006 
L 544.232832 206.725664 
L 543.158705 204.416947 
L 542.061544 202.119086 
L 540.941461 199.832312 
L 539.798566 197.556853 
L 538.632973 195.292937 
L 537.444801 193.040789 
L 536.234167 190.800635 
L 535.001192 188.5727 
L 533.745999 186.357206 
L 532.468715 184.154374 
L 531.169467 181.964425 
L 529.848385 179.787577 
L 528.5056 177.624049 
L 527.141248 175.474057 
L 525.755465 173.337816 
L 524.348388 171.215539 
L 522.92016 169.107438 
L 521.470923 167.013726 
L 520.000821 164.934609 
L 518.510001 162.870298 
L 516.998614 160.820998 
L 515.466809 158.786914 
L 513.914741 156.768249 
L 512.342564 154.765206 
L 510.750435 152.777985 
L 509.138514 150.806783 
L 507.506962 148.8518 
L 505.855942 146.913229 
L 504.185619 144.991265 
L 502.496161 143.0861 
L 500.787735 141.197925 
L 499.060514 139.326928 
L 497.314669 137.473297 
L 495.550376 135.637216 
L 493.76781 133.81887 
L 491.96715 132.01844 
L 490.148576 130.236107 
L 488.312271 128.472048 
L 486.458416 126.72644 
L 484.587199 124.999458 
L 482.698805 123.291273 
L 480.793425 121.602058 
L 478.871248 119.931981 
L 476.932466 118.281208 
L 474.977274 116.649906 
L 473.005867 115.038237 
L 471.018442 113.446362 
L 469.015198 111.874441 
L 466.996335 110.32263 
z
" clip-path="url(#pe56e1c7245)" style="fill: #006cff"/>
   </g>
   <g id="patch_6">
    <path d="M 553.644917 258.083314 
L 554.181865 260.494208 
L 554.694678 262.910351 
L 555.183304 265.331501 
L 555.647695 267.757416 
L 556.087804 270.187854 
L 556.503586 272.622571 
L 556.895001 275.061324 
L 557.26201 277.50387 
L 557.604575 279.949963 
L 557.922662 282.39936 
L 558.21624 284.851815 
L 558.485279 287.307083 
L 558.729753 289.764918 
L 558.949636 292.225076 
L 559.089163 293.951689 
L 566.705549 293.363088 
L 566.561707 291.583074 
L 566.335023 289.046829 
L 566.082989 286.512978 
L 565.805629 283.981774 
L 565.502971 281.45347 
L 565.175046 278.928319 
L 564.821887 276.406573 
L 564.443527 273.888485 
L 564.040007 271.374306 
L 563.611365 268.864289 
L 563.157644 266.358683 
L 562.678891 263.857739 
L 562.175153 261.361708 
L 561.64648 258.870839 
L 561.092925 256.385381 
z
" clip-path="url(#pe56e1c7245)" style="fill: #00b8ff"/>
   </g>
   <g id="patch_7">
    <path d="M 559.810756 315.487358 
L 559.773365 317.95704 
L 559.71128 320.426223 
L 559.624506 322.894663 
L 559.513053 325.362111 
L 559.376931 327.828322 
L 559.216154 330.293048 
L 559.030738 332.756043 
L 558.820702 335.217061 
L 558.586067 337.675855 
L 558.326856 340.13218 
L 558.043095 342.58579 
L 557.734813 345.03644 
L 557.40204 347.483885 
L 557.044809 349.927879 
L 556.663157 352.36818 
L 556.257121 354.804541 
L 555.826743 357.236721 
L 555.372064 359.664475 
L 554.893132 362.087561 
L 554.389992 364.505737 
L 553.862697 366.918761 
L 553.311298 369.326391 
L 552.73585 371.728387 
L 552.136412 374.124508 
L 551.513043 376.514515 
L 550.865806 378.898169 
L 550.194764 381.275232 
L 549.499987 383.645465 
L 548.781541 386.008633 
L 548.039501 388.364498 
L 547.273939 390.712824 
L 546.484933 393.053378 
L 545.672561 395.385925 
L 544.836905 397.710232 
L 543.978047 400.026066 
L 543.096075 402.333196 
L 542.191076 404.631391 
L 541.26314 406.920421 
L 540.312361 409.200057 
L 539.338834 411.470072 
L 538.342655 413.730238 
L 537.323925 415.98033 
L 536.282746 418.220122 
L 535.219221 420.449391 
L 534.133457 422.667912 
L 533.025562 424.875466 
L 531.895647 427.07183 
L 530.743826 429.256786 
L 529.570213 431.430114 
L 528.374926 433.591598 
L 527.158084 435.741021 
L 525.919809 437.878168 
L 524.660225 440.002826 
L 523.379457 442.114782 
L 522.077635 444.213825 
L 520.754887 446.299745 
L 519.411347 448.372334 
L 518.047148 450.431383 
L 516.662428 452.476688 
L 515.257324 454.508044 
L 513.831977 456.525247 
L 512.386529 458.528096 
L 510.921126 460.516391 
L 509.435913 462.489933 
L 507.93104 464.448524 
L 506.406656 466.391969 
L 504.862914 468.320073 
L 503.299969 470.232643 
L 501.717976 472.129488 
L 500.117095 474.010419 
L 498.497484 475.875248 
L 496.859307 477.723787 
L 495.202726 479.555853 
L 493.527908 481.371261 
L 491.83502 483.169831 
L 490.124231 484.951382 
L 488.395712 486.715736 
L 486.649637 488.462718 
L 484.886179 490.192151 
L 483.105515 491.903864 
L 481.565451 493.35702 
L 486.784197 498.935594 
L 488.371892 497.437495 
L 490.207628 495.672842 
L 492.025625 493.889921 
L 493.825703 492.08891 
L 495.607681 490.269987 
L 497.371381 488.433337 
L 499.116627 486.579141 
L 500.843244 484.707586 
L 502.551059 482.818859 
L 504.239902 480.913148 
L 505.909603 478.990645 
L 507.559996 477.051541 
L 509.190917 475.09603 
L 510.8022 473.124308 
L 512.393687 471.136572 
L 513.965216 469.133021 
L 515.516632 467.113854 
L 517.047779 465.079275 
L 518.558504 463.029487 
L 520.048656 460.964694 
L 521.518086 458.885103 
L 522.966647 456.790922 
L 524.394194 454.68236 
L 525.800585 452.559628 
L 527.185678 450.422939 
L 528.549335 448.272506 
L 529.89142 446.108544 
L 531.211799 443.93127 
L 532.510339 441.740901 
L 533.786911 439.537657 
L 535.041387 437.321757 
L 536.273642 435.093423 
L 537.483552 432.852878 
L 538.670997 430.600347 
L 539.835857 428.336054 
L 540.978017 426.060225 
L 542.097362 423.773089 
L 543.193779 421.474874 
L 544.26716 419.16581 
L 545.317397 416.846128 
L 546.344386 414.51606 
L 547.348022 412.175838 
L 548.328207 409.825698 
L 549.284841 407.465873 
L 550.21783 405.0966 
L 551.12708 402.718115 
L 552.0125 400.330658 
L 552.874001 397.934465 
L 553.711498 395.529777 
L 554.524906 393.116835 
L 555.314145 390.69588 
L 556.079135 388.267153 
L 556.819801 385.830898 
L 557.536067 383.387359 
L 558.227862 380.936778 
L 558.895117 378.479403 
L 559.537765 376.015478 
L 560.155743 373.54525 
L 560.748987 371.068966 
L 561.31744 368.586873 
L 561.861044 366.09922 
L 562.379744 363.606255 
L 562.873489 361.108228 
L 563.34223 358.605389 
L 563.785919 356.097987 
L 564.204513 353.586274 
L 564.597968 351.0705 
L 564.966247 348.550918 
L 565.309312 346.02778 
L 565.627129 343.501336 
L 565.919666 340.971841 
L 566.186894 338.439547 
L 566.428786 335.904708 
L 566.645318 333.367576 
L 566.836468 330.828406 
L 567.002217 328.287451 
L 567.142549 325.744966 
L 567.25745 323.201205 
L 567.346907 320.656422 
L 567.410913 318.110872 
L 567.44946 315.564809 
z
" clip-path="url(#pe56e1c7245)" style="fill: #1cffdb"/>
   </g>
   <g id="patch_8">
    <path d="M 465.202726 507.377255 
L 463.251199 508.891277 
L 461.284629 510.385709 
L 459.303213 511.8604 
L 457.30715 513.315204 
L 455.296638 514.749975 
L 453.27188 516.16457 
L 451.233077 517.558846 
L 449.180434 518.932665 
L 447.114155 520.285889 
L 445.034448 521.618383 
L 442.94152 522.930014 
L 440.83558 524.22065 
L 438.71684 525.490163 
L 436.58551 526.738425 
L 434.441805 527.965312 
L 432.285939 529.170701 
L 430.118126 530.354471 
L 427.938584 531.516504 
L 425.747531 532.656684 
L 423.545186 533.774897 
L 421.33177 534.871031 
L 419.107502 535.944976 
L 416.872607 536.996626 
L 414.627307 538.025874 
L 412.371827 539.032618 
L 410.106393 540.016757 
L 407.831231 540.978193 
L 405.546568 541.91683 
L 403.252633 542.832574 
L 400.949655 543.725333 
L 398.637866 544.595018 
L 396.317495 545.441542 
L 393.988775 546.26482 
L 391.651939 547.06477 
L 390.121449 547.574597 
L 392.51203 554.830003 
L 394.089855 554.304408 
L 396.498964 553.479717 
L 398.899706 552.630977 
L 401.291841 551.758272 
L 403.675129 550.86169 
L 406.049333 549.94132 
L 408.414214 548.997254 
L 410.769537 548.029587 
L 413.115065 547.038416 
L 415.450564 546.023839 
L 417.775801 544.985959 
L 420.090543 543.924878 
L 422.394559 542.840704 
L 424.687618 541.733543 
L 426.969491 540.603509 
L 429.23995 539.450712 
L 431.498767 538.275268 
L 433.745717 537.077296 
L 435.980576 535.856914 
L 438.203119 534.614245 
L 440.413124 533.349414 
L 442.610371 532.062545 
L 444.794639 530.753769 
L 446.965711 529.423217 
L 449.123369 528.07102 
L 451.267397 526.697315 
L 453.397581 525.302238 
L 455.513708 523.88593 
L 457.615567 522.448531 
L 459.702947 520.990187 
L 461.775639 519.511041 
L 463.833436 518.011244 
L 465.876133 516.490943 
L 467.903524 514.950292 
L 469.915408 513.389444 
z
" clip-path="url(#pe56e1c7245)" style="fill: #5dff9a"/>
   </g>
   <g id="patch_9">
    <path d="M 369.381323 553.418648 
L 366.97418 553.97217 
L 364.561623 554.501594 
L 362.143891 555.006866 
L 359.721229 555.487935 
L 357.293876 555.944754 
L 354.862077 556.377278 
L 352.426075 556.785462 
L 349.986112 557.169266 
L 349.007228 557.316226 
L 350.126235 564.872919 
L 351.135394 564.721415 
L 353.650819 564.32574 
L 356.162162 563.904932 
L 358.669171 563.459031 
L 361.171597 562.988084 
L 363.669187 562.492136 
L 366.161693 561.971237 
L 368.648866 561.425439 
L 371.130457 560.854798 
z
" clip-path="url(#pe56e1c7245)" style="fill: #9aff5d"/>
   </g>
   <g id="patch_10">
    <path d="M 327.574516 559.539867 
L 325.108252 559.675022 
L 322.64076 559.785508 
L 320.172287 559.871313 
L 317.703079 559.932431 
L 315.233383 559.968853 
L 312.763447 559.980578 
L 312.021057 559.979274 
L 311.996162 567.61833 
L 312.761512 567.619674 
L 315.307838 567.607587 
L 317.853916 567.570038 
L 320.399491 567.50703 
L 322.944309 567.418571 
L 325.488115 567.304668 
L 328.030655 567.165333 
z
" clip-path="url(#pe56e1c7245)" style="fill: #dbff1c"/>
   </g>
   <g id="patch_11">
    <path d="M 290.496988 558.969224 
L 288.038285 558.733638 
L 285.58206 558.473478 
L 283.12856 558.188769 
L 280.678029 557.879539 
L 278.230713 557.54582 
L 275.786857 557.187645 
L 273.346704 556.805049 
L 270.9105 556.398072 
L 269.935342 556.228139 
L 268.608826 563.751181 
L 269.614144 563.926369 
L 272.125695 564.345933 
L 274.641316 564.740362 
L 277.160756 565.109614 
L 279.683762 565.453655 
L 282.210082 565.772448 
L 284.739464 566.065963 
L 287.271654 566.334169 
L 289.8064 566.577041 
z
" clip-path="url(#pe56e1c7245)" style="fill: #ffcc00"/>
   </g>
   <g id="patch_12">
    <path d="M 248.898354 551.564352 
L 246.515778 550.913157 
L 244.139833 550.238169 
L 241.770757 549.539456 
L 239.408786 548.817088 
L 237.054156 548.071137 
L 234.707104 547.301676 
L 232.367863 546.508785 
L 230.036669 545.692541 
L 227.713753 544.853026 
L 225.399348 543.990324 
L 223.093686 543.104522 
L 220.796997 542.195708 
L 218.509511 541.263972 
L 216.231456 540.309409 
L 213.963061 539.332114 
L 211.704552 538.332184 
L 209.456155 537.309719 
L 207.218095 536.264821 
L 204.990596 535.197596 
L 202.77388 534.108149 
L 200.568169 532.99659 
L 198.373684 531.86303 
L 196.190644 530.707582 
L 194.019268 529.530362 
L 191.859772 528.331487 
L 189.712373 527.111077 
L 187.577284 525.869255 
L 185.454721 524.606145 
L 183.344895 523.321872 
L 181.248016 522.016566 
L 179.164296 520.690356 
L 177.093941 519.343376 
L 175.03716 517.97576 
L 172.994157 516.587646 
L 170.965137 515.17917 
L 168.950304 513.750476 
L 166.949857 512.301704 
L 164.963999 510.833001 
L 162.992926 509.344514 
L 161.036837 507.83639 
L 159.095926 506.308781 
L 157.170388 504.76184 
L 155.260416 503.195721 
L 153.3662 501.61058 
L 151.48793 500.006578 
L 149.625793 498.383873 
L 147.779977 496.742628 
L 145.950664 495.083007 
L 144.13804 493.405177 
L 142.342284 491.709304 
L 140.563576 489.995559 
L 138.802094 488.264113 
L 137.058015 486.515139 
L 135.331512 484.748812 
L 133.622758 482.965309 
L 131.931925 481.164807 
L 130.259181 479.347488 
L 128.604693 477.513532 
L 126.968628 475.663123 
L 125.351148 473.796446 
L 123.752415 471.913688 
L 122.17259 470.015038 
L 120.611829 468.100684 
L 119.07029 466.170818 
L 117.548127 464.225634 
L 116.045491 462.265326 
L 114.562533 460.29009 
L 113.099401 458.300123 
L 111.656241 456.295624 
L 110.233199 454.276795 
L 108.830415 452.243836 
L 107.448031 450.196951 
L 106.086185 448.136345 
L 104.745012 446.062224 
L 103.424647 443.974794 
L 102.125222 441.874266 
L 100.846868 439.760849 
L 99.58971 437.634754 
L 98.353877 435.496194 
L 97.13949 433.345383 
L 95.946672 431.182536 
L 94.775541 429.007869 
L 93.626216 426.8216 
L 92.49881 424.623947 
L 91.393437 422.415129 
L 90.310206 420.195369 
L 89.249228 417.964888 
L 88.210606 415.723908 
L 87.194446 413.472655 
L 86.200849 411.211352 
L 85.229915 408.940227 
L 84.28174 406.659507 
L 83.356419 404.369418 
L 82.454044 402.070191 
L 81.574707 399.762056 
L 80.718495 397.445243 
L 79.885493 395.119983 
L 79.075785 392.78651 
L 78.289452 390.445057 
L 77.526572 388.095857 
L 76.787223 385.739147 
L 76.071476 383.375161 
L 75.379406 381.004135 
L 74.711079 378.626308 
L 74.066564 376.241916 
L 73.445925 373.851199 
L 72.849223 371.454394 
L 72.276519 369.051743 
L 71.727869 366.643485 
L 71.20333 364.229861 
L 70.702952 361.811112 
L 70.226786 359.387481 
L 69.77488 356.959209 
L 69.347279 354.526539 
L 68.944026 352.089716 
L 68.565161 349.648981 
L 68.210721 347.20458 
L 67.880743 344.756757 
L 67.57526 342.305757 
L 67.373043 340.561893 
L 59.781715 341.414844 
L 59.990185 343.212642 
L 60.305117 345.739447 
L 60.6453 348.262976 
L 61.010702 350.782976 
L 61.401285 353.299198 
L 61.81701 355.811387 
L 62.257836 358.319294 
L 62.723718 360.822667 
L 63.21461 363.321256 
L 63.730464 365.814811 
L 64.271226 368.303084 
L 64.836844 370.785824 
L 65.427261 373.262784 
L 66.042417 375.733716 
L 66.682252 378.198373 
L 67.3467 380.656509 
L 68.035696 383.107878 
L 68.749172 385.552234 
L 69.487054 387.989333 
L 70.249271 390.418931 
L 71.035744 392.840786 
L 71.846397 395.254656 
L 72.681147 397.660298 
L 73.539912 400.057473 
L 74.422605 402.44594 
L 75.329138 404.825461 
L 76.259421 407.195798 
L 77.21336 409.556714 
L 78.190861 411.907972 
L 79.191824 414.249338 
L 80.216151 416.580578 
L 81.263739 418.901458 
L 82.334482 421.211746 
L 83.428275 423.511211 
L 84.545007 425.799624 
L 85.684567 428.076755 
L 86.846841 430.342377 
L 88.031713 432.596263 
L 89.239064 434.838188 
L 90.468773 437.067927 
L 91.720718 439.285258 
L 92.994774 441.489959 
L 94.290812 443.681809 
L 95.608704 445.86059 
L 96.948317 448.026083 
L 98.309518 450.178072 
L 99.69217 452.316341 
L 101.096135 454.440677 
L 102.521273 456.550868 
L 103.967442 458.646702 
L 105.434496 460.727969 
L 106.92229 462.794463 
L 108.430673 464.845975 
L 109.959496 466.882301 
L 111.508605 468.903237 
L 113.077846 470.908582 
L 114.667061 472.898134 
L 116.276093 474.871694 
L 117.904779 476.829066 
L 119.552957 478.770054 
L 121.220462 480.694463 
L 122.907127 482.602101 
L 124.612785 484.492777 
L 126.337263 486.366302 
L 128.08039 488.22249 
L 129.841992 490.061153 
L 131.621892 491.882109 
L 133.419912 493.685175 
L 135.235872 495.470171 
L 137.069592 497.236918 
L 138.920886 498.98524 
L 140.789572 500.714962 
L 142.67546 502.425911 
L 144.578364 504.117916 
L 146.498092 505.790808 
L 148.434453 507.444419 
L 150.387253 509.078584 
L 152.356297 510.69314 
L 154.341387 512.287925 
L 156.342326 513.862779 
L 158.358913 515.417546 
L 160.390947 516.952069 
L 162.438224 518.466196 
L 164.50054 519.959775 
L 166.577688 521.432656 
L 168.669461 522.884692 
L 170.775649 524.315739 
L 172.896043 525.725652 
L 175.030429 527.114291 
L 177.178594 528.481517 
L 179.340325 529.827194 
L 181.515403 531.151186 
L 183.703613 532.453362 
L 185.904735 533.733591 
L 188.118548 534.991745 
L 190.344833 536.227699 
L 192.583365 537.441328 
L 194.833922 538.632511 
L 197.096278 539.80113 
L 199.370206 540.947067 
L 201.65548 542.070208 
L 203.951871 543.17044 
L 206.25915 544.247654 
L 208.577085 545.301742 
L 210.905445 546.332598 
L 213.243996 547.340119 
L 215.592506 548.324205 
L 217.950739 549.284756 
L 220.31846 550.221678 
L 222.695431 551.134876 
L 225.081415 552.024259 
L 227.476174 552.889739 
L 229.879467 553.731228 
L 232.291056 554.548642 
L 234.710697 555.3419 
L 237.13815 556.110922 
L 239.573172 556.855631 
L 242.015519 557.575954 
L 244.464947 558.271817 
L 246.921211 558.943152 
z
" clip-path="url(#pe56e1c7245)" style="fill: #ff8600"/>
   </g>
   <g id="patch_13">
    <path d="M 65.903419 319.064313 
L 65.854954 316.594824 
L 65.831186 314.124974 
L 65.832117 311.65501 
L 65.857748 309.185179 
L 65.908075 306.715727 
L 65.983094 304.246903 
L 66.082797 301.778952 
L 66.207174 299.312121 
L 66.356213 296.846657 
L 66.529898 294.382807 
L 66.728213 291.920817 
L 66.951137 289.460934 
L 67.198649 287.003402 
L 67.470723 284.548469 
L 67.767333 282.096378 
L 68.088448 279.647377 
L 68.434037 277.201709 
L 68.804065 274.759619 
L 69.198494 272.321352 
L 69.617287 269.88715 
L 70.0604 267.457258 
L 70.527789 265.031919 
L 71.019408 262.611375 
L 71.535207 260.195868 
L 71.615813 259.828756 
L 64.155705 258.184806 
L 64.072606 258.563272 
L 63.540854 261.053486 
L 63.03403 263.548892 
L 62.552185 266.049242 
L 62.095368 268.554285 
L 61.663623 271.063771 
L 61.256995 273.577449 
L 60.875523 276.095067 
L 60.519246 278.616374 
L 60.188199 281.141118 
L 59.882416 283.669046 
L 59.601927 286.199905 
L 59.34676 288.733443 
L 59.116941 291.269406 
L 58.912493 293.80754 
L 58.733436 296.347591 
L 58.579788 298.889306 
L 58.451564 301.432431 
L 58.348777 303.97671 
L 58.271438 306.52189 
L 58.219555 309.067716 
L 58.193131 311.613934 
L 58.192171 314.160289 
L 58.216674 316.706526 
L 58.266638 319.252391 
z
" clip-path="url(#pe56e1c7245)" style="fill: #ff3b00"/>
   </g>
   <g id="patch_14">
    <path d="M 77.1664 239.008172 
L 77.91792 236.655314 
L 78.692931 234.310088 
L 79.491355 231.97273 
L 80.313112 229.643473 
L 81.15812 227.32255 
L 82.026295 225.010193 
L 82.91755 222.706633 
L 83.831795 220.412101 
L 84.76894 218.126825 
L 85.72889 215.851035 
L 86.711549 213.584959 
L 87.71682 211.328822 
L 88.744602 209.08285 
L 89.794791 206.847269 
L 90.867284 204.6223 
L 91.961972 202.408168 
L 93.078746 200.205094 
L 94.217495 198.013296 
L 95.378104 195.832996 
L 96.560459 193.664411 
L 97.764439 191.507758 
L 98.989926 189.363252 
L 100.236795 187.231107 
L 101.504924 185.111538 
L 102.794185 183.004756 
L 104.104448 180.910972 
L 105.435584 178.830395 
L 106.787458 176.763233 
L 108.159937 174.709693 
L 109.552881 172.66998 
L 110.966153 170.644298 
L 112.39961 168.63285 
L 113.85311 166.635837 
L 115.326508 164.653459 
L 116.819654 162.685913 
L 118.332402 160.733397 
L 119.864598 158.796106 
L 121.416091 156.874234 
L 122.986724 154.967972 
L 124.576342 153.077511 
L 126.184783 151.203041 
L 127.811889 149.344749 
L 129.457497 147.502821 
L 131.121441 145.67744 
L 132.803555 143.86879 
L 134.503671 142.077051 
L 136.221619 140.302403 
L 137.957228 138.545023 
L 139.710323 136.805086 
L 141.48073 135.082767 
L 143.268271 133.378238 
L 145.072768 131.691669 
L 146.89404 130.023229 
L 148.731905 128.373085 
L 150.58618 126.741402 
L 152.456678 125.128343 
L 154.343213 123.534069 
L 156.245596 121.95874 
L 158.163637 120.402513 
L 160.097144 118.865544 
L 162.045924 117.347987 
L 164.009782 115.849993 
L 165.988521 114.371712 
L 167.981944 112.913292 
L 169.989851 111.474879 
L 172.012042 110.056617 
L 174.048314 108.658647 
L 176.098464 107.281109 
L 178.162286 105.924142 
L 180.239575 104.58788 
L 182.330122 103.272458 
L 184.433718 101.978006 
L 186.550154 100.704655 
L 188.679217 99.452531 
L 190.820695 98.221761 
L 192.974373 97.012466 
L 195.140036 95.824768 
L 197.317468 94.658786 
L 199.50645 93.514636 
L 201.28161 92.607112 
L 197.831783 85.791359 
L 196.001722 86.72695 
L 193.745039 87.906486 
L 191.500264 89.10853 
L 189.267622 90.332961 
L 187.047335 91.579656 
L 184.839626 92.848492 
L 182.644715 94.139341 
L 180.462823 95.452074 
L 178.294167 96.78656 
L 176.138964 98.142666 
L 173.997429 99.520256 
L 171.869777 100.919191 
L 169.756221 102.339333 
L 167.656971 103.780539 
L 165.572239 105.242665 
L 163.502231 106.725565 
L 161.447156 108.229091 
L 159.407219 109.753092 
L 157.382623 111.297415 
L 155.373571 112.861907 
L 153.380265 114.446411 
L 151.402903 116.050769 
L 149.441683 117.674819 
L 147.496802 119.318401 
L 145.568453 120.981348 
L 143.65683 122.663496 
L 141.762124 124.364675 
L 139.884524 126.084716 
L 138.024218 127.823447 
L 136.181392 129.580694 
L 134.35623 131.35628 
L 132.548916 133.15003 
L 130.759628 134.961762 
L 128.988547 136.791296 
L 127.23585 138.63845 
L 125.501712 140.503037 
L 123.786306 142.384873 
L 122.089804 144.283768 
L 120.412375 146.199533 
L 118.754187 148.131977 
L 117.115407 150.080905 
L 115.496197 152.046123 
L 113.89672 154.027435 
L 112.317136 156.024642 
L 110.757603 158.037546 
L 109.218276 160.065943 
L 107.69931 162.109632 
L 106.200856 164.168408 
L 104.723065 166.242066 
L 103.266084 168.330398 
L 101.830058 170.433195 
L 100.415132 172.550246 
L 99.021447 174.681341 
L 97.649143 176.826266 
L 96.298355 178.984807 
L 94.969221 181.156747 
L 93.661872 183.341869 
L 92.376439 185.539956 
L 91.113051 187.750787 
L 89.871834 189.974141 
L 88.652912 192.209796 
L 87.456407 194.457528 
L 86.282439 196.717113 
L 85.131125 198.988324 
L 84.002581 201.270934 
L 82.896919 203.564716 
L 81.814249 205.869439 
L 80.754681 208.184874 
L 79.718319 210.510788 
L 78.705268 212.84695 
L 77.715629 215.193125 
L 76.7495 217.549079 
L 75.806979 219.914576 
L 74.88816 222.28938 
L 73.993134 224.673254 
L 73.121992 227.065958 
L 72.27482 229.467254 
L 71.451702 231.876902 
L 70.652722 234.29466 
L 69.877959 236.720286 
z
" clip-path="url(#pe56e1c7245)" style="fill: #d60000"/>
   </g>
   <g id="patch_15">
    <path d="M 220.913106 83.723975 
L 223.210255 82.816324 
L 225.516365 81.93169 
L 227.831207 81.070161 
L 230.154547 80.231823 
L 232.486155 79.416759 
L 234.825797 78.625053 
L 237.173239 77.856781 
L 239.528246 77.112023 
L 241.890582 76.390851 
L 244.260012 75.693338 
L 246.636299 75.019554 
L 249.019205 74.369566 
L 251.408491 73.743439 
L 253.803919 73.141236 
L 256.205249 72.563017 
L 258.612241 72.00884 
L 261.024655 71.47876 
L 263.442248 70.97283 
L 265.86478 70.491102 
L 268.292008 70.033622 
L 270.723689 69.600437 
L 273.159581 69.19159 
L 275.599439 68.807121 
L 278.043019 68.447071 
L 280.490078 68.111473 
L 282.940371 67.800363 
L 285.393652 67.513771 
L 287.849676 67.251725 
L 290.308198 67.014253 
L 291.298753 66.925581 
L 290.632962 59.315553 
L 289.611772 59.406968 
L 287.077213 59.651785 
L 284.545229 59.921935 
L 282.016073 60.217391 
L 279.489998 60.538123 
L 276.967257 60.8841 
L 274.448102 61.255286 
L 271.932784 61.651645 
L 269.421556 62.073137 
L 266.914668 62.519719 
L 264.412371 62.991348 
L 261.914916 63.487976 
L 259.422551 64.009553 
L 256.935527 64.556027 
L 254.454092 65.127344 
L 251.978494 65.723446 
L 249.50898 66.344273 
L 247.045799 66.989765 
L 244.589195 67.659855 
L 242.139415 68.354478 
L 239.696703 69.073564 
L 237.261305 69.81704 
L 234.833463 70.584832 
L 232.41342 71.376864 
L 230.001418 72.193057 
L 227.597698 73.033328 
L 225.202502 73.897595 
L 222.816067 74.785769 
L 220.438634 75.697763 
L 218.070439 76.633486 
z
" clip-path="url(#pe56e1c7245)" style="fill: #800000"/>
   </g>
   <g id="PatchCollection_1">
    <path d="M 220.913106 83.723975 
L 220.913106 83.723975 
L 223.210255 82.816324 
L 225.516365 81.93169 
L 225.747897 81.844332 
L 225.747897 81.844332 
Q 312.825999 312.983133 559.810756 315.487358 
L 559.810756 315.487358 
L 559.810756 315.487358 
L 559.773365 317.95704 
L 559.71128 320.426223 
L 559.703699 320.673571 
L 559.703699 320.673571 
Q 312.825999 312.983133 220.913106 83.723975 
z
" clip-path="url(#pe56e1c7245)" style="fill: #800000; fill-opacity: 0.5; stroke: #808080; stroke-opacity: 0.5; stroke-width: 0.1"/>
    <path d="M 225.747897 81.844332 
L 225.747897 81.844332 
L 228.0636 80.985122 
L 230.387779 80.149112 
L 230.621094 80.066635 
L 230.621094 80.066635 
Q 312.825999 312.983133 462.371225 116.402445 
L 462.371225 116.402445 
L 462.371225 116.402445 
L 464.329522 117.907702 
L 466.272669 119.432465 
L 466.466508 119.586299 
L 466.466508 119.586299 
Q 312.825999 312.983133 225.747897 81.844332 
z
" clip-path="url(#pe56e1c7245)" style="fill: #800000; fill-opacity: 0.5; stroke: #808080; stroke-opacity: 0.5; stroke-width: 0.1"/>
    <path d="M 230.621094 80.066635 
L 230.621094 80.066635 
L 232.954331 79.256245 
L 233.071425 79.216264 
L 233.071425 79.216264 
Q 312.825999 312.983133 424.370388 92.607112 
L 424.370388 92.607112 
L 424.370388 92.607112 
L 426.568535 93.733556 
L 426.678352 93.790562 
L 426.678352 93.790562 
Q 312.825999 312.983133 230.621094 80.066635 
z
" clip-path="url(#pe56e1c7245)" style="fill: #800000; fill-opacity: 0.5; stroke: #808080; stroke-opacity: 0.5; stroke-width: 0.1"/>
    <path d="M 233.071425 79.216264 
L 233.071425 79.216264 
L 235.413042 78.430419 
L 237.762401 77.66803 
L 237.998198 77.592943 
L 237.998198 77.592943 
Q 312.825999 312.983133 365.106604 71.582056 
L 365.106604 71.582056 
L 365.106604 71.582056 
L 367.51796 72.116924 
L 369.923848 72.675877 
L 370.16458 72.733204 
L 370.16458 72.733204 
Q 312.825999 312.983133 233.071425 79.216264 
z
" clip-path="url(#pe56e1c7245)" style="fill: #800000; fill-opacity: 0.5; stroke: #808080; stroke-opacity: 0.5; stroke-width: 0.1"/>
    <path d="M 77.1664 239.008172 
L 77.1664 239.008172 
L 77.91792 236.655314 
L 77.956186 236.537648 
L 77.956186 236.537648 
Q 312.825999 312.983133 327.574516 559.539867 
L 327.574516 559.539867 
L 327.574516 559.539867 
L 325.108252 559.675022 
L 324.984672 559.681143 
L 324.984672 559.681143 
Q 312.825999 312.983133 77.1664 239.008172 
z
" clip-path="url(#pe56e1c7245)" style="fill: #d60000; fill-opacity: 0.5; stroke: #808080; stroke-opacity: 0.5; stroke-width: 0.1"/>
    <path d="M 77.956186 236.537648 
L 77.956186 236.537648 
L 78.732371 234.192811 
L 79.531966 231.855853 
L 79.613363 231.62216 
L 79.613363 231.62216 
Q 312.825999 312.983133 369.381323 553.418648 
L 369.381323 553.418648 
L 369.381323 553.418648 
L 366.97418 553.97217 
L 364.561623 554.501594 
L 364.319622 554.553306 
L 364.319622 554.553306 
Q 312.825999 312.983133 77.956186 236.537648 
z
" clip-path="url(#pe56e1c7245)" style="fill: #d60000; fill-opacity: 0.5; stroke: #808080; stroke-opacity: 0.5; stroke-width: 0.1"/>
    <path d="M 79.613363 231.62216 
L 79.613363 231.62216 
L 80.43862 229.29414 
L 81.287115 226.974489 
L 81.373403 226.742557 
L 81.373403 226.742557 
Q 312.825999 312.983133 290.496988 558.969224 
L 290.496988 558.969224 
L 290.496988 558.969224 
L 288.038285 558.733638 
L 285.58206 558.473478 
L 285.33612 558.446059 
L 285.33612 558.446059 
Q 312.825999 312.983133 79.613363 231.62216 
z
" clip-path="url(#pe56e1c7245)" style="fill: #d60000; fill-opacity: 0.5; stroke: #808080; stroke-opacity: 0.5; stroke-width: 0.1"/>
    <path d="M 81.373403 226.742557 
L 81.373403 226.742557 
L 82.247366 224.432381 
L 83.144388 222.131061 
L 83.235527 221.900992 
L 83.235527 221.900992 
Q 312.825999 312.983133 465.202726 507.377255 
L 465.202726 507.377255 
L 465.202726 507.377255 
L 463.251199 508.891277 
L 461.284629 510.385709 
L 461.086779 510.534349 
L 461.086779 510.534349 
Q 312.825999 312.983133 81.373403 226.742557 
z
" clip-path="url(#pe56e1c7245)" style="fill: #d60000; fill-opacity: 0.5; stroke: #808080; stroke-opacity: 0.5; stroke-width: 0.1"/>
    <path d="M 83.235527 221.900992 
L 83.235527 221.900992 
L 84.157812 219.609679 
L 85.102965 217.327704 
L 86.070889 215.055294 
L 87.061489 212.792677 
L 88.074665 210.540079 
L 88.331961 209.977463 
L 88.331961 209.977463 
Q 312.825999 312.983133 559.703699 320.673571 
L 559.703699 320.673571 
L 559.703699 320.673571 
L 559.614452 323.141922 
L 559.500527 325.609258 
L 559.361934 328.075331 
L 559.198688 330.539894 
L 559.010804 333.002702 
L 558.959889 333.619262 
L 558.959889 333.619262 
Q 312.825999 312.983133 83.235527 221.900992 
z
" clip-path="url(#pe56e1c7245)" style="fill: #d60000; fill-opacity: 0.5; stroke: #808080; stroke-opacity: 0.5; stroke-width: 0.1"/>
    <path d="M 88.331961 209.977463 
L 88.331961 209.977463 
L 89.373225 207.73771 
L 90.436834 205.508482 
L 91.522682 203.290001 
L 91.687782 202.957543 
L 91.687782 202.957543 
Q 312.825999 312.983133 553.644917 258.083314 
L 553.644917 258.083314 
L 553.644917 258.083314 
L 554.181865 260.494208 
L 554.694678 262.910351 
L 555.183304 265.331501 
L 555.254643 265.695777 
L 555.254643 265.695777 
Q 312.825999 312.983133 88.331961 209.977463 
z
" clip-path="url(#pe56e1c7245)" style="fill: #d60000; fill-opacity: 0.5; stroke: #808080; stroke-opacity: 0.5; stroke-width: 0.1"/>
    <path d="M 91.687782 202.957543 
L 91.687782 202.957543 
L 92.799076 200.751699 
L 93.932373 198.557078 
L 95.087559 196.3739 
L 96.264519 194.202382 
L 97.463135 192.042742 
L 98.683287 189.895196 
L 99.924853 187.759959 
L 101.187708 185.637244 
L 101.699751 184.790118 
L 101.699751 184.790118 
Q 312.825999 312.983133 466.466508 119.586299 
L 466.466508 119.586299 
L 466.466508 119.586299 
L 468.392762 121.132348 
L 470.30346 122.697582 
L 472.19841 124.281845 
L 474.077422 125.884977 
L 475.94031 127.506819 
L 477.786887 129.147209 
L 479.616968 130.805982 
L 481.430369 132.482973 
L 482.152377 133.160111 
L 482.152377 133.160111 
Q 312.825999 312.983133 91.687782 202.957543 
z
" clip-path="url(#pe56e1c7245)" style="fill: #d60000; fill-opacity: 0.5; stroke: #808080; stroke-opacity: 0.5; stroke-width: 0.1"/>
    <path d="M 101.699751 184.790118 
L 101.699751 184.790118 
L 102.992216 182.685301 
L 104.305665 180.593513 
L 105.639965 178.514964 
L 106.994983 176.449861 
L 108.370585 174.398412 
L 109.766631 172.360821 
L 110.190211 171.751129 
L 110.190211 171.751129 
Q 312.825999 312.983133 426.678352 93.790562 
L 426.678352 93.790562 
L 426.678352 93.790562 
L 428.864549 94.940026 
L 431.039141 96.111294 
L 433.201913 97.30425 
L 435.352647 98.518773 
L 437.491129 99.754742 
L 439.617144 101.012034 
L 440.253684 101.394082 
L 440.253684 101.394082 
Q 312.825999 312.983133 101.699751 184.790118 
z
" clip-path="url(#pe56e1c7245)" style="fill: #d60000; fill-opacity: 0.5; stroke: #808080; stroke-opacity: 0.5; stroke-width: 0.1"/>
    <path d="M 110.190211 171.751129 
L 110.190211 171.751129 
L 111.612639 169.731867 
L 113.055189 167.726929 
L 114.517715 165.736517 
L 116.000072 163.76083 
L 117.502111 161.800064 
L 119.023683 159.854417 
L 119.484811 159.272605 
L 119.484811 159.272605 
Q 312.825999 312.983133 370.16458 72.733204 
L 370.16458 72.733204 
L 370.16458 72.733204 
L 372.564172 73.318592 
L 374.957791 73.927947 
L 377.345196 74.561207 
L 379.72615 75.21831 
L 382.100413 75.899188 
L 384.46775 76.603775 
L 385.177901 76.820173 
L 385.177901 76.820173 
Q 312.825999 312.983133 110.190211 171.751129 
z
" clip-path="url(#pe56e1c7245)" style="fill: #d60000; fill-opacity: 0.5; stroke: #808080; stroke-opacity: 0.5; stroke-width: 0.1"/>
    <path d="M 119.484811 159.272605 
L 119.484811 159.272605 
L 121.031557 157.346911 
L 122.597483 155.43678 
L 124.182432 153.542404 
L 125.786245 151.663972 
L 127.408761 149.801671 
L 129.04982 147.955689 
L 130.709255 146.126209 
L 132.386902 144.313415 
L 134.082593 142.517487 
L 134.852951 141.713359 
L 134.852951 141.713359 
Q 312.825999 312.983133 312.825999 65.985681 
L 312.825999 65.985681 
L 312.825999 65.985681 
L 315.295932 65.998031 
L 317.765619 66.035079 
L 320.234811 66.096821 
L 322.703263 66.183252 
L 325.170727 66.294363 
L 327.636956 66.430143 
L 330.101704 66.590577 
L 332.564725 66.775651 
L 335.025772 66.985345 
L 336.134622 67.087933 
L 336.134622 67.087933 
Q 312.825999 312.983133 119.484811 159.272605 
z
" clip-path="url(#pe56e1c7245)" style="fill: #d60000; fill-opacity: 0.5; stroke: #808080; stroke-opacity: 0.5; stroke-width: 0.1"/>
    <path d="M 65.903419 319.064313 
L 65.903419 319.064313 
L 65.854954 316.594824 
L 65.831186 314.124974 
L 65.832117 311.65501 
L 65.834392 311.283822 
L 65.834392 311.283822 
Q 312.825999 312.983133 558.959889 333.619262 
L 558.959889 333.619262 
L 558.959889 333.619262 
L 558.741224 336.079528 
L 558.497969 338.537485 
L 558.230146 340.992886 
L 558.187775 341.361655 
L 558.187775 341.361655 
Q 312.825999 312.983133 65.903419 319.064313 
z
" clip-path="url(#pe56e1c7245)" style="fill: #ff3b00; fill-opacity: 0.5; stroke: #808080; stroke-opacity: 0.5; stroke-width: 0.1"/>
    <path d="M 65.834392 311.283822 
L 65.834392 311.283822 
L 65.863735 308.814032 
L 65.917773 306.344659 
L 65.996502 303.87595 
L 66.010467 303.505017 
L 66.010467 303.505017 
Q 312.825999 312.983133 482.152377 133.160111 
L 482.152377 133.160111 
L 482.152377 133.160111 
L 483.942111 134.862337 
L 485.714733 136.582376 
L 487.470067 138.320054 
L 487.732359 138.582712 
L 487.732359 138.582712 
Q 312.825999 312.983133 65.834392 311.283822 
z
" clip-path="url(#pe56e1c7245)" style="fill: #ff3b00; fill-opacity: 0.5; stroke: #808080; stroke-opacity: 0.5; stroke-width: 0.1"/>
    <path d="M 66.010467 303.505017 
L 66.010467 303.505017 
L 66.117587 301.037377 
L 66.249378 298.570931 
L 66.405827 296.105927 
L 66.431469 295.735618 
L 66.431469 295.735618 
Q 312.825999 312.983133 385.177901 76.820173 
L 385.177901 76.820173 
L 385.177901 76.820173 
L 387.535874 77.555488 
L 389.886376 78.314346 
L 392.229172 79.09667 
L 392.580574 79.216264 
L 392.580574 79.216264 
Q 312.825999 312.983133 66.010467 303.505017 
z
" clip-path="url(#pe56e1c7245)" style="fill: #ff3b00; fill-opacity: 0.5; stroke: #808080; stroke-opacity: 0.5; stroke-width: 0.1"/>
    <path d="M 66.431469 295.735618 
L 66.431469 295.735618 
L 66.61626 293.272576 
L 66.825673 290.811505 
L 67.059686 288.352651 
L 67.096979 287.983334 
L 67.096979 287.983334 
Q 312.825999 312.983133 336.134622 67.087933 
L 336.134622 67.087933 
L 336.134622 67.087933 
L 338.592367 67.33331 
L 341.047536 67.603251 
L 343.499883 67.897731 
L 343.86817 67.944105 
L 343.86817 67.944105 
Q 312.825999 312.983133 66.431469 295.735618 
z
" clip-path="url(#pe56e1c7245)" style="fill: #ff3b00; fill-opacity: 0.5; stroke: #808080; stroke-opacity: 0.5; stroke-width: 0.1"/>
    <path d="M 248.898354 551.564352 
L 248.898354 551.564352 
L 246.515778 550.913157 
L 244.139833 550.238169 
L 241.770757 549.539456 
L 239.408786 548.817088 
L 238.936375 548.669503 
L 238.936375 548.669503 
Q 312.825999 312.983133 558.187775 341.361655 
L 558.187775 341.361655 
L 558.187775 341.361655 
L 557.891726 343.813813 
L 557.571172 346.262888 
L 557.226142 348.708635 
L 556.856673 351.150809 
L 556.779704 351.639715 
L 556.779704 351.639715 
Q 312.825999 312.983133 248.898354 551.564352 
z
" clip-path="url(#pe56e1c7245)" style="fill: #ff8600; fill-opacity: 0.5; stroke: #808080; stroke-opacity: 0.5; stroke-width: 0.1"/>
    <path d="M 238.936375 548.669503 
L 238.936375 548.669503 
L 236.583245 547.918835 
L 234.237739 547.144673 
L 231.900092 546.347096 
L 229.570538 545.526182 
L 227.249309 544.682015 
L 224.936638 543.814677 
L 224.243234 543.549469 
L 224.243234 543.549469 
Q 312.825999 312.983133 487.732359 138.582712 
L 487.732359 138.582712 
L 487.732359 138.582712 
L 489.467589 140.340466 
L 491.185154 142.115485 
L 492.884885 143.90759 
L 494.566609 145.716603 
L 496.230159 147.542342 
L 497.87537 149.384625 
L 498.366255 149.941559 
L 498.366255 149.941559 
Q 312.825999 312.983133 238.936375 548.669503 
z
" clip-path="url(#pe56e1c7245)" style="fill: #ff8600; fill-opacity: 0.5; stroke: #808080; stroke-opacity: 0.5; stroke-width: 0.1"/>
    <path d="M 224.243234 543.549469 
L 224.243234 543.549469 
L 221.942038 542.652128 
L 219.649931 541.73182 
L 219.420797 541.638353 
L 219.420797 541.638353 
Q 312.825999 312.983133 440.253684 101.394082 
L 440.253684 101.394082 
L 440.253684 101.394082 
L 442.363168 102.678917 
L 444.459698 103.984782 
L 444.669025 104.116769 
L 444.669025 104.116769 
Q 312.825999 312.983133 224.243234 543.549469 
z
" clip-path="url(#pe56e1c7245)" style="fill: #ff8600; fill-opacity: 0.5; stroke: #808080; stroke-opacity: 0.5; stroke-width: 0.1"/>
    <path d="M 219.420797 541.638353 
L 219.420797 541.638353 
L 217.138953 540.692884 
L 214.866678 539.724644 
L 212.604199 538.733731 
L 212.265047 538.582859 
L 212.265047 538.582859 
Q 312.825999 312.983133 392.580574 79.216264 
L 392.580574 79.216264 
L 392.580574 79.216264 
L 394.914216 80.025484 
L 397.239649 80.858001 
L 399.556641 81.713729 
L 399.904102 81.844332 
L 399.904102 81.844332 
Q 312.825999 312.983133 219.420797 541.638353 
z
" clip-path="url(#pe56e1c7245)" style="fill: #ff8600; fill-opacity: 0.5; stroke: #808080; stroke-opacity: 0.5; stroke-width: 0.1"/>
    <path d="M 285.33612 558.446059 
L 285.33612 558.446059 
L 282.882906 558.158892 
L 280.432687 557.847207 
L 277.985706 557.511037 
L 277.618262 557.458401 
L 277.618262 557.458401 
Q 312.825999 312.983133 134.852951 141.713359 
L 134.852951 141.713359 
L 134.852951 141.713359 
L 136.574518 139.942222 
L 138.313711 138.188388 
L 140.070355 136.452034 
L 140.335846 136.192611 
L 140.335846 136.192611 
Q 312.825999 312.983133 285.33612 558.446059 
z
" clip-path="url(#pe56e1c7245)" style="fill: #ffcc00; fill-opacity: 0.5; stroke: #808080; stroke-opacity: 0.5; stroke-width: 0.1"/>
    <path d="M 277.618262 557.458401 
L 277.618262 557.458401 
L 275.17531 557.094106 
L 272.736124 556.7054 
L 270.300946 556.292322 
L 269.935342 556.228139 
L 269.935342 556.228139 
Q 312.825999 312.983133 212.265047 538.582859 
L 212.265047 538.582859 
L 212.265047 538.582859 
L 210.014115 537.565987 
L 207.773465 536.526656 
L 205.543319 535.464971 
L 205.209088 535.303492 
L 205.209088 535.303492 
Q 312.825999 312.983133 277.618262 557.458401 
z
" clip-path="url(#pe56e1c7245)" style="fill: #ffcc00; fill-opacity: 0.5; stroke: #808080; stroke-opacity: 0.5; stroke-width: 0.1"/>
    <path d="M 324.984672 559.681143 
L 324.984672 559.681143 
L 322.517125 559.790393 
L 320.048609 559.874963 
L 317.57937 559.934843 
L 315.109657 559.970028 
L 314.614746 559.974109 
L 314.614746 559.974109 
Q 312.825999 312.983133 140.335846 136.192611 
L 140.335846 136.192611 
L 140.335846 136.192611 
L 142.112347 134.476578 
L 143.905918 132.778395 
L 145.716381 131.098233 
L 147.543555 129.436258 
L 147.911673 129.105438 
L 147.911673 129.105438 
Q 312.825999 312.983133 324.984672 559.681143 
z
" clip-path="url(#pe56e1c7245)" style="fill: #dbff1c; fill-opacity: 0.5; stroke: #808080; stroke-opacity: 0.5; stroke-width: 0.1"/>
    <path d="M 314.614746 559.974109 
L 314.614746 559.974109 
L 312.144788 559.979646 
L 312.021057 559.979274 
L 312.021057 559.979274 
Q 312.825999 312.983133 205.209088 535.303492 
L 205.209088 535.303492 
L 205.209088 535.303492 
L 202.991302 534.216225 
L 202.880491 534.161176 
L 202.880491 534.161176 
Q 312.825999 312.983133 314.614746 559.974109 
z
" clip-path="url(#pe56e1c7245)" style="fill: #dbff1c; fill-opacity: 0.5; stroke: #808080; stroke-opacity: 0.5; stroke-width: 0.1"/>
    <path d="M 364.319622 554.553306 
L 364.319622 554.553306 
L 361.901386 555.056155 
L 359.478243 555.534797 
L 357.050434 555.989184 
L 354.618203 556.419271 
L 354.130328 556.502524 
L 354.130328 556.502524 
Q 312.825999 312.983133 147.911673 129.105438 
L 147.911673 129.105438 
L 147.911673 129.105438 
L 149.758665 127.465516 
L 151.621964 125.844146 
L 153.501383 124.241489 
L 155.396734 122.657707 
L 155.778419 122.342636 
L 155.778419 122.342636 
Q 312.825999 312.983133 364.319622 554.553306 
z
" clip-path="url(#pe56e1c7245)" style="fill: #9aff5d; fill-opacity: 0.5; stroke: #808080; stroke-opacity: 0.5; stroke-width: 0.1"/>
    <path d="M 354.130328 556.502524 
L 354.130328 556.502524 
L 351.693109 556.903385 
L 349.252004 557.279854 
L 349.007228 557.316226 
L 349.007228 557.316226 
Q 312.825999 312.983133 202.880491 534.161176 
L 202.880491 534.161176 
L 202.880491 534.161176 
L 200.674244 533.050681 
L 198.479213 531.918179 
L 198.259922 531.803506 
L 198.259922 531.803506 
Q 312.825999 312.983133 354.130328 556.502524 
z
" clip-path="url(#pe56e1c7245)" style="fill: #9aff5d; fill-opacity: 0.5; stroke: #808080; stroke-opacity: 0.5; stroke-width: 0.1"/>
    <path d="M 461.086779 510.534349 
L 461.086779 510.534349 
L 459.103887 512.007054 
L 459.004169 512.080306 
L 459.004169 512.080306 
Q 312.825999 312.983133 237.998198 77.592943 
L 237.998198 77.592943 
L 237.998198 77.592943 
L 240.355802 76.856447 
L 240.474097 76.820173 
L 240.474097 76.820173 
Q 312.825999 312.983133 461.086779 510.534349 
z
" clip-path="url(#pe56e1c7245)" style="fill: #5dff9a; fill-opacity: 0.5; stroke: #808080; stroke-opacity: 0.5; stroke-width: 0.1"/>
    <path d="M 459.004169 512.080306 
L 459.004169 512.080306 
L 457.005921 513.532109 
L 454.993256 514.963857 
L 452.966374 516.375406 
L 450.925478 517.766617 
L 448.870773 519.13735 
L 446.802463 520.487467 
L 444.720755 521.816835 
L 442.625858 523.125319 
L 441.782663 523.643809 
L 441.782663 523.643809 
Q 312.825999 312.983133 155.778419 122.342636 
L 155.778419 122.342636 
L 155.778419 122.342636 
L 157.692644 120.781719 
L 159.622383 119.240021 
L 161.567442 117.717697 
L 163.527627 116.2149 
L 165.502741 114.73178 
L 167.492588 113.268484 
L 169.496968 111.82516 
L 171.51568 110.401951 
L 172.328667 109.837272 
L 172.328667 109.837272 
Q 312.825999 312.983133 459.004169 512.080306 
z
" clip-path="url(#pe56e1c7245)" style="fill: #5dff9a; fill-opacity: 0.5; stroke: #808080; stroke-opacity: 0.5; stroke-width: 0.1"/>
    <path d="M 441.782663 523.643809 
L 441.782663 523.643809 
L 439.669644 524.922821 
L 437.54394 526.18064 
L 435.405765 527.417138 
L 433.255331 528.632194 
L 431.092855 529.825685 
L 428.918553 530.997492 
L 426.732641 532.147497 
L 424.535338 533.275587 
L 422.326865 534.381647 
L 420.107442 535.465567 
L 417.877291 536.52724 
L 415.636634 537.566558 
L 413.385697 538.583418 
L 411.124704 539.577719 
L 408.853881 540.54936 
L 406.573455 541.498244 
L 404.283655 542.424278 
L 401.984709 543.327367 
L 399.676847 544.207422 
L 397.3603 545.064355 
L 395.0353 545.89808 
L 392.702079 546.708514 
L 390.36087 547.495575 
L 390.121449 547.574597 
L 390.121449 547.574597 
Q 312.825999 312.983133 198.259922 531.803506 
L 198.259922 531.803506 
L 198.259922 531.803506 
L 196.077483 530.646923 
L 193.906719 529.468575 
L 191.747847 528.268577 
L 189.601082 527.047052 
L 187.46664 525.80412 
L 185.344733 524.539907 
L 183.235575 523.254537 
L 181.139375 521.948141 
L 179.056344 520.620849 
L 176.98669 519.272793 
L 174.93062 517.904108 
L 172.888339 516.514931 
L 170.860052 515.105401 
L 168.845961 513.67566 
L 166.846268 512.225849 
L 164.861173 510.756114 
L 162.890874 509.266601 
L 160.935569 507.757461 
L 158.995453 506.228843 
L 157.070719 504.680901 
L 155.161561 503.11379 
L 153.26817 501.527665 
L 151.390734 499.922686 
L 151.199997 499.757802 
L 151.199997 499.757802 
Q 312.825999 312.983133 441.782663 523.643809 
z
" clip-path="url(#pe56e1c7245)" style="fill: #5dff9a; fill-opacity: 0.5; stroke: #808080; stroke-opacity: 0.5; stroke-width: 0.1"/>
    <path d="M 556.779704 351.639715 
L 556.779704 351.639715 
L 556.380947 354.077278 
L 555.957835 356.510733 
L 555.51041 358.939834 
L 555.038716 361.36434 
L 554.542802 363.784008 
L 554.022716 366.198595 
L 553.47851 368.607862 
L 552.91024 371.011565 
L 552.317961 373.409466 
L 551.701733 375.801325 
L 551.061618 378.186901 
L 550.39768 380.565958 
L 549.709984 382.938256 
L 549.249398 384.479413 
L 549.249398 384.479413 
Q 312.825999 312.983133 240.474097 76.820173 
L 240.474097 76.820173 
L 240.474097 76.820173 
L 242.839305 76.108474 
L 245.211511 75.420463 
L 247.590479 74.756207 
L 249.97597 74.115774 
L 252.367746 73.499227 
L 254.765568 72.906629 
L 257.169196 72.338038 
L 259.57839 71.793511 
L 261.992909 71.273104 
L 264.41251 70.776867 
L 266.836953 70.30485 
L 269.265995 69.857101 
L 271.699393 69.433664 
L 273.286313 69.171003 
L 273.286313 69.171003 
Q 312.825999 312.983133 556.779704 351.639715 
z
" clip-path="url(#pe56e1c7245)" style="fill: #1cffdb; fill-opacity: 0.5; stroke: #808080; stroke-opacity: 0.5; stroke-width: 0.1"/>
    <path d="M 549.249398 384.479413 
L 549.249398 384.479413 
L 548.522626 386.840033 
L 547.772284 389.193267 
L 546.998449 391.538881 
L 546.201196 393.876638 
L 545.380605 396.206307 
L 544.53676 398.527653 
L 543.669743 400.840445 
L 542.779643 403.144451 
L 541.866547 405.439441 
L 541.447382 406.471125 
L 541.447382 406.471125 
Q 312.825999 312.983133 172.328667 109.837272 
L 172.328667 109.837272 
L 172.328667 109.837272 
L 174.367116 108.442479 
L 176.419412 107.06814 
L 178.485348 105.714393 
L 180.564717 104.381372 
L 182.657313 103.069211 
L 184.762926 101.778041 
L 186.881345 100.507992 
L 189.012358 99.25919 
L 191.155752 98.031761 
L 192.126092 97.485398 
L 192.126092 97.485398 
Q 312.825999 312.983133 549.249398 384.479413 
z
" clip-path="url(#pe56e1c7245)" style="fill: #1cffdb; fill-opacity: 0.5; stroke: #808080; stroke-opacity: 0.5; stroke-width: 0.1"/>
    <path d="M 541.447382 406.471125 
L 541.447382 406.471125 
L 540.501087 408.752627 
L 539.532024 411.024551 
L 538.540291 413.286672 
L 537.525987 415.538762 
L 536.489213 417.780597 
L 535.430073 420.011952 
L 534.348672 422.232604 
L 533.24512 424.442331 
L 532.119525 426.640913 
L 530.972002 428.828129 
L 530.388949 429.919459 
L 530.388949 429.919459 
Q 312.825999 312.983133 67.096979 287.983334 
L 67.096979 287.983334 
L 67.096979 287.983334 
L 67.359259 285.527335 
L 67.646085 283.074081 
L 67.95743 280.623818 
L 68.293261 278.176791 
L 68.653545 275.733245 
L 69.038246 273.293424 
L 69.447326 270.857571 
L 69.880743 268.425931 
L 70.338455 265.998747 
L 70.820415 263.576261 
L 71.070951 262.364575 
L 71.070951 262.364575 
Q 312.825999 312.983133 541.447382 406.471125 
z
" clip-path="url(#pe56e1c7245)" style="fill: #1cffdb; fill-opacity: 0.5; stroke: #808080; stroke-opacity: 0.5; stroke-width: 0.1"/>
    <path d="M 530.388949 429.919459 
L 530.388949 429.919459 
L 529.208727 432.089206 
L 528.006867 434.247042 
L 526.78349 436.392751 
L 525.538716 438.52612 
L 524.272672 440.646935 
L 522.985483 442.754983 
L 521.677278 444.850054 
L 520.348188 446.931939 
L 518.998346 449.000429 
L 517.627888 451.055317 
L 516.236949 453.096398 
L 514.825669 455.123468 
L 513.394189 457.136324 
L 511.942653 459.134765 
L 510.471206 461.118591 
L 508.979993 463.087604 
L 507.469166 465.041606 
L 505.938875 466.980402 
L 504.389272 468.903799 
L 502.820513 470.811604 
L 501.232755 472.703626 
L 499.626157 474.579676 
L 498.000878 476.439567 
L 496.357083 478.283112 
L 494.694934 480.110127 
L 493.014598 481.92043 
L 491.316244 483.713839 
L 489.600041 485.490175 
L 487.866161 487.249261 
L 486.114777 488.99092 
L 484.346064 490.714979 
L 482.560199 492.421264 
L 481.565451 493.35702 
L 481.565451 493.35702 
Q 312.825999 312.983133 151.199997 499.757802 
L 151.199997 499.757802 
L 151.199997 499.757802 
L 149.340363 498.132231 
L 147.497077 496.488144 
L 145.670324 494.825707 
L 143.860286 493.145086 
L 142.067145 491.446449 
L 140.291079 489.729966 
L 138.532267 487.995808 
L 136.790884 486.24415 
L 135.067105 484.475165 
L 133.361101 482.689031 
L 131.673043 480.885927 
L 130.003101 479.066032 
L 128.351441 477.22953 
L 126.718228 475.376603 
L 125.103625 473.507436 
L 123.507795 471.622218 
L 121.930896 469.721135 
L 120.373087 467.804379 
L 118.834523 465.872141 
L 117.315358 463.924614 
L 115.815744 461.961994 
L 114.335831 459.984475 
L 112.875766 457.992256 
L 111.435696 455.985537 
L 110.015766 453.964517 
L 108.616116 451.9294 
L 107.236887 449.880388 
L 105.878216 447.817686 
L 104.54024 445.741501 
L 103.223093 443.65204 
L 101.926906 441.549513 
L 100.651808 439.434129 
L 99.955876 438.259037 
L 99.955876 438.259037 
Q 312.825999 312.983133 530.388949 429.919459 
z
" clip-path="url(#pe56e1c7245)" style="fill: #1cffdb; fill-opacity: 0.5; stroke: #808080; stroke-opacity: 0.5; stroke-width: 0.1"/>
    <path d="M 555.254643 265.695777 
L 555.254643 265.695777 
L 555.715387 268.122387 
L 556.151843 270.553483 
L 556.563966 272.988823 
L 556.951716 275.428162 
L 557.315053 277.871256 
L 557.653942 280.317861 
L 557.968348 282.767733 
L 558.25824 285.220626 
L 558.523589 287.676296 
L 558.764368 290.134496 
L 558.980554 292.594981 
L 559.089163 293.951689 
L 559.089163 293.951689 
Q 312.825999 312.983133 99.955876 438.259037 
L 99.955876 438.259037 
L 99.955876 438.259037 
L 98.713781 436.124108 
L 97.493097 433.976864 
L 96.293947 431.817521 
L 95.116449 429.646295 
L 93.960722 427.463403 
L 92.826882 425.269063 
L 91.715041 423.063494 
L 90.625311 420.846917 
L 89.557802 418.619554 
L 88.512618 416.381628 
L 87.489866 414.133361 
L 86.935914 412.890144 
L 86.935914 412.890144 
Q 312.825999 312.983133 555.254643 265.695777 
z
" clip-path="url(#pe56e1c7245)" style="fill: #00b8ff; fill-opacity: 0.5; stroke: #808080; stroke-opacity: 0.5; stroke-width: 0.1"/>
    <path d="M 498.366255 149.941559 
L 498.366255 149.941559 
L 499.987366 151.805082 
L 501.589762 153.684724 
L 503.173282 155.580295 
L 504.737766 157.491606 
L 506.28306 159.418466 
L 507.809009 161.360683 
L 509.315459 163.318061 
L 509.839066 164.007991 
L 509.839066 164.007991 
Q 312.825999 312.983133 273.286313 69.171003 
L 273.286313 69.171003 
L 273.286313 69.171003 
L 275.72637 68.787803 
L 278.170138 68.429023 
L 280.617371 68.094698 
L 283.067825 67.784861 
L 285.521255 67.499544 
L 287.977415 67.238775 
L 290.43606 67.002581 
L 291.298753 66.925581 
L 291.298753 66.925581 
Q 312.825999 312.983133 498.366255 149.941559 
z
" clip-path="url(#pe56e1c7245)" style="fill: #006cff; fill-opacity: 0.5; stroke: #808080; stroke-opacity: 0.5; stroke-width: 0.1"/>
    <path d="M 509.839066 164.007991 
L 509.839066 164.007991 
L 511.318942 165.985538 
L 512.778969 167.977784 
L 514.219001 169.98453 
L 515.638893 172.005577 
L 515.920973 172.412251 
L 515.920973 172.412251 
Q 312.825999 312.983133 192.126092 97.485398 
L 192.126092 97.485398 
L 192.126092 97.485398 
L 194.287069 96.289194 
L 196.459899 95.114659 
L 198.644366 93.96191 
L 200.84025 92.831064 
L 201.28161 92.607112 
L 201.28161 92.607112 
Q 312.825999 312.983133 509.839066 164.007991 
z
" clip-path="url(#pe56e1c7245)" style="fill: #006cff; fill-opacity: 0.5; stroke: #808080; stroke-opacity: 0.5; stroke-width: 0.1"/>
    <path d="M 515.920973 172.412251 
L 515.920973 172.412251 
L 517.316504 174.450195 
L 517.385875 174.552651 
L 517.385875 174.552651 
Q 312.825999 312.983133 71.070951 262.364575 
L 71.070951 262.364575 
L 71.070951 262.364575 
L 71.589216 259.949596 
L 71.615813 259.828756 
L 71.615813 259.828756 
Q 312.825999 312.983133 515.920973 172.412251 
z
" clip-path="url(#pe56e1c7245)" style="fill: #006cff; fill-opacity: 0.5; stroke: #808080; stroke-opacity: 0.5; stroke-width: 0.1"/>
    <path d="M 517.385875 174.552651 
L 517.385875 174.552651 
L 518.759929 176.605137 
L 520.11339 178.671261 
L 521.446122 180.750815 
L 522.757992 182.843593 
L 524.048869 184.949385 
L 525.318624 187.06798 
L 526.56713 189.199167 
L 527.794263 191.342732 
L 528.999898 193.498461 
L 530.183916 195.666138 
L 531.346199 197.845547 
L 532.486629 200.036469 
L 533.605094 202.238686 
L 534.701482 204.451977 
L 535.775681 206.676122 
L 536.827586 208.910897 
L 537.857091 211.156079 
L 538.864093 213.411443 
L 539.848492 215.676765 
L 540.810188 217.951818 
L 541.749087 220.236373 
L 542.665093 222.530203 
L 543.558115 224.833078 
L 544.428064 227.144768 
L 545.274854 229.465042 
L 546.098398 231.793668 
L 546.898616 234.130413 
L 547.675427 236.475042 
L 547.943694 237.303473 
L 547.943694 237.303473 
Q 312.825999 312.983133 86.935914 412.890144 
L 86.935914 412.890144 
L 86.935914 412.890144 
L 85.948155 410.626286 
L 84.983083 408.352663 
L 84.040796 406.069503 
L 83.121387 403.777035 
L 82.224948 401.475488 
L 81.351569 399.165091 
L 80.501338 396.846076 
L 79.674338 394.518675 
L 78.870654 392.183121 
L 78.090365 389.839646 
L 77.333549 387.488486 
L 76.600283 385.129876 
L 75.890639 382.764051 
L 75.204688 380.391248 
L 74.542499 378.011704 
L 73.904138 375.625657 
L 73.289669 373.233346 
L 72.699154 370.83501 
L 72.132651 368.430889 
L 71.590217 366.021224 
L 71.071907 363.606254 
L 70.577772 361.186222 
L 70.107861 358.76137 
L 69.662222 356.331941 
L 69.240899 353.898176 
L 68.843935 351.46032 
L 68.471369 349.018616 
L 68.123237 346.573309 
L 68.006337 345.710407 
L 68.006337 345.710407 
Q 312.825999 312.983133 517.385875 174.552651 
z
" clip-path="url(#pe56e1c7245)" style="fill: #006cff; fill-opacity: 0.5; stroke: #808080; stroke-opacity: 0.5; stroke-width: 0.1"/>
    <path d="M 399.904102 81.844332 
L 399.904102 81.844332 
L 402.211097 82.726655 
L 404.509154 83.632004 
L 404.738892 83.723975 
L 404.738892 83.723975 
Q 312.825999 312.983133 68.006337 345.710407 
L 68.006337 345.710407 
L 68.006337 345.710407 
L 67.69131 343.260615 
L 67.400797 340.807795 
L 67.373043 340.561893 
L 67.373043 340.561893 
Q 312.825999 312.983133 399.904102 81.844332 
z
" clip-path="url(#pe56e1c7245)" style="fill: #0000d6; fill-opacity: 0.5; stroke: #808080; stroke-opacity: 0.5; stroke-width: 0.1"/>
   </g>
   <g id="patch_16">
    <path d="M 312.825999 65.985681 
L 315.295932 65.998031 
L 317.765619 66.035079 
L 320.234811 66.096821 
L 322.703263 66.183252 
L 325.170727 66.294363 
L 327.636956 66.430143 
L 330.101704 66.590577 
L 332.564725 66.775651 
L 335.025772 66.985345 
L 337.484599 67.219639 
L 339.94096 67.478509 
L 342.394609 67.761929 
L 343.86817 67.944105 
L 344.828237 60.365579 
L 343.309102 60.177768 
L 340.779567 59.885583 
L 338.247236 59.618706 
L 335.712363 59.377166 
L 333.175201 59.160987 
L 330.636004 58.970189 
L 328.095027 58.804793 
L 325.552522 58.664814 
L 323.008745 58.550266 
L 320.46395 58.461162 
L 317.918391 58.39751 
L 315.372322 58.359316 
L 312.825999 58.346584 
L 312.825999 65.985681 
z
" clip-path="url(#pe56e1c7245)" style="fill: none; stroke: #000000; stroke-width: 0.5; stroke-linejoin: miter"/>
   </g>
   <g id="patch_17">
    <path d="M 365.106604 71.582056 
L 367.51796 72.116924 
L 369.923848 72.675877 
L 372.324025 73.258862 
L 374.718253 73.865818 
L 377.106292 74.496686 
L 379.487903 75.151403 
L 381.862847 75.829902 
L 384.230888 76.532116 
L 386.591789 77.257976 
L 388.945313 78.007408 
L 391.291225 78.780337 
L 393.629291 79.576686 
L 395.959276 80.396376 
L 398.280948 81.239324 
L 400.594075 82.105446 
L 402.898425 82.994656 
L 404.738892 83.723975 
L 407.581559 76.633486 
L 405.68417 75.88161 
L 403.308552 74.964899 
L 400.923885 74.07199 
L 398.530408 73.202971 
L 396.128362 72.35793 
L 393.717985 71.536951 
L 391.299518 70.740117 
L 388.873205 69.967507 
L 386.439287 69.219198 
L 383.998008 68.495266 
L 381.549611 67.795782 
L 379.094342 67.120817 
L 376.632447 66.470437 
L 374.164171 65.844709 
L 371.689761 65.243694 
L 369.209464 64.667453 
L 366.72353 64.116044 
L 365.106604 71.582056 
z
" clip-path="url(#pe56e1c7245)" style="fill: none; stroke: #000000; stroke-width: 0.5; stroke-linejoin: miter"/>
   </g>
   <g id="patch_18">
    <path d="M 424.370388 92.607112 
L 426.568535 93.733556 
L 428.755307 94.881925 
L 430.930486 96.052103 
L 433.093855 97.243975 
L 435.245197 98.457421 
L 437.384298 99.692318 
L 439.510943 100.948545 
L 441.624919 102.225975 
L 443.726015 103.52448 
L 444.669025 104.116769 
L 448.746644 97.656985 
L 447.77447 97.046378 
L 445.608391 95.707712 
L 443.429034 94.390774 
L 441.236616 93.095695 
L 439.031358 91.822605 
L 436.813479 90.57163 
L 434.583202 89.342896 
L 432.340749 88.136527 
L 430.086345 86.952641 
L 427.820215 85.791359 
L 424.370388 92.607112 
z
" clip-path="url(#pe56e1c7245)" style="fill: none; stroke: #000000; stroke-width: 0.5; stroke-linejoin: miter"/>
   </g>
   <g id="patch_19">
    <path d="M 462.371225 116.402445 
L 464.329522 117.907702 
L 466.272669 119.432465 
L 468.200471 120.976584 
L 470.112736 122.539903 
L 472.009272 124.122266 
L 473.88989 125.723515 
L 475.754402 127.34349 
L 477.602621 128.982029 
L 479.434363 130.638968 
L 481.249444 132.314141 
L 483.047682 134.007381 
L 484.828899 135.718518 
L 486.592916 137.447381 
L 488.339556 139.193798 
L 490.068644 140.957594 
L 491.780009 142.738592 
L 493.473479 144.536614 
L 495.148883 146.351481 
L 496.806056 148.183011 
L 498.444831 150.031021 
L 500.065044 151.895326 
L 501.666533 153.77574 
L 503.249139 155.672074 
L 504.812702 157.584139 
L 506.357067 159.511744 
L 507.882079 161.454696 
L 509.387585 163.4128 
L 510.873435 165.385862 
L 512.339481 167.373683 
L 513.785576 169.376065 
L 515.211575 171.392808 
L 516.617335 173.423709 
L 518.002717 175.468567 
L 519.367581 177.527175 
L 520.711791 179.599329 
L 522.035212 181.684822 
L 523.337713 183.783444 
L 524.619163 185.894986 
L 525.879434 188.019237 
L 527.118399 190.155984 
L 528.335936 192.305013 
L 529.531922 194.46611 
L 530.706237 196.639059 
L 531.858764 198.823643 
L 532.989389 201.019642 
L 534.097997 203.226837 
L 535.184478 205.445008 
L 536.248723 207.673932 
L 537.290627 209.913388 
L 538.310084 212.16315 
L 539.306993 214.422994 
L 540.281254 216.692695 
L 541.23277 218.972024 
L 542.161445 221.260754 
L 543.067187 223.558656 
L 543.949904 225.865501 
L 544.80951 228.181057 
L 545.645918 230.505094 
L 546.459043 232.837378 
L 547.248806 235.177677 
L 547.943694 237.303473 
L 555.215375 234.962865 
L 554.498996 232.771322 
L 553.684808 230.358643 
L 552.846534 227.954226 
L 551.984258 225.558313 
L 551.098067 223.171141 
L 550.188048 220.792951 
L 549.254294 218.423979 
L 548.296896 216.064464 
L 547.315952 213.71464 
L 546.31156 211.374743 
L 545.283819 209.045006 
L 544.232832 206.725664 
L 543.158705 204.416947 
L 542.061544 202.119086 
L 540.941461 199.832312 
L 539.798566 197.556853 
L 538.632973 195.292937 
L 537.444801 193.040789 
L 536.234167 190.800635 
L 535.001192 188.5727 
L 533.745999 186.357206 
L 532.468715 184.154374 
L 531.169467 181.964425 
L 529.848385 179.787577 
L 528.5056 177.624049 
L 527.141248 175.474057 
L 525.755465 173.337816 
L 524.348388 171.215539 
L 522.92016 169.107438 
L 521.470923 167.013726 
L 520.000821 164.934609 
L 518.510001 162.870298 
L 516.998614 160.820998 
L 515.466809 158.786914 
L 513.914741 156.768249 
L 512.342564 154.765206 
L 510.750435 152.777985 
L 509.138514 150.806783 
L 507.506962 148.8518 
L 505.855942 146.913229 
L 504.185619 144.991265 
L 502.496161 143.0861 
L 500.787735 141.197925 
L 499.060514 139.326928 
L 497.314669 137.473297 
L 495.550376 135.637216 
L 493.76781 133.81887 
L 491.96715 132.01844 
L 490.148576 130.236107 
L 488.312271 128.472048 
L 486.458416 126.72644 
L 484.587199 124.999458 
L 482.698805 123.291273 
L 480.793425 121.602058 
L 478.871248 119.931981 
L 476.932466 118.281208 
L 474.977274 116.649906 
L 473.005867 115.038237 
L 471.018442 113.446362 
L 469.015198 111.874441 
L 466.996335 110.32263 
L 462.371225 116.402445 
z
" clip-path="url(#pe56e1c7245)" style="fill: none; stroke: #000000; stroke-width: 0.5; stroke-linejoin: miter"/>
   </g>
   <g id="patch_20">
    <path d="M 553.644917 258.083314 
L 554.181865 260.494208 
L 554.694678 262.910351 
L 555.183304 265.331501 
L 555.647695 267.757416 
L 556.087804 270.187854 
L 556.503586 272.622571 
L 556.895001 275.061324 
L 557.26201 277.50387 
L 557.604575 279.949963 
L 557.922662 282.39936 
L 558.21624 284.851815 
L 558.485279 287.307083 
L 558.729753 289.764918 
L 558.949636 292.225076 
L 559.089163 293.951689 
L 566.705549 293.363088 
L 566.561707 291.583074 
L 566.335023 289.046829 
L 566.082989 286.512978 
L 565.805629 283.981774 
L 565.502971 281.45347 
L 565.175046 278.928319 
L 564.821887 276.406573 
L 564.443527 273.888485 
L 564.040007 271.374306 
L 563.611365 268.864289 
L 563.157644 266.358683 
L 562.678891 263.857739 
L 562.175153 261.361708 
L 561.64648 258.870839 
L 561.092925 256.385381 
L 553.644917 258.083314 
z
" clip-path="url(#pe56e1c7245)" style="fill: none; stroke: #000000; stroke-width: 0.5; stroke-linejoin: miter"/>
   </g>
   <g id="patch_21">
    <path d="M 559.810756 315.487358 
L 559.773365 317.95704 
L 559.71128 320.426223 
L 559.624506 322.894663 
L 559.513053 325.362111 
L 559.376931 327.828322 
L 559.216154 330.293048 
L 559.030738 332.756043 
L 558.820702 335.217061 
L 558.586067 337.675855 
L 558.326856 340.13218 
L 558.043095 342.58579 
L 557.734813 345.03644 
L 557.40204 347.483885 
L 557.044809 349.927879 
L 556.663157 352.36818 
L 556.257121 354.804541 
L 555.826743 357.236721 
L 555.372064 359.664475 
L 554.893132 362.087561 
L 554.389992 364.505737 
L 553.862697 366.918761 
L 553.311298 369.326391 
L 552.73585 371.728387 
L 552.136412 374.124508 
L 551.513043 376.514515 
L 550.865806 378.898169 
L 550.194764 381.275232 
L 549.499987 383.645465 
L 548.781541 386.008633 
L 548.039501 388.364498 
L 547.273939 390.712824 
L 546.484933 393.053378 
L 545.672561 395.385925 
L 544.836905 397.710232 
L 543.978047 400.026066 
L 543.096075 402.333196 
L 542.191076 404.631391 
L 541.26314 406.920421 
L 540.312361 409.200057 
L 539.338834 411.470072 
L 538.342655 413.730238 
L 537.323925 415.98033 
L 536.282746 418.220122 
L 535.219221 420.449391 
L 534.133457 422.667912 
L 533.025562 424.875466 
L 531.895647 427.07183 
L 530.743826 429.256786 
L 529.570213 431.430114 
L 528.374926 433.591598 
L 527.158084 435.741021 
L 525.919809 437.878168 
L 524.660225 440.002826 
L 523.379457 442.114782 
L 522.077635 444.213825 
L 520.754887 446.299745 
L 519.411347 448.372334 
L 518.047148 450.431383 
L 516.662428 452.476688 
L 515.257324 454.508044 
L 513.831977 456.525247 
L 512.386529 458.528096 
L 510.921126 460.516391 
L 509.435913 462.489933 
L 507.93104 464.448524 
L 506.406656 466.391969 
L 504.862914 468.320073 
L 503.299969 470.232643 
L 501.717976 472.129488 
L 500.117095 474.010419 
L 498.497484 475.875248 
L 496.859307 477.723787 
L 495.202726 479.555853 
L 493.527908 481.371261 
L 491.83502 483.169831 
L 490.124231 484.951382 
L 488.395712 486.715736 
L 486.649637 488.462718 
L 484.886179 490.192151 
L 483.105515 491.903864 
L 481.565451 493.35702 
L 486.784197 498.935594 
L 488.371892 497.437495 
L 490.207628 495.672842 
L 492.025625 493.889921 
L 493.825703 492.08891 
L 495.607681 490.269987 
L 497.371381 488.433337 
L 499.116627 486.579141 
L 500.843244 484.707586 
L 502.551059 482.818859 
L 504.239902 480.913148 
L 505.909603 478.990645 
L 507.559996 477.051541 
L 509.190917 475.09603 
L 510.8022 473.124308 
L 512.393687 471.136572 
L 513.965216 469.133021 
L 515.516632 467.113854 
L 517.047779 465.079275 
L 518.558504 463.029487 
L 520.048656 460.964694 
L 521.518086 458.885103 
L 522.966647 456.790922 
L 524.394194 454.68236 
L 525.800585 452.559628 
L 527.185678 450.422939 
L 528.549335 448.272506 
L 529.89142 446.108544 
L 531.211799 443.93127 
L 532.510339 441.740901 
L 533.786911 439.537657 
L 535.041387 437.321757 
L 536.273642 435.093423 
L 537.483552 432.852878 
L 538.670997 430.600347 
L 539.835857 428.336054 
L 540.978017 426.060225 
L 542.097362 423.773089 
L 543.193779 421.474874 
L 544.26716 419.16581 
L 545.317397 416.846128 
L 546.344386 414.51606 
L 547.348022 412.175838 
L 548.328207 409.825698 
L 549.284841 407.465873 
L 550.21783 405.0966 
L 551.12708 402.718115 
L 552.0125 400.330658 
L 552.874001 397.934465 
L 553.711498 395.529777 
L 554.524906 393.116835 
L 555.314145 390.69588 
L 556.079135 388.267153 
L 556.819801 385.830898 
L 557.536067 383.387359 
L 558.227862 380.936778 
L 558.895117 378.479403 
L 559.537765 376.015478 
L 560.155743 373.54525 
L 560.748987 371.068966 
L 561.31744 368.586873 
L 561.861044 366.09922 
L 562.379744 363.606255 
L 562.873489 361.108228 
L 563.34223 358.605389 
L 563.785919 356.097987 
L 564.204513 353.586274 
L 564.597968 351.0705 
L 564.966247 348.550918 
L 565.309312 346.02778 
L 565.627129 343.501336 
L 565.919666 340.971841 
L 566.186894 338.439547 
L 566.428786 335.904708 
L 566.645318 333.367576 
L 566.836468 330.828406 
L 567.002217 328.287451 
L 567.142549 325.744966 
L 567.25745 323.201205 
L 567.346907 320.656422 
L 567.410913 318.110872 
L 567.44946 315.564809 
L 559.810756 315.487358 
z
" clip-path="url(#pe56e1c7245)" style="fill: none; stroke: #000000; stroke-width: 0.5; stroke-linejoin: miter"/>
   </g>
   <g id="patch_22">
    <path d="M 465.202726 507.377255 
L 463.251199 508.891277 
L 461.284629 510.385709 
L 459.303213 511.8604 
L 457.30715 513.315204 
L 455.296638 514.749975 
L 453.27188 516.16457 
L 451.233077 517.558846 
L 449.180434 518.932665 
L 447.114155 520.285889 
L 445.034448 521.618383 
L 442.94152 522.930014 
L 440.83558 524.22065 
L 438.71684 525.490163 
L 436.58551 526.738425 
L 434.441805 527.965312 
L 432.285939 529.170701 
L 430.118126 530.354471 
L 427.938584 531.516504 
L 425.747531 532.656684 
L 423.545186 533.774897 
L 421.33177 534.871031 
L 419.107502 535.944976 
L 416.872607 536.996626 
L 414.627307 538.025874 
L 412.371827 539.032618 
L 410.106393 540.016757 
L 407.831231 540.978193 
L 405.546568 541.91683 
L 403.252633 542.832574 
L 400.949655 543.725333 
L 398.637866 544.595018 
L 396.317495 545.441542 
L 393.988775 546.26482 
L 391.651939 547.06477 
L 390.121449 547.574597 
L 392.51203 554.830003 
L 394.089855 554.304408 
L 396.498964 553.479717 
L 398.899706 552.630977 
L 401.291841 551.758272 
L 403.675129 550.86169 
L 406.049333 549.94132 
L 408.414214 548.997254 
L 410.769537 548.029587 
L 413.115065 547.038416 
L 415.450564 546.023839 
L 417.775801 544.985959 
L 420.090543 543.924878 
L 422.394559 542.840704 
L 424.687618 541.733543 
L 426.969491 540.603509 
L 429.23995 539.450712 
L 431.498767 538.275268 
L 433.745717 537.077296 
L 435.980576 535.856914 
L 438.203119 534.614245 
L 440.413124 533.349414 
L 442.610371 532.062545 
L 444.794639 530.753769 
L 446.965711 529.423217 
L 449.123369 528.07102 
L 451.267397 526.697315 
L 453.397581 525.302238 
L 455.513708 523.88593 
L 457.615567 522.448531 
L 459.702947 520.990187 
L 461.775639 519.511041 
L 463.833436 518.011244 
L 465.876133 516.490943 
L 467.903524 514.950292 
L 469.915408 513.389444 
L 465.202726 507.377255 
z
" clip-path="url(#pe56e1c7245)" style="fill: none; stroke: #000000; stroke-width: 0.5; stroke-linejoin: miter"/>
   </g>
   <g id="patch_23">
    <path d="M 369.381323 553.418648 
L 366.97418 553.97217 
L 364.561623 554.501594 
L 362.143891 555.006866 
L 359.721229 555.487935 
L 357.293876 555.944754 
L 354.862077 556.377278 
L 352.426075 556.785462 
L 349.986112 557.169266 
L 349.007228 557.316226 
L 350.126235 564.872919 
L 351.135394 564.721415 
L 353.650819 564.32574 
L 356.162162 563.904932 
L 358.669171 563.459031 
L 361.171597 562.988084 
L 363.669187 562.492136 
L 366.161693 561.971237 
L 368.648866 561.425439 
L 371.130457 560.854798 
L 369.381323 553.418648 
z
" clip-path="url(#pe56e1c7245)" style="fill: none; stroke: #000000; stroke-width: 0.5; stroke-linejoin: miter"/>
   </g>
   <g id="patch_24">
    <path d="M 327.574516 559.539867 
L 325.108252 559.675022 
L 322.64076 559.785508 
L 320.172287 559.871313 
L 317.703079 559.932431 
L 315.233383 559.968853 
L 312.763447 559.980578 
L 312.021057 559.979274 
L 311.996162 567.61833 
L 312.761512 567.619674 
L 315.307838 567.607587 
L 317.853916 567.570038 
L 320.399491 567.50703 
L 322.944309 567.418571 
L 325.488115 567.304668 
L 328.030655 567.165333 
L 327.574516 559.539867 
z
" clip-path="url(#pe56e1c7245)" style="fill: none; stroke: #000000; stroke-width: 0.5; stroke-linejoin: miter"/>
   </g>
   <g id="patch_25">
    <path d="M 290.496988 558.969224 
L 288.038285 558.733638 
L 285.58206 558.473478 
L 283.12856 558.188769 
L 280.678029 557.879539 
L 278.230713 557.54582 
L 275.786857 557.187645 
L 273.346704 556.805049 
L 270.9105 556.398072 
L 269.935342 556.228139 
L 268.608826 563.751181 
L 269.614144 563.926369 
L 272.125695 564.345933 
L 274.641316 564.740362 
L 277.160756 565.109614 
L 279.683762 565.453655 
L 282.210082 565.772448 
L 284.739464 566.065963 
L 287.271654 566.334169 
L 289.8064 566.577041 
L 290.496988 558.969224 
z
" clip-path="url(#pe56e1c7245)" style="fill: none; stroke: #000000; stroke-width: 0.5; stroke-linejoin: miter"/>
   </g>
   <g id="patch_26">
    <path d="M 248.898354 551.564352 
L 246.515778 550.913157 
L 244.139833 550.238169 
L 241.770757 549.539456 
L 239.408786 548.817088 
L 237.054156 548.071137 
L 234.707104 547.301676 
L 232.367863 546.508785 
L 230.036669 545.692541 
L 227.713753 544.853026 
L 225.399348 543.990324 
L 223.093686 543.104522 
L 220.796997 542.195708 
L 218.509511 541.263972 
L 216.231456 540.309409 
L 213.963061 539.332114 
L 211.704552 538.332184 
L 209.456155 537.309719 
L 207.218095 536.264821 
L 204.990596 535.197596 
L 202.77388 534.108149 
L 200.568169 532.99659 
L 198.373684 531.86303 
L 196.190644 530.707582 
L 194.019268 529.530362 
L 191.859772 528.331487 
L 189.712373 527.111077 
L 187.577284 525.869255 
L 185.454721 524.606145 
L 183.344895 523.321872 
L 181.248016 522.016566 
L 179.164296 520.690356 
L 177.093941 519.343376 
L 175.03716 517.97576 
L 172.994157 516.587646 
L 170.965137 515.17917 
L 168.950304 513.750476 
L 166.949857 512.301704 
L 164.963999 510.833001 
L 162.992926 509.344514 
L 161.036837 507.83639 
L 159.095926 506.308781 
L 157.170388 504.76184 
L 155.260416 503.195721 
L 153.3662 501.61058 
L 151.48793 500.006578 
L 149.625793 498.383873 
L 147.779977 496.742628 
L 145.950664 495.083007 
L 144.13804 493.405177 
L 142.342284 491.709304 
L 140.563576 489.995559 
L 138.802094 488.264113 
L 137.058015 486.515139 
L 135.331512 484.748812 
L 133.622758 482.965309 
L 131.931925 481.164807 
L 130.259181 479.347488 
L 128.604693 477.513532 
L 126.968628 475.663123 
L 125.351148 473.796446 
L 123.752415 471.913688 
L 122.17259 470.015038 
L 120.611829 468.100684 
L 119.07029 466.170818 
L 117.548127 464.225634 
L 116.045491 462.265326 
L 114.562533 460.29009 
L 113.099401 458.300123 
L 111.656241 456.295624 
L 110.233199 454.276795 
L 108.830415 452.243836 
L 107.448031 450.196951 
L 106.086185 448.136345 
L 104.745012 446.062224 
L 103.424647 443.974794 
L 102.125222 441.874266 
L 100.846868 439.760849 
L 99.58971 437.634754 
L 98.353877 435.496194 
L 97.13949 433.345383 
L 95.946672 431.182536 
L 94.775541 429.007869 
L 93.626216 426.8216 
L 92.49881 424.623947 
L 91.393437 422.415129 
L 90.310206 420.195369 
L 89.249228 417.964888 
L 88.210606 415.723908 
L 87.194446 413.472655 
L 86.200849 411.211352 
L 85.229915 408.940227 
L 84.28174 406.659507 
L 83.356419 404.369418 
L 82.454044 402.070191 
L 81.574707 399.762056 
L 80.718495 397.445243 
L 79.885493 395.119983 
L 79.075785 392.78651 
L 78.289452 390.445057 
L 77.526572 388.095857 
L 76.787223 385.739147 
L 76.071476 383.375161 
L 75.379406 381.004135 
L 74.711079 378.626308 
L 74.066564 376.241916 
L 73.445925 373.851199 
L 72.849223 371.454394 
L 72.276519 369.051743 
L 71.727869 366.643485 
L 71.20333 364.229861 
L 70.702952 361.811112 
L 70.226786 359.387481 
L 69.77488 356.959209 
L 69.347279 354.526539 
L 68.944026 352.089716 
L 68.565161 349.648981 
L 68.210721 347.20458 
L 67.880743 344.756757 
L 67.57526 342.305757 
L 67.373043 340.561893 
L 59.781715 341.414844 
L 59.990185 343.212642 
L 60.305117 345.739447 
L 60.6453 348.262976 
L 61.010702 350.782976 
L 61.401285 353.299198 
L 61.81701 355.811387 
L 62.257836 358.319294 
L 62.723718 360.822667 
L 63.21461 363.321256 
L 63.730464 365.814811 
L 64.271226 368.303084 
L 64.836844 370.785824 
L 65.427261 373.262784 
L 66.042417 375.733716 
L 66.682252 378.198373 
L 67.3467 380.656509 
L 68.035696 383.107878 
L 68.749172 385.552234 
L 69.487054 387.989333 
L 70.249271 390.418931 
L 71.035744 392.840786 
L 71.846397 395.254656 
L 72.681147 397.660298 
L 73.539912 400.057473 
L 74.422605 402.44594 
L 75.329138 404.825461 
L 76.259421 407.195798 
L 77.21336 409.556714 
L 78.190861 411.907972 
L 79.191824 414.249338 
L 80.216151 416.580578 
L 81.263739 418.901458 
L 82.334482 421.211746 
L 83.428275 423.511211 
L 84.545007 425.799624 
L 85.684567 428.076755 
L 86.846841 430.342377 
L 88.031713 432.596263 
L 89.239064 434.838188 
L 90.468773 437.067927 
L 91.720718 439.285258 
L 92.994774 441.489959 
L 94.290812 443.681809 
L 95.608704 445.86059 
L 96.948317 448.026083 
L 98.309518 450.178072 
L 99.69217 452.316341 
L 101.096135 454.440677 
L 102.521273 456.550868 
L 103.967442 458.646702 
L 105.434496 460.727969 
L 106.92229 462.794463 
L 108.430673 464.845975 
L 109.959496 466.882301 
L 111.508605 468.903237 
L 113.077846 470.908582 
L 114.667061 472.898134 
L 116.276093 474.871694 
L 117.904779 476.829066 
L 119.552957 478.770054 
L 121.220462 480.694463 
L 122.907127 482.602101 
L 124.612785 484.492777 
L 126.337263 486.366302 
L 128.08039 488.22249 
L 129.841992 490.061153 
L 131.621892 491.882109 
L 133.419912 493.685175 
L 135.235872 495.470171 
L 137.069592 497.236918 
L 138.920886 498.98524 
L 140.789572 500.714962 
L 142.67546 502.425911 
L 144.578364 504.117916 
L 146.498092 505.790808 
L 148.434453 507.444419 
L 150.387253 509.078584 
L 152.356297 510.69314 
L 154.341387 512.287925 
L 156.342326 513.862779 
L 158.358913 515.417546 
L 160.390947 516.952069 
L 162.438224 518.466196 
L 164.50054 519.959775 
L 166.577688 521.432656 
L 168.669461 522.884692 
L 170.775649 524.315739 
L 172.896043 525.725652 
L 175.030429 527.114291 
L 177.178594 528.481517 
L 179.340325 529.827194 
L 181.515403 531.151186 
L 183.703613 532.453362 
L 185.904735 533.733591 
L 188.118548 534.991745 
L 190.344833 536.227699 
L 192.583365 537.441328 
L 194.833922 538.632511 
L 197.096278 539.80113 
L 199.370206 540.947067 
L 201.65548 542.070208 
L 203.951871 543.17044 
L 206.25915 544.247654 
L 208.577085 545.301742 
L 210.905445 546.332598 
L 213.243996 547.340119 
L 215.592506 548.324205 
L 217.950739 549.284756 
L 220.31846 550.221678 
L 222.695431 551.134876 
L 225.081415 552.024259 
L 227.476174 552.889739 
L 229.879467 553.731228 
L 232.291056 554.548642 
L 234.710697 555.3419 
L 237.13815 556.110922 
L 239.573172 556.855631 
L 242.015519 557.575954 
L 244.464947 558.271817 
L 246.921211 558.943152 
L 248.898354 551.564352 
z
" clip-path="url(#pe56e1c7245)" style="fill: none; stroke: #000000; stroke-width: 0.5; stroke-linejoin: miter"/>
   </g>
   <g id="patch_27">
    <path d="M 65.903419 319.064313 
L 65.854954 316.594824 
L 65.831186 314.124974 
L 65.832117 311.65501 
L 65.857748 309.185179 
L 65.908075 306.715727 
L 65.983094 304.246903 
L 66.082797 301.778952 
L 66.207174 299.312121 
L 66.356213 296.846657 
L 66.529898 294.382807 
L 66.728213 291.920817 
L 66.951137 289.460934 
L 67.198649 287.003402 
L 67.470723 284.548469 
L 67.767333 282.096378 
L 68.088448 279.647377 
L 68.434037 277.201709 
L 68.804065 274.759619 
L 69.198494 272.321352 
L 69.617287 269.88715 
L 70.0604 267.457258 
L 70.527789 265.031919 
L 71.019408 262.611375 
L 71.535207 260.195868 
L 71.615813 259.828756 
L 64.155705 258.184806 
L 64.072606 258.563272 
L 63.540854 261.053486 
L 63.03403 263.548892 
L 62.552185 266.049242 
L 62.095368 268.554285 
L 61.663623 271.063771 
L 61.256995 273.577449 
L 60.875523 276.095067 
L 60.519246 278.616374 
L 60.188199 281.141118 
L 59.882416 283.669046 
L 59.601927 286.199905 
L 59.34676 288.733443 
L 59.116941 291.269406 
L 58.912493 293.80754 
L 58.733436 296.347591 
L 58.579788 298.889306 
L 58.451564 301.432431 
L 58.348777 303.97671 
L 58.271438 306.52189 
L 58.219555 309.067716 
L 58.193131 311.613934 
L 58.192171 314.160289 
L 58.216674 316.706526 
L 58.266638 319.252391 
L 65.903419 319.064313 
z
" clip-path="url(#pe56e1c7245)" style="fill: none; stroke: #000000; stroke-width: 0.5; stroke-linejoin: miter"/>
   </g>
   <g id="patch_28">
    <path d="M 77.1664 239.008172 
L 77.91792 236.655314 
L 78.692931 234.310088 
L 79.491355 231.97273 
L 80.313112 229.643473 
L 81.15812 227.32255 
L 82.026295 225.010193 
L 82.91755 222.706633 
L 83.831795 220.412101 
L 84.76894 218.126825 
L 85.72889 215.851035 
L 86.711549 213.584959 
L 87.71682 211.328822 
L 88.744602 209.08285 
L 89.794791 206.847269 
L 90.867284 204.6223 
L 91.961972 202.408168 
L 93.078746 200.205094 
L 94.217495 198.013296 
L 95.378104 195.832996 
L 96.560459 193.664411 
L 97.764439 191.507758 
L 98.989926 189.363252 
L 100.236795 187.231107 
L 101.504924 185.111538 
L 102.794185 183.004756 
L 104.104448 180.910972 
L 105.435584 178.830395 
L 106.787458 176.763233 
L 108.159937 174.709693 
L 109.552881 172.66998 
L 110.966153 170.644298 
L 112.39961 168.63285 
L 113.85311 166.635837 
L 115.326508 164.653459 
L 116.819654 162.685913 
L 118.332402 160.733397 
L 119.864598 158.796106 
L 121.416091 156.874234 
L 122.986724 154.967972 
L 124.576342 153.077511 
L 126.184783 151.203041 
L 127.811889 149.344749 
L 129.457497 147.502821 
L 131.121441 145.67744 
L 132.803555 143.86879 
L 134.503671 142.077051 
L 136.221619 140.302403 
L 137.957228 138.545023 
L 139.710323 136.805086 
L 141.48073 135.082767 
L 143.268271 133.378238 
L 145.072768 131.691669 
L 146.89404 130.023229 
L 148.731905 128.373085 
L 150.58618 126.741402 
L 152.456678 125.128343 
L 154.343213 123.534069 
L 156.245596 121.95874 
L 158.163637 120.402513 
L 160.097144 118.865544 
L 162.045924 117.347987 
L 164.009782 115.849993 
L 165.988521 114.371712 
L 167.981944 112.913292 
L 169.989851 111.474879 
L 172.012042 110.056617 
L 174.048314 108.658647 
L 176.098464 107.281109 
L 178.162286 105.924142 
L 180.239575 104.58788 
L 182.330122 103.272458 
L 184.433718 101.978006 
L 186.550154 100.704655 
L 188.679217 99.452531 
L 190.820695 98.221761 
L 192.974373 97.012466 
L 195.140036 95.824768 
L 197.317468 94.658786 
L 199.50645 93.514636 
L 201.28161 92.607112 
L 197.831783 85.791359 
L 196.001722 86.72695 
L 193.745039 87.906486 
L 191.500264 89.10853 
L 189.267622 90.332961 
L 187.047335 91.579656 
L 184.839626 92.848492 
L 182.644715 94.139341 
L 180.462823 95.452074 
L 178.294167 96.78656 
L 176.138964 98.142666 
L 173.997429 99.520256 
L 171.869777 100.919191 
L 169.756221 102.339333 
L 167.656971 103.780539 
L 165.572239 105.242665 
L 163.502231 106.725565 
L 161.447156 108.229091 
L 159.407219 109.753092 
L 157.382623 111.297415 
L 155.373571 112.861907 
L 153.380265 114.446411 
L 151.402903 116.050769 
L 149.441683 117.674819 
L 147.496802 119.318401 
L 145.568453 120.981348 
L 143.65683 122.663496 
L 141.762124 124.364675 
L 139.884524 126.084716 
L 138.024218 127.823447 
L 136.181392 129.580694 
L 134.35623 131.35628 
L 132.548916 133.15003 
L 130.759628 134.961762 
L 128.988547 136.791296 
L 127.23585 138.63845 
L 125.501712 140.503037 
L 123.786306 142.384873 
L 122.089804 144.283768 
L 120.412375 146.199533 
L 118.754187 148.131977 
L 117.115407 150.080905 
L 115.496197 152.046123 
L 113.89672 154.027435 
L 112.317136 156.024642 
L 110.757603 158.037546 
L 109.218276 160.065943 
L 107.69931 162.109632 
L 106.200856 164.168408 
L 104.723065 166.242066 
L 103.266084 168.330398 
L 101.830058 170.433195 
L 100.415132 172.550246 
L 99.021447 174.681341 
L 97.649143 176.826266 
L 96.298355 178.984807 
L 94.969221 181.156747 
L 93.661872 183.341869 
L 92.376439 185.539956 
L 91.113051 187.750787 
L 89.871834 189.974141 
L 88.652912 192.209796 
L 87.456407 194.457528 
L 86.282439 196.717113 
L 85.131125 198.988324 
L 84.002581 201.270934 
L 82.896919 203.564716 
L 81.814249 205.869439 
L 80.754681 208.184874 
L 79.718319 210.510788 
L 78.705268 212.84695 
L 77.715629 215.193125 
L 76.7495 217.549079 
L 75.806979 219.914576 
L 74.88816 222.28938 
L 73.993134 224.673254 
L 73.121992 227.065958 
L 72.27482 229.467254 
L 71.451702 231.876902 
L 70.652722 234.29466 
L 69.877959 236.720286 
L 77.1664 239.008172 
z
" clip-path="url(#pe56e1c7245)" style="fill: none; stroke: #000000; stroke-width: 0.5; stroke-linejoin: miter"/>
   </g>
   <g id="patch_29">
    <path d="M 220.913106 83.723975 
L 223.210255 82.816324 
L 225.516365 81.93169 
L 227.831207 81.070161 
L 230.154547 80.231823 
L 232.486155 79.416759 
L 234.825797 78.625053 
L 237.173239 77.856781 
L 239.528246 77.112023 
L 241.890582 76.390851 
L 244.260012 75.693338 
L 246.636299 75.019554 
L 249.019205 74.369566 
L 251.408491 73.743439 
L 253.803919 73.141236 
L 256.205249 72.563017 
L 258.612241 72.00884 
L 261.024655 71.47876 
L 263.442248 70.97283 
L 265.86478 70.491102 
L 268.292008 70.033622 
L 270.723689 69.600437 
L 273.159581 69.19159 
L 275.599439 68.807121 
L 278.043019 68.447071 
L 280.490078 68.111473 
L 282.940371 67.800363 
L 285.393652 67.513771 
L 287.849676 67.251725 
L 290.308198 67.014253 
L 291.298753 66.925581 
L 290.632962 59.315553 
L 289.611772 59.406968 
L 287.077213 59.651785 
L 284.545229 59.921935 
L 282.016073 60.217391 
L 279.489998 60.538123 
L 276.967257 60.8841 
L 274.448102 61.255286 
L 271.932784 61.651645 
L 269.421556 62.073137 
L 266.914668 62.519719 
L 264.412371 62.991348 
L 261.914916 63.487976 
L 259.422551 64.009553 
L 256.935527 64.556027 
L 254.454092 65.127344 
L 251.978494 65.723446 
L 249.50898 66.344273 
L 247.045799 66.989765 
L 244.589195 67.659855 
L 242.139415 68.354478 
L 239.696703 69.073564 
L 237.261305 69.81704 
L 234.833463 70.584832 
L 232.41342 71.376864 
L 230.001418 72.193057 
L 227.597698 73.033328 
L 225.202502 73.897595 
L 222.816067 74.785769 
L 220.438634 75.697763 
L 218.070439 76.633486 
L 220.913106 83.723975 
z
" clip-path="url(#pe56e1c7245)" style="fill: none; stroke: #000000; stroke-width: 0.5; stroke-linejoin: miter"/>
   </g>
   <g id="text_1">
    <text style="font: 10px 'DejaVu Sans', 'Bitstream Vera Sans', 'Computer Modern Sans Serif', 'Lucida Grande', 'Verdana', 'Geneva', 'Lucid', 'Arial', 'Helvetica', 'Avant Garde', sans-serif; text-anchor: middle" x="329.791523" y="44.069708" transform="rotate(-356.390041 329.791523 44.069708)">DG</text>
   </g>
   <g id="text_2">
    <text style="font: 10px 'DejaVu Sans', 'Bitstream Vera Sans', 'Computer Modern Sans Serif', 'Lucida Grande', 'Verdana', 'Geneva', 'Lucid', 'Arial', 'Helvetica', 'Avant Garde', sans-serif; text-anchor: middle" x="391.754263" y="55.354353" transform="rotate(-342.966805 391.754263 55.354353)">CA3</text>
   </g>
   <g id="text_3">
    <text style="font: 10px 'DejaVu Sans', 'Bitstream Vera Sans', 'Computer Modern Sans Serif', 'Lucida Grande', 'Verdana', 'Geneva', 'Lucid', 'Arial', 'Helvetica', 'Avant Garde', sans-serif; text-anchor: middle" x="445.729303" y="78.592496" transform="rotate(-330.446058 445.729303 78.592496)">CA2</text>
   </g>
   <g id="text_4">
    <text style="font: 10px 'DejaVu Sans', 'Bitstream Vera Sans', 'Computer Modern Sans Serif', 'Lucida Grande', 'Verdana', 'Geneva', 'Lucid', 'Arial', 'Helvetica', 'Avant Garde', sans-serif; text-anchor: middle" x="532.758624" y="157.317146" transform="rotate(-305.290456 532.758624 157.317146)">CA1v</text>
   </g>
   <g id="text_5">
    <text style="font: 10px 'DejaVu Sans', 'Bitstream Vera Sans', 'Computer Modern Sans Serif', 'Lucida Grande', 'Verdana', 'Geneva', 'Lucid', 'Arial', 'Helvetica', 'Avant Garde', sans-serif; text-anchor: middle" x="579.22286" y="272.548354" transform="rotate(-278.630705 579.22286 272.548354)">CA1d</text>
   </g>
   <g id="text_6">
    <text style="font: 10px 'DejaVu Sans', 'Bitstream Vera Sans', 'Computer Modern Sans Serif', 'Lucida Grande', 'Verdana', 'Geneva', 'Lucid', 'Arial', 'Helvetica', 'Avant Garde', sans-serif; text-anchor: middle" x="564.516304" y="423.702323" transform="rotate(-66.255187 564.516304 423.702323)">SUBv</text>
   </g>
   <g id="text_7">
    <text style="font: 10px 'DejaVu Sans', 'Bitstream Vera Sans', 'Computer Modern Sans Serif', 'Lucida Grande', 'Verdana', 'Geneva', 'Lucid', 'Arial', 'Helvetica', 'Avant Garde', sans-serif; text-anchor: middle" x="442.60907" y="555.394154" transform="rotate(-28.1639 442.60907 555.394154)">SUBd</text>
   </g>
   <g id="text_8">
    <text style="font: 10px 'DejaVu Sans', 'Bitstream Vera Sans', 'Computer Modern Sans Serif', 'Lucida Grande', 'Verdana', 'Geneva', 'Lucid', 'Arial', 'Helvetica', 'Avant Garde', sans-serif; text-anchor: middle" x="364.49047" y="583.052626" transform="rotate(-10.829876 364.49047 583.052626)">PRE</text>
   </g>
   <g id="text_9">
    <text style="font: 10px 'DejaVu Sans', 'Bitstream Vera Sans', 'Computer Modern Sans Serif', 'Lucida Grande', 'Verdana', 'Geneva', 'Lucid', 'Arial', 'Helvetica', 'Avant Garde', sans-serif; text-anchor: middle" x="320.591107" y="587.840281" transform="rotate(-1.618257 320.591107 587.840281)">POST</text>
   </g>
   <g id="text_10">
    <text style="font: 10px 'DejaVu Sans', 'Bitstream Vera Sans', 'Computer Modern Sans Serif', 'Lucida Grande', 'Verdana', 'Geneva', 'Lucid', 'Arial', 'Helvetica', 'Avant Garde', sans-serif; text-anchor: middle" x="276.491462" y="585.538724" transform="rotate(-352.406639 276.491462 585.538724)">PAR</text>
   </g>
   <g id="text_11">
    <text style="font: 10px 'DejaVu Sans', 'Bitstream Vera Sans', 'Computer Modern Sans Serif', 'Lucida Grande', 'Verdana', 'Geneva', 'Lucid', 'Arial', 'Helvetica', 'Avant Garde', sans-serif; text-anchor: middle" x="104.381098" y="492.308179" transform="rotate(-310.705394 104.381098 492.308179)">LHA</text>
   </g>
   <g id="text_12">
    <text style="font: 10px 'DejaVu Sans', 'Bitstream Vera Sans', 'Computer Modern Sans Serif', 'Lucida Grande', 'Verdana', 'Geneva', 'Lucid', 'Arial', 'Helvetica', 'Avant Garde', sans-serif; text-anchor: middle" x="44.622164" y="287.118834" transform="rotate(-84.491701 44.622164 287.118834)">DHA</text>
   </g>
   <g id="text_13">
    <text style="font: 10px 'DejaVu Sans', 'Bitstream Vera Sans', 'Computer Modern Sans Serif', 'Lucida Grande', 'Verdana', 'Geneva', 'Lucid', 'Arial', 'Helvetica', 'Avant Garde', sans-serif; text-anchor: middle" x="107.297469" y="138.741111" transform="rotate(-49.709544 107.297469 138.741111)">mammillary</text>
   </g>
   <g id="text_14">
    <text style="font: 10px 'DejaVu Sans', 'Bitstream Vera Sans', 'Computer Modern Sans Serif', 'Lucida Grande', 'Verdana', 'Geneva', 'Lucid', 'Arial', 'Helvetica', 'Avant Garde', sans-serif; text-anchor: middle" x="250.27568" y="50.895902" transform="rotate(-13.423237 250.27568 50.895902)">AHA</text>
   </g>
  </g>
 </g>
 <defs>
  <clipPath id="pe56e1c7245">
   <path d="M 580.194375 312.983133 
C 580.194375 277.87264 573.278374 243.103552 559.84217 210.665685 
C 546.405966 178.227819 526.710859 148.752009 501.883991 123.925141 
C 477.057123 99.098273 447.581313 79.403167 415.143447 65.966963 
C 382.705581 52.530759 347.936493 45.614757 312.825999 45.614757 
C 277.715506 45.614757 242.946417 52.530759 210.508551 65.966963 
C 178.070685 79.403167 148.594875 99.098273 123.768007 123.925141 
C 98.941139 148.752009 79.246033 178.227819 65.809829 210.665685 
C 52.373624 243.103552 45.457623 277.87264 45.457623 312.983133 
C 45.457623 348.093627 52.373624 382.862715 65.809829 415.300581 
C 79.246033 447.738447 98.941139 477.214257 123.768007 502.041125 
C 148.594875 526.867993 178.070685 546.5631 210.508551 559.999304 
C 242.946417 573.435508 277.715506 580.35151 312.825999 580.35151 
C 347.936493 580.35151 382.705581 573.435508 415.143447 559.999304 
C 447.581313 546.5631 477.057123 526.867993 501.883991 502.041125 
C 526.710859 477.214257 546.405966 447.738447 559.84217 415.300581 
C 573.278374 382.862715 580.194375 348.093627 580.194375 312.983133 
M 312.825999 312.983133 
C 312.825999 312.983133 312.825999 312.983133 312.825999 312.983133 
C 312.825999 312.983133 312.825999 312.983133 312.825999 312.983133 
C 312.825999 312.983133 312.825999 312.983133 312.825999 312.983133 
C 312.825999 312.983133 312.825999 312.983133 312.825999 312.983133 
C 312.825999 312.983133 312.825999 312.983133 312.825999 312.983133 
C 312.825999 312.983133 312.825999 312.983133 312.825999 312.983133 
C 312.825999 312.983133 312.825999 312.983133 312.825999 312.983133 
C 312.825999 312.983133 312.825999 312.983133 312.825999 312.983133 
C 312.825999 312.983133 312.825999 312.983133 312.825999 312.983133 
C 312.825999 312.983133 312.825999 312.983133 312.825999 312.983133 
C 312.825999 312.983133 312.825999 312.983133 312.825999 312.983133 
C 312.825999 312.983133 312.825999 312.983133 312.825999 312.983133 
C 312.825999 312.983133 312.825999 312.983133 312.825999 312.983133 
C 312.825999 312.983133 312.825999 312.983133 312.825999 312.983133 
C 312.825999 312.983133 312.825999 312.983133 312.825999 312.983133 
C 312.825999 312.983133 312.825999 312.983133 312.825999 312.983133 
z
"/>
  </clipPath>
 </defs>
</svg>
