<?xml version="1.0" encoding="utf-8" standalone="no"?>
<!DOCTYPE svg PUBLIC "-//W3C//DTD SVG 1.1//EN"
  "http://www.w3.org/Graphics/SVG/1.1/DTD/svg11.dtd">
<svg xmlns:xlink="http://www.w3.org/1999/xlink" width="628.079121pt" height="618.257244pt" viewBox="0 0 628.079121 618.257244" xmlns="http://www.w3.org/2000/svg" version="1.1">
 <metadata>
  <rdf:RDF xmlns:dc="http://purl.org/dc/elements/1.1/" xmlns:cc="http://creativecommons.org/ns#" xmlns:rdf="http://www.w3.org/1999/02/22-rdf-syntax-ns#">
   <cc:Work>
    <dc:type rdf:resource="http://purl.org/dc/dcmitype/StillImage"/>
    <dc:date>2024-12-11T15:03:04.304597</dc:date>
    <dc:format>image/svg+xml</dc:format>
    <dc:creator>
     <cc:Agent>
      <dc:title>Matplotlib v3.9.3, https://matplotlib.org/</dc:title>
     </cc:Agent>
    </dc:creator>
   </cc:Work>
  </rdf:RDF>
 </metadata>
 <defs>
  <style type="text/css">*{stroke-linejoin: round; stroke-linecap: butt}</style>
 </defs>
 <g id="figure_1">
  <g id="patch_1">
   <path d="M 0 618.257244 
L 628.079121 618.257244 
L 628.079121 0 
L 0 0 
z
" style="fill: #ffffff"/>
  </g>
  <g id="axes_1">
   <g id="patch_2">
    <path d="M 312.110157 62.360077 
L 314.606651 62.37256 
L 317.102896 62.410006 
L 319.598641 62.472413 
L 322.093638 62.559774 
L 324.587636 62.672079 
L 327.080386 62.809319 
L 329.57164 62.971479 
L 332.061147 63.158543 
L 334.548659 63.370492 
L 337.033928 63.607305 
L 339.516704 63.868959 
L 341.996739 64.155427 
L 344.473786 64.466681 
L 346.947596 64.802689 
L 349.417923 65.163418 
L 351.884519 65.548832 
L 354.347138 65.958892 
L 356.805532 66.393557 
L 359.259458 66.852785 
L 361.708668 67.336528 
L 364.152919 67.844738 
L 366.591966 68.377366 
L 369.025564 68.934356 
L 371.453471 69.515655 
L 373.875443 70.121203 
L 376.291239 70.75094 
L 378.700617 71.404803 
L 381.103337 72.082727 
L 383.499156 72.784644 
L 385.887837 73.510483 
L 388.26914 74.260173 
L 390.642828 75.033637 
L 393.008662 75.8308 
L 395.366406 76.651581 
L 397.715825 77.495897 
L 400.056684 78.363665 
L 402.388748 79.254798 
L 404.711784 80.169207 
L 407.025559 81.1068 
L 409.329844 82.067484 
L 411.624406 83.051161 
L 413.909018 84.057735 
L 416.183449 85.087105 
L 418.447473 86.139167 
L 420.700864 87.213816 
L 422.943395 88.310945 
L 425.174844 89.430443 
L 427.394986 90.572201 
L 429.603599 91.736102 
L 431.800464 92.92203 
L 433.985359 94.129868 
L 436.158067 95.359494 
L 438.31837 96.610785 
L 440.466053 97.883616 
L 442.6009 99.17786 
L 444.722698 100.493387 
L 446.831235 101.830066 
L 448.9263 103.187764 
L 451.007683 104.566344 
L 453.075177 105.965668 
L 455.128575 107.385597 
L 457.16767 108.825989 
L 459.192261 110.286699 
L 461.202143 111.767582 
L 463.197116 113.268489 
L 465.17698 114.789271 
L 467.141538 116.329775 
L 469.090593 117.889847 
L 471.023949 119.469331 
L 472.941415 121.06807 
L 474.842798 122.685903 
L 476.727907 124.322668 
L 478.596555 125.978203 
L 480.448555 127.652341 
L 482.28372 129.344914 
L 484.101869 131.055755 
L 485.902818 132.784691 
L 487.686388 134.53155 
L 489.452401 136.296157 
L 491.20068 138.078336 
L 492.93105 139.877908 
L 494.643338 141.694694 
L 496.337373 143.528511 
L 498.012985 145.379177 
L 499.670007 147.246506 
L 501.308273 149.130311 
L 502.92762 151.030405 
L 504.527885 152.946597 
L 506.108908 154.878695 
L 507.670532 156.826507 
L 509.2126 158.789838 
L 510.734957 160.76849 
L 512.237453 162.762267 
L 513.719936 164.77097 
L 515.182258 166.794396 
L 516.369083 168.468532 
L 522.68637 164.028992 
L 521.462838 162.303078 
L 519.95529 160.217072 
L 518.426957 158.146245 
L 516.877992 156.090804 
L 515.308551 154.050956 
L 513.718791 152.026904 
L 512.10887 150.018851 
L 510.478949 148.026997 
L 508.829191 146.051541 
L 507.159761 144.092682 
L 505.470827 142.150614 
L 503.762557 140.225533 
L 502.035122 138.31763 
L 500.288694 136.427097 
L 498.523449 134.554122 
L 496.739562 132.698893 
L 494.937213 130.861595 
L 493.116581 129.042413 
L 491.277849 127.241527 
L 489.4212 125.459119 
L 487.54682 123.695365 
L 485.654897 121.950444 
L 483.745619 120.224528 
L 481.819178 118.517792 
L 479.875766 116.830405 
L 477.915578 115.162536 
L 475.938809 113.514351 
L 473.945658 111.886017 
L 471.936323 110.277695 
L 469.911005 108.689547 
L 467.869908 107.121731 
L 465.813235 105.574404 
L 463.741192 104.047721 
L 461.653985 102.541834 
L 459.551825 101.056894 
L 457.43492 99.59305 
L 455.303483 98.150447 
L 453.157727 96.729231 
L 450.997866 95.329543 
L 448.824117 93.951523 
L 446.636696 92.595309 
L 444.435823 91.261037 
L 442.221717 89.94884 
L 439.9946 88.658849 
L 437.754695 87.391194 
L 435.502226 86.146 
L 433.237417 84.923393 
L 430.960496 83.723495 
L 428.67169 82.546426 
L 426.371228 81.392304 
L 424.059339 80.261243 
L 421.736256 79.153357 
L 419.402211 78.068757 
L 417.057436 77.007552 
L 414.702167 75.969847 
L 412.336638 74.955746 
L 409.961087 73.965351 
L 407.575751 72.99876 
L 405.180869 72.056071 
L 402.776679 71.137377 
L 400.363423 70.24277 
L 397.941342 69.372341 
L 395.510678 68.526175 
L 393.071673 67.704358 
L 390.624573 66.906972 
L 388.169621 66.134096 
L 385.707063 65.385808 
L 383.237146 64.662182 
L 380.760116 63.963292 
L 378.276221 63.289206 
L 375.78571 62.639993 
L 373.288831 62.015716 
L 370.785834 61.41644 
L 368.27697 60.842222 
L 365.762489 60.293122 
L 363.242643 59.769194 
L 360.717684 59.270489 
L 358.187864 58.797059 
L 355.653436 58.348951 
L 353.114654 57.926208 
L 350.571771 57.528874 
L 348.025043 57.156989 
L 345.474723 56.810589 
L 342.921066 56.489708 
L 340.364329 56.194381 
L 337.804766 55.924634 
L 335.242634 55.680497 
L 332.678188 55.461993 
L 330.111686 55.269143 
L 327.543383 55.101968 
L 324.973537 54.960484 
L 322.402405 54.844705 
L 319.830244 54.754642 
L 317.25731 54.690306 
L 314.683862 54.651701 
L 312.110157 54.638832 
z
" clip-path="url(#p77be6099f6)" style="fill: #000080"/>
   </g>
   <g id="patch_3">
    <path d="M 528.102599 186.817103 
L 529.343745 188.983251 
L 530.563167 191.161702 
L 531.760744 193.352239 
L 532.936356 195.554641 
L 534.089885 197.768689 
L 535.221217 199.994161 
L 536.330238 202.230836 
L 537.416837 204.478488 
L 538.480906 206.736894 
L 539.522338 209.005828 
L 540.541028 211.285062 
L 541.536876 213.574369 
L 542.509781 215.87352 
L 543.459647 218.182285 
L 544.386378 220.500433 
L 545.289881 222.827732 
L 546.170067 225.16395 
L 547.026847 227.508852 
L 547.860135 229.862205 
L 548.669848 232.223773 
L 549.455906 234.59332 
L 550.21823 236.970609 
L 550.956742 239.355402 
L 551.671371 241.747461 
L 552.362043 244.146546 
L 553.02869 246.552419 
L 553.671246 248.964837 
L 554.289646 251.38356 
L 554.883828 253.808346 
L 555.453733 256.238952 
L 555.999304 258.675136 
L 556.520486 261.116654 
L 557.017227 263.563261 
L 557.489478 266.014714 
L 557.937191 268.470766 
L 558.360321 270.931173 
L 558.758827 273.395687 
L 559.132668 275.864064 
L 559.481807 278.336055 
L 559.806209 280.811414 
L 560.105842 283.289894 
L 560.380675 285.771245 
L 560.630681 288.255221 
L 560.855836 290.741573 
L 561.056116 293.230052 
L 561.231502 295.720409 
L 561.381976 298.212396 
L 561.507523 300.705763 
L 561.60813 303.20026 
L 561.683788 305.695639 
L 561.734489 308.191649 
L 561.760227 310.688042 
L 561.761001 313.184568 
L 561.73681 315.680976 
L 561.687656 318.177017 
L 561.613545 320.672443 
L 561.514483 323.167002 
L 561.390482 325.660446 
L 561.241552 328.152525 
L 561.06771 330.642991 
L 560.868972 333.131594 
L 560.645358 335.618084 
L 560.396892 338.102215 
L 560.123596 340.583736 
L 559.8255 343.062401 
L 559.502632 345.537961 
L 559.155025 348.010168 
L 558.782714 350.478776 
L 558.385736 352.943537 
L 557.96413 355.404205 
L 557.517939 357.860534 
L 557.047208 360.312279 
L 556.551983 362.759194 
L 556.032314 365.201034 
L 555.488254 367.637556 
L 554.919855 370.068515 
L 554.327176 372.493669 
L 553.710275 374.912774 
L 553.069215 377.32559 
L 552.404059 379.731875 
L 551.714873 382.131388 
L 551.001728 384.52389 
L 550.264693 386.90914 
L 549.503843 389.286901 
L 548.719254 391.656935 
L 547.911004 394.019004 
L 547.079175 396.372873 
L 546.223848 398.718306 
L 545.345111 401.055069 
L 544.44305 403.382928 
L 543.517756 405.701649 
L 542.569322 408.011002 
L 541.597841 410.310756 
L 540.603413 412.60068 
L 539.586135 414.880545 
L 538.546109 417.150123 
L 537.483441 419.409188 
L 536.398235 421.657514 
L 535.2906 423.894875 
L 534.160648 426.121048 
L 533.008491 428.335811 
L 531.834244 430.538941 
L 530.638025 432.730219 
L 529.419953 434.909426 
L 528.18015 437.076343 
L 526.918741 439.230754 
L 525.635851 441.372443 
L 524.331609 443.501196 
L 523.006144 445.616801 
L 521.65959 447.719046 
L 520.292082 449.80772 
L 518.903755 451.882615 
L 517.49475 453.943523 
L 516.065206 455.990238 
L 514.615266 458.022556 
L 513.145076 460.040273 
L 511.654783 462.043188 
L 510.144536 464.031099 
L 508.614485 466.003809 
L 507.064785 467.96112 
L 505.495588 469.902837 
L 503.907054 471.828764 
L 502.29934 473.738711 
L 501.975976 474.118218 
L 507.848115 479.131761 
L 508.181479 478.740516 
L 509.838917 476.771499 
L 511.476581 474.786007 
L 513.094309 472.784237 
L 514.691939 470.766391 
L 516.269311 468.732669 
L 517.826267 466.683276 
L 519.362651 464.618416 
L 520.878311 462.538295 
L 522.373094 460.443122 
L 523.84685 458.333106 
L 525.299434 456.208459 
L 526.730698 454.069392 
L 528.140501 451.916119 
L 529.528701 449.748857 
L 530.895159 447.567821 
L 532.239738 445.37323 
L 533.562305 443.165303 
L 534.862727 440.944261 
L 536.140874 438.710326 
L 537.396618 436.463721 
L 538.629834 434.204671 
L 539.840398 431.933403 
L 541.028189 429.650143 
L 542.193088 427.355119 
L 543.334979 425.048561 
L 544.453748 422.730699 
L 545.549283 420.401766 
L 546.621474 418.061995 
L 547.670214 415.711618 
L 548.695399 413.350872 
L 549.696925 410.979992 
L 550.674692 408.599216 
L 551.628603 406.208781 
L 552.558563 403.808927 
L 553.464478 401.399893 
L 554.346258 398.981921 
L 555.203814 396.555252 
L 556.037061 394.120129 
L 556.845916 391.676795 
L 557.630297 389.225495 
L 558.390127 386.766474 
L 559.125328 384.299978 
L 559.835829 381.826253 
L 560.521557 379.345547 
L 561.182444 376.858108 
L 561.818424 374.364184 
L 562.429433 371.864026 
L 563.015411 369.357882 
L 563.576299 366.846004 
L 564.11204 364.328643 
L 564.622581 361.80605 
L 565.107871 359.278479 
L 565.567861 356.74618 
L 566.002506 354.209409 
L 566.411762 351.668418 
L 566.795588 349.123462 
L 567.153945 346.574794 
L 567.486799 344.022671 
L 567.794115 341.467347 
L 568.075863 338.909077 
L 568.332014 336.348118 
L 568.562544 333.784725 
L 568.767428 331.219156 
L 568.946647 328.651665 
L 569.100182 326.082511 
L 569.228019 323.511951 
L 569.330144 320.94024 
L 569.406548 318.367637 
L 569.457222 315.794398 
L 569.482161 313.220781 
L 569.481363 310.647044 
L 569.454829 308.073443 
L 569.40256 305.500236 
L 569.324562 302.92768 
L 569.220844 300.356033 
L 569.091414 297.785552 
L 568.936286 295.216494 
L 568.755476 292.649115 
L 568.549001 290.083673 
L 568.316883 287.520424 
L 568.059145 284.959624 
L 567.775811 282.40153 
L 567.466912 279.846396 
L 567.132477 277.29448 
L 566.77254 274.746035 
L 566.387136 272.201317 
L 565.976306 269.66058 
L 565.540089 267.124078 
L 565.078529 264.592066 
L 564.591673 262.064795 
L 564.079568 259.54252 
L 563.542267 257.025491 
L 562.979823 254.513961 
L 562.392292 252.008181 
L 561.779733 249.508402 
L 561.142208 247.014873 
L 560.479779 244.527844 
L 559.792514 242.047563 
L 559.08048 239.574279 
L 558.34375 237.108239 
L 557.582397 234.64969 
L 556.796496 232.198876 
L 555.986128 229.756044 
L 555.151371 227.321438 
L 554.292311 224.895301 
L 553.409033 222.477876 
L 552.501625 220.069404 
L 551.570178 217.670127 
L 550.614786 215.280283 
L 549.635543 212.900113 
L 548.632548 210.529855 
L 547.605901 208.169744 
L 546.555704 205.820018 
L 545.482063 203.480912 
L 544.385085 201.152658 
L 543.26488 198.835491 
L 542.121559 196.529641 
L 540.955238 194.235339 
L 539.766032 191.952815 
L 538.554061 189.682298 
L 537.319445 187.424013 
L 536.062309 185.178187 
L 534.782778 182.945044 
z
" clip-path="url(#p77be6099f6)" style="fill: #0000e8"/>
   </g>
   <g id="patch_4">
    <path d="M 487.125137 490.049258 
L 485.33606 491.790477 
L 483.529661 493.513718 
L 481.70612 495.21881 
L 479.865619 496.905581 
L 478.008343 498.573863 
L 476.134477 500.22349 
L 474.244209 501.854295 
L 472.337728 503.466117 
L 470.415224 505.058793 
L 468.47689 506.632165 
L 466.522919 508.186076 
L 464.553507 509.720369 
L 462.568851 511.234892 
L 461.192943 512.266602 
L 465.803751 518.459992 
L 467.222213 517.396373 
L 469.26825 515.835009 
L 471.298572 514.253263 
L 473.312974 512.651294 
L 475.311257 511.029261 
L 477.29322 509.387326 
L 479.258665 507.725655 
L 481.207394 506.044412 
L 483.139215 504.343766 
L 485.053932 502.623888 
L 486.951356 500.884948 
L 488.831295 499.127122 
L 490.693562 497.350585 
L 492.537972 495.555513 
z
" clip-path="url(#p77be6099f6)" style="fill: #0038ff"/>
   </g>
   <g id="patch_5">
    <path d="M 443.172445 524.498 
L 441.041084 525.797977 
L 438.89683 527.076576 
L 436.739897 528.333668 
L 434.570502 529.569129 
L 432.38886 530.782834 
L 430.195191 531.974663 
L 427.989714 533.144496 
L 425.772649 534.292215 
L 423.544217 535.417707 
L 421.304642 536.520859 
L 419.054148 537.601561 
L 416.79296 538.659704 
L 414.521303 539.695182 
L 412.239405 540.707892 
L 409.947495 541.697734 
L 407.6458 542.664607 
L 405.334553 543.608415 
L 403.013983 544.529063 
L 400.684322 545.426461 
L 398.345805 546.300517 
L 395.998663 547.151145 
L 393.643133 547.978259 
L 391.27945 548.781777 
L 388.90785 549.561619 
L 386.52857 550.317706 
L 384.141849 551.049962 
L 381.747924 551.758315 
L 379.347036 552.442694 
L 376.939424 553.103031 
L 374.525329 553.739258 
L 372.104992 554.351313 
L 369.678657 554.939135 
L 367.246564 555.502664 
L 364.808958 556.041845 
L 362.366082 556.556623 
L 359.91818 557.046946 
L 357.465498 557.512767 
L 355.00828 557.954038 
L 352.546773 558.370715 
L 350.081221 558.762757 
L 347.611873 559.130124 
L 347.447358 559.153703 
L 348.540261 566.797209 
L 348.709864 566.772901 
L 351.255584 566.394172 
L 353.79739 565.990005 
L 356.335026 565.560441 
L 358.86824 565.105523 
L 361.396779 564.625295 
L 363.920389 564.119807 
L 366.438818 563.589108 
L 368.951814 563.033252 
L 371.459126 562.452294 
L 373.960503 561.846292 
L 376.455695 561.215307 
L 378.944453 560.559403 
L 381.426527 559.878644 
L 383.901669 559.173098 
L 386.369633 558.442837 
L 388.830171 557.687934 
L 391.283036 556.908463 
L 393.727985 556.104502 
L 396.164772 555.276133 
L 398.593153 554.423438 
L 401.012886 553.546502 
L 403.423729 552.645413 
L 405.825441 551.720261 
L 408.217781 550.771139 
L 410.600511 549.798141 
L 412.973392 548.801364 
L 415.336186 547.78091 
L 417.688658 546.736878 
L 420.030572 545.669375 
L 422.361694 544.578506 
L 424.681791 543.464381 
L 426.990631 542.327111 
L 429.287983 541.16681 
L 431.573618 539.983593 
L 433.847306 538.77758 
L 436.10882 537.548891 
L 438.357935 536.297648 
L 440.594425 535.023977 
L 442.818067 533.728006 
L 445.028638 532.409863 
L 447.225917 531.06968 
z
" clip-path="url(#p77be6099f6)" style="fill: #0094ff"/>
   </g>
   <g id="patch_6">
    <path d="M 325.773216 561.2931 
L 323.27978 561.417265 
L 320.785227 561.516489 
L 318.289807 561.590763 
L 315.793769 561.64008 
L 313.297362 561.664434 
L 310.800836 561.663824 
L 308.304442 561.638248 
L 305.808428 561.587711 
L 303.313044 561.512216 
L 300.81854 561.411771 
L 298.325165 561.286387 
L 295.833169 561.136076 
L 293.3428 560.960853 
L 290.854308 560.760735 
L 288.367942 560.535743 
L 285.883949 560.285899 
L 283.40258 560.011228 
L 280.924081 559.711757 
L 278.448701 559.387517 
L 275.976686 559.038539 
L 273.508286 558.664859 
L 271.043745 558.266515 
L 268.583311 557.843545 
L 266.127229 557.395992 
L 263.675746 556.923901 
L 261.229106 556.42732 
L 258.787554 555.906297 
L 256.351335 555.360886 
L 253.920691 554.79114 
L 251.495866 554.197116 
L 249.077103 553.578874 
L 246.664643 552.936476 
L 244.258727 552.269986 
L 241.859596 551.57947 
L 239.467491 550.864998 
L 237.082649 550.126641 
L 234.705311 549.364473 
L 232.335712 548.57857 
L 229.974092 547.76901 
L 227.620684 546.935876 
L 225.275726 546.079249 
L 222.939451 545.199216 
L 220.612092 544.295865 
L 218.293884 543.369285 
L 215.985057 542.41957 
L 213.685843 541.446815 
L 211.396471 540.451117 
L 209.11717 539.432575 
L 206.848168 538.391292 
L 204.589693 537.32737 
L 202.341969 536.240918 
L 200.105223 535.132043 
L 197.879676 534.000857 
L 195.665553 532.847472 
L 193.463074 531.672003 
L 191.272459 530.47457 
L 189.093929 529.25529 
L 186.927699 528.014286 
L 184.773988 526.751682 
L 182.633011 525.467605 
L 180.504981 524.162183 
L 178.390111 522.835545 
L 176.288613 521.487826 
L 174.200698 520.11916 
L 172.126573 518.729683 
L 170.066446 517.319535 
L 168.020524 515.888856 
L 165.98901 514.43779 
L 163.972109 512.966482 
L 161.970021 511.475079 
L 159.982947 509.963729 
L 158.011086 508.432585 
L 156.054634 506.881799 
L 154.113788 505.311527 
L 152.188741 503.721925 
L 150.279687 502.113152 
L 148.386815 500.485369 
L 146.510316 498.838739 
L 144.650376 497.173427 
L 142.807182 495.4896 
L 140.980919 493.787424 
L 139.171768 492.067072 
L 137.37991 490.328714 
L 135.605526 488.572525 
L 133.848792 486.798681 
L 132.109884 485.007357 
L 130.388976 483.198735 
L 128.68624 481.372994 
L 127.001846 479.530318 
L 125.335963 477.67089 
L 123.688757 475.794896 
L 122.060393 473.902525 
L 120.451033 471.993964 
L 118.86084 470.069406 
L 118.685689 469.855013 
L 112.703489 474.736704 
L 112.884057 474.957728 
L 114.523432 476.941809 
L 116.182565 478.909397 
L 117.861291 480.860295 
L 119.559441 482.794309 
L 121.276847 484.711245 
L 123.013335 486.610912 
L 124.768733 488.493119 
L 126.542865 490.357678 
L 128.335554 492.204403 
L 130.14662 494.033109 
L 131.975882 495.843613 
L 133.823158 497.635734 
L 135.688262 499.409293 
L 137.571008 501.164113 
L 139.471208 502.900018 
L 141.388671 504.616834 
L 143.323207 506.314391 
L 145.274621 507.992517 
L 147.242718 509.651046 
L 149.227302 511.289811 
L 151.228175 512.908649 
L 153.245135 514.507397 
L 155.277982 516.085896 
L 157.326512 517.643988 
L 159.39052 519.181517 
L 161.4698 520.69833 
L 163.564143 522.194274 
L 165.673342 523.669201 
L 167.797184 525.122962 
L 169.935457 526.555412 
L 172.087947 527.966409 
L 174.254439 529.35581 
L 176.434717 530.723477 
L 178.628563 532.069273 
L 180.835756 533.393064 
L 183.056077 534.694718 
L 185.289303 535.974103 
L 187.535211 537.231092 
L 189.793576 538.46556 
L 192.064173 539.677383 
L 194.346775 540.86644 
L 196.641152 542.032612 
L 198.947077 543.175782 
L 201.264318 544.295835 
L 203.592643 545.392661 
L 205.93182 546.46615 
L 208.281614 547.516193 
L 210.641792 548.542686 
L 213.012116 549.545526 
L 215.39235 550.524614 
L 217.782255 551.47985 
L 220.181594 552.41114 
L 222.590125 553.318391 
L 225.007608 554.201511 
L 227.433801 555.060413 
L 229.868462 555.89501 
L 232.311346 556.705219 
L 234.762211 557.490959 
L 237.22081 558.252152 
L 239.686899 558.988721 
L 242.160229 559.700593 
L 244.640555 560.387697 
L 247.127627 561.049963 
L 249.621198 561.687326 
L 252.121017 562.299721 
L 254.626835 562.887088 
L 257.138402 563.449368 
L 259.655465 563.986505 
L 262.177774 564.498445 
L 264.705077 564.985136 
L 267.23712 565.446531 
L 269.77365 565.882582 
L 272.314413 566.293247 
L 274.859156 566.678484 
L 277.407625 567.038254 
L 279.959563 567.372523 
L 282.514717 567.681255 
L 285.07283 567.964422 
L 287.633646 568.221993 
L 290.196911 568.453944 
L 292.762366 568.660251 
L 295.329757 568.840893 
L 297.898825 568.995853 
L 300.469315 569.125115 
L 303.040969 569.228666 
L 305.613529 569.306496 
L 308.186739 569.358596 
L 310.760342 569.384963 
L 313.33408 569.385592 
L 315.907695 569.360485 
L 318.48093 569.309643 
L 321.053528 569.233071 
L 323.625232 569.130778 
L 326.195785 569.002774 
z
" clip-path="url(#p77be6099f6)" style="fill: #0cf4eb"/>
   </g>
   <g id="patch_7">
    <path d="M 105.664948 452.396326 
L 104.271467 450.324889 
L 102.89877 448.239621 
L 101.546993 446.140731 
L 100.216273 444.028428 
L 98.906742 441.902924 
L 97.618531 439.764431 
L 96.351769 437.613163 
L 95.106583 435.449335 
L 93.883097 433.273164 
L 92.681434 431.084867 
L 91.501713 428.884662 
L 90.344053 426.672771 
L 89.208569 424.449414 
L 88.095375 422.214814 
L 87.004583 419.969193 
L 85.936301 417.712777 
L 84.890636 415.445792 
L 83.867693 413.168463 
L 82.867574 410.881018 
L 81.890379 408.583687 
L 80.936206 406.2767 
L 80.00515 403.960285 
L 79.097304 401.634677 
L 78.212759 399.300106 
L 77.351604 396.956807 
L 76.513925 394.605013 
L 75.699805 392.244961 
L 74.909326 389.876885 
L 74.142566 387.501023 
L 73.399604 385.117613 
L 72.680512 382.726892 
L 71.985363 380.329099 
L 71.314226 377.924476 
L 70.667169 375.513261 
L 70.044255 373.095696 
L 69.445548 370.672024 
L 68.871108 368.242485 
L 68.320991 365.807324 
L 67.795252 363.366783 
L 67.293946 360.921107 
L 66.81712 358.470541 
L 66.364824 356.015328 
L 65.937101 353.555716 
L 65.533996 351.091949 
L 65.155549 348.624275 
L 64.801796 346.152939 
L 64.472775 343.67819 
L 64.168517 341.200274 
L 63.889052 338.71944 
L 63.63441 336.235935 
L 63.404615 333.750008 
L 63.19969 331.261907 
L 63.019657 328.771881 
L 62.864532 326.28018 
L 62.734331 323.787052 
L 62.629068 321.292747 
L 62.548753 318.797513 
L 62.493393 316.301602 
L 62.462995 313.805261 
L 62.457562 311.308742 
L 62.477094 308.812293 
L 62.521588 306.316164 
L 62.591042 303.820604 
L 62.685447 301.325865 
L 62.804794 298.832193 
L 62.949072 296.33984 
L 63.118266 293.849055 
L 63.312358 291.360086 
L 63.53133 288.873182 
L 63.77516 286.388592 
L 64.043823 283.906565 
L 64.337293 281.427348 
L 64.65554 278.95119 
L 64.998532 276.478338 
L 65.366234 274.00904 
L 65.758611 271.543542 
L 66.175623 269.082091 
L 66.617229 266.624933 
L 66.94611 264.880819 
L 59.363717 263.423102 
L 59.024664 265.221158 
L 58.569401 267.75431 
L 58.139491 270.291888 
L 57.734979 272.833639 
L 57.355904 275.379307 
L 57.002304 277.928639 
L 56.674215 280.481379 
L 56.371669 283.037273 
L 56.094696 285.596064 
L 55.843326 288.157497 
L 55.617581 290.721315 
L 55.417486 293.287263 
L 55.243059 295.855083 
L 55.094319 298.424519 
L 54.971281 300.995314 
L 54.873956 303.567211 
L 54.802354 306.139952 
L 54.756484 308.713281 
L 54.736348 311.28694 
L 54.741949 313.860671 
L 54.773287 316.434218 
L 54.830359 319.007323 
L 54.913158 321.579728 
L 55.021677 324.151177 
L 55.155904 326.721412 
L 55.315827 329.290177 
L 55.501429 331.857213 
L 55.712691 334.422266 
L 55.949593 336.985077 
L 56.212111 339.545392 
L 56.500218 342.102953 
L 56.813887 344.657505 
L 57.153084 347.208793 
L 57.517777 349.756562 
L 57.90793 352.300556 
L 58.323502 354.840521 
L 58.764452 357.376204 
L 59.230737 359.907351 
L 59.72231 362.433708 
L 60.239121 364.955024 
L 60.78112 367.471045 
L 61.34825 369.981521 
L 61.940457 372.4862 
L 62.557681 374.984831 
L 63.19986 377.477166 
L 63.866929 379.962954 
L 64.558823 382.441948 
L 65.275471 384.913899 
L 66.016803 387.378559 
L 66.782744 389.835684 
L 67.573217 392.285026 
L 68.388144 394.726341 
L 69.227443 397.159385 
L 70.09103 399.583914 
L 70.978819 401.999687 
L 71.890721 404.406461 
L 72.826644 406.803995 
L 73.786496 409.192051 
L 74.770179 411.570389 
L 75.777597 413.938771 
L 76.808648 416.296961 
L 77.863228 418.644723 
L 78.941233 420.981822 
L 80.042555 423.308024 
L 81.167083 425.623097 
L 82.314706 427.926808 
L 83.485307 430.218929 
L 84.678771 432.499229 
L 85.894978 434.767481 
L 87.133807 437.023457 
L 88.395133 439.266933 
L 89.67883 441.497683 
L 90.98477 443.715485 
L 92.312822 445.920117 
L 93.662854 448.111359 
L 95.034731 450.288991 
L 96.428314 452.452795 
L 97.843466 454.602556 
L 99.280045 456.738057 
z
" clip-path="url(#p77be6099f6)" style="fill: #56ffa0"/>
   </g>
   <g id="patch_8">
    <path d="M 71.986932 243.692719 
L 72.682136 241.294943 
L 73.401283 238.904239 
L 74.1443 236.520845 
L 74.911114 234.145001 
L 75.701648 231.776944 
L 76.515822 229.41691 
L 77.353555 227.065135 
L 78.214764 224.721856 
L 79.099363 222.387305 
L 80.007262 220.061718 
L 80.25327 219.44316 
L 73.082438 216.580155 
L 72.828822 217.217843 
L 71.892843 219.615356 
L 70.980886 222.022109 
L 70.093042 224.437861 
L 69.229399 226.862371 
L 68.390044 229.295395 
L 67.575061 231.736692 
L 66.784532 234.186016 
L 66.018534 236.643122 
L 65.277146 239.107766 
L 64.560441 241.5797 
z
" clip-path="url(#p77be6099f6)" style="fill: #a0ff56"/>
   </g>
   <g id="patch_9">
    <path d="M 89.203606 199.587759 
L 90.338992 197.364352 
L 91.496554 195.15241 
L 92.676178 192.952154 
L 93.877745 190.763804 
L 95.101135 188.587578 
L 96.346226 186.423696 
L 97.612893 184.272372 
L 98.901009 182.133822 
L 100.210446 180.00826 
L 101.541073 177.895898 
L 102.892757 175.796948 
L 104.234595 173.757869 
L 97.805454 169.481917 
L 96.422116 171.58406 
L 95.028627 173.747926 
L 93.656847 175.925618 
L 92.306912 178.116919 
L 90.978957 180.32161 
L 89.673114 182.53947 
L 88.389516 184.770277 
L 87.128289 187.013808 
L 85.88956 189.269839 
L 84.673453 191.538144 
L 83.48009 193.818497 
L 82.309589 196.110669 
z
" clip-path="url(#p77be6099f6)" style="fill: #ebff0c"/>
   </g>
   <g id="patch_10">
    <path d="M 117.075411 156.166425 
L 118.643609 154.223903 
L 120.231153 152.297159 
L 121.837886 150.386387 
L 123.463645 148.491777 
L 125.108269 146.613519 
L 126.771593 144.751801 
L 128.190591 143.192732 
L 122.502357 137.971466 
L 121.039473 139.578754 
L 119.324706 141.498051 
L 117.629217 143.434399 
L 115.953176 145.387605 
L 114.296751 147.357473 
L 112.660107 149.343807 
L 111.043408 151.346408 
z
" clip-path="url(#p77be6099f6)" style="fill: #ffab00"/>
   </g>
   <g id="patch_11">
    <path d="M 143.604174 127.8055 
L 145.454651 126.129679 
L 147.321792 124.472446 
L 149.205412 122.833966 
L 150.005606 122.147848 
L 144.992063 116.275709 
L 144.167121 116.983048 
L 142.225245 118.672202 
L 140.300357 120.380689 
L 138.392649 122.10834 
z
" clip-path="url(#p77be6099f6)" style="fill: #ff5500"/>
   </g>
   <g id="patch_12">
    <path d="M 167.170359 108.742002 
L 169.210289 107.302791 
L 171.264508 105.884052 
L 173.332812 104.485925 
L 175.414994 103.108551 
L 177.510845 101.752068 
L 179.620156 100.41661 
L 181.742716 99.102312 
L 183.878312 97.809305 
L 186.026731 96.537718 
L 188.187759 95.287678 
L 190.361179 94.059311 
L 192.546774 92.852739 
L 194.744325 91.668083 
L 196.953612 90.505462 
L 199.174415 89.364991 
L 201.406511 88.246785 
L 203.649678 87.150955 
L 205.90369 86.077611 
L 208.168324 85.026861 
L 210.443351 83.998809 
L 211.660761 83.45988 
L 208.554078 76.391206 
L 207.299017 76.946803 
L 204.953628 78.00665 
L 202.618954 79.089898 
L 200.29523 80.196438 
L 197.982687 81.326159 
L 195.681557 82.478949 
L 193.392069 83.654692 
L 191.114453 84.853271 
L 188.848937 86.074566 
L 186.595747 87.318455 
L 184.355108 88.584813 
L 182.127244 89.873513 
L 179.912379 91.184428 
L 177.710733 92.517425 
L 175.522527 93.872371 
L 173.34798 95.249132 
L 171.187309 96.647568 
L 169.04073 98.067542 
L 166.908457 99.508909 
L 164.790705 100.971527 
L 162.687685 102.455249 
z
" clip-path="url(#p77be6099f6)" style="fill: #e80000"/>
   </g>
   <g id="patch_13">
    <path d="M 231.962776 75.574854 
L 234.331132 74.785216 
L 236.707266 74.0193 
L 239.09094 73.277183 
L 241.481916 72.55894 
L 243.879955 71.864642 
L 246.284817 71.194358 
L 248.696261 70.548157 
L 251.114046 69.926102 
L 253.537931 69.328255 
L 255.967674 68.754677 
L 258.40303 68.205424 
L 260.843757 67.680552 
L 263.289611 67.180113 
L 265.740347 66.704157 
L 268.195719 66.252732 
L 270.655483 65.825883 
L 273.119393 65.423653 
L 275.587202 65.046081 
L 278.058662 64.693206 
L 280.533528 64.365062 
L 283.011552 64.061684 
L 285.492485 63.7831 
L 287.976081 63.529339 
L 290.351413 63.310085 
L 289.678462 55.618221 
L 287.229666 55.844257 
L 284.669258 56.105866 
L 282.111595 56.393066 
L 279.556932 56.705827 
L 277.005523 57.044119 
L 274.457626 57.407908 
L 271.913493 57.797157 
L 269.37338 58.211828 
L 266.837541 58.651879 
L 264.306229 59.117265 
L 261.779697 59.607941 
L 259.258198 60.123858 
L 256.741985 60.664963 
L 254.231308 61.231203 
L 251.726419 61.822521 
L 249.227569 62.438857 
L 246.735006 63.080151 
L 244.248981 63.746339 
L 241.769742 64.437352 
L 239.297537 65.153123 
L 236.832614 65.89358 
L 234.375218 66.658649 
L 231.925595 67.448253 
L 229.483991 68.262314 
z
" clip-path="url(#p77be6099f6)" style="fill: #800000"/>
   </g>
   <g id="PatchCollection_1">
    <path d="M 105.664948 452.396326 
L 105.664948 452.396326 
L 104.271467 450.324889 
L 102.89877 448.239621 
L 101.546993 446.140731 
L 100.216273 444.028428 
L 98.906742 441.902924 
L 97.618531 439.764431 
L 96.351769 437.613163 
L 95.106583 435.449335 
L 93.883097 433.273164 
L 92.681434 431.084867 
L 91.501713 428.884662 
L 90.36957 426.722112 
L 90.36957 426.722112 
Q 312.110157 312.013667 528.102599 186.817103 
L 528.102599 186.817103 
L 528.102599 186.817103 
L 529.343745 188.983251 
L 530.563167 191.161702 
L 531.760744 193.352239 
L 532.936356 195.554641 
L 534.089885 197.768689 
L 535.221217 199.994161 
L 536.330238 202.230836 
L 537.416837 204.478488 
L 538.480906 206.736894 
L 539.522338 209.005828 
L 540.541028 211.285062 
L 541.514967 213.523324 
L 541.514967 213.523324 
Q 312.110157 312.013667 105.664948 452.396326 
z
" clip-path="url(#p77be6099f6)" style="fill: #56ffa0; fill-opacity: 0.5; stroke: #808080; stroke-opacity: 0.5; stroke-width: 0.1"/>
    <path d="M 90.36957 426.722112 
L 90.36957 426.722112 
L 89.233592 424.499008 
L 88.119901 422.264655 
L 87.028609 420.019277 
L 85.959825 417.763099 
L 84.913655 415.496346 
L 83.890206 413.219245 
L 82.889578 410.932023 
L 81.911872 408.634909 
L 80.957185 406.328134 
L 80.025614 404.011927 
L 79.11725 401.68652 
L 78.232186 399.352147 
L 77.37051 397.009039 
L 76.532307 394.657432 
L 75.717662 392.297561 
L 75.398447 391.351436 
L 75.398447 391.351436 
Q 312.110157 312.013667 167.170359 108.742002 
L 167.170359 108.742002 
L 167.170359 108.742002 
L 169.210289 107.302791 
L 171.264508 105.884052 
L 173.332812 104.485925 
L 175.414994 103.108551 
L 177.510845 101.752068 
L 179.620156 100.41661 
L 181.742716 99.102312 
L 183.878312 97.809305 
L 186.026731 96.537718 
L 188.187759 95.287678 
L 190.361179 94.059311 
L 192.546774 92.852739 
L 194.744325 91.668083 
L 196.953612 90.505462 
L 199.174415 89.364991 
L 200.06583 88.915071 
L 200.06583 88.915071 
Q 312.110157 312.013667 90.36957 426.722112 
z
" clip-path="url(#p77be6099f6)" style="fill: #56ffa0; fill-opacity: 0.5; stroke: #808080; stroke-opacity: 0.5; stroke-width: 0.1"/>
    <path d="M 75.398447 391.351436 
L 75.398447 391.351436 
L 74.616918 388.980392 
L 73.859138 386.60165 
L 73.125183 384.215451 
L 72.822468 383.205782 
L 72.822468 383.205782 
Q 312.110157 312.013667 143.604174 127.8055 
L 143.604174 127.8055 
L 143.604174 127.8055 
L 145.454651 126.129679 
L 147.321792 124.472446 
L 149.205412 122.833966 
L 150.005606 122.147848 
L 150.005606 122.147848 
Q 312.110157 312.013667 75.398447 391.351436 
z
" clip-path="url(#p77be6099f6)" style="fill: #56ffa0; fill-opacity: 0.5; stroke: #808080; stroke-opacity: 0.5; stroke-width: 0.1"/>
    <path d="M 72.822468 383.205782 
L 72.822468 383.205782 
L 72.122523 380.809385 
L 71.446577 378.406109 
L 70.794697 375.996194 
L 70.166948 373.57988 
L 69.563393 371.15741 
L 68.984093 368.729026 
L 68.429105 366.29497 
L 67.898485 363.855486 
L 67.392286 361.410818 
L 66.910558 358.96121 
L 66.45335 356.506907 
L 66.020708 354.048156 
L 65.612675 351.585201 
L 65.345934 349.88626 
L 65.345934 349.88626 
Q 312.110157 312.013667 312.110157 62.360077 
L 312.110157 62.360077 
L 312.110157 62.360077 
L 314.606651 62.37256 
L 317.102896 62.410006 
L 319.598641 62.472413 
L 322.093638 62.559774 
L 324.587636 62.672079 
L 327.080386 62.809319 
L 329.57164 62.971479 
L 332.061147 63.158543 
L 334.548659 63.370492 
L 337.033928 63.607305 
L 339.516704 63.868959 
L 341.996739 64.155427 
L 344.473786 64.466681 
L 346.178249 64.695492 
L 346.178249 64.695492 
Q 312.110157 312.013667 72.822468 383.205782 
z
" clip-path="url(#p77be6099f6)" style="fill: #56ffa0; fill-opacity: 0.5; stroke: #808080; stroke-opacity: 0.5; stroke-width: 0.1"/>
    <path d="M 65.345934 349.88626 
L 65.345934 349.88626 
L 64.979552 347.416766 
L 64.637884 344.943731 
L 64.320962 342.467403 
L 64.028819 339.988029 
L 63.761484 337.505858 
L 63.518984 335.021139 
L 63.333568 332.921169 
L 63.333568 332.921169 
Q 312.110157 312.013667 117.075411 156.166425 
L 117.075411 156.166425 
L 117.075411 156.166425 
L 118.643609 154.223903 
L 120.231153 152.297159 
L 121.837886 150.386387 
L 123.463645 148.491777 
L 125.108269 146.613519 
L 126.771593 144.751801 
L 128.190591 143.192732 
L 128.190591 143.192732 
Q 312.110157 312.013667 65.345934 349.88626 
z
" clip-path="url(#p77be6099f6)" style="fill: #56ffa0; fill-opacity: 0.5; stroke: #808080; stroke-opacity: 0.5; stroke-width: 0.1"/>
    <path d="M 63.333568 332.921169 
L 63.333568 332.921169 
L 63.136935 330.432399 
L 62.965199 327.941787 
L 62.818378 325.449583 
L 62.696485 322.956035 
L 62.599534 320.461392 
L 62.527534 317.965905 
L 62.480491 315.469823 
L 62.458412 312.973395 
L 62.461297 310.476872 
L 62.489147 307.980501 
L 62.541959 305.484535 
L 62.617726 303.044733 
L 62.617726 303.044733 
Q 312.110157 312.013667 89.203606 199.587759 
L 89.203606 199.587759 
L 89.203606 199.587759 
L 90.338992 197.364352 
L 91.496554 195.15241 
L 92.676178 192.952154 
L 93.877745 190.763804 
L 95.101135 188.587578 
L 96.346226 186.423696 
L 97.612893 184.272372 
L 98.901009 182.133822 
L 100.210446 180.00826 
L 101.541073 177.895898 
L 102.892757 175.796948 
L 104.234595 173.757869 
L 104.234595 173.757869 
Q 312.110157 312.013667 63.333568 332.921169 
z
" clip-path="url(#p77be6099f6)" style="fill: #56ffa0; fill-opacity: 0.5; stroke: #808080; stroke-opacity: 0.5; stroke-width: 0.1"/>
    <path d="M 325.773216 561.2931 
L 325.773216 561.2931 
L 323.27978 561.417265 
L 320.785227 561.516489 
L 318.289807 561.590763 
L 315.793769 561.64008 
L 313.297362 561.664434 
L 312.964523 561.665795 
L 312.964523 561.665795 
Q 312.110157 312.013667 541.514967 213.523324 
L 541.514967 213.523324 
L 541.514967 213.523324 
L 542.488384 215.822258 
L 543.438764 218.130811 
L 544.36601 220.448753 
L 545.270031 222.775851 
L 546.150737 225.111873 
L 546.266387 225.423976 
L 546.266387 225.423976 
Q 312.110157 312.013667 325.773216 561.2931 
z
" clip-path="url(#p77be6099f6)" style="fill: #0cf4eb; fill-opacity: 0.5; stroke: #808080; stroke-opacity: 0.5; stroke-width: 0.1"/>
    <path d="M 312.964523 561.665795 
L 312.964523 561.665795 
L 310.468001 561.661856 
L 307.971643 561.632953 
L 305.475698 561.579087 
L 302.980417 561.500266 
L 300.486049 561.396496 
L 297.992844 561.267788 
L 295.50105 561.114154 
L 293.010917 560.935611 
L 290.522694 560.732176 
L 288.03663 560.503869 
L 285.552973 560.250713 
L 283.071972 559.972734 
L 280.593874 559.669959 
L 278.888638 559.446983 
L 278.888638 559.446983 
Q 312.110157 312.013667 346.178249 64.695492 
L 346.178249 64.695492 
L 346.178249 64.695492 
L 348.649686 65.048533 
L 351.117469 65.42627 
L 353.581352 65.828666 
L 356.041087 66.25568 
L 358.49643 66.70727 
L 360.947133 67.18339 
L 363.392954 67.683993 
L 365.833645 68.209029 
L 368.268965 68.758445 
L 370.698669 69.332186 
L 373.122514 69.930196 
L 375.540258 70.552413 
L 377.951658 71.198777 
L 379.608953 71.65804 
L 379.608953 71.65804 
Q 312.110157 312.013667 312.964523 561.665795 
z
" clip-path="url(#p77be6099f6)" style="fill: #0cf4eb; fill-opacity: 0.5; stroke: #808080; stroke-opacity: 0.5; stroke-width: 0.1"/>
    <path d="M 443.172445 524.498 
L 443.172445 524.498 
L 441.041084 525.797977 
L 438.89683 527.076576 
L 436.739897 528.333668 
L 434.570502 529.569129 
L 432.38886 530.782834 
L 430.195191 531.974663 
L 427.989714 533.144496 
L 425.772649 534.292215 
L 423.544217 535.417707 
L 421.304642 536.520859 
L 420.705623 536.81122 
L 420.705623 536.81122 
Q 312.110157 312.013667 546.266387 225.423976 
L 546.266387 225.423976 
L 546.266387 225.423976 
L 547.120562 227.769829 
L 547.951236 230.124106 
L 548.758326 232.486572 
L 549.541751 234.85699 
L 550.301434 237.235124 
L 551.037297 239.620736 
L 551.749268 242.013588 
L 552.437276 244.413439 
L 553.10125 246.82005 
L 553.741126 249.23318 
L 553.907667 249.877694 
L 553.907667 249.877694 
Q 312.110157 312.013667 443.172445 524.498 
z
" clip-path="url(#p77be6099f6)" style="fill: #0094ff; fill-opacity: 0.5; stroke: #808080; stroke-opacity: 0.5; stroke-width: 0.1"/>
    <path d="M 420.705623 536.81122 
L 420.705623 536.81122 
L 418.452255 537.885917 
L 416.188253 538.938027 
L 413.913843 539.967444 
L 411.629254 540.974066 
L 409.334712 541.957793 
L 409.028061 542.087209 
L 409.028061 542.087209 
Q 312.110157 312.013667 200.06583 88.915071 
L 200.06583 88.915071 
L 200.06583 88.915071 
L 202.302381 87.805801 
L 204.549913 86.718952 
L 206.8082 85.654632 
L 209.077018 84.612948 
L 211.356139 83.594003 
L 211.660761 83.45988 
L 211.660761 83.45988 
Q 312.110157 312.013667 420.705623 536.81122 
z
" clip-path="url(#p77be6099f6)" style="fill: #0094ff; fill-opacity: 0.5; stroke: #808080; stroke-opacity: 0.5; stroke-width: 0.1"/>
    <path d="M 409.028061 542.087209 
L 409.028061 542.087209 
L 406.722518 543.044869 
L 404.407514 543.979425 
L 402.08328 544.890785 
L 399.750049 545.778858 
L 397.408054 546.643554 
L 395.05753 547.484787 
L 392.69871 548.302474 
L 390.331832 549.096531 
L 389.013552 549.52742 
L 389.013552 549.52742 
Q 312.110157 312.013667 379.608953 71.65804 
L 379.608953 71.65804 
L 379.608953 71.65804 
L 382.009094 72.345035 
L 384.402246 73.055996 
L 386.788168 73.790852 
L 389.166623 74.549531 
L 391.537372 75.331956 
L 393.900178 76.138049 
L 396.254805 76.967729 
L 398.601018 77.820914 
L 399.900701 78.305013 
L 399.900701 78.305013 
Q 312.110157 312.013667 409.028061 542.087209 
z
" clip-path="url(#p77be6099f6)" style="fill: #0094ff; fill-opacity: 0.5; stroke: #808080; stroke-opacity: 0.5; stroke-width: 0.1"/>
    <path d="M 487.125137 490.049258 
L 487.125137 490.049258 
L 485.33606 491.790477 
L 483.529661 493.513718 
L 481.70612 495.21881 
L 479.865619 496.905581 
L 478.008343 498.573863 
L 476.134477 500.22349 
L 474.539351 501.601831 
L 474.539351 501.601831 
Q 312.110157 312.013667 399.900701 78.305013 
L 399.900701 78.305013 
L 399.900701 78.305013 
L 402.233359 79.194589 
L 404.557005 80.107447 
L 406.871406 81.043495 
L 409.176332 82.00264 
L 411.47155 82.984786 
L 413.756833 83.989835 
L 415.678684 84.856288 
L 415.678684 84.856288 
Q 312.110157 312.013667 487.125137 490.049258 
z
" clip-path="url(#p77be6099f6)" style="fill: #0038ff; fill-opacity: 0.5; stroke: #808080; stroke-opacity: 0.5; stroke-width: 0.1"/>
    <path d="M 553.907667 249.877694 
L 553.907667 249.877694 
L 554.516926 252.298735 
L 555.101945 254.725748 
L 555.662665 257.15849 
L 556.199031 259.596717 
L 556.710987 262.040186 
L 557.198484 264.488653 
L 557.591055 266.559918 
L 557.591055 266.559918 
Q 312.110157 312.013667 62.617726 303.044733 
L 62.617726 303.044733 
L 62.617726 303.044733 
L 62.719888 300.550299 
L 62.846989 298.057011 
L 62.999016 295.565118 
L 63.175955 293.074871 
L 63.377786 290.586517 
L 63.604491 288.100306 
L 63.815279 286.002731 
L 63.815279 286.002731 
Q 312.110157 312.013667 553.907667 249.877694 
z
" clip-path="url(#p77be6099f6)" style="fill: #0000e8; fill-opacity: 0.5; stroke: #808080; stroke-opacity: 0.5; stroke-width: 0.1"/>
    <path d="M 557.591055 266.559918 
L 557.591055 266.559918 
L 558.033311 269.016959 
L 558.450975 271.478299 
L 558.844005 273.943693 
L 559.212362 276.412894 
L 559.556009 278.885655 
L 559.874911 281.361728 
L 560.169037 283.840867 
L 560.438358 286.322823 
L 560.682846 288.807348 
L 560.902477 291.294194 
L 561.097228 293.783112 
L 561.267082 296.273853 
L 561.412019 298.766167 
L 561.532027 301.259807 
L 561.627093 303.754522 
L 561.697207 306.250062 
L 561.742363 308.746179 
L 561.762556 311.242623 
L 561.757784 313.739144 
L 561.728047 316.235493 
L 561.673349 318.731419 
L 561.593694 321.226673 
L 561.489092 323.721006 
L 561.359551 326.214169 
L 561.205086 328.705911 
L 561.025712 331.195984 
L 560.821446 333.684139 
L 560.59231 336.170127 
L 560.338325 338.6537 
L 560.059518 341.134608 
L 559.755916 343.612604 
L 559.42755 346.08744 
L 559.074452 348.55887 
L 558.696658 351.026644 
L 558.294206 353.490517 
L 557.867135 355.950243 
L 557.415489 358.405575 
L 556.939312 360.856268 
L 556.438653 363.302076 
L 555.913561 365.742756 
L 555.364089 368.178063 
L 554.790292 370.607754 
L 554.192227 373.031585 
L 553.569954 375.449315 
L 552.923535 377.860701 
L 552.253035 380.265502 
L 551.558521 382.663478 
L 550.904975 384.841889 
L 550.904975 384.841889 
Q 312.110157 312.013667 278.888638 559.446983 
L 278.888638 559.446983 
L 278.888638 559.446983 
L 276.416007 559.102402 
L 273.946946 558.733112 
L 271.481701 558.33915 
L 269.020518 557.920556 
L 266.563645 557.477372 
L 264.111326 557.009641 
L 261.663807 556.517411 
L 259.221333 556.000731 
L 256.784147 555.459652 
L 254.352494 554.894229 
L 251.926617 554.304518 
L 249.506758 553.690579 
L 247.093159 553.052471 
L 244.686062 552.39026 
L 242.285707 551.704012 
L 239.892335 550.993795 
L 237.506185 550.259679 
L 235.127494 549.50174 
L 232.756502 548.720052 
L 230.393446 547.914693 
L 228.03856 547.085745 
L 225.692082 546.233289 
L 223.354246 545.357412 
L 221.025285 544.458201 
L 218.705433 543.535745 
L 216.394921 542.590137 
L 214.09398 541.621472 
L 211.802841 540.629847 
L 209.521733 539.615359 
L 207.250883 538.578112 
L 204.99052 537.518209 
L 202.740868 536.435755 
L 200.502153 535.33086 
L 198.274598 534.203632 
L 196.058427 533.054186 
L 193.853862 531.882636 
L 191.661121 530.6891 
L 189.480426 529.473696 
L 187.311993 528.236546 
L 185.15604 526.977774 
L 183.012783 525.697506 
L 180.882435 524.39587 
L 178.765209 523.072995 
L 176.661319 521.729015 
L 174.570972 520.364064 
L 172.49438 518.978277 
L 170.431749 517.571795 
L 168.565021 516.272594 
L 168.565021 516.272594 
Q 312.110157 312.013667 557.591055 266.559918 
z
" clip-path="url(#p77be6099f6)" style="fill: #0000e8; fill-opacity: 0.5; stroke: #808080; stroke-opacity: 0.5; stroke-width: 0.1"/>
    <path d="M 550.904975 384.841889 
L 550.904975 384.841889 
L 550.164765 387.226156 
L 549.40075 389.602901 
L 548.613006 391.971888 
L 547.801612 394.33288 
L 546.966649 396.685639 
L 546.108201 399.029931 
L 545.226353 401.365522 
L 544.321194 403.692177 
L 543.392814 406.009665 
L 542.441305 408.317753 
L 542.183699 408.931571 
L 542.183699 408.931571 
Q 312.110157 312.013667 389.013552 549.52742 
L 389.013552 549.52742 
L 389.013552 549.52742 
L 386.634609 550.284565 
L 384.248214 551.017884 
L 381.854605 551.727303 
L 379.454021 552.41275 
L 377.046703 553.074157 
L 374.632892 553.711459 
L 372.212828 554.324591 
L 369.786754 554.913493 
L 367.354912 555.478104 
L 364.917546 556.018369 
L 364.266739 556.158309 
L 364.266739 556.158309 
Q 312.110157 312.013667 550.904975 384.841889 
z
" clip-path="url(#p77be6099f6)" style="fill: #0000e8; fill-opacity: 0.5; stroke: #808080; stroke-opacity: 0.5; stroke-width: 0.1"/>
    <path d="M 542.183699 408.931571 
L 542.183699 408.931571 
L 541.203032 411.227423 
L 540.199457 413.513353 
L 539.173073 415.789133 
L 538.123982 418.054535 
L 537.052291 420.309334 
L 535.958105 422.553303 
L 534.841535 424.786218 
L 533.702692 427.007856 
L 532.541689 429.217995 
L 531.358644 431.416413 
L 530.153674 433.602892 
L 528.9269 435.777211 
L 527.678445 437.939154 
L 526.408432 440.088505 
L 525.11699 442.225048 
L 523.804248 444.348571 
L 522.470336 446.45886 
L 521.115389 448.555704 
L 519.739541 450.638895 
L 518.342931 452.708223 
L 517.589698 453.806026 
L 517.589698 453.806026 
Q 312.110157 312.013667 231.962776 75.574854 
L 231.962776 75.574854 
L 231.962776 75.574854 
L 234.331132 74.785216 
L 236.707266 74.0193 
L 239.09094 73.277183 
L 241.481916 72.55894 
L 243.879955 71.864642 
L 246.284817 71.194358 
L 248.696261 70.548157 
L 251.114046 69.926102 
L 253.537931 69.328255 
L 255.967674 68.754677 
L 258.40303 68.205424 
L 260.843757 67.680552 
L 263.289611 67.180113 
L 265.740347 66.704157 
L 268.195719 66.252732 
L 270.655483 65.825883 
L 273.119393 65.423653 
L 275.587202 65.046081 
L 278.058662 64.693206 
L 280.533528 64.365062 
L 281.854645 64.200191 
L 281.854645 64.200191 
Q 312.110157 312.013667 542.183699 408.931571 
z
" clip-path="url(#p77be6099f6)" style="fill: #0000e8; fill-opacity: 0.5; stroke: #808080; stroke-opacity: 0.5; stroke-width: 0.1"/>
    <path d="M 517.589698 453.806026 
L 517.589698 453.806026 
L 516.161524 455.853698 
L 514.712946 457.886985 
L 513.244107 459.905686 
L 511.755155 461.909597 
L 510.246238 463.898519 
L 508.717508 465.872253 
L 507.169118 467.830601 
L 505.601221 469.773367 
L 504.721829 470.845839 
L 504.721829 470.845839 
Q 312.110157 312.013667 71.986932 243.692719 
L 71.986932 243.692719 
L 71.986932 243.692719 
L 72.682136 241.294943 
L 73.401283 238.904239 
L 74.1443 236.520845 
L 74.911114 234.145001 
L 75.701648 231.776944 
L 76.515822 229.41691 
L 77.353555 227.065135 
L 78.214764 224.721856 
L 78.703308 223.423837 
L 78.703308 223.423837 
Q 312.110157 312.013667 517.589698 453.806026 
z
" clip-path="url(#p77be6099f6)" style="fill: #0000e8; fill-opacity: 0.5; stroke: #808080; stroke-opacity: 0.5; stroke-width: 0.1"/>
    <path d="M 504.721829 470.845839 
L 504.721829 470.845839 
L 503.123903 472.763982 
L 501.975976 474.118218 
L 501.975976 474.118218 
Q 312.110157 312.013667 474.539351 501.601831 
L 474.539351 501.601831 
L 474.539351 501.601831 
L 472.63538 503.216616 
L 471.271675 504.353279 
L 471.271675 504.353279 
Q 312.110157 312.013667 504.721829 470.845839 
z
" clip-path="url(#p77be6099f6)" style="fill: #0000e8; fill-opacity: 0.5; stroke: #808080; stroke-opacity: 0.5; stroke-width: 0.1"/>
    <path d="M 415.678684 84.856288 
L 415.678684 84.856288 
L 417.945042 85.903313 
L 420.200816 86.97295 
L 422.445781 88.065091 
L 424.679713 89.179626 
L 426.902388 90.316444 
L 429.113583 91.475432 
L 431.313079 92.656474 
L 433.500654 93.859451 
L 434.710699 94.537181 
L 434.710699 94.537181 
Q 312.110157 312.013667 63.815279 286.002731 
L 63.815279 286.002731 
L 63.815279 286.002731 
L 64.087799 283.521125 
L 64.385121 281.042367 
L 64.707215 278.566706 
L 65.054049 276.094391 
L 65.425588 273.625667 
L 65.821796 271.160781 
L 66.242632 268.699982 
L 66.688055 266.243513 
L 66.94611 264.880819 
L 66.94611 264.880819 
Q 312.110157 312.013667 415.678684 84.856288 
z
" clip-path="url(#p77be6099f6)" style="fill: #000080; fill-opacity: 0.5; stroke: #808080; stroke-opacity: 0.5; stroke-width: 0.1"/>
    <path d="M 434.710699 94.537181 
L 434.710699 94.537181 
L 436.879297 95.77404 
L 439.035419 97.032522 
L 441.178849 98.312503 
L 443.309371 99.613853 
L 445.426774 100.936443 
L 447.530845 102.280141 
L 449.621375 103.644812 
L 451.698153 105.03032 
L 453.760973 106.436525 
L 455.809627 107.863289 
L 457.843912 109.310467 
L 459.863624 110.777915 
L 461.86856 112.265487 
L 463.858521 113.773033 
L 465.833307 115.300404 
L 467.792721 116.847445 
L 469.736566 118.414003 
L 471.664649 119.999921 
L 473.576777 121.60504 
L 475.472758 123.229199 
L 477.352404 124.872237 
L 479.215525 126.533989 
L 481.061935 128.214289 
L 482.891451 129.912968 
L 484.703889 131.629858 
L 486.499067 133.364786 
L 488.276807 135.117578 
L 488.943709 135.784244 
L 488.943709 135.784244 
Q 312.110157 312.013667 168.565021 516.272594 
L 168.565021 516.272594 
L 168.565021 516.272594 
L 166.529643 514.826954 
L 164.508823 513.361032 
L 162.502763 511.874976 
L 160.511664 510.368934 
L 158.535724 508.843057 
L 156.575142 507.297497 
L 154.630113 505.732408 
L 152.700831 504.147948 
L 150.787491 502.544275 
L 148.890283 500.921549 
L 147.009396 499.279932 
L 145.14502 497.619589 
L 143.29734 495.940685 
L 141.466541 494.243389 
L 139.652806 492.527869 
L 137.856317 490.794299 
L 136.077253 489.042851 
L 134.315792 487.2737 
L 132.572111 485.487023 
L 130.846383 483.682999 
L 129.138781 481.861808 
L 127.449477 480.023632 
L 125.778638 478.168656 
L 124.126432 476.297064 
L 122.493025 474.409044 
L 120.878579 472.504784 
L 119.283256 470.584476 
L 118.685689 469.855013 
L 118.685689 469.855013 
Q 312.110157 312.013667 434.710699 94.537181 
z
" clip-path="url(#p77be6099f6)" style="fill: #000080; fill-opacity: 0.5; stroke: #808080; stroke-opacity: 0.5; stroke-width: 0.1"/>
    <path d="M 488.943709 135.784244 
L 488.943709 135.784244 
L 490.697133 137.561361 
L 492.432697 139.355924 
L 494.15023 141.167752 
L 495.849559 142.996665 
L 497.530514 144.842479 
L 499.192927 146.70501 
L 500.582153 148.290665 
L 500.582153 148.290665 
Q 312.110157 312.013667 364.266739 556.158309 
L 364.266739 556.158309 
L 364.266739 556.158309 
L 361.822725 556.667659 
L 359.37374 557.152543 
L 356.920029 557.612915 
L 354.461837 558.048726 
L 351.99941 558.459934 
L 349.532994 558.846498 
L 347.447358 559.153703 
L 347.447358 559.153703 
Q 312.110157 312.013667 488.943709 135.784244 
z
" clip-path="url(#p77be6099f6)" style="fill: #000080; fill-opacity: 0.5; stroke: #808080; stroke-opacity: 0.5; stroke-width: 0.1"/>
    <path d="M 500.582153 148.290665 
L 500.582153 148.290665 
L 502.209933 150.18354 
L 503.818702 152.092597 
L 505.408301 154.017647 
L 506.073657 154.835185 
L 506.073657 154.835185 
Q 312.110157 312.013667 281.854645 64.200191 
L 281.854645 64.200191 
L 281.854645 64.200191 
L 284.334251 63.910032 
L 286.816635 63.644682 
L 289.301548 63.40417 
L 290.351413 63.310085 
L 290.351413 63.310085 
Q 312.110157 312.013667 500.582153 148.290665 
z
" clip-path="url(#p77be6099f6)" style="fill: #000080; fill-opacity: 0.5; stroke: #808080; stroke-opacity: 0.5; stroke-width: 0.1"/>
    <path d="M 506.073657 154.835185 
L 506.073657 154.835185 
L 507.635718 156.782646 
L 508.734624 158.176956 
L 508.734624 158.176956 
Q 312.110157 312.013667 78.703308 223.423837 
L 78.703308 223.423837 
L 78.703308 223.423837 
L 79.600862 221.094237 
L 80.25327 219.44316 
L 80.25327 219.44316 
Q 312.110157 312.013667 506.073657 154.835185 
z
" clip-path="url(#p77be6099f6)" style="fill: #000080; fill-opacity: 0.5; stroke: #808080; stroke-opacity: 0.5; stroke-width: 0.1"/>
    <path d="M 508.734624 158.176956 
L 508.734624 158.176956 
L 510.263134 160.150859 
L 511.771829 162.139949 
L 513.260559 164.144026 
L 514.729173 166.16289 
L 516.177526 168.196339 
L 516.369083 168.468532 
L 516.369083 168.468532 
Q 312.110157 312.013667 471.271675 504.353279 
L 471.271675 504.353279 
L 471.271675 504.353279 
L 469.340353 505.935251 
L 467.393308 507.49783 
L 465.430735 509.040862 
L 463.452829 510.564191 
L 461.45979 512.067665 
L 461.192943 512.266602 
L 461.192943 512.266602 
Q 312.110157 312.013667 508.734624 158.176956 
z
" clip-path="url(#p77be6099f6)" style="fill: #000080; fill-opacity: 0.5; stroke: #808080; stroke-opacity: 0.5; stroke-width: 0.1"/>
   </g>
   <g id="patch_14">
    <path d="M 312.110157 62.360077 
L 314.606651 62.37256 
L 317.102896 62.410006 
L 319.598641 62.472413 
L 322.093638 62.559774 
L 324.587636 62.672079 
L 327.080386 62.809319 
L 329.57164 62.971479 
L 332.061147 63.158543 
L 334.548659 63.370492 
L 337.033928 63.607305 
L 339.516704 63.868959 
L 341.996739 64.155427 
L 344.473786 64.466681 
L 346.947596 64.802689 
L 349.417923 65.163418 
L 351.884519 65.548832 
L 354.347138 65.958892 
L 356.805532 66.393557 
L 359.259458 66.852785 
L 361.708668 67.336528 
L 364.152919 67.844738 
L 366.591966 68.377366 
L 369.025564 68.934356 
L 371.453471 69.515655 
L 373.875443 70.121203 
L 376.291239 70.75094 
L 378.700617 71.404803 
L 381.103337 72.082727 
L 383.499156 72.784644 
L 385.887837 73.510483 
L 388.26914 74.260173 
L 390.642828 75.033637 
L 393.008662 75.8308 
L 395.366406 76.651581 
L 397.715825 77.495897 
L 400.056684 78.363665 
L 402.388748 79.254798 
L 404.711784 80.169207 
L 407.025559 81.1068 
L 409.329844 82.067484 
L 411.624406 83.051161 
L 413.909018 84.057735 
L 416.183449 85.087105 
L 418.447473 86.139167 
L 420.700864 87.213816 
L 422.943395 88.310945 
L 425.174844 89.430443 
L 427.394986 90.572201 
L 429.603599 91.736102 
L 431.800464 92.92203 
L 433.985359 94.129868 
L 436.158067 95.359494 
L 438.31837 96.610785 
L 440.466053 97.883616 
L 442.6009 99.17786 
L 444.722698 100.493387 
L 446.831235 101.830066 
L 448.9263 103.187764 
L 451.007683 104.566344 
L 453.075177 105.965668 
L 455.128575 107.385597 
L 457.16767 108.825989 
L 459.192261 110.286699 
L 461.202143 111.767582 
L 463.197116 113.268489 
L 465.17698 114.789271 
L 467.141538 116.329775 
L 469.090593 117.889847 
L 471.023949 119.469331 
L 472.941415 121.06807 
L 474.842798 122.685903 
L 476.727907 124.322668 
L 478.596555 125.978203 
L 480.448555 127.652341 
L 482.28372 129.344914 
L 484.101869 131.055755 
L 485.902818 132.784691 
L 487.686388 134.53155 
L 489.452401 136.296157 
L 491.20068 138.078336 
L 492.93105 139.877908 
L 494.643338 141.694694 
L 496.337373 143.528511 
L 498.012985 145.379177 
L 499.670007 147.246506 
L 501.308273 149.130311 
L 502.92762 151.030405 
L 504.527885 152.946597 
L 506.108908 154.878695 
L 507.670532 156.826507 
L 509.2126 158.789838 
L 510.734957 160.76849 
L 512.237453 162.762267 
L 513.719936 164.77097 
L 515.182258 166.794396 
L 516.369083 168.468532 
L 522.68637 164.028992 
L 521.462838 162.303078 
L 519.95529 160.217072 
L 518.426957 158.146245 
L 516.877992 156.090804 
L 515.308551 154.050956 
L 513.718791 152.026904 
L 512.10887 150.018851 
L 510.478949 148.026997 
L 508.829191 146.051541 
L 507.159761 144.092682 
L 505.470827 142.150614 
L 503.762557 140.225533 
L 502.035122 138.31763 
L 500.288694 136.427097 
L 498.523449 134.554122 
L 496.739562 132.698893 
L 494.937213 130.861595 
L 493.116581 129.042413 
L 491.277849 127.241527 
L 489.4212 125.459119 
L 487.54682 123.695365 
L 485.654897 121.950444 
L 483.745619 120.224528 
L 481.819178 118.517792 
L 479.875766 116.830405 
L 477.915578 115.162536 
L 475.938809 113.514351 
L 473.945658 111.886017 
L 471.936323 110.277695 
L 469.911005 108.689547 
L 467.869908 107.121731 
L 465.813235 105.574404 
L 463.741192 104.047721 
L 461.653985 102.541834 
L 459.551825 101.056894 
L 457.43492 99.59305 
L 455.303483 98.150447 
L 453.157727 96.729231 
L 450.997866 95.329543 
L 448.824117 93.951523 
L 446.636696 92.595309 
L 444.435823 91.261037 
L 442.221717 89.94884 
L 439.9946 88.658849 
L 437.754695 87.391194 
L 435.502226 86.146 
L 433.237417 84.923393 
L 430.960496 83.723495 
L 428.67169 82.546426 
L 426.371228 81.392304 
L 424.059339 80.261243 
L 421.736256 79.153357 
L 419.402211 78.068757 
L 417.057436 77.007552 
L 414.702167 75.969847 
L 412.336638 74.955746 
L 409.961087 73.965351 
L 407.575751 72.99876 
L 405.180869 72.056071 
L 402.776679 71.137377 
L 400.363423 70.24277 
L 397.941342 69.372341 
L 395.510678 68.526175 
L 393.071673 67.704358 
L 390.624573 66.906972 
L 388.169621 66.134096 
L 385.707063 65.385808 
L 383.237146 64.662182 
L 380.760116 63.963292 
L 378.276221 63.289206 
L 375.78571 62.639993 
L 373.288831 62.015716 
L 370.785834 61.41644 
L 368.27697 60.842222 
L 365.762489 60.293122 
L 363.242643 59.769194 
L 360.717684 59.270489 
L 358.187864 58.797059 
L 355.653436 58.348951 
L 353.114654 57.926208 
L 350.571771 57.528874 
L 348.025043 57.156989 
L 345.474723 56.810589 
L 342.921066 56.489708 
L 340.364329 56.194381 
L 337.804766 55.924634 
L 335.242634 55.680497 
L 332.678188 55.461993 
L 330.111686 55.269143 
L 327.543383 55.101968 
L 324.973537 54.960484 
L 322.402405 54.844705 
L 319.830244 54.754642 
L 317.25731 54.690306 
L 314.683862 54.651701 
L 312.110157 54.638832 
L 312.110157 62.360077 
z
" clip-path="url(#p77be6099f6)" style="fill: none; stroke: #000000; stroke-width: 0.5; stroke-linejoin: miter"/>
   </g>
   <g id="patch_15">
    <path d="M 528.102599 186.817103 
L 529.343745 188.983251 
L 530.563167 191.161702 
L 531.760744 193.352239 
L 532.936356 195.554641 
L 534.089885 197.768689 
L 535.221217 199.994161 
L 536.330238 202.230836 
L 537.416837 204.478488 
L 538.480906 206.736894 
L 539.522338 209.005828 
L 540.541028 211.285062 
L 541.536876 213.574369 
L 542.509781 215.87352 
L 543.459647 218.182285 
L 544.386378 220.500433 
L 545.289881 222.827732 
L 546.170067 225.16395 
L 547.026847 227.508852 
L 547.860135 229.862205 
L 548.669848 232.223773 
L 549.455906 234.59332 
L 550.21823 236.970609 
L 550.956742 239.355402 
L 551.671371 241.747461 
L 552.362043 244.146546 
L 553.02869 246.552419 
L 553.671246 248.964837 
L 554.289646 251.38356 
L 554.883828 253.808346 
L 555.453733 256.238952 
L 555.999304 258.675136 
L 556.520486 261.116654 
L 557.017227 263.563261 
L 557.489478 266.014714 
L 557.937191 268.470766 
L 558.360321 270.931173 
L 558.758827 273.395687 
L 559.132668 275.864064 
L 559.481807 278.336055 
L 559.806209 280.811414 
L 560.105842 283.289894 
L 560.380675 285.771245 
L 560.630681 288.255221 
L 560.855836 290.741573 
L 561.056116 293.230052 
L 561.231502 295.720409 
L 561.381976 298.212396 
L 561.507523 300.705763 
L 561.60813 303.20026 
L 561.683788 305.695639 
L 561.734489 308.191649 
L 561.760227 310.688042 
L 561.761001 313.184568 
L 561.73681 315.680976 
L 561.687656 318.177017 
L 561.613545 320.672443 
L 561.514483 323.167002 
L 561.390482 325.660446 
L 561.241552 328.152525 
L 561.06771 330.642991 
L 560.868972 333.131594 
L 560.645358 335.618084 
L 560.396892 338.102215 
L 560.123596 340.583736 
L 559.8255 343.062401 
L 559.502632 345.537961 
L 559.155025 348.010168 
L 558.782714 350.478776 
L 558.385736 352.943537 
L 557.96413 355.404205 
L 557.517939 357.860534 
L 557.047208 360.312279 
L 556.551983 362.759194 
L 556.032314 365.201034 
L 555.488254 367.637556 
L 554.919855 370.068515 
L 554.327176 372.493669 
L 553.710275 374.912774 
L 553.069215 377.32559 
L 552.404059 379.731875 
L 551.714873 382.131388 
L 551.001728 384.52389 
L 550.264693 386.90914 
L 549.503843 389.286901 
L 548.719254 391.656935 
L 547.911004 394.019004 
L 547.079175 396.372873 
L 546.223848 398.718306 
L 545.345111 401.055069 
L 544.44305 403.382928 
L 543.517756 405.701649 
L 542.569322 408.011002 
L 541.597841 410.310756 
L 540.603413 412.60068 
L 539.586135 414.880545 
L 538.546109 417.150123 
L 537.483441 419.409188 
L 536.398235 421.657514 
L 535.2906 423.894875 
L 534.160648 426.121048 
L 533.008491 428.335811 
L 531.834244 430.538941 
L 530.638025 432.730219 
L 529.419953 434.909426 
L 528.18015 437.076343 
L 526.918741 439.230754 
L 525.635851 441.372443 
L 524.331609 443.501196 
L 523.006144 445.616801 
L 521.65959 447.719046 
L 520.292082 449.80772 
L 518.903755 451.882615 
L 517.49475 453.943523 
L 516.065206 455.990238 
L 514.615266 458.022556 
L 513.145076 460.040273 
L 511.654783 462.043188 
L 510.144536 464.031099 
L 508.614485 466.003809 
L 507.064785 467.96112 
L 505.495588 469.902837 
L 503.907054 471.828764 
L 502.29934 473.738711 
L 501.975976 474.118218 
L 507.848115 479.131761 
L 508.181479 478.740516 
L 509.838917 476.771499 
L 511.476581 474.786007 
L 513.094309 472.784237 
L 514.691939 470.766391 
L 516.269311 468.732669 
L 517.826267 466.683276 
L 519.362651 464.618416 
L 520.878311 462.538295 
L 522.373094 460.443122 
L 523.84685 458.333106 
L 525.299434 456.208459 
L 526.730698 454.069392 
L 528.140501 451.916119 
L 529.528701 449.748857 
L 530.895159 447.567821 
L 532.239738 445.37323 
L 533.562305 443.165303 
L 534.862727 440.944261 
L 536.140874 438.710326 
L 537.396618 436.463721 
L 538.629834 434.204671 
L 539.840398 431.933403 
L 541.028189 429.650143 
L 542.193088 427.355119 
L 543.334979 425.048561 
L 544.453748 422.730699 
L 545.549283 420.401766 
L 546.621474 418.061995 
L 547.670214 415.711618 
L 548.695399 413.350872 
L 549.696925 410.979992 
L 550.674692 408.599216 
L 551.628603 406.208781 
L 552.558563 403.808927 
L 553.464478 401.399893 
L 554.346258 398.981921 
L 555.203814 396.555252 
L 556.037061 394.120129 
L 556.845916 391.676795 
L 557.630297 389.225495 
L 558.390127 386.766474 
L 559.125328 384.299978 
L 559.835829 381.826253 
L 560.521557 379.345547 
L 561.182444 376.858108 
L 561.818424 374.364184 
L 562.429433 371.864026 
L 563.015411 369.357882 
L 563.576299 366.846004 
L 564.11204 364.328643 
L 564.622581 361.80605 
L 565.107871 359.278479 
L 565.567861 356.74618 
L 566.002506 354.209409 
L 566.411762 351.668418 
L 566.795588 349.123462 
L 567.153945 346.574794 
L 567.486799 344.022671 
L 567.794115 341.467347 
L 568.075863 338.909077 
L 568.332014 336.348118 
L 568.562544 333.784725 
L 568.767428 331.219156 
L 568.946647 328.651665 
L 569.100182 326.082511 
L 569.228019 323.511951 
L 569.330144 320.94024 
L 569.406548 318.367637 
L 569.457222 315.794398 
L 569.482161 313.220781 
L 569.481363 310.647044 
L 569.454829 308.073443 
L 569.40256 305.500236 
L 569.324562 302.92768 
L 569.220844 300.356033 
L 569.091414 297.785552 
L 568.936286 295.216494 
L 568.755476 292.649115 
L 568.549001 290.083673 
L 568.316883 287.520424 
L 568.059145 284.959624 
L 567.775811 282.40153 
L 567.466912 279.846396 
L 567.132477 277.29448 
L 566.77254 274.746035 
L 566.387136 272.201317 
L 565.976306 269.66058 
L 565.540089 267.124078 
L 565.078529 264.592066 
L 564.591673 262.064795 
L 564.079568 259.54252 
L 563.542267 257.025491 
L 562.979823 254.513961 
L 562.392292 252.008181 
L 561.779733 249.508402 
L 561.142208 247.014873 
L 560.479779 244.527844 
L 559.792514 242.047563 
L 559.08048 239.574279 
L 558.34375 237.108239 
L 557.582397 234.64969 
L 556.796496 232.198876 
L 555.986128 229.756044 
L 555.151371 227.321438 
L 554.292311 224.895301 
L 553.409033 222.477876 
L 552.501625 220.069404 
L 551.570178 217.670127 
L 550.614786 215.280283 
L 549.635543 212.900113 
L 548.632548 210.529855 
L 547.605901 208.169744 
L 546.555704 205.820018 
L 545.482063 203.480912 
L 544.385085 201.152658 
L 543.26488 198.835491 
L 542.121559 196.529641 
L 540.955238 194.235339 
L 539.766032 191.952815 
L 538.554061 189.682298 
L 537.319445 187.424013 
L 536.062309 185.178187 
L 534.782778 182.945044 
L 528.102599 186.817103 
z
" clip-path="url(#p77be6099f6)" style="fill: none; stroke: #000000; stroke-width: 0.5; stroke-linejoin: miter"/>
   </g>
   <g id="patch_16">
    <path d="M 487.125137 490.049258 
L 485.33606 491.790477 
L 483.529661 493.513718 
L 481.70612 495.21881 
L 479.865619 496.905581 
L 478.008343 498.573863 
L 476.134477 500.22349 
L 474.244209 501.854295 
L 472.337728 503.466117 
L 470.415224 505.058793 
L 468.47689 506.632165 
L 466.522919 508.186076 
L 464.553507 509.720369 
L 462.568851 511.234892 
L 461.192943 512.266602 
L 465.803751 518.459992 
L 467.222213 517.396373 
L 469.26825 515.835009 
L 471.298572 514.253263 
L 473.312974 512.651294 
L 475.311257 511.029261 
L 477.29322 509.387326 
L 479.258665 507.725655 
L 481.207394 506.044412 
L 483.139215 504.343766 
L 485.053932 502.623888 
L 486.951356 500.884948 
L 488.831295 499.127122 
L 490.693562 497.350585 
L 492.537972 495.555513 
L 487.125137 490.049258 
z
" clip-path="url(#p77be6099f6)" style="fill: none; stroke: #000000; stroke-width: 0.5; stroke-linejoin: miter"/>
   </g>
   <g id="patch_17">
    <path d="M 443.172445 524.498 
L 441.041084 525.797977 
L 438.89683 527.076576 
L 436.739897 528.333668 
L 434.570502 529.569129 
L 432.38886 530.782834 
L 430.195191 531.974663 
L 427.989714 533.144496 
L 425.772649 534.292215 
L 423.544217 535.417707 
L 421.304642 536.520859 
L 419.054148 537.601561 
L 416.79296 538.659704 
L 414.521303 539.695182 
L 412.239405 540.707892 
L 409.947495 541.697734 
L 407.6458 542.664607 
L 405.334553 543.608415 
L 403.013983 544.529063 
L 400.684322 545.426461 
L 398.345805 546.300517 
L 395.998663 547.151145 
L 393.643133 547.978259 
L 391.27945 548.781777 
L 388.90785 549.561619 
L 386.52857 550.317706 
L 384.141849 551.049962 
L 381.747924 551.758315 
L 379.347036 552.442694 
L 376.939424 553.103031 
L 374.525329 553.739258 
L 372.104992 554.351313 
L 369.678657 554.939135 
L 367.246564 555.502664 
L 364.808958 556.041845 
L 362.366082 556.556623 
L 359.91818 557.046946 
L 357.465498 557.512767 
L 355.00828 557.954038 
L 352.546773 558.370715 
L 350.081221 558.762757 
L 347.611873 559.130124 
L 347.447358 559.153703 
L 348.540261 566.797209 
L 348.709864 566.772901 
L 351.255584 566.394172 
L 353.79739 565.990005 
L 356.335026 565.560441 
L 358.86824 565.105523 
L 361.396779 564.625295 
L 363.920389 564.119807 
L 366.438818 563.589108 
L 368.951814 563.033252 
L 371.459126 562.452294 
L 373.960503 561.846292 
L 376.455695 561.215307 
L 378.944453 560.559403 
L 381.426527 559.878644 
L 383.901669 559.173098 
L 386.369633 558.442837 
L 388.830171 557.687934 
L 391.283036 556.908463 
L 393.727985 556.104502 
L 396.164772 555.276133 
L 398.593153 554.423438 
L 401.012886 553.546502 
L 403.423729 552.645413 
L 405.825441 551.720261 
L 408.217781 550.771139 
L 410.600511 549.798141 
L 412.973392 548.801364 
L 415.336186 547.78091 
L 417.688658 546.736878 
L 420.030572 545.669375 
L 422.361694 544.578506 
L 424.681791 543.464381 
L 426.990631 542.327111 
L 429.287983 541.16681 
L 431.573618 539.983593 
L 433.847306 538.77758 
L 436.10882 537.548891 
L 438.357935 536.297648 
L 440.594425 535.023977 
L 442.818067 533.728006 
L 445.028638 532.409863 
L 447.225917 531.06968 
L 443.172445 524.498 
z
" clip-path="url(#p77be6099f6)" style="fill: none; stroke: #000000; stroke-width: 0.5; stroke-linejoin: miter"/>
   </g>
   <g id="patch_18">
    <path d="M 325.773216 561.2931 
L 323.27978 561.417265 
L 320.785227 561.516489 
L 318.289807 561.590763 
L 315.793769 561.64008 
L 313.297362 561.664434 
L 310.800836 561.663824 
L 308.304442 561.638248 
L 305.808428 561.587711 
L 303.313044 561.512216 
L 300.81854 561.411771 
L 298.325165 561.286387 
L 295.833169 561.136076 
L 293.3428 560.960853 
L 290.854308 560.760735 
L 288.367942 560.535743 
L 285.883949 560.285899 
L 283.40258 560.011228 
L 280.924081 559.711757 
L 278.448701 559.387517 
L 275.976686 559.038539 
L 273.508286 558.664859 
L 271.043745 558.266515 
L 268.583311 557.843545 
L 266.127229 557.395992 
L 263.675746 556.923901 
L 261.229106 556.42732 
L 258.787554 555.906297 
L 256.351335 555.360886 
L 253.920691 554.79114 
L 251.495866 554.197116 
L 249.077103 553.578874 
L 246.664643 552.936476 
L 244.258727 552.269986 
L 241.859596 551.57947 
L 239.467491 550.864998 
L 237.082649 550.126641 
L 234.705311 549.364473 
L 232.335712 548.57857 
L 229.974092 547.76901 
L 227.620684 546.935876 
L 225.275726 546.079249 
L 222.939451 545.199216 
L 220.612092 544.295865 
L 218.293884 543.369285 
L 215.985057 542.41957 
L 213.685843 541.446815 
L 211.396471 540.451117 
L 209.11717 539.432575 
L 206.848168 538.391292 
L 204.589693 537.32737 
L 202.341969 536.240918 
L 200.105223 535.132043 
L 197.879676 534.000857 
L 195.665553 532.847472 
L 193.463074 531.672003 
L 191.272459 530.47457 
L 189.093929 529.25529 
L 186.927699 528.014286 
L 184.773988 526.751682 
L 182.633011 525.467605 
L 180.504981 524.162183 
L 178.390111 522.835545 
L 176.288613 521.487826 
L 174.200698 520.11916 
L 172.126573 518.729683 
L 170.066446 517.319535 
L 168.020524 515.888856 
L 165.98901 514.43779 
L 163.972109 512.966482 
L 161.970021 511.475079 
L 159.982947 509.963729 
L 158.011086 508.432585 
L 156.054634 506.881799 
L 154.113788 505.311527 
L 152.188741 503.721925 
L 150.279687 502.113152 
L 148.386815 500.485369 
L 146.510316 498.838739 
L 144.650376 497.173427 
L 142.807182 495.4896 
L 140.980919 493.787424 
L 139.171768 492.067072 
L 137.37991 490.328714 
L 135.605526 488.572525 
L 133.848792 486.798681 
L 132.109884 485.007357 
L 130.388976 483.198735 
L 128.68624 481.372994 
L 127.001846 479.530318 
L 125.335963 477.67089 
L 123.688757 475.794896 
L 122.060393 473.902525 
L 120.451033 471.993964 
L 118.86084 470.069406 
L 118.685689 469.855013 
L 112.703489 474.736704 
L 112.884057 474.957728 
L 114.523432 476.941809 
L 116.182565 478.909397 
L 117.861291 480.860295 
L 119.559441 482.794309 
L 121.276847 484.711245 
L 123.013335 486.610912 
L 124.768733 488.493119 
L 126.542865 490.357678 
L 128.335554 492.204403 
L 130.14662 494.033109 
L 131.975882 495.843613 
L 133.823158 497.635734 
L 135.688262 499.409293 
L 137.571008 501.164113 
L 139.471208 502.900018 
L 141.388671 504.616834 
L 143.323207 506.314391 
L 145.274621 507.992517 
L 147.242718 509.651046 
L 149.227302 511.289811 
L 151.228175 512.908649 
L 153.245135 514.507397 
L 155.277982 516.085896 
L 157.326512 517.643988 
L 159.39052 519.181517 
L 161.4698 520.69833 
L 163.564143 522.194274 
L 165.673342 523.669201 
L 167.797184 525.122962 
L 169.935457 526.555412 
L 172.087947 527.966409 
L 174.254439 529.35581 
L 176.434717 530.723477 
L 178.628563 532.069273 
L 180.835756 533.393064 
L 183.056077 534.694718 
L 185.289303 535.974103 
L 187.535211 537.231092 
L 189.793576 538.46556 
L 192.064173 539.677383 
L 194.346775 540.86644 
L 196.641152 542.032612 
L 198.947077 543.175782 
L 201.264318 544.295835 
L 203.592643 545.392661 
L 205.93182 546.46615 
L 208.281614 547.516193 
L 210.641792 548.542686 
L 213.012116 549.545526 
L 215.39235 550.524614 
L 217.782255 551.47985 
L 220.181594 552.41114 
L 222.590125 553.318391 
L 225.007608 554.201511 
L 227.433801 555.060413 
L 229.868462 555.89501 
L 232.311346 556.705219 
L 234.762211 557.490959 
L 237.22081 558.252152 
L 239.686899 558.988721 
L 242.160229 559.700593 
L 244.640555 560.387697 
L 247.127627 561.049963 
L 249.621198 561.687326 
L 252.121017 562.299721 
L 254.626835 562.887088 
L 257.138402 563.449368 
L 259.655465 563.986505 
L 262.177774 564.498445 
L 264.705077 564.985136 
L 267.23712 565.446531 
L 269.77365 565.882582 
L 272.314413 566.293247 
L 274.859156 566.678484 
L 277.407625 567.038254 
L 279.959563 567.372523 
L 282.514717 567.681255 
L 285.07283 567.964422 
L 287.633646 568.221993 
L 290.196911 568.453944 
L 292.762366 568.660251 
L 295.329757 568.840893 
L 297.898825 568.995853 
L 300.469315 569.125115 
L 303.040969 569.228666 
L 305.613529 569.306496 
L 308.186739 569.358596 
L 310.760342 569.384963 
L 313.33408 569.385592 
L 315.907695 569.360485 
L 318.48093 569.309643 
L 321.053528 569.233071 
L 323.625232 569.130778 
L 326.195785 569.002774 
L 325.773216 561.2931 
z
" clip-path="url(#p77be6099f6)" style="fill: none; stroke: #000000; stroke-width: 0.5; stroke-linejoin: miter"/>
   </g>
   <g id="patch_19">
    <path d="M 105.664948 452.396326 
L 104.271467 450.324889 
L 102.89877 448.239621 
L 101.546993 446.140731 
L 100.216273 444.028428 
L 98.906742 441.902924 
L 97.618531 439.764431 
L 96.351769 437.613163 
L 95.106583 435.449335 
L 93.883097 433.273164 
L 92.681434 431.084867 
L 91.501713 428.884662 
L 90.344053 426.672771 
L 89.208569 424.449414 
L 88.095375 422.214814 
L 87.004583 419.969193 
L 85.936301 417.712777 
L 84.890636 415.445792 
L 83.867693 413.168463 
L 82.867574 410.881018 
L 81.890379 408.583687 
L 80.936206 406.2767 
L 80.00515 403.960285 
L 79.097304 401.634677 
L 78.212759 399.300106 
L 77.351604 396.956807 
L 76.513925 394.605013 
L 75.699805 392.244961 
L 74.909326 389.876885 
L 74.142566 387.501023 
L 73.399604 385.117613 
L 72.680512 382.726892 
L 71.985363 380.329099 
L 71.314226 377.924476 
L 70.667169 375.513261 
L 70.044255 373.095696 
L 69.445548 370.672024 
L 68.871108 368.242485 
L 68.320991 365.807324 
L 67.795252 363.366783 
L 67.293946 360.921107 
L 66.81712 358.470541 
L 66.364824 356.015328 
L 65.937101 353.555716 
L 65.533996 351.091949 
L 65.155549 348.624275 
L 64.801796 346.152939 
L 64.472775 343.67819 
L 64.168517 341.200274 
L 63.889052 338.71944 
L 63.63441 336.235935 
L 63.404615 333.750008 
L 63.19969 331.261907 
L 63.019657 328.771881 
L 62.864532 326.28018 
L 62.734331 323.787052 
L 62.629068 321.292747 
L 62.548753 318.797513 
L 62.493393 316.301602 
L 62.462995 313.805261 
L 62.457562 311.308742 
L 62.477094 308.812293 
L 62.521588 306.316164 
L 62.591042 303.820604 
L 62.685447 301.325865 
L 62.804794 298.832193 
L 62.949072 296.33984 
L 63.118266 293.849055 
L 63.312358 291.360086 
L 63.53133 288.873182 
L 63.77516 286.388592 
L 64.043823 283.906565 
L 64.337293 281.427348 
L 64.65554 278.95119 
L 64.998532 276.478338 
L 65.366234 274.00904 
L 65.758611 271.543542 
L 66.175623 269.082091 
L 66.617229 266.624933 
L 66.94611 264.880819 
L 59.363717 263.423102 
L 59.024664 265.221158 
L 58.569401 267.75431 
L 58.139491 270.291888 
L 57.734979 272.833639 
L 57.355904 275.379307 
L 57.002304 277.928639 
L 56.674215 280.481379 
L 56.371669 283.037273 
L 56.094696 285.596064 
L 55.843326 288.157497 
L 55.617581 290.721315 
L 55.417486 293.287263 
L 55.243059 295.855083 
L 55.094319 298.424519 
L 54.971281 300.995314 
L 54.873956 303.567211 
L 54.802354 306.139952 
L 54.756484 308.713281 
L 54.736348 311.28694 
L 54.741949 313.860671 
L 54.773287 316.434218 
L 54.830359 319.007323 
L 54.913158 321.579728 
L 55.021677 324.151177 
L 55.155904 326.721412 
L 55.315827 329.290177 
L 55.501429 331.857213 
L 55.712691 334.422266 
L 55.949593 336.985077 
L 56.212111 339.545392 
L 56.500218 342.102953 
L 56.813887 344.657505 
L 57.153084 347.208793 
L 57.517777 349.756562 
L 57.90793 352.300556 
L 58.323502 354.840521 
L 58.764452 357.376204 
L 59.230737 359.907351 
L 59.72231 362.433708 
L 60.239121 364.955024 
L 60.78112 367.471045 
L 61.34825 369.981521 
L 61.940457 372.4862 
L 62.557681 374.984831 
L 63.19986 377.477166 
L 63.866929 379.962954 
L 64.558823 382.441948 
L 65.275471 384.913899 
L 66.016803 387.378559 
L 66.782744 389.835684 
L 67.573217 392.285026 
L 68.388144 394.726341 
L 69.227443 397.159385 
L 70.09103 399.583914 
L 70.978819 401.999687 
L 71.890721 404.406461 
L 72.826644 406.803995 
L 73.786496 409.192051 
L 74.770179 411.570389 
L 75.777597 413.938771 
L 76.808648 416.296961 
L 77.863228 418.644723 
L 78.941233 420.981822 
L 80.042555 423.308024 
L 81.167083 425.623097 
L 82.314706 427.926808 
L 83.485307 430.218929 
L 84.678771 432.499229 
L 85.894978 434.767481 
L 87.133807 437.023457 
L 88.395133 439.266933 
L 89.67883 441.497683 
L 90.98477 443.715485 
L 92.312822 445.920117 
L 93.662854 448.111359 
L 95.034731 450.288991 
L 96.428314 452.452795 
L 97.843466 454.602556 
L 99.280045 456.738057 
L 105.664948 452.396326 
z
" clip-path="url(#p77be6099f6)" style="fill: none; stroke: #000000; stroke-width: 0.5; stroke-linejoin: miter"/>
   </g>
   <g id="patch_20">
    <path d="M 71.986932 243.692719 
L 72.682136 241.294943 
L 73.401283 238.904239 
L 74.1443 236.520845 
L 74.911114 234.145001 
L 75.701648 231.776944 
L 76.515822 229.41691 
L 77.353555 227.065135 
L 78.214764 224.721856 
L 79.099363 222.387305 
L 80.007262 220.061718 
L 80.25327 219.44316 
L 73.082438 216.580155 
L 72.828822 217.217843 
L 71.892843 219.615356 
L 70.980886 222.022109 
L 70.093042 224.437861 
L 69.229399 226.862371 
L 68.390044 229.295395 
L 67.575061 231.736692 
L 66.784532 234.186016 
L 66.018534 236.643122 
L 65.277146 239.107766 
L 64.560441 241.5797 
L 71.986932 243.692719 
z
" clip-path="url(#p77be6099f6)" style="fill: none; stroke: #000000; stroke-width: 0.5; stroke-linejoin: miter"/>
   </g>
   <g id="patch_21">
    <path d="M 89.203606 199.587759 
L 90.338992 197.364352 
L 91.496554 195.15241 
L 92.676178 192.952154 
L 93.877745 190.763804 
L 95.101135 188.587578 
L 96.346226 186.423696 
L 97.612893 184.272372 
L 98.901009 182.133822 
L 100.210446 180.00826 
L 101.541073 177.895898 
L 102.892757 175.796948 
L 104.234595 173.757869 
L 97.805454 169.481917 
L 96.422116 171.58406 
L 95.028627 173.747926 
L 93.656847 175.925618 
L 92.306912 178.116919 
L 90.978957 180.32161 
L 89.673114 182.53947 
L 88.389516 184.770277 
L 87.128289 187.013808 
L 85.88956 189.269839 
L 84.673453 191.538144 
L 83.48009 193.818497 
L 82.309589 196.110669 
L 89.203606 199.587759 
z
" clip-path="url(#p77be6099f6)" style="fill: none; stroke: #000000; stroke-width: 0.5; stroke-linejoin: miter"/>
   </g>
   <g id="patch_22">
    <path d="M 117.075411 156.166425 
L 118.643609 154.223903 
L 120.231153 152.297159 
L 121.837886 150.386387 
L 123.463645 148.491777 
L 125.108269 146.613519 
L 126.771593 144.751801 
L 128.190591 143.192732 
L 122.502357 137.971466 
L 121.039473 139.578754 
L 119.324706 141.498051 
L 117.629217 143.434399 
L 115.953176 145.387605 
L 114.296751 147.357473 
L 112.660107 149.343807 
L 111.043408 151.346408 
L 117.075411 156.166425 
z
" clip-path="url(#p77be6099f6)" style="fill: none; stroke: #000000; stroke-width: 0.5; stroke-linejoin: miter"/>
   </g>
   <g id="patch_23">
    <path d="M 143.604174 127.8055 
L 145.454651 126.129679 
L 147.321792 124.472446 
L 149.205412 122.833966 
L 150.005606 122.147848 
L 144.992063 116.275709 
L 144.167121 116.983048 
L 142.225245 118.672202 
L 140.300357 120.380689 
L 138.392649 122.10834 
L 143.604174 127.8055 
z
" clip-path="url(#p77be6099f6)" style="fill: none; stroke: #000000; stroke-width: 0.5; stroke-linejoin: miter"/>
   </g>
   <g id="patch_24">
    <path d="M 167.170359 108.742002 
L 169.210289 107.302791 
L 171.264508 105.884052 
L 173.332812 104.485925 
L 175.414994 103.108551 
L 177.510845 101.752068 
L 179.620156 100.41661 
L 181.742716 99.102312 
L 183.878312 97.809305 
L 186.026731 96.537718 
L 188.187759 95.287678 
L 190.361179 94.059311 
L 192.546774 92.852739 
L 194.744325 91.668083 
L 196.953612 90.505462 
L 199.174415 89.364991 
L 201.406511 88.246785 
L 203.649678 87.150955 
L 205.90369 86.077611 
L 208.168324 85.026861 
L 210.443351 83.998809 
L 211.660761 83.45988 
L 208.554078 76.391206 
L 207.299017 76.946803 
L 204.953628 78.00665 
L 202.618954 79.089898 
L 200.29523 80.196438 
L 197.982687 81.326159 
L 195.681557 82.478949 
L 193.392069 83.654692 
L 191.114453 84.853271 
L 188.848937 86.074566 
L 186.595747 87.318455 
L 184.355108 88.584813 
L 182.127244 89.873513 
L 179.912379 91.184428 
L 177.710733 92.517425 
L 175.522527 93.872371 
L 173.34798 95.249132 
L 171.187309 96.647568 
L 169.04073 98.067542 
L 166.908457 99.508909 
L 164.790705 100.971527 
L 162.687685 102.455249 
L 167.170359 108.742002 
z
" clip-path="url(#p77be6099f6)" style="fill: none; stroke: #000000; stroke-width: 0.5; stroke-linejoin: miter"/>
   </g>
   <g id="patch_25">
    <path d="M 231.962776 75.574854 
L 234.331132 74.785216 
L 236.707266 74.0193 
L 239.09094 73.277183 
L 241.481916 72.55894 
L 243.879955 71.864642 
L 246.284817 71.194358 
L 248.696261 70.548157 
L 251.114046 69.926102 
L 253.537931 69.328255 
L 255.967674 68.754677 
L 258.40303 68.205424 
L 260.843757 67.680552 
L 263.289611 67.180113 
L 265.740347 66.704157 
L 268.195719 66.252732 
L 270.655483 65.825883 
L 273.119393 65.423653 
L 275.587202 65.046081 
L 278.058662 64.693206 
L 280.533528 64.365062 
L 283.011552 64.061684 
L 285.492485 63.7831 
L 287.976081 63.529339 
L 290.351413 63.310085 
L 289.678462 55.618221 
L 287.229666 55.844257 
L 284.669258 56.105866 
L 282.111595 56.393066 
L 279.556932 56.705827 
L 277.005523 57.044119 
L 274.457626 57.407908 
L 271.913493 57.797157 
L 269.37338 58.211828 
L 266.837541 58.651879 
L 264.306229 59.117265 
L 261.779697 59.607941 
L 259.258198 60.123858 
L 256.741985 60.664963 
L 254.231308 61.231203 
L 251.726419 61.822521 
L 249.227569 62.438857 
L 246.735006 63.080151 
L 244.248981 63.746339 
L 241.769742 64.437352 
L 239.297537 65.153123 
L 236.832614 65.89358 
L 234.375218 66.658649 
L 231.925595 67.448253 
L 229.483991 68.262314 
L 231.962776 75.574854 
z
" clip-path="url(#p77be6099f6)" style="fill: none; stroke: #000000; stroke-width: 0.5; stroke-linejoin: miter"/>
   </g>
   <g id="text_1">
    <text style="font: 10px 'DejaVu Sans', 'Bitstream Vera Sans', 'Computer Modern Sans Serif', 'Lucida Grande', 'Verdana', 'Geneva', 'Lucid', 'Arial', 'Helvetica', 'Avant Garde', sans-serif; text-anchor: middle" x="437.648338" y="70.352489" transform="rotate(-332.54902 437.648338 70.352489)">CA1v</text>
   </g>
   <g id="text_2">
    <text style="font: 10px 'DejaVu Sans', 'Bitstream Vera Sans', 'Computer Modern Sans Serif', 'Lucida Grande', 'Verdana', 'Geneva', 'Lucid', 'Arial', 'Helvetica', 'Avant Garde', sans-serif; text-anchor: middle" x="588.810407" y="337.176267" transform="rotate(-84.803922 588.810407 337.176267)">SUBv</text>
   </g>
   <g id="text_3">
    <text style="font: 10px 'DejaVu Sans', 'Bitstream Vera Sans', 'Computer Modern Sans Serif', 'Lucida Grande', 'Verdana', 'Geneva', 'Lucid', 'Arial', 'Helvetica', 'Avant Garde', sans-serif; text-anchor: middle" x="492.879256" y="523.008259" transform="rotate(-40.588235 492.879256 523.008259)">AAA</text>
   </g>
   <g id="text_4">
    <text style="font: 10px 'DejaVu Sans', 'Bitstream Vera Sans', 'Computer Modern Sans Serif', 'Lucida Grande', 'Verdana', 'Geneva', 'Lucid', 'Arial', 'Helvetica', 'Avant Garde', sans-serif; text-anchor: middle" x="406.690837" y="573.261978" transform="rotate(-19.901961 406.690837 573.261978)">MEA</text>
   </g>
   <g id="text_5">
    <text style="font: 10px 'DejaVu Sans', 'Bitstream Vera Sans', 'Computer Modern Sans Serif', 'Lucida Grande', 'Verdana', 'Geneva', 'Lucid', 'Arial', 'Helvetica', 'Avant Garde', sans-serif; text-anchor: middle" x="199.883931" y="566.181838" transform="rotate(-336.176471 199.883931 566.181838)">BST</text>
   </g>
   <g id="text_6">
    <text style="font: 10px 'DejaVu Sans', 'Bitstream Vera Sans', 'Computer Modern Sans Serif', 'Lucida Grande', 'Verdana', 'Geneva', 'Lucid', 'Arial', 'Helvetica', 'Avant Garde', sans-serif; text-anchor: middle" x="40.008186" y="368.198205" transform="rotate(-281.666667 40.008186 368.198205)">BLA</text>
   </g>
   <g id="text_7">
    <text style="font: 10px 'DejaVu Sans', 'Bitstream Vera Sans', 'Computer Modern Sans Serif', 'Lucida Grande', 'Verdana', 'Geneva', 'Lucid', 'Arial', 'Helvetica', 'Avant Garde', sans-serif; text-anchor: middle" x="54.351602" y="224.147361" transform="rotate(-71.176471 54.351602 224.147361)">IA</text>
   </g>
   <g id="text_8">
    <text style="font: 10px 'DejaVu Sans', 'Bitstream Vera Sans', 'Computer Modern Sans Serif', 'Lucida Grande', 'Verdana', 'Geneva', 'Lucid', 'Arial', 'Helvetica', 'Avant Garde', sans-serif; text-anchor: middle" x="76.738646" y="175.045743" transform="rotate(-59.803922 76.738646 175.045743)">CA3</text>
   </g>
   <g id="text_9">
    <text style="font: 10px 'DejaVu Sans', 'Bitstream Vera Sans', 'Computer Modern Sans Serif', 'Lucida Grande', 'Verdana', 'Geneva', 'Lucid', 'Arial', 'Helvetica', 'Avant Garde', sans-serif; text-anchor: middle" x="105.306531" y="134.835168" transform="rotate(-49.411765 105.306531 134.835168)">CA2</text>
   </g>
   <g id="text_10">
    <text style="font: 10px 'DejaVu Sans', 'Bitstream Vera Sans', 'Computer Modern Sans Serif', 'Lucida Grande', 'Verdana', 'Geneva', 'Lucid', 'Arial', 'Helvetica', 'Avant Garde', sans-serif; text-anchor: middle" x="131.768024" y="107.962998" transform="rotate(-41.470588 131.768024 107.962998)">CA1d</text>
   </g>
   <g id="text_11">
    <text style="font: 10px 'DejaVu Sans', 'Bitstream Vera Sans', 'Computer Modern Sans Serif', 'Lucida Grande', 'Verdana', 'Geneva', 'Lucid', 'Arial', 'Helvetica', 'Avant Garde', sans-serif; text-anchor: middle" x="177.565884" y="75.248385" transform="rotate(-29.607843 177.565884 75.248385)">PAR</text>
   </g>
   <g id="text_12">
    <text style="font: 10px 'DejaVu Sans', 'Bitstream Vera Sans', 'Computer Modern Sans Serif', 'Lucida Grande', 'Verdana', 'Geneva', 'Lucid', 'Arial', 'Helvetica', 'Avant Garde', sans-serif; text-anchor: middle" x="256.129237" y="45.50645" transform="rotate(-11.862745 256.129237 45.50645)">CEA</text>
   </g>
  </g>
 </g>
 <defs>
  <clipPath id="p77be6099f6">
   <path d="M 582.353733 312.013667 
C 582.353733 276.525606 575.363359 241.382621 561.782666 208.595928 
C 548.201973 175.809234 528.295071 146.01645 503.201222 120.922602 
C 478.107374 95.828753 448.31459 75.921851 415.527896 62.341158 
C 382.741203 48.760465 347.598218 41.770091 312.110157 41.770091 
C 276.622095 41.770091 241.479111 48.760465 208.692417 62.341158 
C 175.905724 75.921851 146.11294 95.828753 121.019091 120.922602 
C 95.925242 146.01645 76.018341 175.809234 62.437647 208.595928 
C 48.856954 241.382621 41.86658 276.525606 41.86658 312.013667 
C 41.86658 347.501729 48.856954 382.644713 62.437647 415.431407 
C 76.018341 448.2181 95.925242 478.010884 121.019091 503.104733 
C 146.11294 528.198582 175.905724 548.105483 208.692417 561.686177 
C 241.479111 575.26687 276.622095 582.257244 312.110157 582.257244 
C 347.598218 582.257244 382.741203 575.26687 415.527896 561.686177 
C 448.31459 548.105483 478.107374 528.198582 503.201222 503.104733 
C 528.295071 478.010884 548.201973 448.2181 561.782666 415.431407 
C 575.363359 382.644713 582.353733 347.501729 582.353733 312.013667 
M 312.110157 312.013667 
C 312.110157 312.013667 312.110157 312.013667 312.110157 312.013667 
C 312.110157 312.013667 312.110157 312.013667 312.110157 312.013667 
C 312.110157 312.013667 312.110157 312.013667 312.110157 312.013667 
C 312.110157 312.013667 312.110157 312.013667 312.110157 312.013667 
C 312.110157 312.013667 312.110157 312.013667 312.110157 312.013667 
C 312.110157 312.013667 312.110157 312.013667 312.110157 312.013667 
C 312.110157 312.013667 312.110157 312.013667 312.110157 312.013667 
C 312.110157 312.013667 312.110157 312.013667 312.110157 312.013667 
C 312.110157 312.013667 312.110157 312.013667 312.110157 312.013667 
C 312.110157 312.013667 312.110157 312.013667 312.110157 312.013667 
C 312.110157 312.013667 312.110157 312.013667 312.110157 312.013667 
C 312.110157 312.013667 312.110157 312.013667 312.110157 312.013667 
C 312.110157 312.013667 312.110157 312.013667 312.110157 312.013667 
C 312.110157 312.013667 312.110157 312.013667 312.110157 312.013667 
C 312.110157 312.013667 312.110157 312.013667 312.110157 312.013667 
C 312.110157 312.013667 312.110157 312.013667 312.110157 312.013667 
z
"/>
  </clipPath>
 </defs>
</svg>
