<?xml version="1.0" encoding="utf-8" standalone="no"?>
<!DOCTYPE svg PUBLIC "-//W3C//DTD SVG 1.1//EN"
  "http://www.w3.org/Graphics/SVG/1.1/DTD/svg11.dtd">
<svg xmlns:xlink="http://www.w3.org/1999/xlink" width="628.937511pt" height="625.371616pt" viewBox="0 0 628.937511 625.371616" xmlns="http://www.w3.org/2000/svg" version="1.1">
 <metadata>
  <rdf:RDF xmlns:dc="http://purl.org/dc/elements/1.1/" xmlns:cc="http://creativecommons.org/ns#" xmlns:rdf="http://www.w3.org/1999/02/22-rdf-syntax-ns#">
   <cc:Work>
    <dc:type rdf:resource="http://purl.org/dc/dcmitype/StillImage"/>
    <dc:date>2024-12-11T15:02:09.229782</dc:date>
    <dc:format>image/svg+xml</dc:format>
    <dc:creator>
     <cc:Agent>
      <dc:title>Matplotlib v3.9.3, https://matplotlib.org/</dc:title>
     </cc:Agent>
    </dc:creator>
   </cc:Work>
  </rdf:RDF>
 </metadata>
 <defs>
  <style type="text/css">*{stroke-linejoin: round; stroke-linecap: butt}</style>
 </defs>
 <g id="figure_1">
  <g id="patch_1">
   <path d="M 0 625.371616 
L 628.937511 625.371616 
L 628.937511 0 
L 0 0 
z
" style="fill: #ffffff"/>
  </g>
  <g id="axes_1">
   <g id="patch_2">
    <path d="M 314.280134 62.347993 
L 316.763603 62.36041 
L 319.246823 62.397661 
L 321.729546 62.459742 
L 324.211525 62.546647 
L 326.69251 62.658367 
L 329.172254 62.79489 
L 331.650509 62.956204 
L 334.127027 63.142292 
L 336.60156 63.353135 
L 339.073861 63.588713 
L 341.543683 63.849002 
L 344.010778 64.133975 
L 346.4749 64.443605 
L 348.935803 64.77786 
L 351.393241 65.136706 
L 353.846967 65.520109 
L 356.296736 65.92803 
L 358.742304 66.360427 
L 361.183425 66.817258 
L 363.619857 67.298477 
L 366.051354 67.804036 
L 368.477674 68.333885 
L 370.898575 68.887969 
L 373.313814 69.466235 
L 375.723149 70.068623 
L 378.126341 70.695074 
L 380.523147 71.345526 
L 382.91333 72.019913 
L 385.296649 72.718167 
L 387.672866 73.440219 
L 390.041745 74.185997 
L 392.403047 74.955426 
L 394.756537 75.748429 
L 397.10198 76.564927 
L 399.43914 77.404839 
L 401.767784 78.268079 
L 404.08768 79.154562 
L 406.398595 80.0642 
L 408.700299 80.996901 
L 410.99256 81.952572 
L 413.27515 82.931117 
L 415.547841 83.932439 
L 417.810405 84.956438 
L 420.062617 86.00301 
L 422.30425 87.072052 
L 424.53508 88.163456 
L 426.754886 89.277114 
L 428.963444 90.412914 
L 431.160534 91.570742 
L 433.345935 92.750483 
L 435.519431 93.952018 
L 437.680802 95.175228 
L 439.829834 96.419991 
L 441.96631 97.686181 
L 444.090018 98.973672 
L 446.200746 100.282335 
L 448.298281 101.61204 
L 450.382415 102.962653 
L 452.452938 104.33404 
L 454.509644 105.726063 
L 456.552328 107.138584 
L 458.580784 108.57146 
L 460.594811 110.024548 
L 462.594206 111.497705 
L 464.57877 112.99078 
L 466.548304 114.503627 
L 468.502611 116.036093 
L 470.441496 117.588025 
L 472.364765 119.159268 
L 474.272226 120.749665 
L 476.163688 122.359057 
L 478.038962 123.987282 
L 479.89786 125.634179 
L 481.740196 127.299582 
L 483.565786 128.983324 
L 485.374448 130.685238 
L 487.166001 132.405153 
L 488.940265 134.142898 
L 490.697064 135.898298 
L 492.43622 137.671178 
L 494.157562 139.46136 
L 495.860916 141.268666 
L 497.546111 143.092915 
L 499.212981 144.933925 
L 500.861357 146.791511 
L 502.491075 148.665487 
L 504.101973 150.555667 
L 505.693888 152.46186 
L 507.266662 154.383878 
L 508.820138 156.321527 
L 510.354159 158.274613 
L 511.868574 160.242942 
L 513.36323 162.226316 
L 514.837978 164.224537 
L 516.29267 166.237406 
L 517.727161 168.264721 
L 519.141307 170.306279 
L 519.242844 170.454557 
L 525.581897 166.117101 
L 525.47722 165.964237 
L 524.019337 163.859538 
L 522.54048 161.769523 
L 521.040797 159.6944 
L 519.520439 157.634378 
L 517.979557 155.589663 
L 516.418305 153.560458 
L 514.836839 151.546967 
L 513.235318 149.549391 
L 511.613901 147.567929 
L 509.972751 145.602781 
L 508.312032 143.654142 
L 506.63191 141.722208 
L 504.932553 139.807171 
L 503.214131 137.909223 
L 501.476816 136.028554 
L 499.720781 134.165352 
L 497.946202 132.319803 
L 496.153257 130.492091 
L 494.342125 128.682401 
L 492.512987 126.890912 
L 490.666025 125.117803 
L 488.801425 123.363253 
L 486.919373 121.627436 
L 485.020057 119.910525 
L 483.103668 118.212694 
L 481.170396 116.534111 
L 479.220435 114.874944 
L 477.253981 113.23536 
L 475.271229 111.615522 
L 473.272378 110.015592 
L 471.257628 108.43573 
L 469.227181 106.876094 
L 467.181239 105.336841 
L 465.120007 103.818123 
L 463.043691 102.320093 
L 460.952499 100.842902 
L 458.846639 99.386695 
L 456.726324 97.95162 
L 454.591763 96.537819 
L 452.443172 95.145434 
L 450.280765 93.774604 
L 448.104757 92.425467 
L 445.915367 91.098156 
L 443.712814 89.792806 
L 441.497318 88.509546 
L 439.2691 87.248505 
L 437.028383 86.009808 
L 434.775391 84.79358 
L 432.51035 83.599943 
L 430.233486 82.429016 
L 427.945027 81.280915 
L 425.645202 80.155756 
L 423.33424 79.053651 
L 421.012373 77.97471 
L 418.679832 76.919041 
L 416.336852 75.886751 
L 413.983666 74.877941 
L 411.62051 73.892713 
L 409.24762 72.931166 
L 406.865233 71.993395 
L 404.473588 71.079495 
L 402.072924 70.189556 
L 399.66348 69.323668 
L 397.245498 68.481918 
L 394.81922 67.664389 
L 392.384887 66.871163 
L 389.942745 66.10232 
L 387.493036 65.357936 
L 385.036006 64.638086 
L 382.5719 63.942842 
L 380.100966 63.272274 
L 377.623449 62.626447 
L 375.139598 62.005428 
L 372.649661 61.409278 
L 370.153887 60.838057 
L 367.652526 60.291822 
L 365.145828 59.770627 
L 362.634043 59.274525 
L 360.117423 58.803565 
L 357.596219 58.357795 
L 355.070683 57.937258 
L 352.541069 57.541997 
L 350.007628 57.172052 
L 347.470615 56.827459 
L 344.930282 56.508253 
L 342.386885 56.214467 
L 339.840677 55.946128 
L 337.291913 55.703264 
L 334.740848 55.4859 
L 332.187737 55.294057 
L 329.632835 55.127754 
L 327.076398 54.987008 
L 324.518681 54.871833 
L 321.95994 54.78224 
L 319.400432 54.718239 
L 316.840411 54.679836 
L 314.280134 54.667035 
z
" clip-path="url(#p6ea34c1971)" style="fill: #000080"/>
   </g>
   <g id="patch_3">
    <path d="M 530.686005 188.851906 
L 531.893635 191.022021 
L 533.079504 193.204104 
L 534.243494 195.397936 
L 535.385487 197.603298 
L 536.505369 199.819969 
L 537.60303 202.047728 
L 538.678358 204.286353 
L 539.731246 206.535618 
L 540.76159 208.7953 
L 541.769286 211.065172 
L 542.754233 213.345007 
L 543.716333 215.634577 
L 544.655489 217.933654 
L 545.571608 220.242008 
L 546.464598 222.559407 
L 547.33437 224.88562 
L 548.180837 227.220414 
L 549.003913 229.563556 
L 549.803518 231.914811 
L 550.57957 234.273945 
L 551.331993 236.640721 
L 552.06071 239.014903 
L 552.76565 241.396253 
L 553.446742 243.784534 
L 554.103917 246.179506 
L 554.737109 248.58093 
L 555.346257 250.988565 
L 555.931298 253.402172 
L 556.492174 255.821508 
L 557.028829 258.246332 
L 557.541209 260.676401 
L 558.029263 263.111472 
L 558.492943 265.551302 
L 558.932202 267.995647 
L 559.346995 270.444262 
L 559.737282 272.896902 
L 560.103024 275.353323 
L 560.444183 277.813278 
L 560.760727 280.276522 
L 561.052622 282.742808 
L 561.319841 285.211889 
L 561.562355 287.68352 
L 561.780142 290.157451 
L 561.973179 292.633437 
L 562.141447 295.11123 
L 562.284929 297.590581 
L 562.40361 300.071243 
L 562.49748 302.552968 
L 562.566527 305.035507 
L 562.610747 307.518613 
L 562.630133 310.002037 
L 562.624685 312.48553 
L 562.594403 314.968845 
L 562.539289 317.451733 
L 562.45935 319.933945 
L 562.354593 322.415234 
L 562.225028 324.895352 
L 562.07067 327.374049 
L 561.891532 329.85108 
L 561.687634 332.326195 
L 561.458995 334.799147 
L 561.205639 337.26969 
L 560.92759 339.737575 
L 560.624876 342.202557 
L 560.297528 344.664388 
L 559.945579 347.122823 
L 559.569063 349.577615 
L 559.168019 352.028519 
L 558.742486 354.475291 
L 558.292507 356.917685 
L 557.818127 359.355457 
L 557.319394 361.788364 
L 556.796356 364.216161 
L 556.249068 366.638607 
L 555.677582 369.055459 
L 555.081957 371.466476 
L 554.462253 373.871415 
L 553.81853 376.270038 
L 553.150853 378.662103 
L 552.45929 381.047373 
L 551.743908 383.425607 
L 551.004781 385.796569 
L 550.241981 388.160021 
L 549.455586 390.515727 
L 548.645673 392.863452 
L 547.812324 395.20296 
L 546.955621 397.534018 
L 546.075652 399.856392 
L 545.172503 402.169851 
L 544.246264 404.474163 
L 543.29703 406.769097 
L 542.324894 409.054424 
L 541.329954 411.329916 
L 540.312309 413.595345 
L 539.27206 415.850484 
L 538.209313 418.095108 
L 537.124173 420.328993 
L 536.016749 422.551915 
L 534.887152 424.763651 
L 533.735494 426.963982 
L 532.56189 429.152685 
L 531.366459 431.329544 
L 530.149319 433.49434 
L 528.910592 435.646856 
L 527.650403 437.786877 
L 527.51512 438.013731 
L 534.110017 441.951301 
L 534.249483 441.717431 
L 535.548648 439.511223 
L 536.825686 437.292135 
L 538.080469 435.060387 
L 539.312872 432.816202 
L 540.522773 430.559807 
L 541.710049 428.291425 
L 542.874583 426.011284 
L 544.016257 423.719612 
L 545.134958 421.416638 
L 546.230574 419.102593 
L 547.302994 416.777707 
L 548.352113 414.442213 
L 549.377825 412.096345 
L 550.380027 409.740338 
L 551.358619 407.374426 
L 552.313504 404.998847 
L 553.244585 402.613838 
L 554.15177 400.219638 
L 555.034969 397.816485 
L 555.894092 395.404621 
L 556.729053 392.984287 
L 557.539771 390.555724 
L 558.326162 388.119175 
L 559.088149 385.674885 
L 559.825655 383.223097 
L 560.538607 380.764056 
L 561.226934 378.298009 
L 561.890565 375.825202 
L 562.529436 373.345883 
L 563.143483 370.860299 
L 563.732643 368.368699 
L 564.296858 365.871332 
L 564.836072 363.368448 
L 565.35023 360.860297 
L 565.839282 358.34713 
L 566.303178 355.829198 
L 566.741871 353.306753 
L 567.155319 350.780047 
L 567.543479 348.249333 
L 567.906314 345.714865 
L 568.243786 343.176894 
L 568.555861 340.635676 
L 568.84251 338.091465 
L 569.103702 335.544514 
L 569.339412 332.995078 
L 569.549617 330.443413 
L 569.734295 327.889774 
L 569.893427 325.334415 
L 570.026999 322.777593 
L 570.134996 320.219563 
L 570.217407 317.660581 
L 570.274226 315.100903 
L 570.305445 312.540785 
L 570.311061 309.980482 
L 570.291075 307.420251 
L 570.245488 304.860349 
L 570.174305 302.30103 
L 570.077532 299.74255 
L 569.95518 297.185167 
L 569.80726 294.629135 
L 569.633789 292.07471 
L 569.434781 289.522147 
L 569.210259 286.971702 
L 568.960244 284.423629 
L 568.684761 281.878184 
L 568.383838 279.335622 
L 568.057505 276.796195 
L 567.705794 274.260159 
L 567.328741 271.727766 
L 566.926383 269.199271 
L 566.49876 266.674926 
L 566.045916 264.154982 
L 565.567896 261.639694 
L 565.064747 259.129311 
L 564.53652 256.624085 
L 563.983268 254.124267 
L 563.405045 251.630106 
L 562.80191 249.141852 
L 562.173923 246.659753 
L 561.521147 244.184058 
L 560.843647 241.715015 
L 560.141491 239.25287 
L 559.414749 236.79787 
L 558.663494 234.35026 
L 557.8878 231.910284 
L 557.087746 229.478188 
L 556.263412 227.054213 
L 555.414879 224.638603 
L 554.542233 222.231598 
L 553.645561 219.833441 
L 552.724953 217.44437 
L 551.7805 215.064624 
L 550.812298 212.694442 
L 549.820442 210.33406 
L 548.805033 207.983714 
L 547.766171 205.64364 
L 546.703961 203.314071 
L 545.618509 200.995241 
L 544.509923 198.687381 
L 543.378315 196.390722 
L 542.223796 194.105493 
L 541.046484 191.831924 
L 539.846495 189.570242 
L 538.62395 187.320672 
L 537.37897 185.08344 
z
" clip-path="url(#p6ea34c1971)" style="fill: #0000e8"/>
   </g>
   <g id="patch_4">
    <path d="M 515.607484 456.113914 
L 514.143293 458.119883 
L 512.659115 460.11111 
L 511.1551 462.087397 
L 509.631397 464.048544 
L 508.088159 465.994357 
L 506.525541 467.92464 
L 504.943698 469.839201 
L 503.342789 471.737848 
L 501.722974 473.620391 
L 500.084415 475.486642 
L 498.427276 477.336415 
L 496.751722 479.169523 
L 495.057921 480.985785 
L 493.346042 482.785019 
L 491.616257 484.567044 
L 489.868739 486.331682 
L 488.103662 488.078758 
L 486.321202 489.808095 
L 484.521539 491.519522 
L 482.704851 493.212866 
L 480.871322 494.88796 
L 479.021133 496.544634 
L 477.15447 498.182725 
L 475.27152 499.802067 
L 473.372471 501.402499 
L 471.457513 502.983861 
L 469.526838 504.545994 
L 467.580638 506.088743 
L 465.619107 507.611953 
L 463.642443 509.115472 
L 461.650843 510.599149 
L 459.644507 512.062837 
L 457.623633 513.506388 
L 455.588426 514.929659 
L 453.539088 516.332507 
L 451.475824 517.714792 
L 449.39884 519.076375 
L 447.308345 520.417121 
L 445.204547 521.736895 
L 443.087657 523.035566 
L 441.826673 523.795399 
L 445.771411 530.38601 
L 447.071395 529.602677 
L 449.253756 528.263841 
L 451.422619 526.903249 
L 453.577769 525.521037 
L 455.718989 524.117343 
L 457.846065 522.692307 
L 459.958785 521.246072 
L 462.056937 519.778783 
L 464.140312 518.290585 
L 466.2087 516.781629 
L 468.261896 515.252065 
L 470.299694 513.702045 
L 472.32189 512.131726 
L 474.328282 510.541263 
L 476.318669 508.930816 
L 478.292853 507.300546 
L 480.250635 505.650616 
L 482.191821 503.981191 
L 484.116215 502.292439 
L 486.023626 500.584526 
L 487.913863 498.857626 
L 489.786737 497.11191 
L 491.64206 495.347552 
L 493.479647 493.56473 
L 495.299314 491.763622 
L 497.10088 489.944407 
L 498.884163 488.107268 
L 500.648987 486.252388 
L 502.395173 484.379953 
L 504.122548 482.49015 
L 505.830939 480.583168 
L 507.520176 478.659198 
L 509.190088 476.718432 
L 510.84051 474.761064 
L 512.471275 472.78729 
L 514.082222 470.797307 
L 515.673189 468.791314 
L 517.244016 466.769513 
L 518.794547 464.732104 
L 520.324627 462.679293 
L 521.834103 460.611283 
z
" clip-path="url(#p6ea34c1971)" style="fill: #0038ff"/>
   </g>
   <g id="patch_5">
    <path d="M 422.768742 534.100916 
L 420.529335 535.174614 
L 418.279304 536.225865 
L 416.018873 537.254563 
L 413.748268 538.260606 
L 411.467716 539.243892 
L 409.177445 540.204325 
L 406.877685 541.141807 
L 404.568665 542.056245 
L 402.250617 542.947548 
L 399.923771 543.815625 
L 397.588361 544.660392 
L 395.244621 545.481762 
L 392.892784 546.279655 
L 390.533086 547.053989 
L 388.165762 547.804688 
L 385.79105 548.531677 
L 383.409187 549.234883 
L 381.020412 549.914235 
L 378.624962 550.569666 
L 376.223078 551.20111 
L 373.814999 551.808504 
L 371.400967 552.391788 
L 368.981223 552.950902 
L 366.556009 553.485791 
L 364.125568 553.996402 
L 361.690142 554.482683 
L 359.249975 554.944586 
L 356.805311 555.382065 
L 354.356395 555.795076 
L 351.903471 556.183577 
L 350.811681 556.348423 
L 351.941522 563.945829 
L 353.067079 563.775884 
L 355.595867 563.375367 
L 358.120523 562.949583 
L 360.640795 562.498574 
L 363.156431 562.022386 
L 365.667179 561.521065 
L 368.172789 560.994662 
L 370.67301 560.44323 
L 373.167591 559.866823 
L 375.656284 559.2655 
L 378.138839 558.639321 
L 380.615008 557.988347 
L 383.084544 557.312645 
L 385.547199 556.612282 
L 388.002728 555.887328 
L 390.450885 555.137855 
L 392.891424 554.363938 
L 395.324103 553.565655 
L 397.748677 552.743086 
L 400.164905 551.896312 
L 402.572544 551.025419 
L 404.971353 550.130493 
L 407.361094 549.211625 
L 409.741527 548.268905 
L 412.112414 547.302429 
L 414.473517 546.312292 
L 416.824602 545.298594 
L 419.165432 544.261437 
L 421.495773 543.200923 
L 423.815393 542.11716 
L 426.12406 541.010255 
z
" clip-path="url(#p6ea34c1971)" style="fill: #0094ff"/>
   </g>
   <g id="patch_6">
    <path d="M 329.262906 558.597587 
L 326.783212 558.735017 
L 324.302268 558.847644 
L 321.820322 558.935456 
L 319.337621 558.998445 
L 316.854415 559.036604 
L 314.370951 559.04993 
L 311.887478 559.038421 
L 309.404245 559.002078 
L 306.921499 558.940905 
L 304.439489 558.854907 
L 301.958463 558.744095 
L 299.478669 558.608478 
L 297.000356 558.448071 
L 294.52377 558.262888 
L 292.04916 558.05295 
L 289.576773 557.818276 
L 287.106856 557.558891 
L 284.639656 557.27482 
L 282.175421 556.966091 
L 279.87681 556.655508 
L 278.812789 564.262412 
L 281.182492 564.5826 
L 283.722941 564.900877 
L 286.266445 565.193734 
L 288.812751 565.461141 
L 291.361604 565.703073 
L 293.912748 565.919504 
L 296.465929 566.110414 
L 299.020892 566.275782 
L 301.57738 566.415594 
L 304.135139 566.529833 
L 306.693912 566.61849 
L 309.253444 566.681555 
L 311.813479 566.719022 
L 314.37376 566.730888 
L 316.934032 566.71715 
L 319.494038 566.67781 
L 322.053523 566.612873 
L 324.612231 566.522345 
L 327.169906 566.406235 
L 329.726291 566.264554 
z
" clip-path="url(#p6ea34c1971)" style="fill: #0cf4eb"/>
   </g>
   <g id="patch_7">
    <path d="M 258.5712 552.721122 
L 256.153804 552.151941 
L 253.742221 551.558615 
L 251.336691 550.941203 
L 248.937456 550.299767 
L 246.544755 549.634371 
L 244.158828 548.945082 
L 241.779913 548.231969 
L 239.408247 547.495102 
L 237.044069 546.734556 
L 234.687614 545.950406 
L 232.339118 545.142732 
L 229.998817 544.311613 
L 227.666943 543.457134 
L 225.343731 542.579378 
L 223.029413 541.678435 
L 220.724219 540.754394 
L 218.428381 539.807348 
L 216.142128 538.837391 
L 213.865688 537.844621 
L 211.59929 536.829136 
L 209.34316 535.791038 
L 207.097524 534.730431 
L 204.862606 533.647422 
L 202.638629 532.542117 
L 200.425817 531.414629 
L 198.22439 530.265069 
L 196.034568 529.093552 
L 193.856571 527.900197 
L 191.690616 526.685121 
L 189.53692 525.448447 
L 187.395698 524.190299 
L 185.267164 522.910801 
L 183.151532 521.610082 
L 181.049013 520.288273 
L 178.959816 518.945504 
L 176.884151 517.581911 
L 174.822226 516.19763 
L 172.774247 514.7928 
L 170.740417 513.36756 
L 168.720942 511.922053 
L 166.716023 510.456424 
L 164.72586 508.97082 
L 162.750652 507.465389 
L 160.790597 505.940281 
L 158.845891 504.395649 
L 156.916728 502.831648 
L 155.003301 501.248434 
L 153.105802 499.646164 
L 151.22442 498.025001 
L 149.359344 496.385104 
L 147.51076 494.72664 
L 145.678852 493.049773 
L 143.863804 491.35467 
L 142.065798 489.641503 
L 140.285013 487.910441 
L 138.521628 486.161658 
L 136.775818 484.395329 
L 135.047758 482.611631 
L 133.337622 480.810742 
L 131.64558 478.992841 
L 129.971801 477.158111 
L 128.316452 475.306736 
L 126.6797 473.4389 
L 125.061708 471.55479 
L 123.462637 469.654594 
L 121.882649 467.738504 
L 120.321899 465.806709 
L 118.780545 463.859403 
L 117.258742 461.896782 
L 115.75664 459.919041 
L 114.27439 457.926378 
L 112.81214 455.918993 
L 111.370038 453.897086 
L 109.948226 451.860859 
L 108.546847 449.810516 
L 107.166041 447.746262 
L 105.805947 445.668303 
L 104.4667 443.576847 
L 103.148434 441.472104 
L 101.851281 439.354284 
L 100.57537 437.223598 
L 99.32083 435.08026 
L 98.087786 432.924483 
L 96.876361 430.756485 
L 95.686676 428.57648 
L 94.51885 426.384688 
L 93.373 424.181328 
L 92.24924 421.966619 
L 91.147684 419.740784 
L 90.06844 417.504045 
L 89.011618 415.256625 
L 87.977322 412.998749 
L 86.965656 410.730644 
L 85.976722 408.452536 
L 85.010618 406.164652 
L 84.06744 403.867222 
L 83.147284 401.560475 
L 82.25024 399.244642 
L 81.3764 396.919954 
L 80.525849 394.586645 
L 79.698674 392.244947 
L 78.894957 389.895094 
L 78.114778 387.537321 
L 77.358216 385.171865 
L 76.625345 382.798962 
L 75.91624 380.418849 
L 75.230971 378.031764 
L 74.569606 375.637945 
L 73.932213 373.237633 
L 73.318854 370.831067 
L 72.729591 368.418488 
L 72.164483 366.000137 
L 71.623586 363.576255 
L 71.106955 361.147086 
L 70.614641 358.712873 
L 70.146693 356.273858 
L 69.831768 354.553321 
L 62.27151 355.909641 
L 62.596174 357.68339 
L 63.078594 360.197839 
L 63.586135 362.707337 
L 64.118744 365.211635 
L 64.67637 367.710482 
L 65.258956 370.203627 
L 65.866443 372.690822 
L 66.498772 375.171818 
L 67.155879 377.646367 
L 67.837698 380.114221 
L 68.544161 382.575134 
L 69.275197 385.028859 
L 70.030734 387.475151 
L 70.810695 389.913765 
L 71.615003 392.344458 
L 72.443578 394.766987 
L 73.296335 397.181109 
L 74.173192 399.586583 
L 75.074058 401.983168 
L 75.998845 404.370624 
L 76.94746 406.748714 
L 77.919808 409.117199 
L 78.915792 411.475842 
L 79.935312 413.824407 
L 80.978266 416.16266 
L 82.04455 418.490367 
L 83.134058 420.807294 
L 84.24668 423.113211 
L 85.382306 425.407887 
L 86.54082 427.691092 
L 87.722109 429.962597 
L 88.926053 432.222177 
L 90.152533 434.469604 
L 91.401425 436.704654 
L 92.672604 438.927104 
L 93.965945 441.136731 
L 95.281316 443.333314 
L 96.618587 445.516634 
L 97.977624 447.686472 
L 99.358292 449.842612 
L 100.760451 451.984838 
L 102.183962 454.112935 
L 103.628682 456.22669 
L 105.094468 458.325893 
L 106.581172 460.410334 
L 108.088645 462.479803 
L 109.616738 464.534095 
L 111.165296 466.573003 
L 112.734166 468.596324 
L 114.323191 470.603855 
L 115.932211 472.595396 
L 117.561065 474.570748 
L 119.209592 476.529712 
L 120.877625 478.472094 
L 122.564998 480.397698 
L 124.271543 482.306332 
L 125.997088 484.197806 
L 127.741462 486.071931 
L 129.504489 487.928518 
L 131.285994 489.767382 
L 133.085798 491.588339 
L 134.903721 493.391208 
L 136.739582 495.175808 
L 138.593196 496.94196 
L 140.464379 498.689488 
L 142.352944 500.418217 
L 144.258701 502.127975 
L 146.18146 503.818589 
L 148.121029 505.489892 
L 150.077214 507.141716 
L 152.049818 508.773896 
L 154.038646 510.386268 
L 156.043498 511.978672 
L 158.064173 513.550948 
L 160.10047 515.102939 
L 162.152184 516.63449 
L 164.219112 518.145448 
L 166.301045 519.635661 
L 168.397776 521.10498 
L 170.509095 522.553259 
L 172.634791 523.980353 
L 174.774651 525.386119 
L 176.928462 526.770416 
L 179.096008 528.133106 
L 181.277073 529.474053 
L 183.471437 530.793123 
L 185.678882 532.090184 
L 187.899188 533.365105 
L 190.132131 534.617761 
L 192.377489 535.848024 
L 194.635037 537.055773 
L 196.904549 538.240886 
L 199.185799 539.403245 
L 201.478559 540.542735 
L 203.782598 541.659239 
L 206.097687 542.752648 
L 208.423594 543.822852 
L 210.760087 544.869744 
L 213.106932 545.893219 
L 215.463894 546.893174 
L 217.830737 547.869511 
L 220.207225 548.82213 
L 222.593121 549.750937 
L 224.988185 550.65584 
L 227.392178 551.536747 
L 229.80486 552.39357 
L 232.22599 553.226224 
L 234.655325 554.034625 
L 237.092622 554.818694 
L 239.537638 555.57835 
L 241.990128 556.313519 
L 244.449847 557.024126 
L 246.916549 557.710101 
L 249.389987 558.371375 
L 251.869914 559.007882 
L 254.356083 559.619559 
L 256.848243 560.206344 
z
" clip-path="url(#p6ea34c1971)" style="fill: #56ffa0"/>
   </g>
   <g id="patch_8">
    <path d="M 66.93981 333.081363 
L 66.728356 330.606881 
L 66.541658 328.13041 
L 66.379733 325.652195 
L 66.242598 323.172484 
L 66.130267 320.691526 
L 66.042751 318.20957 
L 65.980058 315.726862 
L 65.942195 313.243651 
L 65.929165 310.760186 
L 65.94097 308.276714 
L 65.977609 305.793485 
L 66.039078 303.310746 
L 66.125371 300.828747 
L 66.236479 298.347734 
L 66.372392 295.867956 
L 66.533095 293.389662 
L 66.718572 290.913098 
L 66.928806 288.438513 
L 67.163774 285.966154 
L 67.423454 283.496268 
L 67.707819 281.029103 
L 68.016841 278.564904 
L 68.35049 276.103919 
L 68.708731 273.646393 
L 69.091529 271.192573 
L 69.498845 268.742703 
L 69.93064 266.297028 
L 70.386869 263.855794 
L 70.867488 261.419244 
L 71.372448 258.987622 
L 71.604756 257.908172 
L 64.099331 256.275467 
L 63.859839 257.388302 
L 63.339262 259.895129 
L 62.843779 262.407036 
L 62.373439 264.923772 
L 61.92829 267.445086 
L 61.508376 269.970725 
L 61.113739 272.500437 
L 60.744418 275.033969 
L 60.400451 277.571067 
L 60.081871 280.111478 
L 59.788711 282.654947 
L 59.521 285.201221 
L 59.278765 287.750045 
L 59.062029 290.301164 
L 58.870815 292.854322 
L 58.705142 295.409265 
L 58.565026 297.965737 
L 58.450482 300.523482 
L 58.36152 303.082245 
L 58.29815 305.641769 
L 58.260378 308.201799 
L 58.248207 310.762079 
L 58.26164 313.322352 
L 58.300674 315.882363 
L 58.365306 318.441856 
L 58.455529 321.000575 
L 58.571335 323.558263 
L 58.712711 326.114665 
L 58.879643 328.669526 
L 59.072116 331.22259 
L 59.290109 333.773602 
z
" clip-path="url(#p6ea34c1971)" style="fill: #a0ff56"/>
   </g>
   <g id="patch_9">
    <path d="M 77.12923 236.958504 
L 77.87848 234.590722 
L 78.651369 232.23055 
L 79.447822 229.878225 
L 80.267757 227.533982 
L 81.111094 225.198055 
L 81.977747 222.870679 
L 82.86763 220.552085 
L 83.780655 218.242506 
L 84.716729 215.942172 
L 85.675759 213.651314 
L 86.65765 211.370161 
L 87.662302 209.098941 
L 88.689616 206.83788 
L 89.739489 204.587205 
L 90.811816 202.347142 
L 91.90649 200.117914 
L 93.0234 197.899743 
L 93.886311 196.2229 
L 87.070008 192.682403 
L 86.180409 194.411107 
L 85.028954 196.697881 
L 83.900425 198.996055 
L 82.794933 201.305398 
L 81.71259 203.625681 
L 80.653503 205.956672 
L 79.617779 208.298136 
L 78.605521 210.649841 
L 77.61683 213.01155 
L 76.651805 215.383028 
L 75.710543 217.764037 
L 74.793137 220.15434 
L 73.89968 222.553697 
L 73.030261 224.961869 
L 72.184967 227.378614 
L 71.363882 229.803692 
L 70.567088 232.236858 
L 69.794666 234.677871 
z
" clip-path="url(#p6ea34c1971)" style="fill: #ebff0c"/>
   </g>
   <g id="patch_10">
    <path d="M 104.702223 177.449929 
L 106.04517 175.360847 
L 107.408941 173.285299 
L 108.793398 171.223492 
L 110.198404 169.175632 
L 111.623817 167.141925 
L 113.069497 165.122574 
L 114.535297 163.11778 
L 116.021071 161.127743 
L 117.526672 159.152664 
L 119.051947 157.19274 
L 119.279657 156.903581 
L 113.248714 152.147023 
L 113.013962 152.445124 
L 111.441513 154.465665 
L 109.889348 156.501829 
L 108.357621 158.553413 
L 106.846487 160.620211 
L 105.356096 162.702017 
L 103.886598 164.798622 
L 102.438138 166.909817 
L 101.010862 169.035391 
L 99.604914 171.175132 
L 98.220432 173.328824 
z
" clip-path="url(#p6ea34c1971)" style="fill: #ffab00"/>
   </g>
   <g id="patch_11">
    <path d="M 133.425844 140.493407 
L 135.136914 138.693405 
L 136.865898 136.910603 
L 138.612623 135.145179 
L 140.376915 133.397311 
L 142.158597 131.667173 
L 142.291307 131.53968 
L 136.972065 125.998671 
L 136.835251 126.130107 
L 134.998465 127.913755 
L 133.179607 129.715681 
L 131.37886 131.535705 
L 129.596402 133.373645 
L 127.832412 135.229318 
z
" clip-path="url(#p6ea34c1971)" style="fill: #ff5500"/>
   </g>
   <g id="patch_12">
    <path d="M 158.560537 117.231621 
L 160.502964 115.684125 
L 162.460769 114.156129 
L 164.433756 112.647788 
L 166.421727 111.159252 
L 168.424483 109.690669 
L 170.441826 108.242187 
L 172.473552 106.813951 
L 174.519458 105.406103 
L 176.57934 104.018784 
L 178.652993 102.652133 
L 180.740208 101.306286 
L 182.840777 99.981379 
L 184.954489 98.677543 
L 187.081135 97.394909 
L 189.220499 96.133605 
L 191.37237 94.893758 
L 193.536532 93.675491 
L 195.712768 92.478926 
L 197.90086 91.304183 
L 200.10059 90.15138 
L 202.311738 89.020631 
L 204.534083 87.912049 
L 206.767402 86.825746 
L 209.011473 85.76183 
L 211.26607 84.720408 
L 213.530969 83.701583 
L 214.983584 83.062411 
L 211.912556 76.022105 
L 210.415015 76.681046 
L 208.080068 77.73138 
L 205.755741 78.805011 
L 203.442266 79.901832 
L 201.139875 81.021732 
L 198.848798 82.164599 
L 196.569264 83.33032 
L 194.301501 84.518778 
L 192.045736 85.729853 
L 189.802194 86.963425 
L 187.571099 88.21937 
L 185.352676 89.497563 
L 183.147145 90.797876 
L 180.954727 92.120179 
L 178.775642 93.46434 
L 176.610107 94.830224 
L 174.458339 96.217695 
L 172.320553 97.626613 
L 170.196963 99.056839 
L 168.087781 100.508229 
L 165.993218 101.980637 
L 163.913484 103.473918 
L 161.848786 104.98792 
L 159.799331 106.522494 
L 157.765325 108.077485 
L 155.746969 109.652738 
L 153.744467 111.248095 
z
" clip-path="url(#p6ea34c1971)" style="fill: #e80000"/>
   </g>
   <g id="patch_13">
    <path d="M 235.20127 75.274372 
L 237.559431 74.495368 
L 239.925264 73.739984 
L 242.298532 73.008295 
L 244.678998 72.300376 
L 247.066424 71.616296 
L 249.460572 70.956124 
L 251.861201 70.319926 
L 254.268073 69.707766 
L 256.680945 69.119705 
L 259.099577 68.555801 
L 261.523728 68.016112 
L 263.953154 67.500691 
L 266.387612 67.009589 
L 268.82686 66.542856 
L 271.270653 66.100539 
L 273.718747 65.682681 
L 276.170897 65.289325 
L 278.626858 64.920509 
L 281.086384 64.576271 
L 283.54923 64.256645 
L 286.015149 63.961663 
L 288.483894 63.691355 
L 290.955219 63.445747 
L 292.634921 63.293043 
L 291.965481 55.641313 
L 290.23383 55.79874 
L 287.686072 56.051944 
L 285.140974 56.330613 
L 282.59879 56.634718 
L 280.059774 56.964229 
L 277.524179 57.319113 
L 274.992261 57.699336 
L 272.464271 58.104858 
L 269.940463 58.535639 
L 267.421089 58.991636 
L 264.9064 59.472804 
L 262.396649 59.979095 
L 259.892086 60.510457 
L 257.392962 61.066837 
L 254.899527 61.648181 
L 252.412029 62.25443 
L 249.930719 62.885523 
L 247.455843 63.541397 
L 244.98765 64.221986 
L 242.526386 64.927223 
L 240.072297 65.657037 
L 237.625629 66.411355 
L 235.186626 67.190102 
L 232.755532 67.993199 
z
" clip-path="url(#p6ea34c1971)" style="fill: #800000"/>
   </g>
   <g id="PatchCollection_1">
    <path d="M 258.5712 552.721122 
L 258.5712 552.721122 
L 256.153804 552.151941 
L 253.742221 551.558615 
L 251.336691 550.941203 
L 248.937456 550.299767 
L 246.544755 549.634371 
L 244.158828 548.945082 
L 241.779913 548.231969 
L 239.408247 547.495102 
L 237.044069 546.734556 
L 234.687614 545.950406 
L 232.339118 545.142732 
L 229.998817 544.311613 
L 227.666943 543.457134 
L 225.343731 542.579378 
L 223.029413 541.678435 
L 220.724219 540.754394 
L 218.428381 539.807348 
L 216.691428 539.0729 
L 216.691428 539.0729 
Q 314.280134 310.69897 530.686005 188.851906 
L 530.686005 188.851906 
L 530.686005 188.851906 
L 531.893635 191.022021 
L 533.079504 193.204104 
L 534.243494 195.397936 
L 535.385487 197.603298 
L 536.505369 199.819969 
L 537.60303 202.047728 
L 538.678358 204.286353 
L 539.731246 206.535618 
L 540.76159 208.7953 
L 541.769286 211.065172 
L 542.754233 213.345007 
L 543.716333 215.634577 
L 544.655489 217.933654 
L 545.571608 220.242008 
L 546.464598 222.559407 
L 547.33437 224.88562 
L 548.180837 227.220414 
L 548.807981 228.998927 
L 548.807981 228.998927 
Q 314.280134 310.69897 258.5712 552.721122 
z
" clip-path="url(#p6ea34c1971)" style="fill: #56ffa0; fill-opacity: 0.5; stroke: #808080; stroke-opacity: 0.5; stroke-width: 0.1"/>
    <path d="M 216.691428 539.0729 
L 216.691428 539.0729 
L 214.412606 538.085611 
L 212.143771 537.075583 
L 209.885149 536.042918 
L 207.636967 534.987718 
L 205.399449 533.91009 
L 203.172819 532.810141 
L 200.9573 531.68798 
L 198.753113 530.543722 
L 196.560478 529.377479 
L 194.379615 528.189368 
L 192.210743 526.979508 
L 190.054077 525.748021 
L 187.909833 524.495028 
L 185.778227 523.220657 
L 183.65947 521.925033 
L 181.553776 520.608287 
L 179.461354 519.27055 
L 177.382414 517.911956 
L 175.317163 516.532641 
L 173.265809 515.132743 
L 171.228556 513.712402 
L 169.205608 512.271759 
L 167.530659 511.05565 
L 167.530659 511.05565 
Q 314.280134 310.69897 158.560537 117.231621 
L 158.560537 117.231621 
L 158.560537 117.231621 
L 160.502964 115.684125 
L 162.460769 114.156129 
L 164.433756 112.647788 
L 166.421727 111.159252 
L 168.424483 109.690669 
L 170.441826 108.242187 
L 172.473552 106.813951 
L 174.519458 105.406103 
L 176.57934 104.018784 
L 178.652993 102.652133 
L 180.740208 101.306286 
L 182.840777 99.981379 
L 184.954489 98.677543 
L 187.081135 97.394909 
L 189.220499 96.133605 
L 191.37237 94.893758 
L 193.536532 93.675491 
L 195.712768 92.478926 
L 197.90086 91.304183 
L 200.10059 90.15138 
L 202.311738 89.020631 
L 204.534083 87.912049 
L 206.394689 87.00512 
L 206.394689 87.00512 
Q 314.280134 310.69897 216.691428 539.0729 
z
" clip-path="url(#p6ea34c1971)" style="fill: #56ffa0; fill-opacity: 0.5; stroke: #808080; stroke-opacity: 0.5; stroke-width: 0.1"/>
    <path d="M 167.530659 511.05565 
L 167.530659 511.05565 
L 165.534463 509.578162 
L 163.553142 508.080786 
L 161.586893 506.563672 
L 159.635913 505.026972 
L 157.700398 503.470839 
L 157.557597 503.354761 
L 157.557597 503.354761 
Q 314.280134 310.69897 133.425844 140.493407 
L 133.425844 140.493407 
L 133.425844 140.493407 
L 135.136914 138.693405 
L 136.865898 136.910603 
L 138.612623 135.145179 
L 140.376915 133.397311 
L 142.158597 131.667173 
L 142.291307 131.53968 
L 142.291307 131.53968 
Q 314.280134 310.69897 167.530659 511.05565 
z
" clip-path="url(#p6ea34c1971)" style="fill: #56ffa0; fill-opacity: 0.5; stroke: #808080; stroke-opacity: 0.5; stroke-width: 0.1"/>
    <path d="M 157.557597 503.354761 
L 157.557597 503.354761 
L 155.638907 501.777929 
L 153.736082 500.18199 
L 151.84931 498.567102 
L 149.978781 496.933427 
L 148.124683 495.281129 
L 146.2872 493.610374 
L 144.466516 491.921327 
L 142.662813 490.214158 
L 140.876272 488.489038 
L 139.107071 486.746138 
L 137.355387 484.985635 
L 135.621396 483.207702 
L 133.90527 481.412519 
L 132.207182 479.600265 
L 130.5273 477.771121 
L 128.865794 475.92527 
L 127.22283 474.062896 
L 125.59857 472.184186 
L 123.993179 470.289328 
L 122.406816 468.37851 
L 121.940299 467.809108 
L 121.940299 467.809108 
Q 314.280134 310.69897 314.280134 62.347993 
L 314.280134 62.347993 
L 314.280134 62.347993 
L 316.763603 62.36041 
L 319.246823 62.397661 
L 321.729546 62.459742 
L 324.211525 62.546647 
L 326.69251 62.658367 
L 329.172254 62.79489 
L 331.650509 62.956204 
L 334.127027 63.142292 
L 336.60156 63.353135 
L 339.073861 63.588713 
L 341.543683 63.849002 
L 344.010778 64.133975 
L 346.4749 64.443605 
L 348.935803 64.77786 
L 351.393241 65.136706 
L 353.846967 65.520109 
L 356.296736 65.92803 
L 358.742304 66.360427 
L 361.183425 66.817258 
L 363.619857 67.298477 
L 364.341076 67.445789 
L 364.341076 67.445789 
Q 314.280134 310.69897 157.557597 503.354761 
z
" clip-path="url(#p6ea34c1971)" style="fill: #56ffa0; fill-opacity: 0.5; stroke: #808080; stroke-opacity: 0.5; stroke-width: 0.1"/>
    <path d="M 121.940299 467.809108 
L 121.940299 467.809108 
L 120.378841 465.877886 
L 118.836772 463.931146 
L 117.314248 461.969084 
L 115.81142 459.991894 
L 114.328439 457.999776 
L 112.865453 455.992927 
L 111.422609 453.971549 
L 110.00005 451.935844 
L 108.597918 449.886016 
L 107.216355 447.822268 
L 107.013366 447.51525 
L 107.013366 447.51525 
Q 314.280134 310.69897 104.702223 177.449929 
L 104.702223 177.449929 
L 104.702223 177.449929 
L 106.04517 175.360847 
L 107.408941 173.285299 
L 108.793398 171.223492 
L 110.198404 169.175632 
L 111.623817 167.141925 
L 113.069497 165.122574 
L 114.535297 163.11778 
L 116.021071 161.127743 
L 117.526672 159.152664 
L 119.051947 157.19274 
L 119.279657 156.903581 
L 119.279657 156.903581 
Q 314.280134 310.69897 121.940299 467.809108 
z
" clip-path="url(#p6ea34c1971)" style="fill: #56ffa0; fill-opacity: 0.5; stroke: #808080; stroke-opacity: 0.5; stroke-width: 0.1"/>
    <path d="M 107.013366 447.51525 
L 107.013366 447.51525 
L 105.65559 445.435776 
L 104.318675 443.342829 
L 103.002757 441.236617 
L 101.707966 439.117352 
L 100.434432 436.985245 
L 99.182282 434.840509 
L 97.951642 432.683359 
L 96.742635 430.514011 
L 95.555381 428.332682 
L 94.39 426.139589 
L 93.246608 423.934952 
L 92.125318 421.718992 
L 91.026244 419.49193 
L 89.949495 417.253989 
L 88.895179 415.005392 
L 87.863402 412.746365 
L 86.854265 410.477133 
L 86.103165 408.747316 
L 86.103165 408.747316 
Q 314.280134 310.69897 77.12923 236.958504 
L 77.12923 236.958504 
L 77.12923 236.958504 
L 77.87848 234.590722 
L 78.651369 232.23055 
L 79.447822 229.878225 
L 80.267757 227.533982 
L 81.111094 225.198055 
L 81.977747 222.870679 
L 82.86763 220.552085 
L 83.780655 218.242506 
L 84.716729 215.942172 
L 85.675759 213.651314 
L 86.65765 211.370161 
L 87.662302 209.098941 
L 88.689616 206.83788 
L 89.739489 204.587205 
L 90.811816 202.347142 
L 91.90649 200.117914 
L 93.0234 197.899743 
L 93.886311 196.2229 
L 93.886311 196.2229 
Q 314.280134 310.69897 107.013366 447.51525 
z
" clip-path="url(#p6ea34c1971)" style="fill: #56ffa0; fill-opacity: 0.5; stroke: #808080; stroke-opacity: 0.5; stroke-width: 0.1"/>
    <path d="M 329.262906 558.597587 
L 329.262906 558.597587 
L 326.783212 558.735017 
L 326.566655 558.745839 
L 326.566655 558.745839 
Q 314.280134 310.69897 548.807981 228.998927 
L 548.807981 228.998927 
L 548.807981 228.998927 
L 549.613241 231.348251 
L 549.682431 231.553744 
L 549.682431 231.553744 
Q 314.280134 310.69897 329.262906 558.597587 
z
" clip-path="url(#p6ea34c1971)" style="fill: #0cf4eb; fill-opacity: 0.5; stroke: #808080; stroke-opacity: 0.5; stroke-width: 0.1"/>
    <path d="M 326.566655 558.745839 
L 326.566655 558.745839 
L 324.085613 558.856299 
L 321.603591 558.941945 
L 319.370415 558.997775 
L 319.370415 558.997775 
Q 314.280134 310.69897 364.341076 67.445789 
L 364.341076 67.445789 
L 364.341076 67.445789 
L 366.771064 67.958553 
L 369.195804 68.49559 
L 371.372137 68.99934 
L 371.372137 68.99934 
Q 314.280134 310.69897 326.566655 558.745839 
z
" clip-path="url(#p6ea34c1971)" style="fill: #0cf4eb; fill-opacity: 0.5; stroke: #808080; stroke-opacity: 0.5; stroke-width: 0.1"/>
    <path d="M 422.768742 534.100916 
L 422.768742 534.100916 
L 420.529335 535.174614 
L 418.279304 536.225865 
L 416.018873 537.254563 
L 413.748268 538.260606 
L 411.467716 539.243892 
L 409.177445 540.204325 
L 406.877685 541.141807 
L 405.467614 541.70341 
L 405.467614 541.70341 
Q 314.280134 310.69897 549.682431 231.553744 
L 549.682431 231.553744 
L 549.682431 231.553744 
L 550.4621 233.911685 
L 551.218151 236.277304 
L 551.950508 238.650366 
L 552.659099 241.030633 
L 553.343852 243.417866 
L 554.004698 245.811827 
L 554.641573 248.212277 
L 555.018969 249.682403 
L 555.018969 249.682403 
Q 314.280134 310.69897 422.768742 534.100916 
z
" clip-path="url(#p6ea34c1971)" style="fill: #0094ff; fill-opacity: 0.5; stroke: #808080; stroke-opacity: 0.5; stroke-width: 0.1"/>
    <path d="M 405.467614 541.70341 
L 405.467614 541.70341 
L 403.153049 542.603719 
L 400.829596 543.480838 
L 398.497489 544.33468 
L 396.612666 545.005525 
L 396.612666 545.005525 
Q 314.280134 310.69897 206.394689 87.00512 
L 206.394689 87.00512 
L 206.394689 87.00512 
L 208.636984 85.937468 
L 210.889844 84.892292 
L 213.153043 83.869697 
L 214.983584 83.062411 
L 214.983584 83.062411 
Q 314.280134 310.69897 405.467614 541.70341 
z
" clip-path="url(#p6ea34c1971)" style="fill: #0094ff; fill-opacity: 0.5; stroke: #808080; stroke-opacity: 0.5; stroke-width: 0.1"/>
    <path d="M 396.612666 545.005525 
L 396.612666 545.005525 
L 394.265523 545.817122 
L 391.910382 546.605206 
L 389.547477 547.369701 
L 387.177046 548.110528 
L 384.799325 548.827615 
L 382.414552 549.520888 
L 381.595891 549.752932 
L 381.595891 549.752932 
Q 314.280134 310.69897 371.372137 68.99934 
L 371.372137 68.99934 
L 371.372137 68.99934 
L 373.786239 69.582335 
L 376.19439 70.189442 
L 378.596349 70.8206 
L 380.991877 71.475745 
L 383.380734 72.154812 
L 385.762681 72.857734 
L 386.577162 73.104046 
L 386.577162 73.104046 
Q 314.280134 310.69897 396.612666 545.005525 
z
" clip-path="url(#p6ea34c1971)" style="fill: #0094ff; fill-opacity: 0.5; stroke: #808080; stroke-opacity: 0.5; stroke-width: 0.1"/>
    <path d="M 515.607484 456.113914 
L 515.607484 456.113914 
L 514.143293 458.119883 
L 512.659115 460.11111 
L 511.1551 462.087397 
L 509.631397 464.048544 
L 508.088159 465.994357 
L 506.525541 467.92464 
L 504.943698 469.839201 
L 503.342789 471.737848 
L 501.722974 473.620391 
L 500.084415 475.486642 
L 498.427276 477.336415 
L 496.751722 479.169523 
L 495.057921 480.985785 
L 493.346042 482.785019 
L 491.616257 484.567044 
L 489.868739 486.331682 
L 488.103662 488.078758 
L 486.321202 489.808095 
L 484.521539 491.519522 
L 482.704851 493.212866 
L 482.163143 493.711273 
L 482.163143 493.711273 
Q 314.280134 310.69897 386.577162 73.104046 
L 386.577162 73.104046 
L 386.577162 73.104046 
L 388.949457 73.838884 
L 391.314285 74.597408 
L 393.67141 75.379542 
L 396.020595 76.185207 
L 398.361607 77.014324 
L 400.69421 77.866808 
L 403.018172 78.742576 
L 405.333261 79.64154 
L 407.639244 80.563609 
L 409.935891 81.508691 
L 412.222973 82.476692 
L 414.500261 83.467515 
L 416.767527 84.481061 
L 419.024544 85.517229 
L 421.271086 86.575914 
L 423.50693 87.657012 
L 425.731851 88.760414 
L 427.945627 89.886009 
L 430.148037 91.033686 
L 432.33886 92.203329 
L 432.98596 92.554213 
L 432.98596 92.554213 
Q 314.280134 310.69897 515.607484 456.113914 
z
" clip-path="url(#p6ea34c1971)" style="fill: #0038ff; fill-opacity: 0.5; stroke: #808080; stroke-opacity: 0.5; stroke-width: 0.1"/>
    <path d="M 555.018969 249.682403 
L 555.018969 249.682403 
L 555.617088 252.092802 
L 556.191073 254.509062 
L 556.740867 256.930941 
L 557.266415 259.358196 
L 557.767665 261.790585 
L 558.244567 264.227865 
L 558.697072 266.669793 
L 559.125136 269.116123 
L 559.528715 271.566611 
L 559.90777 274.021013 
L 559.961857 274.385072 
L 559.961857 274.385072 
Q 314.280134 310.69897 86.103165 408.747316 
L 86.103165 408.747316 
L 86.103165 408.747316 
L 85.134106 406.460682 
L 84.187962 404.164472 
L 83.264827 401.858915 
L 82.364794 399.544243 
L 81.487951 397.220686 
L 80.634388 394.888477 
L 79.804189 392.547849 
L 78.997438 390.199036 
L 78.214215 387.842273 
L 77.454598 385.477796 
L 77.344036 385.12674 
L 77.344036 385.12674 
Q 314.280134 310.69897 555.018969 249.682403 
z
" clip-path="url(#p6ea34c1971)" style="fill: #0000e8; fill-opacity: 0.5; stroke: #808080; stroke-opacity: 0.5; stroke-width: 0.1"/>
    <path d="M 559.961857 274.385072 
L 559.961857 274.385072 
L 560.312705 276.843664 
L 560.638951 279.305641 
L 560.940562 281.770758 
L 561.217506 284.238768 
L 561.469757 286.709423 
L 561.697289 289.182478 
L 561.900079 291.657684 
L 562.078108 294.134794 
L 562.231357 296.613561 
L 562.359812 299.093736 
L 562.376738 299.461402 
L 562.376738 299.461402 
Q 314.280134 310.69897 319.370415 558.997775 
L 319.370415 558.997775 
L 319.370415 558.997775 
L 316.887214 559.036262 
L 314.403752 559.049916 
L 311.920277 559.038735 
L 309.437039 559.002719 
L 306.954285 558.941874 
L 304.472264 558.856205 
L 301.991223 558.74572 
L 299.511411 558.610431 
L 297.033077 558.450351 
L 294.556466 558.265495 
L 294.189596 558.235993 
L 294.189596 558.235993 
Q 314.280134 310.69897 559.961857 274.385072 
z
" clip-path="url(#p6ea34c1971)" style="fill: #0000e8; fill-opacity: 0.5; stroke: #808080; stroke-opacity: 0.5; stroke-width: 0.1"/>
    <path d="M 562.376738 299.461402 
L 562.376738 299.461402 
L 562.476707 301.942888 
L 562.551857 304.42525 
L 562.60218 306.90824 
L 562.62767 309.391608 
L 562.628326 311.875108 
L 562.604148 314.358489 
L 562.555137 316.841505 
L 562.512961 318.358713 
L 562.512961 318.358713 
Q 314.280134 310.69897 381.595891 549.752932 
L 381.595891 549.752932 
L 381.595891 549.752932 
L 379.202025 550.414125 
L 376.801668 551.051348 
L 374.395058 551.664535 
L 371.982437 552.253626 
L 369.564045 552.818562 
L 367.140126 553.359286 
L 364.71092 553.875744 
L 363.223813 554.179408 
L 363.223813 554.179408 
Q 314.280134 310.69897 562.376738 299.461402 
z
" clip-path="url(#p6ea34c1971)" style="fill: #0000e8; fill-opacity: 0.5; stroke: #808080; stroke-opacity: 0.5; stroke-width: 0.1"/>
    <path d="M 562.512961 318.358713 
L 562.512961 318.358713 
L 562.423953 320.840617 
L 562.310131 323.321507 
L 562.171507 325.801134 
L 562.008093 328.279252 
L 561.819907 330.755611 
L 561.606967 333.229964 
L 561.369294 335.702065 
L 561.106913 338.171665 
L 560.81985 340.638518 
L 560.508132 343.102377 
L 560.171792 345.562996 
L 559.810863 348.020129 
L 559.425382 350.473529 
L 559.015385 352.922952 
L 558.580916 355.368152 
L 558.122017 357.808886 
L 557.638733 360.244909 
L 557.131114 362.675977 
L 556.599211 365.101847 
L 556.043075 367.522278 
L 555.873589 368.238611 
L 555.873589 368.238611 
Q 314.280134 310.69897 235.20127 75.274372 
L 235.20127 75.274372 
L 235.20127 75.274372 
L 237.559431 74.495368 
L 239.925264 73.739984 
L 242.298532 73.008295 
L 244.678998 72.300376 
L 247.066424 71.616296 
L 249.460572 70.956124 
L 251.861201 70.319926 
L 254.268073 69.707766 
L 256.680945 69.119705 
L 259.099577 68.555801 
L 261.523728 68.016112 
L 263.953154 67.500691 
L 266.387612 67.009589 
L 268.82686 66.542856 
L 271.270653 66.100539 
L 273.718747 65.682681 
L 276.170897 65.289325 
L 278.626858 64.920509 
L 281.086384 64.576271 
L 283.54923 64.256645 
L 284.279817 64.166642 
L 284.279817 64.166642 
Q 314.280134 310.69897 562.512961 318.358713 
z
" clip-path="url(#p6ea34c1971)" style="fill: #0000e8; fill-opacity: 0.5; stroke: #808080; stroke-opacity: 0.5; stroke-width: 0.1"/>
    <path d="M 555.873589 368.238611 
L 555.873589 368.238611 
L 555.286123 370.651628 
L 554.674556 373.05865 
L 554.03895 375.459436 
L 553.379368 377.853746 
L 552.695877 380.241341 
L 551.988544 382.621982 
L 551.257441 384.99543 
L 550.50264 387.361449 
L 549.724217 389.719801 
L 548.922249 392.070252 
L 548.096818 394.412566 
L 547.248005 396.746508 
L 546.375896 399.071845 
L 545.480577 401.388346 
L 544.562139 403.695777 
L 543.620672 405.993909 
L 542.656272 408.282511 
L 541.669034 410.561356 
L 540.659057 412.830214 
L 539.626443 415.088859 
L 538.571294 417.337065 
L 537.493717 419.574607 
L 536.393818 421.801262 
L 535.271708 424.016807 
L 534.127499 426.22102 
L 533.697983 427.034757 
L 533.697983 427.034757 
Q 314.280134 310.69897 66.93981 333.081363 
L 66.93981 333.081363 
L 66.93981 333.081363 
L 66.728356 330.606881 
L 66.541658 328.13041 
L 66.379733 325.652195 
L 66.242598 323.172484 
L 66.130267 320.691526 
L 66.042751 318.20957 
L 65.980058 315.726862 
L 65.942195 313.243651 
L 65.929165 310.760186 
L 65.94097 308.276714 
L 65.977609 305.793485 
L 66.039078 303.310746 
L 66.125371 300.828747 
L 66.236479 298.347734 
L 66.372392 295.867956 
L 66.533095 293.389662 
L 66.718572 290.913098 
L 66.928806 288.438513 
L 67.163774 285.966154 
L 67.423454 283.496268 
L 67.707819 281.029103 
L 68.016841 278.564904 
L 68.35049 276.103919 
L 68.708731 273.646393 
L 69.091529 271.192573 
L 69.239582 270.284424 
L 69.239582 270.284424 
Q 314.280134 310.69897 555.873589 368.238611 
z
" clip-path="url(#p6ea34c1971)" style="fill: #0000e8; fill-opacity: 0.5; stroke: #808080; stroke-opacity: 0.5; stroke-width: 0.1"/>
    <path d="M 533.697983 427.034757 
L 533.697983 427.034757 
L 532.523674 429.223083 
L 531.32754 431.399555 
L 530.109702 433.563958 
L 528.870281 435.716075 
L 527.609402 437.85569 
L 527.51512 438.013731 
L 527.51512 438.013731 
Q 314.280134 310.69897 482.163143 493.711273 
L 482.163143 493.711273 
L 482.163143 493.711273 
L 480.324656 495.380925 
L 478.469565 497.032108 
L 476.598055 498.664659 
L 474.710314 500.278413 
L 472.80653 501.873209 
L 472.664826 501.990624 
L 472.664826 501.990624 
Q 314.280134 310.69897 533.697983 427.034757 
z
" clip-path="url(#p6ea34c1971)" style="fill: #0000e8; fill-opacity: 0.5; stroke: #808080; stroke-opacity: 0.5; stroke-width: 0.1"/>
    <path d="M 432.98596 92.554213 
L 432.98596 92.554213 
L 435.161435 93.752159 
L 437.324823 94.971799 
L 439.475907 96.213011 
L 441.614471 97.475672 
L 443.740302 98.759656 
L 445.853187 100.064833 
L 447.952914 101.391073 
L 450.039275 102.738244 
L 452.11206 104.10621 
L 454.171061 105.494836 
L 456.216074 106.903982 
L 458.246893 108.333508 
L 459.63021 109.324783 
L 459.63021 109.324783 
Q 314.280134 310.69897 77.344036 385.12674 
L 77.344036 385.12674 
L 77.344036 385.12674 
L 76.611617 382.753697 
L 75.902965 380.373448 
L 75.218151 377.986233 
L 74.557242 375.592289 
L 73.920306 373.191855 
L 73.307406 370.785172 
L 72.718602 368.372481 
L 72.153955 365.954022 
L 71.613519 363.530038 
L 71.097351 361.100771 
L 70.6055 358.666463 
L 70.138017 356.227359 
L 69.831768 354.553321 
L 69.831768 354.553321 
Q 314.280134 310.69897 432.98596 92.554213 
z
" clip-path="url(#p6ea34c1971)" style="fill: #000080; fill-opacity: 0.5; stroke: #808080; stroke-opacity: 0.5; stroke-width: 0.1"/>
    <path d="M 459.63021 109.324783 
L 459.63021 109.324783 
L 461.636651 110.788328 
L 463.628357 112.271864 
L 465.605127 113.775243 
L 467.566766 115.298313 
L 469.513075 116.840924 
L 471.056974 118.087365 
L 471.056974 118.087365 
Q 314.280134 310.69897 294.189596 558.235993 
L 294.189596 558.235993 
L 294.189596 558.235993 
L 291.715271 558.022714 
L 289.243203 557.784703 
L 286.773639 557.521984 
L 284.306825 557.234583 
L 281.843009 556.922528 
L 279.87681 556.655508 
L 279.87681 556.655508 
Q 314.280134 310.69897 459.63021 109.324783 
z
" clip-path="url(#p6ea34c1971)" style="fill: #000080; fill-opacity: 0.5; stroke: #808080; stroke-opacity: 0.5; stroke-width: 0.1"/>
    <path d="M 471.056974 118.087365 
L 471.056974 118.087365 
L 472.975219 119.664738 
L 474.877595 121.261214 
L 476.763911 122.876633 
L 478.633979 124.510835 
L 480.487612 126.163655 
L 480.624307 126.286865 
L 480.624307 126.286865 
Q 314.280134 310.69897 363.223813 554.179408 
L 363.223813 554.179408 
L 363.223813 554.179408 
L 360.786602 554.656663 
L 358.344741 555.109522 
L 355.898473 555.537941 
L 353.448043 555.941875 
L 350.993696 556.321286 
L 350.811681 556.348423 
L 350.811681 556.348423 
Q 314.280134 310.69897 471.056974 118.087365 
z
" clip-path="url(#p6ea34c1971)" style="fill: #000080; fill-opacity: 0.5; stroke: #808080; stroke-opacity: 0.5; stroke-width: 0.1"/>
    <path d="M 480.624307 126.286865 
L 480.624307 126.286865 
L 482.46008 127.9595 
L 484.279035 129.650408 
L 486.080991 131.359421 
L 486.766123 132.018272 
L 486.766123 132.018272 
Q 314.280134 310.69897 284.279817 64.166642 
L 284.279817 64.166642 
L 284.279817 64.166642 
L 286.746599 63.87897 
L 289.216135 63.61598 
L 291.688177 63.377698 
L 292.634921 63.293043 
L 292.634921 63.293043 
Q 314.280134 310.69897 480.624307 126.286865 
z
" clip-path="url(#p6ea34c1971)" style="fill: #000080; fill-opacity: 0.5; stroke: #808080; stroke-opacity: 0.5; stroke-width: 0.1"/>
    <path d="M 486.766123 132.018272 
L 486.766123 132.018272 
L 488.544276 133.752037 
L 490.305002 135.503497 
L 492.048127 137.272476 
L 493.773474 139.058798 
L 495.480873 140.862283 
L 495.606672 140.996599 
L 495.606672 140.996599 
Q 314.280134 310.69897 69.239582 270.284424 
L 69.239582 270.284424 
L 69.239582 270.284424 
L 69.655973 267.83608 
L 70.096826 265.392023 
L 70.562096 262.952496 
L 71.051739 260.517743 
L 71.565704 258.088009 
L 71.604756 257.908172 
L 71.604756 257.908172 
Q 314.280134 310.69897 486.766123 132.018272 
z
" clip-path="url(#p6ea34c1971)" style="fill: #000080; fill-opacity: 0.5; stroke: #808080; stroke-opacity: 0.5; stroke-width: 0.1"/>
    <path d="M 495.606672 140.996599 
L 495.606672 140.996599 
L 497.294601 142.818319 
L 498.964229 144.656827 
L 500.615388 146.511939 
L 502.247915 148.38347 
L 503.861644 150.271232 
L 505.456416 152.175037 
L 507.03207 154.094694 
L 508.588449 156.030012 
L 510.125398 157.980796 
L 511.642762 159.946852 
L 513.14039 161.927983 
L 514.618132 163.923991 
L 516.075841 165.934676 
L 517.51337 167.959837 
L 518.930576 169.999273 
L 519.242844 170.454557 
L 519.242844 170.454557 
Q 314.280134 310.69897 472.664826 501.990624 
L 472.664826 501.990624 
L 472.664826 501.990624 
L 470.744023 503.56488 
L 468.807572 505.11985 
L 466.85567 506.655377 
L 464.88851 508.17131 
L 462.906289 509.667495 
L 460.909205 511.143783 
L 458.897459 512.600027 
L 456.871252 514.036082 
L 454.830785 515.451802 
L 452.776263 516.847048 
L 450.707892 518.221679 
L 448.625878 519.575557 
L 446.53043 520.908549 
L 444.421757 522.220519 
L 442.300069 523.511338 
L 441.826673 523.795399 
L 441.826673 523.795399 
Q 314.280134 310.69897 495.606672 140.996599 
z
" clip-path="url(#p6ea34c1971)" style="fill: #000080; fill-opacity: 0.5; stroke: #808080; stroke-opacity: 0.5; stroke-width: 0.1"/>
   </g>
   <g id="patch_14">
    <path d="M 314.280134 62.347993 
L 316.763603 62.36041 
L 319.246823 62.397661 
L 321.729546 62.459742 
L 324.211525 62.546647 
L 326.69251 62.658367 
L 329.172254 62.79489 
L 331.650509 62.956204 
L 334.127027 63.142292 
L 336.60156 63.353135 
L 339.073861 63.588713 
L 341.543683 63.849002 
L 344.010778 64.133975 
L 346.4749 64.443605 
L 348.935803 64.77786 
L 351.393241 65.136706 
L 353.846967 65.520109 
L 356.296736 65.92803 
L 358.742304 66.360427 
L 361.183425 66.817258 
L 363.619857 67.298477 
L 366.051354 67.804036 
L 368.477674 68.333885 
L 370.898575 68.887969 
L 373.313814 69.466235 
L 375.723149 70.068623 
L 378.126341 70.695074 
L 380.523147 71.345526 
L 382.91333 72.019913 
L 385.296649 72.718167 
L 387.672866 73.440219 
L 390.041745 74.185997 
L 392.403047 74.955426 
L 394.756537 75.748429 
L 397.10198 76.564927 
L 399.43914 77.404839 
L 401.767784 78.268079 
L 404.08768 79.154562 
L 406.398595 80.0642 
L 408.700299 80.996901 
L 410.99256 81.952572 
L 413.27515 82.931117 
L 415.547841 83.932439 
L 417.810405 84.956438 
L 420.062617 86.00301 
L 422.30425 87.072052 
L 424.53508 88.163456 
L 426.754886 89.277114 
L 428.963444 90.412914 
L 431.160534 91.570742 
L 433.345935 92.750483 
L 435.519431 93.952018 
L 437.680802 95.175228 
L 439.829834 96.419991 
L 441.96631 97.686181 
L 444.090018 98.973672 
L 446.200746 100.282335 
L 448.298281 101.61204 
L 450.382415 102.962653 
L 452.452938 104.33404 
L 454.509644 105.726063 
L 456.552328 107.138584 
L 458.580784 108.57146 
L 460.594811 110.024548 
L 462.594206 111.497705 
L 464.57877 112.99078 
L 466.548304 114.503627 
L 468.502611 116.036093 
L 470.441496 117.588025 
L 472.364765 119.159268 
L 474.272226 120.749665 
L 476.163688 122.359057 
L 478.038962 123.987282 
L 479.89786 125.634179 
L 481.740196 127.299582 
L 483.565786 128.983324 
L 485.374448 130.685238 
L 487.166001 132.405153 
L 488.940265 134.142898 
L 490.697064 135.898298 
L 492.43622 137.671178 
L 494.157562 139.46136 
L 495.860916 141.268666 
L 497.546111 143.092915 
L 499.212981 144.933925 
L 500.861357 146.791511 
L 502.491075 148.665487 
L 504.101973 150.555667 
L 505.693888 152.46186 
L 507.266662 154.383878 
L 508.820138 156.321527 
L 510.354159 158.274613 
L 511.868574 160.242942 
L 513.36323 162.226316 
L 514.837978 164.224537 
L 516.29267 166.237406 
L 517.727161 168.264721 
L 519.141307 170.306279 
L 519.242844 170.454557 
L 525.581897 166.117101 
L 525.47722 165.964237 
L 524.019337 163.859538 
L 522.54048 161.769523 
L 521.040797 159.6944 
L 519.520439 157.634378 
L 517.979557 155.589663 
L 516.418305 153.560458 
L 514.836839 151.546967 
L 513.235318 149.549391 
L 511.613901 147.567929 
L 509.972751 145.602781 
L 508.312032 143.654142 
L 506.63191 141.722208 
L 504.932553 139.807171 
L 503.214131 137.909223 
L 501.476816 136.028554 
L 499.720781 134.165352 
L 497.946202 132.319803 
L 496.153257 130.492091 
L 494.342125 128.682401 
L 492.512987 126.890912 
L 490.666025 125.117803 
L 488.801425 123.363253 
L 486.919373 121.627436 
L 485.020057 119.910525 
L 483.103668 118.212694 
L 481.170396 116.534111 
L 479.220435 114.874944 
L 477.253981 113.23536 
L 475.271229 111.615522 
L 473.272378 110.015592 
L 471.257628 108.43573 
L 469.227181 106.876094 
L 467.181239 105.336841 
L 465.120007 103.818123 
L 463.043691 102.320093 
L 460.952499 100.842902 
L 458.846639 99.386695 
L 456.726324 97.95162 
L 454.591763 96.537819 
L 452.443172 95.145434 
L 450.280765 93.774604 
L 448.104757 92.425467 
L 445.915367 91.098156 
L 443.712814 89.792806 
L 441.497318 88.509546 
L 439.2691 87.248505 
L 437.028383 86.009808 
L 434.775391 84.79358 
L 432.51035 83.599943 
L 430.233486 82.429016 
L 427.945027 81.280915 
L 425.645202 80.155756 
L 423.33424 79.053651 
L 421.012373 77.97471 
L 418.679832 76.919041 
L 416.336852 75.886751 
L 413.983666 74.877941 
L 411.62051 73.892713 
L 409.24762 72.931166 
L 406.865233 71.993395 
L 404.473588 71.079495 
L 402.072924 70.189556 
L 399.66348 69.323668 
L 397.245498 68.481918 
L 394.81922 67.664389 
L 392.384887 66.871163 
L 389.942745 66.10232 
L 387.493036 65.357936 
L 385.036006 64.638086 
L 382.5719 63.942842 
L 380.100966 63.272274 
L 377.623449 62.626447 
L 375.139598 62.005428 
L 372.649661 61.409278 
L 370.153887 60.838057 
L 367.652526 60.291822 
L 365.145828 59.770627 
L 362.634043 59.274525 
L 360.117423 58.803565 
L 357.596219 58.357795 
L 355.070683 57.937258 
L 352.541069 57.541997 
L 350.007628 57.172052 
L 347.470615 56.827459 
L 344.930282 56.508253 
L 342.386885 56.214467 
L 339.840677 55.946128 
L 337.291913 55.703264 
L 334.740848 55.4859 
L 332.187737 55.294057 
L 329.632835 55.127754 
L 327.076398 54.987008 
L 324.518681 54.871833 
L 321.95994 54.78224 
L 319.400432 54.718239 
L 316.840411 54.679836 
L 314.280134 54.667035 
L 314.280134 62.347993 
z
" clip-path="url(#p6ea34c1971)" style="fill: none; stroke: #000000; stroke-width: 0.5; stroke-linejoin: miter"/>
   </g>
   <g id="patch_15">
    <path d="M 530.686005 188.851906 
L 531.893635 191.022021 
L 533.079504 193.204104 
L 534.243494 195.397936 
L 535.385487 197.603298 
L 536.505369 199.819969 
L 537.60303 202.047728 
L 538.678358 204.286353 
L 539.731246 206.535618 
L 540.76159 208.7953 
L 541.769286 211.065172 
L 542.754233 213.345007 
L 543.716333 215.634577 
L 544.655489 217.933654 
L 545.571608 220.242008 
L 546.464598 222.559407 
L 547.33437 224.88562 
L 548.180837 227.220414 
L 549.003913 229.563556 
L 549.803518 231.914811 
L 550.57957 234.273945 
L 551.331993 236.640721 
L 552.06071 239.014903 
L 552.76565 241.396253 
L 553.446742 243.784534 
L 554.103917 246.179506 
L 554.737109 248.58093 
L 555.346257 250.988565 
L 555.931298 253.402172 
L 556.492174 255.821508 
L 557.028829 258.246332 
L 557.541209 260.676401 
L 558.029263 263.111472 
L 558.492943 265.551302 
L 558.932202 267.995647 
L 559.346995 270.444262 
L 559.737282 272.896902 
L 560.103024 275.353323 
L 560.444183 277.813278 
L 560.760727 280.276522 
L 561.052622 282.742808 
L 561.319841 285.211889 
L 561.562355 287.68352 
L 561.780142 290.157451 
L 561.973179 292.633437 
L 562.141447 295.11123 
L 562.284929 297.590581 
L 562.40361 300.071243 
L 562.49748 302.552968 
L 562.566527 305.035507 
L 562.610747 307.518613 
L 562.630133 310.002037 
L 562.624685 312.48553 
L 562.594403 314.968845 
L 562.539289 317.451733 
L 562.45935 319.933945 
L 562.354593 322.415234 
L 562.225028 324.895352 
L 562.07067 327.374049 
L 561.891532 329.85108 
L 561.687634 332.326195 
L 561.458995 334.799147 
L 561.205639 337.26969 
L 560.92759 339.737575 
L 560.624876 342.202557 
L 560.297528 344.664388 
L 559.945579 347.122823 
L 559.569063 349.577615 
L 559.168019 352.028519 
L 558.742486 354.475291 
L 558.292507 356.917685 
L 557.818127 359.355457 
L 557.319394 361.788364 
L 556.796356 364.216161 
L 556.249068 366.638607 
L 555.677582 369.055459 
L 555.081957 371.466476 
L 554.462253 373.871415 
L 553.81853 376.270038 
L 553.150853 378.662103 
L 552.45929 381.047373 
L 551.743908 383.425607 
L 551.004781 385.796569 
L 550.241981 388.160021 
L 549.455586 390.515727 
L 548.645673 392.863452 
L 547.812324 395.20296 
L 546.955621 397.534018 
L 546.075652 399.856392 
L 545.172503 402.169851 
L 544.246264 404.474163 
L 543.29703 406.769097 
L 542.324894 409.054424 
L 541.329954 411.329916 
L 540.312309 413.595345 
L 539.27206 415.850484 
L 538.209313 418.095108 
L 537.124173 420.328993 
L 536.016749 422.551915 
L 534.887152 424.763651 
L 533.735494 426.963982 
L 532.56189 429.152685 
L 531.366459 431.329544 
L 530.149319 433.49434 
L 528.910592 435.646856 
L 527.650403 437.786877 
L 527.51512 438.013731 
L 534.110017 441.951301 
L 534.249483 441.717431 
L 535.548648 439.511223 
L 536.825686 437.292135 
L 538.080469 435.060387 
L 539.312872 432.816202 
L 540.522773 430.559807 
L 541.710049 428.291425 
L 542.874583 426.011284 
L 544.016257 423.719612 
L 545.134958 421.416638 
L 546.230574 419.102593 
L 547.302994 416.777707 
L 548.352113 414.442213 
L 549.377825 412.096345 
L 550.380027 409.740338 
L 551.358619 407.374426 
L 552.313504 404.998847 
L 553.244585 402.613838 
L 554.15177 400.219638 
L 555.034969 397.816485 
L 555.894092 395.404621 
L 556.729053 392.984287 
L 557.539771 390.555724 
L 558.326162 388.119175 
L 559.088149 385.674885 
L 559.825655 383.223097 
L 560.538607 380.764056 
L 561.226934 378.298009 
L 561.890565 375.825202 
L 562.529436 373.345883 
L 563.143483 370.860299 
L 563.732643 368.368699 
L 564.296858 365.871332 
L 564.836072 363.368448 
L 565.35023 360.860297 
L 565.839282 358.34713 
L 566.303178 355.829198 
L 566.741871 353.306753 
L 567.155319 350.780047 
L 567.543479 348.249333 
L 567.906314 345.714865 
L 568.243786 343.176894 
L 568.555861 340.635676 
L 568.84251 338.091465 
L 569.103702 335.544514 
L 569.339412 332.995078 
L 569.549617 330.443413 
L 569.734295 327.889774 
L 569.893427 325.334415 
L 570.026999 322.777593 
L 570.134996 320.219563 
L 570.217407 317.660581 
L 570.274226 315.100903 
L 570.305445 312.540785 
L 570.311061 309.980482 
L 570.291075 307.420251 
L 570.245488 304.860349 
L 570.174305 302.30103 
L 570.077532 299.74255 
L 569.95518 297.185167 
L 569.80726 294.629135 
L 569.633789 292.07471 
L 569.434781 289.522147 
L 569.210259 286.971702 
L 568.960244 284.423629 
L 568.684761 281.878184 
L 568.383838 279.335622 
L 568.057505 276.796195 
L 567.705794 274.260159 
L 567.328741 271.727766 
L 566.926383 269.199271 
L 566.49876 266.674926 
L 566.045916 264.154982 
L 565.567896 261.639694 
L 565.064747 259.129311 
L 564.53652 256.624085 
L 563.983268 254.124267 
L 563.405045 251.630106 
L 562.80191 249.141852 
L 562.173923 246.659753 
L 561.521147 244.184058 
L 560.843647 241.715015 
L 560.141491 239.25287 
L 559.414749 236.79787 
L 558.663494 234.35026 
L 557.8878 231.910284 
L 557.087746 229.478188 
L 556.263412 227.054213 
L 555.414879 224.638603 
L 554.542233 222.231598 
L 553.645561 219.833441 
L 552.724953 217.44437 
L 551.7805 215.064624 
L 550.812298 212.694442 
L 549.820442 210.33406 
L 548.805033 207.983714 
L 547.766171 205.64364 
L 546.703961 203.314071 
L 545.618509 200.995241 
L 544.509923 198.687381 
L 543.378315 196.390722 
L 542.223796 194.105493 
L 541.046484 191.831924 
L 539.846495 189.570242 
L 538.62395 187.320672 
L 537.37897 185.08344 
L 530.686005 188.851906 
z
" clip-path="url(#p6ea34c1971)" style="fill: none; stroke: #000000; stroke-width: 0.5; stroke-linejoin: miter"/>
   </g>
   <g id="patch_16">
    <path d="M 515.607484 456.113914 
L 514.143293 458.119883 
L 512.659115 460.11111 
L 511.1551 462.087397 
L 509.631397 464.048544 
L 508.088159 465.994357 
L 506.525541 467.92464 
L 504.943698 469.839201 
L 503.342789 471.737848 
L 501.722974 473.620391 
L 500.084415 475.486642 
L 498.427276 477.336415 
L 496.751722 479.169523 
L 495.057921 480.985785 
L 493.346042 482.785019 
L 491.616257 484.567044 
L 489.868739 486.331682 
L 488.103662 488.078758 
L 486.321202 489.808095 
L 484.521539 491.519522 
L 482.704851 493.212866 
L 480.871322 494.88796 
L 479.021133 496.544634 
L 477.15447 498.182725 
L 475.27152 499.802067 
L 473.372471 501.402499 
L 471.457513 502.983861 
L 469.526838 504.545994 
L 467.580638 506.088743 
L 465.619107 507.611953 
L 463.642443 509.115472 
L 461.650843 510.599149 
L 459.644507 512.062837 
L 457.623633 513.506388 
L 455.588426 514.929659 
L 453.539088 516.332507 
L 451.475824 517.714792 
L 449.39884 519.076375 
L 447.308345 520.417121 
L 445.204547 521.736895 
L 443.087657 523.035566 
L 441.826673 523.795399 
L 445.771411 530.38601 
L 447.071395 529.602677 
L 449.253756 528.263841 
L 451.422619 526.903249 
L 453.577769 525.521037 
L 455.718989 524.117343 
L 457.846065 522.692307 
L 459.958785 521.246072 
L 462.056937 519.778783 
L 464.140312 518.290585 
L 466.2087 516.781629 
L 468.261896 515.252065 
L 470.299694 513.702045 
L 472.32189 512.131726 
L 474.328282 510.541263 
L 476.318669 508.930816 
L 478.292853 507.300546 
L 480.250635 505.650616 
L 482.191821 503.981191 
L 484.116215 502.292439 
L 486.023626 500.584526 
L 487.913863 498.857626 
L 489.786737 497.11191 
L 491.64206 495.347552 
L 493.479647 493.56473 
L 495.299314 491.763622 
L 497.10088 489.944407 
L 498.884163 488.107268 
L 500.648987 486.252388 
L 502.395173 484.379953 
L 504.122548 482.49015 
L 505.830939 480.583168 
L 507.520176 478.659198 
L 509.190088 476.718432 
L 510.84051 474.761064 
L 512.471275 472.78729 
L 514.082222 470.797307 
L 515.673189 468.791314 
L 517.244016 466.769513 
L 518.794547 464.732104 
L 520.324627 462.679293 
L 521.834103 460.611283 
L 515.607484 456.113914 
z
" clip-path="url(#p6ea34c1971)" style="fill: none; stroke: #000000; stroke-width: 0.5; stroke-linejoin: miter"/>
   </g>
   <g id="patch_17">
    <path d="M 422.768742 534.100916 
L 420.529335 535.174614 
L 418.279304 536.225865 
L 416.018873 537.254563 
L 413.748268 538.260606 
L 411.467716 539.243892 
L 409.177445 540.204325 
L 406.877685 541.141807 
L 404.568665 542.056245 
L 402.250617 542.947548 
L 399.923771 543.815625 
L 397.588361 544.660392 
L 395.244621 545.481762 
L 392.892784 546.279655 
L 390.533086 547.053989 
L 388.165762 547.804688 
L 385.79105 548.531677 
L 383.409187 549.234883 
L 381.020412 549.914235 
L 378.624962 550.569666 
L 376.223078 551.20111 
L 373.814999 551.808504 
L 371.400967 552.391788 
L 368.981223 552.950902 
L 366.556009 553.485791 
L 364.125568 553.996402 
L 361.690142 554.482683 
L 359.249975 554.944586 
L 356.805311 555.382065 
L 354.356395 555.795076 
L 351.903471 556.183577 
L 350.811681 556.348423 
L 351.941522 563.945829 
L 353.067079 563.775884 
L 355.595867 563.375367 
L 358.120523 562.949583 
L 360.640795 562.498574 
L 363.156431 562.022386 
L 365.667179 561.521065 
L 368.172789 560.994662 
L 370.67301 560.44323 
L 373.167591 559.866823 
L 375.656284 559.2655 
L 378.138839 558.639321 
L 380.615008 557.988347 
L 383.084544 557.312645 
L 385.547199 556.612282 
L 388.002728 555.887328 
L 390.450885 555.137855 
L 392.891424 554.363938 
L 395.324103 553.565655 
L 397.748677 552.743086 
L 400.164905 551.896312 
L 402.572544 551.025419 
L 404.971353 550.130493 
L 407.361094 549.211625 
L 409.741527 548.268905 
L 412.112414 547.302429 
L 414.473517 546.312292 
L 416.824602 545.298594 
L 419.165432 544.261437 
L 421.495773 543.200923 
L 423.815393 542.11716 
L 426.12406 541.010255 
L 422.768742 534.100916 
z
" clip-path="url(#p6ea34c1971)" style="fill: none; stroke: #000000; stroke-width: 0.5; stroke-linejoin: miter"/>
   </g>
   <g id="patch_18">
    <path d="M 329.262906 558.597587 
L 326.783212 558.735017 
L 324.302268 558.847644 
L 321.820322 558.935456 
L 319.337621 558.998445 
L 316.854415 559.036604 
L 314.370951 559.04993 
L 311.887478 559.038421 
L 309.404245 559.002078 
L 306.921499 558.940905 
L 304.439489 558.854907 
L 301.958463 558.744095 
L 299.478669 558.608478 
L 297.000356 558.448071 
L 294.52377 558.262888 
L 292.04916 558.05295 
L 289.576773 557.818276 
L 287.106856 557.558891 
L 284.639656 557.27482 
L 282.175421 556.966091 
L 279.87681 556.655508 
L 278.812789 564.262412 
L 281.182492 564.5826 
L 283.722941 564.900877 
L 286.266445 565.193734 
L 288.812751 565.461141 
L 291.361604 565.703073 
L 293.912748 565.919504 
L 296.465929 566.110414 
L 299.020892 566.275782 
L 301.57738 566.415594 
L 304.135139 566.529833 
L 306.693912 566.61849 
L 309.253444 566.681555 
L 311.813479 566.719022 
L 314.37376 566.730888 
L 316.934032 566.71715 
L 319.494038 566.67781 
L 322.053523 566.612873 
L 324.612231 566.522345 
L 327.169906 566.406235 
L 329.726291 566.264554 
L 329.262906 558.597587 
z
" clip-path="url(#p6ea34c1971)" style="fill: none; stroke: #000000; stroke-width: 0.5; stroke-linejoin: miter"/>
   </g>
   <g id="patch_19">
    <path d="M 258.5712 552.721122 
L 256.153804 552.151941 
L 253.742221 551.558615 
L 251.336691 550.941203 
L 248.937456 550.299767 
L 246.544755 549.634371 
L 244.158828 548.945082 
L 241.779913 548.231969 
L 239.408247 547.495102 
L 237.044069 546.734556 
L 234.687614 545.950406 
L 232.339118 545.142732 
L 229.998817 544.311613 
L 227.666943 543.457134 
L 225.343731 542.579378 
L 223.029413 541.678435 
L 220.724219 540.754394 
L 218.428381 539.807348 
L 216.142128 538.837391 
L 213.865688 537.844621 
L 211.59929 536.829136 
L 209.34316 535.791038 
L 207.097524 534.730431 
L 204.862606 533.647422 
L 202.638629 532.542117 
L 200.425817 531.414629 
L 198.22439 530.265069 
L 196.034568 529.093552 
L 193.856571 527.900197 
L 191.690616 526.685121 
L 189.53692 525.448447 
L 187.395698 524.190299 
L 185.267164 522.910801 
L 183.151532 521.610082 
L 181.049013 520.288273 
L 178.959816 518.945504 
L 176.884151 517.581911 
L 174.822226 516.19763 
L 172.774247 514.7928 
L 170.740417 513.36756 
L 168.720942 511.922053 
L 166.716023 510.456424 
L 164.72586 508.97082 
L 162.750652 507.465389 
L 160.790597 505.940281 
L 158.845891 504.395649 
L 156.916728 502.831648 
L 155.003301 501.248434 
L 153.105802 499.646164 
L 151.22442 498.025001 
L 149.359344 496.385104 
L 147.51076 494.72664 
L 145.678852 493.049773 
L 143.863804 491.35467 
L 142.065798 489.641503 
L 140.285013 487.910441 
L 138.521628 486.161658 
L 136.775818 484.395329 
L 135.047758 482.611631 
L 133.337622 480.810742 
L 131.64558 478.992841 
L 129.971801 477.158111 
L 128.316452 475.306736 
L 126.6797 473.4389 
L 125.061708 471.55479 
L 123.462637 469.654594 
L 121.882649 467.738504 
L 120.321899 465.806709 
L 118.780545 463.859403 
L 117.258742 461.896782 
L 115.75664 459.919041 
L 114.27439 457.926378 
L 112.81214 455.918993 
L 111.370038 453.897086 
L 109.948226 451.860859 
L 108.546847 449.810516 
L 107.166041 447.746262 
L 105.805947 445.668303 
L 104.4667 443.576847 
L 103.148434 441.472104 
L 101.851281 439.354284 
L 100.57537 437.223598 
L 99.32083 435.08026 
L 98.087786 432.924483 
L 96.876361 430.756485 
L 95.686676 428.57648 
L 94.51885 426.384688 
L 93.373 424.181328 
L 92.24924 421.966619 
L 91.147684 419.740784 
L 90.06844 417.504045 
L 89.011618 415.256625 
L 87.977322 412.998749 
L 86.965656 410.730644 
L 85.976722 408.452536 
L 85.010618 406.164652 
L 84.06744 403.867222 
L 83.147284 401.560475 
L 82.25024 399.244642 
L 81.3764 396.919954 
L 80.525849 394.586645 
L 79.698674 392.244947 
L 78.894957 389.895094 
L 78.114778 387.537321 
L 77.358216 385.171865 
L 76.625345 382.798962 
L 75.91624 380.418849 
L 75.230971 378.031764 
L 74.569606 375.637945 
L 73.932213 373.237633 
L 73.318854 370.831067 
L 72.729591 368.418488 
L 72.164483 366.000137 
L 71.623586 363.576255 
L 71.106955 361.147086 
L 70.614641 358.712873 
L 70.146693 356.273858 
L 69.831768 354.553321 
L 62.27151 355.909641 
L 62.596174 357.68339 
L 63.078594 360.197839 
L 63.586135 362.707337 
L 64.118744 365.211635 
L 64.67637 367.710482 
L 65.258956 370.203627 
L 65.866443 372.690822 
L 66.498772 375.171818 
L 67.155879 377.646367 
L 67.837698 380.114221 
L 68.544161 382.575134 
L 69.275197 385.028859 
L 70.030734 387.475151 
L 70.810695 389.913765 
L 71.615003 392.344458 
L 72.443578 394.766987 
L 73.296335 397.181109 
L 74.173192 399.586583 
L 75.074058 401.983168 
L 75.998845 404.370624 
L 76.94746 406.748714 
L 77.919808 409.117199 
L 78.915792 411.475842 
L 79.935312 413.824407 
L 80.978266 416.16266 
L 82.04455 418.490367 
L 83.134058 420.807294 
L 84.24668 423.113211 
L 85.382306 425.407887 
L 86.54082 427.691092 
L 87.722109 429.962597 
L 88.926053 432.222177 
L 90.152533 434.469604 
L 91.401425 436.704654 
L 92.672604 438.927104 
L 93.965945 441.136731 
L 95.281316 443.333314 
L 96.618587 445.516634 
L 97.977624 447.686472 
L 99.358292 449.842612 
L 100.760451 451.984838 
L 102.183962 454.112935 
L 103.628682 456.22669 
L 105.094468 458.325893 
L 106.581172 460.410334 
L 108.088645 462.479803 
L 109.616738 464.534095 
L 111.165296 466.573003 
L 112.734166 468.596324 
L 114.323191 470.603855 
L 115.932211 472.595396 
L 117.561065 474.570748 
L 119.209592 476.529712 
L 120.877625 478.472094 
L 122.564998 480.397698 
L 124.271543 482.306332 
L 125.997088 484.197806 
L 127.741462 486.071931 
L 129.504489 487.928518 
L 131.285994 489.767382 
L 133.085798 491.588339 
L 134.903721 493.391208 
L 136.739582 495.175808 
L 138.593196 496.94196 
L 140.464379 498.689488 
L 142.352944 500.418217 
L 144.258701 502.127975 
L 146.18146 503.818589 
L 148.121029 505.489892 
L 150.077214 507.141716 
L 152.049818 508.773896 
L 154.038646 510.386268 
L 156.043498 511.978672 
L 158.064173 513.550948 
L 160.10047 515.102939 
L 162.152184 516.63449 
L 164.219112 518.145448 
L 166.301045 519.635661 
L 168.397776 521.10498 
L 170.509095 522.553259 
L 172.634791 523.980353 
L 174.774651 525.386119 
L 176.928462 526.770416 
L 179.096008 528.133106 
L 181.277073 529.474053 
L 183.471437 530.793123 
L 185.678882 532.090184 
L 187.899188 533.365105 
L 190.132131 534.617761 
L 192.377489 535.848024 
L 194.635037 537.055773 
L 196.904549 538.240886 
L 199.185799 539.403245 
L 201.478559 540.542735 
L 203.782598 541.659239 
L 206.097687 542.752648 
L 208.423594 543.822852 
L 210.760087 544.869744 
L 213.106932 545.893219 
L 215.463894 546.893174 
L 217.830737 547.869511 
L 220.207225 548.82213 
L 222.593121 549.750937 
L 224.988185 550.65584 
L 227.392178 551.536747 
L 229.80486 552.39357 
L 232.22599 553.226224 
L 234.655325 554.034625 
L 237.092622 554.818694 
L 239.537638 555.57835 
L 241.990128 556.313519 
L 244.449847 557.024126 
L 246.916549 557.710101 
L 249.389987 558.371375 
L 251.869914 559.007882 
L 254.356083 559.619559 
L 256.848243 560.206344 
L 258.5712 552.721122 
z
" clip-path="url(#p6ea34c1971)" style="fill: none; stroke: #000000; stroke-width: 0.5; stroke-linejoin: miter"/>
   </g>
   <g id="patch_20">
    <path d="M 66.93981 333.081363 
L 66.728356 330.606881 
L 66.541658 328.13041 
L 66.379733 325.652195 
L 66.242598 323.172484 
L 66.130267 320.691526 
L 66.042751 318.20957 
L 65.980058 315.726862 
L 65.942195 313.243651 
L 65.929165 310.760186 
L 65.94097 308.276714 
L 65.977609 305.793485 
L 66.039078 303.310746 
L 66.125371 300.828747 
L 66.236479 298.347734 
L 66.372392 295.867956 
L 66.533095 293.389662 
L 66.718572 290.913098 
L 66.928806 288.438513 
L 67.163774 285.966154 
L 67.423454 283.496268 
L 67.707819 281.029103 
L 68.016841 278.564904 
L 68.35049 276.103919 
L 68.708731 273.646393 
L 69.091529 271.192573 
L 69.498845 268.742703 
L 69.93064 266.297028 
L 70.386869 263.855794 
L 70.867488 261.419244 
L 71.372448 258.987622 
L 71.604756 257.908172 
L 64.099331 256.275467 
L 63.859839 257.388302 
L 63.339262 259.895129 
L 62.843779 262.407036 
L 62.373439 264.923772 
L 61.92829 267.445086 
L 61.508376 269.970725 
L 61.113739 272.500437 
L 60.744418 275.033969 
L 60.400451 277.571067 
L 60.081871 280.111478 
L 59.788711 282.654947 
L 59.521 285.201221 
L 59.278765 287.750045 
L 59.062029 290.301164 
L 58.870815 292.854322 
L 58.705142 295.409265 
L 58.565026 297.965737 
L 58.450482 300.523482 
L 58.36152 303.082245 
L 58.29815 305.641769 
L 58.260378 308.201799 
L 58.248207 310.762079 
L 58.26164 313.322352 
L 58.300674 315.882363 
L 58.365306 318.441856 
L 58.455529 321.000575 
L 58.571335 323.558263 
L 58.712711 326.114665 
L 58.879643 328.669526 
L 59.072116 331.22259 
L 59.290109 333.773602 
L 66.93981 333.081363 
z
" clip-path="url(#p6ea34c1971)" style="fill: none; stroke: #000000; stroke-width: 0.5; stroke-linejoin: miter"/>
   </g>
   <g id="patch_21">
    <path d="M 77.12923 236.958504 
L 77.87848 234.590722 
L 78.651369 232.23055 
L 79.447822 229.878225 
L 80.267757 227.533982 
L 81.111094 225.198055 
L 81.977747 222.870679 
L 82.86763 220.552085 
L 83.780655 218.242506 
L 84.716729 215.942172 
L 85.675759 213.651314 
L 86.65765 211.370161 
L 87.662302 209.098941 
L 88.689616 206.83788 
L 89.739489 204.587205 
L 90.811816 202.347142 
L 91.90649 200.117914 
L 93.0234 197.899743 
L 93.886311 196.2229 
L 87.070008 192.682403 
L 86.180409 194.411107 
L 85.028954 196.697881 
L 83.900425 198.996055 
L 82.794933 201.305398 
L 81.71259 203.625681 
L 80.653503 205.956672 
L 79.617779 208.298136 
L 78.605521 210.649841 
L 77.61683 213.01155 
L 76.651805 215.383028 
L 75.710543 217.764037 
L 74.793137 220.15434 
L 73.89968 222.553697 
L 73.030261 224.961869 
L 72.184967 227.378614 
L 71.363882 229.803692 
L 70.567088 232.236858 
L 69.794666 234.677871 
L 77.12923 236.958504 
z
" clip-path="url(#p6ea34c1971)" style="fill: none; stroke: #000000; stroke-width: 0.5; stroke-linejoin: miter"/>
   </g>
   <g id="patch_22">
    <path d="M 104.702223 177.449929 
L 106.04517 175.360847 
L 107.408941 173.285299 
L 108.793398 171.223492 
L 110.198404 169.175632 
L 111.623817 167.141925 
L 113.069497 165.122574 
L 114.535297 163.11778 
L 116.021071 161.127743 
L 117.526672 159.152664 
L 119.051947 157.19274 
L 119.279657 156.903581 
L 113.248714 152.147023 
L 113.013962 152.445124 
L 111.441513 154.465665 
L 109.889348 156.501829 
L 108.357621 158.553413 
L 106.846487 160.620211 
L 105.356096 162.702017 
L 103.886598 164.798622 
L 102.438138 166.909817 
L 101.010862 169.035391 
L 99.604914 171.175132 
L 98.220432 173.328824 
L 104.702223 177.449929 
z
" clip-path="url(#p6ea34c1971)" style="fill: none; stroke: #000000; stroke-width: 0.5; stroke-linejoin: miter"/>
   </g>
   <g id="patch_23">
    <path d="M 133.425844 140.493407 
L 135.136914 138.693405 
L 136.865898 136.910603 
L 138.612623 135.145179 
L 140.376915 133.397311 
L 142.158597 131.667173 
L 142.291307 131.53968 
L 136.972065 125.998671 
L 136.835251 126.130107 
L 134.998465 127.913755 
L 133.179607 129.715681 
L 131.37886 131.535705 
L 129.596402 133.373645 
L 127.832412 135.229318 
L 133.425844 140.493407 
z
" clip-path="url(#p6ea34c1971)" style="fill: none; stroke: #000000; stroke-width: 0.5; stroke-linejoin: miter"/>
   </g>
   <g id="patch_24">
    <path d="M 158.560537 117.231621 
L 160.502964 115.684125 
L 162.460769 114.156129 
L 164.433756 112.647788 
L 166.421727 111.159252 
L 168.424483 109.690669 
L 170.441826 108.242187 
L 172.473552 106.813951 
L 174.519458 105.406103 
L 176.57934 104.018784 
L 178.652993 102.652133 
L 180.740208 101.306286 
L 182.840777 99.981379 
L 184.954489 98.677543 
L 187.081135 97.394909 
L 189.220499 96.133605 
L 191.37237 94.893758 
L 193.536532 93.675491 
L 195.712768 92.478926 
L 197.90086 91.304183 
L 200.10059 90.15138 
L 202.311738 89.020631 
L 204.534083 87.912049 
L 206.767402 86.825746 
L 209.011473 85.76183 
L 211.26607 84.720408 
L 213.530969 83.701583 
L 214.983584 83.062411 
L 211.912556 76.022105 
L 210.415015 76.681046 
L 208.080068 77.73138 
L 205.755741 78.805011 
L 203.442266 79.901832 
L 201.139875 81.021732 
L 198.848798 82.164599 
L 196.569264 83.33032 
L 194.301501 84.518778 
L 192.045736 85.729853 
L 189.802194 86.963425 
L 187.571099 88.21937 
L 185.352676 89.497563 
L 183.147145 90.797876 
L 180.954727 92.120179 
L 178.775642 93.46434 
L 176.610107 94.830224 
L 174.458339 96.217695 
L 172.320553 97.626613 
L 170.196963 99.056839 
L 168.087781 100.508229 
L 165.993218 101.980637 
L 163.913484 103.473918 
L 161.848786 104.98792 
L 159.799331 106.522494 
L 157.765325 108.077485 
L 155.746969 109.652738 
L 153.744467 111.248095 
L 158.560537 117.231621 
z
" clip-path="url(#p6ea34c1971)" style="fill: none; stroke: #000000; stroke-width: 0.5; stroke-linejoin: miter"/>
   </g>
   <g id="patch_25">
    <path d="M 235.20127 75.274372 
L 237.559431 74.495368 
L 239.925264 73.739984 
L 242.298532 73.008295 
L 244.678998 72.300376 
L 247.066424 71.616296 
L 249.460572 70.956124 
L 251.861201 70.319926 
L 254.268073 69.707766 
L 256.680945 69.119705 
L 259.099577 68.555801 
L 261.523728 68.016112 
L 263.953154 67.500691 
L 266.387612 67.009589 
L 268.82686 66.542856 
L 271.270653 66.100539 
L 273.718747 65.682681 
L 276.170897 65.289325 
L 278.626858 64.920509 
L 281.086384 64.576271 
L 283.54923 64.256645 
L 286.015149 63.961663 
L 288.483894 63.691355 
L 290.955219 63.445747 
L 292.634921 63.293043 
L 291.965481 55.641313 
L 290.23383 55.79874 
L 287.686072 56.051944 
L 285.140974 56.330613 
L 282.59879 56.634718 
L 280.059774 56.964229 
L 277.524179 57.319113 
L 274.992261 57.699336 
L 272.464271 58.104858 
L 269.940463 58.535639 
L 267.421089 58.991636 
L 264.9064 59.472804 
L 262.396649 59.979095 
L 259.892086 60.510457 
L 257.392962 61.066837 
L 254.899527 61.648181 
L 252.412029 62.25443 
L 249.930719 62.885523 
L 247.455843 63.541397 
L 244.98765 64.221986 
L 242.526386 64.927223 
L 240.072297 65.657037 
L 237.625629 66.411355 
L 235.186626 67.190102 
L 232.755532 67.993199 
L 235.20127 75.274372 
z
" clip-path="url(#p6ea34c1971)" style="fill: none; stroke: #000000; stroke-width: 0.5; stroke-linejoin: miter"/>
   </g>
   <g id="text_1">
    <text style="font: 10px 'DejaVu Sans', 'Bitstream Vera Sans', 'Computer Modern Sans Serif', 'Lucida Grande', 'Verdana', 'Geneva', 'Lucid', 'Arial', 'Helvetica', 'Avant Garde', sans-serif; text-anchor: middle" x="440.668848" y="71.074544" transform="rotate(-332.190817 440.668848 71.074544)">CA1v</text>
   </g>
   <g id="text_2">
    <text style="font: 10px 'DejaVu Sans', 'Bitstream Vera Sans', 'Computer Modern Sans Serif', 'Lucida Grande', 'Verdana', 'Geneva', 'Lucid', 'Arial', 'Helvetica', 'Avant Garde', sans-serif; text-anchor: middle" x="590.689721" y="314.216615" transform="rotate(-89.270881 590.689721 314.216615)">SUBv</text>
   </g>
   <g id="text_3">
    <text style="font: 10px 'DejaVu Sans', 'Bitstream Vera Sans', 'Computer Modern Sans Serif', 'Lucida Grande', 'Verdana', 'Geneva', 'Lucid', 'Arial', 'Helvetica', 'Avant Garde', sans-serif; text-anchor: middle" x="501.145639" y="514.404436" transform="rotate(-42.531149 501.145639 514.404436)">AAA</text>
   </g>
   <g id="text_4">
    <text style="font: 10px 'DejaVu Sans', 'Bitstream Vera Sans', 'Computer Modern Sans Serif', 'Lucida Grande', 'Verdana', 'Geneva', 'Lucid', 'Arial', 'Helvetica', 'Avant Garde', sans-serif; text-anchor: middle" x="395.93311" y="574.796348" transform="rotate(-17.180434 395.93311 574.796348)">MEA</text>
   </g>
   <g id="text_5">
    <text style="font: 10px 'DejaVu Sans', 'Bitstream Vera Sans', 'Computer Modern Sans Serif', 'Lucida Grande', 'Verdana', 'Geneva', 'Lucid', 'Arial', 'Helvetica', 'Avant Garde', sans-serif; text-anchor: middle" x="303.418011" y="586.917448" transform="rotate(-357.748039 303.418011 586.917448)">BST</text>
   </g>
   <g id="text_6">
    <text style="font: 10px 'DejaVu Sans', 'Bitstream Vera Sans', 'Computer Modern Sans Serif', 'Lucida Grande', 'Verdana', 'Geneva', 'Lucid', 'Arial', 'Helvetica', 'Avant Garde', sans-serif; text-anchor: middle" x="114.109392" y="501.346046" transform="rotate(-313.604061 114.109392 501.346046)">BLA</text>
   </g>
   <g id="text_7">
    <text style="font: 10px 'DejaVu Sans', 'Bitstream Vera Sans', 'Computer Modern Sans Serif', 'Lucida Grande', 'Verdana', 'Geneva', 'Lucid', 'Arial', 'Helvetica', 'Avant Garde', sans-serif; text-anchor: middle" x="43.887049" y="293.919462" transform="rotate(-86.449008 43.887049 293.919462)">IA</text>
   </g>
   <g id="text_8">
    <text style="font: 10px 'DejaVu Sans', 'Bitstream Vera Sans', 'Computer Modern Sans Serif', 'Lucida Grande', 'Verdana', 'Geneva', 'Lucid', 'Arial', 'Helvetica', 'Avant Garde', sans-serif; text-anchor: middle" x="63.737111" y="207.635079" transform="rotate(-67.639594 63.737111 207.635079)">CA3</text>
   </g>
   <g id="text_9">
    <text style="font: 10px 'DejaVu Sans', 'Bitstream Vera Sans', 'Computer Modern Sans Serif', 'Lucida Grande', 'Verdana', 'Geneva', 'Lucid', 'Arial', 'Helvetica', 'Avant Garde', sans-serif; text-anchor: middle" x="93.328954" y="153.936257" transform="rotate(-54.64467 93.328954 153.936257)">CA2</text>
   </g>
   <g id="text_10">
    <text style="font: 10px 'DejaVu Sans', 'Bitstream Vera Sans', 'Computer Modern Sans Serif', 'Lucida Grande', 'Verdana', 'Geneva', 'Lucid', 'Arial', 'Helvetica', 'Avant Garde', sans-serif; text-anchor: middle" x="121.769039" y="120.085616" transform="rotate(-45.283802 121.769039 120.085616)">CA1d</text>
   </g>
   <g id="text_11">
    <text style="font: 10px 'DejaVu Sans', 'Bitstream Vera Sans', 'Computer Modern Sans Serif', 'Lucida Grande', 'Verdana', 'Geneva', 'Lucid', 'Arial', 'Helvetica', 'Avant Garde', sans-serif; text-anchor: middle" x="173.945182" y="78.966206" transform="rotate(-31.198662 173.945182 78.966206)">PAR</text>
   </g>
   <g id="text_12">
    <text style="font: 10px 'DejaVu Sans', 'Bitstream Vera Sans', 'Computer Modern Sans Serif', 'Lucida Grande', 'Verdana', 'Geneva', 'Lucid', 'Arial', 'Helvetica', 'Avant Garde', sans-serif; text-anchor: middle" x="258.955489" y="45.49498" transform="rotate(-11.783572 258.955489 45.49498)">CEA</text>
   </g>
  </g>
 </g>
 <defs>
  <clipPath id="p6ea34c1971">
   <path d="M 583.113666 310.69897 
C 583.113666 275.396074 576.159765 240.436454 562.649932 207.820831 
C 549.140099 175.205208 529.337065 145.567873 504.374148 120.604956 
C 479.411231 95.642039 449.773896 75.839005 417.158273 62.329172 
C 384.54265 48.819339 349.58303 41.865438 314.280134 41.865438 
C 278.977238 41.865438 244.017619 48.819339 211.401996 62.329172 
C 178.786373 75.839005 149.149038 95.642039 124.186121 120.604956 
C 99.223204 145.567873 79.42017 175.205208 65.910337 207.820831 
C 52.400503 240.436454 45.446603 275.396074 45.446603 310.69897 
C 45.446603 346.001866 52.400503 380.961485 65.910337 413.577108 
C 79.42017 446.192731 99.223204 475.830066 124.186121 500.792983 
C 149.149038 525.7559 178.786373 545.558934 211.401996 559.068767 
C 244.017619 572.578601 278.977238 579.532501 314.280134 579.532501 
C 349.58303 579.532501 384.54265 572.578601 417.158273 559.068767 
C 449.773896 545.558934 479.411231 525.7559 504.374148 500.792983 
C 529.337065 475.830066 549.140099 446.192731 562.649932 413.577108 
C 576.159765 380.961485 583.113666 346.001866 583.113666 310.69897 
M 314.280134 310.69897 
C 314.280134 310.69897 314.280134 310.69897 314.280134 310.69897 
C 314.280134 310.69897 314.280134 310.69897 314.280134 310.69897 
C 314.280134 310.69897 314.280134 310.69897 314.280134 310.69897 
C 314.280134 310.69897 314.280134 310.69897 314.280134 310.69897 
C 314.280134 310.69897 314.280134 310.69897 314.280134 310.69897 
C 314.280134 310.69897 314.280134 310.69897 314.280134 310.69897 
C 314.280134 310.69897 314.280134 310.69897 314.280134 310.69897 
C 314.280134 310.69897 314.280134 310.69897 314.280134 310.69897 
C 314.280134 310.69897 314.280134 310.69897 314.280134 310.69897 
C 314.280134 310.69897 314.280134 310.69897 314.280134 310.69897 
C 314.280134 310.69897 314.280134 310.69897 314.280134 310.69897 
C 314.280134 310.69897 314.280134 310.69897 314.280134 310.69897 
C 314.280134 310.69897 314.280134 310.69897 314.280134 310.69897 
C 314.280134 310.69897 314.280134 310.69897 314.280134 310.69897 
C 314.280134 310.69897 314.280134 310.69897 314.280134 310.69897 
C 314.280134 310.69897 314.280134 310.69897 314.280134 310.69897 
z
"/>
  </clipPath>
 </defs>
</svg>
