<?xml version="1.0" encoding="utf-8" standalone="no"?>
<!DOCTYPE svg PUBLIC "-//W3C//DTD SVG 1.1//EN"
  "http://www.w3.org/Graphics/SVG/1.1/DTD/svg11.dtd">
<svg xmlns:xlink="http://www.w3.org/1999/xlink" width="626.507598pt" height="626.050198pt" viewBox="0 0 626.507598 626.050198" xmlns="http://www.w3.org/2000/svg" version="1.1">
 <metadata>
  <rdf:RDF xmlns:dc="http://purl.org/dc/elements/1.1/" xmlns:cc="http://creativecommons.org/ns#" xmlns:rdf="http://www.w3.org/1999/02/22-rdf-syntax-ns#">
   <cc:Work>
    <dc:type rdf:resource="http://purl.org/dc/dcmitype/StillImage"/>
    <dc:date>2024-10-28T10:44:02.198800</dc:date>
    <dc:format>image/svg+xml</dc:format>
    <dc:creator>
     <cc:Agent>
      <dc:title>Matplotlib v3.9.2, https://matplotlib.org/</dc:title>
     </cc:Agent>
    </dc:creator>
   </cc:Work>
  </rdf:RDF>
 </metadata>
 <defs>
  <style type="text/css">*{stroke-linejoin: round; stroke-linecap: butt}</style>
 </defs>
 <g id="figure_1">
  <g id="patch_1">
   <path d="M 0 626.050198 
L 626.507598 626.050198 
L 626.507598 0 
L 0 0 
z
" style="fill: #ffffff"/>
  </g>
  <g id="axes_1">
   <g id="patch_2">
    <path d="M 317.966796 65.733608 
L 320.484512 65.746196 
L 323.001976 65.783961 
L 325.518937 65.846898 
L 328.035142 65.935001 
L 330.550341 66.048262 
L 333.064281 66.186668 
L 335.576712 66.350207 
L 338.087381 66.538861 
L 340.596039 66.752612 
L 343.102433 66.991438 
L 345.606314 67.255316 
L 348.107431 67.544219 
L 350.605535 67.858119 
L 353.100374 68.196983 
L 355.5917 68.560778 
L 358.079263 68.949469 
L 360.562815 69.363014 
L 363.042108 69.801375 
L 365.516893 70.264506 
L 367.986924 70.752361 
L 370.451952 71.264891 
L 372.911732 71.802046 
L 375.366017 72.363772 
L 376.562969 72.647116 
L 378.375222 65.074056 
L 377.14125 64.781948 
L 374.611059 64.20285 
L 372.075204 63.649082 
L 369.533938 63.1207 
L 366.987515 62.617756 
L 364.43619 62.140302 
L 361.880218 61.688384 
L 359.319855 61.262048 
L 356.755357 60.861337 
L 354.186979 60.48629 
L 351.61498 60.136945 
L 349.039616 59.813337 
L 346.461145 59.515499 
L 343.879824 59.24346 
L 341.295912 58.997247 
L 338.709667 58.776885 
L 336.121348 58.582397 
L 333.531214 58.4138 
L 330.939523 58.271113 
L 328.346534 58.15435 
L 325.752508 58.063522 
L 323.157703 57.998638 
L 320.56238 57.959706 
L 317.966796 57.946728 
z
" clip-path="url(#p9406574577)" style="fill: #1f77b4"/>
   </g>
   <g id="patch_3">
    <path d="M 376.562969 72.647116 
L 379.008622 73.245311 
L 381.44817 73.867932 
L 383.88137 74.514918 
L 386.307978 75.186202 
L 388.727753 75.881718 
L 391.140451 76.601397 
L 393.545832 77.345167 
L 395.943656 78.112953 
L 398.333681 78.904678 
L 400.715671 79.720264 
L 403.089385 80.559628 
L 405.454587 81.422687 
L 407.81104 82.309355 
L 410.158509 83.219542 
L 412.496759 84.153158 
L 414.825556 85.11011 
L 417.144668 86.090301 
L 419.453861 87.093634 
L 421.752906 88.120009 
L 424.041572 89.169322 
L 426.319631 90.241469 
L 428.586855 91.336343 
L 430.843017 92.453833 
L 433.087891 93.593829 
L 435.321254 94.756217 
L 437.542881 95.940879 
L 439.75255 97.147699 
L 441.950041 98.376554 
L 444.135134 99.627322 
L 446.30761 100.899879 
L 448.467252 102.194096 
L 450.613844 103.509844 
L 452.747172 104.846992 
L 454.867022 106.205407 
L 456.973181 107.584951 
L 459.06544 108.985488 
L 461.14359 110.406877 
L 463.207422 111.848976 
L 465.25673 113.311641 
L 467.291309 114.794726 
L 469.310956 116.298082 
L 471.315468 117.821559 
L 473.304646 119.365004 
L 475.27829 120.928264 
L 477.236203 122.511182 
L 479.178189 124.113599 
L 481.104054 125.735356 
L 483.013606 127.37629 
L 484.906653 129.036237 
L 486.783006 130.715031 
L 488.642478 132.412505 
L 490.484882 134.128488 
L 492.310035 135.862809 
L 494.117754 137.615295 
L 495.907857 139.385769 
L 497.680167 141.174056 
L 499.434505 142.979977 
L 501.170697 144.80335 
L 502.888569 146.643994 
L 504.587948 148.501724 
L 506.268666 150.376355 
L 507.930553 152.267699 
L 509.573445 154.175567 
L 511.197175 156.099768 
L 512.801583 158.04011 
L 514.386508 159.996398 
L 515.951791 161.968438 
L 517.497275 163.956032 
L 519.022807 165.958982 
L 520.528233 167.977086 
L 522.013403 170.010143 
L 523.478169 172.05795 
L 524.922384 174.120302 
L 526.345903 176.196992 
L 527.748585 178.287814 
L 529.130288 180.392558 
L 530.490876 182.511014 
L 531.830211 184.642969 
L 533.14816 186.788211 
L 534.444591 188.946525 
L 535.719375 191.117695 
L 536.972383 193.301504 
L 538.203491 195.497733 
L 539.412576 197.706164 
L 540.599516 199.926575 
L 541.764193 202.158744 
L 542.90649 204.402448 
L 544.026294 206.657463 
L 545.123492 208.923563 
L 546.197974 211.200521 
L 547.249634 213.488111 
L 548.278365 215.786102 
L 549.284066 218.094265 
L 550.266635 220.41237 
L 551.225974 222.740184 
L 552.161988 225.077476 
L 553.074582 227.42401 
L 553.963665 229.779553 
L 554.829149 232.143869 
L 555.670947 234.516721 
L 556.488975 236.897873 
L 557.283151 239.287085 
L 558.053395 241.68412 
L 558.799631 244.088737 
L 559.521784 246.500696 
L 560.219782 248.919757 
L 560.893554 251.345675 
L 561.543034 253.778211 
L 562.168156 256.217119 
L 562.768859 258.662157 
L 563.345082 261.113079 
L 563.896767 263.56964 
L 564.423859 266.031596 
L 564.926305 268.4987 
L 565.404056 270.970704 
L 565.857064 273.447362 
L 566.285282 275.928427 
L 566.688669 278.413649 
L 567.067184 280.902781 
L 567.420789 283.395574 
L 567.749449 285.891778 
L 568.053131 288.391144 
L 568.331805 290.893421 
L 568.585442 293.39836 
L 568.814017 295.905711 
L 569.017508 298.415221 
L 569.064629 299.045216 
L 576.830541 298.474159 
L 576.781963 297.82468 
L 576.572179 295.237555 
L 576.336534 292.652658 
L 576.075052 290.070247 
L 575.78776 287.490579 
L 575.474686 284.913913 
L 575.135861 282.340507 
L 574.77132 279.770618 
L 574.381098 277.204502 
L 573.965235 274.642417 
L 573.523773 272.084619 
L 573.056755 269.531363 
L 572.564228 266.982905 
L 572.046242 264.439499 
L 571.502848 261.901401 
L 570.934101 259.368863 
L 570.340057 256.842139 
L 569.720776 254.321482 
L 569.07632 251.807143 
L 568.406753 249.299375 
L 567.712142 246.798427 
L 566.992557 244.304551 
L 566.248069 241.817995 
L 565.478754 239.339008 
L 564.684688 236.867839 
L 563.86595 234.404733 
L 563.022622 231.949937 
L 562.154789 229.503698 
L 561.262538 227.066259 
L 560.345957 224.637864 
L 559.405138 222.218757 
L 558.440176 219.809178 
L 557.451166 217.409369 
L 556.438208 215.01957 
L 555.401404 212.64002 
L 554.340856 210.270957 
L 553.256671 207.912618 
L 552.148957 205.565238 
L 551.017825 203.229053 
L 549.863388 200.904295 
L 548.685762 198.591198 
L 547.485064 196.289993 
L 546.261414 194.000909 
L 545.014935 191.724177 
L 543.745752 189.460022 
L 542.45399 187.208673 
L 541.139781 184.970353 
L 539.803254 182.745288 
L 538.444543 180.533698 
L 537.063785 178.335806 
L 535.661118 176.151831 
L 534.236681 173.981992 
L 532.790618 171.826506 
L 531.323072 169.685587 
L 529.834191 167.559451 
L 528.324123 165.44831 
L 526.79302 163.352375 
L 525.241034 161.271855 
L 523.668321 159.206959 
L 522.075038 157.157893 
L 520.461344 155.124862 
L 518.827401 153.10807 
L 517.173373 151.107717 
L 515.499423 149.124005 
L 513.805721 147.157131 
L 512.092435 145.207292 
L 510.359736 143.274683 
L 508.607799 141.359497 
L 506.836797 139.461926 
L 505.046909 137.58216 
L 503.238312 135.720386 
L 501.411189 133.876791 
L 499.565721 132.051559 
L 497.702094 130.244873 
L 495.820493 128.456913 
L 493.921107 126.687859 
L 492.004126 124.937886 
L 490.069741 123.20717 
L 488.118146 121.495884 
L 486.149537 119.8042 
L 484.164108 118.132286 
L 482.162061 116.480309 
L 480.143594 114.848435 
L 478.108909 113.236827 
L 476.05821 111.645646 
L 473.991703 110.075051 
L 471.909593 108.5252 
L 469.812088 106.996247 
L 467.6994 105.488345 
L 465.571738 104.001645 
L 463.429316 102.536295 
L 461.272348 101.092443 
L 459.101049 99.670232 
L 456.915637 98.269805 
L 454.71633 96.891301 
L 452.503349 95.53486 
L 450.276914 94.200615 
L 448.037248 92.888701 
L 445.784575 91.599249 
L 443.51912 90.332388 
L 441.24111 89.088245 
L 438.950773 87.866943 
L 436.648338 86.668606 
L 434.334034 85.493352 
L 432.008094 84.3413 
L 429.67075 83.212564 
L 427.322236 82.107258 
L 424.962786 81.025492 
L 422.592636 79.967374 
L 420.212024 78.93301 
L 417.821188 77.922503 
L 415.420366 76.935955 
L 413.009799 75.973464 
L 410.589728 75.035127 
L 408.160395 74.121037 
L 405.722042 73.231285 
L 403.274914 72.365961 
L 400.819255 71.525151 
L 398.355311 70.708939 
L 395.883328 69.917407 
L 393.403554 69.150635 
L 390.916236 68.408697 
L 388.421623 67.69167 
L 385.919965 66.999624 
L 383.411511 66.332629 
L 380.896513 65.690752 
L 378.375222 65.074056 
z
" clip-path="url(#p9406574577)" style="fill: #ff7f0e"/>
   </g>
   <g id="patch_4">
    <path d="M 569.064629 299.045216 
L 569.236713 301.557076 
L 569.38367 304.070531 
L 569.505486 306.58533 
L 569.602148 309.101221 
L 569.673646 311.617953 
L 569.719975 314.135274 
L 569.741128 316.652933 
L 569.737104 319.170677 
L 569.707903 321.688255 
L 569.653528 324.205415 
L 569.573985 326.721906 
L 569.469281 329.237475 
L 569.339427 331.751871 
L 569.184436 334.264844 
L 569.004323 336.77614 
L 568.799107 339.285511 
L 568.568808 341.792703 
L 568.313449 344.297467 
L 568.033056 346.799553 
L 567.727656 349.298709 
L 567.39728 351.794687 
L 567.041962 354.287236 
L 566.661736 356.776107 
L 566.256641 359.261052 
L 565.826717 361.741821 
L 565.372007 364.218167 
L 564.892557 366.689843 
L 564.388414 369.1566 
L 563.85963 371.618193 
L 563.306256 374.074375 
L 562.728349 376.5249 
L 562.125966 378.969524 
L 561.499167 381.408002 
L 560.848015 383.840091 
L 560.172575 386.265546 
L 559.472915 388.684126 
L 558.749104 391.095588 
L 558.001216 393.499691 
L 557.229324 395.896196 
L 556.433506 398.284862 
L 555.613841 400.665451 
L 554.770412 403.037724 
L 553.903303 405.401444 
L 553.012601 407.756375 
L 552.098394 410.102282 
L 551.160774 412.438929 
L 550.199835 414.766084 
L 549.215673 417.083513 
L 548.208386 419.390984 
L 547.178075 421.688268 
L 546.124843 423.975133 
L 545.048796 426.251353 
L 543.95004 428.516698 
L 542.828687 430.770942 
L 541.684847 433.013861 
L 540.518636 435.245229 
L 539.33017 437.464823 
L 538.119567 439.672422 
L 536.88695 441.867805 
L 535.63244 444.050752 
L 534.356165 446.221046 
L 533.05825 448.378468 
L 531.738827 450.522803 
L 530.398027 452.653837 
L 529.035983 454.771357 
L 527.652833 456.87515 
L 526.248715 458.965008 
L 524.823768 461.040719 
L 523.378136 463.102078 
L 521.911963 465.148878 
L 520.425396 467.180913 
L 518.918582 469.197982 
L 517.391674 471.199882 
L 515.844824 473.186413 
L 514.278186 475.157377 
L 512.691917 477.112576 
L 511.086176 479.051814 
L 509.461122 480.974899 
L 507.81692 482.881637 
L 506.153733 484.771838 
L 504.471727 486.645313 
L 502.771071 488.501874 
L 501.051934 490.341337 
L 499.314489 492.163516 
L 497.55891 493.96823 
L 495.785372 495.755299 
L 493.994051 497.524543 
L 492.185129 499.275785 
L 490.358784 501.008851 
L 488.515201 502.723567 
L 486.654563 504.419762 
L 484.777056 506.097266 
L 482.882868 507.755912 
L 480.972189 509.395533 
L 479.045209 511.015965 
L 477.102122 512.617048 
L 475.143121 514.198619 
L 473.168403 515.760522 
L 471.178165 517.302599 
L 469.172606 518.824698 
L 467.151926 520.326665 
L 465.116328 521.808351 
L 463.066015 523.269607 
L 461.001192 524.710287 
L 458.922066 526.130247 
L 456.828845 527.529345 
L 454.721737 528.907442 
L 452.600954 530.264398 
L 450.466708 531.60008 
L 448.319212 532.914353 
L 446.158681 534.207085 
L 443.98533 535.478147 
L 441.799378 536.727413 
L 439.601043 537.954758 
L 437.390545 539.160058 
L 435.168104 540.343193 
L 432.933943 541.504045 
L 430.688285 542.642498 
L 428.431356 543.758437 
L 426.16338 544.851752 
L 423.884585 545.922333 
L 421.595197 546.970072 
L 419.295448 547.994866 
L 416.985565 548.996612 
L 414.66578 549.975209 
L 412.336326 550.930559 
L 409.997435 551.862568 
L 407.649341 552.771141 
L 405.292278 553.656189 
L 402.926484 554.517622 
L 400.552193 555.355354 
L 398.169644 556.169302 
L 395.779074 556.959384 
L 393.380724 557.725522 
L 390.974832 558.467638 
L 388.561639 559.185658 
L 386.141387 559.879511 
L 383.714318 560.549127 
L 381.280674 561.19444 
L 378.840698 561.815384 
L 376.394635 562.411897 
L 373.94273 562.983921 
L 371.485227 563.531397 
L 369.022372 564.054272 
L 366.554411 564.552492 
L 364.081592 565.026008 
L 361.604162 565.474772 
L 359.122367 565.898741 
L 356.636457 566.29787 
L 354.146681 566.672121 
L 351.653286 567.021456 
L 349.156523 567.34584 
L 346.65664 567.64524 
L 344.153889 567.919627 
L 341.648519 568.168973 
L 339.140781 568.393254 
L 336.630926 568.592446 
L 334.119204 568.76653 
L 331.605867 568.915489 
L 329.091166 569.039307 
L 326.575352 569.137972 
L 324.058678 569.211475 
L 321.541395 569.259808 
L 319.023754 569.282966 
L 316.506007 569.280947 
L 313.988407 569.253751 
L 311.471204 569.20138 
L 308.954651 569.123841 
L 306.438999 569.02114 
L 303.9245 568.893289 
L 301.411405 568.740299 
L 298.899966 568.562186 
L 296.390433 568.358969 
L 293.883058 568.130666 
L 291.378091 567.877302 
L 288.875783 567.598901 
L 286.376384 567.295491 
L 283.880145 566.967103 
L 281.387313 566.61377 
L 281.137874 566.577013 
L 279.998835 574.280136 
L 280.255989 574.318029 
L 282.825918 574.68229 
L 285.399361 575.020835 
L 287.976061 575.333628 
L 290.55576 575.620639 
L 293.1382 575.88184 
L 295.723123 576.117203 
L 298.31027 576.326706 
L 300.899383 576.510327 
L 303.490202 576.668048 
L 306.082469 576.799854 
L 308.675925 576.905731 
L 311.27031 576.985668 
L 313.865364 577.039658 
L 316.460828 577.067696 
L 319.056443 577.069777 
L 321.651949 577.045903 
L 324.247087 576.996075 
L 326.841596 576.920299 
L 329.435219 576.818582 
L 332.027694 576.690935 
L 334.618763 576.537369 
L 337.208167 576.357901 
L 339.795647 576.152548 
L 342.380944 575.921331 
L 344.963799 575.664273 
L 347.543955 575.3814 
L 350.121153 575.07274 
L 352.695136 574.738324 
L 355.265646 574.378185 
L 357.832426 573.992359 
L 360.39522 573.580885 
L 362.953771 573.143805 
L 365.507823 572.681161 
L 368.057121 572.193 
L 370.60141 571.679371 
L 373.140436 571.140325 
L 375.673944 570.575917 
L 378.201682 569.986202 
L 380.723396 569.371239 
L 383.238835 568.731091 
L 385.747746 568.06582 
L 388.24988 567.375494 
L 390.744985 566.660182 
L 393.232812 565.919955 
L 395.713113 565.154887 
L 398.18564 564.365054 
L 400.650144 563.550536 
L 403.10638 562.711415 
L 405.554103 561.847773 
L 407.993067 560.959698 
L 410.423028 560.047278 
L 412.843743 559.110604 
L 415.254971 558.14977 
L 417.656471 557.164873 
L 420.048001 556.15601 
L 422.429323 555.123283 
L 424.8002 554.066794 
L 427.160392 552.98665 
L 429.509666 551.882959 
L 431.847786 550.75583 
L 434.174517 549.605377 
L 436.489628 548.431715 
L 438.792886 547.23496 
L 441.084063 546.015233 
L 443.362927 544.772656 
L 445.629252 543.507352 
L 447.882811 542.219449 
L 450.123378 540.909075 
L 452.35073 539.576361 
L 454.564643 538.221441 
L 456.764897 536.84445 
L 458.951271 535.445526 
L 461.123547 534.024808 
L 463.281507 532.582438 
L 465.424936 531.118562 
L 467.55362 529.633325 
L 469.667344 528.126875 
L 471.765899 526.599364 
L 473.849074 525.050944 
L 475.916661 523.481771 
L 477.968453 521.892 
L 480.004245 520.281791 
L 482.023833 518.651305 
L 484.027016 517.000705 
L 486.013593 515.330156 
L 487.983365 513.639825 
L 489.936136 511.929881 
L 491.87171 510.200495 
L 493.789894 508.451841 
L 495.690495 506.684092 
L 497.573325 504.897426 
L 499.438193 503.092021 
L 501.284915 501.268059 
L 503.113305 499.42572 
L 504.923181 497.56519 
L 506.714361 495.686655 
L 508.486667 493.790302 
L 510.239921 491.876321 
L 511.973947 489.944903 
L 513.688573 487.996242 
L 515.383627 486.030533 
L 517.05894 484.047972 
L 518.714343 482.048756 
L 520.349672 480.033088 
L 521.964763 478.001166 
L 523.559454 475.953196 
L 525.133586 473.889382 
L 526.687002 471.809929 
L 528.219545 469.715047 
L 529.731064 467.604945 
L 531.221406 465.479832 
L 532.690423 463.339923 
L 534.137968 461.185431 
L 535.563896 459.016572 
L 536.968065 456.833562 
L 538.350333 454.63662 
L 539.710563 452.425965 
L 541.048619 450.201818 
L 542.364368 447.964403 
L 543.657676 445.713942 
L 544.928416 443.45066 
L 546.176459 441.174785 
L 547.401682 438.886543 
L 548.603962 436.586164 
L 549.783178 434.273877 
L 550.939213 431.949913 
L 552.07195 429.614506 
L 553.181277 427.267888 
L 554.267083 424.910295 
L 555.32926 422.541961 
L 556.3677 420.163125 
L 557.3823 417.774023 
L 558.372959 415.374894 
L 559.339577 412.96598 
L 560.282059 410.547519 
L 561.200309 408.119755 
L 562.094236 405.68293 
L 562.96375 403.237288 
L 563.808765 400.783073 
L 564.629196 398.32053 
L 565.424961 395.849907 
L 566.19598 393.371449 
L 566.942176 390.885406 
L 567.663476 388.392025 
L 568.359805 385.891555 
L 569.031096 383.384248 
L 569.67728 380.870353 
L 570.298294 378.350122 
L 570.894075 375.823807 
L 571.464563 373.291661 
L 572.009701 370.753936 
L 572.529436 368.210888 
L 573.023714 365.662769 
L 573.492487 363.109834 
L 573.935708 360.55234 
L 574.353332 357.990541 
L 574.745317 355.424695 
L 575.111625 352.855056 
L 575.452219 350.281884 
L 575.767064 347.705434 
L 576.056129 345.125964 
L 576.319386 342.543733 
L 576.556808 339.958999 
L 576.768371 337.372019 
L 576.954054 334.783053 
L 577.113838 332.19236 
L 577.247708 329.600199 
L 577.35565 327.006829 
L 577.437654 324.412508 
L 577.49371 321.817498 
L 577.523814 319.222057 
L 577.527963 316.626444 
L 577.506155 314.03092 
L 577.458394 311.435743 
L 577.384684 308.841174 
L 577.285033 306.247472 
L 577.15945 303.654896 
L 577.007947 301.063705 
L 576.830541 298.474159 
z
" clip-path="url(#p9406574577)" style="fill: #2ca02c"/>
   </g>
   <g id="patch_5">
    <path d="M 281.137874 566.577013 
L 278.649081 566.196277 
L 276.164219 565.790672 
L 273.683538 565.36024 
L 271.207285 564.905022 
L 268.735708 564.425065 
L 266.269054 563.920417 
L 263.807569 563.391127 
L 261.351501 562.83725 
L 258.901094 562.25884 
L 256.456594 561.655956 
L 254.018244 561.028657 
L 251.58629 560.377006 
L 249.160973 559.701069 
L 246.742537 559.000912 
L 244.331223 558.276607 
L 241.927273 557.528226 
L 239.530927 556.755842 
L 237.142424 555.959534 
L 234.762003 555.139382 
L 232.389903 554.295466 
L 230.026361 553.427872 
L 227.671612 552.536687 
L 225.325893 551.621999 
L 222.989438 550.6839 
L 220.662481 549.722483 
L 218.345254 548.737846 
L 216.037989 547.730086 
L 213.740917 546.699304 
L 211.454267 545.645603 
L 209.178269 544.569089 
L 206.913149 543.469868 
L 204.659135 542.348053 
L 202.416451 541.203753 
L 200.185322 540.037084 
L 197.965972 538.848163 
L 195.758621 537.637108 
L 193.563491 536.40404 
L 191.380801 535.149083 
L 189.210769 533.872362 
L 187.053614 532.574005 
L 184.909549 531.254142 
L 182.77879 529.912905 
L 180.66155 528.550427 
L 178.55804 527.166846 
L 176.46847 525.762299 
L 174.393051 524.336926 
L 172.331989 522.890872 
L 170.28549 521.424279 
L 168.253759 519.937295 
L 166.236999 518.430068 
L 164.235413 516.902749 
L 162.249199 515.355491 
L 160.278557 513.788449 
L 158.323683 512.201779 
L 156.384774 510.59564 
L 154.462023 508.970193 
L 152.555622 507.325599 
L 150.665762 505.662024 
L 148.792632 503.979634 
L 146.936419 502.278597 
L 145.09731 500.559084 
L 143.275487 498.821265 
L 141.471133 497.065316 
L 139.684428 495.291411 
L 137.915552 493.499728 
L 136.16468 491.690446 
L 134.431989 489.863746 
L 132.71765 488.019811 
L 131.021837 486.158825 
L 129.344718 484.280974 
L 128.570228 483.400889 
L 122.712602 488.531554 
L 123.511046 489.438858 
L 125.240034 491.374787 
L 126.988295 493.293329 
L 128.755654 495.194293 
L 130.541934 497.077489 
L 132.346956 498.942728 
L 134.17054 500.789824 
L 136.012504 502.618592 
L 137.872663 504.428849 
L 139.750831 506.220414 
L 141.64682 507.993109 
L 143.560441 509.746755 
L 145.491503 511.481178 
L 147.439812 513.196203 
L 149.405174 514.891661 
L 151.387392 516.56738 
L 153.386267 518.223193 
L 155.401601 519.858935 
L 157.433191 521.474443 
L 159.480834 523.069554 
L 161.544325 524.644109 
L 163.623459 526.197951 
L 165.718027 527.730925 
L 167.82782 529.242876 
L 169.952626 530.733654 
L 172.092234 532.20311 
L 174.246429 533.651097 
L 176.414996 535.077469 
L 178.597718 536.482086 
L 180.794376 537.864805 
L 183.004752 539.225488 
L 185.228624 540.564 
L 187.46577 541.880207 
L 189.715966 543.173977 
L 191.978986 544.445181 
L 194.254606 545.693692 
L 196.542596 546.919384 
L 198.842729 548.122135 
L 201.154774 549.301825 
L 203.4785 550.458337 
L 205.813675 551.591553 
L 208.160066 552.701362 
L 210.517436 553.787651 
L 212.885552 554.850313 
L 215.264175 555.889241 
L 217.653069 556.904331 
L 220.051994 557.895482 
L 222.460711 558.862595 
L 224.878978 559.805572 
L 227.306554 560.72432 
L 229.743195 561.618747 
L 232.188659 562.488763 
L 234.642701 563.334281 
L 237.105075 564.155217 
L 239.575535 564.951488 
L 242.053834 565.723016 
L 244.539725 566.469722 
L 247.032958 567.191533 
L 249.533284 567.888375 
L 252.040454 568.56018 
L 254.554216 569.20688 
L 257.07432 569.828411 
L 259.600513 570.424709 
L 262.132542 570.995717 
L 264.670154 571.541376 
L 267.213097 572.061632 
L 269.761114 572.556433 
L 272.313952 573.02573 
L 274.871356 573.469475 
L 277.433069 573.887624 
L 279.998835 574.280136 
z
" clip-path="url(#p9406574577)" style="fill: #9467bd"/>
   </g>
   <g id="patch_6">
    <path d="M 128.570228 483.400889 
L 126.92081 481.498661 
L 125.290497 479.580033 
L 123.679452 477.645199 
L 122.087835 475.694351 
L 120.515805 473.727685 
L 118.963521 471.745397 
L 117.431137 469.747686 
L 115.918806 467.734751 
L 114.42668 465.706793 
L 112.954907 463.664016 
L 111.503636 461.606624 
L 110.073011 459.534822 
L 108.663175 457.448817 
L 107.274269 455.348819 
L 105.906432 453.235037 
L 104.559801 451.107683 
L 103.234511 448.966968 
L 101.930694 446.813108 
L 100.64848 444.646318 
L 99.387998 442.466815 
L 98.149373 440.274815 
L 96.93273 438.070539 
L 95.73819 435.854208 
L 94.565873 433.626041 
L 93.415896 431.386264 
L 92.288374 429.135098 
L 91.183419 426.87277 
L 90.101143 424.599506 
L 89.041653 422.315533 
L 88.005055 420.02108 
L 86.991453 417.716375 
L 86.000949 415.40165 
L 85.033641 413.077135 
L 84.089626 410.743064 
L 83.168999 408.39967 
L 82.271851 406.047187 
L 81.398272 403.68585 
L 80.548351 401.315895 
L 79.72217 398.93756 
L 78.919814 396.551082 
L 78.141363 394.1567 
L 77.386894 391.754653 
L 76.656483 389.345182 
L 75.950202 386.928527 
L 75.268123 384.504931 
L 74.610314 382.074635 
L 73.97684 379.637882 
L 73.367765 377.194917 
L 72.783149 374.745983 
L 72.223052 372.291326 
L 71.687529 369.83119 
L 71.176634 367.365823 
L 70.690417 364.895469 
L 70.228928 362.420377 
L 69.792212 359.940795 
L 69.380314 357.456968 
L 68.993274 354.969148 
L 68.631132 352.477581 
L 68.293922 349.982518 
L 67.98168 347.484207 
L 67.694436 344.982899 
L 67.432219 342.478843 
L 67.195055 339.972291 
L 66.982969 337.463492 
L 66.79598 334.952698 
L 66.634108 332.440159 
L 66.49737 329.926128 
L 66.385778 327.410854 
L 66.299344 324.894591 
L 66.238077 322.377589 
L 66.201982 319.860101 
L 66.191063 317.342377 
L 66.205322 314.82467 
L 66.244757 312.307231 
L 66.309364 309.790313 
L 66.399136 307.274167 
L 66.514065 304.759044 
L 66.654139 302.245196 
L 66.819344 299.732874 
L 67.009663 297.22233 
L 67.225078 294.713815 
L 67.465567 292.20758 
L 67.731106 289.703874 
L 68.021668 287.202949 
L 68.337225 284.705055 
L 68.677744 282.210441 
L 69.043192 279.719357 
L 69.433532 277.232052 
L 69.848726 274.748775 
L 70.288731 272.269773 
L 70.753503 269.795296 
L 71.242997 267.32559 
L 71.757163 264.860902 
L 72.295949 262.401479 
L 72.859302 259.947567 
L 73.447166 257.499411 
L 74.059482 255.057256 
L 74.696188 252.621346 
L 75.357222 250.191925 
L 76.042515 247.769235 
L 76.752002 245.35352 
L 77.485609 242.94502 
L 78.243264 240.543976 
L 79.024892 238.150629 
L 79.830413 235.765218 
L 80.659748 233.387981 
L 81.512813 231.019156 
L 82.389524 228.65898 
L 83.289792 226.307689 
L 84.213528 223.965518 
L 85.160638 221.632702 
L 86.13103 219.309473 
L 87.124604 216.996064 
L 88.141263 214.692706 
L 89.180904 212.39963 
L 90.243423 210.117064 
L 91.328715 207.845238 
L 92.43667 205.584378 
L 93.567178 203.334711 
L 94.720125 201.096461 
L 95.895397 198.869852 
L 97.092877 196.655107 
L 98.312443 194.452447 
L 99.553975 192.262093 
L 100.817347 190.084263 
L 102.102435 187.919176 
L 103.409108 185.767048 
L 104.737238 183.628094 
L 106.08669 181.502528 
L 107.45733 179.390562 
L 108.849021 177.292409 
L 110.261623 175.208277 
L 111.694995 173.138375 
L 113.148995 171.082909 
L 114.623476 169.042087 
L 116.118292 167.016111 
L 117.633292 165.005184 
L 119.168325 163.009507 
L 120.723238 161.029281 
L 122.297875 159.064702 
L 123.892079 157.115968 
L 125.50569 155.183272 
L 127.138548 153.26681 
L 128.790487 151.366771 
L 130.461345 149.483347 
L 132.150952 147.616725 
L 133.859142 145.767092 
L 135.585741 143.934633 
L 137.330579 142.119531 
L 139.09348 140.321969 
L 140.874268 138.542125 
L 142.672766 136.780177 
L 144.488793 135.036302 
L 146.322167 133.310675 
L 148.172706 131.603467 
L 150.040224 129.91485 
L 151.924534 128.244992 
L 153.825449 126.59406 
L 155.742777 124.962219 
L 157.676328 123.349634 
L 159.625908 121.756463 
L 160.574681 120.992807 
L 155.706884 114.914975 
L 154.728767 115.702249 
L 152.718891 117.344692 
L 150.725539 119.007152 
L 148.748912 120.689462 
L 146.789206 122.391453 
L 144.846618 124.112957 
L 142.921342 125.853799 
L 141.01357 127.613807 
L 139.123494 129.392805 
L 137.251301 131.190614 
L 135.39718 133.007054 
L 133.561316 134.841945 
L 131.743892 136.695103 
L 129.94509 138.566341 
L 128.16509 140.455474 
L 126.404071 142.362312 
L 124.662207 144.286665 
L 122.939674 146.228339 
L 121.236643 148.187142 
L 119.553285 150.162877 
L 117.889768 152.155346 
L 116.246259 154.164351 
L 114.622922 156.18969 
L 113.019919 158.23116 
L 111.43741 160.288559 
L 109.875555 162.361679 
L 108.334508 164.450314 
L 106.814424 166.554255 
L 105.315455 168.673291 
L 103.837751 170.807211 
L 102.38146 172.955801 
L 100.946728 175.118846 
L 99.533697 177.29613 
L 98.142509 179.487435 
L 96.773304 181.692542 
L 95.426217 183.911231 
L 94.101385 186.14328 
L 92.798939 188.388465 
L 91.519009 190.646562 
L 90.261724 192.917345 
L 89.02721 195.200587 
L 87.815589 197.496061 
L 86.626983 199.803535 
L 85.461511 202.12278 
L 84.319289 204.453563 
L 83.200432 206.795652 
L 82.105051 209.148812 
L 81.033257 211.512808 
L 79.985155 213.887404 
L 78.960851 216.272362 
L 77.960448 218.667443 
L 76.984045 221.072409 
L 76.03174 223.487018 
L 75.103629 225.911029 
L 74.199804 228.3442 
L 73.320355 230.786288 
L 72.46537 233.237047 
L 71.634936 235.696234 
L 70.829134 238.163603 
L 70.048046 240.638905 
L 69.29175 243.121895 
L 68.560321 245.612323 
L 67.853833 248.109941 
L 67.172355 250.614499 
L 66.515957 253.125747 
L 65.884704 255.643432 
L 65.278658 258.167304 
L 64.697882 260.697111 
L 64.142432 263.232598 
L 63.612364 265.773513 
L 63.107731 268.319602 
L 62.628584 270.87061 
L 62.174971 273.426281 
L 61.746937 275.986361 
L 61.344524 278.550593 
L 60.967774 281.118721 
L 60.616723 283.690488 
L 60.291407 286.265637 
L 59.991858 288.84391 
L 59.718107 291.425049 
L 59.47018 294.008797 
L 59.248102 296.594895 
L 59.051897 299.183085 
L 58.881582 301.773107 
L 58.737176 304.364703 
L 58.618693 306.957613 
L 58.526144 309.551579 
L 58.459539 312.14634 
L 58.418885 314.741637 
L 58.404185 317.337211 
L 58.415441 319.932803 
L 58.452652 322.528152 
L 58.515815 325.122999 
L 58.604922 327.717085 
L 58.719965 330.31015 
L 58.860933 332.901935 
L 59.027811 335.492181 
L 59.220582 338.080629 
L 59.439228 340.667019 
L 59.683727 343.251094 
L 59.954054 345.832595 
L 60.250182 348.411263 
L 60.572081 350.986841 
L 60.919719 353.559071 
L 61.293062 356.127697 
L 61.692072 358.69246 
L 62.11671 361.253106 
L 62.566932 363.809377 
L 63.042694 366.361018 
L 63.543948 368.907774 
L 64.070644 371.44939 
L 64.62273 373.985612 
L 65.20015 376.516187 
L 65.802846 379.040861 
L 66.430759 381.559382 
L 67.083825 384.071498 
L 67.761979 386.576958 
L 68.465153 389.075511 
L 69.193277 391.566907 
L 69.946278 394.050898 
L 70.724082 396.527235 
L 71.526609 398.99567 
L 72.35378 401.455957 
L 73.205512 403.907849 
L 74.08172 406.351101 
L 74.982316 408.785469 
L 75.907211 411.210709 
L 76.856312 413.62658 
L 77.829523 416.032839 
L 78.826748 418.429245 
L 79.847886 420.81556 
L 80.892836 423.191544 
L 81.961494 425.55696 
L 83.053752 427.911572 
L 84.169501 430.255143 
L 85.308629 432.587439 
L 86.471023 434.908229 
L 87.656567 437.217278 
L 88.865141 439.514356 
L 90.096625 441.799235 
L 91.350896 444.071684 
L 92.627829 446.331477 
L 93.927295 448.578388 
L 95.249165 450.812192 
L 96.593306 453.032666 
L 97.959585 455.239588 
L 99.347864 457.432737 
L 100.758005 459.611894 
L 102.189867 461.776841 
L 103.643306 463.927361 
L 105.118177 466.063239 
L 106.614333 468.184262 
L 108.131624 470.290218 
L 109.669899 472.380896 
L 111.229003 474.456086 
L 112.80878 476.515583 
L 114.409074 478.559178 
L 116.029722 480.586669 
L 117.670565 482.597853 
L 119.331436 484.592527 
L 121.012172 486.570494 
L 122.712602 488.531554 
z
" clip-path="url(#p9406574577)" style="fill: #8c564b"/>
   </g>
   <g id="patch_7">
    <path d="M 160.574681 120.992807 
L 162.547684 119.428738 
L 164.536228 117.884477 
L 166.540116 116.360178 
L 168.559145 114.855994 
L 170.593116 113.372075 
L 172.641824 111.908569 
L 174.705064 110.465624 
L 176.78263 109.043382 
L 178.874315 107.641987 
L 180.979909 106.261579 
L 183.099201 104.902295 
L 185.23198 103.564272 
L 187.378032 102.247643 
L 189.537143 100.95254 
L 191.709097 99.679093 
L 193.893676 98.427428 
L 196.090663 97.197672 
L 197.450988 96.450609 
L 193.723695 89.613739 
L 192.321298 90.383907 
L 190.056363 91.651697 
L 187.80422 92.942073 
L 185.565092 94.254906 
L 183.339204 95.590063 
L 181.126779 96.947413 
L 178.928038 98.326818 
L 176.743201 99.728141 
L 174.572486 101.151243 
L 172.41611 102.59598 
L 170.274289 104.062208 
L 168.147237 105.549781 
L 166.035167 107.058549 
L 163.93829 108.588363 
L 161.856816 110.139068 
L 159.790953 111.71051 
L 157.740907 113.302532 
L 155.706884 114.914975 
z
" clip-path="url(#p9406574577)" style="fill: #7f7f7f"/>
   </g>
   <g id="patch_8">
    <path d="M 197.450988 96.450609 
L 199.667565 95.256523 
L 201.895971 94.084663 
L 204.135985 92.935146 
L 206.387381 91.808085 
L 208.649936 90.703594 
L 210.923422 89.621784 
L 213.207612 88.562763 
L 215.502278 87.526636 
L 217.364333 86.706034 
L 214.252917 79.567785 
L 212.333272 80.413767 
L 209.967637 81.481939 
L 207.612802 82.573714 
L 205.269002 83.688982 
L 202.936472 84.827632 
L 200.615444 85.98955 
L 198.306152 87.17462 
L 196.008825 88.382723 
L 193.723695 89.613739 
z
" clip-path="url(#p9406574577)" style="fill: #bcbd22"/>
   </g>
   <g id="patch_9">
    <path d="M 217.364333 86.706034 
L 219.677359 85.711566 
L 222.000213 84.740278 
L 224.332663 83.792266 
L 226.674477 82.867626 
L 229.025421 81.96645 
L 231.385258 81.088828 
L 233.753753 80.234848 
L 236.13067 79.404596 
L 238.51577 78.598153 
L 240.908815 77.815602 
L 243.309566 77.057019 
L 245.717782 76.322482 
L 248.133224 75.612063 
L 250.555648 74.925834 
L 252.984814 74.263862 
L 255.420478 73.626216 
L 257.862396 73.012957 
L 260.310325 72.424148 
L 262.76402 71.859847 
L 265.223234 71.320111 
L 267.687723 70.804993 
L 270.15724 70.314546 
L 272.631538 69.848818 
L 275.110369 69.407856 
L 277.593486 68.991704 
L 280.08064 68.600403 
L 282.571583 68.233993 
L 285.066065 67.892511 
L 287.563837 67.57599 
L 290.06465 67.284462 
L 292.568253 67.017956 
L 295.074395 66.776499 
L 297.582827 66.560116 
L 300.093297 66.368827 
L 302.605555 66.202651 
L 305.119348 66.061607 
L 307.634427 65.945707 
L 310.150538 65.854963 
L 312.667432 65.789384 
L 315.184855 65.748977 
L 317.702556 65.733746 
L 317.966796 65.733608 
L 317.966796 57.946728 
L 317.694384 57.946871 
L 315.098815 57.962573 
L 312.503534 58.004229 
L 309.908798 58.071836 
L 307.314869 58.165387 
L 304.722005 58.284871 
L 302.130465 58.430278 
L 299.540509 58.601592 
L 296.952395 58.798798 
L 294.366383 59.021873 
L 291.782731 59.270798 
L 289.201697 59.545546 
L 286.62354 59.84609 
L 284.048517 60.172401 
L 281.476886 60.524445 
L 278.908903 60.902187 
L 276.344827 61.305589 
L 273.784913 61.734612 
L 271.229417 62.189212 
L 268.678594 62.669344 
L 266.1327 63.17496 
L 263.59199 63.706009 
L 261.056717 64.262438 
L 258.527135 64.844192 
L 256.003497 65.451211 
L 253.486056 66.083437 
L 250.975062 66.740805 
L 248.470768 67.423249 
L 245.973423 68.130702 
L 243.483277 68.863093 
L 241.000579 69.620348 
L 238.525578 70.402391 
L 236.058522 71.209146 
L 233.599656 72.04053 
L 231.149226 72.89646 
L 228.707478 73.776852 
L 226.274656 74.681617 
L 223.851004 75.610664 
L 221.436762 76.563901 
L 219.032174 77.541233 
L 216.637479 78.542561 
L 214.252917 79.567785 
z
" clip-path="url(#p9406574577)" style="fill: #17becf"/>
   </g>
   <g id="PatchCollection_1">
    <path d="M 128.570228 483.400889 
L 128.570228 483.400889 
L 126.92081 481.498661 
L 125.290497 479.580033 
L 123.679452 477.645199 
L 122.087835 475.694351 
L 120.515805 473.727685 
L 118.963521 471.745397 
L 117.431137 469.747686 
L 115.918806 467.734751 
L 114.711291 466.096903 
L 114.711291 466.096903 
Q 317.966796 317.509396 569.064629 299.045216 
L 569.064629 299.045216 
L 569.064629 299.045216 
L 569.236713 301.557076 
L 569.38367 304.070531 
L 569.505486 306.58533 
L 569.602148 309.101221 
L 569.673646 311.617953 
L 569.719975 314.135274 
L 569.741128 316.652933 
L 569.737104 319.170677 
L 569.715455 321.205417 
L 569.715455 321.205417 
Q 317.966796 317.509396 128.570228 483.400889 
z
" clip-path="url(#p9406574577)" style="fill: #8c564b; fill-opacity: 0.5; stroke: #808080; stroke-opacity: 0.5; stroke-width: 0.1"/>
    <path d="M 114.711291 466.096903 
L 114.711291 466.096903 
L 113.235603 464.056952 
L 111.780389 462.002347 
L 110.345792 459.933293 
L 108.931958 457.849996 
L 107.539027 455.752666 
L 106.167139 453.641511 
L 104.81643 451.516743 
L 103.487037 449.378575 
L 102.179091 447.22722 
L 100.892723 445.062893 
L 99.628063 442.885811 
L 98.385237 440.696191 
L 97.164368 438.494253 
L 95.96558 436.280216 
L 94.788992 434.054302 
L 93.634721 431.816734 
L 92.502883 429.567735 
L 91.393591 427.307531 
L 90.306957 425.036347 
L 89.243088 422.75441 
L 88.202092 420.461949 
L 87.184071 418.159193 
L 86.189129 415.846371 
L 85.711479 414.712868 
L 85.711479 414.712868 
Q 317.966796 317.509396 376.562969 72.647116 
L 376.562969 72.647116 
L 376.562969 72.647116 
L 379.008622 73.245311 
L 381.44817 73.867932 
L 383.88137 74.514918 
L 386.307978 75.186202 
L 388.727753 75.881718 
L 391.140451 76.601397 
L 393.545832 77.345167 
L 395.943656 78.112953 
L 398.333681 78.904678 
L 400.715671 79.720264 
L 403.089385 80.559628 
L 405.454587 81.422687 
L 407.81104 82.309355 
L 410.158509 83.219542 
L 412.496759 84.153158 
L 414.825556 85.11011 
L 417.144668 86.090301 
L 419.453861 87.093634 
L 421.752906 88.120009 
L 424.041572 89.169322 
L 426.319631 90.241469 
L 428.586855 91.336343 
L 430.843017 92.453833 
L 431.941159 93.007966 
L 431.941159 93.007966 
Q 317.966796 317.509396 114.711291 466.096903 
z
" clip-path="url(#p9406574577)" style="fill: #8c564b; fill-opacity: 0.5; stroke: #808080; stroke-opacity: 0.5; stroke-width: 0.1"/>
    <path d="M 281.137874 566.577013 
L 281.137874 566.577013 
L 278.649081 566.196277 
L 276.164219 565.790672 
L 273.683538 565.36024 
L 271.207285 564.905022 
L 268.735708 564.425065 
L 266.269054 563.920417 
L 263.807569 563.391127 
L 261.351501 562.83725 
L 258.901094 562.25884 
L 256.456594 561.655956 
L 254.018244 561.028657 
L 251.58629 560.377006 
L 249.160973 559.701069 
L 246.742537 559.000912 
L 244.331223 558.276607 
L 241.927273 557.528226 
L 239.530927 556.755842 
L 238.057693 556.267816 
L 238.057693 556.267816 
Q 317.966796 317.509396 569.715455 321.205417 
L 569.715455 321.205417 
L 569.715455 321.205417 
L 569.665908 323.722677 
L 569.591191 326.239316 
L 569.491312 328.755081 
L 569.366281 331.269722 
L 569.21611 333.782987 
L 569.040815 336.294625 
L 568.840412 338.804384 
L 568.614922 341.312013 
L 568.364367 343.817263 
L 568.088773 346.319881 
L 567.788167 348.819619 
L 567.462579 351.316225 
L 567.112042 353.809451 
L 566.73659 356.299047 
L 566.336262 358.784764 
L 565.911097 361.266354 
L 565.461137 363.743568 
L 565.171446 365.268253 
L 565.171446 365.268253 
Q 317.966796 317.509396 281.137874 566.577013 
z
" clip-path="url(#p9406574577)" style="fill: #9467bd; fill-opacity: 0.5; stroke: #808080; stroke-opacity: 0.5; stroke-width: 0.1"/>
    <path d="M 238.057693 556.267816 
L 238.057693 556.267816 
L 235.674144 555.4568 
L 233.298825 554.62199 
L 230.931972 553.763469 
L 228.573822 552.881322 
L 226.224611 551.975639 
L 223.884575 551.046509 
L 221.553947 550.094026 
L 219.23296 549.118284 
L 217.364333 548.312758 
L 217.364333 548.312758 
Q 317.966796 317.509396 197.450988 96.450609 
L 197.450988 96.450609 
L 197.450988 96.450609 
L 199.667565 95.256523 
L 201.895971 94.084663 
L 204.135985 92.935146 
L 206.387381 91.808085 
L 208.649936 90.703594 
L 210.923422 89.621784 
L 213.207612 88.562763 
L 215.502278 87.526636 
L 217.364333 86.706034 
L 217.364333 86.706034 
Q 317.966796 317.509396 238.057693 556.267816 
z
" clip-path="url(#p9406574577)" style="fill: #9467bd; fill-opacity: 0.5; stroke: #808080; stroke-opacity: 0.5; stroke-width: 0.1"/>
    <path d="M 217.364333 548.312758 
L 217.364333 548.312758 
L 215.061368 547.29521 
L 212.768694 546.254684 
L 210.486539 545.191284 
L 208.215132 544.105115 
L 205.9547 542.996287 
L 203.705469 541.86491 
L 201.467665 540.711098 
L 199.24151 539.534966 
L 197.027227 538.336632 
L 194.825038 537.116215 
L 192.635164 535.873838 
L 190.457822 534.609625 
L 188.293232 533.323701 
L 186.141608 532.016196 
L 184.685296 531.11438 
L 184.685296 531.11438 
Q 317.966796 317.509396 431.941159 93.007966 
L 431.941159 93.007966 
L 431.941159 93.007966 
L 434.180438 94.158916 
L 436.408094 95.3322 
L 438.623907 96.527702 
L 440.827655 97.745302 
L 443.019116 98.984878 
L 445.198072 100.246307 
L 447.364305 101.529461 
L 449.517599 102.834214 
L 451.657737 104.160434 
L 453.784507 105.507988 
L 455.897695 106.876742 
L 457.99709 108.26656 
L 460.082482 109.677302 
L 462.153663 111.108826 
L 463.554539 112.094556 
L 463.554539 112.094556 
Q 317.966796 317.509396 217.364333 548.312758 
z
" clip-path="url(#p9406574577)" style="fill: #9467bd; fill-opacity: 0.5; stroke: #808080; stroke-opacity: 0.5; stroke-width: 0.1"/>
    <path d="M 565.171446 365.268253 
L 565.171446 365.268253 
L 564.681506 367.737871 
L 564.166894 370.202465 
L 563.627662 372.66179 
L 563.063864 375.115601 
L 562.475557 377.56365 
L 561.862799 380.005694 
L 561.225652 382.441489 
L 560.564179 384.87079 
L 559.878446 387.293356 
L 559.168523 389.708943 
L 558.43448 392.11731 
L 557.67639 394.518216 
L 556.894329 396.911422 
L 556.088376 399.296687 
L 555.25861 401.673774 
L 554.405116 404.042444 
L 553.527978 406.402462 
L 552.627284 408.753589 
L 551.703125 411.095593 
L 550.755592 413.428238 
L 549.78478 415.751291 
L 548.790786 418.064521 
L 547.773711 420.367694 
L 546.733655 422.660582 
L 545.670722 424.942955 
L 544.585019 427.214585 
L 543.476655 429.475244 
L 542.34574 431.724707 
L 541.192387 433.962748 
L 540.016712 436.189144 
L 538.818831 438.403672 
L 537.598866 440.606111 
L 536.356938 442.796241 
L 535.093171 444.973841 
L 533.807692 447.138696 
L 532.500628 449.290587 
L 531.172112 451.429301 
L 529.822275 453.554623 
L 528.451253 455.66634 
L 527.059182 457.764242 
L 525.646203 459.848118 
L 524.212455 461.91776 
L 522.758083 463.972962 
L 521.283233 466.013518 
L 519.78805 468.039223 
L 518.272686 470.049876 
L 516.737292 472.045274 
L 515.18202 474.025219 
L 513.607027 475.989513 
L 512.012471 477.937959 
L 510.39851 479.870362 
L 508.765306 481.786529 
L 507.113022 483.686268 
L 505.441823 485.56939 
L 503.751878 487.435707 
L 502.043354 489.28503 
L 500.316422 491.117176 
L 498.571256 492.931962 
L 496.80803 494.729205 
L 495.026919 496.508727 
L 493.228103 498.270349 
L 491.41176 500.013895 
L 489.578073 501.73919 
L 487.727226 503.446063 
L 485.859402 505.134342 
L 483.974789 506.803859 
L 482.073576 508.454447 
L 480.155952 510.08594 
L 478.222109 511.698176 
L 476.272241 513.290993 
L 474.306543 514.864232 
L 472.32521 516.417736 
L 470.328442 517.951349 
L 468.316438 519.464918 
L 466.289399 520.958292 
L 464.247528 522.43132 
L 462.191029 523.883857 
L 460.120107 525.315757 
L 458.034971 526.726876 
L 455.935828 528.117074 
L 453.822887 529.486211 
L 451.696362 530.83415 
L 451.248296 531.11438 
L 451.248296 531.11438 
Q 317.966796 317.509396 85.711479 414.712868 
L 85.711479 414.712868 
L 85.711479 414.712868 
L 84.751073 412.385494 
L 83.813988 410.048632 
L 82.900319 407.702516 
L 82.010156 405.34738 
L 81.143588 402.983461 
L 80.300703 400.610995 
L 79.481584 398.230219 
L 78.686314 395.84137 
L 77.914971 393.444689 
L 77.167633 391.040414 
L 76.444375 388.628786 
L 75.745269 386.210046 
L 75.070385 383.784436 
L 74.41979 381.352199 
L 73.79355 378.913577 
L 73.191727 376.468815 
L 72.614381 374.018157 
L 72.061571 371.561849 
L 71.53335 369.100135 
L 71.029773 366.633262 
L 70.550889 364.161477 
L 70.096747 361.685026 
L 69.667391 359.204158 
L 69.262866 356.719121 
L 68.88321 354.230163 
L 68.528463 351.737532 
L 68.198659 349.241479 
L 67.893831 346.742253 
L 67.614011 344.240103 
L 67.359226 341.735281 
L 67.129502 339.228035 
L 66.924861 336.718618 
L 66.745324 334.20728 
L 66.590909 331.694273 
L 66.461631 329.179846 
L 66.357503 326.664253 
L 66.278537 324.147744 
L 66.224739 321.630572 
L 66.196115 319.112987 
L 66.192667 316.595242 
L 66.214397 314.077588 
L 66.261302 311.560278 
L 66.333378 309.043563 
L 66.430616 306.527694 
L 66.553008 304.012923 
L 66.700541 301.499502 
L 66.873201 298.987681 
L 67.070969 296.477713 
L 67.293827 293.969849 
L 67.541752 291.464338 
L 67.81472 288.961431 
L 68.112702 286.461379 
L 68.43567 283.964433 
L 68.78359 281.47084 
L 69.156429 278.980851 
L 69.554148 276.494716 
L 69.976709 274.012681 
L 70.424068 271.534997 
L 70.896182 269.061909 
L 71.393002 266.593667 
L 71.914479 264.130516 
L 72.460562 261.672702 
L 73.031194 259.220473 
L 73.626321 256.774072 
L 74.245881 254.333745 
L 74.889813 251.899735 
L 75.558052 249.472286 
L 76.250532 247.051641 
L 76.967184 244.638041 
L 77.707935 242.231729 
L 78.472712 239.832944 
L 79.261438 237.441927 
L 80.074035 235.058917 
L 80.91042 232.684151 
L 81.770511 230.317868 
L 82.654222 227.960304 
L 83.561463 225.611695 
L 84.492145 223.272276 
L 85.446174 220.94228 
L 86.423455 218.621941 
L 87.42389 216.31149 
L 88.44738 214.011159 
L 88.665129 213.529624 
L 88.665129 213.529624 
Q 317.966796 317.509396 565.171446 365.268253 
z
" clip-path="url(#p9406574577)" style="fill: #2ca02c; fill-opacity: 0.5; stroke: #808080; stroke-opacity: 0.5; stroke-width: 0.1"/>
    <path d="M 451.248296 531.11438 
L 451.248296 531.11438 
L 449.105618 532.436493 
L 446.949826 533.737113 
L 444.781136 535.01611 
L 442.599764 536.273357 
L 440.40593 537.508728 
L 438.199851 538.722099 
L 435.981749 539.913349 
L 433.751846 541.082359 
L 431.510365 542.229012 
L 429.257529 543.353193 
L 426.993564 544.454789 
L 424.718696 545.533692 
L 422.433154 546.589792 
L 420.137165 547.622984 
L 417.830959 548.633165 
L 415.514767 549.620234 
L 413.18882 550.584092 
L 411.75033 551.166616 
L 411.75033 551.166616 
Q 317.966796 317.509396 184.685296 531.11438 
L 184.685296 531.11438 
L 184.685296 531.11438 
L 182.555946 529.770907 
L 180.440136 528.406208 
L 178.33808 527.02042 
L 176.249986 525.613681 
L 174.176063 524.186131 
L 172.11652 522.737914 
L 170.071561 521.269174 
L 168.041392 519.780058 
L 166.026216 518.270716 
L 164.026233 516.741297 
L 162.041644 515.191956 
L 160.072648 513.622846 
L 158.11944 512.034126 
L 156.182218 510.425953 
L 154.261174 508.798488 
L 152.3565 507.151895 
L 150.468387 505.486337 
L 149.312872 504.4503 
L 149.312872 504.4503 
Q 317.966796 317.509396 451.248296 531.11438 
z
" clip-path="url(#p9406574577)" style="fill: #2ca02c; fill-opacity: 0.5; stroke: #808080; stroke-opacity: 0.5; stroke-width: 0.1"/>
    <path d="M 411.75033 551.166616 
L 411.75033 551.166616 
L 409.409108 552.092753 
L 407.058741 552.995432 
L 404.699465 553.874562 
L 402.331516 554.730056 
L 399.955131 555.561828 
L 397.570547 556.369795 
L 395.178003 557.153877 
L 392.777737 557.913994 
L 390.369991 558.650071 
L 387.955004 559.362034 
L 385.533019 560.049812 
L 383.104277 560.713336 
L 380.669021 561.352539 
L 378.227495 561.967359 
L 375.779943 562.557733 
L 373.32661 563.123603 
L 370.867741 563.664911 
L 368.403582 564.181604 
L 365.934379 564.67363 
L 363.46038 565.14094 
L 360.981831 565.583487 
L 358.498981 566.001226 
L 356.012077 566.394117 
L 353.521369 566.762119 
L 351.027106 567.105196 
L 348.529536 567.423314 
L 346.028911 567.716441 
L 343.525479 567.984547 
L 341.019491 568.227606 
L 338.511198 568.445593 
L 336.000851 568.638487 
L 333.4887 568.806268 
L 330.974997 568.94892 
L 328.459993 569.066428 
L 325.94394 569.158781 
L 325.358042 569.176671 
L 325.358042 569.176671 
Q 317.966796 317.509396 217.364333 86.706034 
L 217.364333 86.706034 
L 217.364333 86.706034 
L 219.677359 85.711566 
L 222.000213 84.740278 
L 224.332663 83.792266 
L 226.674477 82.867626 
L 229.025421 81.96645 
L 231.385258 81.088828 
L 233.753753 80.234848 
L 236.13067 79.404596 
L 238.51577 78.598153 
L 240.908815 77.815602 
L 243.309566 77.057019 
L 245.717782 76.322482 
L 248.133224 75.612063 
L 250.555648 74.925834 
L 252.984814 74.263862 
L 255.420478 73.626216 
L 257.862396 73.012957 
L 260.310325 72.424148 
L 262.76402 71.859847 
L 265.223234 71.320111 
L 267.687723 70.804993 
L 270.15724 70.314546 
L 272.631538 69.848818 
L 275.110369 69.407856 
L 277.593486 68.991704 
L 280.08064 68.600403 
L 282.571583 68.233993 
L 285.066065 67.892511 
L 287.563837 67.57599 
L 290.06465 67.284462 
L 292.568253 67.017956 
L 295.074395 66.776499 
L 297.582827 66.560116 
L 300.093297 66.368827 
L 302.605555 66.202651 
L 303.190675 66.167569 
L 303.190675 66.167569 
Q 317.966796 317.509396 411.75033 551.166616 
z
" clip-path="url(#p9406574577)" style="fill: #2ca02c; fill-opacity: 0.5; stroke: #808080; stroke-opacity: 0.5; stroke-width: 0.1"/>
    <path d="M 325.358042 569.176671 
L 325.358042 569.176671 
L 322.841042 569.237999 
L 320.323554 569.274154 
L 317.805831 569.285133 
L 315.288123 569.270935 
L 312.770684 569.23156 
L 310.253764 569.167014 
L 307.737615 569.077302 
L 305.22249 568.962434 
L 302.708638 568.82242 
L 300.196313 568.657276 
L 297.685764 568.467017 
L 295.177244 568.251662 
L 292.671003 568.011233 
L 290.167291 567.745754 
L 288.465491 567.550834 
L 288.465491 567.550834 
Q 317.966796 317.509396 160.574681 120.992807 
L 160.574681 120.992807 
L 160.574681 120.992807 
L 162.547684 119.428738 
L 164.536228 117.884477 
L 166.540116 116.360178 
L 168.559145 114.855994 
L 170.593116 113.372075 
L 172.641824 111.908569 
L 174.705064 110.465624 
L 176.78263 109.043382 
L 178.874315 107.641987 
L 180.979909 106.261579 
L 183.099201 104.902295 
L 185.23198 103.564272 
L 187.378032 102.247643 
L 189.537143 100.95254 
L 191.013426 100.083801 
L 191.013426 100.083801 
Q 317.966796 317.509396 325.358042 569.176671 
z
" clip-path="url(#p9406574577)" style="fill: #2ca02c; fill-opacity: 0.5; stroke: #808080; stroke-opacity: 0.5; stroke-width: 0.1"/>
    <path d="M 288.465491 567.550834 
L 288.465491 567.550834 
L 285.966593 567.243324 
L 283.470895 566.91084 
L 281.137874 566.577013 
L 281.137874 566.577013 
Q 317.966796 317.509396 317.966796 65.733608 
L 317.966796 65.733608 
L 317.966796 65.733608 
L 320.484512 65.746196 
L 323.001976 65.783961 
L 325.358042 65.842122 
L 325.358042 65.842122 
Q 317.966796 317.509396 288.465491 567.550834 
z
" clip-path="url(#p9406574577)" style="fill: #2ca02c; fill-opacity: 0.5; stroke: #808080; stroke-opacity: 0.5; stroke-width: 0.1"/>
    <path d="M 463.554539 112.094556 
L 463.554539 112.094556 
L 465.601374 113.56068 
L 467.633446 115.047198 
L 469.650551 116.553963 
L 471.652487 118.080823 
L 473.639056 119.627625 
L 475.610057 121.194216 
L 477.565294 122.780438 
L 479.504571 124.386133 
L 481.427695 126.01114 
L 483.334472 127.655296 
L 485.224713 129.318438 
L 487.098229 131.000399 
L 488.954831 132.70101 
L 490.794335 134.420102 
L 492.616556 136.157503 
L 494.421312 137.913039 
L 496.208423 139.686535 
L 497.97771 141.477813 
L 499.728996 143.286693 
L 501.462106 145.112996 
L 503.176867 146.956538 
L 504.873107 148.817136 
L 506.550656 150.694602 
L 508.209347 152.58875 
L 509.849014 154.49939 
L 511.469493 156.42633 
L 513.070621 158.369379 
L 514.65224 160.328342 
L 516.21419 162.303023 
L 517.756316 164.293224 
L 519.278462 166.298746 
L 520.780478 168.31939 
L 522.262213 170.354952 
L 523.723518 172.40523 
L 525.164248 174.470018 
L 526.584258 176.54911 
L 527.983407 178.642298 
L 529.361554 180.749372 
L 530.718561 182.870123 
L 532.054294 185.004337 
L 533.368618 187.151801 
L 534.661403 189.312301 
L 535.932518 191.485621 
L 537.181836 193.671543 
L 538.409233 195.869849 
L 539.614587 198.080318 
L 540.770913 200.251675 
L 540.770913 200.251675 
Q 317.966796 317.509396 88.665129 213.529624 
L 88.665129 213.529624 
L 88.665129 213.529624 
L 89.716374 211.241844 
L 90.790445 208.964691 
L 91.887232 206.698393 
L 93.006628 204.443175 
L 94.148519 202.199264 
L 95.312792 199.966884 
L 96.49933 197.746259 
L 97.708015 195.537609 
L 98.938725 193.341156 
L 100.191338 191.157121 
L 101.465729 188.98572 
L 102.761769 186.827171 
L 104.07933 184.681691 
L 105.418279 182.549493 
L 106.778483 180.430792 
L 108.159805 178.325797 
L 109.562108 176.234722 
L 110.985252 174.157773 
L 112.429093 172.09516 
L 113.893488 170.047088 
L 115.37829 168.013762 
L 116.883351 165.995385 
L 118.40852 163.99216 
L 119.953644 162.004286 
L 121.51857 160.031963 
L 123.10314 158.075387 
L 124.707197 156.134755 
L 126.330579 154.210259 
L 127.973125 152.302094 
L 129.63467 150.410449 
L 131.315049 148.535514 
L 133.014092 146.677477 
L 134.73163 144.836522 
L 136.467492 143.012834 
L 138.221503 141.206596 
L 139.993489 139.417988 
L 141.783272 137.647189 
L 143.590673 135.894377 
L 145.415512 134.159725 
L 147.257605 132.443408 
L 149.11677 130.745598 
L 150.992819 129.066464 
L 152.885566 127.406174 
L 154.79482 125.764895 
L 156.720392 124.142789 
L 158.662088 122.54002 
L 160.574681 120.992807 
L 160.574681 120.992807 
Q 317.966796 317.509396 463.554539 112.094556 
z
" clip-path="url(#p9406574577)" style="fill: #ff7f0e; fill-opacity: 0.5; stroke: #808080; stroke-opacity: 0.5; stroke-width: 0.1"/>
    <path d="M 540.770913 200.251675 
L 540.770913 200.251675 
L 541.932331 202.485542 
L 543.071352 204.730911 
L 544.187863 206.987558 
L 545.281752 209.255257 
L 546.352909 211.533782 
L 547.401229 213.822903 
L 548.426605 216.122394 
L 549.428935 218.432023 
L 550.408119 220.751559 
L 551.364059 223.080772 
L 552.29666 225.419427 
L 552.975563 227.166012 
L 552.975563 227.166012 
Q 317.966796 317.509396 149.312872 504.4503 
L 149.312872 504.4503 
L 149.312872 504.4503 
L 147.451927 502.754442 
L 145.608033 501.04006 
L 143.781375 499.307324 
L 141.972135 497.556409 
L 140.180495 495.78749 
L 138.406633 494.000742 
L 136.650727 492.196346 
L 134.912952 490.374481 
L 133.193483 488.53533 
L 131.49249 486.679077 
L 129.810145 484.805906 
L 128.570228 483.400889 
L 128.570228 483.400889 
Q 317.966796 317.509396 540.770913 200.251675 
z
" clip-path="url(#p9406574577)" style="fill: #ff7f0e; fill-opacity: 0.5; stroke: #808080; stroke-opacity: 0.5; stroke-width: 0.1"/>
    <path d="M 552.975563 227.166012 
L 552.975563 227.166012 
L 553.867232 229.520578 
L 554.73531 231.883942 
L 555.579712 234.255869 
L 556.400353 236.636121 
L 557.197151 239.024461 
L 557.872539 241.113833 
L 557.872539 241.113833 
Q 317.966796 317.509396 303.190675 66.167569 
L 303.190675 66.167569 
L 303.190675 66.167569 
L 305.70479 66.032378 
L 308.220132 65.922333 
L 310.736448 65.837448 
L 313.253487 65.777729 
L 315.770997 65.743183 
L 317.966796 65.733608 
L 317.966796 65.733608 
Q 317.966796 317.509396 552.975563 227.166012 
z
" clip-path="url(#p9406574577)" style="fill: #ff7f0e; fill-opacity: 0.5; stroke: #808080; stroke-opacity: 0.5; stroke-width: 0.1"/>
    <path d="M 557.872539 241.113833 
L 557.872539 241.113833 
L 558.624487 243.51667 
L 559.352369 245.926906 
L 560.011844 248.189542 
L 560.011844 248.189542 
Q 317.966796 317.509396 191.013426 100.083801 
L 191.013426 100.083801 
L 191.013426 100.083801 
L 193.193993 98.82516 
L 195.387038 97.588387 
L 197.450988 96.450609 
L 197.450988 96.450609 
Q 317.966796 317.509396 557.872539 241.113833 
z
" clip-path="url(#p9406574577)" style="fill: #ff7f0e; fill-opacity: 0.5; stroke: #808080; stroke-opacity: 0.5; stroke-width: 0.1"/>
    <path d="M 560.011844 248.189542 
L 560.011844 248.189542 
L 560.692929 250.613418 
L 561.349742 253.043984 
L 561.982216 255.480996 
L 562.590289 257.924211 
L 563.1739 260.373384 
L 563.73299 262.828271 
L 564.267504 265.288626 
L 564.777388 267.754203 
L 565.171446 269.750539 
L 565.171446 269.750539 
Q 317.966796 317.509396 325.358042 65.842122 
L 325.358042 65.842122 
L 325.358042 65.842122 
L 327.874303 65.928616 
L 330.389574 66.040268 
L 332.903602 66.177067 
L 335.416137 66.338999 
L 337.926926 66.526048 
L 340.43572 66.738195 
L 342.942267 66.975419 
L 345.446316 67.237697 
L 347.468102 67.467958 
L 347.468102 67.467958 
Q 317.966796 317.509396 560.011844 248.189542 
z
" clip-path="url(#p9406574577)" style="fill: #ff7f0e; fill-opacity: 0.5; stroke: #808080; stroke-opacity: 0.5; stroke-width: 0.1"/>
    <path d="M 347.468102 67.467958 
L 347.468102 67.467958 
L 349.966999 67.775468 
L 352.462697 68.107952 
L 354.954945 68.465375 
L 357.443494 68.847702 
L 359.928096 69.254896 
L 362.408502 69.686914 
L 364.884463 70.143715 
L 367.355733 70.625252 
L 369.822064 71.131477 
L 372.283209 71.66234 
L 374.738923 72.217788 
L 376.562969 72.647116 
L 376.562969 72.647116 
Q 317.966796 317.509396 565.171446 269.750539 
L 565.171446 269.750539 
L 565.171446 269.750539 
L 565.636667 272.224932 
L 566.077121 274.703854 
L 566.492764 277.187056 
L 566.883554 279.67429 
L 567.249453 282.165308 
L 567.590424 284.65986 
L 567.906433 287.157697 
L 568.197448 289.65857 
L 568.46344 292.162227 
L 568.704383 294.668419 
L 568.920252 297.176895 
L 569.064629 299.045216 
L 569.064629 299.045216 
Q 317.966796 317.509396 347.468102 67.467958 
z
" clip-path="url(#p9406574577)" style="fill: #1f77b4; fill-opacity: 0.5; stroke: #808080; stroke-opacity: 0.5; stroke-width: 0.1"/>
   </g>
   <g id="patch_10">
    <path d="M 317.966796 65.733608 
L 320.484512 65.746196 
L 323.001976 65.783961 
L 325.518937 65.846898 
L 328.035142 65.935001 
L 330.550341 66.048262 
L 333.064281 66.186668 
L 335.576712 66.350207 
L 338.087381 66.538861 
L 340.596039 66.752612 
L 343.102433 66.991438 
L 345.606314 67.255316 
L 348.107431 67.544219 
L 350.605535 67.858119 
L 353.100374 68.196983 
L 355.5917 68.560778 
L 358.079263 68.949469 
L 360.562815 69.363014 
L 363.042108 69.801375 
L 365.516893 70.264506 
L 367.986924 70.752361 
L 370.451952 71.264891 
L 372.911732 71.802046 
L 375.366017 72.363772 
L 376.562969 72.647116 
L 378.375222 65.074056 
L 377.14125 64.781948 
L 374.611059 64.20285 
L 372.075204 63.649082 
L 369.533938 63.1207 
L 366.987515 62.617756 
L 364.43619 62.140302 
L 361.880218 61.688384 
L 359.319855 61.262048 
L 356.755357 60.861337 
L 354.186979 60.48629 
L 351.61498 60.136945 
L 349.039616 59.813337 
L 346.461145 59.515499 
L 343.879824 59.24346 
L 341.295912 58.997247 
L 338.709667 58.776885 
L 336.121348 58.582397 
L 333.531214 58.4138 
L 330.939523 58.271113 
L 328.346534 58.15435 
L 325.752508 58.063522 
L 323.157703 57.998638 
L 320.56238 57.959706 
L 317.966796 57.946728 
L 317.966796 65.733608 
z
" clip-path="url(#p9406574577)" style="fill: none; stroke: #000000; stroke-width: 0.5; stroke-linejoin: miter"/>
   </g>
   <g id="patch_11">
    <path d="M 376.562969 72.647116 
L 379.008622 73.245311 
L 381.44817 73.867932 
L 383.88137 74.514918 
L 386.307978 75.186202 
L 388.727753 75.881718 
L 391.140451 76.601397 
L 393.545832 77.345167 
L 395.943656 78.112953 
L 398.333681 78.904678 
L 400.715671 79.720264 
L 403.089385 80.559628 
L 405.454587 81.422687 
L 407.81104 82.309355 
L 410.158509 83.219542 
L 412.496759 84.153158 
L 414.825556 85.11011 
L 417.144668 86.090301 
L 419.453861 87.093634 
L 421.752906 88.120009 
L 424.041572 89.169322 
L 426.319631 90.241469 
L 428.586855 91.336343 
L 430.843017 92.453833 
L 433.087891 93.593829 
L 435.321254 94.756217 
L 437.542881 95.940879 
L 439.75255 97.147699 
L 441.950041 98.376554 
L 444.135134 99.627322 
L 446.30761 100.899879 
L 448.467252 102.194096 
L 450.613844 103.509844 
L 452.747172 104.846992 
L 454.867022 106.205407 
L 456.973181 107.584951 
L 459.06544 108.985488 
L 461.14359 110.406877 
L 463.207422 111.848976 
L 465.25673 113.311641 
L 467.291309 114.794726 
L 469.310956 116.298082 
L 471.315468 117.821559 
L 473.304646 119.365004 
L 475.27829 120.928264 
L 477.236203 122.511182 
L 479.178189 124.113599 
L 481.104054 125.735356 
L 483.013606 127.37629 
L 484.906653 129.036237 
L 486.783006 130.715031 
L 488.642478 132.412505 
L 490.484882 134.128488 
L 492.310035 135.862809 
L 494.117754 137.615295 
L 495.907857 139.385769 
L 497.680167 141.174056 
L 499.434505 142.979977 
L 501.170697 144.80335 
L 502.888569 146.643994 
L 504.587948 148.501724 
L 506.268666 150.376355 
L 507.930553 152.267699 
L 509.573445 154.175567 
L 511.197175 156.099768 
L 512.801583 158.04011 
L 514.386508 159.996398 
L 515.951791 161.968438 
L 517.497275 163.956032 
L 519.022807 165.958982 
L 520.528233 167.977086 
L 522.013403 170.010143 
L 523.478169 172.05795 
L 524.922384 174.120302 
L 526.345903 176.196992 
L 527.748585 178.287814 
L 529.130288 180.392558 
L 530.490876 182.511014 
L 531.830211 184.642969 
L 533.14816 186.788211 
L 534.444591 188.946525 
L 535.719375 191.117695 
L 536.972383 193.301504 
L 538.203491 195.497733 
L 539.412576 197.706164 
L 540.599516 199.926575 
L 541.764193 202.158744 
L 542.90649 204.402448 
L 544.026294 206.657463 
L 545.123492 208.923563 
L 546.197974 211.200521 
L 547.249634 213.488111 
L 548.278365 215.786102 
L 549.284066 218.094265 
L 550.266635 220.41237 
L 551.225974 222.740184 
L 552.161988 225.077476 
L 553.074582 227.42401 
L 553.963665 229.779553 
L 554.829149 232.143869 
L 555.670947 234.516721 
L 556.488975 236.897873 
L 557.283151 239.287085 
L 558.053395 241.68412 
L 558.799631 244.088737 
L 559.521784 246.500696 
L 560.219782 248.919757 
L 560.893554 251.345675 
L 561.543034 253.778211 
L 562.168156 256.217119 
L 562.768859 258.662157 
L 563.345082 261.113079 
L 563.896767 263.56964 
L 564.423859 266.031596 
L 564.926305 268.4987 
L 565.404056 270.970704 
L 565.857064 273.447362 
L 566.285282 275.928427 
L 566.688669 278.413649 
L 567.067184 280.902781 
L 567.420789 283.395574 
L 567.749449 285.891778 
L 568.053131 288.391144 
L 568.331805 290.893421 
L 568.585442 293.39836 
L 568.814017 295.905711 
L 569.017508 298.415221 
L 569.064629 299.045216 
L 576.830541 298.474159 
L 576.781963 297.82468 
L 576.572179 295.237555 
L 576.336534 292.652658 
L 576.075052 290.070247 
L 575.78776 287.490579 
L 575.474686 284.913913 
L 575.135861 282.340507 
L 574.77132 279.770618 
L 574.381098 277.204502 
L 573.965235 274.642417 
L 573.523773 272.084619 
L 573.056755 269.531363 
L 572.564228 266.982905 
L 572.046242 264.439499 
L 571.502848 261.901401 
L 570.934101 259.368863 
L 570.340057 256.842139 
L 569.720776 254.321482 
L 569.07632 251.807143 
L 568.406753 249.299375 
L 567.712142 246.798427 
L 566.992557 244.304551 
L 566.248069 241.817995 
L 565.478754 239.339008 
L 564.684688 236.867839 
L 563.86595 234.404733 
L 563.022622 231.949937 
L 562.154789 229.503698 
L 561.262538 227.066259 
L 560.345957 224.637864 
L 559.405138 222.218757 
L 558.440176 219.809178 
L 557.451166 217.409369 
L 556.438208 215.01957 
L 555.401404 212.64002 
L 554.340856 210.270957 
L 553.256671 207.912618 
L 552.148957 205.565238 
L 551.017825 203.229053 
L 549.863388 200.904295 
L 548.685762 198.591198 
L 547.485064 196.289993 
L 546.261414 194.000909 
L 545.014935 191.724177 
L 543.745752 189.460022 
L 542.45399 187.208673 
L 541.139781 184.970353 
L 539.803254 182.745288 
L 538.444543 180.533698 
L 537.063785 178.335806 
L 535.661118 176.151831 
L 534.236681 173.981992 
L 532.790618 171.826506 
L 531.323072 169.685587 
L 529.834191 167.559451 
L 528.324123 165.44831 
L 526.79302 163.352375 
L 525.241034 161.271855 
L 523.668321 159.206959 
L 522.075038 157.157893 
L 520.461344 155.124862 
L 518.827401 153.10807 
L 517.173373 151.107717 
L 515.499423 149.124005 
L 513.805721 147.157131 
L 512.092435 145.207292 
L 510.359736 143.274683 
L 508.607799 141.359497 
L 506.836797 139.461926 
L 505.046909 137.58216 
L 503.238312 135.720386 
L 501.411189 133.876791 
L 499.565721 132.051559 
L 497.702094 130.244873 
L 495.820493 128.456913 
L 493.921107 126.687859 
L 492.004126 124.937886 
L 490.069741 123.20717 
L 488.118146 121.495884 
L 486.149537 119.8042 
L 484.164108 118.132286 
L 482.162061 116.480309 
L 480.143594 114.848435 
L 478.108909 113.236827 
L 476.05821 111.645646 
L 473.991703 110.075051 
L 471.909593 108.5252 
L 469.812088 106.996247 
L 467.6994 105.488345 
L 465.571738 104.001645 
L 463.429316 102.536295 
L 461.272348 101.092443 
L 459.101049 99.670232 
L 456.915637 98.269805 
L 454.71633 96.891301 
L 452.503349 95.53486 
L 450.276914 94.200615 
L 448.037248 92.888701 
L 445.784575 91.599249 
L 443.51912 90.332388 
L 441.24111 89.088245 
L 438.950773 87.866943 
L 436.648338 86.668606 
L 434.334034 85.493352 
L 432.008094 84.3413 
L 429.67075 83.212564 
L 427.322236 82.107258 
L 424.962786 81.025492 
L 422.592636 79.967374 
L 420.212024 78.93301 
L 417.821188 77.922503 
L 415.420366 76.935955 
L 413.009799 75.973464 
L 410.589728 75.035127 
L 408.160395 74.121037 
L 405.722042 73.231285 
L 403.274914 72.365961 
L 400.819255 71.525151 
L 398.355311 70.708939 
L 395.883328 69.917407 
L 393.403554 69.150635 
L 390.916236 68.408697 
L 388.421623 67.69167 
L 385.919965 66.999624 
L 383.411511 66.332629 
L 380.896513 65.690752 
L 378.375222 65.074056 
L 376.562969 72.647116 
z
" clip-path="url(#p9406574577)" style="fill: none; stroke: #000000; stroke-width: 0.5; stroke-linejoin: miter"/>
   </g>
   <g id="patch_12">
    <path d="M 569.064629 299.045216 
L 569.236713 301.557076 
L 569.38367 304.070531 
L 569.505486 306.58533 
L 569.602148 309.101221 
L 569.673646 311.617953 
L 569.719975 314.135274 
L 569.741128 316.652933 
L 569.737104 319.170677 
L 569.707903 321.688255 
L 569.653528 324.205415 
L 569.573985 326.721906 
L 569.469281 329.237475 
L 569.339427 331.751871 
L 569.184436 334.264844 
L 569.004323 336.77614 
L 568.799107 339.285511 
L 568.568808 341.792703 
L 568.313449 344.297467 
L 568.033056 346.799553 
L 567.727656 349.298709 
L 567.39728 351.794687 
L 567.041962 354.287236 
L 566.661736 356.776107 
L 566.256641 359.261052 
L 565.826717 361.741821 
L 565.372007 364.218167 
L 564.892557 366.689843 
L 564.388414 369.1566 
L 563.85963 371.618193 
L 563.306256 374.074375 
L 562.728349 376.5249 
L 562.125966 378.969524 
L 561.499167 381.408002 
L 560.848015 383.840091 
L 560.172575 386.265546 
L 559.472915 388.684126 
L 558.749104 391.095588 
L 558.001216 393.499691 
L 557.229324 395.896196 
L 556.433506 398.284862 
L 555.613841 400.665451 
L 554.770412 403.037724 
L 553.903303 405.401444 
L 553.012601 407.756375 
L 552.098394 410.102282 
L 551.160774 412.438929 
L 550.199835 414.766084 
L 549.215673 417.083513 
L 548.208386 419.390984 
L 547.178075 421.688268 
L 546.124843 423.975133 
L 545.048796 426.251353 
L 543.95004 428.516698 
L 542.828687 430.770942 
L 541.684847 433.013861 
L 540.518636 435.245229 
L 539.33017 437.464823 
L 538.119567 439.672422 
L 536.88695 441.867805 
L 535.63244 444.050752 
L 534.356165 446.221046 
L 533.05825 448.378468 
L 531.738827 450.522803 
L 530.398027 452.653837 
L 529.035983 454.771357 
L 527.652833 456.87515 
L 526.248715 458.965008 
L 524.823768 461.040719 
L 523.378136 463.102078 
L 521.911963 465.148878 
L 520.425396 467.180913 
L 518.918582 469.197982 
L 517.391674 471.199882 
L 515.844824 473.186413 
L 514.278186 475.157377 
L 512.691917 477.112576 
L 511.086176 479.051814 
L 509.461122 480.974899 
L 507.81692 482.881637 
L 506.153733 484.771838 
L 504.471727 486.645313 
L 502.771071 488.501874 
L 501.051934 490.341337 
L 499.314489 492.163516 
L 497.55891 493.96823 
L 495.785372 495.755299 
L 493.994051 497.524543 
L 492.185129 499.275785 
L 490.358784 501.008851 
L 488.515201 502.723567 
L 486.654563 504.419762 
L 484.777056 506.097266 
L 482.882868 507.755912 
L 480.972189 509.395533 
L 479.045209 511.015965 
L 477.102122 512.617048 
L 475.143121 514.198619 
L 473.168403 515.760522 
L 471.178165 517.302599 
L 469.172606 518.824698 
L 467.151926 520.326665 
L 465.116328 521.808351 
L 463.066015 523.269607 
L 461.001192 524.710287 
L 458.922066 526.130247 
L 456.828845 527.529345 
L 454.721737 528.907442 
L 452.600954 530.264398 
L 450.466708 531.60008 
L 448.319212 532.914353 
L 446.158681 534.207085 
L 443.98533 535.478147 
L 441.799378 536.727413 
L 439.601043 537.954758 
L 437.390545 539.160058 
L 435.168104 540.343193 
L 432.933943 541.504045 
L 430.688285 542.642498 
L 428.431356 543.758437 
L 426.16338 544.851752 
L 423.884585 545.922333 
L 421.595197 546.970072 
L 419.295448 547.994866 
L 416.985565 548.996612 
L 414.66578 549.975209 
L 412.336326 550.930559 
L 409.997435 551.862568 
L 407.649341 552.771141 
L 405.292278 553.656189 
L 402.926484 554.517622 
L 400.552193 555.355354 
L 398.169644 556.169302 
L 395.779074 556.959384 
L 393.380724 557.725522 
L 390.974832 558.467638 
L 388.561639 559.185658 
L 386.141387 559.879511 
L 383.714318 560.549127 
L 381.280674 561.19444 
L 378.840698 561.815384 
L 376.394635 562.411897 
L 373.94273 562.983921 
L 371.485227 563.531397 
L 369.022372 564.054272 
L 366.554411 564.552492 
L 364.081592 565.026008 
L 361.604162 565.474772 
L 359.122367 565.898741 
L 356.636457 566.29787 
L 354.146681 566.672121 
L 351.653286 567.021456 
L 349.156523 567.34584 
L 346.65664 567.64524 
L 344.153889 567.919627 
L 341.648519 568.168973 
L 339.140781 568.393254 
L 336.630926 568.592446 
L 334.119204 568.76653 
L 331.605867 568.915489 
L 329.091166 569.039307 
L 326.575352 569.137972 
L 324.058678 569.211475 
L 321.541395 569.259808 
L 319.023754 569.282966 
L 316.506007 569.280947 
L 313.988407 569.253751 
L 311.471204 569.20138 
L 308.954651 569.123841 
L 306.438999 569.02114 
L 303.9245 568.893289 
L 301.411405 568.740299 
L 298.899966 568.562186 
L 296.390433 568.358969 
L 293.883058 568.130666 
L 291.378091 567.877302 
L 288.875783 567.598901 
L 286.376384 567.295491 
L 283.880145 566.967103 
L 281.387313 566.61377 
L 281.137874 566.577013 
L 279.998835 574.280136 
L 280.255989 574.318029 
L 282.825918 574.68229 
L 285.399361 575.020835 
L 287.976061 575.333628 
L 290.55576 575.620639 
L 293.1382 575.88184 
L 295.723123 576.117203 
L 298.31027 576.326706 
L 300.899383 576.510327 
L 303.490202 576.668048 
L 306.082469 576.799854 
L 308.675925 576.905731 
L 311.27031 576.985668 
L 313.865364 577.039658 
L 316.460828 577.067696 
L 319.056443 577.069777 
L 321.651949 577.045903 
L 324.247087 576.996075 
L 326.841596 576.920299 
L 329.435219 576.818582 
L 332.027694 576.690935 
L 334.618763 576.537369 
L 337.208167 576.357901 
L 339.795647 576.152548 
L 342.380944 575.921331 
L 344.963799 575.664273 
L 347.543955 575.3814 
L 350.121153 575.07274 
L 352.695136 574.738324 
L 355.265646 574.378185 
L 357.832426 573.992359 
L 360.39522 573.580885 
L 362.953771 573.143805 
L 365.507823 572.681161 
L 368.057121 572.193 
L 370.60141 571.679371 
L 373.140436 571.140325 
L 375.673944 570.575917 
L 378.201682 569.986202 
L 380.723396 569.371239 
L 383.238835 568.731091 
L 385.747746 568.06582 
L 388.24988 567.375494 
L 390.744985 566.660182 
L 393.232812 565.919955 
L 395.713113 565.154887 
L 398.18564 564.365054 
L 400.650144 563.550536 
L 403.10638 562.711415 
L 405.554103 561.847773 
L 407.993067 560.959698 
L 410.423028 560.047278 
L 412.843743 559.110604 
L 415.254971 558.14977 
L 417.656471 557.164873 
L 420.048001 556.15601 
L 422.429323 555.123283 
L 424.8002 554.066794 
L 427.160392 552.98665 
L 429.509666 551.882959 
L 431.847786 550.75583 
L 434.174517 549.605377 
L 436.489628 548.431715 
L 438.792886 547.23496 
L 441.084063 546.015233 
L 443.362927 544.772656 
L 445.629252 543.507352 
L 447.882811 542.219449 
L 450.123378 540.909075 
L 452.35073 539.576361 
L 454.564643 538.221441 
L 456.764897 536.84445 
L 458.951271 535.445526 
L 461.123547 534.024808 
L 463.281507 532.582438 
L 465.424936 531.118562 
L 467.55362 529.633325 
L 469.667344 528.126875 
L 471.765899 526.599364 
L 473.849074 525.050944 
L 475.916661 523.481771 
L 477.968453 521.892 
L 480.004245 520.281791 
L 482.023833 518.651305 
L 484.027016 517.000705 
L 486.013593 515.330156 
L 487.983365 513.639825 
L 489.936136 511.929881 
L 491.87171 510.200495 
L 493.789894 508.451841 
L 495.690495 506.684092 
L 497.573325 504.897426 
L 499.438193 503.092021 
L 501.284915 501.268059 
L 503.113305 499.42572 
L 504.923181 497.56519 
L 506.714361 495.686655 
L 508.486667 493.790302 
L 510.239921 491.876321 
L 511.973947 489.944903 
L 513.688573 487.996242 
L 515.383627 486.030533 
L 517.05894 484.047972 
L 518.714343 482.048756 
L 520.349672 480.033088 
L 521.964763 478.001166 
L 523.559454 475.953196 
L 525.133586 473.889382 
L 526.687002 471.809929 
L 528.219545 469.715047 
L 529.731064 467.604945 
L 531.221406 465.479832 
L 532.690423 463.339923 
L 534.137968 461.185431 
L 535.563896 459.016572 
L 536.968065 456.833562 
L 538.350333 454.63662 
L 539.710563 452.425965 
L 541.048619 450.201818 
L 542.364368 447.964403 
L 543.657676 445.713942 
L 544.928416 443.45066 
L 546.176459 441.174785 
L 547.401682 438.886543 
L 548.603962 436.586164 
L 549.783178 434.273877 
L 550.939213 431.949913 
L 552.07195 429.614506 
L 553.181277 427.267888 
L 554.267083 424.910295 
L 555.32926 422.541961 
L 556.3677 420.163125 
L 557.3823 417.774023 
L 558.372959 415.374894 
L 559.339577 412.96598 
L 560.282059 410.547519 
L 561.200309 408.119755 
L 562.094236 405.68293 
L 562.96375 403.237288 
L 563.808765 400.783073 
L 564.629196 398.32053 
L 565.424961 395.849907 
L 566.19598 393.371449 
L 566.942176 390.885406 
L 567.663476 388.392025 
L 568.359805 385.891555 
L 569.031096 383.384248 
L 569.67728 380.870353 
L 570.298294 378.350122 
L 570.894075 375.823807 
L 571.464563 373.291661 
L 572.009701 370.753936 
L 572.529436 368.210888 
L 573.023714 365.662769 
L 573.492487 363.109834 
L 573.935708 360.55234 
L 574.353332 357.990541 
L 574.745317 355.424695 
L 575.111625 352.855056 
L 575.452219 350.281884 
L 575.767064 347.705434 
L 576.056129 345.125964 
L 576.319386 342.543733 
L 576.556808 339.958999 
L 576.768371 337.372019 
L 576.954054 334.783053 
L 577.113838 332.19236 
L 577.247708 329.600199 
L 577.35565 327.006829 
L 577.437654 324.412508 
L 577.49371 321.817498 
L 577.523814 319.222057 
L 577.527963 316.626444 
L 577.506155 314.03092 
L 577.458394 311.435743 
L 577.384684 308.841174 
L 577.285033 306.247472 
L 577.15945 303.654896 
L 577.007947 301.063705 
L 576.830541 298.474159 
L 569.064629 299.045216 
z
" clip-path="url(#p9406574577)" style="fill: none; stroke: #000000; stroke-width: 0.5; stroke-linejoin: miter"/>
   </g>
   <g id="patch_13">
    <path d="M 281.137874 566.577013 
L 278.649081 566.196277 
L 276.164219 565.790672 
L 273.683538 565.36024 
L 271.207285 564.905022 
L 268.735708 564.425065 
L 266.269054 563.920417 
L 263.807569 563.391127 
L 261.351501 562.83725 
L 258.901094 562.25884 
L 256.456594 561.655956 
L 254.018244 561.028657 
L 251.58629 560.377006 
L 249.160973 559.701069 
L 246.742537 559.000912 
L 244.331223 558.276607 
L 241.927273 557.528226 
L 239.530927 556.755842 
L 237.142424 555.959534 
L 234.762003 555.139382 
L 232.389903 554.295466 
L 230.026361 553.427872 
L 227.671612 552.536687 
L 225.325893 551.621999 
L 222.989438 550.6839 
L 220.662481 549.722483 
L 218.345254 548.737846 
L 216.037989 547.730086 
L 213.740917 546.699304 
L 211.454267 545.645603 
L 209.178269 544.569089 
L 206.913149 543.469868 
L 204.659135 542.348053 
L 202.416451 541.203753 
L 200.185322 540.037084 
L 197.965972 538.848163 
L 195.758621 537.637108 
L 193.563491 536.40404 
L 191.380801 535.149083 
L 189.210769 533.872362 
L 187.053614 532.574005 
L 184.909549 531.254142 
L 182.77879 529.912905 
L 180.66155 528.550427 
L 178.55804 527.166846 
L 176.46847 525.762299 
L 174.393051 524.336926 
L 172.331989 522.890872 
L 170.28549 521.424279 
L 168.253759 519.937295 
L 166.236999 518.430068 
L 164.235413 516.902749 
L 162.249199 515.355491 
L 160.278557 513.788449 
L 158.323683 512.201779 
L 156.384774 510.59564 
L 154.462023 508.970193 
L 152.555622 507.325599 
L 150.665762 505.662024 
L 148.792632 503.979634 
L 146.936419 502.278597 
L 145.09731 500.559084 
L 143.275487 498.821265 
L 141.471133 497.065316 
L 139.684428 495.291411 
L 137.915552 493.499728 
L 136.16468 491.690446 
L 134.431989 489.863746 
L 132.71765 488.019811 
L 131.021837 486.158825 
L 129.344718 484.280974 
L 128.570228 483.400889 
L 122.712602 488.531554 
L 123.511046 489.438858 
L 125.240034 491.374787 
L 126.988295 493.293329 
L 128.755654 495.194293 
L 130.541934 497.077489 
L 132.346956 498.942728 
L 134.17054 500.789824 
L 136.012504 502.618592 
L 137.872663 504.428849 
L 139.750831 506.220414 
L 141.64682 507.993109 
L 143.560441 509.746755 
L 145.491503 511.481178 
L 147.439812 513.196203 
L 149.405174 514.891661 
L 151.387392 516.56738 
L 153.386267 518.223193 
L 155.401601 519.858935 
L 157.433191 521.474443 
L 159.480834 523.069554 
L 161.544325 524.644109 
L 163.623459 526.197951 
L 165.718027 527.730925 
L 167.82782 529.242876 
L 169.952626 530.733654 
L 172.092234 532.20311 
L 174.246429 533.651097 
L 176.414996 535.077469 
L 178.597718 536.482086 
L 180.794376 537.864805 
L 183.004752 539.225488 
L 185.228624 540.564 
L 187.46577 541.880207 
L 189.715966 543.173977 
L 191.978986 544.445181 
L 194.254606 545.693692 
L 196.542596 546.919384 
L 198.842729 548.122135 
L 201.154774 549.301825 
L 203.4785 550.458337 
L 205.813675 551.591553 
L 208.160066 552.701362 
L 210.517436 553.787651 
L 212.885552 554.850313 
L 215.264175 555.889241 
L 217.653069 556.904331 
L 220.051994 557.895482 
L 222.460711 558.862595 
L 224.878978 559.805572 
L 227.306554 560.72432 
L 229.743195 561.618747 
L 232.188659 562.488763 
L 234.642701 563.334281 
L 237.105075 564.155217 
L 239.575535 564.951488 
L 242.053834 565.723016 
L 244.539725 566.469722 
L 247.032958 567.191533 
L 249.533284 567.888375 
L 252.040454 568.56018 
L 254.554216 569.20688 
L 257.07432 569.828411 
L 259.600513 570.424709 
L 262.132542 570.995717 
L 264.670154 571.541376 
L 267.213097 572.061632 
L 269.761114 572.556433 
L 272.313952 573.02573 
L 274.871356 573.469475 
L 277.433069 573.887624 
L 279.998835 574.280136 
L 281.137874 566.577013 
z
" clip-path="url(#p9406574577)" style="fill: none; stroke: #000000; stroke-width: 0.5; stroke-linejoin: miter"/>
   </g>
   <g id="patch_14">
    <path d="M 128.570228 483.400889 
L 126.92081 481.498661 
L 125.290497 479.580033 
L 123.679452 477.645199 
L 122.087835 475.694351 
L 120.515805 473.727685 
L 118.963521 471.745397 
L 117.431137 469.747686 
L 115.918806 467.734751 
L 114.42668 465.706793 
L 112.954907 463.664016 
L 111.503636 461.606624 
L 110.073011 459.534822 
L 108.663175 457.448817 
L 107.274269 455.348819 
L 105.906432 453.235037 
L 104.559801 451.107683 
L 103.234511 448.966968 
L 101.930694 446.813108 
L 100.64848 444.646318 
L 99.387998 442.466815 
L 98.149373 440.274815 
L 96.93273 438.070539 
L 95.73819 435.854208 
L 94.565873 433.626041 
L 93.415896 431.386264 
L 92.288374 429.135098 
L 91.183419 426.87277 
L 90.101143 424.599506 
L 89.041653 422.315533 
L 88.005055 420.02108 
L 86.991453 417.716375 
L 86.000949 415.40165 
L 85.033641 413.077135 
L 84.089626 410.743064 
L 83.168999 408.39967 
L 82.271851 406.047187 
L 81.398272 403.68585 
L 80.548351 401.315895 
L 79.72217 398.93756 
L 78.919814 396.551082 
L 78.141363 394.1567 
L 77.386894 391.754653 
L 76.656483 389.345182 
L 75.950202 386.928527 
L 75.268123 384.504931 
L 74.610314 382.074635 
L 73.97684 379.637882 
L 73.367765 377.194917 
L 72.783149 374.745983 
L 72.223052 372.291326 
L 71.687529 369.83119 
L 71.176634 367.365823 
L 70.690417 364.895469 
L 70.228928 362.420377 
L 69.792212 359.940795 
L 69.380314 357.456968 
L 68.993274 354.969148 
L 68.631132 352.477581 
L 68.293922 349.982518 
L 67.98168 347.484207 
L 67.694436 344.982899 
L 67.432219 342.478843 
L 67.195055 339.972291 
L 66.982969 337.463492 
L 66.79598 334.952698 
L 66.634108 332.440159 
L 66.49737 329.926128 
L 66.385778 327.410854 
L 66.299344 324.894591 
L 66.238077 322.377589 
L 66.201982 319.860101 
L 66.191063 317.342377 
L 66.205322 314.82467 
L 66.244757 312.307231 
L 66.309364 309.790313 
L 66.399136 307.274167 
L 66.514065 304.759044 
L 66.654139 302.245196 
L 66.819344 299.732874 
L 67.009663 297.22233 
L 67.225078 294.713815 
L 67.465567 292.20758 
L 67.731106 289.703874 
L 68.021668 287.202949 
L 68.337225 284.705055 
L 68.677744 282.210441 
L 69.043192 279.719357 
L 69.433532 277.232052 
L 69.848726 274.748775 
L 70.288731 272.269773 
L 70.753503 269.795296 
L 71.242997 267.32559 
L 71.757163 264.860902 
L 72.295949 262.401479 
L 72.859302 259.947567 
L 73.447166 257.499411 
L 74.059482 255.057256 
L 74.696188 252.621346 
L 75.357222 250.191925 
L 76.042515 247.769235 
L 76.752002 245.35352 
L 77.485609 242.94502 
L 78.243264 240.543976 
L 79.024892 238.150629 
L 79.830413 235.765218 
L 80.659748 233.387981 
L 81.512813 231.019156 
L 82.389524 228.65898 
L 83.289792 226.307689 
L 84.213528 223.965518 
L 85.160638 221.632702 
L 86.13103 219.309473 
L 87.124604 216.996064 
L 88.141263 214.692706 
L 89.180904 212.39963 
L 90.243423 210.117064 
L 91.328715 207.845238 
L 92.43667 205.584378 
L 93.567178 203.334711 
L 94.720125 201.096461 
L 95.895397 198.869852 
L 97.092877 196.655107 
L 98.312443 194.452447 
L 99.553975 192.262093 
L 100.817347 190.084263 
L 102.102435 187.919176 
L 103.409108 185.767048 
L 104.737238 183.628094 
L 106.08669 181.502528 
L 107.45733 179.390562 
L 108.849021 177.292409 
L 110.261623 175.208277 
L 111.694995 173.138375 
L 113.148995 171.082909 
L 114.623476 169.042087 
L 116.118292 167.016111 
L 117.633292 165.005184 
L 119.168325 163.009507 
L 120.723238 161.029281 
L 122.297875 159.064702 
L 123.892079 157.115968 
L 125.50569 155.183272 
L 127.138548 153.26681 
L 128.790487 151.366771 
L 130.461345 149.483347 
L 132.150952 147.616725 
L 133.859142 145.767092 
L 135.585741 143.934633 
L 137.330579 142.119531 
L 139.09348 140.321969 
L 140.874268 138.542125 
L 142.672766 136.780177 
L 144.488793 135.036302 
L 146.322167 133.310675 
L 148.172706 131.603467 
L 150.040224 129.91485 
L 151.924534 128.244992 
L 153.825449 126.59406 
L 155.742777 124.962219 
L 157.676328 123.349634 
L 159.625908 121.756463 
L 160.574681 120.992807 
L 155.706884 114.914975 
L 154.728767 115.702249 
L 152.718891 117.344692 
L 150.725539 119.007152 
L 148.748912 120.689462 
L 146.789206 122.391453 
L 144.846618 124.112957 
L 142.921342 125.853799 
L 141.01357 127.613807 
L 139.123494 129.392805 
L 137.251301 131.190614 
L 135.39718 133.007054 
L 133.561316 134.841945 
L 131.743892 136.695103 
L 129.94509 138.566341 
L 128.16509 140.455474 
L 126.404071 142.362312 
L 124.662207 144.286665 
L 122.939674 146.228339 
L 121.236643 148.187142 
L 119.553285 150.162877 
L 117.889768 152.155346 
L 116.246259 154.164351 
L 114.622922 156.18969 
L 113.019919 158.23116 
L 111.43741 160.288559 
L 109.875555 162.361679 
L 108.334508 164.450314 
L 106.814424 166.554255 
L 105.315455 168.673291 
L 103.837751 170.807211 
L 102.38146 172.955801 
L 100.946728 175.118846 
L 99.533697 177.29613 
L 98.142509 179.487435 
L 96.773304 181.692542 
L 95.426217 183.911231 
L 94.101385 186.14328 
L 92.798939 188.388465 
L 91.519009 190.646562 
L 90.261724 192.917345 
L 89.02721 195.200587 
L 87.815589 197.496061 
L 86.626983 199.803535 
L 85.461511 202.12278 
L 84.319289 204.453563 
L 83.200432 206.795652 
L 82.105051 209.148812 
L 81.033257 211.512808 
L 79.985155 213.887404 
L 78.960851 216.272362 
L 77.960448 218.667443 
L 76.984045 221.072409 
L 76.03174 223.487018 
L 75.103629 225.911029 
L 74.199804 228.3442 
L 73.320355 230.786288 
L 72.46537 233.237047 
L 71.634936 235.696234 
L 70.829134 238.163603 
L 70.048046 240.638905 
L 69.29175 243.121895 
L 68.560321 245.612323 
L 67.853833 248.109941 
L 67.172355 250.614499 
L 66.515957 253.125747 
L 65.884704 255.643432 
L 65.278658 258.167304 
L 64.697882 260.697111 
L 64.142432 263.232598 
L 63.612364 265.773513 
L 63.107731 268.319602 
L 62.628584 270.87061 
L 62.174971 273.426281 
L 61.746937 275.986361 
L 61.344524 278.550593 
L 60.967774 281.118721 
L 60.616723 283.690488 
L 60.291407 286.265637 
L 59.991858 288.84391 
L 59.718107 291.425049 
L 59.47018 294.008797 
L 59.248102 296.594895 
L 59.051897 299.183085 
L 58.881582 301.773107 
L 58.737176 304.364703 
L 58.618693 306.957613 
L 58.526144 309.551579 
L 58.459539 312.14634 
L 58.418885 314.741637 
L 58.404185 317.337211 
L 58.415441 319.932803 
L 58.452652 322.528152 
L 58.515815 325.122999 
L 58.604922 327.717085 
L 58.719965 330.31015 
L 58.860933 332.901935 
L 59.027811 335.492181 
L 59.220582 338.080629 
L 59.439228 340.667019 
L 59.683727 343.251094 
L 59.954054 345.832595 
L 60.250182 348.411263 
L 60.572081 350.986841 
L 60.919719 353.559071 
L 61.293062 356.127697 
L 61.692072 358.69246 
L 62.11671 361.253106 
L 62.566932 363.809377 
L 63.042694 366.361018 
L 63.543948 368.907774 
L 64.070644 371.44939 
L 64.62273 373.985612 
L 65.20015 376.516187 
L 65.802846 379.040861 
L 66.430759 381.559382 
L 67.083825 384.071498 
L 67.761979 386.576958 
L 68.465153 389.075511 
L 69.193277 391.566907 
L 69.946278 394.050898 
L 70.724082 396.527235 
L 71.526609 398.99567 
L 72.35378 401.455957 
L 73.205512 403.907849 
L 74.08172 406.351101 
L 74.982316 408.785469 
L 75.907211 411.210709 
L 76.856312 413.62658 
L 77.829523 416.032839 
L 78.826748 418.429245 
L 79.847886 420.81556 
L 80.892836 423.191544 
L 81.961494 425.55696 
L 83.053752 427.911572 
L 84.169501 430.255143 
L 85.308629 432.587439 
L 86.471023 434.908229 
L 87.656567 437.217278 
L 88.865141 439.514356 
L 90.096625 441.799235 
L 91.350896 444.071684 
L 92.627829 446.331477 
L 93.927295 448.578388 
L 95.249165 450.812192 
L 96.593306 453.032666 
L 97.959585 455.239588 
L 99.347864 457.432737 
L 100.758005 459.611894 
L 102.189867 461.776841 
L 103.643306 463.927361 
L 105.118177 466.063239 
L 106.614333 468.184262 
L 108.131624 470.290218 
L 109.669899 472.380896 
L 111.229003 474.456086 
L 112.80878 476.515583 
L 114.409074 478.559178 
L 116.029722 480.586669 
L 117.670565 482.597853 
L 119.331436 484.592527 
L 121.012172 486.570494 
L 122.712602 488.531554 
L 128.570228 483.400889 
z
" clip-path="url(#p9406574577)" style="fill: none; stroke: #000000; stroke-width: 0.5; stroke-linejoin: miter"/>
   </g>
   <g id="patch_15">
    <path d="M 160.574681 120.992807 
L 162.547684 119.428738 
L 164.536228 117.884477 
L 166.540116 116.360178 
L 168.559145 114.855994 
L 170.593116 113.372075 
L 172.641824 111.908569 
L 174.705064 110.465624 
L 176.78263 109.043382 
L 178.874315 107.641987 
L 180.979909 106.261579 
L 183.099201 104.902295 
L 185.23198 103.564272 
L 187.378032 102.247643 
L 189.537143 100.95254 
L 191.709097 99.679093 
L 193.893676 98.427428 
L 196.090663 97.197672 
L 197.450988 96.450609 
L 193.723695 89.613739 
L 192.321298 90.383907 
L 190.056363 91.651697 
L 187.80422 92.942073 
L 185.565092 94.254906 
L 183.339204 95.590063 
L 181.126779 96.947413 
L 178.928038 98.326818 
L 176.743201 99.728141 
L 174.572486 101.151243 
L 172.41611 102.59598 
L 170.274289 104.062208 
L 168.147237 105.549781 
L 166.035167 107.058549 
L 163.93829 108.588363 
L 161.856816 110.139068 
L 159.790953 111.71051 
L 157.740907 113.302532 
L 155.706884 114.914975 
L 160.574681 120.992807 
z
" clip-path="url(#p9406574577)" style="fill: none; stroke: #000000; stroke-width: 0.5; stroke-linejoin: miter"/>
   </g>
   <g id="patch_16">
    <path d="M 197.450988 96.450609 
L 199.667565 95.256523 
L 201.895971 94.084663 
L 204.135985 92.935146 
L 206.387381 91.808085 
L 208.649936 90.703594 
L 210.923422 89.621784 
L 213.207612 88.562763 
L 215.502278 87.526636 
L 217.364333 86.706034 
L 214.252917 79.567785 
L 212.333272 80.413767 
L 209.967637 81.481939 
L 207.612802 82.573714 
L 205.269002 83.688982 
L 202.936472 84.827632 
L 200.615444 85.98955 
L 198.306152 87.17462 
L 196.008825 88.382723 
L 193.723695 89.613739 
L 197.450988 96.450609 
z
" clip-path="url(#p9406574577)" style="fill: none; stroke: #000000; stroke-width: 0.5; stroke-linejoin: miter"/>
   </g>
   <g id="patch_17">
    <path d="M 217.364333 86.706034 
L 219.677359 85.711566 
L 222.000213 84.740278 
L 224.332663 83.792266 
L 226.674477 82.867626 
L 229.025421 81.96645 
L 231.385258 81.088828 
L 233.753753 80.234848 
L 236.13067 79.404596 
L 238.51577 78.598153 
L 240.908815 77.815602 
L 243.309566 77.057019 
L 245.717782 76.322482 
L 248.133224 75.612063 
L 250.555648 74.925834 
L 252.984814 74.263862 
L 255.420478 73.626216 
L 257.862396 73.012957 
L 260.310325 72.424148 
L 262.76402 71.859847 
L 265.223234 71.320111 
L 267.687723 70.804993 
L 270.15724 70.314546 
L 272.631538 69.848818 
L 275.110369 69.407856 
L 277.593486 68.991704 
L 280.08064 68.600403 
L 282.571583 68.233993 
L 285.066065 67.892511 
L 287.563837 67.57599 
L 290.06465 67.284462 
L 292.568253 67.017956 
L 295.074395 66.776499 
L 297.582827 66.560116 
L 300.093297 66.368827 
L 302.605555 66.202651 
L 305.119348 66.061607 
L 307.634427 65.945707 
L 310.150538 65.854963 
L 312.667432 65.789384 
L 315.184855 65.748977 
L 317.702556 65.733746 
L 317.966796 65.733608 
L 317.966796 57.946728 
L 317.694384 57.946871 
L 315.098815 57.962573 
L 312.503534 58.004229 
L 309.908798 58.071836 
L 307.314869 58.165387 
L 304.722005 58.284871 
L 302.130465 58.430278 
L 299.540509 58.601592 
L 296.952395 58.798798 
L 294.366383 59.021873 
L 291.782731 59.270798 
L 289.201697 59.545546 
L 286.62354 59.84609 
L 284.048517 60.172401 
L 281.476886 60.524445 
L 278.908903 60.902187 
L 276.344827 61.305589 
L 273.784913 61.734612 
L 271.229417 62.189212 
L 268.678594 62.669344 
L 266.1327 63.17496 
L 263.59199 63.706009 
L 261.056717 64.262438 
L 258.527135 64.844192 
L 256.003497 65.451211 
L 253.486056 66.083437 
L 250.975062 66.740805 
L 248.470768 67.423249 
L 245.973423 68.130702 
L 243.483277 68.863093 
L 241.000579 69.620348 
L 238.525578 70.402391 
L 236.058522 71.209146 
L 233.599656 72.04053 
L 231.149226 72.89646 
L 228.707478 73.776852 
L 226.274656 74.681617 
L 223.851004 75.610664 
L 221.436762 76.563901 
L 219.032174 77.541233 
L 216.637479 78.542561 
L 214.252917 79.567785 
L 217.364333 86.706034 
z
" clip-path="url(#p9406574577)" style="fill: none; stroke: #000000; stroke-width: 0.5; stroke-linejoin: miter"/>
   </g>
   <g id="text_1">
    <text style="font: 10px 'DejaVu Sans', 'Bitstream Vera Sans', 'Computer Modern Sans Serif', 'Lucida Grande', 'Verdana', 'Geneva', 'Lucid', 'Arial', 'Helvetica', 'Avant Garde', sans-serif; text-anchor: middle" x="350.144882" y="44.780622" transform="rotate(-353.271028 350.144882 44.780622)">AAA</text>
   </g>
   <g id="text_2">
    <text style="font: 10px 'DejaVu Sans', 'Bitstream Vera Sans', 'Computer Modern Sans Serif', 'Lucida Grande', 'Verdana', 'Geneva', 'Lucid', 'Arial', 'Helvetica', 'Avant Garde', sans-serif; text-anchor: middle" x="527.182087" y="139.617926" transform="rotate(-310.373832 527.182087 139.617926)">CA1v</text>
   </g>
   <g id="text_3">
    <text style="font: 10px 'DejaVu Sans', 'Bitstream Vera Sans', 'Computer Modern Sans Serif', 'Lucida Grande', 'Verdana', 'Geneva', 'Lucid', 'Arial', 'Helvetica', 'Avant Garde', sans-serif; text-anchor: middle" x="508.65338" y="522.732738" transform="rotate(-42.897196 508.65338 522.732738)">SUBv</text>
   </g>
   <g id="text_4">
    <text style="font: 10px 'DejaVu Sans', 'Bitstream Vera Sans', 'Computer Modern Sans Serif', 'Lucida Grande', 'Verdana', 'Geneva', 'Lucid', 'Arial', 'Helvetica', 'Avant Garde', sans-serif; text-anchor: middle" x="183.874447" y="563.471254" transform="rotate(-331.401869 183.874447 563.471254)">MEA</text>
   </g>
   <g id="text_5">
    <text style="font: 10px 'DejaVu Sans', 'Bitstream Vera Sans', 'Computer Modern Sans Serif', 'Lucida Grande', 'Verdana', 'Geneva', 'Lucid', 'Arial', 'Helvetica', 'Avant Garde', sans-serif; text-anchor: middle" x="44.410932" y="293.35153" transform="rotate(-84.953271 44.410932 293.35153)">BST</text>
   </g>
   <g id="text_6">
    <text style="font: 10px 'DejaVu Sans', 'Bitstream Vera Sans', 'Computer Modern Sans Serif', 'Lucida Grande', 'Verdana', 'Geneva', 'Lucid', 'Arial', 'Helvetica', 'Avant Garde', sans-serif; text-anchor: middle" x="165.815095" y="88.891215" transform="rotate(-33.64486 165.815095 88.891215)">IA</text>
   </g>
   <g id="text_7">
    <text style="font: 10px 'DejaVu Sans', 'Bitstream Vera Sans', 'Computer Modern Sans Serif', 'Lucida Grande', 'Verdana', 'Geneva', 'Lucid', 'Arial', 'Helvetica', 'Avant Garde', sans-serif; text-anchor: middle" x="197.25911" y="70.839439" transform="rotate(-26.074766 197.25911 70.839439)">PAR</text>
   </g>
   <g id="text_8">
    <text style="font: 10px 'DejaVu Sans', 'Bitstream Vera Sans', 'Computer Modern Sans Serif', 'Lucida Grande', 'Verdana', 'Geneva', 'Lucid', 'Arial', 'Helvetica', 'Avant Garde', sans-serif; text-anchor: middle" x="261.922" y="48.668562" transform="rotate(-11.775701 261.922 48.668562)">CEA</text>
   </g>
  </g>
 </g>
 <defs>
  <clipPath id="p9406574577">
   <path d="M 590.507598 317.509396 
C 590.507598 281.719666 583.457801 246.277946 569.761665 213.212547 
C 556.065528 180.147147 535.989406 150.101108 510.682245 124.793947 
C 485.375084 99.486786 455.329045 79.410664 422.263646 65.714527 
C 389.198246 52.018391 353.756526 44.968594 317.966796 44.968594 
C 282.177066 44.968594 246.735346 52.018391 213.669947 65.714527 
C 180.604547 79.410664 150.558508 99.486786 125.251347 124.793947 
C 99.944186 150.101108 79.868064 180.147147 66.171928 213.212547 
C 52.475791 246.277946 45.425994 281.719666 45.425994 317.509396 
C 45.425994 353.299126 52.475791 388.740846 66.171928 421.806246 
C 79.868064 454.871645 99.944186 484.917684 125.251347 510.224845 
C 150.558508 535.532006 180.604547 555.608128 213.669947 569.304265 
C 246.735346 583.000401 282.177066 590.050198 317.966796 590.050198 
C 353.756526 590.050198 389.198246 583.000401 422.263646 569.304265 
C 455.329045 555.608128 485.375084 535.532006 510.682245 510.224845 
C 535.989406 484.917684 556.065528 454.871645 569.761665 421.806246 
C 583.457801 388.740846 590.507598 353.299126 590.507598 317.509396 
M 317.966796 317.509396 
C 317.966796 317.509396 317.966796 317.509396 317.966796 317.509396 
C 317.966796 317.509396 317.966796 317.509396 317.966796 317.509396 
C 317.966796 317.509396 317.966796 317.509396 317.966796 317.509396 
C 317.966796 317.509396 317.966796 317.509396 317.966796 317.509396 
C 317.966796 317.509396 317.966796 317.509396 317.966796 317.509396 
C 317.966796 317.509396 317.966796 317.509396 317.966796 317.509396 
C 317.966796 317.509396 317.966796 317.509396 317.966796 317.509396 
C 317.966796 317.509396 317.966796 317.509396 317.966796 317.509396 
C 317.966796 317.509396 317.966796 317.509396 317.966796 317.509396 
C 317.966796 317.509396 317.966796 317.509396 317.966796 317.509396 
C 317.966796 317.509396 317.966796 317.509396 317.966796 317.509396 
C 317.966796 317.509396 317.966796 317.509396 317.966796 317.509396 
C 317.966796 317.509396 317.966796 317.509396 317.966796 317.509396 
C 317.966796 317.509396 317.966796 317.509396 317.966796 317.509396 
C 317.966796 317.509396 317.966796 317.509396 317.966796 317.509396 
C 317.966796 317.509396 317.966796 317.509396 317.966796 317.509396 
z
"/>
  </clipPath>
 </defs>
</svg>
