<?xml version="1.0" encoding="utf-8" standalone="no"?>
<!DOCTYPE svg PUBLIC "-//W3C//DTD SVG 1.1//EN"
  "http://www.w3.org/Graphics/SVG/1.1/DTD/svg11.dtd">
<svg xmlns:xlink="http://www.w3.org/1999/xlink" width="1800pt" height="1800pt" viewBox="0 0 1800 1800" xmlns="http://www.w3.org/2000/svg" version="1.1">
 <metadata>
  <rdf:RDF xmlns:dc="http://purl.org/dc/elements/1.1/" xmlns:cc="http://creativecommons.org/ns#" xmlns:rdf="http://www.w3.org/1999/02/22-rdf-syntax-ns#">
   <cc:Work>
    <dc:type rdf:resource="http://purl.org/dc/dcmitype/StillImage"/>
    <dc:date>2024-12-09T11:04:38.263375</dc:date>
    <dc:format>image/svg+xml</dc:format>
    <dc:creator>
     <cc:Agent>
      <dc:title>Matplotlib v3.9.3, https://matplotlib.org/</dc:title>
     </cc:Agent>
    </dc:creator>
   </cc:Work>
  </rdf:RDF>
 </metadata>
 <defs>
  <style type="text/css">*{stroke-linejoin: round; stroke-linecap: butt}</style>
 </defs>
 <g id="figure_1">
  <g id="patch_1">
   <path d="M 0 1800 
L 1800 1800 
L 1800 0 
L 0 0 
z
" style="fill: #ffffff"/>
  </g>
  <g id="patch_2">
   <path d="M 229.5 1602 
L 1615.5 1602 
L 1615.5 216 
L 229.5 216 
z
" style="fill: #ffffff"/>
  </g>
  <g id="pane3d_1">
   <g id="patch_3">
    <path d="M 334.152558 1260.256818 
L 791.855023 876.601536 
L 785.49252 323.302036 
L 305.886633 673.296568 
" style="fill: #f2f2f2; opacity: 0.5; stroke: #f2f2f2; stroke-linejoin: miter"/>
   </g>
  </g>
  <g id="pane3d_2">
   <g id="patch_4">
    <path d="M 791.855023 876.601536 
L 1526.30417 1090.076907 
L 1552.514071 517.71964 
L 785.49252 323.302036 
" style="fill: #e6e6e6; opacity: 0.5; stroke: #e6e6e6; stroke-linejoin: miter"/>
   </g>
  </g>
  <g id="pane3d_3">
   <g id="patch_5">
    <path d="M 334.152558 1260.256818 
L 1112.704526 1514.531889 
L 1526.30417 1090.076907 
L 791.855023 876.601536 
" style="fill: #ececec; opacity: 0.5; stroke: #ececec; stroke-linejoin: miter"/>
   </g>
  </g>
  <g id="grid3d_1">
   <g id="Line3DCollection_1">
    <path d="M 378.228491 1274.652017 
L 833.607697 888.73739 
L 829.010164 334.33249 
" style="fill: none; stroke: #cccccc"/>
    <path d="M 473.497852 1305.76699 
L 923.783957 914.948068 
L 923.033975 358.164785 
" style="fill: none; stroke: #cccccc"/>
    <path d="M 570.034357 1337.295813 
L 1015.060145 941.478453 
L 1018.25426 382.300352 
" style="fill: none; stroke: #cccccc"/>
    <path d="M 667.863458 1369.246797 
L 1107.456509 968.334428 
L 1114.694005 406.745016 
" style="fill: none; stroke: #cccccc"/>
    <path d="M 767.011289 1401.628478 
L 1200.993797 995.522025 
L 1212.376785 431.504753 
" style="fill: none; stroke: #cccccc"/>
    <path d="M 867.504698 1434.449625 
L 1295.693272 1023.047424 
L 1311.32679 456.585695 
" style="fill: none; stroke: #cccccc"/>
    <path d="M 969.371262 1467.719245 
L 1391.576731 1050.91696 
L 1411.56884 481.994133 
" style="fill: none; stroke: #cccccc"/>
    <path d="M 1072.639321 1501.446593 
L 1488.666517 1079.137127 
L 1513.128408 507.736523 
" style="fill: none; stroke: #cccccc"/>
   </g>
  </g>
  <g id="grid3d_2">
   <g id="Line3DCollection_2">
    <path d="M 318.500577 664.091486 
L 346.146 1250.203677 
L 1123.589009 1503.361731 
" style="fill: none; stroke: #cccccc"/>
    <path d="M 391.917379 610.515248 
L 415.998791 1191.651683 
L 1186.932828 1438.35539 
" style="fill: none; stroke: #cccccc"/>
    <path d="M 463.439866 558.321394 
L 484.127264 1134.545045 
L 1248.630714 1375.038181 
" style="fill: none; stroke: #cccccc"/>
    <path d="M 533.140421 507.457104 
L 550.59449 1078.830899 
L 1308.745996 1313.345113 
" style="fill: none; stroke: #cccccc"/>
    <path d="M 601.087785 457.872213 
L 615.460498 1024.458925 
L 1367.338795 1253.214487 
" style="fill: none; stroke: #cccccc"/>
    <path d="M 667.347283 409.519049 
L 678.78246 971.381201 
L 1424.466227 1194.587689 
" style="fill: none; stroke: #cccccc"/>
    <path d="M 731.981037 362.352279 
L 740.614858 919.552058 
L 1480.182583 1137.409001 
" style="fill: none; stroke: #cccccc"/>
   </g>
  </g>
  <g id="grid3d_3">
   <g id="Line3DCollection_3">
    <path d="M 1528.481319 1042.533537 
L 791.325492 830.552172 
L 331.808251 1211.575764 
" style="fill: none; stroke: #cccccc"/>
    <path d="M 1531.201926 983.122424 
L 790.664041 773.030714 
L 328.877837 1150.723824 
" style="fill: none; stroke: #cccccc"/>
    <path d="M 1533.947859 923.158271 
L 789.996727 714.99938 
L 325.919106 1089.28384 
" style="fill: none; stroke: #cccccc"/>
    <path d="M 1536.719472 862.633321 
L 789.323472 656.451361 
L 322.931643 1027.247248 
" style="fill: none; stroke: #cccccc"/>
    <path d="M 1539.517127 801.539669 
L 788.644195 597.379726 
L 319.91503 964.605316 
" style="fill: none; stroke: #cccccc"/>
    <path d="M 1542.341194 739.869262 
L 787.958816 537.777418 
L 316.868837 901.34914 
" style="fill: none; stroke: #cccccc"/>
    <path d="M 1545.192048 677.613895 
L 787.267252 477.637255 
L 313.792626 837.46964 
" style="fill: none; stroke: #cccccc"/>
    <path d="M 1548.070072 614.765204 
L 786.569419 416.951923 
L 310.685953 772.957559 
" style="fill: none; stroke: #cccccc"/>
    <path d="M 1550.975657 551.314668 
L 785.865232 355.713976 
L 307.548362 707.803452 
" style="fill: none; stroke: #cccccc"/>
   </g>
  </g>
  <g id="axis3d_1">
   <g id="line2d_1">
    <path d="M 334.152558 1260.256818 
L 1112.704526 1514.531889 
" style="fill: none; stroke: #cccccc; stroke-width: 1.25; stroke-linecap: round"/>
   </g>
   <g id="xtick_1">
    <g id="line2d_2">
     <path d="M 941.22973 890.27027 
" clip-path="url(#p4ae623a9d8)" style="fill: none; stroke: #cccccc; stroke-linecap: round"/>
    </g>
    <g id="line2d_3">
     <path d="M 382.193839 1271.291553 
L 370.280784 1281.387363 
" style="fill: none; stroke: #262626; stroke-width: 1.25; stroke-linecap: round"/>
    </g>
    <g id="text_1">
     <!-- −0.6 -->
     <g style="fill: #262626" transform="translate(357.692589 1299.759936) scale(0.132 -0.132)">
      <defs>
       <path id="ArialMT-2212" d="M 3381 1997 
L 356 1997 
L 356 2522 
L 3381 2522 
L 3381 1997 
z
" transform="scale(0.015625)"/>
       <path id="ArialMT-30" d="M 266 2259 
Q 266 3072 433 3567 
Q 600 4063 929 4331 
Q 1259 4600 1759 4600 
Q 2128 4600 2406 4451 
Q 2684 4303 2865 4023 
Q 3047 3744 3150 3342 
Q 3253 2941 3253 2259 
Q 3253 1453 3087 958 
Q 2922 463 2592 192 
Q 2263 -78 1759 -78 
Q 1097 -78 719 397 
Q 266 969 266 2259 
z
M 844 2259 
Q 844 1131 1108 757 
Q 1372 384 1759 384 
Q 2147 384 2411 759 
Q 2675 1134 2675 2259 
Q 2675 3391 2411 3762 
Q 2147 4134 1753 4134 
Q 1366 4134 1134 3806 
Q 844 3388 844 2259 
z
" transform="scale(0.015625)"/>
       <path id="ArialMT-2e" d="M 581 0 
L 581 641 
L 1222 641 
L 1222 0 
L 581 0 
z
" transform="scale(0.015625)"/>
       <path id="ArialMT-36" d="M 3184 3459 
L 2625 3416 
Q 2550 3747 2413 3897 
Q 2184 4138 1850 4138 
Q 1581 4138 1378 3988 
Q 1113 3794 959 3422 
Q 806 3050 800 2363 
Q 1003 2672 1297 2822 
Q 1591 2972 1913 2972 
Q 2475 2972 2870 2558 
Q 3266 2144 3266 1488 
Q 3266 1056 3080 686 
Q 2894 316 2569 119 
Q 2244 -78 1831 -78 
Q 1128 -78 684 439 
Q 241 956 241 2144 
Q 241 3472 731 4075 
Q 1159 4600 1884 4600 
Q 2425 4600 2770 4297 
Q 3116 3994 3184 3459 
z
M 888 1484 
Q 888 1194 1011 928 
Q 1134 663 1356 523 
Q 1578 384 1822 384 
Q 2178 384 2434 671 
Q 2691 959 2691 1453 
Q 2691 1928 2437 2201 
Q 2184 2475 1800 2475 
Q 1419 2475 1153 2201 
Q 888 1928 888 1484 
z
" transform="scale(0.015625)"/>
      </defs>
      <use xlink:href="#ArialMT-2212"/>
      <use xlink:href="#ArialMT-30" x="58.398438"/>
      <use xlink:href="#ArialMT-2e" x="114.013672"/>
      <use xlink:href="#ArialMT-36" x="141.796875"/>
     </g>
    </g>
   </g>
   <g id="xtick_2">
    <g id="line2d_4">
     <path d="M 941.22973 890.27027 
" clip-path="url(#p4ae623a9d8)" style="fill: none; stroke: #cccccc; stroke-linecap: round"/>
    </g>
    <g id="line2d_5">
     <path d="M 477.420954 1302.361994 
L 465.634705 1312.591688 
" style="fill: none; stroke: #262626; stroke-width: 1.25; stroke-linecap: round"/>
    </g>
    <g id="text_2">
     <!-- −0.4 -->
     <g style="fill: #262626" transform="translate(452.980544 1331.000719) scale(0.132 -0.132)">
      <defs>
       <path id="ArialMT-34" d="M 2069 0 
L 2069 1097 
L 81 1097 
L 81 1613 
L 2172 4581 
L 2631 4581 
L 2631 1613 
L 3250 1613 
L 3250 1097 
L 2631 1097 
L 2631 0 
L 2069 0 
z
M 2069 1613 
L 2069 3678 
L 634 1613 
L 2069 1613 
z
" transform="scale(0.015625)"/>
      </defs>
      <use xlink:href="#ArialMT-2212"/>
      <use xlink:href="#ArialMT-30" x="58.398438"/>
      <use xlink:href="#ArialMT-2e" x="114.013672"/>
      <use xlink:href="#ArialMT-34" x="141.796875"/>
     </g>
    </g>
   </g>
   <g id="xtick_3">
    <g id="line2d_6">
     <path d="M 941.22973 890.27027 
" clip-path="url(#p4ae623a9d8)" style="fill: none; stroke: #cccccc; stroke-linecap: round"/>
    </g>
    <g id="line2d_7">
     <path d="M 573.913736 1333.845394 
L 562.258735 1344.211651 
" style="fill: none; stroke: #262626; stroke-width: 1.25; stroke-linecap: round"/>
    </g>
    <g id="text_3">
     <!-- −0.2 -->
     <g style="fill: #262626" transform="translate(549.536805 1362.657324) scale(0.132 -0.132)">
      <defs>
       <path id="ArialMT-32" d="M 3222 541 
L 3222 0 
L 194 0 
Q 188 203 259 391 
Q 375 700 629 1000 
Q 884 1300 1366 1694 
Q 2113 2306 2375 2664 
Q 2638 3022 2638 3341 
Q 2638 3675 2398 3904 
Q 2159 4134 1775 4134 
Q 1369 4134 1125 3890 
Q 881 3647 878 3216 
L 300 3275 
Q 359 3922 746 4261 
Q 1134 4600 1788 4600 
Q 2447 4600 2831 4234 
Q 3216 3869 3216 3328 
Q 3216 3053 3103 2787 
Q 2991 2522 2730 2228 
Q 2469 1934 1863 1422 
Q 1356 997 1212 845 
Q 1069 694 975 541 
L 3222 541 
z
" transform="scale(0.015625)"/>
      </defs>
      <use xlink:href="#ArialMT-2212"/>
      <use xlink:href="#ArialMT-30" x="58.398438"/>
      <use xlink:href="#ArialMT-2e" x="114.013672"/>
      <use xlink:href="#ArialMT-32" x="141.796875"/>
     </g>
    </g>
   </g>
   <g id="xtick_4">
    <g id="line2d_8">
     <path d="M 941.22973 890.27027 
" clip-path="url(#p4ae623a9d8)" style="fill: none; stroke: #cccccc; stroke-linecap: round"/>
    </g>
    <g id="line2d_9">
     <path d="M 671.697587 1365.75004 
L 660.178418 1376.255614 
" style="fill: none; stroke: #262626; stroke-width: 1.25; stroke-linecap: round"/>
    </g>
    <g id="text_4">
     <!-- 0.0 -->
     <g style="fill: #262626" transform="translate(651.241677 1394.738109) scale(0.132 -0.132)">
      <use xlink:href="#ArialMT-30"/>
      <use xlink:href="#ArialMT-2e" x="55.615234"/>
      <use xlink:href="#ArialMT-30" x="83.398438"/>
     </g>
    </g>
   </g>
   <g id="xtick_5">
    <g id="line2d_10">
     <path d="M 941.22973 890.27027 
" clip-path="url(#p4ae623a9d8)" style="fill: none; stroke: #cccccc; stroke-linecap: round"/>
    </g>
    <g id="line2d_11">
     <path d="M 770.798594 1398.084444 
L 759.419993 1408.732162 
" style="fill: none; stroke: #262626; stroke-width: 1.25; stroke-linecap: round"/>
    </g>
    <g id="text_5">
     <!-- 0.2 -->
     <g style="fill: #262626" transform="translate(750.411713 1427.251658) scale(0.132 -0.132)">
      <use xlink:href="#ArialMT-30"/>
      <use xlink:href="#ArialMT-2e" x="55.615234"/>
      <use xlink:href="#ArialMT-32" x="83.398438"/>
     </g>
    </g>
   </g>
   <g id="xtick_6">
    <g id="line2d_12">
     <path d="M 941.22973 890.27027 
" clip-path="url(#p4ae623a9d8)" style="fill: none; stroke: #cccccc; stroke-linecap: round"/>
    </g>
    <g id="line2d_13">
     <path d="M 871.24355 1430.857348 
L 860.010408 1441.650115 
" style="fill: none; stroke: #262626; stroke-width: 1.25; stroke-linecap: round"/>
    </g>
    <g id="text_6">
     <!-- 0.4 -->
     <g style="fill: #262626" transform="translate(850.928618 1460.206786) scale(0.132 -0.132)">
      <use xlink:href="#ArialMT-30"/>
      <use xlink:href="#ArialMT-2e" x="55.615234"/>
      <use xlink:href="#ArialMT-34" x="83.398438"/>
     </g>
    </g>
   </g>
   <g id="xtick_7">
    <g id="line2d_14">
     <path d="M 941.22973 890.27027 
" clip-path="url(#p4ae623a9d8)" style="fill: none; stroke: #cccccc; stroke-linecap: round"/>
    </g>
    <g id="line2d_15">
     <path d="M 973.059981 1464.077733 
L 961.97735 1475.018533 
" style="fill: none; stroke: #262626; stroke-width: 1.25; stroke-linecap: round"/>
    </g>
    <g id="text_7">
     <!-- 0.6 -->
     <g style="fill: #262626" transform="translate(952.820016 1493.612551) scale(0.132 -0.132)">
      <use xlink:href="#ArialMT-30"/>
      <use xlink:href="#ArialMT-2e" x="55.615234"/>
      <use xlink:href="#ArialMT-36" x="83.398438"/>
     </g>
    </g>
   </g>
   <g id="xtick_8">
    <g id="line2d_16">
     <path d="M 941.22973 890.27027 
" clip-path="url(#p4ae623a9d8)" style="fill: none; stroke: #cccccc; stroke-linecap: round"/>
    </g>
    <g id="line2d_17">
     <path d="M 1076.276168 1497.754827 
L 1065.349271 1508.846727 
" style="fill: none; stroke: #262626; stroke-width: 1.25; stroke-linecap: round"/>
    </g>
    <g id="text_8">
     <!-- 0.8 -->
     <g style="fill: #262626" transform="translate(1056.114296 1527.47826) scale(0.132 -0.132)">
      <defs>
       <path id="ArialMT-38" d="M 1131 2484 
Q 781 2613 612 2850 
Q 444 3088 444 3419 
Q 444 3919 803 4259 
Q 1163 4600 1759 4600 
Q 2359 4600 2725 4251 
Q 3091 3903 3091 3403 
Q 3091 3084 2923 2848 
Q 2756 2613 2416 2484 
Q 2838 2347 3058 2040 
Q 3278 1734 3278 1309 
Q 3278 722 2862 322 
Q 2447 -78 1769 -78 
Q 1091 -78 675 323 
Q 259 725 259 1325 
Q 259 1772 486 2073 
Q 713 2375 1131 2484 
z
M 1019 3438 
Q 1019 3113 1228 2906 
Q 1438 2700 1772 2700 
Q 2097 2700 2305 2904 
Q 2513 3109 2513 3406 
Q 2513 3716 2298 3927 
Q 2084 4138 1766 4138 
Q 1444 4138 1231 3931 
Q 1019 3725 1019 3438 
z
M 838 1322 
Q 838 1081 952 856 
Q 1066 631 1291 507 
Q 1516 384 1775 384 
Q 2178 384 2440 643 
Q 2703 903 2703 1303 
Q 2703 1709 2433 1975 
Q 2163 2241 1756 2241 
Q 1359 2241 1098 1978 
Q 838 1716 838 1322 
z
" transform="scale(0.015625)"/>
      </defs>
      <use xlink:href="#ArialMT-30"/>
      <use xlink:href="#ArialMT-2e" x="55.615234"/>
      <use xlink:href="#ArialMT-38" x="83.398438"/>
     </g>
    </g>
   </g>
   <g id="text_9">
    <!-- Dimension 1 -->
    <g style="fill: #262626" transform="translate(657.788568 1410.194724) rotate(-341.912962) scale(0.144 -0.144)">
     <defs>
      <path id="ArialMT-44" d="M 494 0 
L 494 4581 
L 2072 4581 
Q 2606 4581 2888 4516 
Q 3281 4425 3559 4188 
Q 3922 3881 4101 3404 
Q 4281 2928 4281 2316 
Q 4281 1794 4159 1391 
Q 4038 988 3847 723 
Q 3656 459 3429 307 
Q 3203 156 2883 78 
Q 2563 0 2147 0 
L 494 0 
z
M 1100 541 
L 2078 541 
Q 2531 541 2789 625 
Q 3047 709 3200 863 
Q 3416 1078 3536 1442 
Q 3656 1806 3656 2325 
Q 3656 3044 3420 3430 
Q 3184 3816 2847 3947 
Q 2603 4041 2063 4041 
L 1100 4041 
L 1100 541 
z
" transform="scale(0.015625)"/>
      <path id="ArialMT-69" d="M 425 3934 
L 425 4581 
L 988 4581 
L 988 3934 
L 425 3934 
z
M 425 0 
L 425 3319 
L 988 3319 
L 988 0 
L 425 0 
z
" transform="scale(0.015625)"/>
      <path id="ArialMT-6d" d="M 422 0 
L 422 3319 
L 925 3319 
L 925 2853 
Q 1081 3097 1340 3245 
Q 1600 3394 1931 3394 
Q 2300 3394 2536 3241 
Q 2772 3088 2869 2813 
Q 3263 3394 3894 3394 
Q 4388 3394 4653 3120 
Q 4919 2847 4919 2278 
L 4919 0 
L 4359 0 
L 4359 2091 
Q 4359 2428 4304 2576 
Q 4250 2725 4106 2815 
Q 3963 2906 3769 2906 
Q 3419 2906 3187 2673 
Q 2956 2441 2956 1928 
L 2956 0 
L 2394 0 
L 2394 2156 
Q 2394 2531 2256 2718 
Q 2119 2906 1806 2906 
Q 1569 2906 1367 2781 
Q 1166 2656 1075 2415 
Q 984 2175 984 1722 
L 984 0 
L 422 0 
z
" transform="scale(0.015625)"/>
      <path id="ArialMT-65" d="M 2694 1069 
L 3275 997 
Q 3138 488 2766 206 
Q 2394 -75 1816 -75 
Q 1088 -75 661 373 
Q 234 822 234 1631 
Q 234 2469 665 2931 
Q 1097 3394 1784 3394 
Q 2450 3394 2872 2941 
Q 3294 2488 3294 1666 
Q 3294 1616 3291 1516 
L 816 1516 
Q 847 969 1125 678 
Q 1403 388 1819 388 
Q 2128 388 2347 550 
Q 2566 713 2694 1069 
z
M 847 1978 
L 2700 1978 
Q 2663 2397 2488 2606 
Q 2219 2931 1791 2931 
Q 1403 2931 1139 2672 
Q 875 2413 847 1978 
z
" transform="scale(0.015625)"/>
      <path id="ArialMT-6e" d="M 422 0 
L 422 3319 
L 928 3319 
L 928 2847 
Q 1294 3394 1984 3394 
Q 2284 3394 2536 3286 
Q 2788 3178 2913 3003 
Q 3038 2828 3088 2588 
Q 3119 2431 3119 2041 
L 3119 0 
L 2556 0 
L 2556 2019 
Q 2556 2363 2490 2533 
Q 2425 2703 2258 2804 
Q 2091 2906 1866 2906 
Q 1506 2906 1245 2678 
Q 984 2450 984 1813 
L 984 0 
L 422 0 
z
" transform="scale(0.015625)"/>
      <path id="ArialMT-73" d="M 197 991 
L 753 1078 
Q 800 744 1014 566 
Q 1228 388 1613 388 
Q 2000 388 2187 545 
Q 2375 703 2375 916 
Q 2375 1106 2209 1216 
Q 2094 1291 1634 1406 
Q 1016 1563 777 1677 
Q 538 1791 414 1992 
Q 291 2194 291 2438 
Q 291 2659 392 2848 
Q 494 3038 669 3163 
Q 800 3259 1026 3326 
Q 1253 3394 1513 3394 
Q 1903 3394 2198 3281 
Q 2494 3169 2634 2976 
Q 2775 2784 2828 2463 
L 2278 2388 
Q 2241 2644 2061 2787 
Q 1881 2931 1553 2931 
Q 1166 2931 1000 2803 
Q 834 2675 834 2503 
Q 834 2394 903 2306 
Q 972 2216 1119 2156 
Q 1203 2125 1616 2013 
Q 2213 1853 2448 1751 
Q 2684 1650 2818 1456 
Q 2953 1263 2953 975 
Q 2953 694 2789 445 
Q 2625 197 2315 61 
Q 2006 -75 1616 -75 
Q 969 -75 630 194 
Q 291 463 197 991 
z
" transform="scale(0.015625)"/>
      <path id="ArialMT-6f" d="M 213 1659 
Q 213 2581 725 3025 
Q 1153 3394 1769 3394 
Q 2453 3394 2887 2945 
Q 3322 2497 3322 1706 
Q 3322 1066 3130 698 
Q 2938 331 2570 128 
Q 2203 -75 1769 -75 
Q 1072 -75 642 372 
Q 213 819 213 1659 
z
M 791 1659 
Q 791 1022 1069 705 
Q 1347 388 1769 388 
Q 2188 388 2466 706 
Q 2744 1025 2744 1678 
Q 2744 2294 2464 2611 
Q 2184 2928 1769 2928 
Q 1347 2928 1069 2612 
Q 791 2297 791 1659 
z
" transform="scale(0.015625)"/>
      <path id="ArialMT-20" transform="scale(0.015625)"/>
      <path id="ArialMT-31" d="M 2384 0 
L 1822 0 
L 1822 3584 
Q 1619 3391 1289 3197 
Q 959 3003 697 2906 
L 697 3450 
Q 1169 3672 1522 3987 
Q 1875 4303 2022 4600 
L 2384 4600 
L 2384 0 
z
" transform="scale(0.015625)"/>
     </defs>
     <use xlink:href="#ArialMT-44"/>
     <use xlink:href="#ArialMT-69" x="72.216797"/>
     <use xlink:href="#ArialMT-6d" x="94.433594"/>
     <use xlink:href="#ArialMT-65" x="177.734375"/>
     <use xlink:href="#ArialMT-6e" x="233.349609"/>
     <use xlink:href="#ArialMT-73" x="288.964844"/>
     <use xlink:href="#ArialMT-69" x="338.964844"/>
     <use xlink:href="#ArialMT-6f" x="361.181641"/>
     <use xlink:href="#ArialMT-6e" x="416.796875"/>
     <use xlink:href="#ArialMT-20" x="472.412109"/>
     <use xlink:href="#ArialMT-31" x="500.195312"/>
    </g>
   </g>
  </g>
  <g id="axis3d_2">
   <g id="line2d_18">
    <path d="M 1526.30417 1090.076907 
L 1112.704526 1514.531889 
" style="fill: none; stroke: #cccccc; stroke-width: 1.25; stroke-linecap: round"/>
   </g>
   <g id="xtick_9">
    <g id="line2d_19">
     <path d="M 941.22973 890.27027 
" clip-path="url(#p4ae623a9d8)" style="fill: none; stroke: #cccccc; stroke-linecap: round"/>
    </g>
    <g id="line2d_20">
     <path d="M 1117.036246 1501.227961 
L 1136.711544 1507.634811 
" style="fill: none; stroke: #262626; stroke-width: 1.25; stroke-linecap: round"/>
    </g>
    <g id="text_10">
     <!-- −0.8 -->
     <g style="fill: #262626" transform="translate(1123.480181 1526.278575) scale(0.132 -0.132)">
      <use xlink:href="#ArialMT-2212"/>
      <use xlink:href="#ArialMT-30" x="58.398438"/>
      <use xlink:href="#ArialMT-2e" x="114.013672"/>
      <use xlink:href="#ArialMT-38" x="141.796875"/>
     </g>
    </g>
   </g>
   <g id="xtick_10">
    <g id="line2d_21">
     <path d="M 941.22973 890.27027 
" clip-path="url(#p4ae623a9d8)" style="fill: none; stroke: #cccccc; stroke-linecap: round"/>
    </g>
    <g id="line2d_22">
     <path d="M 1180.439275 1436.277412 
L 1199.936569 1442.516668 
" style="fill: none; stroke: #262626; stroke-width: 1.25; stroke-linecap: round"/>
    </g>
    <g id="text_11">
     <!-- −0.6 -->
     <g style="fill: #262626" transform="translate(1186.661123 1461.087527) scale(0.132 -0.132)">
      <use xlink:href="#ArialMT-2212"/>
      <use xlink:href="#ArialMT-30" x="58.398438"/>
      <use xlink:href="#ArialMT-2e" x="114.013672"/>
      <use xlink:href="#ArialMT-36" x="141.796875"/>
     </g>
    </g>
   </g>
   <g id="xtick_11">
    <g id="line2d_23">
     <path d="M 941.22973 890.27027 
" clip-path="url(#p4ae623a9d8)" style="fill: none; stroke: #cccccc; stroke-linecap: round"/>
    </g>
    <g id="line2d_24">
     <path d="M 1242.195525 1373.013836 
L 1261.517363 1379.09199 
" style="fill: none; stroke: #262626; stroke-width: 1.25; stroke-linecap: round"/>
    </g>
    <g id="text_12">
     <!-- −0.4 -->
     <g style="fill: #262626" transform="translate(1248.20018 1397.590602) scale(0.132 -0.132)">
      <use xlink:href="#ArialMT-2212"/>
      <use xlink:href="#ArialMT-30" x="58.398438"/>
      <use xlink:href="#ArialMT-2e" x="114.013672"/>
      <use xlink:href="#ArialMT-34" x="141.796875"/>
     </g>
    </g>
   </g>
   <g id="xtick_12">
    <g id="line2d_25">
     <path d="M 941.22973 890.27027 
" clip-path="url(#p4ae623a9d8)" style="fill: none; stroke: #cccccc; stroke-linecap: round"/>
    </g>
    <g id="line2d_26">
     <path d="M 1302.368331 1311.372351 
L 1321.517243 1317.295562 
" style="fill: none; stroke: #262626; stroke-width: 1.25; stroke-linecap: round"/>
    </g>
    <g id="text_13">
     <!-- −0.2 -->
     <g style="fill: #262626" transform="translate(1308.160532 1335.722608) scale(0.132 -0.132)">
      <use xlink:href="#ArialMT-2212"/>
      <use xlink:href="#ArialMT-30" x="58.398438"/>
      <use xlink:href="#ArialMT-2e" x="114.013672"/>
      <use xlink:href="#ArialMT-32" x="141.796875"/>
     </g>
    </g>
   </g>
   <g id="xtick_13">
    <g id="line2d_27">
     <path d="M 941.22973 890.27027 
" clip-path="url(#p4ae623a9d8)" style="fill: none; stroke: #cccccc; stroke-linecap: round"/>
    </g>
    <g id="line2d_28">
     <path d="M 1361.017824 1251.29136 
L 1379.996314 1257.06548 
" style="fill: none; stroke: #262626; stroke-width: 1.25; stroke-linecap: round"/>
    </g>
    <g id="text_14">
     <!-- 0.0 -->
     <g style="fill: #262626" transform="translate(1370.456972 1275.421657) scale(0.132 -0.132)">
      <use xlink:href="#ArialMT-30"/>
      <use xlink:href="#ArialMT-2e" x="55.615234"/>
      <use xlink:href="#ArialMT-30" x="83.398438"/>
     </g>
    </g>
   </g>
   <g id="xtick_14">
    <g id="line2d_29">
     <path d="M 941.22973 890.27027 
" clip-path="url(#p4ae623a9d8)" style="fill: none; stroke: #cccccc; stroke-linecap: round"/>
    </g>
    <g id="line2d_30">
     <path d="M 1418.201125 1192.712348 
L 1437.011676 1198.342934 
" style="fill: none; stroke: #262626; stroke-width: 1.25; stroke-linecap: round"/>
    </g>
    <g id="text_15">
     <!-- 0.2 -->
     <g style="fill: #262626" transform="translate(1427.436854 1216.628958) scale(0.132 -0.132)">
      <use xlink:href="#ArialMT-30"/>
      <use xlink:href="#ArialMT-2e" x="55.615234"/>
      <use xlink:href="#ArialMT-32" x="83.398438"/>
     </g>
    </g>
   </g>
   <g id="xtick_15">
    <g id="line2d_31">
     <path d="M 941.22973 890.27027 
" clip-path="url(#p4ae623a9d8)" style="fill: none; stroke: #cccccc; stroke-linecap: round"/>
    </g>
    <g id="line2d_32">
     <path d="M 1473.972536 1135.579686 
L 1492.617602 1141.072026 
" style="fill: none; stroke: #262626; stroke-width: 1.25; stroke-linecap: round"/>
    </g>
    <g id="text_16">
     <!-- 0.4 -->
     <g style="fill: #262626" transform="translate(1483.009155 1159.288621) scale(0.132 -0.132)">
      <use xlink:href="#ArialMT-30"/>
      <use xlink:href="#ArialMT-2e" x="55.615234"/>
      <use xlink:href="#ArialMT-34" x="83.398438"/>
     </g>
    </g>
   </g>
   <g id="text_17">
    <!-- Dimension 2 -->
    <g style="fill: #262626" transform="translate(1330.449724 1352.038953) rotate(-45.742112) scale(0.144 -0.144)">
     <use xlink:href="#ArialMT-44"/>
     <use xlink:href="#ArialMT-69" x="72.216797"/>
     <use xlink:href="#ArialMT-6d" x="94.433594"/>
     <use xlink:href="#ArialMT-65" x="177.734375"/>
     <use xlink:href="#ArialMT-6e" x="233.349609"/>
     <use xlink:href="#ArialMT-73" x="288.964844"/>
     <use xlink:href="#ArialMT-69" x="338.964844"/>
     <use xlink:href="#ArialMT-6f" x="361.181641"/>
     <use xlink:href="#ArialMT-6e" x="416.796875"/>
     <use xlink:href="#ArialMT-20" x="472.412109"/>
     <use xlink:href="#ArialMT-32" x="500.195312"/>
    </g>
   </g>
  </g>
  <g id="axis3d_3">
   <g id="line2d_33">
    <path d="M 1526.30417 1090.076907 
L 1552.514071 517.71964 
" style="fill: none; stroke: #cccccc; stroke-width: 1.25; stroke-linecap: round"/>
   </g>
   <g id="xtick_16">
    <g id="line2d_34">
     <path d="M 941.22973 890.27027 
" style="fill: none; stroke: #cccccc; stroke-linecap: round"/>
    </g>
    <g id="line2d_35">
     <path d="M 1522.293474 1040.75412 
L 1540.87178 1046.096619 
" style="fill: none; stroke: #262626; stroke-width: 1.25; stroke-linecap: round"/>
    </g>
    <g id="text_18">
     <!-- −0.6 -->
     <g style="fill: #262626" transform="translate(1533.812231 1049.388352) scale(0.132 -0.132)">
      <use xlink:href="#ArialMT-2212"/>
      <use xlink:href="#ArialMT-30" x="58.398438"/>
      <use xlink:href="#ArialMT-2e" x="114.013672"/>
      <use xlink:href="#ArialMT-36" x="141.796875"/>
     </g>
    </g>
   </g>
   <g id="xtick_17">
    <g id="line2d_36">
     <path d="M 941.22973 890.27027 
" style="fill: none; stroke: #cccccc; stroke-linecap: round"/>
    </g>
    <g id="line2d_37">
     <path d="M 1524.984339 981.358485 
L 1543.65201 986.654531 
" style="fill: none; stroke: #262626; stroke-width: 1.25; stroke-linecap: round"/>
    </g>
    <g id="text_19">
     <!-- −0.4 -->
     <g style="fill: #262626" transform="translate(1536.616263 989.999801) scale(0.132 -0.132)">
      <use xlink:href="#ArialMT-2212"/>
      <use xlink:href="#ArialMT-30" x="58.398438"/>
      <use xlink:href="#ArialMT-2e" x="114.013672"/>
      <use xlink:href="#ArialMT-34" x="141.796875"/>
     </g>
    </g>
   </g>
   <g id="xtick_18">
    <g id="line2d_38">
     <path d="M 941.22973 890.27027 
" style="fill: none; stroke: #cccccc; stroke-linecap: round"/>
    </g>
    <g id="line2d_39">
     <path d="M 1527.700244 921.410177 
L 1546.458142 926.658671 
" style="fill: none; stroke: #262626; stroke-width: 1.25; stroke-linecap: round"/>
    </g>
    <g id="text_20">
     <!-- −0.2 -->
     <g style="fill: #262626" transform="translate(1539.446381 930.058743) scale(0.132 -0.132)">
      <use xlink:href="#ArialMT-2212"/>
      <use xlink:href="#ArialMT-30" x="58.398438"/>
      <use xlink:href="#ArialMT-2e" x="114.013672"/>
      <use xlink:href="#ArialMT-32" x="141.796875"/>
     </g>
    </g>
   </g>
   <g id="xtick_19">
    <g id="line2d_40">
     <path d="M 941.22973 890.27027 
" style="fill: none; stroke: #cccccc; stroke-linecap: round"/>
    </g>
    <g id="line2d_41">
     <path d="M 1530.441537 860.901445 
L 1549.290538 866.101264 
" style="fill: none; stroke: #262626; stroke-width: 1.25; stroke-linecap: round"/>
    </g>
    <g id="text_21">
     <!-- 0.0 -->
     <g style="fill: #262626" transform="translate(1546.157764 869.557434) scale(0.132 -0.132)">
      <use xlink:href="#ArialMT-30"/>
      <use xlink:href="#ArialMT-2e" x="55.615234"/>
      <use xlink:href="#ArialMT-30" x="83.398438"/>
     </g>
    </g>
   </g>
   <g id="xtick_20">
    <g id="line2d_42">
     <path d="M 941.22973 890.27027 
" style="fill: none; stroke: #cccccc; stroke-linecap: round"/>
    </g>
    <g id="line2d_43">
     <path d="M 1533.208578 799.824395 
L 1552.14957 804.97439 
" style="fill: none; stroke: #262626; stroke-width: 1.25; stroke-linecap: round"/>
    </g>
    <g id="text_22">
     <!-- 0.2 -->
     <g style="fill: #262626" transform="translate(1549.041159 808.48798) scale(0.132 -0.132)">
      <use xlink:href="#ArialMT-30"/>
      <use xlink:href="#ArialMT-2e" x="55.615234"/>
      <use xlink:href="#ArialMT-32" x="83.398438"/>
     </g>
    </g>
   </g>
   <g id="xtick_21">
    <g id="line2d_44">
     <path d="M 941.22973 890.27027 
" style="fill: none; stroke: #cccccc; stroke-linecap: round"/>
    </g>
    <g id="line2d_45">
     <path d="M 1536.00173 738.170981 
L 1555.035614 743.269976 
" style="fill: none; stroke: #262626; stroke-width: 1.25; stroke-linecap: round"/>
    </g>
    <g id="text_23">
     <!-- 0.4 -->
     <g style="fill: #262626" transform="translate(1551.951759 746.842342) scale(0.132 -0.132)">
      <use xlink:href="#ArialMT-30"/>
      <use xlink:href="#ArialMT-2e" x="55.615234"/>
      <use xlink:href="#ArialMT-34" x="83.398438"/>
     </g>
    </g>
   </g>
   <g id="xtick_22">
    <g id="line2d_46">
     <path d="M 941.22973 890.27027 
" style="fill: none; stroke: #cccccc; stroke-linecap: round"/>
    </g>
    <g id="line2d_47">
     <path d="M 1538.821366 675.933006 
L 1557.949055 680.979801 
" style="fill: none; stroke: #262626; stroke-width: 1.25; stroke-linecap: round"/>
    </g>
    <g id="text_24">
     <!-- 0.6 -->
     <g style="fill: #262626" transform="translate(1554.88995 684.612327) scale(0.132 -0.132)">
      <use xlink:href="#ArialMT-30"/>
      <use xlink:href="#ArialMT-2e" x="55.615234"/>
      <use xlink:href="#ArialMT-36" x="83.398438"/>
     </g>
    </g>
   </g>
   <g id="xtick_23">
    <g id="line2d_48">
     <path d="M 941.22973 890.27027 
" style="fill: none; stroke: #cccccc; stroke-linecap: round"/>
    </g>
    <g id="line2d_49">
     <path d="M 1541.667863 613.102117 
L 1560.890286 618.095482 
" style="fill: none; stroke: #262626; stroke-width: 1.25; stroke-linecap: round"/>
    </g>
    <g id="text_25">
     <!-- 0.8 -->
     <g style="fill: #262626" transform="translate(1557.856127 621.789584) scale(0.132 -0.132)">
      <use xlink:href="#ArialMT-30"/>
      <use xlink:href="#ArialMT-2e" x="55.615234"/>
      <use xlink:href="#ArialMT-38" x="83.398438"/>
     </g>
    </g>
   </g>
   <g id="xtick_24">
    <g id="line2d_50">
     <path d="M 941.22973 890.27027 
" style="fill: none; stroke: #cccccc; stroke-linecap: round"/>
    </g>
    <g id="line2d_51">
     <path d="M 1544.541607 549.669801 
L 1563.859706 554.608479 
" style="fill: none; stroke: #262626; stroke-width: 1.25; stroke-linecap: round"/>
    </g>
    <g id="text_26">
     <!-- 1.0 -->
     <g style="fill: #262626" transform="translate(1560.850691 558.365607) scale(0.132 -0.132)">
      <use xlink:href="#ArialMT-31"/>
      <use xlink:href="#ArialMT-2e" x="55.615234"/>
      <use xlink:href="#ArialMT-30" x="83.398438"/>
     </g>
    </g>
   </g>
   <g id="text_27">
    <!-- Dimension 3 -->
    <g style="fill: #262626" transform="translate(1581.603674 844.874049) rotate(-87.378092) scale(0.144 -0.144)">
     <defs>
      <path id="ArialMT-33" d="M 269 1209 
L 831 1284 
Q 928 806 1161 595 
Q 1394 384 1728 384 
Q 2125 384 2398 659 
Q 2672 934 2672 1341 
Q 2672 1728 2419 1979 
Q 2166 2231 1775 2231 
Q 1616 2231 1378 2169 
L 1441 2663 
Q 1497 2656 1531 2656 
Q 1891 2656 2178 2843 
Q 2466 3031 2466 3422 
Q 2466 3731 2256 3934 
Q 2047 4138 1716 4138 
Q 1388 4138 1169 3931 
Q 950 3725 888 3313 
L 325 3413 
Q 428 3978 793 4289 
Q 1159 4600 1703 4600 
Q 2078 4600 2393 4439 
Q 2709 4278 2876 4000 
Q 3044 3722 3044 3409 
Q 3044 3113 2884 2869 
Q 2725 2625 2413 2481 
Q 2819 2388 3044 2092 
Q 3269 1797 3269 1353 
Q 3269 753 2831 336 
Q 2394 -81 1725 -81 
Q 1122 -81 723 278 
Q 325 638 269 1209 
z
" transform="scale(0.015625)"/>
     </defs>
     <use xlink:href="#ArialMT-44"/>
     <use xlink:href="#ArialMT-69" x="72.216797"/>
     <use xlink:href="#ArialMT-6d" x="94.433594"/>
     <use xlink:href="#ArialMT-65" x="177.734375"/>
     <use xlink:href="#ArialMT-6e" x="233.349609"/>
     <use xlink:href="#ArialMT-73" x="288.964844"/>
     <use xlink:href="#ArialMT-69" x="338.964844"/>
     <use xlink:href="#ArialMT-6f" x="361.181641"/>
     <use xlink:href="#ArialMT-6e" x="416.796875"/>
     <use xlink:href="#ArialMT-20" x="472.412109"/>
     <use xlink:href="#ArialMT-33" x="500.195312"/>
    </g>
   </g>
  </g>
  <g id="axes_1">
   <g id="Path3DCollection_1">
    <defs>
     <path id="C0_0_b71687fcba" d="M 0 5 
C 1.326016 5 2.597899 4.473168 3.535534 3.535534 
C 4.473168 2.597899 5 1.326016 5 -0 
C 5 -1.326016 4.473168 -2.597899 3.535534 -3.535534 
C 2.597899 -4.473168 1.326016 -5 0 -5 
C -1.326016 -5 -2.597899 -4.473168 -3.535534 -3.535534 
C -4.473168 -2.597899 -5 -1.326016 -5 0 
C -5 1.326016 -4.473168 2.597899 -3.535534 3.535534 
C -2.597899 4.473168 -1.326016 5 0 5 
z
"/>
    </defs>
    <g clip-path="url(#p4ae623a9d8)">
     <use xlink:href="#C0_0_b71687fcba" x="877.369642" y="860.13575" style="fill: #800000; fill-opacity: 0.3; stroke: #800000; stroke-opacity: 0.3"/>
    </g>
    <g clip-path="url(#p4ae623a9d8)">
     <use xlink:href="#C0_0_b71687fcba" x="865.664753" y="846.488205" style="fill: #800000; stroke: #800000"/>
    </g>
   </g>
   <g id="Path3DCollection_2">
    <defs>
     <path id="C1_0_e5503a6ff8" d="M 0 5 
C 1.326016 5 2.597899 4.473168 3.535534 3.535534 
C 4.473168 2.597899 5 1.326016 5 -0 
C 5 -1.326016 4.473168 -2.597899 3.535534 -3.535534 
C 2.597899 -4.473168 1.326016 -5 0 -5 
C -1.326016 -5 -2.597899 -4.473168 -3.535534 -3.535534 
C -4.473168 -2.597899 -5 -1.326016 -5 0 
C -5 1.326016 -4.473168 2.597899 -3.535534 3.535534 
C -2.597899 4.473168 -1.326016 5 0 5 
z
"/>
    </defs>
    <g clip-path="url(#p4ae623a9d8)">
     <use xlink:href="#C1_0_e5503a6ff8" x="812.132528" y="627.531264" style="fill: #0000ff; fill-opacity: 0.3; stroke: #0000ff; stroke-opacity: 0.3"/>
    </g>
    <g clip-path="url(#p4ae623a9d8)">
     <use xlink:href="#C1_0_e5503a6ff8" x="786.318575" y="699.966902" style="fill: #0000ff; fill-opacity: 0.323158; stroke: #0000ff; stroke-opacity: 0.323158"/>
    </g>
    <g clip-path="url(#p4ae623a9d8)">
     <use xlink:href="#C1_0_e5503a6ff8" x="785.294974" y="661.106195" style="fill: #0000ff; fill-opacity: 0.341039; stroke: #0000ff; stroke-opacity: 0.341039"/>
    </g>
    <g clip-path="url(#p4ae623a9d8)">
     <use xlink:href="#C1_0_e5503a6ff8" x="813.532755" y="757.421946" style="fill: #0000ff; fill-opacity: 0.392372; stroke: #0000ff; stroke-opacity: 0.392372"/>
    </g>
    <g clip-path="url(#p4ae623a9d8)">
     <use xlink:href="#C1_0_e5503a6ff8" x="778.088257" y="705.403202" style="fill: #0000ff; fill-opacity: 0.426179; stroke: #0000ff; stroke-opacity: 0.426179"/>
    </g>
    <g clip-path="url(#p4ae623a9d8)">
     <use xlink:href="#C1_0_e5503a6ff8" x="778.088257" y="705.403202" style="fill: #0000ff; fill-opacity: 0.426179; stroke: #0000ff; stroke-opacity: 0.426179"/>
    </g>
    <g clip-path="url(#p4ae623a9d8)">
     <use xlink:href="#C1_0_e5503a6ff8" x="812.026973" y="633.493081" style="fill: #0000ff; fill-opacity: 0.553075; stroke: #0000ff; stroke-opacity: 0.553075"/>
    </g>
    <g clip-path="url(#p4ae623a9d8)">
     <use xlink:href="#C1_0_e5503a6ff8" x="812.026973" y="633.493081" style="fill: #0000ff; fill-opacity: 0.553075; stroke: #0000ff; stroke-opacity: 0.553075"/>
    </g>
    <g clip-path="url(#p4ae623a9d8)">
     <use xlink:href="#C1_0_e5503a6ff8" x="812.026973" y="633.493081" style="fill: #0000ff; fill-opacity: 0.553075; stroke: #0000ff; stroke-opacity: 0.553075"/>
    </g>
    <g clip-path="url(#p4ae623a9d8)">
     <use xlink:href="#C1_0_e5503a6ff8" x="946.351902" y="546.996161" style="fill: #0000ff; fill-opacity: 0.934645; stroke: #0000ff; stroke-opacity: 0.934645"/>
    </g>
    <g clip-path="url(#p4ae623a9d8)">
     <use xlink:href="#C1_0_e5503a6ff8" x="854.244355" y="579.712318" style="fill: #0000ff; stroke: #0000ff"/>
    </g>
   </g>
   <g id="text_28">
    <!-- MS -->
    <g style="fill: #262626" transform="translate(1033.214886 664.605179) scale(0.12 -0.12)">
     <defs>
      <path id="ArialMT-4d" d="M 475 0 
L 475 4581 
L 1388 4581 
L 2472 1338 
Q 2622 884 2691 659 
Q 2769 909 2934 1394 
L 4031 4581 
L 4847 4581 
L 4847 0 
L 4263 0 
L 4263 3834 
L 2931 0 
L 2384 0 
L 1059 3900 
L 1059 0 
L 475 0 
z
" transform="scale(0.015625)"/>
      <path id="ArialMT-53" d="M 288 1472 
L 859 1522 
Q 900 1178 1048 958 
Q 1197 738 1509 602 
Q 1822 466 2213 466 
Q 2559 466 2825 569 
Q 3091 672 3220 851 
Q 3350 1031 3350 1244 
Q 3350 1459 3225 1620 
Q 3100 1781 2813 1891 
Q 2628 1963 1997 2114 
Q 1366 2266 1113 2400 
Q 784 2572 623 2826 
Q 463 3081 463 3397 
Q 463 3744 659 4045 
Q 856 4347 1234 4503 
Q 1613 4659 2075 4659 
Q 2584 4659 2973 4495 
Q 3363 4331 3572 4012 
Q 3781 3694 3797 3291 
L 3216 3247 
Q 3169 3681 2898 3903 
Q 2628 4125 2100 4125 
Q 1550 4125 1298 3923 
Q 1047 3722 1047 3438 
Q 1047 3191 1225 3031 
Q 1400 2872 2139 2705 
Q 2878 2538 3153 2413 
Q 3553 2228 3743 1945 
Q 3934 1663 3934 1294 
Q 3934 928 3725 604 
Q 3516 281 3123 101 
Q 2731 -78 2241 -78 
Q 1619 -78 1198 103 
Q 778 284 539 648 
Q 300 1013 288 1472 
z
" transform="scale(0.015625)"/>
     </defs>
     <use xlink:href="#ArialMT-4d"/>
     <use xlink:href="#ArialMT-53" x="83.300781"/>
    </g>
   </g>
   <g id="text_29">
    <!-- NDB -->
    <g style="fill: #262626" transform="translate(950.014295 1167.476272) scale(0.12 -0.12)">
     <defs>
      <path id="ArialMT-4e" d="M 488 0 
L 488 4581 
L 1109 4581 
L 3516 984 
L 3516 4581 
L 4097 4581 
L 4097 0 
L 3475 0 
L 1069 3600 
L 1069 0 
L 488 0 
z
" transform="scale(0.015625)"/>
      <path id="ArialMT-42" d="M 469 0 
L 469 4581 
L 2188 4581 
Q 2713 4581 3030 4442 
Q 3347 4303 3526 4014 
Q 3706 3725 3706 3409 
Q 3706 3116 3547 2856 
Q 3388 2597 3066 2438 
Q 3481 2316 3704 2022 
Q 3928 1728 3928 1328 
Q 3928 1006 3792 729 
Q 3656 453 3456 303 
Q 3256 153 2954 76 
Q 2653 0 2216 0 
L 469 0 
z
M 1075 2656 
L 2066 2656 
Q 2469 2656 2644 2709 
Q 2875 2778 2992 2937 
Q 3109 3097 3109 3338 
Q 3109 3566 3000 3739 
Q 2891 3913 2687 3977 
Q 2484 4041 1991 4041 
L 1075 4041 
L 1075 2656 
z
M 1075 541 
L 2216 541 
Q 2509 541 2628 563 
Q 2838 600 2978 687 
Q 3119 775 3209 942 
Q 3300 1109 3300 1328 
Q 3300 1584 3169 1773 
Q 3038 1963 2805 2039 
Q 2572 2116 2134 2116 
L 1075 2116 
L 1075 541 
z
" transform="scale(0.015625)"/>
     </defs>
     <use xlink:href="#ArialMT-4e"/>
     <use xlink:href="#ArialMT-44" x="72.216797"/>
     <use xlink:href="#ArialMT-42" x="144.433594"/>
    </g>
   </g>
   <g id="text_30">
    <!-- LSr.m.v -->
    <g style="fill: #262626" transform="translate(778.088257 705.403202) scale(0.12 -0.12)">
     <defs>
      <path id="ArialMT-4c" d="M 469 0 
L 469 4581 
L 1075 4581 
L 1075 541 
L 3331 541 
L 3331 0 
L 469 0 
z
" transform="scale(0.015625)"/>
      <path id="ArialMT-72" d="M 416 0 
L 416 3319 
L 922 3319 
L 922 2816 
Q 1116 3169 1280 3281 
Q 1444 3394 1641 3394 
Q 1925 3394 2219 3213 
L 2025 2691 
Q 1819 2813 1613 2813 
Q 1428 2813 1281 2702 
Q 1134 2591 1072 2394 
Q 978 2094 978 1738 
L 978 0 
L 416 0 
z
" transform="scale(0.015625)"/>
      <path id="ArialMT-76" d="M 1344 0 
L 81 3319 
L 675 3319 
L 1388 1331 
Q 1503 1009 1600 663 
Q 1675 925 1809 1294 
L 2547 3319 
L 3125 3319 
L 1869 0 
L 1344 0 
z
" transform="scale(0.015625)"/>
     </defs>
     <use xlink:href="#ArialMT-4c"/>
     <use xlink:href="#ArialMT-53" x="55.615234"/>
     <use xlink:href="#ArialMT-72" x="122.314453"/>
     <use xlink:href="#ArialMT-2e" x="150.115234"/>
     <use xlink:href="#ArialMT-6d" x="177.898438"/>
     <use xlink:href="#ArialMT-2e" x="261.199219"/>
     <use xlink:href="#ArialMT-76" x="288.982422"/>
    </g>
   </g>
   <g id="text_31">
    <!-- LSr.m.d -->
    <g style="fill: #262626" transform="translate(864.752357 663.64521) scale(0.12 -0.12)">
     <defs>
      <path id="ArialMT-64" d="M 2575 0 
L 2575 419 
Q 2259 -75 1647 -75 
Q 1250 -75 917 144 
Q 584 363 401 755 
Q 219 1147 219 1656 
Q 219 2153 384 2558 
Q 550 2963 881 3178 
Q 1213 3394 1622 3394 
Q 1922 3394 2156 3267 
Q 2391 3141 2538 2938 
L 2538 4581 
L 3097 4581 
L 3097 0 
L 2575 0 
z
M 797 1656 
Q 797 1019 1065 703 
Q 1334 388 1700 388 
Q 2069 388 2326 689 
Q 2584 991 2584 1609 
Q 2584 2291 2321 2609 
Q 2059 2928 1675 2928 
Q 1300 2928 1048 2622 
Q 797 2316 797 1656 
z
" transform="scale(0.015625)"/>
     </defs>
     <use xlink:href="#ArialMT-4c"/>
     <use xlink:href="#ArialMT-53" x="55.615234"/>
     <use xlink:href="#ArialMT-72" x="122.314453"/>
     <use xlink:href="#ArialMT-2e" x="150.115234"/>
     <use xlink:href="#ArialMT-6d" x="177.898438"/>
     <use xlink:href="#ArialMT-2e" x="261.199219"/>
     <use xlink:href="#ArialMT-64" x="288.982422"/>
    </g>
   </g>
   <g id="text_32">
    <!-- MEAad -->
    <g style="fill: #262626" transform="translate(865.664753 846.488205) scale(0.12 -0.12)">
     <defs>
      <path id="ArialMT-45" d="M 506 0 
L 506 4581 
L 3819 4581 
L 3819 4041 
L 1113 4041 
L 1113 2638 
L 3647 2638 
L 3647 2100 
L 1113 2100 
L 1113 541 
L 3925 541 
L 3925 0 
L 506 0 
z
" transform="scale(0.015625)"/>
      <path id="ArialMT-41" d="M -9 0 
L 1750 4581 
L 2403 4581 
L 4278 0 
L 3588 0 
L 3053 1388 
L 1138 1388 
L 634 0 
L -9 0 
z
M 1313 1881 
L 2866 1881 
L 2388 3150 
Q 2169 3728 2063 4100 
Q 1975 3659 1816 3225 
L 1313 1881 
z
" transform="scale(0.015625)"/>
      <path id="ArialMT-61" d="M 2588 409 
Q 2275 144 1986 34 
Q 1697 -75 1366 -75 
Q 819 -75 525 192 
Q 231 459 231 875 
Q 231 1119 342 1320 
Q 453 1522 633 1644 
Q 813 1766 1038 1828 
Q 1203 1872 1538 1913 
Q 2219 1994 2541 2106 
Q 2544 2222 2544 2253 
Q 2544 2597 2384 2738 
Q 2169 2928 1744 2928 
Q 1347 2928 1158 2789 
Q 969 2650 878 2297 
L 328 2372 
Q 403 2725 575 2942 
Q 747 3159 1072 3276 
Q 1397 3394 1825 3394 
Q 2250 3394 2515 3294 
Q 2781 3194 2906 3042 
Q 3031 2891 3081 2659 
Q 3109 2516 3109 2141 
L 3109 1391 
Q 3109 606 3145 398 
Q 3181 191 3288 0 
L 2700 0 
Q 2613 175 2588 409 
z
M 2541 1666 
Q 2234 1541 1622 1453 
Q 1275 1403 1131 1340 
Q 988 1278 909 1158 
Q 831 1038 831 891 
Q 831 666 1001 516 
Q 1172 366 1500 366 
Q 1825 366 2078 508 
Q 2331 650 2450 897 
Q 2541 1088 2541 1459 
L 2541 1666 
z
" transform="scale(0.015625)"/>
     </defs>
     <use xlink:href="#ArialMT-4d"/>
     <use xlink:href="#ArialMT-45" x="83.300781"/>
     <use xlink:href="#ArialMT-41" x="150"/>
     <use xlink:href="#ArialMT-61" x="216.699219"/>
     <use xlink:href="#ArialMT-64" x="272.314453"/>
    </g>
   </g>
   <g id="text_33">
    <!-- MEApv -->
    <g style="fill: #262626" transform="translate(877.369642 860.13575) scale(0.12 -0.12)">
     <defs>
      <path id="ArialMT-70" d="M 422 -1272 
L 422 3319 
L 934 3319 
L 934 2888 
Q 1116 3141 1344 3267 
Q 1572 3394 1897 3394 
Q 2322 3394 2647 3175 
Q 2972 2956 3137 2557 
Q 3303 2159 3303 1684 
Q 3303 1175 3120 767 
Q 2938 359 2589 142 
Q 2241 -75 1856 -75 
Q 1575 -75 1351 44 
Q 1128 163 984 344 
L 984 -1272 
L 422 -1272 
z
M 931 1641 
Q 931 1000 1190 694 
Q 1450 388 1819 388 
Q 2194 388 2461 705 
Q 2728 1022 2728 1688 
Q 2728 2322 2467 2637 
Q 2206 2953 1844 2953 
Q 1484 2953 1207 2617 
Q 931 2281 931 1641 
z
" transform="scale(0.015625)"/>
     </defs>
     <use xlink:href="#ArialMT-4d"/>
     <use xlink:href="#ArialMT-45" x="83.300781"/>
     <use xlink:href="#ArialMT-41" x="150"/>
     <use xlink:href="#ArialMT-70" x="216.699219"/>
     <use xlink:href="#ArialMT-76" x="272.314453"/>
    </g>
   </g>
   <g id="text_34">
    <!-- COApm -->
    <g style="fill: #262626" transform="translate(773.561738 781.805085) scale(0.12 -0.12)">
     <defs>
      <path id="ArialMT-43" d="M 3763 1606 
L 4369 1453 
Q 4178 706 3683 314 
Q 3188 -78 2472 -78 
Q 1731 -78 1267 223 
Q 803 525 561 1097 
Q 319 1669 319 2325 
Q 319 3041 592 3573 
Q 866 4106 1370 4382 
Q 1875 4659 2481 4659 
Q 3169 4659 3637 4309 
Q 4106 3959 4291 3325 
L 3694 3184 
Q 3534 3684 3231 3912 
Q 2928 4141 2469 4141 
Q 1941 4141 1586 3887 
Q 1231 3634 1087 3207 
Q 944 2781 944 2328 
Q 944 1744 1114 1308 
Q 1284 872 1643 656 
Q 2003 441 2422 441 
Q 2931 441 3284 734 
Q 3638 1028 3763 1606 
z
" transform="scale(0.015625)"/>
      <path id="ArialMT-4f" d="M 309 2231 
Q 309 3372 921 4017 
Q 1534 4663 2503 4663 
Q 3138 4663 3647 4359 
Q 4156 4056 4423 3514 
Q 4691 2972 4691 2284 
Q 4691 1588 4409 1038 
Q 4128 488 3612 205 
Q 3097 -78 2500 -78 
Q 1853 -78 1343 234 
Q 834 547 571 1087 
Q 309 1628 309 2231 
z
M 934 2222 
Q 934 1394 1379 917 
Q 1825 441 2497 441 
Q 3181 441 3623 922 
Q 4066 1403 4066 2288 
Q 4066 2847 3877 3264 
Q 3688 3681 3323 3911 
Q 2959 4141 2506 4141 
Q 1863 4141 1398 3698 
Q 934 3256 934 2222 
z
" transform="scale(0.015625)"/>
     </defs>
     <use xlink:href="#ArialMT-43"/>
     <use xlink:href="#ArialMT-4f" x="72.216797"/>
     <use xlink:href="#ArialMT-41" x="150"/>
     <use xlink:href="#ArialMT-70" x="216.699219"/>
     <use xlink:href="#ArialMT-6d" x="272.314453"/>
    </g>
   </g>
   <g id="text_35">
    <!-- COApl -->
    <g style="fill: #262626" transform="translate(786.318575 699.966902) scale(0.12 -0.12)">
     <defs>
      <path id="ArialMT-6c" d="M 409 0 
L 409 4581 
L 972 4581 
L 972 0 
L 409 0 
z
" transform="scale(0.015625)"/>
     </defs>
     <use xlink:href="#ArialMT-43"/>
     <use xlink:href="#ArialMT-4f" x="72.216797"/>
     <use xlink:href="#ArialMT-41" x="150"/>
     <use xlink:href="#ArialMT-70" x="216.699219"/>
     <use xlink:href="#ArialMT-6c" x="272.314453"/>
    </g>
   </g>
   <g id="text_36">
    <!-- TR -->
    <g style="fill: #262626" transform="translate(654.332698 774.091547) scale(0.12 -0.12)">
     <defs>
      <path id="ArialMT-54" d="M 1659 0 
L 1659 4041 
L 150 4041 
L 150 4581 
L 3781 4581 
L 3781 4041 
L 2266 4041 
L 2266 0 
L 1659 0 
z
" transform="scale(0.015625)"/>
      <path id="ArialMT-52" d="M 503 0 
L 503 4581 
L 2534 4581 
Q 3147 4581 3465 4457 
Q 3784 4334 3975 4021 
Q 4166 3709 4166 3331 
Q 4166 2844 3850 2509 
Q 3534 2175 2875 2084 
Q 3116 1969 3241 1856 
Q 3506 1613 3744 1247 
L 4541 0 
L 3778 0 
L 3172 953 
Q 2906 1366 2734 1584 
Q 2563 1803 2427 1890 
Q 2291 1978 2150 2013 
Q 2047 2034 1813 2034 
L 1109 2034 
L 1109 0 
L 503 0 
z
M 1109 2559 
L 2413 2559 
Q 2828 2559 3062 2645 
Q 3297 2731 3419 2920 
Q 3541 3109 3541 3331 
Q 3541 3656 3305 3865 
Q 3069 4075 2559 4075 
L 1109 4075 
L 1109 2559 
z
" transform="scale(0.015625)"/>
     </defs>
     <use xlink:href="#ArialMT-54"/>
     <use xlink:href="#ArialMT-52" x="61.083984"/>
    </g>
   </g>
   <g id="text_37">
    <!-- ENTm -->
    <g style="fill: #262626" transform="translate(818.964772 1056.174481) scale(0.12 -0.12)">
     <use xlink:href="#ArialMT-45"/>
     <use xlink:href="#ArialMT-4e" x="66.699219"/>
     <use xlink:href="#ArialMT-54" x="138.916016"/>
     <use xlink:href="#ArialMT-6d" x="200"/>
    </g>
   </g>
   <g id="text_38">
    <!-- ENTl -->
    <g style="fill: #262626" transform="translate(835.634116 706.000081) scale(0.12 -0.12)">
     <use xlink:href="#ArialMT-45"/>
     <use xlink:href="#ArialMT-4e" x="66.699219"/>
     <use xlink:href="#ArialMT-54" x="138.916016"/>
     <use xlink:href="#ArialMT-6c" x="200"/>
    </g>
   </g>
   <g id="text_39">
    <!-- ILA -->
    <g style="fill: #262626" transform="translate(1118.096447 1008.819939) scale(0.12 -0.12)">
     <defs>
      <path id="ArialMT-49" d="M 597 0 
L 597 4581 
L 1203 4581 
L 1203 0 
L 597 0 
z
" transform="scale(0.015625)"/>
     </defs>
     <use xlink:href="#ArialMT-49"/>
     <use xlink:href="#ArialMT-4c" x="27.783203"/>
     <use xlink:href="#ArialMT-41" x="83.398438"/>
    </g>
   </g>
   <g id="text_40">
    <!-- ACAv -->
    <g style="fill: #262626" transform="translate(1282.642032 1164.566054) scale(0.12 -0.12)">
     <use xlink:href="#ArialMT-41"/>
     <use xlink:href="#ArialMT-43" x="66.699219"/>
     <use xlink:href="#ArialMT-41" x="138.916016"/>
     <use xlink:href="#ArialMT-76" x="203.865234"/>
    </g>
   </g>
   <g id="text_41">
    <!-- ACAd -->
    <g style="fill: #262626" transform="translate(1287.121129 1159.746467) scale(0.12 -0.12)">
     <use xlink:href="#ArialMT-41"/>
     <use xlink:href="#ArialMT-43" x="66.699219"/>
     <use xlink:href="#ArialMT-41" x="138.916016"/>
     <use xlink:href="#ArialMT-64" x="205.615234"/>
    </g>
   </g>
   <g id="text_42">
    <!-- RSPv.a -->
    <g style="fill: #262626" transform="translate(1233.28974 1112.087383) scale(0.12 -0.12)">
     <defs>
      <path id="ArialMT-50" d="M 494 0 
L 494 4581 
L 2222 4581 
Q 2678 4581 2919 4538 
Q 3256 4481 3484 4323 
Q 3713 4166 3852 3881 
Q 3991 3597 3991 3256 
Q 3991 2672 3619 2267 
Q 3247 1863 2275 1863 
L 1100 1863 
L 1100 0 
L 494 0 
z
M 1100 2403 
L 2284 2403 
Q 2872 2403 3119 2622 
Q 3366 2841 3366 3238 
Q 3366 3525 3220 3729 
Q 3075 3934 2838 4000 
Q 2684 4041 2272 4041 
L 1100 4041 
L 1100 2403 
z
" transform="scale(0.015625)"/>
     </defs>
     <use xlink:href="#ArialMT-52"/>
     <use xlink:href="#ArialMT-53" x="72.216797"/>
     <use xlink:href="#ArialMT-50" x="138.916016"/>
     <use xlink:href="#ArialMT-76" x="205.615234"/>
     <use xlink:href="#ArialMT-2e" x="248.240234"/>
     <use xlink:href="#ArialMT-61" x="276.023438"/>
    </g>
   </g>
   <g id="text_43">
    <!-- RSPv.b/c -->
    <g style="fill: #262626" transform="translate(1276.970927 1171.661547) scale(0.12 -0.12)">
     <defs>
      <path id="ArialMT-62" d="M 941 0 
L 419 0 
L 419 4581 
L 981 4581 
L 981 2947 
Q 1338 3394 1891 3394 
Q 2197 3394 2470 3270 
Q 2744 3147 2920 2923 
Q 3097 2700 3197 2384 
Q 3297 2069 3297 1709 
Q 3297 856 2875 390 
Q 2453 -75 1863 -75 
Q 1275 -75 941 416 
L 941 0 
z
M 934 1684 
Q 934 1088 1097 822 
Q 1363 388 1816 388 
Q 2184 388 2453 708 
Q 2722 1028 2722 1663 
Q 2722 2313 2464 2622 
Q 2206 2931 1841 2931 
Q 1472 2931 1203 2611 
Q 934 2291 934 1684 
z
" transform="scale(0.015625)"/>
      <path id="ArialMT-2f" d="M 0 -78 
L 1328 4659 
L 1778 4659 
L 453 -78 
L 0 -78 
z
" transform="scale(0.015625)"/>
      <path id="ArialMT-63" d="M 2588 1216 
L 3141 1144 
Q 3050 572 2676 248 
Q 2303 -75 1759 -75 
Q 1078 -75 664 370 
Q 250 816 250 1647 
Q 250 2184 428 2587 
Q 606 2991 970 3192 
Q 1334 3394 1763 3394 
Q 2303 3394 2647 3120 
Q 2991 2847 3088 2344 
L 2541 2259 
Q 2463 2594 2264 2762 
Q 2066 2931 1784 2931 
Q 1359 2931 1093 2626 
Q 828 2322 828 1663 
Q 828 994 1084 691 
Q 1341 388 1753 388 
Q 2084 388 2306 591 
Q 2528 794 2588 1216 
z
" transform="scale(0.015625)"/>
     </defs>
     <use xlink:href="#ArialMT-52"/>
     <use xlink:href="#ArialMT-53" x="72.216797"/>
     <use xlink:href="#ArialMT-50" x="138.916016"/>
     <use xlink:href="#ArialMT-76" x="205.615234"/>
     <use xlink:href="#ArialMT-2e" x="248.240234"/>
     <use xlink:href="#ArialMT-62" x="276.023438"/>
     <use xlink:href="#ArialMT-2f" x="331.638672"/>
     <use xlink:href="#ArialMT-63" x="359.421875"/>
    </g>
   </g>
   <g id="text_44">
    <!-- RSPd -->
    <g style="fill: #262626" transform="translate(1246.574533 1175.105729) scale(0.12 -0.12)">
     <use xlink:href="#ArialMT-52"/>
     <use xlink:href="#ArialMT-53" x="72.216797"/>
     <use xlink:href="#ArialMT-50" x="138.916016"/>
     <use xlink:href="#ArialMT-64" x="205.615234"/>
    </g>
   </g>
   <g id="text_45">
    <!-- RSPagl -->
    <g style="fill: #262626" transform="translate(1282.468095 1120.640957) scale(0.12 -0.12)">
     <defs>
      <path id="ArialMT-67" d="M 319 -275 
L 866 -356 
Q 900 -609 1056 -725 
Q 1266 -881 1628 -881 
Q 2019 -881 2231 -725 
Q 2444 -569 2519 -288 
Q 2563 -116 2559 434 
Q 2191 0 1641 0 
Q 956 0 581 494 
Q 206 988 206 1678 
Q 206 2153 378 2554 
Q 550 2956 876 3175 
Q 1203 3394 1644 3394 
Q 2231 3394 2613 2919 
L 2613 3319 
L 3131 3319 
L 3131 450 
Q 3131 -325 2973 -648 
Q 2816 -972 2473 -1159 
Q 2131 -1347 1631 -1347 
Q 1038 -1347 672 -1080 
Q 306 -813 319 -275 
z
M 784 1719 
Q 784 1066 1043 766 
Q 1303 466 1694 466 
Q 2081 466 2343 764 
Q 2606 1063 2606 1700 
Q 2606 2309 2336 2618 
Q 2066 2928 1684 2928 
Q 1309 2928 1046 2623 
Q 784 2319 784 1719 
z
" transform="scale(0.015625)"/>
     </defs>
     <use xlink:href="#ArialMT-52"/>
     <use xlink:href="#ArialMT-53" x="72.216797"/>
     <use xlink:href="#ArialMT-50" x="138.916016"/>
     <use xlink:href="#ArialMT-61" x="205.615234"/>
     <use xlink:href="#ArialMT-67" x="261.230469"/>
     <use xlink:href="#ArialMT-6c" x="316.845703"/>
    </g>
   </g>
   <g id="text_46">
    <!-- ORBv -->
    <g style="fill: #262626" transform="translate(1282.362627 1155.912957) scale(0.12 -0.12)">
     <use xlink:href="#ArialMT-4f"/>
     <use xlink:href="#ArialMT-52" x="77.783203"/>
     <use xlink:href="#ArialMT-42" x="150"/>
     <use xlink:href="#ArialMT-76" x="216.699219"/>
    </g>
   </g>
   <g id="text_47">
    <!-- ORBm -->
    <g style="fill: #262626" transform="translate(1288.52868 1160.340765) scale(0.12 -0.12)">
     <use xlink:href="#ArialMT-4f"/>
     <use xlink:href="#ArialMT-52" x="77.783203"/>
     <use xlink:href="#ArialMT-42" x="150"/>
     <use xlink:href="#ArialMT-6d" x="216.699219"/>
    </g>
   </g>
   <g id="text_48">
    <!-- PERI -->
    <g style="fill: #262626" transform="translate(708.094058 1224.910416) scale(0.12 -0.12)">
     <use xlink:href="#ArialMT-50"/>
     <use xlink:href="#ArialMT-45" x="66.699219"/>
     <use xlink:href="#ArialMT-52" x="133.398438"/>
     <use xlink:href="#ArialMT-49" x="205.615234"/>
    </g>
   </g>
   <g id="text_49">
    <!-- ECT -->
    <g style="fill: #262626" transform="translate(1114.746451 1182.766871) scale(0.12 -0.12)">
     <use xlink:href="#ArialMT-45"/>
     <use xlink:href="#ArialMT-43" x="66.699219"/>
     <use xlink:href="#ArialMT-54" x="138.916016"/>
    </g>
   </g>
   <g id="text_50">
    <!-- VISp -->
    <g style="fill: #262626" transform="translate(1302.605495 1144.413322) scale(0.12 -0.12)">
     <defs>
      <path id="ArialMT-56" d="M 1803 0 
L 28 4581 
L 684 4581 
L 1875 1253 
Q 2019 853 2116 503 
Q 2222 878 2363 1253 
L 3600 4581 
L 4219 4581 
L 2425 0 
L 1803 0 
z
" transform="scale(0.015625)"/>
     </defs>
     <use xlink:href="#ArialMT-56"/>
     <use xlink:href="#ArialMT-49" x="66.699219"/>
     <use xlink:href="#ArialMT-53" x="94.482422"/>
     <use xlink:href="#ArialMT-70" x="161.181641"/>
    </g>
   </g>
   <g id="text_51">
    <!-- VISpm -->
    <g style="fill: #262626" transform="translate(1282.362627 1155.912957) scale(0.12 -0.12)">
     <use xlink:href="#ArialMT-56"/>
     <use xlink:href="#ArialMT-49" x="66.699219"/>
     <use xlink:href="#ArialMT-53" x="94.482422"/>
     <use xlink:href="#ArialMT-70" x="161.181641"/>
     <use xlink:href="#ArialMT-6d" x="216.796875"/>
    </g>
   </g>
   <g id="text_52">
    <!-- BMAp -->
    <g style="fill: #262626" transform="translate(913.897772 787.928869) scale(0.12 -0.12)">
     <use xlink:href="#ArialMT-42"/>
     <use xlink:href="#ArialMT-4d" x="66.699219"/>
     <use xlink:href="#ArialMT-41" x="150"/>
     <use xlink:href="#ArialMT-70" x="216.699219"/>
    </g>
   </g>
   <g id="text_53">
    <!-- BLAa -->
    <g style="fill: #262626" transform="translate(1004.000273 818.543583) scale(0.12 -0.12)">
     <use xlink:href="#ArialMT-42"/>
     <use xlink:href="#ArialMT-4c" x="66.699219"/>
     <use xlink:href="#ArialMT-41" x="122.314453"/>
     <use xlink:href="#ArialMT-61" x="189.013672"/>
    </g>
   </g>
   <g id="text_54">
    <!-- BLAp -->
    <g style="fill: #262626" transform="translate(704.094316 843.557467) scale(0.12 -0.12)">
     <use xlink:href="#ArialMT-42"/>
     <use xlink:href="#ArialMT-4c" x="66.699219"/>
     <use xlink:href="#ArialMT-41" x="122.314453"/>
     <use xlink:href="#ArialMT-70" x="189.013672"/>
    </g>
   </g>
   <g id="text_55">
    <!-- LA -->
    <g style="fill: #262626" transform="translate(736.19608 777.469978) scale(0.12 -0.12)">
     <use xlink:href="#ArialMT-4c"/>
     <use xlink:href="#ArialMT-41" x="55.615234"/>
    </g>
   </g>
   <g id="text_56">
    <!-- PA -->
    <g style="fill: #262626" transform="translate(784.256576 697.250541) scale(0.12 -0.12)">
     <use xlink:href="#ArialMT-50"/>
     <use xlink:href="#ArialMT-41" x="59.324219"/>
    </g>
   </g>
   <g id="text_57">
    <!-- EPv -->
    <g style="fill: #262626" transform="translate(910.451736 880.636197) scale(0.12 -0.12)">
     <use xlink:href="#ArialMT-45"/>
     <use xlink:href="#ArialMT-50" x="66.699219"/>
     <use xlink:href="#ArialMT-76" x="133.398438"/>
    </g>
   </g>
   <g id="text_58">
    <!-- EPd -->
    <g style="fill: #262626" transform="translate(1007.593305 747.163711) scale(0.12 -0.12)">
     <use xlink:href="#ArialMT-45"/>
     <use xlink:href="#ArialMT-50" x="66.699219"/>
     <use xlink:href="#ArialMT-64" x="133.398438"/>
    </g>
   </g>
   <g id="text_59">
    <!-- CLA -->
    <g style="fill: #262626" transform="translate(1291.700736 1137.050775) scale(0.12 -0.12)">
     <use xlink:href="#ArialMT-43"/>
     <use xlink:href="#ArialMT-4c" x="72.216797"/>
     <use xlink:href="#ArialMT-41" x="127.832031"/>
    </g>
   </g>
   <g id="text_60">
    <!-- DMHa -->
    <g style="fill: #262626" transform="translate(812.026973 633.493081) scale(0.12 -0.12)">
     <defs>
      <path id="ArialMT-48" d="M 513 0 
L 513 4581 
L 1119 4581 
L 1119 2700 
L 3500 2700 
L 3500 4581 
L 4106 4581 
L 4106 0 
L 3500 0 
L 3500 2159 
L 1119 2159 
L 1119 0 
L 513 0 
z
" transform="scale(0.015625)"/>
     </defs>
     <use xlink:href="#ArialMT-44"/>
     <use xlink:href="#ArialMT-4d" x="72.216797"/>
     <use xlink:href="#ArialMT-48" x="155.517578"/>
     <use xlink:href="#ArialMT-61" x="227.734375"/>
    </g>
   </g>
   <g id="text_61">
    <!-- DMHp -->
    <g style="fill: #262626" transform="translate(812.026973 633.493081) scale(0.12 -0.12)">
     <use xlink:href="#ArialMT-44"/>
     <use xlink:href="#ArialMT-4d" x="72.216797"/>
     <use xlink:href="#ArialMT-48" x="155.517578"/>
     <use xlink:href="#ArialMT-70" x="227.734375"/>
    </g>
   </g>
   <g id="text_62">
    <!-- DMHv -->
    <g style="fill: #262626" transform="translate(812.026973 633.493081) scale(0.12 -0.12)">
     <use xlink:href="#ArialMT-44"/>
     <use xlink:href="#ArialMT-4d" x="72.216797"/>
     <use xlink:href="#ArialMT-48" x="155.517578"/>
     <use xlink:href="#ArialMT-76" x="227.734375"/>
    </g>
   </g>
   <g id="text_63">
    <!-- PH -->
    <g style="fill: #262626" transform="translate(1059.626828 584.975079) scale(0.12 -0.12)">
     <use xlink:href="#ArialMT-50"/>
     <use xlink:href="#ArialMT-48" x="66.699219"/>
    </g>
   </g>
   <g id="text_64">
    <!-- AHNc -->
    <g style="fill: #262626" transform="translate(778.088257 705.403202) scale(0.12 -0.12)">
     <use xlink:href="#ArialMT-41"/>
     <use xlink:href="#ArialMT-48" x="66.699219"/>
     <use xlink:href="#ArialMT-4e" x="138.916016"/>
     <use xlink:href="#ArialMT-63" x="211.132812"/>
    </g>
   </g>
   <g id="text_65">
    <!-- AHNp -->
    <g style="fill: #262626" transform="translate(812.132528 627.531264) scale(0.12 -0.12)">
     <use xlink:href="#ArialMT-41"/>
     <use xlink:href="#ArialMT-48" x="66.699219"/>
     <use xlink:href="#ArialMT-4e" x="138.916016"/>
     <use xlink:href="#ArialMT-70" x="211.132812"/>
    </g>
   </g>
   <g id="text_66">
    <!-- TM -->
    <g style="fill: #262626" transform="translate(813.532755 757.421946) scale(0.12 -0.12)">
     <use xlink:href="#ArialMT-54"/>
     <use xlink:href="#ArialMT-4d" x="61.083984"/>
    </g>
   </g>
   <g id="text_67">
    <!-- SUMm -->
    <g style="fill: #262626" transform="translate(946.351902 546.996161) scale(0.12 -0.12)">
     <defs>
      <path id="ArialMT-55" d="M 3500 4581 
L 4106 4581 
L 4106 1934 
Q 4106 1244 3950 837 
Q 3794 431 3386 176 
Q 2978 -78 2316 -78 
Q 1672 -78 1262 144 
Q 853 366 678 786 
Q 503 1206 503 1934 
L 503 4581 
L 1109 4581 
L 1109 1938 
Q 1109 1341 1220 1058 
Q 1331 775 1601 622 
Q 1872 469 2263 469 
Q 2931 469 3215 772 
Q 3500 1075 3500 1938 
L 3500 4581 
z
" transform="scale(0.015625)"/>
     </defs>
     <use xlink:href="#ArialMT-53"/>
     <use xlink:href="#ArialMT-55" x="66.699219"/>
     <use xlink:href="#ArialMT-4d" x="138.916016"/>
     <use xlink:href="#ArialMT-6d" x="222.216797"/>
    </g>
   </g>
   <g id="text_68">
    <!-- SUMl -->
    <g style="fill: #262626" transform="translate(854.244355 579.712318) scale(0.12 -0.12)">
     <use xlink:href="#ArialMT-53"/>
     <use xlink:href="#ArialMT-55" x="66.699219"/>
     <use xlink:href="#ArialMT-4d" x="138.916016"/>
     <use xlink:href="#ArialMT-6c" x="222.216797"/>
    </g>
   </g>
   <g id="text_69">
    <!-- RCH -->
    <g style="fill: #262626" transform="translate(778.088257 705.403202) scale(0.12 -0.12)">
     <use xlink:href="#ArialMT-52"/>
     <use xlink:href="#ArialMT-43" x="72.216797"/>
     <use xlink:href="#ArialMT-48" x="144.433594"/>
    </g>
   </g>
   <g id="text_70">
    <!-- LHAa -->
    <g style="fill: #262626" transform="translate(778.088257 705.403202) scale(0.12 -0.12)">
     <use xlink:href="#ArialMT-4c"/>
     <use xlink:href="#ArialMT-48" x="55.615234"/>
     <use xlink:href="#ArialMT-41" x="127.832031"/>
     <use xlink:href="#ArialMT-61" x="194.53125"/>
    </g>
   </g>
   <g id="text_71">
    <!-- LHAjvv -->
    <g style="fill: #262626" transform="translate(786.318575 699.966902) scale(0.12 -0.12)">
     <defs>
      <path id="ArialMT-6a" d="M 419 3928 
L 419 4581 
L 981 4581 
L 981 3928 
L 419 3928 
z
M -294 -1288 
L -188 -809 
Q -19 -853 78 -853 
Q 250 -853 334 -739 
Q 419 -625 419 -169 
L 419 3319 
L 981 3319 
L 981 -181 
Q 981 -794 822 -1034 
Q 619 -1347 147 -1347 
Q -81 -1347 -294 -1288 
z
" transform="scale(0.015625)"/>
     </defs>
     <use xlink:href="#ArialMT-4c"/>
     <use xlink:href="#ArialMT-48" x="55.615234"/>
     <use xlink:href="#ArialMT-41" x="127.832031"/>
     <use xlink:href="#ArialMT-6a" x="194.53125"/>
     <use xlink:href="#ArialMT-76" x="216.748047"/>
     <use xlink:href="#ArialMT-76" x="266.748047"/>
    </g>
   </g>
   <g id="text_72">
    <!-- LHAsfa -->
    <g style="fill: #262626" transform="translate(785.294974 661.106195) scale(0.12 -0.12)">
     <defs>
      <path id="ArialMT-66" d="M 556 0 
L 556 2881 
L 59 2881 
L 59 3319 
L 556 3319 
L 556 3672 
Q 556 4006 616 4169 
Q 697 4388 901 4523 
Q 1106 4659 1475 4659 
Q 1713 4659 2000 4603 
L 1916 4113 
Q 1741 4144 1584 4144 
Q 1328 4144 1222 4034 
Q 1116 3925 1116 3625 
L 1116 3319 
L 1763 3319 
L 1763 2881 
L 1116 2881 
L 1116 0 
L 556 0 
z
" transform="scale(0.015625)"/>
     </defs>
     <use xlink:href="#ArialMT-4c"/>
     <use xlink:href="#ArialMT-48" x="55.615234"/>
     <use xlink:href="#ArialMT-41" x="127.832031"/>
     <use xlink:href="#ArialMT-73" x="194.53125"/>
     <use xlink:href="#ArialMT-66" x="244.53125"/>
     <use xlink:href="#ArialMT-61" x="272.314453"/>
    </g>
   </g>
   <g id="text_73">
    <!-- REr -->
    <g style="fill: #262626" transform="translate(885.790494 1050.393661) scale(0.12 -0.12)">
     <use xlink:href="#ArialMT-52"/>
     <use xlink:href="#ArialMT-45" x="72.216797"/>
     <use xlink:href="#ArialMT-72" x="138.916016"/>
    </g>
   </g>
   <g id="text_74">
    <!-- REc -->
    <g style="fill: #262626" transform="translate(813.209088 1089.827485) scale(0.12 -0.12)">
     <use xlink:href="#ArialMT-52"/>
     <use xlink:href="#ArialMT-45" x="72.216797"/>
     <use xlink:href="#ArialMT-63" x="138.916016"/>
    </g>
   </g>
   <g id="text_75">
    <!-- PVT -->
    <g style="fill: #262626" transform="translate(779.741069 823.011112) scale(0.12 -0.12)">
     <use xlink:href="#ArialMT-50"/>
     <use xlink:href="#ArialMT-56" x="66.699219"/>
     <use xlink:href="#ArialMT-54" x="133.398438"/>
    </g>
   </g>
   <g id="text_76">
    <!-- PT -->
    <g style="fill: #262626" transform="translate(734.413567 861.455358) scale(0.12 -0.12)">
     <use xlink:href="#ArialMT-50"/>
     <use xlink:href="#ArialMT-54" x="66.699219"/>
    </g>
   </g>
   <g id="text_77">
    <!-- AV -->
    <g style="fill: #262626" transform="translate(1109.064581 1182.180231) scale(0.12 -0.12)">
     <use xlink:href="#ArialMT-41"/>
     <use xlink:href="#ArialMT-56" x="59.324219"/>
    </g>
   </g>
   <g id="text_78">
    <!-- AD -->
    <g style="fill: #262626" transform="translate(1139.848157 1261.816842) scale(0.12 -0.12)">
     <use xlink:href="#ArialMT-41"/>
     <use xlink:href="#ArialMT-44" x="66.699219"/>
    </g>
   </g>
   <g id="text_79">
    <!-- AMd -->
    <g style="fill: #262626" transform="translate(796.062384 1212.272563) scale(0.12 -0.12)">
     <use xlink:href="#ArialMT-41"/>
     <use xlink:href="#ArialMT-4d" x="66.699219"/>
     <use xlink:href="#ArialMT-64" x="150"/>
    </g>
   </g>
   <g id="text_80">
    <!-- IAM -->
    <g style="fill: #262626" transform="translate(964.984995 1265.404105) scale(0.12 -0.12)">
     <use xlink:href="#ArialMT-49"/>
     <use xlink:href="#ArialMT-41" x="27.783203"/>
     <use xlink:href="#ArialMT-4d" x="94.482422"/>
    </g>
   </g>
   <g id="text_81">
    <!-- LD -->
    <g style="fill: #262626" transform="translate(1224.208357 1166.995205) scale(0.12 -0.12)">
     <use xlink:href="#ArialMT-4c"/>
     <use xlink:href="#ArialMT-44" x="55.615234"/>
    </g>
   </g>
   <g id="text_82">
    <!-- PR -->
    <g style="fill: #262626" transform="translate(726.928927 1029.812129) scale(0.12 -0.12)">
     <use xlink:href="#ArialMT-50"/>
     <use xlink:href="#ArialMT-52" x="66.699219"/>
    </g>
   </g>
   <g id="text_83">
    <!-- RH -->
    <g style="fill: #262626" transform="translate(1061.987008 1245.303695) scale(0.12 -0.12)">
     <use xlink:href="#ArialMT-52"/>
     <use xlink:href="#ArialMT-48" x="72.216797"/>
    </g>
   </g>
   <g id="text_84">
    <!-- VM -->
    <g style="fill: #262626" transform="translate(612.342376 1128.629426) scale(0.12 -0.12)">
     <use xlink:href="#ArialMT-56"/>
     <use xlink:href="#ArialMT-4d" x="66.699219"/>
    </g>
   </g>
   <g id="text_85">
    <!-- LP -->
    <g style="fill: #262626" transform="translate(1230.280352 1156.475765) scale(0.12 -0.12)">
     <use xlink:href="#ArialMT-4c"/>
     <use xlink:href="#ArialMT-50" x="55.615234"/>
    </g>
   </g>
   <g id="text_86">
    <!-- RL -->
    <g style="fill: #262626" transform="translate(729.637535 655.445296) scale(0.12 -0.12)">
     <use xlink:href="#ArialMT-52"/>
     <use xlink:href="#ArialMT-4c" x="72.216797"/>
    </g>
   </g>
   <g id="text_87">
    <!-- IF -->
    <g style="fill: #262626" transform="translate(704.800895 677.500573) scale(0.12 -0.12)">
     <defs>
      <path id="ArialMT-46" d="M 525 0 
L 525 4581 
L 3616 4581 
L 3616 4041 
L 1131 4041 
L 1131 2622 
L 3281 2622 
L 3281 2081 
L 1131 2081 
L 1131 0 
L 525 0 
z
" transform="scale(0.015625)"/>
     </defs>
     <use xlink:href="#ArialMT-49"/>
     <use xlink:href="#ArialMT-46" x="27.783203"/>
    </g>
   </g>
   <g id="text_88">
    <!-- CS -->
    <g style="fill: #262626" transform="translate(1118.553454 945.68226) scale(0.12 -0.12)">
     <use xlink:href="#ArialMT-43"/>
     <use xlink:href="#ArialMT-53" x="72.216797"/>
    </g>
   </g>
   <g id="text_89">
    <!-- DR -->
    <g style="fill: #262626" transform="translate(1160.23388 773.723658) scale(0.12 -0.12)">
     <use xlink:href="#ArialMT-44"/>
     <use xlink:href="#ArialMT-52" x="72.216797"/>
    </g>
   </g>
   <g id="text_90">
    <!-- SNc -->
    <g style="fill: #262626" transform="translate(675.158265 740.911199) scale(0.12 -0.12)">
     <use xlink:href="#ArialMT-53"/>
     <use xlink:href="#ArialMT-4e" x="66.699219"/>
     <use xlink:href="#ArialMT-63" x="138.916016"/>
    </g>
   </g>
   <g id="text_91">
    <!-- VTA -->
    <g style="fill: #262626" transform="translate(679.150909 641.019337) scale(0.12 -0.12)">
     <use xlink:href="#ArialMT-56"/>
     <use xlink:href="#ArialMT-54" x="66.699219"/>
     <use xlink:href="#ArialMT-41" x="120.408203"/>
    </g>
   </g>
   <g id="text_92">
    <!-- RR -->
    <g style="fill: #262626" transform="translate(654.319252 783.803823) scale(0.12 -0.12)">
     <use xlink:href="#ArialMT-52"/>
     <use xlink:href="#ArialMT-52" x="72.216797"/>
    </g>
   </g>
   <g id="text_93">
    <!-- NI -->
    <g style="fill: #262626" transform="translate(1101.012353 720.248337) scale(0.12 -0.12)">
     <use xlink:href="#ArialMT-4e"/>
     <use xlink:href="#ArialMT-49" x="72.216797"/>
    </g>
   </g>
   <g id="text_94">
    <!-- LC -->
    <g style="fill: #262626" transform="translate(1010.145497 704.670718) scale(0.12 -0.12)">
     <use xlink:href="#ArialMT-4c"/>
     <use xlink:href="#ArialMT-43" x="55.615234"/>
    </g>
   </g>
   <g id="text_95">
    <!-- MDS Projection in 3D -->
    <g style="fill: #262626" transform="translate(853.677 196) scale(0.144 -0.144)">
     <defs>
      <path id="ArialMT-74" d="M 1650 503 
L 1731 6 
Q 1494 -44 1306 -44 
Q 1000 -44 831 53 
Q 663 150 594 308 
Q 525 466 525 972 
L 525 2881 
L 113 2881 
L 113 3319 
L 525 3319 
L 525 4141 
L 1084 4478 
L 1084 3319 
L 1650 3319 
L 1650 2881 
L 1084 2881 
L 1084 941 
Q 1084 700 1114 631 
Q 1144 563 1211 522 
Q 1278 481 1403 481 
Q 1497 481 1650 503 
z
" transform="scale(0.015625)"/>
     </defs>
     <use xlink:href="#ArialMT-4d"/>
     <use xlink:href="#ArialMT-44" x="83.300781"/>
     <use xlink:href="#ArialMT-53" x="155.517578"/>
     <use xlink:href="#ArialMT-20" x="222.216797"/>
     <use xlink:href="#ArialMT-50" x="250"/>
     <use xlink:href="#ArialMT-72" x="316.699219"/>
     <use xlink:href="#ArialMT-6f" x="350"/>
     <use xlink:href="#ArialMT-6a" x="405.615234"/>
     <use xlink:href="#ArialMT-65" x="427.832031"/>
     <use xlink:href="#ArialMT-63" x="483.447266"/>
     <use xlink:href="#ArialMT-74" x="533.447266"/>
     <use xlink:href="#ArialMT-69" x="561.230469"/>
     <use xlink:href="#ArialMT-6f" x="583.447266"/>
     <use xlink:href="#ArialMT-6e" x="639.0625"/>
     <use xlink:href="#ArialMT-20" x="694.677734"/>
     <use xlink:href="#ArialMT-69" x="722.460938"/>
     <use xlink:href="#ArialMT-6e" x="744.677734"/>
     <use xlink:href="#ArialMT-20" x="800.292969"/>
     <use xlink:href="#ArialMT-33" x="828.076172"/>
     <use xlink:href="#ArialMT-44" x="883.691406"/>
    </g>
   </g>
   <g id="Path3DCollection_3">
    <defs>
     <path id="C2_0_3509af9e42" d="M 0 5 
C 1.326016 5 2.597899 4.473168 3.535534 3.535534 
C 4.473168 2.597899 5 1.326016 5 -0 
C 5 -1.326016 4.473168 -2.597899 3.535534 -3.535534 
C 2.597899 -4.473168 1.326016 -5 0 -5 
C -1.326016 -5 -2.597899 -4.473168 -3.535534 -3.535534 
C -4.473168 -2.597899 -5 -1.326016 -5 0 
C -5 1.326016 -4.473168 2.597899 -3.535534 3.535534 
C -2.597899 4.473168 -1.326016 5 0 5 
z
"/>
    </defs>
    <g clip-path="url(#p4ae623a9d8)">
     <use xlink:href="#C2_0_3509af9e42" x="778.088257" y="705.403202" style="fill: #ffc0cb; fill-opacity: 0.3; stroke: #ffc0cb; stroke-opacity: 0.3"/>
    </g>
    <g clip-path="url(#p4ae623a9d8)">
     <use xlink:href="#C2_0_3509af9e42" x="1033.214886" y="664.605179" style="fill: #ffc0cb; fill-opacity: 0.353448; stroke: #ffc0cb; stroke-opacity: 0.353448"/>
    </g>
    <g clip-path="url(#p4ae623a9d8)">
     <use xlink:href="#C2_0_3509af9e42" x="864.752357" y="663.64521" style="fill: #ffc0cb; fill-opacity: 0.889527; stroke: #ffc0cb; stroke-opacity: 0.889527"/>
    </g>
    <g clip-path="url(#p4ae623a9d8)">
     <use xlink:href="#C2_0_3509af9e42" x="950.014295" y="1167.476272" style="fill: #ffc0cb; stroke: #ffc0cb"/>
    </g>
   </g>
   <g id="Path3DCollection_4">
    <defs>
     <path id="C3_0_1e8b10fde2" d="M 0 5 
C 1.326016 5 2.597899 4.473168 3.535534 3.535534 
C 4.473168 2.597899 5 1.326016 5 -0 
C 5 -1.326016 4.473168 -2.597899 3.535534 -3.535534 
C 2.597899 -4.473168 1.326016 -5 0 -5 
C -1.326016 -5 -2.597899 -4.473168 -3.535534 -3.535534 
C -4.473168 -2.597899 -5 -1.326016 -5 0 
C -5 1.326016 -4.473168 2.597899 -3.535534 3.535534 
C -2.597899 4.473168 -1.326016 5 0 5 
z
"/>
    </defs>
    <g clip-path="url(#p4ae623a9d8)">
     <use xlink:href="#C3_0_1e8b10fde2" x="1004.000273" y="818.543583" style="fill: #008000; fill-opacity: 0.3; stroke: #008000; stroke-opacity: 0.3"/>
    </g>
    <g clip-path="url(#p4ae623a9d8)">
     <use xlink:href="#C3_0_1e8b10fde2" x="786.318575" y="699.966902" style="fill: #008000; fill-opacity: 0.337581; stroke: #008000; stroke-opacity: 0.337581"/>
    </g>
    <g clip-path="url(#p4ae623a9d8)">
     <use xlink:href="#C3_0_1e8b10fde2" x="913.897772" y="787.928869" style="fill: #008000; fill-opacity: 0.342709; stroke: #008000; stroke-opacity: 0.342709"/>
    </g>
    <g clip-path="url(#p4ae623a9d8)">
     <use xlink:href="#C3_0_1e8b10fde2" x="784.256576" y="697.250541" style="fill: #008000; fill-opacity: 0.35224; stroke: #008000; stroke-opacity: 0.35224"/>
    </g>
    <g clip-path="url(#p4ae623a9d8)">
     <use xlink:href="#C3_0_1e8b10fde2" x="779.741069" y="823.011112" style="fill: #008000; fill-opacity: 0.37724; stroke: #008000; stroke-opacity: 0.37724"/>
    </g>
    <g clip-path="url(#p4ae623a9d8)">
     <use xlink:href="#C3_0_1e8b10fde2" x="778.088257" y="705.403202" style="fill: #008000; fill-opacity: 0.389775; stroke: #008000; stroke-opacity: 0.389775"/>
    </g>
    <g clip-path="url(#p4ae623a9d8)">
     <use xlink:href="#C3_0_1e8b10fde2" x="773.561738" y="781.805085" style="fill: #008000; fill-opacity: 0.391117; stroke: #008000; stroke-opacity: 0.391117"/>
    </g>
    <g clip-path="url(#p4ae623a9d8)">
     <use xlink:href="#C3_0_1e8b10fde2" x="736.19608" y="777.469978" style="fill: #008000; fill-opacity: 0.400014; stroke: #008000; stroke-opacity: 0.400014"/>
    </g>
    <g clip-path="url(#p4ae623a9d8)">
     <use xlink:href="#C3_0_1e8b10fde2" x="1101.012353" y="720.248337" style="fill: #008000; fill-opacity: 0.42643; stroke: #008000; stroke-opacity: 0.42643"/>
    </g>
    <g clip-path="url(#p4ae623a9d8)">
     <use xlink:href="#C3_0_1e8b10fde2" x="734.413567" y="861.455358" style="fill: #008000; fill-opacity: 0.427045; stroke: #008000; stroke-opacity: 0.427045"/>
    </g>
    <g clip-path="url(#p4ae623a9d8)">
     <use xlink:href="#C3_0_1e8b10fde2" x="704.094316" y="843.557467" style="fill: #008000; fill-opacity: 0.430232; stroke: #008000; stroke-opacity: 0.430232"/>
    </g>
    <g clip-path="url(#p4ae623a9d8)">
     <use xlink:href="#C3_0_1e8b10fde2" x="654.319252" y="783.803823" style="fill: #008000; fill-opacity: 0.470478; stroke: #008000; stroke-opacity: 0.470478"/>
    </g>
    <g clip-path="url(#p4ae623a9d8)">
     <use xlink:href="#C3_0_1e8b10fde2" x="675.158265" y="740.911199" style="fill: #008000; fill-opacity: 0.490955; stroke: #008000; stroke-opacity: 0.490955"/>
    </g>
    <g clip-path="url(#p4ae623a9d8)">
     <use xlink:href="#C3_0_1e8b10fde2" x="726.928927" y="1029.812129" style="fill: #008000; fill-opacity: 0.522018; stroke: #008000; stroke-opacity: 0.522018"/>
    </g>
    <g clip-path="url(#p4ae623a9d8)">
     <use xlink:href="#C3_0_1e8b10fde2" x="885.790494" y="1050.393661" style="fill: #008000; fill-opacity: 0.525486; stroke: #008000; stroke-opacity: 0.525486"/>
    </g>
    <g clip-path="url(#p4ae623a9d8)">
     <use xlink:href="#C3_0_1e8b10fde2" x="679.150909" y="641.019337" style="fill: #008000; fill-opacity: 0.545552; stroke: #008000; stroke-opacity: 0.545552"/>
    </g>
    <g clip-path="url(#p4ae623a9d8)">
     <use xlink:href="#C3_0_1e8b10fde2" x="813.209088" y="1089.827485" style="fill: #008000; fill-opacity: 0.565716; stroke: #008000; stroke-opacity: 0.565716"/>
    </g>
    <g clip-path="url(#p4ae623a9d8)">
     <use xlink:href="#C3_0_1e8b10fde2" x="729.637535" y="655.445296" style="fill: #008000; fill-opacity: 0.589918; stroke: #008000; stroke-opacity: 0.589918"/>
    </g>
    <g clip-path="url(#p4ae623a9d8)">
     <use xlink:href="#C3_0_1e8b10fde2" x="704.800895" y="677.500573" style="fill: #008000; fill-opacity: 0.626443; stroke: #008000; stroke-opacity: 0.626443"/>
    </g>
    <g clip-path="url(#p4ae623a9d8)">
     <use xlink:href="#C3_0_1e8b10fde2" x="1109.064581" y="1182.180231" style="fill: #008000; fill-opacity: 0.656461; stroke: #008000; stroke-opacity: 0.656461"/>
    </g>
    <g clip-path="url(#p4ae623a9d8)">
     <use xlink:href="#C3_0_1e8b10fde2" x="1061.987008" y="1245.303695" style="fill: #008000; fill-opacity: 0.732073; stroke: #008000; stroke-opacity: 0.732073"/>
    </g>
    <g clip-path="url(#p4ae623a9d8)">
     <use xlink:href="#C3_0_1e8b10fde2" x="612.342376" y="1128.629426" style="fill: #008000; fill-opacity: 0.735208; stroke: #008000; stroke-opacity: 0.735208"/>
    </g>
    <g clip-path="url(#p4ae623a9d8)">
     <use xlink:href="#C3_0_1e8b10fde2" x="1059.626828" y="584.975079" style="fill: #008000; fill-opacity: 0.762517; stroke: #008000; stroke-opacity: 0.762517"/>
    </g>
    <g clip-path="url(#p4ae623a9d8)">
     <use xlink:href="#C3_0_1e8b10fde2" x="1224.208357" y="1166.995205" style="fill: #008000; fill-opacity: 0.7745; stroke: #008000; stroke-opacity: 0.7745"/>
    </g>
    <g clip-path="url(#p4ae623a9d8)">
     <use xlink:href="#C3_0_1e8b10fde2" x="1230.280352" y="1156.475765" style="fill: #008000; fill-opacity: 0.806696; stroke: #008000; stroke-opacity: 0.806696"/>
    </g>
    <g clip-path="url(#p4ae623a9d8)">
     <use xlink:href="#C3_0_1e8b10fde2" x="1139.848157" y="1261.816842" style="fill: #008000; fill-opacity: 0.823713; stroke: #008000; stroke-opacity: 0.823713"/>
    </g>
    <g clip-path="url(#p4ae623a9d8)">
     <use xlink:href="#C3_0_1e8b10fde2" x="964.984995" y="1265.404105" style="fill: #008000; fill-opacity: 0.870762; stroke: #008000; stroke-opacity: 0.870762"/>
    </g>
    <g clip-path="url(#p4ae623a9d8)">
     <use xlink:href="#C3_0_1e8b10fde2" x="1160.23388" y="773.723658" style="fill: #008000; fill-opacity: 0.874793; stroke: #008000; stroke-opacity: 0.874793"/>
    </g>
    <g clip-path="url(#p4ae623a9d8)">
     <use xlink:href="#C3_0_1e8b10fde2" x="1010.145497" y="704.670718" style="fill: #008000; fill-opacity: 0.911964; stroke: #008000; stroke-opacity: 0.911964"/>
    </g>
    <g clip-path="url(#p4ae623a9d8)">
     <use xlink:href="#C3_0_1e8b10fde2" x="796.062384" y="1212.272563" style="fill: #008000; fill-opacity: 0.913419; stroke: #008000; stroke-opacity: 0.913419"/>
    </g>
    <g clip-path="url(#p4ae623a9d8)">
     <use xlink:href="#C3_0_1e8b10fde2" x="1118.553454" y="945.68226" style="fill: #008000; stroke: #008000"/>
    </g>
   </g>
   <g id="legend_1">
    <g id="patch_6">
     <path d="M 1486.666875 330.068625 
L 1607.1 330.068625 
Q 1609.5 330.068625 1609.5 327.668625 
L 1609.5 224.4 
Q 1609.5 222 1607.1 222 
L 1486.666875 222 
Q 1484.266875 222 1484.266875 224.4 
L 1484.266875 327.668625 
Q 1484.266875 330.068625 1486.666875 330.068625 
z
" style="fill: #ffffff; opacity: 0.8; stroke: #cccccc; stroke-linejoin: miter"/>
    </g>
    <g id="text_96">
     <!-- Labels -->
     <g style="fill: #262626" transform="translate(1525.668187 237.10725) scale(0.144 -0.144)">
      <use xlink:href="#ArialMT-4c"/>
      <use xlink:href="#ArialMT-61" x="55.615234"/>
      <use xlink:href="#ArialMT-62" x="111.230469"/>
      <use xlink:href="#ArialMT-65" x="166.845703"/>
      <use xlink:href="#ArialMT-6c" x="222.460938"/>
      <use xlink:href="#ArialMT-73" x="244.677734"/>
     </g>
    </g>
    <g id="Path3DCollection_5">
     <defs>
      <path id="mdbb90b91d5" d="M 0 5 
C 1.326016 5 2.597899 4.473168 3.535534 3.535534 
C 4.473168 2.597899 5 1.326016 5 0 
C 5 -1.326016 4.473168 -2.597899 3.535534 -3.535534 
C 2.597899 -4.473168 1.326016 -5 0 -5 
C -1.326016 -5 -2.597899 -4.473168 -3.535534 -3.535534 
C -4.473168 -2.597899 -5 -1.326016 -5 0 
C -5 1.326016 -4.473168 2.597899 -3.535534 3.535534 
C -2.597899 4.473168 -1.326016 5 0 5 
z
" style="stroke: #ff0000"/>
     </defs>
     <g>
      <use xlink:href="#mdbb90b91d5" x="1501.066875" y="251.408625" style="fill: #ff0000; stroke: #ff0000"/>
     </g>
    </g>
    <g id="text_97">
     <!-- Cortical -->
     <g style="fill: #262626" transform="translate(1522.666875 254.558625) scale(0.12 -0.12)">
      <use xlink:href="#ArialMT-43"/>
      <use xlink:href="#ArialMT-6f" x="72.216797"/>
      <use xlink:href="#ArialMT-72" x="127.832031"/>
      <use xlink:href="#ArialMT-74" x="161.132812"/>
      <use xlink:href="#ArialMT-69" x="188.916016"/>
      <use xlink:href="#ArialMT-63" x="211.132812"/>
      <use xlink:href="#ArialMT-61" x="261.132812"/>
      <use xlink:href="#ArialMT-6c" x="316.748047"/>
     </g>
    </g>
    <g id="Path3DCollection_6">
     <defs>
      <path id="mb333cd9f70" d="M 0 5 
C 1.326016 5 2.597899 4.473168 3.535534 3.535534 
C 4.473168 2.597899 5 1.326016 5 0 
C 5 -1.326016 4.473168 -2.597899 3.535534 -3.535534 
C 2.597899 -4.473168 1.326016 -5 0 -5 
C -1.326016 -5 -2.597899 -4.473168 -3.535534 -3.535534 
C -4.473168 -2.597899 -5 -1.326016 -5 0 
C -5 1.326016 -4.473168 2.597899 -3.535534 3.535534 
C -2.597899 4.473168 -1.326016 5 0 5 
z
" style="stroke: #0000ff"/>
     </defs>
     <g>
      <use xlink:href="#mb333cd9f70" x="1501.066875" y="268.383" style="fill: #0000ff; stroke: #0000ff"/>
     </g>
    </g>
    <g id="text_98">
     <!-- Hypothalamus -->
     <g style="fill: #262626" transform="translate(1522.666875 271.533) scale(0.12 -0.12)">
      <defs>
       <path id="ArialMT-79" d="M 397 -1278 
L 334 -750 
Q 519 -800 656 -800 
Q 844 -800 956 -737 
Q 1069 -675 1141 -563 
Q 1194 -478 1313 -144 
Q 1328 -97 1363 -6 
L 103 3319 
L 709 3319 
L 1400 1397 
Q 1534 1031 1641 628 
Q 1738 1016 1872 1384 
L 2581 3319 
L 3144 3319 
L 1881 -56 
Q 1678 -603 1566 -809 
Q 1416 -1088 1222 -1217 
Q 1028 -1347 759 -1347 
Q 597 -1347 397 -1278 
z
" transform="scale(0.015625)"/>
       <path id="ArialMT-68" d="M 422 0 
L 422 4581 
L 984 4581 
L 984 2938 
Q 1378 3394 1978 3394 
Q 2347 3394 2619 3248 
Q 2891 3103 3008 2847 
Q 3125 2591 3125 2103 
L 3125 0 
L 2563 0 
L 2563 2103 
Q 2563 2525 2380 2717 
Q 2197 2909 1863 2909 
Q 1613 2909 1392 2779 
Q 1172 2650 1078 2428 
Q 984 2206 984 1816 
L 984 0 
L 422 0 
z
" transform="scale(0.015625)"/>
       <path id="ArialMT-75" d="M 2597 0 
L 2597 488 
Q 2209 -75 1544 -75 
Q 1250 -75 995 37 
Q 741 150 617 320 
Q 494 491 444 738 
Q 409 903 409 1263 
L 409 3319 
L 972 3319 
L 972 1478 
Q 972 1038 1006 884 
Q 1059 663 1231 536 
Q 1403 409 1656 409 
Q 1909 409 2131 539 
Q 2353 669 2445 892 
Q 2538 1116 2538 1541 
L 2538 3319 
L 3100 3319 
L 3100 0 
L 2597 0 
z
" transform="scale(0.015625)"/>
      </defs>
      <use xlink:href="#ArialMT-48"/>
      <use xlink:href="#ArialMT-79" x="72.216797"/>
      <use xlink:href="#ArialMT-70" x="122.216797"/>
      <use xlink:href="#ArialMT-6f" x="177.832031"/>
      <use xlink:href="#ArialMT-74" x="233.447266"/>
      <use xlink:href="#ArialMT-68" x="261.230469"/>
      <use xlink:href="#ArialMT-61" x="316.845703"/>
      <use xlink:href="#ArialMT-6c" x="372.460938"/>
      <use xlink:href="#ArialMT-61" x="394.677734"/>
      <use xlink:href="#ArialMT-6d" x="450.292969"/>
      <use xlink:href="#ArialMT-75" x="533.59375"/>
      <use xlink:href="#ArialMT-73" x="589.208984"/>
     </g>
    </g>
    <g id="Path3DCollection_7">
     <defs>
      <path id="m38c4e8cd2c" d="M 0 5 
C 1.326016 5 2.597899 4.473168 3.535534 3.535534 
C 4.473168 2.597899 5 1.326016 5 0 
C 5 -1.326016 4.473168 -2.597899 3.535534 -3.535534 
C 2.597899 -4.473168 1.326016 -5 0 -5 
C -1.326016 -5 -2.597899 -4.473168 -3.535534 -3.535534 
C -4.473168 -2.597899 -5 -1.326016 -5 0 
C -5 1.326016 -4.473168 2.597899 -3.535534 3.535534 
C -2.597899 4.473168 -1.326016 5 0 5 
z
" style="stroke: #800000"/>
     </defs>
     <g>
      <use xlink:href="#m38c4e8cd2c" x="1501.066875" y="285.498" style="fill: #800000; stroke: #800000"/>
     </g>
    </g>
    <g id="text_99">
     <!-- Amygdala -->
     <g style="fill: #262626" transform="translate(1522.666875 288.648) scale(0.12 -0.12)">
      <use xlink:href="#ArialMT-41"/>
      <use xlink:href="#ArialMT-6d" x="66.699219"/>
      <use xlink:href="#ArialMT-79" x="150"/>
      <use xlink:href="#ArialMT-67" x="200"/>
      <use xlink:href="#ArialMT-64" x="255.615234"/>
      <use xlink:href="#ArialMT-61" x="311.230469"/>
      <use xlink:href="#ArialMT-6c" x="366.845703"/>
      <use xlink:href="#ArialMT-61" x="389.0625"/>
     </g>
    </g>
    <g id="Path3DCollection_8">
     <defs>
      <path id="m8f5d0d6a69" d="M 0 5 
C 1.326016 5 2.597899 4.473168 3.535534 3.535534 
C 4.473168 2.597899 5 1.326016 5 0 
C 5 -1.326016 4.473168 -2.597899 3.535534 -3.535534 
C 2.597899 -4.473168 1.326016 -5 0 -5 
C -1.326016 -5 -2.597899 -4.473168 -3.535534 -3.535534 
C -4.473168 -2.597899 -5 -1.326016 -5 0 
C -5 1.326016 -4.473168 2.597899 -3.535534 3.535534 
C -2.597899 4.473168 -1.326016 5 0 5 
z
" style="stroke: #ffc0cb"/>
     </defs>
     <g>
      <use xlink:href="#m8f5d0d6a69" x="1501.066875" y="302.75925" style="fill: #ffc0cb; stroke: #ffc0cb"/>
     </g>
    </g>
    <g id="text_100">
     <!-- Septal Striatum -->
     <g style="fill: #262626" transform="translate(1522.666875 305.90925) scale(0.12 -0.12)">
      <use xlink:href="#ArialMT-53"/>
      <use xlink:href="#ArialMT-65" x="66.699219"/>
      <use xlink:href="#ArialMT-70" x="122.314453"/>
      <use xlink:href="#ArialMT-74" x="177.929688"/>
      <use xlink:href="#ArialMT-61" x="205.712891"/>
      <use xlink:href="#ArialMT-6c" x="261.328125"/>
      <use xlink:href="#ArialMT-20" x="283.544922"/>
      <use xlink:href="#ArialMT-53" x="311.328125"/>
      <use xlink:href="#ArialMT-74" x="378.027344"/>
      <use xlink:href="#ArialMT-72" x="405.810547"/>
      <use xlink:href="#ArialMT-69" x="439.111328"/>
      <use xlink:href="#ArialMT-61" x="461.328125"/>
      <use xlink:href="#ArialMT-74" x="516.943359"/>
      <use xlink:href="#ArialMT-75" x="544.726562"/>
      <use xlink:href="#ArialMT-6d" x="600.341797"/>
     </g>
    </g>
    <g id="Path3DCollection_9">
     <defs>
      <path id="m42e9b1a767" d="M 0 5 
C 1.326016 5 2.597899 4.473168 3.535534 3.535534 
C 4.473168 2.597899 5 1.326016 5 0 
C 5 -1.326016 4.473168 -2.597899 3.535534 -3.535534 
C 2.597899 -4.473168 1.326016 -5 0 -5 
C -1.326016 -5 -2.597899 -4.473168 -3.535534 -3.535534 
C -4.473168 -2.597899 -5 -1.326016 -5 0 
C -5 1.326016 -4.473168 2.597899 -3.535534 3.535534 
C -2.597899 4.473168 -1.326016 5 0 5 
z
" style="stroke: #008000"/>
     </defs>
     <g>
      <use xlink:href="#m42e9b1a767" x="1501.066875" y="319.733625" style="fill: #008000; stroke: #008000"/>
     </g>
    </g>
    <g id="text_101">
     <!-- Other -->
     <g style="fill: #262626" transform="translate(1522.666875 322.883625) scale(0.12 -0.12)">
      <use xlink:href="#ArialMT-4f"/>
      <use xlink:href="#ArialMT-74" x="77.783203"/>
      <use xlink:href="#ArialMT-68" x="105.566406"/>
      <use xlink:href="#ArialMT-65" x="161.181641"/>
      <use xlink:href="#ArialMT-72" x="216.796875"/>
     </g>
    </g>
   </g>
   <g id="Path3DCollection_10">
    <defs>
     <path id="C4_0_14a9df1948" d="M 0 5 
C 1.326016 5 2.597899 4.473168 3.535534 3.535534 
C 4.473168 2.597899 5 1.326016 5 -0 
C 5 -1.326016 4.473168 -2.597899 3.535534 -3.535534 
C 2.597899 -4.473168 1.326016 -5 0 -5 
C -1.326016 -5 -2.597899 -4.473168 -3.535534 -3.535534 
C -4.473168 -2.597899 -5 -1.326016 -5 0 
C -5 1.326016 -4.473168 2.597899 -3.535534 3.535534 
C -2.597899 4.473168 -1.326016 5 0 5 
z
"/>
    </defs>
    <g clip-path="url(#p4ae623a9d8)">
     <use xlink:href="#C4_0_14a9df1948" x="1007.593305" y="747.163711" style="fill: #ff0000; fill-opacity: 0.3; stroke: #ff0000; stroke-opacity: 0.3"/>
    </g>
    <g clip-path="url(#p4ae623a9d8)">
     <use xlink:href="#C4_0_14a9df1948" x="910.451736" y="880.636197" style="fill: #ff0000; fill-opacity: 0.308841; stroke: #ff0000; stroke-opacity: 0.308841"/>
    </g>
    <g clip-path="url(#p4ae623a9d8)">
     <use xlink:href="#C4_0_14a9df1948" x="1118.096447" y="1008.819939" style="fill: #ff0000; fill-opacity: 0.350512; stroke: #ff0000; stroke-opacity: 0.350512"/>
    </g>
    <g clip-path="url(#p4ae623a9d8)">
     <use xlink:href="#C4_0_14a9df1948" x="654.332698" y="774.091547" style="fill: #ff0000; fill-opacity: 0.393064; stroke: #ff0000; stroke-opacity: 0.393064"/>
    </g>
    <g clip-path="url(#p4ae623a9d8)">
     <use xlink:href="#C4_0_14a9df1948" x="1233.28974" y="1112.087383" style="fill: #ff0000; fill-opacity: 0.560567; stroke: #ff0000; stroke-opacity: 0.560567"/>
    </g>
    <g clip-path="url(#p4ae623a9d8)">
     <use xlink:href="#C4_0_14a9df1948" x="1114.746451" y="1182.766871" style="fill: #ff0000; fill-opacity: 0.626919; stroke: #ff0000; stroke-opacity: 0.626919"/>
    </g>
    <g clip-path="url(#p4ae623a9d8)">
     <use xlink:href="#C4_0_14a9df1948" x="1246.574533" y="1175.105729" style="fill: #ff0000; fill-opacity: 0.64127; stroke: #ff0000; stroke-opacity: 0.64127"/>
    </g>
    <g clip-path="url(#p4ae623a9d8)">
     <use xlink:href="#C4_0_14a9df1948" x="1282.468095" y="1120.640957" style="fill: #ff0000; fill-opacity: 0.649528; stroke: #ff0000; stroke-opacity: 0.649528"/>
    </g>
    <g clip-path="url(#p4ae623a9d8)">
     <use xlink:href="#C4_0_14a9df1948" x="1291.700736" y="1137.050775" style="fill: #ff0000; fill-opacity: 0.659029; stroke: #ff0000; stroke-opacity: 0.659029"/>
    </g>
    <g clip-path="url(#p4ae623a9d8)">
     <use xlink:href="#C4_0_14a9df1948" x="1302.605495" y="1144.413322" style="fill: #ff0000; fill-opacity: 0.667745; stroke: #ff0000; stroke-opacity: 0.667745"/>
    </g>
    <g clip-path="url(#p4ae623a9d8)">
     <use xlink:href="#C4_0_14a9df1948" x="1282.362627" y="1155.912957" style="fill: #ff0000; fill-opacity: 0.681382; stroke: #ff0000; stroke-opacity: 0.681382"/>
    </g>
    <g clip-path="url(#p4ae623a9d8)">
     <use xlink:href="#C4_0_14a9df1948" x="1282.362627" y="1155.912957" style="fill: #ff0000; fill-opacity: 0.681382; stroke: #ff0000; stroke-opacity: 0.681382"/>
    </g>
    <g clip-path="url(#p4ae623a9d8)">
     <use xlink:href="#C4_0_14a9df1948" x="1276.970927" y="1171.661547" style="fill: #ff0000; fill-opacity: 0.686889; stroke: #ff0000; stroke-opacity: 0.686889"/>
    </g>
    <g clip-path="url(#p4ae623a9d8)">
     <use xlink:href="#C4_0_14a9df1948" x="1287.121129" y="1159.746467" style="fill: #ff0000; fill-opacity: 0.686905; stroke: #ff0000; stroke-opacity: 0.686905"/>
    </g>
    <g clip-path="url(#p4ae623a9d8)">
     <use xlink:href="#C4_0_14a9df1948" x="1288.52868" y="1160.340765" style="fill: #ff0000; fill-opacity: 0.688416; stroke: #ff0000; stroke-opacity: 0.688416"/>
    </g>
    <g clip-path="url(#p4ae623a9d8)">
     <use xlink:href="#C4_0_14a9df1948" x="1282.642032" y="1164.566054" style="fill: #ff0000; fill-opacity: 0.697437; stroke: #ff0000; stroke-opacity: 0.697437"/>
    </g>
    <g clip-path="url(#p4ae623a9d8)">
     <use xlink:href="#C4_0_14a9df1948" x="835.634116" y="706.000081" style="fill: #ff0000; fill-opacity: 0.755617; stroke: #ff0000; stroke-opacity: 0.755617"/>
    </g>
    <g clip-path="url(#p4ae623a9d8)">
     <use xlink:href="#C4_0_14a9df1948" x="708.094058" y="1224.910416" style="fill: #ff0000; fill-opacity: 0.823892; stroke: #ff0000; stroke-opacity: 0.823892"/>
    </g>
    <g clip-path="url(#p4ae623a9d8)">
     <use xlink:href="#C4_0_14a9df1948" x="818.964772" y="1056.174481" style="fill: #ff0000; stroke: #ff0000"/>
    </g>
   </g>
  </g>
 </g>
 <defs>
  <clipPath id="p4ae623a9d8">
   <rect x="229.5" y="216" width="1386" height="1386"/>
  </clipPath>
 </defs>
</svg>
