<?xml version="1.0" encoding="utf-8" standalone="no"?>
<!DOCTYPE svg PUBLIC "-//W3C//DTD SVG 1.1//EN"
  "http://www.w3.org/Graphics/SVG/1.1/DTD/svg11.dtd">
<svg xmlns:xlink="http://www.w3.org/1999/xlink" width="620.601551pt" height="624.724759pt" viewBox="0 0 620.601551 624.724759" xmlns="http://www.w3.org/2000/svg" version="1.1">
 <metadata>
  <rdf:RDF xmlns:dc="http://purl.org/dc/elements/1.1/" xmlns:cc="http://creativecommons.org/ns#" xmlns:rdf="http://www.w3.org/1999/02/22-rdf-syntax-ns#">
   <cc:Work>
    <dc:type rdf:resource="http://purl.org/dc/dcmitype/StillImage"/>
    <dc:date>2024-10-24T10:10:04.249544</dc:date>
    <dc:format>image/svg+xml</dc:format>
    <dc:creator>
     <cc:Agent>
      <dc:title>Matplotlib v3.9.2, https://matplotlib.org/</dc:title>
     </cc:Agent>
    </dc:creator>
   </cc:Work>
  </rdf:RDF>
 </metadata>
 <defs>
  <style type="text/css">*{stroke-linejoin: round; stroke-linecap: butt}</style>
 </defs>
 <g id="figure_1">
  <g id="patch_1">
   <path d="M 0 624.724759 
L 620.601551 624.724759 
L 620.601551 0 
L 0 0 
z
" style="fill: #ffffff"/>
  </g>
  <g id="axes_1">
   <g id="patch_2">
    <path d="M 315.24784 63.862512 
L 317.736114 63.874953 
L 320.224139 63.912276 
L 322.711666 63.974478 
L 325.198447 64.06155 
L 327.684233 64.173486 
L 330.168775 64.310274 
L 332.651826 64.4719 
L 335.133135 64.658348 
L 337.612457 64.869599 
L 340.089542 65.105633 
L 342.564142 65.366425 
L 345.036011 65.65195 
L 347.504902 65.962179 
L 349.970566 66.29708 
L 352.432759 66.656622 
L 354.891232 67.040766 
L 357.345742 67.449476 
L 359.796042 67.88271 
L 362.241887 68.340425 
L 364.683033 68.822576 
L 367.119235 69.329113 
L 369.55025 69.859986 
L 371.975835 70.415143 
L 374.395747 70.994527 
L 376.809744 71.598081 
L 379.217586 72.225745 
L 381.61903 72.877455 
L 384.013837 73.553146 
L 386.401768 74.252752 
L 388.782584 74.976201 
L 391.156046 75.723422 
L 393.521917 76.49434 
L 395.879961 77.288878 
L 398.229942 78.106956 
L 399.603988 78.597544 
L 402.212941 71.357446 
L 400.796398 70.851685 
L 398.373738 70.008306 
L 395.942765 69.189195 
L 393.503722 68.394434 
L 391.056854 67.624103 
L 388.602405 66.878279 
L 386.140621 66.157036 
L 383.671747 65.460447 
L 381.196032 64.788581 
L 378.713721 64.141505 
L 376.225064 63.519285 
L 373.730309 62.921981 
L 371.229706 62.349655 
L 368.723505 61.802363 
L 366.211956 61.280159 
L 363.695311 60.783097 
L 361.173821 60.311226 
L 358.647739 59.864593 
L 356.117317 59.443243 
L 353.582808 59.047217 
L 351.044465 58.676556 
L 348.502543 58.331296 
L 345.957295 58.011473 
L 343.408976 57.717118 
L 340.857842 57.44826 
L 338.304146 57.204926 
L 335.748145 56.987141 
L 333.190093 56.794927 
L 330.630248 56.628302 
L 328.068864 56.487284 
L 325.506198 56.371886 
L 322.942506 56.28212 
L 320.378045 56.217995 
L 317.813071 56.179518 
L 315.24784 56.166691 
z
" clip-path="url(#p64114c7d5c)" style="fill: #1f77b4"/>
   </g>
   <g id="patch_3">
    <path d="M 399.603988 78.597544 
L 401.940696 79.452796 
L 404.268735 80.331372 
L 406.587872 81.233184 
L 408.897875 82.158142 
L 411.198513 83.106153 
L 413.489556 84.077123 
L 415.770775 85.070955 
L 418.041942 86.087549 
L 420.302829 87.126803 
L 422.553211 88.188613 
L 424.792863 89.272874 
L 427.02156 90.379477 
L 429.23908 91.508311 
L 431.445201 92.659264 
L 433.639702 93.83222 
L 435.822364 95.027062 
L 437.992969 96.24367 
L 440.151299 97.481923 
L 442.297139 98.741698 
L 444.430275 100.022867 
L 446.550492 101.325303 
L 448.657579 102.648876 
L 450.751325 103.993454 
L 452.831521 105.358901 
L 454.897958 106.745081 
L 456.950431 108.151857 
L 458.988734 109.579086 
L 461.012662 111.026627 
L 463.022015 112.494334 
L 465.01659 113.982061 
L 466.996188 115.489659 
L 468.960612 117.016977 
L 470.909664 118.563863 
L 472.84315 120.130162 
L 474.760877 121.715717 
L 476.662653 123.320369 
L 478.548287 124.943959 
L 480.417592 126.586324 
L 482.27038 128.247299 
L 484.106465 129.926719 
L 485.925665 131.624415 
L 487.727797 133.340219 
L 489.512682 135.073957 
L 491.28014 136.825457 
L 493.029995 138.594544 
L 494.762071 140.381041 
L 494.960322 140.587815 
L 500.51844 135.264942 
L 500.314058 135.051773 
L 498.528412 133.210024 
L 496.724438 131.386223 
L 494.902316 129.580553 
L 493.062229 127.793193 
L 491.204361 126.024324 
L 489.328897 124.274122 
L 487.436025 122.542761 
L 485.525935 120.830415 
L 483.598817 119.137256 
L 481.654864 117.463452 
L 479.69427 115.809171 
L 477.717232 114.174578 
L 475.723947 112.559837 
L 473.714615 110.965109 
L 471.689436 109.390554 
L 469.648613 107.83633 
L 467.59235 106.30259 
L 465.520853 104.78949 
L 463.434328 103.29718 
L 461.332986 101.82581 
L 459.217034 100.375526 
L 457.086686 98.946474 
L 454.942154 97.538796 
L 452.783653 96.152634 
L 450.611398 94.788126 
L 448.425608 93.445408 
L 446.226499 92.124615 
L 444.014293 90.825879 
L 441.78921 89.549329 
L 439.551473 88.295094 
L 437.301306 87.063298 
L 435.038933 85.854065 
L 432.764582 84.667516 
L 430.478479 83.503769 
L 428.180853 82.362941 
L 425.871934 81.245147 
L 423.551952 80.150496 
L 421.221141 79.079101 
L 418.879732 78.031066 
L 416.527959 77.006497 
L 414.166059 76.005497 
L 411.794268 75.028166 
L 409.412821 74.074601 
L 407.021958 73.144898 
L 404.621918 72.239149 
L 402.212941 71.357446 
z
" clip-path="url(#p64114c7d5c)" style="fill: #ff7f0e"/>
   </g>
   <g id="patch_4">
    <path d="M 494.960322 140.587815 
L 496.67237 142.393515 
L 498.366275 144.216245 
L 500.041869 146.055823 
L 501.698984 147.912064 
L 503.337454 149.784783 
L 504.957115 151.673793 
L 506.557805 153.578906 
L 508.139364 155.499929 
L 509.701635 157.436672 
L 511.24446 159.38894 
L 512.767686 161.356539 
L 514.271159 163.339271 
L 515.754731 165.336939 
L 517.218252 167.349342 
L 518.661576 169.37628 
L 520.08456 171.417549 
L 521.487059 173.472946 
L 522.868935 175.542265 
L 524.230049 177.625299 
L 525.570265 179.721839 
L 526.889448 181.831677 
L 528.187468 183.954601 
L 529.464194 186.090398 
L 530.719499 188.238856 
L 531.953256 190.39976 
L 533.092938 192.441632 
L 539.830415 188.722485 
L 538.655486 186.617463 
L 537.383571 184.389727 
L 536.089442 182.174822 
L 534.77323 179.972969 
L 533.435065 177.784387 
L 532.075082 175.609297 
L 530.693416 173.447915 
L 529.290206 171.300457 
L 527.865592 169.167139 
L 526.419716 167.048173 
L 524.952723 164.943772 
L 523.46476 162.854145 
L 521.955975 160.779503 
L 520.42652 158.720052 
L 518.876547 156.675998 
L 517.306211 154.647545 
L 515.71567 152.634898 
L 514.105082 150.638256 
L 512.474608 148.657819 
L 510.824412 146.693786 
L 509.154658 144.746353 
L 507.465514 142.815714 
L 505.757149 140.902063 
L 504.029732 139.005592 
L 502.283438 137.126488 
L 500.51844 135.264942 
z
" clip-path="url(#p64114c7d5c)" style="fill: #2ca02c"/>
   </g>
   <g id="patch_5">
    <path d="M 533.092938 192.441632 
L 534.28455 194.626059 
L 535.454258 196.822293 
L 536.601946 199.030114 
L 537.727499 201.249301 
L 538.830804 203.479633 
L 539.91175 205.720886 
L 540.970231 207.972836 
L 542.006139 210.235259 
L 543.019372 212.507927 
L 544.009828 214.790613 
L 544.977408 217.08309 
L 545.922015 219.385128 
L 546.843555 221.696497 
L 547.741936 224.016965 
L 548.617067 226.346301 
L 549.468862 228.684272 
L 550.297234 231.030644 
L 551.102102 233.385181 
L 551.883385 235.74765 
L 552.641004 238.117813 
L 553.374884 240.495434 
L 554.084952 242.880275 
L 554.771136 245.272097 
L 555.433368 247.670661 
L 556.071582 250.075727 
L 556.685714 252.487056 
L 557.275702 254.904404 
L 557.841487 257.327532 
L 558.383013 259.756197 
L 558.900226 262.190155 
L 559.393074 264.629163 
L 559.861508 267.072978 
L 560.30548 269.521355 
L 560.724947 271.974049 
L 561.119866 274.430815 
L 561.490199 276.891408 
L 561.835907 279.35558 
L 562.156957 281.823087 
L 562.453316 284.29368 
L 562.724954 286.767114 
L 562.971845 289.24314 
L 563.193964 291.721511 
L 563.391289 294.20198 
L 563.563799 296.684298 
L 563.711478 299.168216 
L 563.834311 301.653488 
L 563.932286 304.139863 
L 564.005392 306.627094 
L 564.053622 309.114931 
L 564.076973 311.603126 
L 564.07544 314.091431 
L 564.049025 316.579595 
L 563.99773 319.067371 
L 563.921561 321.55451 
L 563.820524 324.040763 
L 563.69463 326.525881 
L 563.543891 329.009616 
L 563.368324 331.491719 
L 563.167944 333.971943 
L 562.942773 336.450039 
L 562.692832 338.925759 
L 562.418147 341.398856 
L 562.118745 343.869083 
L 561.794656 346.336192 
L 561.445913 348.799937 
L 561.07255 351.260071 
L 560.674605 353.716349 
L 560.252118 356.168525 
L 559.80513 358.616353 
L 559.333687 361.059589 
L 558.837835 363.497988 
L 558.317625 365.931308 
L 557.773107 368.359303 
L 557.204338 370.781732 
L 556.611373 373.198352 
L 555.994272 375.608922 
L 555.353096 378.013201 
L 554.68791 380.410947 
L 553.99878 382.801922 
L 553.285776 385.185887 
L 552.548967 387.562602 
L 551.788429 389.93183 
L 551.004237 392.293335 
L 550.19647 394.646879 
L 549.365208 396.992229 
L 548.510534 399.329149 
L 547.632534 401.657405 
L 546.731296 403.976765 
L 545.80691 406.286997 
L 544.859468 408.58787 
L 543.889065 410.879153 
L 542.895799 413.160618 
L 541.879767 415.432036 
L 540.841073 417.693181 
L 539.779819 419.943826 
L 538.696113 422.183746 
L 537.590062 424.412717 
L 536.461776 426.630516 
L 535.31137 428.836922 
L 534.138957 431.031713 
L 532.944656 433.214671 
L 531.728585 435.385577 
L 530.490866 437.544214 
L 529.231623 439.690366 
L 527.950982 441.823818 
L 526.64907 443.944358 
L 525.326019 446.051772 
L 523.98196 448.145851 
L 522.617028 450.226385 
L 521.231359 452.293166 
L 519.825092 454.345987 
L 518.398367 456.384643 
L 516.951327 458.40893 
L 515.484118 460.418645 
L 513.996885 462.413588 
L 512.489777 464.39356 
L 510.962945 466.358361 
L 509.416541 468.307797 
L 507.850721 470.241671 
L 506.265641 472.15979 
L 504.661459 474.061963 
L 503.038336 475.947999 
L 501.396434 477.81771 
L 499.735918 479.670909 
L 498.056953 481.50741 
L 496.359707 483.327031 
L 494.64435 485.129587 
L 492.911053 486.914901 
L 491.15999 488.682792 
L 489.391337 490.433085 
L 487.605269 492.165604 
L 485.801965 493.880176 
L 483.981606 495.57663 
L 482.144374 497.254795 
L 480.290453 498.914505 
L 478.420027 500.555593 
L 476.533284 502.177894 
L 474.630413 503.781248 
L 472.711603 505.365493 
L 470.777048 506.930471 
L 468.826939 508.476025 
L 466.861473 510.002001 
L 464.880846 511.508247 
L 462.885255 512.994612 
L 460.874901 514.460946 
L 458.849984 515.907104 
L 456.810708 517.332941 
L 454.757274 518.738314 
L 452.689891 520.123083 
L 450.608763 521.48711 
L 448.514099 522.830257 
L 446.406108 524.15239 
L 444.285002 525.453378 
L 442.150992 526.733091 
L 440.004292 527.991399 
L 437.845117 529.228178 
L 435.673682 530.443304 
L 433.490204 531.636655 
L 431.294902 532.808112 
L 429.087996 533.957557 
L 426.869706 535.084877 
L 424.640253 536.189957 
L 422.399862 537.272689 
L 420.148755 538.332962 
L 417.887158 539.370672 
L 415.615298 540.385714 
L 413.333401 541.377988 
L 412.95064 541.54178 
L 415.972376 548.619545 
L 416.366975 548.450687 
L 418.719446 547.427725 
L 421.06157 546.38129 
L 423.393113 545.311486 
L 425.713842 544.21842 
L 428.023524 543.102202 
L 430.321928 541.962944 
L 432.608825 540.800759 
L 434.883987 539.615763 
L 437.147184 538.408076 
L 439.398192 537.177817 
L 441.636785 535.92511 
L 443.862739 534.65008 
L 446.075832 533.352855 
L 448.275842 532.033564 
L 450.46255 530.692339 
L 452.635736 529.329315 
L 454.795183 527.944627 
L 456.940676 526.538415 
L 459.071999 525.110818 
L 461.188941 523.66198 
L 463.291288 522.192045 
L 465.378831 520.70116 
L 467.451361 519.189475 
L 469.508671 517.65714 
L 471.550555 516.10431 
L 473.576809 514.531138 
L 475.58723 512.937783 
L 477.581617 511.324404 
L 479.559771 509.691162 
L 481.521494 508.03822 
L 483.466589 506.365744 
L 485.394863 504.673901 
L 487.306123 502.96286 
L 489.200176 501.232793 
L 491.076835 499.483871 
L 492.935911 497.716271 
L 494.777218 495.930169 
L 496.600572 494.125744 
L 498.405792 492.303175 
L 500.192695 490.462646 
L 501.961105 488.60434 
L 503.710843 486.728443 
L 505.441735 484.835142 
L 507.153607 482.924628 
L 508.84629 480.997091 
L 510.519612 479.052724 
L 512.173408 477.091721 
L 513.807511 475.114278 
L 515.421759 473.120593 
L 517.015989 471.110866 
L 518.590043 469.085298 
L 520.143762 467.04409 
L 521.676992 464.987448 
L 523.18958 462.915576 
L 524.681373 460.828682 
L 526.152223 458.726975 
L 527.601983 456.610665 
L 529.030508 454.479963 
L 530.437654 452.335083 
L 531.823282 450.176238 
L 533.187253 448.003646 
L 534.529429 445.817523 
L 535.849678 443.618087 
L 537.147867 441.40556 
L 538.423866 439.180161 
L 539.677547 436.942113 
L 540.908786 434.691641 
L 542.117459 432.42897 
L 543.303445 430.154325 
L 544.466625 427.867934 
L 545.606884 425.570025 
L 546.724107 423.26083 
L 547.818183 420.940577 
L 548.889002 418.6095 
L 549.936457 416.267832 
L 550.960444 413.915806 
L 551.960859 411.553658 
L 552.937603 409.181625 
L 553.890578 406.799942 
L 554.81969 404.40885 
L 555.724844 402.008585 
L 556.605951 399.59939 
L 557.462922 397.181503 
L 558.295672 394.755169 
L 559.104118 392.320628 
L 559.888178 389.878124 
L 560.647774 387.427903 
L 561.38283 384.970208 
L 562.093273 382.505285 
L 562.779032 380.033381 
L 563.440037 377.554744 
L 564.076224 375.06962 
L 564.687528 372.578259 
L 565.273889 370.080909 
L 565.835247 367.577821 
L 566.371546 365.069245 
L 566.882733 362.555431 
L 567.368757 360.036631 
L 567.82957 357.513097 
L 568.265124 354.98508 
L 568.675376 352.452835 
L 569.060286 349.916614 
L 569.419816 347.376671 
L 569.753928 344.833259 
L 570.062589 342.286634 
L 570.34577 339.737049 
L 570.603441 337.18476 
L 570.835576 334.630022 
L 571.042153 332.073091 
L 571.223151 329.514221 
L 571.378551 326.95367 
L 571.508339 324.391693 
L 571.6125 321.828545 
L 571.691026 319.264485 
L 571.743907 316.699767 
L 571.771139 314.134649 
L 571.772719 311.569387 
L 571.748647 309.004237 
L 571.698924 306.439456 
L 571.623557 303.875301 
L 571.522552 301.312027 
L 571.395921 298.749892 
L 571.243674 296.189151 
L 571.065828 293.630061 
L 570.862401 291.072877 
L 570.633412 288.517855 
L 570.378886 285.96525 
L 570.098846 283.415319 
L 569.793321 280.868315 
L 569.462342 278.324494 
L 569.105942 275.78411 
L 568.724156 273.247417 
L 568.317022 270.714668 
L 567.884582 268.186117 
L 567.426879 265.662017 
L 566.943958 263.142621 
L 566.435867 260.628179 
L 565.902658 258.118944 
L 565.344383 255.615166 
L 564.7611 253.117096 
L 564.152864 250.624984 
L 563.519739 248.139079 
L 562.861787 245.659629 
L 562.179073 243.186882 
L 561.471667 240.721087 
L 560.739638 238.262488 
L 559.983061 235.811332 
L 559.20201 233.367865 
L 558.396564 230.93233 
L 557.566803 228.504972 
L 556.712811 226.086032 
L 555.834672 223.675753 
L 554.932475 221.274375 
L 554.006309 218.88214 
L 553.056268 216.499286 
L 552.082446 214.126051 
L 551.084941 211.762672 
L 550.063853 209.409387 
L 549.019283 207.06643 
L 547.951336 204.734036 
L 546.860119 202.412438 
L 545.745741 200.101868 
L 544.608313 197.802557 
L 543.447949 195.514735 
L 542.264766 193.238631 
L 541.058881 190.974472 
L 539.830415 188.722485 
z
" clip-path="url(#p64114c7d5c)" style="fill: #d62728"/>
   </g>
   <g id="patch_6">
    <path d="M 412.95064 541.54178 
L 410.657315 542.507349 
L 408.35445 543.449937 
L 406.042274 544.36945 
L 403.721019 545.265796 
L 401.390917 546.138884 
L 399.0522 546.988629 
L 396.705103 547.814944 
L 394.34986 548.617747 
L 391.986707 549.396958 
L 389.615881 550.152499 
L 387.237617 550.884294 
L 384.852155 551.59227 
L 382.459732 552.276357 
L 380.060588 552.936486 
L 377.654963 553.57259 
L 375.243097 554.184607 
L 372.825232 554.772475 
L 370.401609 555.336136 
L 367.972471 555.875532 
L 365.53806 556.390611 
L 363.098621 556.88132 
L 360.654396 557.347611 
L 358.205631 557.789436 
L 355.75257 558.206752 
L 353.295458 558.599517 
L 350.834542 558.967692 
L 348.370067 559.311239 
L 345.90228 559.630125 
L 343.431428 559.924318 
L 340.957757 560.193788 
L 338.481515 560.438508 
L 336.00295 560.658453 
L 333.52231 560.853603 
L 331.039842 561.023937 
L 328.555794 561.169438 
L 326.070416 561.290091 
L 323.583956 561.385885 
L 321.096662 561.456811 
L 318.608784 561.50286 
L 316.120569 561.524028 
L 315.24784 561.525559 
L 315.24784 569.221379 
L 316.14756 569.219801 
L 318.71273 569.197978 
L 321.277554 569.150505 
L 323.841774 569.077386 
L 326.405135 568.978629 
L 328.967381 568.854244 
L 331.528254 568.704243 
L 334.087499 568.528641 
L 336.644861 568.327456 
L 339.200083 568.100708 
L 341.752909 567.848419 
L 344.303085 567.570615 
L 346.850356 567.267324 
L 349.394466 566.938575 
L 351.935162 566.584403 
L 354.472189 566.204841 
L 357.005293 565.799929 
L 359.534222 565.369706 
L 362.058723 564.914216 
L 364.578542 564.433504 
L 367.093428 563.927618 
L 369.60313 563.39661 
L 372.107396 562.840531 
L 374.605976 562.259437 
L 377.098621 561.653388 
L 379.58508 561.022442 
L 382.065106 560.366664 
L 384.53845 559.686119 
L 387.004866 558.980875 
L 389.464105 558.251003 
L 391.915923 557.496575 
L 394.360074 556.717667 
L 396.796314 555.914356 
L 399.2244 555.086724 
L 401.644087 554.234853 
L 404.055135 553.358828 
L 406.457303 552.458737 
L 408.85035 551.534669 
L 411.234036 550.586718 
L 413.608124 549.614977 
L 415.972376 548.619545 
z
" clip-path="url(#p64114c7d5c)" style="fill: #8c564b"/>
   </g>
   <g id="patch_7">
    <path d="M 315.24784 561.525559 
L 312.759567 561.513117 
L 310.271542 561.475794 
L 307.784014 561.413593 
L 305.297233 561.32652 
L 302.811448 561.214584 
L 300.326905 561.077797 
L 297.843855 560.916171 
L 295.362545 560.729723 
L 292.883224 560.518471 
L 290.406139 560.282438 
L 287.931539 560.021646 
L 285.459669 559.736121 
L 282.990779 559.425892 
L 280.525115 559.09099 
L 278.062922 558.731449 
L 275.604448 558.347304 
L 273.149939 557.938595 
L 270.699639 557.50536 
L 268.253794 557.047645 
L 265.812648 556.565495 
L 263.376446 556.058958 
L 260.945431 555.528085 
L 258.519846 554.972928 
L 256.099934 554.393544 
L 253.685936 553.789989 
L 251.278095 553.162326 
L 248.876651 552.510616 
L 246.481843 551.834924 
L 244.093913 551.135319 
L 241.713097 550.41187 
L 239.339635 549.664649 
L 236.973764 548.893731 
L 234.61572 548.099193 
L 232.265739 547.281115 
L 229.924057 546.439579 
L 227.590906 545.574668 
L 225.266521 544.686469 
L 222.951135 543.775072 
L 220.644978 542.840566 
L 218.348281 541.883046 
L 216.061274 540.902607 
L 213.784186 539.899348 
L 211.517243 538.873368 
L 209.260674 537.82477 
L 207.014704 536.75366 
L 204.779557 535.660144 
L 202.555456 534.544331 
L 200.342625 533.406333 
L 198.141284 532.246265 
L 195.951653 531.064241 
L 193.773952 529.860381 
L 191.608399 528.634804 
L 189.455209 527.387633 
L 187.314598 526.118993 
L 185.186781 524.829011 
L 183.071969 523.517816 
L 180.970376 522.185538 
L 178.882209 520.832311 
L 176.807679 519.458271 
L 174.746993 518.063554 
L 172.700357 516.6483 
L 170.667976 515.212652 
L 168.650053 513.756751 
L 166.646789 512.280745 
L 164.658385 510.78478 
L 162.68504 509.269006 
L 160.726951 507.733575 
L 158.784314 506.17864 
L 156.857324 504.604356 
L 154.946172 503.010882 
L 153.05105 501.398376 
L 151.172148 499.767 
L 149.309653 498.116917 
L 147.463752 496.448292 
L 145.634629 494.761291 
L 143.822468 493.056084 
L 142.027448 491.332841 
L 140.249751 489.591734 
L 138.489553 487.832938 
L 136.747031 486.056627 
L 135.022359 484.262981 
L 133.31571 482.452178 
L 131.627253 480.624399 
L 129.957158 478.779827 
L 128.305593 476.918647 
L 126.672721 475.041045 
L 125.058706 473.147208 
L 123.463711 471.237325 
L 121.887894 469.311589 
L 120.331412 467.370191 
L 118.794422 465.413325 
L 117.277077 463.441188 
L 115.779529 461.453976 
L 114.301928 459.451888 
L 112.844421 457.435125 
L 111.407154 455.403887 
L 109.990272 453.358379 
L 108.593914 451.298804 
L 107.218222 449.225369 
L 105.863333 447.138281 
L 104.529382 445.037749 
L 103.216503 442.923982 
L 101.924827 440.797193 
L 100.654483 438.657593 
L 99.405598 436.505397 
L 98.178297 434.34082 
L 96.972702 432.164079 
L 95.788936 429.97539 
L 94.627114 427.774974 
L 93.487355 425.563049 
L 92.369772 423.339838 
L 91.274476 421.105562 
L 90.201577 418.860445 
L 89.151183 416.604712 
L 88.123398 414.338588 
L 87.118326 412.062299 
L 86.136066 409.776073 
L 85.176718 407.48014 
L 84.240376 405.174728 
L 83.327135 402.860068 
L 82.437085 400.536391 
L 81.570317 398.20393 
L 80.726916 395.862918 
L 79.906967 393.51359 
L 79.110552 391.156179 
L 78.33775 388.790923 
L 77.588639 386.418056 
L 76.863294 384.037818 
L 76.161787 381.650445 
L 75.484189 379.256176 
L 74.830567 376.855252 
L 74.200986 374.447911 
L 73.59551 372.034395 
L 73.014199 369.614945 
L 72.457111 367.189803 
L 71.924301 364.759211 
L 71.415824 362.323413 
L 70.93173 359.882652 
L 70.472068 357.437173 
L 70.036883 354.987219 
L 69.626218 352.533035 
L 69.240116 350.074868 
L 68.878614 347.612963 
L 68.541749 345.147566 
L 68.229554 342.678923 
L 67.942061 340.207282 
L 67.681315 337.75282 
L 60.024618 338.527833 
L 60.293429 341.058207 
L 60.589814 343.606291 
L 60.911664 346.151283 
L 61.258947 348.692929 
L 61.63163 351.230976 
L 62.029673 353.765169 
L 62.453039 356.295255 
L 62.901683 358.820981 
L 63.375562 361.342094 
L 63.874628 363.858343 
L 64.398831 366.369475 
L 64.948119 368.875239 
L 65.522437 371.375386 
L 66.121726 373.869664 
L 66.745929 376.357825 
L 67.394981 378.839619 
L 68.068818 381.314799 
L 68.767373 383.783117 
L 69.490576 386.244327 
L 70.238355 388.698181 
L 71.010634 391.144435 
L 71.807337 393.582843 
L 72.628383 396.013164 
L 73.473691 398.435152 
L 74.343177 400.848566 
L 75.236753 403.253165 
L 76.154329 405.648708 
L 77.095815 408.034955 
L 78.061116 410.411669 
L 79.050135 412.778611 
L 80.062774 415.135544 
L 81.098931 417.482234 
L 82.158503 419.818444 
L 83.241384 422.143943 
L 84.347465 424.458496 
L 85.476636 426.761873 
L 86.628783 429.053844 
L 87.803793 431.334178 
L 89.001547 433.602649 
L 90.221925 435.859029 
L 91.464806 438.103092 
L 92.730064 440.334615 
L 94.017575 442.553373 
L 95.327208 444.759146 
L 96.658833 446.951713 
L 98.012317 449.130854 
L 99.387524 451.296351 
L 100.784317 453.447988 
L 102.202556 455.58555 
L 103.642099 457.708823 
L 105.102803 459.817594 
L 106.584521 461.911653 
L 108.087106 463.990791 
L 109.610406 466.054799 
L 111.15427 468.103471 
L 112.718543 470.136602 
L 114.303069 472.153989 
L 115.907689 474.155431 
L 117.532243 476.140726 
L 119.176568 478.109677 
L 120.840501 480.062086 
L 122.523874 481.997759 
L 124.226519 483.916501 
L 125.948266 485.818122 
L 127.688943 487.70243 
L 129.448375 489.569237 
L 131.226388 491.418357 
L 133.022802 493.249605 
L 134.837439 495.062797 
L 136.670117 496.857753 
L 138.520652 498.634292 
L 140.38886 500.392237 
L 142.274553 502.131413 
L 144.177544 503.851646 
L 146.097642 505.552762 
L 148.034654 507.234593 
L 149.988388 508.89697 
L 151.958648 510.539727 
L 153.945236 512.1627 
L 155.947955 513.765725 
L 157.966603 515.348644 
L 160.000979 516.911298 
L 162.05088 518.45353 
L 164.1161 519.975186 
L 166.196434 521.476114 
L 168.291672 522.956164 
L 170.401606 524.415188 
L 172.526025 525.853041 
L 174.664715 527.269577 
L 176.817464 528.664656 
L 178.984056 530.038139 
L 181.164274 531.389887 
L 183.3579 532.719765 
L 185.564715 534.027641 
L 187.784498 535.313385 
L 190.017028 536.576866 
L 192.26208 537.817959 
L 194.519431 539.03654 
L 196.788855 540.232487 
L 199.070124 541.40568 
L 201.363012 542.556003 
L 203.667287 543.683339 
L 205.982721 544.787576 
L 208.309081 545.868605 
L 210.646134 546.926316 
L 212.993648 547.960604 
L 215.351387 548.971366 
L 217.719116 549.9585 
L 220.096598 550.921908 
L 222.483594 551.861493 
L 224.879867 552.777162 
L 227.285177 553.668822 
L 229.699282 554.536386 
L 232.121943 555.379765 
L 234.552916 556.198876 
L 236.991959 556.993637 
L 239.438827 557.763967 
L 241.893276 558.509792 
L 244.35506 559.231034 
L 246.823933 559.927624 
L 249.299649 560.59949 
L 251.78196 561.246565 
L 254.270617 561.868786 
L 256.765372 562.46609 
L 259.265975 563.038416 
L 261.772176 563.585708 
L 264.283725 564.107911 
L 266.80037 564.604974 
L 269.321859 565.076845 
L 271.847942 565.523478 
L 274.378364 565.944828 
L 276.912873 566.340854 
L 279.451216 566.711515 
L 281.993138 567.056774 
L 284.538386 567.376598 
L 287.086704 567.670953 
L 289.637839 567.939811 
L 292.191535 568.183145 
L 294.747536 568.400929 
L 297.305588 568.593144 
L 299.865433 568.759769 
L 302.426817 568.900787 
L 304.989483 569.016185 
L 307.553174 569.105951 
L 310.117636 569.170076 
L 312.68261 569.208553 
L 315.24784 569.221379 
z
" clip-path="url(#p64114c7d5c)" style="fill: #e377c2"/>
   </g>
   <g id="patch_8">
    <path d="M 67.681315 337.75282 
L 67.44311 335.275943 
L 67.229684 332.796807 
L 67.041061 330.315662 
L 66.877258 327.832755 
L 66.738292 325.348333 
L 66.624176 322.862646 
L 66.534923 320.375943 
L 66.47054 317.888471 
L 66.431036 315.40048 
L 66.416412 312.912218 
L 66.426672 310.423934 
L 66.461814 307.935877 
L 66.521834 305.448297 
L 66.606726 302.96144 
L 66.716482 300.475557 
L 66.851092 297.990896 
L 67.01054 295.507705 
L 67.194812 293.026233 
L 67.40389 290.546727 
L 67.637751 288.069436 
L 67.896374 285.594608 
L 68.179731 283.122489 
L 68.487795 280.653328 
L 68.820534 278.187371 
L 69.177916 275.724864 
L 69.559905 273.266054 
L 69.966463 270.811187 
L 70.397548 268.360508 
L 70.770215 266.349479 
L 63.209051 264.916143 
L 62.824859 266.989368 
L 62.380441 269.515841 
L 61.961309 272.046632 
L 61.567506 274.581488 
L 61.199071 277.120154 
L 60.856041 279.662378 
L 60.538449 282.207905 
L 60.246328 284.756481 
L 59.979707 287.307851 
L 59.738613 289.861759 
L 59.523069 292.41795 
L 59.333098 294.976169 
L 59.168718 297.53616 
L 59.029946 300.097666 
L 58.916795 302.660432 
L 58.829277 305.224202 
L 58.767401 307.788718 
L 58.731172 310.353725 
L 58.720595 312.918966 
L 58.735671 315.484184 
L 58.776397 318.049124 
L 58.842771 320.613528 
L 58.934784 323.17714 
L 59.052429 325.739703 
L 59.195693 328.300962 
L 59.364563 330.860661 
L 59.55902 333.418543 
L 59.779046 335.974352 
L 60.024618 338.527833 
z
" clip-path="url(#p64114c7d5c)" style="fill: #7f7f7f"/>
   </g>
   <g id="patch_9">
    <path d="M 70.770215 266.349479 
L 71.245877 263.907061 
L 71.745938 261.469521 
L 72.27035 259.037104 
L 72.819059 256.610053 
L 73.392011 254.188609 
L 73.989148 251.773017 
L 74.610411 249.363516 
L 75.255737 246.960348 
L 75.925063 244.563754 
L 76.61832 242.173973 
L 77.335441 239.791243 
L 78.076352 237.415804 
L 78.84098 235.047892 
L 79.629249 232.687745 
L 80.441079 230.335599 
L 81.27639 227.991688 
L 82.135098 225.656248 
L 83.017117 223.329511 
L 83.922359 221.011711 
L 84.850733 218.703079 
L 85.802146 216.403846 
L 86.776504 214.114241 
L 87.773709 211.834495 
L 88.793662 209.564835 
L 89.836259 207.305487 
L 90.901397 205.056678 
L 91.98897 202.818633 
L 93.098869 200.591575 
L 94.230982 198.375728 
L 95.385197 196.171312 
L 96.561398 193.978548 
L 97.759467 191.797656 
L 98.979285 189.628853 
L 100.22073 187.472357 
L 101.483677 185.328382 
L 102.768 183.197145 
L 104.073572 181.078856 
L 105.40026 178.97373 
L 106.747933 176.881975 
L 108.116456 174.803801 
L 109.505692 172.739416 
L 110.915502 170.689027 
L 112.345745 168.652837 
L 113.796278 166.631052 
L 115.266956 164.623873 
L 116.757632 162.631501 
L 118.268156 160.654135 
L 119.798379 158.691973 
L 121.348146 156.745211 
L 122.917303 154.814044 
L 124.505693 152.898665 
L 126.113158 150.999265 
L 127.739535 149.116034 
L 129.384663 147.249161 
L 131.048377 145.398832 
L 132.730511 143.565233 
L 134.430897 141.748547 
L 136.149364 139.948955 
L 137.885741 138.166637 
L 139.639854 136.401772 
L 141.411527 134.654536 
L 143.200585 132.925103 
L 145.006846 131.213648 
L 146.830132 129.52034 
L 148.670259 127.84535 
L 150.527044 126.188844 
L 152.400301 124.550989 
L 154.289842 122.931948 
L 156.195479 121.331883 
L 158.117021 119.750953 
L 160.054277 118.189319 
L 162.007051 116.647134 
L 163.975149 115.124554 
L 165.958375 113.621731 
L 167.956529 112.138814 
L 169.969412 110.675953 
L 171.996823 109.233294 
L 174.038559 107.810981 
L 176.094416 106.409156 
L 178.164188 105.027959 
L 180.247668 103.667528 
L 182.344649 102.328 
L 184.454919 101.009509 
L 186.578269 99.712185 
L 188.714485 98.43616 
L 190.863355 97.181561 
L 193.024663 95.948512 
L 195.198193 94.737138 
L 197.383728 93.547559 
L 199.581049 92.379895 
L 201.789937 91.234262 
L 204.010171 90.110774 
L 206.241528 89.009545 
L 208.483786 87.930685 
L 210.73672 86.8743 
L 213.000106 85.840497 
L 215.273716 84.829379 
L 217.557323 83.841048 
L 219.850699 82.875602 
L 222.153615 81.933137 
L 224.46584 81.013748 
L 226.787143 80.117527 
L 229.117293 79.244564 
L 230.891693 78.597544 
L 228.28274 71.357446 
L 226.453461 72.024477 
L 224.051246 72.924439 
L 221.658149 73.848378 
L 219.274412 74.796202 
L 216.900272 75.767815 
L 214.535967 76.76312 
L 212.181732 77.782019 
L 209.837805 78.824408 
L 207.504418 79.890184 
L 205.181805 80.979241 
L 202.870199 82.091468 
L 200.569831 83.226756 
L 198.28093 84.38499 
L 196.003726 85.566055 
L 193.738446 86.769833 
L 191.485317 87.996203 
L 189.244564 89.245042 
L 187.016412 90.516226 
L 184.801082 91.809628 
L 182.598797 93.125118 
L 180.409777 94.462565 
L 178.234241 95.821834 
L 176.072405 97.202791 
L 173.924487 98.605297 
L 171.790702 100.029211 
L 169.671262 101.474392 
L 167.566379 102.940694 
L 165.476265 104.427971 
L 163.401128 105.936076 
L 161.341175 107.464855 
L 159.296612 109.014158 
L 157.267645 110.583828 
L 155.254476 112.173709 
L 153.257305 113.783642 
L 151.276334 115.413465 
L 149.31176 117.063017 
L 147.363779 118.732132 
L 145.432586 120.420642 
L 143.518375 122.12838 
L 141.621337 123.855174 
L 139.741661 125.600852 
L 137.879535 127.36524 
L 136.035147 129.148159 
L 134.208679 130.949434 
L 132.400315 132.768882 
L 130.610236 134.606323 
L 128.83862 136.461573 
L 127.085645 138.334446 
L 125.351487 140.224754 
L 123.636317 142.132309 
L 121.940309 144.056921 
L 120.263631 145.998395 
L 118.606452 147.95654 
L 116.968936 149.931158 
L 115.351248 151.922052 
L 113.75355 153.929023 
L 112.176001 155.95187 
L 110.618759 157.990392 
L 109.08198 160.044384 
L 107.565817 162.113641 
L 106.070422 164.197955 
L 104.595945 166.297119 
L 103.142533 168.410923 
L 101.710331 170.539155 
L 100.299482 172.681602 
L 98.910129 174.83805 
L 97.542409 177.008284 
L 96.196459 179.192086 
L 94.872414 181.389239 
L 93.570407 183.599521 
L 92.290567 185.822713 
L 91.033023 188.058592 
L 89.7979 190.306935 
L 88.585321 192.567516 
L 87.395409 194.84011 
L 86.228282 197.124489 
L 85.084057 199.420425 
L 83.962848 201.727688 
L 82.864767 204.046047 
L 81.789924 206.375272 
L 80.738427 208.715128 
L 79.710381 211.065382 
L 78.705888 213.425799 
L 77.725049 215.796142 
L 76.767962 218.176175 
L 75.834723 220.56566 
L 74.925425 222.964358 
L 74.04016 225.372028 
L 73.179014 227.788431 
L 72.342076 230.213324 
L 71.529428 232.646465 
L 70.741151 235.087611 
L 69.977325 237.536518 
L 69.238026 239.99294 
L 68.523327 242.456632 
L 67.833301 244.927348 
L 67.168016 247.40484 
L 66.527539 249.888861 
L 65.911934 252.379163 
L 65.321262 254.875496 
L 64.755582 257.377612 
L 64.214952 259.885258 
L 63.699424 262.398186 
L 63.209051 264.916143 
z
" clip-path="url(#p64114c7d5c)" style="fill: #bcbd22"/>
   </g>
   <g id="patch_10">
    <path d="M 230.891693 78.597544 
L 233.236837 77.765701 
L 235.590181 76.957351 
L 237.951492 76.172574 
L 240.320532 75.41145 
L 242.697064 74.674053 
L 245.080852 73.960458 
L 247.471656 73.270737 
L 249.869238 72.604957 
L 252.273358 71.963186 
L 254.683775 71.345488 
L 257.100248 70.751925 
L 259.522536 70.182556 
L 261.950397 69.637438 
L 264.383587 69.116625 
L 266.821864 68.62017 
L 269.264983 68.148122 
L 271.712701 67.700528 
L 274.164772 67.277433 
L 276.620951 66.87888 
L 279.080993 66.504908 
L 281.544652 66.155555 
L 284.01168 65.830856 
L 286.481833 65.530842 
L 288.954862 65.255545 
L 291.43052 65.004992 
L 293.90856 64.779207 
L 296.388734 64.578213 
L 298.870794 64.402031 
L 301.354491 64.250678 
L 303.839578 64.124169 
L 306.325806 64.022516 
L 308.812926 63.945731 
L 311.300689 63.89382 
L 313.788847 63.866789 
L 315.24784 63.862512 
L 315.24784 56.166691 
L 313.743724 56.171101 
L 311.178612 56.198968 
L 308.613908 56.252484 
L 306.049867 56.331645 
L 303.486745 56.436441 
L 300.9248 56.566863 
L 298.364287 56.722897 
L 295.805463 56.904528 
L 293.248582 57.111738 
L 290.693902 57.344506 
L 288.141677 57.602808 
L 285.592163 57.88662 
L 283.045614 58.195912 
L 280.502285 58.530654 
L 277.962431 58.890812 
L 275.426305 59.27635 
L 272.894161 59.687229 
L 270.366253 60.123409 
L 267.842833 60.584846 
L 265.324153 61.071493 
L 262.810466 61.583303 
L 260.302023 62.120223 
L 257.799073 62.682201 
L 255.301869 63.26918 
L 252.810659 63.8811 
L 250.325693 64.517902 
L 247.84722 65.179522 
L 245.375486 65.865892 
L 242.910739 66.576946 
L 240.453226 67.31261 
L 238.003192 68.072813 
L 235.560883 68.857477 
L 233.126542 69.666525 
L 230.700414 70.499876 
L 228.28274 71.357446 
z
" clip-path="url(#p64114c7d5c)" style="fill: #17becf"/>
   </g>
   <g id="PatchCollection_1">
    <path d="M 230.891693 78.597544 
L 230.891693 78.597544 
L 233.236837 77.765701 
L 235.590181 76.957351 
L 237.951492 76.172574 
L 240.320532 75.41145 
L 242.697064 74.674053 
L 244.518568 74.126441 
L 244.518568 74.126441 
Q 315.24784 312.694035 533.092938 192.441632 
L 533.092938 192.441632 
L 533.092938 192.441632 
L 534.28455 194.626059 
L 535.454258 196.822293 
L 536.601946 199.030114 
L 537.727499 201.249301 
L 538.830804 203.479633 
L 539.659088 205.191853 
L 539.659088 205.191853 
Q 315.24784 312.694035 230.891693 78.597544 
z
" clip-path="url(#p64114c7d5c)" style="fill: #17becf; fill-opacity: 0.5; stroke: #808080; stroke-opacity: 0.5; stroke-width: 0.1"/>
    <path d="M 244.518568 74.126441 
L 244.518568 74.126441 
L 246.90774 73.431088 
L 249.303747 72.759662 
L 251.422975 72.18725 
L 251.422975 72.18725 
Q 315.24784 312.694035 494.960322 140.587815 
L 494.960322 140.587815 
L 494.960322 140.587815 
L 496.67237 142.393515 
L 498.366275 144.216245 
L 499.845433 145.838242 
L 499.845433 145.838242 
Q 315.24784 312.694035 244.518568 74.126441 
z
" clip-path="url(#p64114c7d5c)" style="fill: #17becf; fill-opacity: 0.5; stroke: #808080; stroke-opacity: 0.5; stroke-width: 0.1"/>
    <path d="M 251.422975 72.18725 
L 251.422975 72.18725 
L 253.831194 71.561038 
L 256.245554 70.958938 
L 258.665815 70.381012 
L 261.091734 69.827316 
L 263.523068 69.297907 
L 265.385058 68.909643 
L 265.385058 68.909643 
Q 315.24784 312.694035 399.603988 78.597544 
L 399.603988 78.597544 
L 399.603988 78.597544 
L 401.940696 79.452796 
L 404.268735 80.331372 
L 406.587872 81.233184 
L 408.897875 82.158142 
L 411.198513 83.106153 
L 412.95064 83.846291 
L 412.95064 83.846291 
Q 315.24784 312.694035 251.422975 72.18725 
z
" clip-path="url(#p64114c7d5c)" style="fill: #17becf; fill-opacity: 0.5; stroke: #808080; stroke-opacity: 0.5; stroke-width: 0.1"/>
    <path d="M 70.770215 266.349479 
L 70.770215 266.349479 
L 71.245877 263.907061 
L 71.745938 261.469521 
L 72.27035 259.037104 
L 72.819059 256.610053 
L 73.392011 254.188609 
L 73.989148 251.773017 
L 74.610411 249.363516 
L 75.255737 246.960348 
L 75.685775 245.40998 
L 75.685775 245.40998 
Q 315.24784 312.694035 412.95064 541.54178 
L 412.95064 541.54178 
L 412.95064 541.54178 
L 410.657315 542.507349 
L 408.35445 543.449937 
L 406.042274 544.36945 
L 403.721019 545.265796 
L 401.390917 546.138884 
L 399.0522 546.988629 
L 396.705103 547.814944 
L 394.34986 548.617747 
L 392.822769 549.124274 
L 392.822769 549.124274 
Q 315.24784 312.694035 70.770215 266.349479 
z
" clip-path="url(#p64114c7d5c)" style="fill: #bcbd22; fill-opacity: 0.5; stroke: #808080; stroke-opacity: 0.5; stroke-width: 0.1"/>
    <path d="M 75.685775 245.40998 
L 75.685775 245.40998 
L 76.370583 243.017763 
L 77.079278 240.632514 
L 77.811789 238.254471 
L 78.568044 235.883872 
L 79.347967 233.520954 
L 80.151479 231.165953 
L 80.978501 228.819105 
L 81.82895 226.480645 
L 82.70274 224.150805 
L 83.599785 221.82982 
L 84.519994 219.517921 
L 85.463276 217.21534 
L 86.429536 214.922307 
L 87.418678 212.63905 
L 88.430603 210.365799 
L 89.465209 208.102781 
L 90.522393 205.850222 
L 91.60205 203.608347 
L 92.70407 201.377381 
L 93.828346 199.157546 
L 94.974762 196.949065 
L 96.143206 194.752158 
L 97.333561 192.567045 
L 97.402743 192.441632 
L 97.402743 192.441632 
Q 315.24784 312.694035 539.659088 205.191853 
L 539.659088 205.191853 
L 539.659088 205.191853 
L 540.722871 207.441303 
L 541.764107 209.701279 
L 542.782692 211.971553 
L 543.778523 214.2519 
L 544.751502 216.542091 
L 545.70153 218.841897 
L 546.628513 221.151088 
L 547.532359 223.469433 
L 548.412976 225.796701 
L 549.270276 228.132658 
L 550.104175 230.477071 
L 550.914588 232.829706 
L 551.701435 235.190328 
L 552.464637 237.558699 
L 553.204117 239.934585 
L 553.919801 242.317746 
L 554.611619 244.707944 
L 555.279501 247.104941 
L 555.923379 249.508497 
L 556.54319 251.918372 
L 557.138872 254.334324 
L 557.710365 256.756112 
L 558.257612 259.183494 
L 558.288373 259.323381 
L 558.288373 259.323381 
Q 315.24784 312.694035 75.685775 245.40998 
z
" clip-path="url(#p64114c7d5c)" style="fill: #bcbd22; fill-opacity: 0.5; stroke: #808080; stroke-opacity: 0.5; stroke-width: 0.1"/>
    <path d="M 97.402743 192.441632 
L 97.402743 192.441632 
L 98.616139 190.26923 
L 99.851198 188.10907 
L 101.107797 185.961369 
L 102.385809 183.82634 
L 103.685108 181.704199 
L 105.005562 179.595156 
L 106.347041 177.499424 
L 107.709409 175.41721 
L 109.092532 173.348724 
L 110.496269 171.294173 
L 111.920482 169.253761 
L 113.365027 167.227693 
L 114.82976 165.216172 
L 116.314535 163.219398 
L 117.819203 161.237572 
L 119.343614 159.270891 
L 120.887615 157.319553 
L 121.343962 156.750414 
L 121.343962 156.750414 
Q 315.24784 312.694035 499.845433 145.838242 
L 499.845433 145.838242 
L 499.845433 145.838242 
L 501.504734 147.69253 
L 503.145408 149.563318 
L 504.767293 151.450418 
L 506.370227 153.353643 
L 507.954048 155.272802 
L 509.518599 157.207703 
L 511.063723 159.158153 
L 512.589266 161.123956 
L 514.095074 163.104916 
L 515.580998 165.100834 
L 517.046889 167.111512 
L 518.4926 169.136748 
L 519.917987 171.176339 
L 521.322907 173.230083 
L 522.707219 175.297772 
L 524.070786 177.379201 
L 525.413471 179.474161 
L 525.803129 180.090877 
L 525.803129 180.090877 
Q 315.24784 312.694035 97.402743 192.441632 
z
" clip-path="url(#p64114c7d5c)" style="fill: #bcbd22; fill-opacity: 0.5; stroke: #808080; stroke-opacity: 0.5; stroke-width: 0.1"/>
    <path d="M 121.343962 156.750414 
L 121.343962 156.750414 
L 122.913067 154.819205 
L 124.501406 152.903783 
L 126.108819 151.00434 
L 127.735146 149.121066 
L 129.380224 147.254149 
L 131.043888 145.403775 
L 132.725973 143.570131 
L 134.42631 141.753399 
L 136.144729 139.953761 
L 137.881058 138.171396 
L 139.635123 136.406484 
L 141.40675 134.6592 
L 143.195761 132.92972 
L 145.001976 131.218216 
L 146.825217 129.52486 
L 148.665299 127.84982 
L 150.522039 126.193264 
L 151.069512 125.711139 
L 151.069512 125.711139 
Q 315.24784 312.694035 412.95064 83.846291 
L 412.95064 83.846291 
L 412.95064 83.846291 
L 415.234194 84.834745 
L 417.50775 85.845985 
L 419.771079 86.879909 
L 422.023957 87.936415 
L 424.266157 89.015396 
L 426.497455 90.116745 
L 428.717629 91.240351 
L 430.926455 92.386103 
L 433.123714 93.553885 
L 435.309185 94.743581 
L 437.48265 95.955072 
L 439.643892 97.188236 
L 441.792694 98.442951 
L 443.928842 99.719091 
L 446.052122 101.016528 
L 448.162322 102.335133 
L 450.25923 103.674774 
L 450.871432 104.071485 
L 450.871432 104.071485 
Q 315.24784 312.694035 121.343962 156.750414 
z
" clip-path="url(#p64114c7d5c)" style="fill: #bcbd22; fill-opacity: 0.5; stroke: #808080; stroke-opacity: 0.5; stroke-width: 0.1"/>
    <path d="M 151.069512 125.711139 
L 151.069512 125.711139 
L 152.947518 124.078732 
L 154.841755 122.465187 
L 156.752032 120.870664 
L 158.678158 119.295323 
L 160.619942 117.739322 
L 162.577188 116.202817 
L 164.549701 114.68596 
L 166.537283 113.188904 
L 168.539737 111.711799 
L 170.556861 110.254791 
L 172.588454 108.818027 
L 174.634313 107.401651 
L 176.694233 106.005804 
L 178.768009 104.630625 
L 180.855432 103.276253 
L 182.956295 101.942822 
L 185.070386 100.630466 
L 187.197495 99.339316 
L 189.33741 98.069501 
L 191.489915 96.821149 
L 193.654795 95.594384 
L 195.831835 94.389329 
L 198.020817 93.206104 
L 200.221521 92.044828 
L 202.433727 90.905616 
L 204.522948 89.855248 
L 204.522948 89.855248 
Q 315.24784 312.694035 315.24784 63.862512 
L 315.24784 63.862512 
L 315.24784 63.862512 
L 317.736114 63.874953 
L 320.224139 63.912276 
L 322.711666 63.974478 
L 325.198447 64.06155 
L 327.684233 64.173486 
L 330.168775 64.310274 
L 332.651826 64.4719 
L 335.133135 64.658348 
L 337.612457 64.869599 
L 340.089542 65.105633 
L 342.564142 65.366425 
L 345.036011 65.65195 
L 347.504902 65.962179 
L 349.970566 66.29708 
L 352.432759 66.656622 
L 354.891232 67.040766 
L 357.345742 67.449476 
L 359.796042 67.88271 
L 362.241887 68.340425 
L 364.683033 68.822576 
L 367.119235 69.329113 
L 369.55025 69.859986 
L 371.975835 70.415143 
L 374.395747 70.994527 
L 376.809744 71.598081 
L 379.072706 72.18725 
L 379.072706 72.18725 
Q 315.24784 312.694035 151.069512 125.711139 
z
" clip-path="url(#p64114c7d5c)" style="fill: #bcbd22; fill-opacity: 0.5; stroke: #808080; stroke-opacity: 0.5; stroke-width: 0.1"/>
    <path d="M 67.681315 337.75282 
L 67.681315 337.75282 
L 67.44311 335.275943 
L 67.229684 332.796807 
L 67.041061 330.315662 
L 66.877258 327.832755 
L 66.738292 325.348333 
L 66.624176 322.862646 
L 66.534923 320.375943 
L 66.47054 317.888471 
L 66.442155 316.279816 
L 66.442155 316.279816 
Q 315.24784 312.694035 558.288373 259.323381 
L 558.288373 259.323381 
L 558.288373 259.323381 
L 558.809918 261.756414 
L 559.307108 264.194541 
L 559.779892 266.637518 
L 560.228223 269.085101 
L 560.652056 271.537044 
L 561.051349 273.993103 
L 561.426062 276.453032 
L 561.776157 278.916586 
L 561.989402 280.511296 
L 561.989402 280.511296 
Q 315.24784 312.694035 67.681315 337.75282 
z
" clip-path="url(#p64114c7d5c)" style="fill: #7f7f7f; fill-opacity: 0.5; stroke: #808080; stroke-opacity: 0.5; stroke-width: 0.1"/>
    <path d="M 66.442155 316.279816 
L 66.442155 316.279816 
L 66.418738 313.791622 
L 66.420203 311.303317 
L 66.446551 308.815152 
L 66.49778 306.327374 
L 66.573883 303.840233 
L 66.674853 301.353978 
L 66.80068 298.868857 
L 66.951352 296.385118 
L 67.061992 294.780021 
L 67.061992 294.780021 
Q 315.24784 312.694035 450.871432 104.071485 
L 450.871432 104.071485 
L 450.871432 104.071485 
L 452.950842 105.438129 
L 455.016481 106.825499 
L 457.068144 108.233456 
L 459.105625 109.661858 
L 461.12872 111.110563 
L 463.137227 112.579427 
L 465.130945 114.068302 
L 467.109675 115.577039 
L 468.381021 116.563069 
L 468.381021 116.563069 
Q 315.24784 312.694035 66.442155 316.279816 
z
" clip-path="url(#p64114c7d5c)" style="fill: #7f7f7f; fill-opacity: 0.5; stroke: #808080; stroke-opacity: 0.5; stroke-width: 0.1"/>
    <path d="M 67.061992 294.780021 
L 67.061992 294.780021 
L 67.253539 292.2991 
L 67.469884 289.820218 
L 67.711007 287.343623 
L 67.976884 284.869564 
L 68.267487 282.398287 
L 68.582789 279.930039 
L 68.922756 277.465068 
L 69.287356 275.003619 
L 69.536197 273.414074 
L 69.536197 273.414074 
Q 315.24784 312.694035 379.072706 72.18725 
L 379.072706 72.18725 
L 379.072706 72.18725 
L 381.474543 72.837514 
L 383.869757 73.511762 
L 386.258108 74.209929 
L 388.639359 74.931944 
L 391.013271 75.677735 
L 393.379606 76.447227 
L 395.738128 77.240344 
L 398.088602 78.057006 
L 399.603988 78.597544 
L 399.603988 78.597544 
Q 315.24784 312.694035 67.061992 294.780021 
z
" clip-path="url(#p64114c7d5c)" style="fill: #7f7f7f; fill-opacity: 0.5; stroke: #808080; stroke-opacity: 0.5; stroke-width: 0.1"/>
    <path d="M 315.24784 561.525559 
L 315.24784 561.525559 
L 312.759567 561.513117 
L 310.271542 561.475794 
L 307.784014 561.413593 
L 305.297233 561.32652 
L 302.811448 561.214584 
L 300.326905 561.077797 
L 297.843855 560.916171 
L 295.362545 560.729723 
L 292.883224 560.518471 
L 290.406139 560.282438 
L 287.931539 560.021646 
L 285.459669 559.736121 
L 282.990779 559.425892 
L 280.525115 559.09099 
L 278.062922 558.731449 
L 275.604448 558.347304 
L 273.149939 557.938595 
L 272.431136 557.814122 
L 272.431136 557.814122 
Q 315.24784 312.694035 561.989402 280.511296 
L 561.989402 280.511296 
L 561.989402 280.511296 
L 562.298887 282.98028 
L 562.583668 285.452235 
L 562.843714 287.926914 
L 563.079002 290.40407 
L 563.289506 292.883455 
L 563.475207 295.364821 
L 563.636085 297.847919 
L 563.772124 300.332503 
L 563.883311 302.818322 
L 563.969635 305.305129 
L 564.031087 307.792675 
L 564.067661 310.280711 
L 564.079353 312.768989 
L 564.066162 315.257258 
L 564.028089 317.745272 
L 563.965139 320.232781 
L 563.877317 322.719535 
L 563.846856 323.448399 
L 563.846856 323.448399 
Q 315.24784 312.694035 315.24784 561.525559 
z
" clip-path="url(#p64114c7d5c)" style="fill: #e377c2; fill-opacity: 0.5; stroke: #808080; stroke-opacity: 0.5; stroke-width: 0.1"/>
    <path d="M 272.431136 557.814122 
L 272.431136 557.814122 
L 269.982117 557.373706 
L 267.537624 556.908823 
L 265.097902 556.419518 
L 262.663195 555.905841 
L 260.233747 555.367843 
L 258.380398 554.940235 
L 258.380398 554.940235 
Q 315.24784 312.694035 525.803129 180.090877 
L 525.803129 180.090877 
L 525.803129 180.090877 
L 527.118611 182.203025 
L 528.412905 184.328222 
L 529.685884 186.466255 
L 530.937419 188.616911 
L 532.167385 190.779975 
L 533.092938 192.441632 
L 533.092938 192.441632 
Q 315.24784 312.694035 272.431136 557.814122 
z
" clip-path="url(#p64114c7d5c)" style="fill: #e377c2; fill-opacity: 0.5; stroke: #808080; stroke-opacity: 0.5; stroke-width: 0.1"/>
    <path d="M 258.380398 554.940235 
L 258.380398 554.940235 
L 255.960819 554.359458 
L 253.54717 553.754514 
L 251.13969 553.125465 
L 248.738621 552.472372 
L 246.344203 551.795302 
L 243.956676 551.094323 
L 241.576277 550.369503 
L 239.203246 549.620916 
L 237.672912 549.124274 
L 237.672912 549.124274 
Q 315.24784 312.694035 468.381021 116.563069 
L 468.381021 116.563069 
L 468.381021 116.563069 
L 470.334642 118.104182 
L 472.272754 119.664753 
L 474.195163 121.244628 
L 476.101678 122.843647 
L 477.992108 124.461651 
L 479.866263 126.098478 
L 481.723957 127.753964 
L 483.565003 129.427945 
L 484.746448 130.520082 
L 484.746448 130.520082 
Q 315.24784 312.694035 258.380398 554.940235 
z
" clip-path="url(#p64114c7d5c)" style="fill: #e377c2; fill-opacity: 0.5; stroke: #808080; stroke-opacity: 0.5; stroke-width: 0.1"/>
    <path d="M 392.822769 549.124274 
L 392.822769 549.124274 
L 390.454628 549.888189 
L 388.078965 550.628384 
L 385.69602 551.344787 
L 383.30603 552.037324 
L 380.909234 552.705928 
L 378.505872 553.35053 
L 376.096184 553.971067 
L 373.680412 554.567477 
L 371.258796 555.139699 
L 368.831579 555.687677 
L 366.399004 556.211356 
L 363.961314 556.710684 
L 361.518753 557.18561 
L 359.071564 557.636086 
L 356.619993 558.062069 
L 354.164285 558.463516 
L 351.704685 558.840385 
L 349.24144 559.19264 
L 346.774796 559.520246 
L 344.304998 559.823169 
L 341.832295 560.101379 
L 339.356934 560.354849 
L 336.879161 560.583553 
L 334.399226 560.787468 
L 331.917376 560.966575 
L 329.433858 561.120854 
L 326.948922 561.25029 
L 324.462816 561.354871 
L 321.975788 561.434587 
L 319.488088 561.489428 
L 316.999963 561.51939 
L 315.24784 561.525559 
L 315.24784 561.525559 
Q 315.24784 312.694035 237.672912 549.124274 
L 237.672912 549.124274 
L 237.672912 549.124274 
L 235.312527 548.336716 
L 232.960136 547.525594 
L 230.615974 546.690989 
L 228.280275 545.832985 
L 225.953273 544.951667 
L 223.6352 544.047123 
L 221.326288 543.119445 
L 219.026769 542.168724 
L 216.736871 541.195055 
L 214.456825 540.198537 
L 212.186857 539.179269 
L 209.927195 538.137352 
L 207.678066 537.072891 
L 205.439693 535.985992 
L 203.212301 534.876764 
L 200.996113 533.745319 
L 198.791349 532.591768 
L 196.598231 531.416228 
L 194.416978 530.218815 
L 192.247808 528.999651 
L 190.090938 527.758856 
L 187.946583 526.496554 
L 185.814959 525.212873 
L 183.696277 523.90794 
L 181.590751 522.581886 
L 179.49859 521.234843 
L 177.420005 519.866946 
L 175.355201 518.478332 
L 173.304387 517.06914 
L 171.267767 515.63951 
L 169.245545 514.189586 
L 167.830354 513.15653 
L 167.830354 513.15653 
Q 315.24784 312.694035 392.822769 549.124274 
z
" clip-path="url(#p64114c7d5c)" style="fill: #8c564b; fill-opacity: 0.5; stroke: #808080; stroke-opacity: 0.5; stroke-width: 0.1"/>
    <path d="M 563.846856 323.448399 
L 563.846856 323.448399 
L 563.726885 325.93381 
L 563.582065 328.417898 
L 563.412413 330.900412 
L 563.217944 333.381106 
L 562.998678 335.859732 
L 562.754638 338.33604 
L 562.485847 340.809785 
L 562.192332 343.280718 
L 561.874123 345.748593 
L 561.531252 348.213162 
L 561.163752 350.674179 
L 560.771662 353.131398 
L 560.355019 355.584573 
L 559.913865 358.03346 
L 559.448245 360.477812 
L 558.958206 362.917386 
L 558.443795 365.351938 
L 557.905065 367.781224 
L 557.34207 370.205002 
L 556.754865 372.623028 
L 556.649399 373.046456 
L 556.649399 373.046456 
Q 315.24784 312.694035 265.385058 68.909643 
L 265.385058 68.909643 
L 265.385058 68.909643 
L 267.825354 68.423213 
L 270.270393 67.961209 
L 272.719929 67.523679 
L 275.173718 67.110665 
L 277.631514 66.722209 
L 280.093072 66.358351 
L 282.558146 66.019126 
L 285.026488 65.704568 
L 287.497853 65.414709 
L 289.971993 65.149577 
L 292.44866 64.9092 
L 294.927607 64.693601 
L 297.408586 64.502802 
L 299.891349 64.336822 
L 302.375647 64.195678 
L 304.861233 64.079383 
L 307.347857 63.987949 
L 309.835272 63.921386 
L 312.323227 63.879699 
L 314.811476 63.862894 
L 315.24784 63.862512 
L 315.24784 63.862512 
Q 315.24784 312.694035 563.846856 323.448399 
z
" clip-path="url(#p64114c7d5c)" style="fill: #d62728; fill-opacity: 0.5; stroke: #808080; stroke-opacity: 0.5; stroke-width: 0.1"/>
    <path d="M 556.649399 373.046456 
L 556.649399 373.046456 
L 556.033815 375.457414 
L 555.394152 377.862096 
L 554.730475 380.26026 
L 554.04285 382.651668 
L 553.331346 385.036081 
L 552.596033 387.413259 
L 551.836986 389.782966 
L 551.05428 392.144963 
L 550.247994 394.499016 
L 549.418208 396.844888 
L 548.565005 399.182345 
L 548.104412 400.414866 
L 548.104412 400.414866 
Q 315.24784 312.694035 204.522948 89.855248 
L 204.522948 89.855248 
L 204.522948 89.855248 
L 206.756835 88.759159 
L 209.001571 87.685464 
L 211.256931 86.634269 
L 213.522691 85.60568 
L 215.798623 84.5998 
L 218.084499 83.616729 
L 220.380092 82.656566 
L 222.685172 81.719406 
L 224.999508 80.805343 
L 227.322869 79.914469 
L 229.655022 79.046873 
L 230.891693 78.597544 
L 230.891693 78.597544 
Q 315.24784 312.694035 556.649399 373.046456 
z
" clip-path="url(#p64114c7d5c)" style="fill: #d62728; fill-opacity: 0.5; stroke: #808080; stroke-opacity: 0.5; stroke-width: 0.1"/>
    <path d="M 548.104412 400.414866 
L 548.104412 400.414866 
L 547.215576 402.739007 
L 546.303543 405.054143 
L 545.479766 407.088885 
L 545.479766 407.088885 
Q 315.24784 312.694035 69.536197 273.414074 
L 69.536197 273.414074 
L 69.536197 273.414074 
L 69.941275 270.958962 
L 70.370884 268.508024 
L 70.770215 266.349479 
L 70.770215 266.349479 
Q 315.24784 312.694035 548.104412 400.414866 
z
" clip-path="url(#p64114c7d5c)" style="fill: #d62728; fill-opacity: 0.5; stroke: #808080; stroke-opacity: 0.5; stroke-width: 0.1"/>
    <path d="M 545.479766 407.088885 
L 545.479766 407.088885 
L 544.524322 409.386446 
L 543.54595 411.674338 
L 542.544749 413.952332 
L 541.520818 416.2202 
L 540.47426 418.477716 
L 539.405179 420.724654 
L 538.313683 422.960788 
L 537.199881 425.185896 
L 536.063884 427.399755 
L 534.905805 429.602143 
L 533.725761 431.792841 
L 532.523869 433.971629 
L 531.300249 436.138289 
L 530.055025 438.292605 
L 528.78832 440.434361 
L 527.500261 442.563343 
L 526.190977 444.679339 
L 524.860599 446.782136 
L 523.509259 448.871524 
L 522.137094 450.947295 
L 520.74424 453.00924 
L 519.330837 455.057154 
L 517.897025 457.090832 
L 516.442949 459.110071 
L 514.968753 461.114667 
L 513.474586 463.104422 
L 511.960596 465.079136 
L 510.426935 467.038612 
L 508.873756 468.982653 
L 507.301214 470.911066 
L 505.709468 472.823656 
L 504.098675 474.720235 
L 502.468998 476.60061 
L 500.820599 478.464595 
L 499.153642 480.312004 
L 497.468295 482.14265 
L 495.764726 483.956352 
L 494.043106 485.752928 
L 492.303606 487.532198 
L 490.546401 489.293984 
L 488.771666 491.03811 
L 486.979579 492.764403 
L 485.170319 494.472688 
L 483.344066 496.162795 
L 481.501005 497.834556 
L 479.641318 499.487803 
L 477.765191 501.122371 
L 475.872814 502.738096 
L 473.964374 504.334817 
L 472.040062 505.912374 
L 470.100071 507.470609 
L 468.144595 509.009367 
L 466.17383 510.528493 
L 464.187972 512.027836 
L 462.18722 513.507246 
L 460.171775 514.966575 
L 458.141837 516.405677 
L 456.09761 517.824407 
L 454.039298 519.222625 
L 451.967107 520.60019 
L 449.881244 521.956965 
L 447.781918 523.292813 
L 445.669339 524.607602 
L 443.543718 525.9012 
L 441.405267 527.173477 
L 439.2542 528.424306 
L 437.090733 529.653563 
L 434.915082 530.861124 
L 432.727464 532.046868 
L 430.528098 533.210677 
L 428.317205 534.352435 
L 426.095004 535.472027 
L 423.861719 536.569341 
L 421.617573 537.644268 
L 419.36279 538.6967 
L 417.097595 539.726532 
L 414.822215 540.733661 
L 412.95064 541.54178 
L 412.95064 541.54178 
Q 315.24784 312.694035 167.830354 513.15653 
L 167.830354 513.15653 
L 167.830354 513.15653 
L 165.833133 511.672357 
L 163.850854 510.168286 
L 161.883714 508.644467 
L 159.93191 507.101054 
L 157.995638 505.538201 
L 156.075091 503.956063 
L 154.170461 502.354799 
L 152.281939 500.734569 
L 150.409713 499.095535 
L 148.553971 497.437861 
L 146.714898 495.761713 
L 144.892679 494.067258 
L 143.087494 492.354667 
L 141.299526 490.624109 
L 139.528952 488.875758 
L 137.77595 487.10979 
L 136.040695 485.32638 
L 134.323361 483.525707 
L 132.624119 481.70795 
L 130.943139 479.873293 
L 129.280589 478.021918 
L 127.636636 476.15401 
L 126.011444 474.269756 
L 124.405176 472.369345 
L 122.817991 470.452967 
L 121.25005 468.520812 
L 119.701508 466.573075 
L 118.17252 464.609951 
L 116.66324 462.631635 
L 115.173818 460.638325 
L 113.704404 458.630221 
L 112.255143 456.607523 
L 110.826182 454.570435 
L 109.417663 452.519158 
L 108.029726 450.4539 
L 106.662511 448.374865 
L 105.316155 446.282263 
L 103.990791 444.176302 
L 102.686553 442.057192 
L 101.403571 439.925147 
L 100.141973 437.780378 
L 98.901886 435.623101 
L 97.683433 433.453531 
L 96.486736 431.271885 
L 95.311916 429.078382 
L 94.159088 426.87324 
L 93.02837 424.656681 
L 91.919873 422.428925 
L 90.833708 420.190196 
L 89.769985 417.940717 
L 88.72881 415.680714 
L 87.710286 413.410412 
L 86.714516 411.130038 
L 85.741599 408.839822 
L 84.791632 406.53999 
L 83.864711 404.230774 
L 82.960928 401.912405 
L 82.080373 399.585113 
L 81.223135 397.249133 
L 80.3893 394.904697 
L 79.578949 392.552041 
L 78.792166 390.191398 
L 78.029028 387.823006 
L 77.289612 385.447101 
L 76.573991 383.063921 
L 75.882237 380.673703 
L 75.21442 378.276688 
L 74.570606 375.873115 
L 73.95086 373.463224 
L 73.355243 371.047256 
L 72.783815 368.625453 
L 72.236633 366.198056 
L 71.713752 363.765309 
L 71.215225 361.327456 
L 70.7411 358.884738 
L 70.291426 356.437402 
L 69.866247 353.985692 
L 69.536197 351.973997 
L 69.536197 351.973997 
Q 315.24784 312.694035 545.479766 407.088885 
z
" clip-path="url(#p64114c7d5c)" style="fill: #d62728; fill-opacity: 0.5; stroke: #808080; stroke-opacity: 0.5; stroke-width: 0.1"/>
    <path d="M 484.746448 130.520082 
L 484.746448 130.520082 
L 486.559682 132.224148 
L 488.355785 133.946262 
L 490.134578 135.68625 
L 491.895882 137.443938 
L 493.639521 139.219152 
L 494.960322 140.587815 
L 494.960322 140.587815 
Q 315.24784 312.694035 69.536197 351.973997 
L 69.536197 351.973997 
L 69.536197 351.973997 
L 69.155689 349.514957 
L 68.799791 347.052236 
L 68.468537 344.586078 
L 68.16196 342.116732 
L 67.880093 339.644443 
L 67.681315 337.75282 
L 67.681315 337.75282 
Q 315.24784 312.694035 484.746448 130.520082 
z
" clip-path="url(#p64114c7d5c)" style="fill: #ff7f0e; fill-opacity: 0.5; stroke: #808080; stroke-opacity: 0.5; stroke-width: 0.1"/>
   </g>
   <g id="patch_11">
    <path d="M 315.24784 63.862512 
L 317.736114 63.874953 
L 320.224139 63.912276 
L 322.711666 63.974478 
L 325.198447 64.06155 
L 327.684233 64.173486 
L 330.168775 64.310274 
L 332.651826 64.4719 
L 335.133135 64.658348 
L 337.612457 64.869599 
L 340.089542 65.105633 
L 342.564142 65.366425 
L 345.036011 65.65195 
L 347.504902 65.962179 
L 349.970566 66.29708 
L 352.432759 66.656622 
L 354.891232 67.040766 
L 357.345742 67.449476 
L 359.796042 67.88271 
L 362.241887 68.340425 
L 364.683033 68.822576 
L 367.119235 69.329113 
L 369.55025 69.859986 
L 371.975835 70.415143 
L 374.395747 70.994527 
L 376.809744 71.598081 
L 379.217586 72.225745 
L 381.61903 72.877455 
L 384.013837 73.553146 
L 386.401768 74.252752 
L 388.782584 74.976201 
L 391.156046 75.723422 
L 393.521917 76.49434 
L 395.879961 77.288878 
L 398.229942 78.106956 
L 399.603988 78.597544 
L 402.212941 71.357446 
L 400.796398 70.851685 
L 398.373738 70.008306 
L 395.942765 69.189195 
L 393.503722 68.394434 
L 391.056854 67.624103 
L 388.602405 66.878279 
L 386.140621 66.157036 
L 383.671747 65.460447 
L 381.196032 64.788581 
L 378.713721 64.141505 
L 376.225064 63.519285 
L 373.730309 62.921981 
L 371.229706 62.349655 
L 368.723505 61.802363 
L 366.211956 61.280159 
L 363.695311 60.783097 
L 361.173821 60.311226 
L 358.647739 59.864593 
L 356.117317 59.443243 
L 353.582808 59.047217 
L 351.044465 58.676556 
L 348.502543 58.331296 
L 345.957295 58.011473 
L 343.408976 57.717118 
L 340.857842 57.44826 
L 338.304146 57.204926 
L 335.748145 56.987141 
L 333.190093 56.794927 
L 330.630248 56.628302 
L 328.068864 56.487284 
L 325.506198 56.371886 
L 322.942506 56.28212 
L 320.378045 56.217995 
L 317.813071 56.179518 
L 315.24784 56.166691 
L 315.24784 63.862512 
z
" clip-path="url(#p64114c7d5c)" style="fill: none; stroke: #000000; stroke-width: 0.5; stroke-linejoin: miter"/>
   </g>
   <g id="patch_12">
    <path d="M 399.603988 78.597544 
L 401.940696 79.452796 
L 404.268735 80.331372 
L 406.587872 81.233184 
L 408.897875 82.158142 
L 411.198513 83.106153 
L 413.489556 84.077123 
L 415.770775 85.070955 
L 418.041942 86.087549 
L 420.302829 87.126803 
L 422.553211 88.188613 
L 424.792863 89.272874 
L 427.02156 90.379477 
L 429.23908 91.508311 
L 431.445201 92.659264 
L 433.639702 93.83222 
L 435.822364 95.027062 
L 437.992969 96.24367 
L 440.151299 97.481923 
L 442.297139 98.741698 
L 444.430275 100.022867 
L 446.550492 101.325303 
L 448.657579 102.648876 
L 450.751325 103.993454 
L 452.831521 105.358901 
L 454.897958 106.745081 
L 456.950431 108.151857 
L 458.988734 109.579086 
L 461.012662 111.026627 
L 463.022015 112.494334 
L 465.01659 113.982061 
L 466.996188 115.489659 
L 468.960612 117.016977 
L 470.909664 118.563863 
L 472.84315 120.130162 
L 474.760877 121.715717 
L 476.662653 123.320369 
L 478.548287 124.943959 
L 480.417592 126.586324 
L 482.27038 128.247299 
L 484.106465 129.926719 
L 485.925665 131.624415 
L 487.727797 133.340219 
L 489.512682 135.073957 
L 491.28014 136.825457 
L 493.029995 138.594544 
L 494.762071 140.381041 
L 494.960322 140.587815 
L 500.51844 135.264942 
L 500.314058 135.051773 
L 498.528412 133.210024 
L 496.724438 131.386223 
L 494.902316 129.580553 
L 493.062229 127.793193 
L 491.204361 126.024324 
L 489.328897 124.274122 
L 487.436025 122.542761 
L 485.525935 120.830415 
L 483.598817 119.137256 
L 481.654864 117.463452 
L 479.69427 115.809171 
L 477.717232 114.174578 
L 475.723947 112.559837 
L 473.714615 110.965109 
L 471.689436 109.390554 
L 469.648613 107.83633 
L 467.59235 106.30259 
L 465.520853 104.78949 
L 463.434328 103.29718 
L 461.332986 101.82581 
L 459.217034 100.375526 
L 457.086686 98.946474 
L 454.942154 97.538796 
L 452.783653 96.152634 
L 450.611398 94.788126 
L 448.425608 93.445408 
L 446.226499 92.124615 
L 444.014293 90.825879 
L 441.78921 89.549329 
L 439.551473 88.295094 
L 437.301306 87.063298 
L 435.038933 85.854065 
L 432.764582 84.667516 
L 430.478479 83.503769 
L 428.180853 82.362941 
L 425.871934 81.245147 
L 423.551952 80.150496 
L 421.221141 79.079101 
L 418.879732 78.031066 
L 416.527959 77.006497 
L 414.166059 76.005497 
L 411.794268 75.028166 
L 409.412821 74.074601 
L 407.021958 73.144898 
L 404.621918 72.239149 
L 402.212941 71.357446 
L 399.603988 78.597544 
z
" clip-path="url(#p64114c7d5c)" style="fill: none; stroke: #000000; stroke-width: 0.5; stroke-linejoin: miter"/>
   </g>
   <g id="patch_13">
    <path d="M 494.960322 140.587815 
L 496.67237 142.393515 
L 498.366275 144.216245 
L 500.041869 146.055823 
L 501.698984 147.912064 
L 503.337454 149.784783 
L 504.957115 151.673793 
L 506.557805 153.578906 
L 508.139364 155.499929 
L 509.701635 157.436672 
L 511.24446 159.38894 
L 512.767686 161.356539 
L 514.271159 163.339271 
L 515.754731 165.336939 
L 517.218252 167.349342 
L 518.661576 169.37628 
L 520.08456 171.417549 
L 521.487059 173.472946 
L 522.868935 175.542265 
L 524.230049 177.625299 
L 525.570265 179.721839 
L 526.889448 181.831677 
L 528.187468 183.954601 
L 529.464194 186.090398 
L 530.719499 188.238856 
L 531.953256 190.39976 
L 533.092938 192.441632 
L 539.830415 188.722485 
L 538.655486 186.617463 
L 537.383571 184.389727 
L 536.089442 182.174822 
L 534.77323 179.972969 
L 533.435065 177.784387 
L 532.075082 175.609297 
L 530.693416 173.447915 
L 529.290206 171.300457 
L 527.865592 169.167139 
L 526.419716 167.048173 
L 524.952723 164.943772 
L 523.46476 162.854145 
L 521.955975 160.779503 
L 520.42652 158.720052 
L 518.876547 156.675998 
L 517.306211 154.647545 
L 515.71567 152.634898 
L 514.105082 150.638256 
L 512.474608 148.657819 
L 510.824412 146.693786 
L 509.154658 144.746353 
L 507.465514 142.815714 
L 505.757149 140.902063 
L 504.029732 139.005592 
L 502.283438 137.126488 
L 500.51844 135.264942 
L 494.960322 140.587815 
z
" clip-path="url(#p64114c7d5c)" style="fill: none; stroke: #000000; stroke-width: 0.5; stroke-linejoin: miter"/>
   </g>
   <g id="patch_14">
    <path d="M 533.092938 192.441632 
L 534.28455 194.626059 
L 535.454258 196.822293 
L 536.601946 199.030114 
L 537.727499 201.249301 
L 538.830804 203.479633 
L 539.91175 205.720886 
L 540.970231 207.972836 
L 542.006139 210.235259 
L 543.019372 212.507927 
L 544.009828 214.790613 
L 544.977408 217.08309 
L 545.922015 219.385128 
L 546.843555 221.696497 
L 547.741936 224.016965 
L 548.617067 226.346301 
L 549.468862 228.684272 
L 550.297234 231.030644 
L 551.102102 233.385181 
L 551.883385 235.74765 
L 552.641004 238.117813 
L 553.374884 240.495434 
L 554.084952 242.880275 
L 554.771136 245.272097 
L 555.433368 247.670661 
L 556.071582 250.075727 
L 556.685714 252.487056 
L 557.275702 254.904404 
L 557.841487 257.327532 
L 558.383013 259.756197 
L 558.900226 262.190155 
L 559.393074 264.629163 
L 559.861508 267.072978 
L 560.30548 269.521355 
L 560.724947 271.974049 
L 561.119866 274.430815 
L 561.490199 276.891408 
L 561.835907 279.35558 
L 562.156957 281.823087 
L 562.453316 284.29368 
L 562.724954 286.767114 
L 562.971845 289.24314 
L 563.193964 291.721511 
L 563.391289 294.20198 
L 563.563799 296.684298 
L 563.711478 299.168216 
L 563.834311 301.653488 
L 563.932286 304.139863 
L 564.005392 306.627094 
L 564.053622 309.114931 
L 564.076973 311.603126 
L 564.07544 314.091431 
L 564.049025 316.579595 
L 563.99773 319.067371 
L 563.921561 321.55451 
L 563.820524 324.040763 
L 563.69463 326.525881 
L 563.543891 329.009616 
L 563.368324 331.491719 
L 563.167944 333.971943 
L 562.942773 336.450039 
L 562.692832 338.925759 
L 562.418147 341.398856 
L 562.118745 343.869083 
L 561.794656 346.336192 
L 561.445913 348.799937 
L 561.07255 351.260071 
L 560.674605 353.716349 
L 560.252118 356.168525 
L 559.80513 358.616353 
L 559.333687 361.059589 
L 558.837835 363.497988 
L 558.317625 365.931308 
L 557.773107 368.359303 
L 557.204338 370.781732 
L 556.611373 373.198352 
L 555.994272 375.608922 
L 555.353096 378.013201 
L 554.68791 380.410947 
L 553.99878 382.801922 
L 553.285776 385.185887 
L 552.548967 387.562602 
L 551.788429 389.93183 
L 551.004237 392.293335 
L 550.19647 394.646879 
L 549.365208 396.992229 
L 548.510534 399.329149 
L 547.632534 401.657405 
L 546.731296 403.976765 
L 545.80691 406.286997 
L 544.859468 408.58787 
L 543.889065 410.879153 
L 542.895799 413.160618 
L 541.879767 415.432036 
L 540.841073 417.693181 
L 539.779819 419.943826 
L 538.696113 422.183746 
L 537.590062 424.412717 
L 536.461776 426.630516 
L 535.31137 428.836922 
L 534.138957 431.031713 
L 532.944656 433.214671 
L 531.728585 435.385577 
L 530.490866 437.544214 
L 529.231623 439.690366 
L 527.950982 441.823818 
L 526.64907 443.944358 
L 525.326019 446.051772 
L 523.98196 448.145851 
L 522.617028 450.226385 
L 521.231359 452.293166 
L 519.825092 454.345987 
L 518.398367 456.384643 
L 516.951327 458.40893 
L 515.484118 460.418645 
L 513.996885 462.413588 
L 512.489777 464.39356 
L 510.962945 466.358361 
L 509.416541 468.307797 
L 507.850721 470.241671 
L 506.265641 472.15979 
L 504.661459 474.061963 
L 503.038336 475.947999 
L 501.396434 477.81771 
L 499.735918 479.670909 
L 498.056953 481.50741 
L 496.359707 483.327031 
L 494.64435 485.129587 
L 492.911053 486.914901 
L 491.15999 488.682792 
L 489.391337 490.433085 
L 487.605269 492.165604 
L 485.801965 493.880176 
L 483.981606 495.57663 
L 482.144374 497.254795 
L 480.290453 498.914505 
L 478.420027 500.555593 
L 476.533284 502.177894 
L 474.630413 503.781248 
L 472.711603 505.365493 
L 470.777048 506.930471 
L 468.826939 508.476025 
L 466.861473 510.002001 
L 464.880846 511.508247 
L 462.885255 512.994612 
L 460.874901 514.460946 
L 458.849984 515.907104 
L 456.810708 517.332941 
L 454.757274 518.738314 
L 452.689891 520.123083 
L 450.608763 521.48711 
L 448.514099 522.830257 
L 446.406108 524.15239 
L 444.285002 525.453378 
L 442.150992 526.733091 
L 440.004292 527.991399 
L 437.845117 529.228178 
L 435.673682 530.443304 
L 433.490204 531.636655 
L 431.294902 532.808112 
L 429.087996 533.957557 
L 426.869706 535.084877 
L 424.640253 536.189957 
L 422.399862 537.272689 
L 420.148755 538.332962 
L 417.887158 539.370672 
L 415.615298 540.385714 
L 413.333401 541.377988 
L 412.95064 541.54178 
L 415.972376 548.619545 
L 416.366975 548.450687 
L 418.719446 547.427725 
L 421.06157 546.38129 
L 423.393113 545.311486 
L 425.713842 544.21842 
L 428.023524 543.102202 
L 430.321928 541.962944 
L 432.608825 540.800759 
L 434.883987 539.615763 
L 437.147184 538.408076 
L 439.398192 537.177817 
L 441.636785 535.92511 
L 443.862739 534.65008 
L 446.075832 533.352855 
L 448.275842 532.033564 
L 450.46255 530.692339 
L 452.635736 529.329315 
L 454.795183 527.944627 
L 456.940676 526.538415 
L 459.071999 525.110818 
L 461.188941 523.66198 
L 463.291288 522.192045 
L 465.378831 520.70116 
L 467.451361 519.189475 
L 469.508671 517.65714 
L 471.550555 516.10431 
L 473.576809 514.531138 
L 475.58723 512.937783 
L 477.581617 511.324404 
L 479.559771 509.691162 
L 481.521494 508.03822 
L 483.466589 506.365744 
L 485.394863 504.673901 
L 487.306123 502.96286 
L 489.200176 501.232793 
L 491.076835 499.483871 
L 492.935911 497.716271 
L 494.777218 495.930169 
L 496.600572 494.125744 
L 498.405792 492.303175 
L 500.192695 490.462646 
L 501.961105 488.60434 
L 503.710843 486.728443 
L 505.441735 484.835142 
L 507.153607 482.924628 
L 508.84629 480.997091 
L 510.519612 479.052724 
L 512.173408 477.091721 
L 513.807511 475.114278 
L 515.421759 473.120593 
L 517.015989 471.110866 
L 518.590043 469.085298 
L 520.143762 467.04409 
L 521.676992 464.987448 
L 523.18958 462.915576 
L 524.681373 460.828682 
L 526.152223 458.726975 
L 527.601983 456.610665 
L 529.030508 454.479963 
L 530.437654 452.335083 
L 531.823282 450.176238 
L 533.187253 448.003646 
L 534.529429 445.817523 
L 535.849678 443.618087 
L 537.147867 441.40556 
L 538.423866 439.180161 
L 539.677547 436.942113 
L 540.908786 434.691641 
L 542.117459 432.42897 
L 543.303445 430.154325 
L 544.466625 427.867934 
L 545.606884 425.570025 
L 546.724107 423.26083 
L 547.818183 420.940577 
L 548.889002 418.6095 
L 549.936457 416.267832 
L 550.960444 413.915806 
L 551.960859 411.553658 
L 552.937603 409.181625 
L 553.890578 406.799942 
L 554.81969 404.40885 
L 555.724844 402.008585 
L 556.605951 399.59939 
L 557.462922 397.181503 
L 558.295672 394.755169 
L 559.104118 392.320628 
L 559.888178 389.878124 
L 560.647774 387.427903 
L 561.38283 384.970208 
L 562.093273 382.505285 
L 562.779032 380.033381 
L 563.440037 377.554744 
L 564.076224 375.06962 
L 564.687528 372.578259 
L 565.273889 370.080909 
L 565.835247 367.577821 
L 566.371546 365.069245 
L 566.882733 362.555431 
L 567.368757 360.036631 
L 567.82957 357.513097 
L 568.265124 354.98508 
L 568.675376 352.452835 
L 569.060286 349.916614 
L 569.419816 347.376671 
L 569.753928 344.833259 
L 570.062589 342.286634 
L 570.34577 339.737049 
L 570.603441 337.18476 
L 570.835576 334.630022 
L 571.042153 332.073091 
L 571.223151 329.514221 
L 571.378551 326.95367 
L 571.508339 324.391693 
L 571.6125 321.828545 
L 571.691026 319.264485 
L 571.743907 316.699767 
L 571.771139 314.134649 
L 571.772719 311.569387 
L 571.748647 309.004237 
L 571.698924 306.439456 
L 571.623557 303.875301 
L 571.522552 301.312027 
L 571.395921 298.749892 
L 571.243674 296.189151 
L 571.065828 293.630061 
L 570.862401 291.072877 
L 570.633412 288.517855 
L 570.378886 285.96525 
L 570.098846 283.415319 
L 569.793321 280.868315 
L 569.462342 278.324494 
L 569.105942 275.78411 
L 568.724156 273.247417 
L 568.317022 270.714668 
L 567.884582 268.186117 
L 567.426879 265.662017 
L 566.943958 263.142621 
L 566.435867 260.628179 
L 565.902658 258.118944 
L 565.344383 255.615166 
L 564.7611 253.117096 
L 564.152864 250.624984 
L 563.519739 248.139079 
L 562.861787 245.659629 
L 562.179073 243.186882 
L 561.471667 240.721087 
L 560.739638 238.262488 
L 559.983061 235.811332 
L 559.20201 233.367865 
L 558.396564 230.93233 
L 557.566803 228.504972 
L 556.712811 226.086032 
L 555.834672 223.675753 
L 554.932475 221.274375 
L 554.006309 218.88214 
L 553.056268 216.499286 
L 552.082446 214.126051 
L 551.084941 211.762672 
L 550.063853 209.409387 
L 549.019283 207.06643 
L 547.951336 204.734036 
L 546.860119 202.412438 
L 545.745741 200.101868 
L 544.608313 197.802557 
L 543.447949 195.514735 
L 542.264766 193.238631 
L 541.058881 190.974472 
L 539.830415 188.722485 
L 533.092938 192.441632 
z
" clip-path="url(#p64114c7d5c)" style="fill: none; stroke: #000000; stroke-width: 0.5; stroke-linejoin: miter"/>
   </g>
   <g id="patch_15">
    <path d="M 412.95064 541.54178 
L 410.657315 542.507349 
L 408.35445 543.449937 
L 406.042274 544.36945 
L 403.721019 545.265796 
L 401.390917 546.138884 
L 399.0522 546.988629 
L 396.705103 547.814944 
L 394.34986 548.617747 
L 391.986707 549.396958 
L 389.615881 550.152499 
L 387.237617 550.884294 
L 384.852155 551.59227 
L 382.459732 552.276357 
L 380.060588 552.936486 
L 377.654963 553.57259 
L 375.243097 554.184607 
L 372.825232 554.772475 
L 370.401609 555.336136 
L 367.972471 555.875532 
L 365.53806 556.390611 
L 363.098621 556.88132 
L 360.654396 557.347611 
L 358.205631 557.789436 
L 355.75257 558.206752 
L 353.295458 558.599517 
L 350.834542 558.967692 
L 348.370067 559.311239 
L 345.90228 559.630125 
L 343.431428 559.924318 
L 340.957757 560.193788 
L 338.481515 560.438508 
L 336.00295 560.658453 
L 333.52231 560.853603 
L 331.039842 561.023937 
L 328.555794 561.169438 
L 326.070416 561.290091 
L 323.583956 561.385885 
L 321.096662 561.456811 
L 318.608784 561.50286 
L 316.120569 561.524028 
L 315.24784 561.525559 
L 315.24784 569.221379 
L 316.14756 569.219801 
L 318.71273 569.197978 
L 321.277554 569.150505 
L 323.841774 569.077386 
L 326.405135 568.978629 
L 328.967381 568.854244 
L 331.528254 568.704243 
L 334.087499 568.528641 
L 336.644861 568.327456 
L 339.200083 568.100708 
L 341.752909 567.848419 
L 344.303085 567.570615 
L 346.850356 567.267324 
L 349.394466 566.938575 
L 351.935162 566.584403 
L 354.472189 566.204841 
L 357.005293 565.799929 
L 359.534222 565.369706 
L 362.058723 564.914216 
L 364.578542 564.433504 
L 367.093428 563.927618 
L 369.60313 563.39661 
L 372.107396 562.840531 
L 374.605976 562.259437 
L 377.098621 561.653388 
L 379.58508 561.022442 
L 382.065106 560.366664 
L 384.53845 559.686119 
L 387.004866 558.980875 
L 389.464105 558.251003 
L 391.915923 557.496575 
L 394.360074 556.717667 
L 396.796314 555.914356 
L 399.2244 555.086724 
L 401.644087 554.234853 
L 404.055135 553.358828 
L 406.457303 552.458737 
L 408.85035 551.534669 
L 411.234036 550.586718 
L 413.608124 549.614977 
L 415.972376 548.619545 
L 412.95064 541.54178 
z
" clip-path="url(#p64114c7d5c)" style="fill: none; stroke: #000000; stroke-width: 0.5; stroke-linejoin: miter"/>
   </g>
   <g id="patch_16">
    <path d="M 315.24784 561.525559 
L 312.759567 561.513117 
L 310.271542 561.475794 
L 307.784014 561.413593 
L 305.297233 561.32652 
L 302.811448 561.214584 
L 300.326905 561.077797 
L 297.843855 560.916171 
L 295.362545 560.729723 
L 292.883224 560.518471 
L 290.406139 560.282438 
L 287.931539 560.021646 
L 285.459669 559.736121 
L 282.990779 559.425892 
L 280.525115 559.09099 
L 278.062922 558.731449 
L 275.604448 558.347304 
L 273.149939 557.938595 
L 270.699639 557.50536 
L 268.253794 557.047645 
L 265.812648 556.565495 
L 263.376446 556.058958 
L 260.945431 555.528085 
L 258.519846 554.972928 
L 256.099934 554.393544 
L 253.685936 553.789989 
L 251.278095 553.162326 
L 248.876651 552.510616 
L 246.481843 551.834924 
L 244.093913 551.135319 
L 241.713097 550.41187 
L 239.339635 549.664649 
L 236.973764 548.893731 
L 234.61572 548.099193 
L 232.265739 547.281115 
L 229.924057 546.439579 
L 227.590906 545.574668 
L 225.266521 544.686469 
L 222.951135 543.775072 
L 220.644978 542.840566 
L 218.348281 541.883046 
L 216.061274 540.902607 
L 213.784186 539.899348 
L 211.517243 538.873368 
L 209.260674 537.82477 
L 207.014704 536.75366 
L 204.779557 535.660144 
L 202.555456 534.544331 
L 200.342625 533.406333 
L 198.141284 532.246265 
L 195.951653 531.064241 
L 193.773952 529.860381 
L 191.608399 528.634804 
L 189.455209 527.387633 
L 187.314598 526.118993 
L 185.186781 524.829011 
L 183.071969 523.517816 
L 180.970376 522.185538 
L 178.882209 520.832311 
L 176.807679 519.458271 
L 174.746993 518.063554 
L 172.700357 516.6483 
L 170.667976 515.212652 
L 168.650053 513.756751 
L 166.646789 512.280745 
L 164.658385 510.78478 
L 162.68504 509.269006 
L 160.726951 507.733575 
L 158.784314 506.17864 
L 156.857324 504.604356 
L 154.946172 503.010882 
L 153.05105 501.398376 
L 151.172148 499.767 
L 149.309653 498.116917 
L 147.463752 496.448292 
L 145.634629 494.761291 
L 143.822468 493.056084 
L 142.027448 491.332841 
L 140.249751 489.591734 
L 138.489553 487.832938 
L 136.747031 486.056627 
L 135.022359 484.262981 
L 133.31571 482.452178 
L 131.627253 480.624399 
L 129.957158 478.779827 
L 128.305593 476.918647 
L 126.672721 475.041045 
L 125.058706 473.147208 
L 123.463711 471.237325 
L 121.887894 469.311589 
L 120.331412 467.370191 
L 118.794422 465.413325 
L 117.277077 463.441188 
L 115.779529 461.453976 
L 114.301928 459.451888 
L 112.844421 457.435125 
L 111.407154 455.403887 
L 109.990272 453.358379 
L 108.593914 451.298804 
L 107.218222 449.225369 
L 105.863333 447.138281 
L 104.529382 445.037749 
L 103.216503 442.923982 
L 101.924827 440.797193 
L 100.654483 438.657593 
L 99.405598 436.505397 
L 98.178297 434.34082 
L 96.972702 432.164079 
L 95.788936 429.97539 
L 94.627114 427.774974 
L 93.487355 425.563049 
L 92.369772 423.339838 
L 91.274476 421.105562 
L 90.201577 418.860445 
L 89.151183 416.604712 
L 88.123398 414.338588 
L 87.118326 412.062299 
L 86.136066 409.776073 
L 85.176718 407.48014 
L 84.240376 405.174728 
L 83.327135 402.860068 
L 82.437085 400.536391 
L 81.570317 398.20393 
L 80.726916 395.862918 
L 79.906967 393.51359 
L 79.110552 391.156179 
L 78.33775 388.790923 
L 77.588639 386.418056 
L 76.863294 384.037818 
L 76.161787 381.650445 
L 75.484189 379.256176 
L 74.830567 376.855252 
L 74.200986 374.447911 
L 73.59551 372.034395 
L 73.014199 369.614945 
L 72.457111 367.189803 
L 71.924301 364.759211 
L 71.415824 362.323413 
L 70.93173 359.882652 
L 70.472068 357.437173 
L 70.036883 354.987219 
L 69.626218 352.533035 
L 69.240116 350.074868 
L 68.878614 347.612963 
L 68.541749 345.147566 
L 68.229554 342.678923 
L 67.942061 340.207282 
L 67.681315 337.75282 
L 60.024618 338.527833 
L 60.293429 341.058207 
L 60.589814 343.606291 
L 60.911664 346.151283 
L 61.258947 348.692929 
L 61.63163 351.230976 
L 62.029673 353.765169 
L 62.453039 356.295255 
L 62.901683 358.820981 
L 63.375562 361.342094 
L 63.874628 363.858343 
L 64.398831 366.369475 
L 64.948119 368.875239 
L 65.522437 371.375386 
L 66.121726 373.869664 
L 66.745929 376.357825 
L 67.394981 378.839619 
L 68.068818 381.314799 
L 68.767373 383.783117 
L 69.490576 386.244327 
L 70.238355 388.698181 
L 71.010634 391.144435 
L 71.807337 393.582843 
L 72.628383 396.013164 
L 73.473691 398.435152 
L 74.343177 400.848566 
L 75.236753 403.253165 
L 76.154329 405.648708 
L 77.095815 408.034955 
L 78.061116 410.411669 
L 79.050135 412.778611 
L 80.062774 415.135544 
L 81.098931 417.482234 
L 82.158503 419.818444 
L 83.241384 422.143943 
L 84.347465 424.458496 
L 85.476636 426.761873 
L 86.628783 429.053844 
L 87.803793 431.334178 
L 89.001547 433.602649 
L 90.221925 435.859029 
L 91.464806 438.103092 
L 92.730064 440.334615 
L 94.017575 442.553373 
L 95.327208 444.759146 
L 96.658833 446.951713 
L 98.012317 449.130854 
L 99.387524 451.296351 
L 100.784317 453.447988 
L 102.202556 455.58555 
L 103.642099 457.708823 
L 105.102803 459.817594 
L 106.584521 461.911653 
L 108.087106 463.990791 
L 109.610406 466.054799 
L 111.15427 468.103471 
L 112.718543 470.136602 
L 114.303069 472.153989 
L 115.907689 474.155431 
L 117.532243 476.140726 
L 119.176568 478.109677 
L 120.840501 480.062086 
L 122.523874 481.997759 
L 124.226519 483.916501 
L 125.948266 485.818122 
L 127.688943 487.70243 
L 129.448375 489.569237 
L 131.226388 491.418357 
L 133.022802 493.249605 
L 134.837439 495.062797 
L 136.670117 496.857753 
L 138.520652 498.634292 
L 140.38886 500.392237 
L 142.274553 502.131413 
L 144.177544 503.851646 
L 146.097642 505.552762 
L 148.034654 507.234593 
L 149.988388 508.89697 
L 151.958648 510.539727 
L 153.945236 512.1627 
L 155.947955 513.765725 
L 157.966603 515.348644 
L 160.000979 516.911298 
L 162.05088 518.45353 
L 164.1161 519.975186 
L 166.196434 521.476114 
L 168.291672 522.956164 
L 170.401606 524.415188 
L 172.526025 525.853041 
L 174.664715 527.269577 
L 176.817464 528.664656 
L 178.984056 530.038139 
L 181.164274 531.389887 
L 183.3579 532.719765 
L 185.564715 534.027641 
L 187.784498 535.313385 
L 190.017028 536.576866 
L 192.26208 537.817959 
L 194.519431 539.03654 
L 196.788855 540.232487 
L 199.070124 541.40568 
L 201.363012 542.556003 
L 203.667287 543.683339 
L 205.982721 544.787576 
L 208.309081 545.868605 
L 210.646134 546.926316 
L 212.993648 547.960604 
L 215.351387 548.971366 
L 217.719116 549.9585 
L 220.096598 550.921908 
L 222.483594 551.861493 
L 224.879867 552.777162 
L 227.285177 553.668822 
L 229.699282 554.536386 
L 232.121943 555.379765 
L 234.552916 556.198876 
L 236.991959 556.993637 
L 239.438827 557.763967 
L 241.893276 558.509792 
L 244.35506 559.231034 
L 246.823933 559.927624 
L 249.299649 560.59949 
L 251.78196 561.246565 
L 254.270617 561.868786 
L 256.765372 562.46609 
L 259.265975 563.038416 
L 261.772176 563.585708 
L 264.283725 564.107911 
L 266.80037 564.604974 
L 269.321859 565.076845 
L 271.847942 565.523478 
L 274.378364 565.944828 
L 276.912873 566.340854 
L 279.451216 566.711515 
L 281.993138 567.056774 
L 284.538386 567.376598 
L 287.086704 567.670953 
L 289.637839 567.939811 
L 292.191535 568.183145 
L 294.747536 568.400929 
L 297.305588 568.593144 
L 299.865433 568.759769 
L 302.426817 568.900787 
L 304.989483 569.016185 
L 307.553174 569.105951 
L 310.117636 569.170076 
L 312.68261 569.208553 
L 315.24784 569.221379 
L 315.24784 561.525559 
z
" clip-path="url(#p64114c7d5c)" style="fill: none; stroke: #000000; stroke-width: 0.5; stroke-linejoin: miter"/>
   </g>
   <g id="patch_17">
    <path d="M 67.681315 337.75282 
L 67.44311 335.275943 
L 67.229684 332.796807 
L 67.041061 330.315662 
L 66.877258 327.832755 
L 66.738292 325.348333 
L 66.624176 322.862646 
L 66.534923 320.375943 
L 66.47054 317.888471 
L 66.431036 315.40048 
L 66.416412 312.912218 
L 66.426672 310.423934 
L 66.461814 307.935877 
L 66.521834 305.448297 
L 66.606726 302.96144 
L 66.716482 300.475557 
L 66.851092 297.990896 
L 67.01054 295.507705 
L 67.194812 293.026233 
L 67.40389 290.546727 
L 67.637751 288.069436 
L 67.896374 285.594608 
L 68.179731 283.122489 
L 68.487795 280.653328 
L 68.820534 278.187371 
L 69.177916 275.724864 
L 69.559905 273.266054 
L 69.966463 270.811187 
L 70.397548 268.360508 
L 70.770215 266.349479 
L 63.209051 264.916143 
L 62.824859 266.989368 
L 62.380441 269.515841 
L 61.961309 272.046632 
L 61.567506 274.581488 
L 61.199071 277.120154 
L 60.856041 279.662378 
L 60.538449 282.207905 
L 60.246328 284.756481 
L 59.979707 287.307851 
L 59.738613 289.861759 
L 59.523069 292.41795 
L 59.333098 294.976169 
L 59.168718 297.53616 
L 59.029946 300.097666 
L 58.916795 302.660432 
L 58.829277 305.224202 
L 58.767401 307.788718 
L 58.731172 310.353725 
L 58.720595 312.918966 
L 58.735671 315.484184 
L 58.776397 318.049124 
L 58.842771 320.613528 
L 58.934784 323.17714 
L 59.052429 325.739703 
L 59.195693 328.300962 
L 59.364563 330.860661 
L 59.55902 333.418543 
L 59.779046 335.974352 
L 60.024618 338.527833 
L 67.681315 337.75282 
z
" clip-path="url(#p64114c7d5c)" style="fill: none; stroke: #000000; stroke-width: 0.5; stroke-linejoin: miter"/>
   </g>
   <g id="patch_18">
    <path d="M 70.770215 266.349479 
L 71.245877 263.907061 
L 71.745938 261.469521 
L 72.27035 259.037104 
L 72.819059 256.610053 
L 73.392011 254.188609 
L 73.989148 251.773017 
L 74.610411 249.363516 
L 75.255737 246.960348 
L 75.925063 244.563754 
L 76.61832 242.173973 
L 77.335441 239.791243 
L 78.076352 237.415804 
L 78.84098 235.047892 
L 79.629249 232.687745 
L 80.441079 230.335599 
L 81.27639 227.991688 
L 82.135098 225.656248 
L 83.017117 223.329511 
L 83.922359 221.011711 
L 84.850733 218.703079 
L 85.802146 216.403846 
L 86.776504 214.114241 
L 87.773709 211.834495 
L 88.793662 209.564835 
L 89.836259 207.305487 
L 90.901397 205.056678 
L 91.98897 202.818633 
L 93.098869 200.591575 
L 94.230982 198.375728 
L 95.385197 196.171312 
L 96.561398 193.978548 
L 97.759467 191.797656 
L 98.979285 189.628853 
L 100.22073 187.472357 
L 101.483677 185.328382 
L 102.768 183.197145 
L 104.073572 181.078856 
L 105.40026 178.97373 
L 106.747933 176.881975 
L 108.116456 174.803801 
L 109.505692 172.739416 
L 110.915502 170.689027 
L 112.345745 168.652837 
L 113.796278 166.631052 
L 115.266956 164.623873 
L 116.757632 162.631501 
L 118.268156 160.654135 
L 119.798379 158.691973 
L 121.348146 156.745211 
L 122.917303 154.814044 
L 124.505693 152.898665 
L 126.113158 150.999265 
L 127.739535 149.116034 
L 129.384663 147.249161 
L 131.048377 145.398832 
L 132.730511 143.565233 
L 134.430897 141.748547 
L 136.149364 139.948955 
L 137.885741 138.166637 
L 139.639854 136.401772 
L 141.411527 134.654536 
L 143.200585 132.925103 
L 145.006846 131.213648 
L 146.830132 129.52034 
L 148.670259 127.84535 
L 150.527044 126.188844 
L 152.400301 124.550989 
L 154.289842 122.931948 
L 156.195479 121.331883 
L 158.117021 119.750953 
L 160.054277 118.189319 
L 162.007051 116.647134 
L 163.975149 115.124554 
L 165.958375 113.621731 
L 167.956529 112.138814 
L 169.969412 110.675953 
L 171.996823 109.233294 
L 174.038559 107.810981 
L 176.094416 106.409156 
L 178.164188 105.027959 
L 180.247668 103.667528 
L 182.344649 102.328 
L 184.454919 101.009509 
L 186.578269 99.712185 
L 188.714485 98.43616 
L 190.863355 97.181561 
L 193.024663 95.948512 
L 195.198193 94.737138 
L 197.383728 93.547559 
L 199.581049 92.379895 
L 201.789937 91.234262 
L 204.010171 90.110774 
L 206.241528 89.009545 
L 208.483786 87.930685 
L 210.73672 86.8743 
L 213.000106 85.840497 
L 215.273716 84.829379 
L 217.557323 83.841048 
L 219.850699 82.875602 
L 222.153615 81.933137 
L 224.46584 81.013748 
L 226.787143 80.117527 
L 229.117293 79.244564 
L 230.891693 78.597544 
L 228.28274 71.357446 
L 226.453461 72.024477 
L 224.051246 72.924439 
L 221.658149 73.848378 
L 219.274412 74.796202 
L 216.900272 75.767815 
L 214.535967 76.76312 
L 212.181732 77.782019 
L 209.837805 78.824408 
L 207.504418 79.890184 
L 205.181805 80.979241 
L 202.870199 82.091468 
L 200.569831 83.226756 
L 198.28093 84.38499 
L 196.003726 85.566055 
L 193.738446 86.769833 
L 191.485317 87.996203 
L 189.244564 89.245042 
L 187.016412 90.516226 
L 184.801082 91.809628 
L 182.598797 93.125118 
L 180.409777 94.462565 
L 178.234241 95.821834 
L 176.072405 97.202791 
L 173.924487 98.605297 
L 171.790702 100.029211 
L 169.671262 101.474392 
L 167.566379 102.940694 
L 165.476265 104.427971 
L 163.401128 105.936076 
L 161.341175 107.464855 
L 159.296612 109.014158 
L 157.267645 110.583828 
L 155.254476 112.173709 
L 153.257305 113.783642 
L 151.276334 115.413465 
L 149.31176 117.063017 
L 147.363779 118.732132 
L 145.432586 120.420642 
L 143.518375 122.12838 
L 141.621337 123.855174 
L 139.741661 125.600852 
L 137.879535 127.36524 
L 136.035147 129.148159 
L 134.208679 130.949434 
L 132.400315 132.768882 
L 130.610236 134.606323 
L 128.83862 136.461573 
L 127.085645 138.334446 
L 125.351487 140.224754 
L 123.636317 142.132309 
L 121.940309 144.056921 
L 120.263631 145.998395 
L 118.606452 147.95654 
L 116.968936 149.931158 
L 115.351248 151.922052 
L 113.75355 153.929023 
L 112.176001 155.95187 
L 110.618759 157.990392 
L 109.08198 160.044384 
L 107.565817 162.113641 
L 106.070422 164.197955 
L 104.595945 166.297119 
L 103.142533 168.410923 
L 101.710331 170.539155 
L 100.299482 172.681602 
L 98.910129 174.83805 
L 97.542409 177.008284 
L 96.196459 179.192086 
L 94.872414 181.389239 
L 93.570407 183.599521 
L 92.290567 185.822713 
L 91.033023 188.058592 
L 89.7979 190.306935 
L 88.585321 192.567516 
L 87.395409 194.84011 
L 86.228282 197.124489 
L 85.084057 199.420425 
L 83.962848 201.727688 
L 82.864767 204.046047 
L 81.789924 206.375272 
L 80.738427 208.715128 
L 79.710381 211.065382 
L 78.705888 213.425799 
L 77.725049 215.796142 
L 76.767962 218.176175 
L 75.834723 220.56566 
L 74.925425 222.964358 
L 74.04016 225.372028 
L 73.179014 227.788431 
L 72.342076 230.213324 
L 71.529428 232.646465 
L 70.741151 235.087611 
L 69.977325 237.536518 
L 69.238026 239.99294 
L 68.523327 242.456632 
L 67.833301 244.927348 
L 67.168016 247.40484 
L 66.527539 249.888861 
L 65.911934 252.379163 
L 65.321262 254.875496 
L 64.755582 257.377612 
L 64.214952 259.885258 
L 63.699424 262.398186 
L 63.209051 264.916143 
L 70.770215 266.349479 
z
" clip-path="url(#p64114c7d5c)" style="fill: none; stroke: #000000; stroke-width: 0.5; stroke-linejoin: miter"/>
   </g>
   <g id="patch_19">
    <path d="M 230.891693 78.597544 
L 233.236837 77.765701 
L 235.590181 76.957351 
L 237.951492 76.172574 
L 240.320532 75.41145 
L 242.697064 74.674053 
L 245.080852 73.960458 
L 247.471656 73.270737 
L 249.869238 72.604957 
L 252.273358 71.963186 
L 254.683775 71.345488 
L 257.100248 70.751925 
L 259.522536 70.182556 
L 261.950397 69.637438 
L 264.383587 69.116625 
L 266.821864 68.62017 
L 269.264983 68.148122 
L 271.712701 67.700528 
L 274.164772 67.277433 
L 276.620951 66.87888 
L 279.080993 66.504908 
L 281.544652 66.155555 
L 284.01168 65.830856 
L 286.481833 65.530842 
L 288.954862 65.255545 
L 291.43052 65.004992 
L 293.90856 64.779207 
L 296.388734 64.578213 
L 298.870794 64.402031 
L 301.354491 64.250678 
L 303.839578 64.124169 
L 306.325806 64.022516 
L 308.812926 63.945731 
L 311.300689 63.89382 
L 313.788847 63.866789 
L 315.24784 63.862512 
L 315.24784 56.166691 
L 313.743724 56.171101 
L 311.178612 56.198968 
L 308.613908 56.252484 
L 306.049867 56.331645 
L 303.486745 56.436441 
L 300.9248 56.566863 
L 298.364287 56.722897 
L 295.805463 56.904528 
L 293.248582 57.111738 
L 290.693902 57.344506 
L 288.141677 57.602808 
L 285.592163 57.88662 
L 283.045614 58.195912 
L 280.502285 58.530654 
L 277.962431 58.890812 
L 275.426305 59.27635 
L 272.894161 59.687229 
L 270.366253 60.123409 
L 267.842833 60.584846 
L 265.324153 61.071493 
L 262.810466 61.583303 
L 260.302023 62.120223 
L 257.799073 62.682201 
L 255.301869 63.26918 
L 252.810659 63.8811 
L 250.325693 64.517902 
L 247.84722 65.179522 
L 245.375486 65.865892 
L 242.910739 66.576946 
L 240.453226 67.31261 
L 238.003192 68.072813 
L 235.560883 68.857477 
L 233.126542 69.666525 
L 230.700414 70.499876 
L 228.28274 71.357446 
L 230.891693 78.597544 
z
" clip-path="url(#p64114c7d5c)" style="fill: none; stroke: #000000; stroke-width: 0.5; stroke-linejoin: miter"/>
   </g>
   <g id="text_1">
    <text style="font: 10px 'DejaVu Sans', 'Bitstream Vera Sans', 'Computer Modern Sans Serif', 'Lucida Grande', 'Verdana', 'Geneva', 'Lucid', 'Arial', 'Helvetica', 'Avant Garde', sans-serif; text-anchor: middle" x="361.953674" y="45.309191" transform="rotate(-350.091743 361.953674 45.309191)">DG</text>
   </g>
   <g id="text_2">
    <text style="font: 10px 'DejaVu Sans', 'Bitstream Vera Sans', 'Computer Modern Sans Serif', 'Lucida Grande', 'Verdana', 'Geneva', 'Lucid', 'Arial', 'Helvetica', 'Avant Garde', sans-serif; text-anchor: middle" x="463.1904" y="85.121873" transform="rotate(-326.972477 463.1904 85.121873)">CA3</text>
   </g>
   <g id="text_3">
    <text style="font: 10px 'DejaVu Sans', 'Bitstream Vera Sans', 'Computer Modern Sans Serif', 'Lucida Grande', 'Verdana', 'Geneva', 'Lucid', 'Arial', 'Helvetica', 'Avant Garde', sans-serif; text-anchor: middle" x="533.918752" y="151.886318" transform="rotate(-306.330275 533.918752 151.886318)">CA2</text>
   </g>
   <g id="text_4">
    <text style="font: 10px 'DejaVu Sans', 'Bitstream Vera Sans', 'Computer Modern Sans Serif', 'Lucida Grande', 'Verdana', 'Geneva', 'Lucid', 'Arial', 'Helvetica', 'Avant Garde', sans-serif; text-anchor: middle" x="577.125676" y="402.818904" transform="rotate(-71.009174 577.125676 402.818904)">CA1v</text>
   </g>
   <g id="text_5">
    <text style="font: 10px 'DejaVu Sans', 'Bitstream Vera Sans', 'Computer Modern Sans Serif', 'Lucida Grande', 'Verdana', 'Geneva', 'Lucid', 'Arial', 'Helvetica', 'Avant Garde', sans-serif; text-anchor: middle" x="370.745651" y="584.028673" transform="rotate(-11.559633 370.745651 584.028673)">CA1d</text>
   </g>
   <g id="text_6">
    <text style="font: 10px 'DejaVu Sans', 'Bitstream Vera Sans', 'Computer Modern Sans Serif', 'Lucida Grande', 'Verdana', 'Geneva', 'Lucid', 'Arial', 'Helvetica', 'Avant Garde', sans-serif; text-anchor: middle" x="129.535557" y="518.153132" transform="rotate(-317.889908 129.535557 518.153132)">LHA</text>
   </g>
   <g id="text_7">
    <text style="font: 10px 'DejaVu Sans', 'Bitstream Vera Sans', 'Computer Modern Sans Serif', 'Lucida Grande', 'Verdana', 'Geneva', 'Lucid', 'Arial', 'Helvetica', 'Avant Garde', sans-serif; text-anchor: middle" x="44.068068" y="300.96283" transform="rotate(-87.522936 44.068068 300.96283)">DHA</text>
   </g>
   <g id="text_8">
    <text style="font: 10px 'DejaVu Sans', 'Bitstream Vera Sans', 'Computer Modern Sans Serif', 'Lucida Grande', 'Verdana', 'Geneva', 'Lucid', 'Arial', 'Helvetica', 'Avant Garde', sans-serif; text-anchor: middle" x="108.721299" y="136.560911" transform="rotate(-49.541284 108.721299 136.560911)">mammillary</text>
   </g>
   <g id="text_9">
    <text style="font: 10px 'DejaVu Sans', 'Bitstream Vera Sans', 'Computer Modern Sans Serif', 'Lucida Grande', 'Verdana', 'Geneva', 'Lucid', 'Arial', 'Helvetica', 'Avant Garde', sans-serif; text-anchor: middle" x="268.542007" y="45.309191" transform="rotate(-9.908257 268.542007 45.309191)">AHA</text>
   </g>
  </g>
 </g>
 <defs>
  <clipPath id="p64114c7d5c">
   <path d="M 584.601551 312.694035 
C 584.601551 277.32283 577.634195 242.295565 564.098221 209.616833 
C 550.562247 176.9381 530.720895 147.243419 505.709676 122.2322 
C 480.698457 97.220981 451.003776 77.379629 418.325043 63.843655 
C 385.64631 50.30768 350.619046 43.340324 315.24784 43.340324 
C 279.876635 43.340324 244.84937 50.30768 212.170638 63.843655 
C 179.491905 77.379629 149.797224 97.220981 124.786005 122.2322 
C 99.774786 147.243419 79.933434 176.9381 66.39746 209.616833 
C 52.861485 242.295565 45.894129 277.32283 45.894129 312.694035 
C 45.894129 348.065241 52.861485 383.092505 66.39746 415.771238 
C 79.933434 448.449971 99.774786 478.144652 124.786005 503.155871 
C 149.797224 528.16709 179.491905 548.008442 212.170638 561.544416 
C 244.84937 575.08039 279.876635 582.047746 315.24784 582.047746 
C 350.619046 582.047746 385.64631 575.08039 418.325043 561.544416 
C 451.003776 548.008442 480.698457 528.16709 505.709676 503.155871 
C 530.720895 478.144652 550.562247 448.449971 564.098221 415.771238 
C 577.634195 383.092505 584.601551 348.065241 584.601551 312.694035 
M 315.24784 312.694035 
C 315.24784 312.694035 315.24784 312.694035 315.24784 312.694035 
C 315.24784 312.694035 315.24784 312.694035 315.24784 312.694035 
C 315.24784 312.694035 315.24784 312.694035 315.24784 312.694035 
C 315.24784 312.694035 315.24784 312.694035 315.24784 312.694035 
C 315.24784 312.694035 315.24784 312.694035 315.24784 312.694035 
C 315.24784 312.694035 315.24784 312.694035 315.24784 312.694035 
C 315.24784 312.694035 315.24784 312.694035 315.24784 312.694035 
C 315.24784 312.694035 315.24784 312.694035 315.24784 312.694035 
C 315.24784 312.694035 315.24784 312.694035 315.24784 312.694035 
C 315.24784 312.694035 315.24784 312.694035 315.24784 312.694035 
C 315.24784 312.694035 315.24784 312.694035 315.24784 312.694035 
C 315.24784 312.694035 315.24784 312.694035 315.24784 312.694035 
C 315.24784 312.694035 315.24784 312.694035 315.24784 312.694035 
C 315.24784 312.694035 315.24784 312.694035 315.24784 312.694035 
C 315.24784 312.694035 315.24784 312.694035 315.24784 312.694035 
C 315.24784 312.694035 315.24784 312.694035 315.24784 312.694035 
z
"/>
  </clipPath>
 </defs>
</svg>
