<?xml version="1.0" encoding="utf-8" standalone="no"?>
<!DOCTYPE svg PUBLIC "-//W3C//DTD SVG 1.1//EN"
  "http://www.w3.org/Graphics/SVG/1.1/DTD/svg11.dtd">
<svg xmlns:xlink="http://www.w3.org/1999/xlink" width="616.604144pt" height="626.265168pt" viewBox="0 0 616.604144 626.265168" xmlns="http://www.w3.org/2000/svg" version="1.1">
 <metadata>
  <rdf:RDF xmlns:dc="http://purl.org/dc/elements/1.1/" xmlns:cc="http://creativecommons.org/ns#" xmlns:rdf="http://www.w3.org/1999/02/22-rdf-syntax-ns#">
   <cc:Work>
    <dc:type rdf:resource="http://purl.org/dc/dcmitype/StillImage"/>
    <dc:date>2024-10-28T10:40:51.932110</dc:date>
    <dc:format>image/svg+xml</dc:format>
    <dc:creator>
     <cc:Agent>
      <dc:title>Matplotlib v3.9.2, https://matplotlib.org/</dc:title>
     </cc:Agent>
    </dc:creator>
   </cc:Work>
  </rdf:RDF>
 </metadata>
 <defs>
  <style type="text/css">*{stroke-linejoin: round; stroke-linecap: butt}</style>
 </defs>
 <g id="figure_1">
  <g id="patch_1">
   <path d="M 0 626.265168 
L 616.604144 626.265168 
L 616.604144 0 
L 0 0 
z
" style="fill: #ffffff"/>
  </g>
  <g id="axes_1">
   <g id="patch_2">
    <path d="M 308.302072 66.407849 
L 310.817582 66.420427 
L 313.332841 66.458158 
L 315.847597 66.52104 
L 318.361599 66.609066 
L 320.874594 66.722228 
L 323.386332 66.860513 
L 325.896562 67.023908 
L 328.405032 67.212397 
L 330.911492 67.42596 
L 333.415692 67.664577 
L 335.917379 67.928224 
L 338.416306 68.216874 
L 340.912221 68.530499 
L 343.404875 68.869066 
L 345.894018 69.232543 
L 348.379403 69.620893 
L 350.860779 70.034077 
L 353.3379 70.472053 
L 355.810518 70.934778 
L 358.278384 71.422206 
L 360.741253 71.934288 
L 363.198879 72.470972 
L 365.651014 73.032206 
L 368.097415 73.617932 
L 370.537836 74.228092 
L 372.972034 74.862626 
L 375.399764 75.52147 
L 377.820785 76.204558 
L 380.234855 76.911821 
L 382.64173 77.64319 
L 385.041173 78.39859 
L 387.432941 79.177946 
L 389.816796 79.981181 
L 392.1925 80.808213 
L 394.559815 81.658961 
L 396.918504 82.533339 
L 399.268331 83.43126 
L 401.609062 84.352634 
L 403.940463 85.297369 
L 406.262299 86.26537 
L 408.57434 87.256541 
L 410.876353 88.270782 
L 413.16811 89.307992 
L 415.449379 90.368068 
L 417.719934 91.450903 
L 419.979548 92.556389 
L 422.227993 93.684415 
L 424.465046 94.834869 
L 426.690483 96.007636 
L 428.904082 97.202598 
L 431.10562 98.419636 
L 431.4177 98.594492 
L 435.225399 91.809896 
L 434.903668 91.629632 
L 432.634041 90.374954 
L 430.351981 89.143034 
L 428.057716 87.933996 
L 425.751475 86.747961 
L 423.43349 85.585047 
L 421.103992 84.445371 
L 418.763214 83.329046 
L 416.411389 82.236185 
L 414.048754 81.166896 
L 411.675544 80.121287 
L 409.291997 79.099461 
L 406.898351 78.101522 
L 404.494845 77.127568 
L 402.081721 76.177698 
L 399.659218 75.252007 
L 397.22758 74.350586 
L 394.787049 73.473526 
L 392.33787 72.620915 
L 389.880287 71.792838 
L 387.414547 70.989378 
L 384.940895 70.210615 
L 382.45958 69.456627 
L 379.970849 68.72749 
L 377.474951 68.023275 
L 374.972136 67.344055 
L 372.462653 66.689896 
L 369.946755 66.060865 
L 367.424693 65.457023 
L 364.896718 64.878432 
L 362.363084 64.325149 
L 359.824044 63.79723 
L 357.279851 63.294727 
L 354.730761 62.817691 
L 352.177028 62.366169 
L 349.618908 61.940206 
L 347.056656 61.539846 
L 344.490528 61.165127 
L 341.920782 60.816089 
L 339.347674 60.492764 
L 336.771461 60.195187 
L 334.192402 59.923386 
L 331.610753 59.677389 
L 329.026773 59.45722 
L 326.440722 59.262902 
L 323.852856 59.094453 
L 321.263435 58.951891 
L 318.672718 58.83523 
L 316.080964 58.744482 
L 313.488432 58.679655 
L 310.895382 58.640756 
L 308.302072 58.62779 
z
" clip-path="url(#pc6749b523c)" style="fill: #1f77b4"/>
   </g>
   <g id="patch_3">
    <path d="M 431.4177 98.594492 
L 433.605193 99.836596 
L 435.780157 101.100512 
L 437.942373 102.386115 
L 440.091625 103.693275 
L 442.227698 105.021862 
L 444.350378 106.371743 
L 446.459454 107.742783 
L 448.554714 109.134845 
L 450.63595 110.547789 
L 452.702952 111.981475 
L 454.755513 113.435759 
L 456.79343 114.910495 
L 458.816498 116.405536 
L 460.824514 117.920733 
L 462.817278 119.455934 
L 464.794591 121.010986 
L 466.756255 122.585732 
L 468.702073 124.180017 
L 470.631852 125.793679 
L 472.545398 127.426558 
L 474.442519 129.078491 
L 476.323027 130.749312 
L 478.186732 132.438854 
L 480.03345 134.146948 
L 481.862994 135.873424 
L 483.675183 137.618109 
L 485.469834 139.380828 
L 487.246768 141.161405 
L 489.005809 142.959662 
L 490.746779 144.77542 
L 492.469504 146.608496 
L 494.173814 148.458707 
L 495.859536 150.325868 
L 497.526502 152.209794 
L 499.174547 154.110294 
L 500.803504 156.027179 
L 502.413211 157.960258 
L 504.003507 159.909338 
L 505.574233 161.874222 
L 507.125233 163.854715 
L 508.65635 165.850619 
L 510.167431 167.861734 
L 511.658327 169.887859 
L 513.128887 171.928791 
L 514.578964 173.984327 
L 516.008414 176.05426 
L 517.417094 178.138384 
L 518.804862 180.236491 
L 520.17158 182.34837 
L 521.517111 184.47381 
L 522.841321 186.6126 
L 524.144077 188.764524 
L 525.425249 190.929368 
L 526.68471 193.106915 
L 527.922332 195.296948 
L 529.137992 197.499247 
L 530.331568 199.713593 
L 531.502942 201.939763 
L 532.651996 204.177536 
L 533.778616 206.426687 
L 534.882687 208.686991 
L 535.964101 210.958224 
L 537.022749 213.240156 
L 538.058525 215.532561 
L 539.071326 217.835209 
L 540.06105 220.147869 
L 541.027598 222.470311 
L 541.970873 224.802302 
L 542.890782 227.143609 
L 543.787233 229.493998 
L 544.660135 231.853234 
L 545.509401 234.22108 
L 546.334947 236.597301 
L 547.13669 238.981659 
L 547.91455 241.373914 
L 548.668448 243.773828 
L 549.39831 246.181161 
L 550.104063 248.595673 
L 550.785636 251.017121 
L 551.44296 253.445263 
L 552.075971 255.879857 
L 552.684604 258.32066 
L 553.2688 260.767427 
L 553.828499 263.219913 
L 554.363645 265.677873 
L 554.874186 268.141062 
L 555.360069 270.609233 
L 555.821247 273.08214 
L 556.257673 275.559534 
L 556.669304 278.041169 
L 557.056099 280.526796 
L 557.418018 283.016167 
L 557.755026 285.509032 
L 558.067088 288.005143 
L 558.354175 290.504249 
L 558.616256 293.006101 
L 558.853306 295.510449 
L 559.065302 298.017043 
L 559.252221 300.52563 
L 559.414045 303.035962 
L 559.550758 305.547786 
L 559.662347 308.060852 
L 559.7488 310.574908 
L 559.810108 313.089703 
L 559.846266 315.604985 
L 559.85727 318.120503 
L 559.843118 320.636005 
L 559.803813 323.15124 
L 559.739357 325.665956 
L 559.649758 328.179902 
L 559.535024 330.692826 
L 559.395168 333.204477 
L 559.230202 335.714604 
L 559.040143 338.222956 
L 558.825011 340.729282 
L 558.584827 343.233331 
L 558.319615 345.734854 
L 558.029401 348.233599 
L 557.714215 350.729317 
L 557.374088 353.221758 
L 557.009054 355.710674 
L 556.619149 358.195815 
L 556.204413 360.676933 
L 555.764886 363.153779 
L 555.300614 365.626107 
L 554.811642 368.093668 
L 554.298019 370.556216 
L 553.759797 373.013505 
L 553.197029 375.465289 
L 552.609773 377.911322 
L 551.998085 380.351361 
L 551.362028 382.785161 
L 550.701665 385.212479 
L 550.017063 387.633072 
L 549.308289 390.046699 
L 548.575415 392.453117 
L 547.818513 394.852085 
L 547.037661 397.243365 
L 546.232934 399.626718 
L 545.404415 402.001903 
L 544.552186 404.368685 
L 543.676332 406.726827 
L 542.776941 409.076092 
L 541.854103 411.416246 
L 540.907909 413.747055 
L 539.938456 416.068285 
L 538.945838 418.379705 
L 537.930157 420.681084 
L 536.891513 422.972191 
L 535.83001 425.252797 
L 534.745755 427.522674 
L 533.638855 429.781595 
L 532.509422 432.029334 
L 531.357568 434.265667 
L 530.183409 436.49037 
L 528.987062 438.70322 
L 527.768647 440.903996 
L 526.528285 443.092478 
L 525.266101 445.268447 
L 523.982221 447.431686 
L 522.676772 449.581979 
L 521.349887 451.719109 
L 520.001697 453.842864 
L 518.632337 455.953031 
L 517.241944 458.049399 
L 515.830658 460.131759 
L 514.398618 462.199902 
L 512.945969 464.253621 
L 511.472857 466.292711 
L 509.979427 468.316969 
L 508.465829 470.326191 
L 506.932216 472.320177 
L 505.378739 474.298728 
L 503.805555 476.261645 
L 502.212821 478.208732 
L 500.600696 480.139795 
L 498.969341 482.054641 
L 497.318919 483.953077 
L 495.649597 485.834915 
L 493.961539 487.699965 
L 492.254916 489.548042 
L 490.529897 491.378961 
L 488.786656 493.192538 
L 487.025367 494.988592 
L 485.246205 496.766944 
L 483.44935 498.527416 
L 481.634979 500.269831 
L 479.803276 501.994016 
L 477.954422 503.699798 
L 476.088604 505.387007 
L 474.206006 507.055473 
L 472.306819 508.70503 
L 470.391231 510.335513 
L 468.459435 511.946759 
L 466.511623 513.538607 
L 464.54799 515.110898 
L 462.568732 516.663473 
L 460.574048 518.196179 
L 458.564137 519.708862 
L 456.5392 521.201371 
L 454.49944 522.673555 
L 452.445059 524.125269 
L 450.376265 525.556367 
L 448.293263 526.966706 
L 446.196262 528.356144 
L 444.085472 529.724544 
L 441.961104 531.071767 
L 439.82337 532.39768 
L 437.672484 533.702149 
L 435.508661 534.985045 
L 433.332117 536.246238 
L 431.143071 537.485604 
L 428.94174 538.703017 
L 426.728346 539.898357 
L 424.503109 541.071504 
L 422.266252 542.222339 
L 420.017999 543.350749 
L 417.758574 544.45662 
L 415.488204 545.539843 
L 413.207115 546.600307 
L 410.915536 547.637909 
L 408.613696 548.652542 
L 406.301824 549.644108 
L 403.980153 550.612505 
L 401.648913 551.557637 
L 399.30834 552.479411 
L 396.958665 553.377732 
L 394.600125 554.252513 
L 392.232956 555.103665 
L 389.857393 555.931103 
L 387.473675 556.734744 
L 385.08204 557.514508 
L 382.682726 558.270318 
L 380.275975 559.002097 
L 377.862027 559.709772 
L 375.441122 560.393272 
L 373.013504 561.05253 
L 370.579415 561.68748 
L 368.139098 562.298056 
L 365.692797 562.8842 
L 363.240757 563.445852 
L 360.783224 563.982956 
L 358.320442 564.495457 
L 355.852659 564.983306 
L 353.38012 565.446453 
L 350.903074 565.884852 
L 348.421768 566.298459 
L 345.936449 566.687233 
L 343.447368 567.051134 
L 340.954772 567.390127 
L 338.45891 567.704177 
L 335.960033 567.993254 
L 333.458391 568.257327 
L 330.954232 568.496372 
L 328.447809 568.710363 
L 325.93937 568.89928 
L 323.429169 569.063103 
L 320.917454 569.201817 
L 318.404478 569.315406 
L 315.890492 569.403861 
L 313.375746 569.467172 
L 310.860494 569.505333 
L 308.344986 569.51834 
L 305.829473 569.506191 
L 303.314207 569.468889 
L 300.799441 569.406436 
L 298.285425 569.318839 
L 295.77241 569.206106 
L 293.260648 569.06825 
L 290.75039 568.905283 
L 288.241888 568.717222 
L 285.735392 568.504086 
L 283.231152 568.265896 
L 280.729419 568.002676 
L 278.230443 567.714452 
L 275.734475 567.401253 
L 273.241763 567.063111 
L 270.752558 566.700059 
L 268.267107 566.312133 
L 265.78566 565.899373 
L 263.308464 565.461819 
L 260.835768 564.999516 
L 258.367818 564.512509 
L 255.904862 564.000847 
L 253.447145 563.464582 
L 250.994914 562.903767 
L 248.548413 562.318458 
L 246.107888 561.708714 
L 243.673582 561.074595 
L 241.245739 560.416165 
L 238.824602 559.733491 
L 236.410412 559.026639 
L 234.003411 558.295681 
L 231.60384 557.540691 
L 229.211939 556.761742 
L 226.827947 555.958914 
L 224.452102 555.132287 
L 222.084642 554.281943 
L 219.725804 553.407967 
L 217.375823 552.510447 
L 215.034935 551.589473 
L 212.703374 550.645135 
L 210.381372 549.67753 
L 208.069162 548.686754 
L 205.766976 547.672906 
L 203.475043 546.636086 
L 201.193592 545.5764 
L 198.922852 544.493952 
L 196.663051 543.388852 
L 194.414412 542.261209 
L 192.177163 541.111137 
L 189.951526 539.93875 
L 187.737724 538.744165 
L 185.535978 537.527503 
L 185.186444 537.331701 
L 181.378744 544.116297 
L 181.739089 544.318155 
L 184.00893 545.572446 
L 186.2912 546.803976 
L 188.585671 548.012623 
L 190.892114 549.198264 
L 193.210297 550.360783 
L 195.53999 551.500061 
L 197.880959 552.615987 
L 200.23297 553.708447 
L 202.595787 554.777333 
L 204.969175 555.822537 
L 207.352897 556.843956 
L 209.746713 557.841487 
L 212.150385 558.815031 
L 214.563671 559.764489 
L 216.986332 560.689767 
L 219.418124 561.590773 
L 221.858804 562.467417 
L 224.308129 563.31961 
L 226.765853 564.147268 
L 229.23173 564.950307 
L 231.705515 565.728648 
L 234.186959 566.482213 
L 236.675814 567.210926 
L 239.171832 567.914714 
L 241.674763 568.593507 
L 244.184357 569.247238 
L 246.700362 569.87584 
L 249.222528 570.479252 
L 251.750601 571.057411 
L 254.28433 571.610262 
L 256.82346 572.137748 
L 259.367738 572.639817 
L 261.916909 573.116419 
L 264.470719 573.567505 
L 267.028912 573.993031 
L 269.591233 574.392954 
L 272.157424 574.767235 
L 274.72723 575.115835 
L 277.300393 575.438721 
L 279.876657 575.735859 
L 282.455762 576.007219 
L 285.037453 576.252776 
L 287.62147 576.472504 
L 290.207555 576.666381 
L 292.795449 576.834388 
L 295.384894 576.976509 
L 297.975631 577.092728 
L 300.567401 577.183034 
L 303.159944 577.247418 
L 305.753001 577.285875 
L 308.346313 577.298399 
L 310.93962 577.28499 
L 313.532664 577.245649 
L 316.125185 577.18038 
L 318.716923 577.089189 
L 321.30762 576.972086 
L 323.897017 576.829083 
L 326.484854 576.660193 
L 329.070873 576.465433 
L 331.654814 576.244823 
L 334.236421 575.998386 
L 336.815434 575.726145 
L 339.391596 575.428128 
L 341.964649 575.104365 
L 344.534336 574.754888 
L 347.100399 574.379732 
L 349.662583 573.978934 
L 352.220631 573.552535 
L 354.774287 573.100578 
L 357.323295 572.623107 
L 359.867402 572.12017 
L 362.406352 571.591817 
L 364.939892 571.038102 
L 367.467768 570.45908 
L 369.989727 569.854808 
L 372.505518 569.225347 
L 375.014889 568.57076 
L 377.517588 567.891113 
L 380.013366 567.186473 
L 382.501972 566.456911 
L 384.983159 565.7025 
L 387.456678 564.923315 
L 389.922281 564.119434 
L 392.379722 563.290938 
L 394.828756 562.437909 
L 397.269137 561.560433 
L 399.700622 560.658597 
L 402.122966 559.732492 
L 404.535929 558.782211 
L 406.939268 557.807847 
L 409.332744 556.8095 
L 411.716117 555.787268 
L 414.089148 554.741253 
L 416.451601 553.671561 
L 418.803239 552.578299 
L 421.143827 551.461575 
L 423.473131 550.321501 
L 425.790918 549.158192 
L 428.096956 547.971764 
L 430.391014 546.762334 
L 432.672864 545.530025 
L 434.942277 544.27496 
L 437.199026 542.997263 
L 439.442885 541.697064 
L 441.673631 540.374491 
L 443.891039 539.029677 
L 446.094889 537.662757 
L 448.284959 536.273867 
L 450.461031 534.863146 
L 452.622888 533.430735 
L 454.770312 531.976777 
L 456.90309 530.501419 
L 459.021008 529.004807 
L 461.123854 527.48709 
L 463.211418 525.948422 
L 465.283491 524.388955 
L 467.339866 522.808846 
L 469.380338 521.208252 
L 471.404702 519.587334 
L 473.412755 517.946254 
L 475.404298 516.285176 
L 477.379131 514.604265 
L 479.337056 512.903691 
L 481.277878 511.183623 
L 483.201402 509.444232 
L 485.107437 507.685694 
L 486.995791 505.908184 
L 488.866276 504.111879 
L 490.718704 502.29696 
L 492.552892 500.463608 
L 494.368654 498.612005 
L 496.165809 496.742338 
L 497.944179 494.854793 
L 499.703584 492.949559 
L 501.44385 491.026827 
L 503.164801 489.086788 
L 504.866267 487.129637 
L 506.548076 485.155569 
L 508.21006 483.164783 
L 509.852054 481.157476 
L 511.473894 479.13385 
L 513.075416 477.094108 
L 514.656461 475.038452 
L 516.216871 472.967089 
L 517.756489 470.880225 
L 519.275162 468.77807 
L 520.772738 466.660834 
L 522.249067 464.528728 
L 523.704002 462.381965 
L 525.137397 460.220761 
L 526.549108 458.045331 
L 527.938995 455.855893 
L 529.306918 453.652666 
L 530.652741 451.43587 
L 531.976329 449.205726 
L 533.27755 446.962459 
L 534.556273 444.706292 
L 535.812371 442.43745 
L 537.045719 440.156162 
L 538.256192 437.862654 
L 539.44367 435.557156 
L 540.608034 433.239899 
L 541.749167 430.911114 
L 542.866957 428.571035 
L 543.961289 426.219895 
L 545.032056 423.857929 
L 546.079151 421.485374 
L 547.102467 419.102467 
L 548.101904 416.709445 
L 549.077362 414.30655 
L 550.028741 411.89402 
L 550.955949 409.472097 
L 551.858891 407.041023 
L 552.737478 404.601042 
L 553.591621 402.152397 
L 554.421235 399.695333 
L 555.226238 397.230095 
L 556.006549 394.756932 
L 556.762089 392.276088 
L 557.492784 389.787814 
L 558.19856 387.292357 
L 558.879346 384.789968 
L 559.535075 382.280895 
L 560.165681 379.765391 
L 560.7711 377.243707 
L 561.351273 374.716095 
L 561.906141 372.182807 
L 562.435649 369.644098 
L 562.939744 367.100221 
L 563.418375 364.551429 
L 563.871495 361.997979 
L 564.299058 359.440126 
L 564.701022 356.878125 
L 565.077346 354.312233 
L 565.427993 351.742705 
L 565.752927 349.1698 
L 566.052116 346.593774 
L 566.325531 344.014885 
L 566.573143 341.433391 
L 566.794929 338.84955 
L 566.990866 336.26362 
L 567.160933 333.67586 
L 567.305116 331.086529 
L 567.423398 328.495885 
L 567.515768 325.904189 
L 567.582217 323.311698 
L 567.622738 320.718672 
L 567.637328 318.125371 
L 567.625984 315.532054 
L 567.588707 312.938979 
L 567.525503 310.346407 
L 567.436376 307.754597 
L 567.321336 305.163808 
L 567.180395 302.574298 
L 567.013565 299.986327 
L 566.820865 297.400154 
L 566.602314 294.816038 
L 566.357932 292.234236 
L 566.087745 289.655006 
L 565.79178 287.078608 
L 565.470065 284.505298 
L 565.122635 281.935334 
L 564.749522 279.368972 
L 564.350765 276.80647 
L 563.926403 274.248084 
L 563.476479 271.694069 
L 563.001038 269.144681 
L 562.500127 266.600175 
L 561.973797 264.060804 
L 561.4221 261.526825 
L 560.84509 258.998488 
L 560.242827 256.476048 
L 559.61537 253.959757 
L 558.962782 251.449866 
L 558.285127 248.946627 
L 557.582475 246.450288 
L 556.854895 243.961102 
L 556.10246 241.479315 
L 555.325245 239.005176 
L 554.523328 236.538934 
L 553.696789 234.080833 
L 552.845711 231.631121 
L 551.970178 229.190042 
L 551.070279 226.75784 
L 550.146103 224.334759 
L 549.197744 221.92104 
L 548.225294 219.516926 
L 547.228853 217.122656 
L 546.208519 214.73847 
L 545.164395 212.364606 
L 544.096585 210.001302 
L 543.005195 207.648794 
L 541.890335 205.307318 
L 540.752117 202.977107 
L 539.590654 200.658395 
L 538.406062 198.351413 
L 537.19846 196.056392 
L 535.967969 193.773561 
L 534.714711 191.503149 
L 533.438812 189.245384 
L 532.140399 187.00049 
L 530.819603 184.768692 
L 529.476556 182.550213 
L 528.111391 180.345276 
L 526.724245 178.1541 
L 525.315257 175.976905 
L 523.884569 173.813909 
L 522.432322 171.665327 
L 520.958662 169.531375 
L 519.463737 167.412266 
L 517.947696 165.308212 
L 516.41069 163.219424 
L 514.852874 161.146109 
L 513.274403 159.088476 
L 511.675434 157.046731 
L 510.056129 155.021077 
L 508.416648 153.011717 
L 506.757156 151.018852 
L 505.077819 149.042682 
L 503.378804 147.083403 
L 501.660282 145.141212 
L 499.922424 143.216303 
L 498.165404 141.308869 
L 496.389399 139.4191 
L 494.594584 137.547185 
L 492.78114 135.693312 
L 490.949249 133.857665 
L 489.099093 132.040429 
L 487.230858 130.241785 
L 485.344729 128.461913 
L 483.440897 126.700991 
L 481.519551 124.959195 
L 479.580883 123.236699 
L 477.625088 121.533676 
L 475.652361 119.850295 
L 473.662898 118.186726 
L 471.6569 116.543134 
L 469.634566 114.919683 
L 467.596099 113.316537 
L 465.541703 111.733856 
L 463.471583 110.171797 
L 461.385946 108.630517 
L 459.285001 107.110171 
L 457.168958 105.610909 
L 455.038028 104.132883 
L 452.892425 102.676239 
L 450.732363 101.241124 
L 448.558058 99.827681 
L 446.369727 98.436051 
L 444.16759 97.066374 
L 441.951867 95.718786 
L 439.722778 94.393422 
L 437.480548 93.090415 
L 435.225399 91.809896 
z
" clip-path="url(#pc6749b523c)" style="fill: #2ca02c"/>
   </g>
   <g id="patch_4">
    <path d="M 185.186444 537.331701 
L 182.99895 536.089597 
L 180.823987 534.82568 
L 178.661771 533.540077 
L 176.512519 532.232917 
L 174.376446 530.90433 
L 172.253765 529.554449 
L 170.144689 528.18341 
L 168.049429 526.791348 
L 165.968194 525.378403 
L 163.901192 523.944718 
L 161.84863 522.490434 
L 159.810714 521.015698 
L 157.787646 519.520656 
L 155.77963 518.005459 
L 153.786865 516.470258 
L 151.809552 514.915207 
L 149.847889 513.34046 
L 147.90207 511.746176 
L 145.972292 510.132514 
L 144.058746 508.499634 
L 142.161624 506.847702 
L 140.281117 505.176881 
L 138.417411 503.487339 
L 136.570694 501.779244 
L 134.741149 500.052768 
L 132.928961 498.308084 
L 131.13431 496.545365 
L 129.357375 494.764787 
L 127.598335 492.96653 
L 125.857365 491.150773 
L 124.134639 489.317697 
L 122.43033 487.467486 
L 120.744608 485.600324 
L 119.077641 483.716399 
L 117.429597 481.815899 
L 115.80064 479.899013 
L 114.190933 477.965934 
L 112.600636 476.016855 
L 111.02991 474.051971 
L 109.478911 472.071478 
L 107.947794 470.075574 
L 106.436712 468.064459 
L 104.945817 466.038334 
L 103.475257 463.997401 
L 102.025179 461.941866 
L 100.595729 459.871932 
L 99.18705 457.787808 
L 97.799282 455.689702 
L 96.432564 453.577823 
L 95.087032 451.452382 
L 93.762822 449.313593 
L 92.460066 447.161669 
L 91.178894 444.996825 
L 89.919434 442.819277 
L 88.681812 440.629245 
L 87.466152 438.426945 
L 86.272575 436.2126 
L 85.101201 433.98643 
L 83.952147 431.748657 
L 82.825528 429.499506 
L 81.721456 427.239201 
L 80.640042 424.967969 
L 79.581394 422.686036 
L 78.545618 420.393632 
L 77.532818 418.090984 
L 76.78416 416.347541 
L 69.623812 419.390359 
L 70.395625 421.187723 
L 71.439749 423.561586 
L 72.507559 425.92489 
L 73.598949 428.277398 
L 74.713808 430.618875 
L 75.852027 432.949086 
L 77.01349 435.267798 
L 78.198082 437.57478 
L 79.405684 439.869801 
L 80.636175 442.152632 
L 81.889433 444.423043 
L 83.165332 446.680809 
L 84.463744 448.925703 
L 85.78454 451.157501 
L 87.127588 453.375979 
L 88.492753 455.580917 
L 89.879899 457.772092 
L 91.288886 459.949287 
L 92.719575 462.112284 
L 94.171822 464.260865 
L 95.645482 466.394817 
L 97.140407 468.513926 
L 98.656448 470.61798 
L 100.193454 472.706769 
L 101.75127 474.780083 
L 103.329741 476.837716 
L 104.928709 478.879462 
L 106.548015 480.905116 
L 108.187495 482.914476 
L 109.846987 484.90734 
L 111.526325 486.883511 
L 113.225339 488.84279 
L 114.943862 490.784981 
L 116.681719 492.70989 
L 118.438739 494.617324 
L 120.214745 496.507093 
L 122.00956 498.379008 
L 123.823003 500.232881 
L 125.654895 502.068528 
L 127.50505 503.885764 
L 129.373286 505.684408 
L 131.259414 507.46428 
L 133.163246 509.225202 
L 135.084592 510.966998 
L 137.02326 512.689494 
L 138.979056 514.392517 
L 140.951783 516.075898 
L 142.941245 517.739467 
L 144.947244 519.383059 
L 146.969578 521.006509 
L 149.008044 522.609655 
L 151.062441 524.192337 
L 153.132561 525.754395 
L 155.218197 527.295675 
L 157.319142 528.816022 
L 159.435186 530.315283 
L 161.566115 531.79331 
L 163.711719 533.249954 
L 165.871781 534.685069 
L 168.046086 536.098512 
L 170.234416 537.490142 
L 172.436553 538.859819 
L 174.652277 540.207407 
L 176.881366 541.53277 
L 179.123596 542.835777 
L 181.378744 544.116297 
z
" clip-path="url(#pc6749b523c)" style="fill: #9467bd"/>
   </g>
   <g id="patch_5">
    <path d="M 76.78416 416.347541 
L 75.811908 414.027481 
L 74.862904 411.697815 
L 73.937245 409.358776 
L 73.035021 407.010597 
L 72.156324 404.653513 
L 71.301242 402.287761 
L 70.469859 399.913576 
L 69.662259 397.531196 
L 68.878524 395.140859 
L 68.11873 392.742804 
L 67.382954 390.337272 
L 66.671271 387.924502 
L 65.98375 385.504737 
L 65.32046 383.078217 
L 64.681469 380.645185 
L 64.066839 378.205886 
L 63.476633 375.760562 
L 62.910909 373.309459 
L 62.369724 370.852821 
L 61.853132 368.390894 
L 61.361185 365.923924 
L 60.893932 363.452158 
L 60.451419 360.975844 
L 60.033691 358.495228 
L 59.64079 356.010559 
L 59.272755 353.522085 
L 58.929622 351.030055 
L 58.611427 348.534719 
L 58.3182 346.036326 
L 58.049971 343.535125 
L 57.806768 341.031367 
L 57.588614 338.525303 
L 57.395531 336.017182 
L 57.227538 333.507255 
L 57.084653 330.995775 
L 56.966889 328.482991 
L 56.874258 325.969155 
L 56.80677 323.454518 
L 56.764432 320.939333 
L 56.747246 318.423849 
L 56.755217 315.90832 
L 56.788341 313.392996 
L 56.846617 310.878129 
L 56.930038 308.363971 
L 57.038596 305.850772 
L 57.172281 303.338785 
L 57.331078 300.82826 
L 57.514972 298.319449 
L 57.723944 295.812602 
L 57.957974 293.30797 
L 58.217039 290.805803 
L 58.501111 288.306352 
L 58.810164 285.809867 
L 59.144165 283.316597 
L 59.503082 280.826792 
L 59.886879 278.340701 
L 60.295517 275.858571 
L 60.728955 273.380652 
L 61.187151 270.907191 
L 61.670058 268.438436 
L 62.177627 265.974633 
L 62.709809 263.516029 
L 63.266551 261.06287 
L 63.847795 258.6154 
L 64.453485 256.173866 
L 65.083559 253.73851 
L 65.737955 251.309577 
L 66.416607 248.887309 
L 67.119448 246.471948 
L 67.846406 244.063736 
L 68.59741 241.662915 
L 69.372385 239.269723 
L 70.171252 236.884401 
L 70.993931 234.507186 
L 71.840342 232.138317 
L 72.710398 229.77803 
L 73.604014 227.426562 
L 74.521099 225.084147 
L 75.461562 222.751021 
L 76.425309 220.427415 
L 77.412243 218.113563 
L 78.422266 215.809695 
L 79.455277 213.516043 
L 80.511172 211.232836 
L 81.589847 208.960301 
L 82.691192 206.698667 
L 83.815098 204.448159 
L 84.961453 202.209002 
L 86.130141 199.981421 
L 87.321047 197.765637 
L 88.534051 195.561874 
L 89.769031 193.37035 
L 91.025864 191.191286 
L 92.304425 189.024899 
L 93.604585 186.871405 
L 94.926215 184.73102 
L 96.269182 182.603959 
L 97.633352 180.490433 
L 99.018589 178.390655 
L 100.424755 176.304833 
L 101.851707 174.233178 
L 103.299305 172.175895 
L 104.767403 170.133191 
L 106.255854 168.105269 
L 107.764509 166.092334 
L 109.293219 164.094585 
L 110.841828 162.112223 
L 112.410184 160.145446 
L 113.998129 158.19445 
L 115.605504 156.259432 
L 117.232148 154.340583 
L 118.877899 152.438097 
L 120.542593 150.552163 
L 122.226062 148.68297 
L 123.928139 146.830705 
L 125.648653 144.995553 
L 127.387432 143.177697 
L 129.144303 141.37732 
L 130.919089 139.594602 
L 132.711613 137.82972 
L 134.521696 136.082851 
L 136.349158 134.35417 
L 138.193814 132.64385 
L 140.055481 130.952062 
L 141.933972 129.278974 
L 143.8291 127.624755 
L 145.740676 125.98957 
L 147.668507 124.373582 
L 149.612401 122.776952 
L 151.572165 121.199841 
L 153.547601 119.642406 
L 155.538512 118.104803 
L 157.5447 116.587186 
L 159.565963 115.089706 
L 161.6021 113.612513 
L 163.652907 112.155755 
L 165.718178 110.719578 
L 167.797708 109.304125 
L 169.891288 107.909538 
L 171.998709 106.535956 
L 174.119761 105.183516 
L 176.25423 103.852354 
L 178.401904 102.542603 
L 180.562568 101.254394 
L 182.736006 99.987856 
L 184.922 98.743115 
L 187.120332 97.520295 
L 189.330783 96.31952 
L 191.55313 95.140909 
L 193.787152 93.98458 
L 196.032626 92.850649 
L 198.289326 91.739229 
L 200.557028 90.650431 
L 202.835504 89.584364 
L 205.124526 88.541135 
L 207.423866 87.520847 
L 209.733294 86.523604 
L 212.052579 85.549505 
L 214.381489 84.598646 
L 216.71979 83.671124 
L 219.06725 82.767031 
L 221.423633 81.886458 
L 223.788704 81.029491 
L 226.162226 80.196218 
L 228.543963 79.386722 
L 230.933674 78.601083 
L 233.331123 77.83938 
L 235.736069 77.101689 
L 238.148271 76.388084 
L 240.567488 75.698636 
L 242.993479 75.033415 
L 245.426001 74.392486 
L 247.86481 73.775914 
L 250.309663 73.183761 
L 252.760315 72.616085 
L 253.60637 72.426088 
L 251.914751 64.832159 
L 251.042529 65.028034 
L 248.516084 65.613266 
L 245.995617 66.223733 
L 243.48138 66.859374 
L 240.973626 67.520126 
L 238.472604 68.205921 
L 235.978566 68.916692 
L 233.491759 69.652367 
L 231.012434 70.412873 
L 228.540837 71.198134 
L 226.077217 72.008071 
L 223.621819 72.842604 
L 221.174889 73.701648 
L 218.736671 74.585118 
L 216.30741 75.492926 
L 213.887349 76.424981 
L 211.476728 77.381189 
L 209.075791 78.361455 
L 206.684776 79.365682 
L 204.303922 80.393767 
L 201.933468 81.44561 
L 199.573651 82.521104 
L 197.224707 83.620142 
L 194.88687 84.742614 
L 192.560375 85.888408 
L 190.245454 87.05741 
L 187.942338 88.249501 
L 185.651258 89.464564 
L 183.372444 90.702477 
L 181.106122 91.963115 
L 178.852519 93.246353 
L 176.611862 94.552063 
L 174.384373 95.880114 
L 172.170276 97.230372 
L 169.969792 98.602704 
L 167.783141 99.996972 
L 165.610542 101.413036 
L 163.452212 102.850755 
L 161.308367 104.309985 
L 159.179221 105.79058 
L 157.064988 107.292392 
L 154.965878 108.815271 
L 152.882101 110.359065 
L 150.813866 111.923619 
L 148.76138 113.508777 
L 146.724848 115.11438 
L 144.704473 116.740267 
L 142.700458 118.386277 
L 140.713003 120.052244 
L 138.742307 121.738002 
L 136.788567 123.443383 
L 134.851978 125.168215 
L 132.932734 126.912327 
L 131.031026 128.675544 
L 129.147046 130.457689 
L 127.280981 132.258584 
L 125.433017 134.07805 
L 123.603341 135.915905 
L 121.792134 137.771963 
L 119.999578 139.646041 
L 118.225853 141.537951 
L 116.471134 143.447502 
L 114.735599 145.374505 
L 113.01942 147.318767 
L 111.322769 149.280093 
L 109.645816 151.258288 
L 107.988729 153.253152 
L 106.351672 155.264488 
L 104.734811 157.292093 
L 103.138306 159.335765 
L 101.562317 161.3953 
L 100.007002 163.470491 
L 98.472516 165.561132 
L 96.959013 167.667012 
L 95.466645 169.787922 
L 93.995559 171.92365 
L 92.545904 174.073981 
L 91.117825 176.238701 
L 89.711464 178.417594 
L 88.326961 180.610441 
L 86.964456 182.817023 
L 85.624085 185.037119 
L 84.305981 187.270508 
L 83.010277 189.516966 
L 81.737101 191.776269 
L 80.486582 194.04819 
L 79.258845 196.332503 
L 78.054011 198.628978 
L 76.872202 200.937387 
L 75.713536 203.257499 
L 74.578128 205.589081 
L 73.466093 207.9319 
L 72.377541 210.285722 
L 71.312581 212.650312 
L 70.27132 215.025433 
L 69.253862 217.410847 
L 68.260309 219.806317 
L 67.29076 222.211603 
L 66.345311 224.626463 
L 65.424058 227.050657 
L 64.527093 229.483942 
L 63.654504 231.926075 
L 62.806381 234.376812 
L 61.982807 236.835907 
L 61.183864 239.303115 
L 60.409633 241.778189 
L 59.660191 244.260882 
L 58.935613 246.750944 
L 58.235972 249.248128 
L 57.561337 251.752183 
L 56.911776 254.262859 
L 56.287353 256.779905 
L 55.688132 259.303069 
L 55.114172 261.832099 
L 54.565531 264.366743 
L 54.042263 266.906746 
L 53.544421 269.451854 
L 53.072055 272.001814 
L 52.625211 274.556369 
L 52.203935 277.115266 
L 51.808268 279.678247 
L 51.43825 282.245056 
L 51.093919 284.815438 
L 50.775308 287.389134 
L 50.48245 289.965887 
L 50.215373 292.54544 
L 49.974105 295.127535 
L 49.75867 297.711913 
L 49.569088 300.298317 
L 49.40538 302.886487 
L 49.267561 305.476164 
L 49.155646 308.067091 
L 49.069644 310.659006 
L 49.009566 313.251653 
L 48.975417 315.84477 
L 48.9672 318.438099 
L 48.984917 321.031381 
L 49.028565 323.624356 
L 49.09814 326.216765 
L 49.193636 328.808348 
L 49.315042 331.398847 
L 49.462346 333.988003 
L 49.635534 336.575555 
L 49.834589 339.161247 
L 50.05949 341.744819 
L 50.310216 344.326013 
L 50.58674 346.90457 
L 50.889035 349.480233 
L 51.217072 352.052745 
L 51.570817 354.621848 
L 51.950235 357.187284 
L 52.355288 359.748799 
L 52.785935 362.306135 
L 53.242134 364.859036 
L 53.723838 367.407249 
L 54.231 369.950516 
L 54.763569 372.488585 
L 55.321492 375.021202 
L 55.904712 377.548113 
L 56.513172 380.069065 
L 57.146811 382.583807 
L 57.805565 385.092086 
L 58.489369 387.593653 
L 59.198153 390.088257 
L 59.931848 392.575649 
L 60.690379 395.055579 
L 61.473672 397.5278 
L 62.281647 399.992065 
L 63.114224 402.448126 
L 63.971319 404.89574 
L 64.852848 407.33466 
L 65.758721 409.764643 
L 66.688848 412.185446 
L 67.643136 414.596827 
L 68.62149 416.998545 
L 69.623812 419.390359 
z
" clip-path="url(#pc6749b523c)" style="fill: #e377c2"/>
   </g>
   <g id="patch_6">
    <path d="M 253.60637 72.426088 
L 256.064434 71.891416 
L 258.527722 71.381352 
L 260.995987 70.895946 
L 263.468982 70.435246 
L 265.946461 69.999299 
L 268.428176 69.588148 
L 270.913877 69.201835 
L 271.675334 69.088581 
L 270.542548 61.391431 
L 269.757542 61.508187 
L 267.194962 61.906449 
L 264.636494 62.330316 
L 262.082392 62.779746 
L 259.532912 63.254694 
L 256.988309 63.755113 
L 254.448837 64.280952 
L 251.914751 64.832159 
z
" clip-path="url(#pc6749b523c)" style="fill: #bcbd22"/>
   </g>
   <g id="patch_7">
    <path d="M 271.675334 69.088581 
L 274.165869 68.734763 
L 276.659818 68.405868 
L 279.15693 68.101928 
L 281.656958 67.822975 
L 284.159649 67.569035 
L 286.664755 67.340134 
L 289.172025 67.136296 
L 291.681208 66.95754 
L 294.192053 66.803884 
L 296.704308 66.675344 
L 299.217724 66.571933 
L 301.732048 66.49366 
L 304.247029 66.440535 
L 306.762415 66.412561 
L 308.302072 66.407849 
L 308.302072 58.62779 
L 306.714797 58.632647 
L 304.121615 58.661486 
L 301.528851 58.716255 
L 298.936765 58.796948 
L 296.345615 58.903558 
L 293.75566 59.036074 
L 291.167161 59.194481 
L 288.580374 59.378766 
L 285.99556 59.588909 
L 283.412977 59.824889 
L 280.832882 60.086682 
L 278.255534 60.374264 
L 275.681191 60.687603 
L 273.11011 61.02667 
L 270.542548 61.391431 
z
" clip-path="url(#pc6749b523c)" style="fill: #17becf"/>
   </g>
   <g id="PatchCollection_1">
    <path d="M 76.78416 416.347541 
L 76.78416 416.347541 
L 75.811908 414.027481 
L 74.862904 411.697815 
L 73.937245 409.358776 
L 73.035021 407.010597 
L 72.156324 404.653513 
L 71.301242 402.287761 
L 70.469859 399.913576 
L 69.662259 397.531196 
L 68.878524 395.140859 
L 68.11873 392.742804 
L 67.382954 390.337272 
L 66.671271 387.924502 
L 65.98375 385.504737 
L 65.32046 383.078217 
L 64.681469 380.645185 
L 64.066839 378.205886 
L 63.476633 375.760562 
L 62.910909 373.309459 
L 62.369724 370.852821 
L 61.853132 368.390894 
L 61.361185 365.923924 
L 60.893932 363.452158 
L 60.451419 360.975844 
L 60.033691 358.495228 
L 59.64079 356.010559 
L 59.272755 353.522085 
L 58.929622 351.030055 
L 58.611427 348.534719 
L 58.3182 346.036326 
L 58.049971 343.535125 
L 57.806768 341.031367 
L 57.588614 338.525303 
L 57.395531 336.017182 
L 57.227538 333.507255 
L 57.084653 330.995775 
L 56.966889 328.482991 
L 56.874258 325.969155 
L 56.80677 323.454518 
L 56.764432 320.939333 
L 56.747246 318.423849 
L 56.755217 315.90832 
L 56.788341 313.392996 
L 56.846617 310.878129 
L 56.930038 308.363971 
L 57.038596 305.850772 
L 57.172281 303.338785 
L 57.331078 300.82826 
L 57.514972 298.319449 
L 57.723944 295.812602 
L 57.957974 293.30797 
L 58.217039 290.805803 
L 58.501111 288.306352 
L 58.810164 285.809867 
L 59.144165 283.316597 
L 59.503082 280.826792 
L 59.886879 278.340701 
L 60.295517 275.858571 
L 60.728955 273.380652 
L 60.931276 272.271393 
L 60.931276 272.271393 
Q 308.302072 317.963096 431.4177 98.594492 
L 431.4177 98.594492 
L 431.4177 98.594492 
L 433.605193 99.836596 
L 435.780157 101.100512 
L 437.942373 102.386115 
L 440.091625 103.693275 
L 442.227698 105.021862 
L 444.350378 106.371743 
L 446.459454 107.742783 
L 448.554714 109.134845 
L 450.63595 110.547789 
L 452.702952 111.981475 
L 454.755513 113.435759 
L 456.79343 114.910495 
L 458.816498 116.405536 
L 460.824514 117.920733 
L 462.817278 119.455934 
L 464.794591 121.010986 
L 466.756255 122.585732 
L 468.702073 124.180017 
L 470.631852 125.793679 
L 472.545398 127.426558 
L 474.442519 129.078491 
L 476.323027 130.749312 
L 478.186732 132.438854 
L 480.03345 134.146948 
L 481.862994 135.873424 
L 483.675183 137.618109 
L 485.469834 139.380828 
L 487.246768 141.161405 
L 489.005809 142.959662 
L 490.746779 144.77542 
L 492.469504 146.608496 
L 494.173814 148.458707 
L 495.859536 150.325868 
L 497.526502 152.209794 
L 499.174547 154.110294 
L 500.803504 156.027179 
L 502.413211 157.960258 
L 504.003507 159.909338 
L 505.574233 161.874222 
L 507.125233 163.854715 
L 508.65635 165.850619 
L 510.167431 167.861734 
L 511.658327 169.887859 
L 513.128887 171.928791 
L 514.578964 173.984327 
L 516.008414 176.05426 
L 517.417094 178.138384 
L 518.804862 180.236491 
L 520.17158 182.34837 
L 521.517111 184.47381 
L 522.841321 186.6126 
L 524.144077 188.764524 
L 525.425249 190.929368 
L 526.68471 193.106915 
L 527.922332 195.296948 
L 529.137992 197.499247 
L 530.331568 199.713593 
L 531.502942 201.939763 
L 532.020756 202.941391 
L 532.020756 202.941391 
Q 308.302072 317.963096 76.78416 416.347541 
z
" clip-path="url(#pc6749b523c)" style="fill: #e377c2; fill-opacity: 0.5; stroke: #808080; stroke-opacity: 0.5; stroke-width: 0.1"/>
    <path d="M 185.186444 537.331701 
L 185.186444 537.331701 
L 182.99895 536.089597 
L 180.823987 534.82568 
L 178.661771 533.540077 
L 176.512519 532.232917 
L 174.376446 530.90433 
L 172.253765 529.554449 
L 170.144689 528.18341 
L 168.049429 526.791348 
L 165.968194 525.378403 
L 163.901192 523.944718 
L 161.84863 522.490434 
L 159.810714 521.015698 
L 157.787646 519.520656 
L 155.77963 518.005459 
L 153.786865 516.470258 
L 151.809552 514.915207 
L 149.847889 513.34046 
L 147.90207 511.746176 
L 145.972292 510.132514 
L 144.058746 508.499634 
L 142.161624 506.847702 
L 140.281117 505.176881 
L 138.417411 503.487339 
L 136.570694 501.779244 
L 134.741149 500.052768 
L 132.928961 498.308084 
L 131.13431 496.545365 
L 129.357375 494.764787 
L 127.598335 492.96653 
L 125.857365 491.150773 
L 124.134639 489.317697 
L 122.43033 487.467486 
L 120.744608 485.600324 
L 119.077641 483.716399 
L 117.429597 481.815899 
L 115.80064 479.899013 
L 114.94485 478.876201 
L 114.94485 478.876201 
Q 308.302072 317.963096 532.020756 202.941391 
L 532.020756 202.941391 
L 532.020756 202.941391 
L 533.159768 205.184291 
L 534.276294 207.43847 
L 535.370224 209.7037 
L 536.441446 211.979757 
L 537.489855 214.266412 
L 538.515345 216.563436 
L 539.517815 218.8706 
L 540.497162 221.187674 
L 541.453291 223.514425 
L 542.386104 225.850621 
L 543.29551 228.196028 
L 544.181416 230.550411 
L 545.043734 232.913536 
L 545.882379 235.285165 
L 546.697265 237.665063 
L 547.488313 240.05299 
L 548.255441 242.448708 
L 548.998575 244.851977 
L 549.717639 247.262558 
L 550.412562 249.680208 
L 551.083274 252.104687 
L 551.729709 254.535751 
L 552.3518 256.973158 
L 552.949487 259.416664 
L 553.522709 261.866025 
L 554.07141 264.320995 
L 554.595533 266.78133 
L 555.095028 269.246783 
L 555.569843 271.717107 
L 556.019932 274.192056 
L 556.44525 276.671381 
L 556.845753 279.154836 
L 557.221402 281.642172 
L 557.572159 284.13314 
L 557.89799 286.627491 
L 558.198861 289.124975 
L 558.348233 290.450195 
L 558.348233 290.450195 
Q 308.302072 317.963096 185.186444 537.331701 
z
" clip-path="url(#pc6749b523c)" style="fill: #9467bd; fill-opacity: 0.5; stroke: #808080; stroke-opacity: 0.5; stroke-width: 0.1"/>
    <path d="M 558.348233 290.450195 
L 558.348233 290.450195 
L 558.610855 292.95199 
L 558.848447 295.456287 
L 559.060984 297.962834 
L 559.248445 300.471382 
L 559.410812 302.981678 
L 559.548069 305.493473 
L 559.660201 308.006514 
L 559.747197 310.520552 
L 559.809049 313.035333 
L 559.845751 315.550607 
L 559.857298 318.066123 
L 559.84369 320.581628 
L 559.804928 323.096871 
L 559.741016 325.611601 
L 559.651961 328.125566 
L 559.53777 330.638515 
L 559.398457 333.150197 
L 559.234033 335.660359 
L 559.044517 338.168752 
L 558.829927 340.675125 
L 558.590284 343.179226 
L 558.325613 345.680806 
L 558.035939 348.179613 
L 557.721292 350.6754 
L 557.381704 353.167915 
L 557.017208 355.656909 
L 556.62784 358.142134 
L 556.21364 360.623342 
L 555.77465 363.100283 
L 555.310912 365.572711 
L 554.822473 368.040378 
L 554.309383 370.503037 
L 553.771692 372.960442 
L 553.209454 375.412347 
L 552.622726 377.858508 
L 552.011566 380.298679 
L 551.376035 382.732617 
L 550.716197 385.160077 
L 550.032118 387.580818 
L 549.323866 389.994598 
L 548.591512 392.401174 
L 547.835129 394.800306 
L 547.054793 397.191755 
L 546.250582 399.575281 
L 545.422577 401.950646 
L 544.570859 404.317612 
L 543.695515 406.675943 
L 542.796632 409.025403 
L 541.8743 411.365756 
L 540.92861 413.696769 
L 539.959658 416.018209 
L 538.96754 418.329844 
L 537.952357 420.631442 
L 536.914208 422.922773 
L 535.853198 425.203608 
L 534.769433 427.47372 
L 533.663022 429.73288 
L 532.534075 431.980863 
L 531.382705 434.217445 
L 530.209027 436.442402 
L 529.013158 438.65551 
L 527.795219 440.85655 
L 526.55533 443.0453 
L 525.293616 445.221542 
L 524.010203 447.385059 
L 522.70522 449.535633 
L 521.378797 451.67305 
L 520.031066 453.797097 
L 518.662162 455.90756 
L 517.272222 458.004228 
L 515.861386 460.086893 
L 514.429794 462.155345 
L 512.977589 464.209379 
L 511.504917 466.248787 
L 510.011925 468.273368 
L 508.498762 470.282917 
L 506.965579 472.277235 
L 505.41253 474.256121 
L 503.839771 476.219378 
L 502.247457 478.16681 
L 500.63575 480.098221 
L 499.004809 482.013419 
L 497.354798 483.912213 
L 495.685882 485.794411 
L 493.998228 487.659826 
L 492.292004 489.508272 
L 490.567381 491.339564 
L 488.824532 493.153518 
L 487.063631 494.949953 
L 485.284854 496.728689 
L 483.488379 498.489549 
L 481.674385 500.232357 
L 479.843054 501.956938 
L 477.99457 503.663119 
L 476.129116 505.350731 
L 474.246879 507.019604 
L 472.348049 508.669572 
L 470.432814 510.300469 
L 468.501365 511.912133 
L 466.553897 513.504402 
L 464.590604 515.077117 
L 462.611683 516.63012 
L 460.61733 518.163257 
L 458.607746 519.676375 
L 456.583132 521.169321 
L 454.54369 522.641946 
L 452.489623 524.094104 
L 450.421138 525.525649 
L 448.338441 526.936438 
L 446.241741 528.32633 
L 444.131247 529.695186 
L 442.00717 531.042868 
L 439.869722 532.369243 
L 437.719118 533.674177 
L 435.555573 534.957541 
L 433.379302 536.219205 
L 431.4177 537.331701 
L 431.4177 537.331701 
Q 308.302072 317.963096 60.931276 272.271393 
L 60.931276 272.271393 
L 60.931276 272.271393 
L 61.400554 269.800011 
L 61.894521 267.333445 
L 62.41313 264.871942 
L 62.956327 262.415748 
L 63.524058 259.965109 
L 64.116267 257.52027 
L 64.732895 255.081474 
L 65.373879 252.648967 
L 66.039155 250.222992 
L 66.728658 247.80379 
L 67.442318 245.391604 
L 68.180064 242.986675 
L 68.941822 240.589244 
L 69.727515 238.19955 
L 70.537066 235.817832 
L 71.370393 233.444329 
L 72.227413 231.079278 
L 73.10804 228.722914 
L 74.012187 226.375475 
L 74.939762 224.037195 
L 75.890674 221.708307 
L 76.864826 219.389044 
L 77.862122 217.079639 
L 78.882462 214.780322 
L 79.925743 212.491323 
L 80.991862 210.212872 
L 82.080712 207.945195 
L 83.192183 205.68852 
L 84.326166 203.443072 
L 85.482546 201.209076 
L 86.661207 198.986756 
L 87.862033 196.776333 
L 89.084902 194.578029 
L 90.329693 192.392063 
L 91.596281 190.218654 
L 92.884539 188.058019 
L 94.194339 185.910375 
L 95.52555 183.775936 
L 96.878038 181.654915 
L 98.251668 179.547526 
L 99.646303 177.453977 
L 101.061803 175.37448 
L 102.498028 173.309241 
L 103.954832 171.258468 
L 105.432071 169.222364 
L 106.929597 167.201135 
L 108.44726 165.194982 
L 109.984909 163.204106 
L 111.542389 161.228705 
L 113.119544 159.268977 
L 114.716218 157.325119 
L 116.33225 155.397325 
L 117.967479 153.485787 
L 119.621742 151.590696 
L 121.294872 149.712243 
L 122.986703 147.850615 
L 124.697065 146.005998 
L 126.425787 144.178576 
L 128.172697 142.368532 
L 129.93762 140.576048 
L 131.720379 138.801303 
L 133.520796 137.044473 
L 135.338691 135.305736 
L 137.173882 133.585263 
L 139.026186 131.883229 
L 140.895418 130.199802 
L 142.78139 128.535152 
L 144.683913 126.889444 
L 146.602799 125.262843 
L 148.537854 123.655512 
L 150.488886 122.067612 
L 152.455699 120.499301 
L 154.438096 118.950736 
L 156.43588 117.422073 
L 158.44885 115.913463 
L 160.476805 114.425058 
L 162.519543 112.957007 
L 164.576858 111.509456 
L 166.648547 110.082551 
L 168.7344 108.676433 
L 170.83421 107.291244 
L 172.947767 105.927122 
L 175.074859 104.584203 
L 177.215274 103.262622 
L 179.368797 101.962511 
L 181.535213 100.683999 
L 183.714306 99.427216 
L 185.905858 98.192285 
L 188.109649 96.979332 
L 190.32546 95.788477 
L 192.553068 94.619839 
L 194.79225 93.473536 
L 197.042784 92.349681 
L 199.304443 91.248387 
L 201.577003 90.169764 
L 203.860234 89.113921 
L 206.15391 88.080962 
L 208.4578 87.070992 
L 210.771675 86.08411 
L 213.095303 85.120416 
L 215.428451 84.180007 
L 217.770886 83.262975 
L 220.122375 82.369413 
L 222.482682 81.49941 
L 224.85157 80.653054 
L 227.228803 79.830428 
L 229.614144 79.031616 
L 232.007353 78.256696 
L 234.408192 77.505747 
L 236.81642 76.778843 
L 239.231797 76.076057 
L 241.65408 75.39746 
L 244.083029 74.74312 
L 246.518399 74.113101 
L 248.959947 73.507467 
L 251.40743 72.926278 
L 253.60637 72.426088 
L 253.60637 72.426088 
Q 308.302072 317.963096 558.348233 290.450195 
z
" clip-path="url(#pc6749b523c)" style="fill: #2ca02c; fill-opacity: 0.5; stroke: #808080; stroke-opacity: 0.5; stroke-width: 0.1"/>
    <path d="M 431.4177 537.331701 
L 431.4177 537.331701 
L 429.217894 538.551868 
L 427.005998 539.749977 
L 424.782231 540.925907 
L 422.546816 542.079541 
L 420.299976 543.210764 
L 418.041937 544.319462 
L 415.772925 545.405525 
L 413.493165 546.468843 
L 411.202886 547.509311 
L 408.902317 548.526825 
L 406.591688 549.521283 
L 404.27123 550.492585 
L 401.941176 551.440634 
L 399.601757 552.365336 
L 397.253209 553.266597 
L 394.895766 554.144329 
L 392.529663 554.998442 
L 390.155138 555.828853 
L 387.772427 556.635476 
L 385.38177 557.418233 
L 382.983404 558.177045 
L 380.577571 558.911835 
L 378.16451 559.622531 
L 375.744463 560.30906 
L 373.317672 560.971356 
L 370.884379 561.609351 
L 368.444828 562.222981 
L 365.999262 562.812186 
L 363.547927 563.376906 
L 362.997773 563.500105 
L 362.997773 563.500105 
Q 308.302072 317.963096 114.94485 478.876201 
L 114.94485 478.876201 
L 114.94485 478.876201 
L 113.345414 476.934616 
L 111.765473 474.977133 
L 110.205186 473.003949 
L 108.664708 471.015262 
L 107.144193 469.011269 
L 105.643795 466.992171 
L 104.163662 464.958171 
L 102.703942 462.909471 
L 101.264782 460.846277 
L 99.846326 458.768794 
L 98.448715 456.677231 
L 97.07209 454.571797 
L 95.716587 452.452702 
L 94.382342 450.320158 
L 93.06949 448.174379 
L 91.77816 446.015578 
L 90.508483 443.843973 
L 89.260585 441.659779 
L 88.03459 439.463216 
L 86.830623 437.254503 
L 85.648802 435.033861 
L 84.489246 432.801512 
L 83.352072 430.557679 
L 82.237392 428.302587 
L 81.145319 426.036461 
L 80.075961 423.759527 
L 79.029426 421.472014 
L 78.005817 419.174151 
L 77.005238 416.866166 
L 76.78416 416.347541 
L 76.78416 416.347541 
Q 308.302072 317.963096 431.4177 537.331701 
z
" clip-path="url(#pc6749b523c)" style="fill: #2ca02c; fill-opacity: 0.5; stroke: #808080; stroke-opacity: 0.5; stroke-width: 0.1"/>
    <path d="M 362.997773 563.500105 
L 362.997773 563.500105 
L 360.539709 564.034776 
L 358.076422 564.54484 
L 355.608157 565.030247 
L 353.135161 565.490946 
L 350.657682 565.926893 
L 348.175968 566.338044 
L 345.690266 566.724358 
L 343.200826 567.085796 
L 340.707895 567.422322 
L 338.211724 567.733901 
L 335.712562 568.020505 
L 333.210659 568.282102 
L 330.706266 568.518668 
L 328.199631 568.730179 
L 326.664426 568.847266 
L 326.664426 568.847266 
Q 308.302072 317.963096 271.675334 69.088581 
L 271.675334 69.088581 
L 271.675334 69.088581 
L 274.165869 68.734763 
L 276.659818 68.405868 
L 279.15693 68.101928 
L 281.656958 67.822975 
L 284.159649 67.569035 
L 286.664755 67.340134 
L 289.172025 67.136296 
L 291.681208 66.95754 
L 294.192053 66.803884 
L 296.704308 66.675344 
L 299.217724 66.571933 
L 301.732048 66.49366 
L 304.247029 66.440535 
L 306.762415 66.412561 
L 308.302072 66.407849 
L 308.302072 66.407849 
Q 308.302072 317.963096 362.997773 563.500105 
z
" clip-path="url(#pc6749b523c)" style="fill: #2ca02c; fill-opacity: 0.5; stroke: #808080; stroke-opacity: 0.5; stroke-width: 0.1"/>
    <path d="M 326.664426 568.847266 
L 326.664426 568.847266 
L 324.154708 569.018342 
L 321.643405 569.164313 
L 319.130768 569.285164 
L 316.617047 569.380883 
L 314.102496 569.451461 
L 311.587364 569.49689 
L 309.071904 569.517166 
L 308.302072 569.518344 
L 308.302072 569.518344 
Q 308.302072 317.963096 253.60637 72.426088 
L 253.60637 72.426088 
L 253.60637 72.426088 
L 256.064434 71.891416 
L 258.527722 71.381352 
L 260.995987 70.895946 
L 263.468982 70.435246 
L 265.946461 69.999299 
L 268.428176 69.588148 
L 270.913877 69.201835 
L 271.675334 69.088581 
L 271.675334 69.088581 
Q 308.302072 317.963096 326.664426 568.847266 
z
" clip-path="url(#pc6749b523c)" style="fill: #2ca02c; fill-opacity: 0.5; stroke: #808080; stroke-opacity: 0.5; stroke-width: 0.1"/>
    <path d="M 308.302072 569.518344 
L 308.302072 569.518344 
L 305.786561 569.505766 
L 303.271302 569.468034 
L 300.756546 569.405152 
L 298.242545 569.317126 
L 295.72955 569.203965 
L 293.217811 569.06568 
L 290.707582 568.902285 
L 288.199111 568.713796 
L 285.692651 568.500232 
L 283.188452 568.261615 
L 280.686764 567.997968 
L 278.187838 567.709318 
L 275.691923 567.395694 
L 273.199269 567.057126 
L 270.710125 566.693649 
L 268.224741 566.3053 
L 265.743364 565.892116 
L 263.266243 565.45414 
L 260.793626 564.991414 
L 258.325759 564.503987 
L 255.86289 563.991905 
L 253.60637 563.500105 
L 253.60637 563.500105 
Q 308.302072 317.963096 308.302072 66.407849 
L 308.302072 66.407849 
L 308.302072 66.407849 
L 310.817582 66.420427 
L 313.332841 66.458158 
L 315.847597 66.52104 
L 318.361599 66.609066 
L 320.874594 66.722228 
L 323.386332 66.860513 
L 325.896562 67.023908 
L 328.405032 67.212397 
L 330.911492 67.42596 
L 333.415692 67.664577 
L 335.917379 67.928224 
L 338.416306 68.216874 
L 340.912221 68.530499 
L 343.404875 68.869066 
L 345.894018 69.232543 
L 348.379403 69.620893 
L 350.860779 70.034077 
L 353.3379 70.472053 
L 355.810518 70.934778 
L 358.278384 71.422206 
L 360.741253 71.934288 
L 362.997773 72.426088 
L 362.997773 72.426088 
Q 308.302072 317.963096 308.302072 569.518344 
z
" clip-path="url(#pc6749b523c)" style="fill: #2ca02c; fill-opacity: 0.5; stroke: #808080; stroke-opacity: 0.5; stroke-width: 0.1"/>
    <path d="M 362.997773 72.426088 
L 362.997773 72.426088 
L 365.450368 72.985312 
L 367.897247 73.569034 
L 370.338168 74.177196 
L 372.772884 74.809736 
L 375.201154 75.466591 
L 377.622733 76.147695 
L 380.037381 76.852981 
L 382.444855 77.582377 
L 384.844915 78.335812 
L 387.237321 79.113209 
L 389.621834 79.91449 
L 391.998214 80.739577 
L 394.366225 81.588385 
L 396.725629 82.460831 
L 399.076192 83.356827 
L 401.417677 84.276283 
L 403.74985 85.219108 
L 406.072479 86.185207 
L 408.385331 87.174484 
L 410.688174 88.186839 
L 412.980779 89.222171 
L 415.262916 90.280378 
L 417.534358 91.361353 
L 419.794876 92.464987 
L 422.044245 93.591172 
L 424.282239 94.739793 
L 426.508636 95.910736 
L 428.723213 97.103885 
L 430.925747 98.319119 
L 431.4177 98.594492 
L 431.4177 98.594492 
Q 308.302072 317.963096 253.60637 563.500105 
L 253.60637 563.500105 
L 253.60637 563.500105 
L 251.153776 562.94088 
L 248.706896 562.357158 
L 246.265976 561.748997 
L 243.831259 561.116457 
L 241.40299 560.459602 
L 238.98141 559.778498 
L 236.566762 559.073212 
L 234.159288 558.343815 
L 231.759228 557.590381 
L 229.366822 556.812984 
L 226.98231 556.011702 
L 224.60593 555.186616 
L 222.237919 554.337807 
L 219.878514 553.465361 
L 217.527952 552.569366 
L 215.186467 551.649909 
L 212.854294 550.707085 
L 210.531665 549.740986 
L 208.218813 548.751709 
L 205.91597 547.739354 
L 203.623364 546.704021 
L 201.341227 545.645814 
L 199.069786 544.56484 
L 196.809268 543.461205 
L 194.559899 542.335021 
L 192.321904 541.1864 
L 190.095507 540.015456 
L 187.880931 538.822308 
L 185.678397 537.607074 
L 185.186444 537.331701 
L 185.186444 537.331701 
Q 308.302072 317.963096 362.997773 72.426088 
z
" clip-path="url(#pc6749b523c)" style="fill: #1f77b4; fill-opacity: 0.5; stroke: #808080; stroke-opacity: 0.5; stroke-width: 0.1"/>
   </g>
   <g id="patch_8">
    <path d="M 308.302072 66.407849 
L 310.817582 66.420427 
L 313.332841 66.458158 
L 315.847597 66.52104 
L 318.361599 66.609066 
L 320.874594 66.722228 
L 323.386332 66.860513 
L 325.896562 67.023908 
L 328.405032 67.212397 
L 330.911492 67.42596 
L 333.415692 67.664577 
L 335.917379 67.928224 
L 338.416306 68.216874 
L 340.912221 68.530499 
L 343.404875 68.869066 
L 345.894018 69.232543 
L 348.379403 69.620893 
L 350.860779 70.034077 
L 353.3379 70.472053 
L 355.810518 70.934778 
L 358.278384 71.422206 
L 360.741253 71.934288 
L 363.198879 72.470972 
L 365.651014 73.032206 
L 368.097415 73.617932 
L 370.537836 74.228092 
L 372.972034 74.862626 
L 375.399764 75.52147 
L 377.820785 76.204558 
L 380.234855 76.911821 
L 382.64173 77.64319 
L 385.041173 78.39859 
L 387.432941 79.177946 
L 389.816796 79.981181 
L 392.1925 80.808213 
L 394.559815 81.658961 
L 396.918504 82.533339 
L 399.268331 83.43126 
L 401.609062 84.352634 
L 403.940463 85.297369 
L 406.262299 86.26537 
L 408.57434 87.256541 
L 410.876353 88.270782 
L 413.16811 89.307992 
L 415.449379 90.368068 
L 417.719934 91.450903 
L 419.979548 92.556389 
L 422.227993 93.684415 
L 424.465046 94.834869 
L 426.690483 96.007636 
L 428.904082 97.202598 
L 431.10562 98.419636 
L 431.4177 98.594492 
L 435.225399 91.809896 
L 434.903668 91.629632 
L 432.634041 90.374954 
L 430.351981 89.143034 
L 428.057716 87.933996 
L 425.751475 86.747961 
L 423.43349 85.585047 
L 421.103992 84.445371 
L 418.763214 83.329046 
L 416.411389 82.236185 
L 414.048754 81.166896 
L 411.675544 80.121287 
L 409.291997 79.099461 
L 406.898351 78.101522 
L 404.494845 77.127568 
L 402.081721 76.177698 
L 399.659218 75.252007 
L 397.22758 74.350586 
L 394.787049 73.473526 
L 392.33787 72.620915 
L 389.880287 71.792838 
L 387.414547 70.989378 
L 384.940895 70.210615 
L 382.45958 69.456627 
L 379.970849 68.72749 
L 377.474951 68.023275 
L 374.972136 67.344055 
L 372.462653 66.689896 
L 369.946755 66.060865 
L 367.424693 65.457023 
L 364.896718 64.878432 
L 362.363084 64.325149 
L 359.824044 63.79723 
L 357.279851 63.294727 
L 354.730761 62.817691 
L 352.177028 62.366169 
L 349.618908 61.940206 
L 347.056656 61.539846 
L 344.490528 61.165127 
L 341.920782 60.816089 
L 339.347674 60.492764 
L 336.771461 60.195187 
L 334.192402 59.923386 
L 331.610753 59.677389 
L 329.026773 59.45722 
L 326.440722 59.262902 
L 323.852856 59.094453 
L 321.263435 58.951891 
L 318.672718 58.83523 
L 316.080964 58.744482 
L 313.488432 58.679655 
L 310.895382 58.640756 
L 308.302072 58.62779 
L 308.302072 66.407849 
z
" clip-path="url(#pc6749b523c)" style="fill: none; stroke: #000000; stroke-width: 0.5; stroke-linejoin: miter"/>
   </g>
   <g id="patch_9">
    <path d="M 431.4177 98.594492 
L 433.605193 99.836596 
L 435.780157 101.100512 
L 437.942373 102.386115 
L 440.091625 103.693275 
L 442.227698 105.021862 
L 444.350378 106.371743 
L 446.459454 107.742783 
L 448.554714 109.134845 
L 450.63595 110.547789 
L 452.702952 111.981475 
L 454.755513 113.435759 
L 456.79343 114.910495 
L 458.816498 116.405536 
L 460.824514 117.920733 
L 462.817278 119.455934 
L 464.794591 121.010986 
L 466.756255 122.585732 
L 468.702073 124.180017 
L 470.631852 125.793679 
L 472.545398 127.426558 
L 474.442519 129.078491 
L 476.323027 130.749312 
L 478.186732 132.438854 
L 480.03345 134.146948 
L 481.862994 135.873424 
L 483.675183 137.618109 
L 485.469834 139.380828 
L 487.246768 141.161405 
L 489.005809 142.959662 
L 490.746779 144.77542 
L 492.469504 146.608496 
L 494.173814 148.458707 
L 495.859536 150.325868 
L 497.526502 152.209794 
L 499.174547 154.110294 
L 500.803504 156.027179 
L 502.413211 157.960258 
L 504.003507 159.909338 
L 505.574233 161.874222 
L 507.125233 163.854715 
L 508.65635 165.850619 
L 510.167431 167.861734 
L 511.658327 169.887859 
L 513.128887 171.928791 
L 514.578964 173.984327 
L 516.008414 176.05426 
L 517.417094 178.138384 
L 518.804862 180.236491 
L 520.17158 182.34837 
L 521.517111 184.47381 
L 522.841321 186.6126 
L 524.144077 188.764524 
L 525.425249 190.929368 
L 526.68471 193.106915 
L 527.922332 195.296948 
L 529.137992 197.499247 
L 530.331568 199.713593 
L 531.502942 201.939763 
L 532.651996 204.177536 
L 533.778616 206.426687 
L 534.882687 208.686991 
L 535.964101 210.958224 
L 537.022749 213.240156 
L 538.058525 215.532561 
L 539.071326 217.835209 
L 540.06105 220.147869 
L 541.027598 222.470311 
L 541.970873 224.802302 
L 542.890782 227.143609 
L 543.787233 229.493998 
L 544.660135 231.853234 
L 545.509401 234.22108 
L 546.334947 236.597301 
L 547.13669 238.981659 
L 547.91455 241.373914 
L 548.668448 243.773828 
L 549.39831 246.181161 
L 550.104063 248.595673 
L 550.785636 251.017121 
L 551.44296 253.445263 
L 552.075971 255.879857 
L 552.684604 258.32066 
L 553.2688 260.767427 
L 553.828499 263.219913 
L 554.363645 265.677873 
L 554.874186 268.141062 
L 555.360069 270.609233 
L 555.821247 273.08214 
L 556.257673 275.559534 
L 556.669304 278.041169 
L 557.056099 280.526796 
L 557.418018 283.016167 
L 557.755026 285.509032 
L 558.067088 288.005143 
L 558.354175 290.504249 
L 558.616256 293.006101 
L 558.853306 295.510449 
L 559.065302 298.017043 
L 559.252221 300.52563 
L 559.414045 303.035962 
L 559.550758 305.547786 
L 559.662347 308.060852 
L 559.7488 310.574908 
L 559.810108 313.089703 
L 559.846266 315.604985 
L 559.85727 318.120503 
L 559.843118 320.636005 
L 559.803813 323.15124 
L 559.739357 325.665956 
L 559.649758 328.179902 
L 559.535024 330.692826 
L 559.395168 333.204477 
L 559.230202 335.714604 
L 559.040143 338.222956 
L 558.825011 340.729282 
L 558.584827 343.233331 
L 558.319615 345.734854 
L 558.029401 348.233599 
L 557.714215 350.729317 
L 557.374088 353.221758 
L 557.009054 355.710674 
L 556.619149 358.195815 
L 556.204413 360.676933 
L 555.764886 363.153779 
L 555.300614 365.626107 
L 554.811642 368.093668 
L 554.298019 370.556216 
L 553.759797 373.013505 
L 553.197029 375.465289 
L 552.609773 377.911322 
L 551.998085 380.351361 
L 551.362028 382.785161 
L 550.701665 385.212479 
L 550.017063 387.633072 
L 549.308289 390.046699 
L 548.575415 392.453117 
L 547.818513 394.852085 
L 547.037661 397.243365 
L 546.232934 399.626718 
L 545.404415 402.001903 
L 544.552186 404.368685 
L 543.676332 406.726827 
L 542.776941 409.076092 
L 541.854103 411.416246 
L 540.907909 413.747055 
L 539.938456 416.068285 
L 538.945838 418.379705 
L 537.930157 420.681084 
L 536.891513 422.972191 
L 535.83001 425.252797 
L 534.745755 427.522674 
L 533.638855 429.781595 
L 532.509422 432.029334 
L 531.357568 434.265667 
L 530.183409 436.49037 
L 528.987062 438.70322 
L 527.768647 440.903996 
L 526.528285 443.092478 
L 525.266101 445.268447 
L 523.982221 447.431686 
L 522.676772 449.581979 
L 521.349887 451.719109 
L 520.001697 453.842864 
L 518.632337 455.953031 
L 517.241944 458.049399 
L 515.830658 460.131759 
L 514.398618 462.199902 
L 512.945969 464.253621 
L 511.472857 466.292711 
L 509.979427 468.316969 
L 508.465829 470.326191 
L 506.932216 472.320177 
L 505.378739 474.298728 
L 503.805555 476.261645 
L 502.212821 478.208732 
L 500.600696 480.139795 
L 498.969341 482.054641 
L 497.318919 483.953077 
L 495.649597 485.834915 
L 493.961539 487.699965 
L 492.254916 489.548042 
L 490.529897 491.378961 
L 488.786656 493.192538 
L 487.025367 494.988592 
L 485.246205 496.766944 
L 483.44935 498.527416 
L 481.634979 500.269831 
L 479.803276 501.994016 
L 477.954422 503.699798 
L 476.088604 505.387007 
L 474.206006 507.055473 
L 472.306819 508.70503 
L 470.391231 510.335513 
L 468.459435 511.946759 
L 466.511623 513.538607 
L 464.54799 515.110898 
L 462.568732 516.663473 
L 460.574048 518.196179 
L 458.564137 519.708862 
L 456.5392 521.201371 
L 454.49944 522.673555 
L 452.445059 524.125269 
L 450.376265 525.556367 
L 448.293263 526.966706 
L 446.196262 528.356144 
L 444.085472 529.724544 
L 441.961104 531.071767 
L 439.82337 532.39768 
L 437.672484 533.702149 
L 435.508661 534.985045 
L 433.332117 536.246238 
L 431.143071 537.485604 
L 428.94174 538.703017 
L 426.728346 539.898357 
L 424.503109 541.071504 
L 422.266252 542.222339 
L 420.017999 543.350749 
L 417.758574 544.45662 
L 415.488204 545.539843 
L 413.207115 546.600307 
L 410.915536 547.637909 
L 408.613696 548.652542 
L 406.301824 549.644108 
L 403.980153 550.612505 
L 401.648913 551.557637 
L 399.30834 552.479411 
L 396.958665 553.377732 
L 394.600125 554.252513 
L 392.232956 555.103665 
L 389.857393 555.931103 
L 387.473675 556.734744 
L 385.08204 557.514508 
L 382.682726 558.270318 
L 380.275975 559.002097 
L 377.862027 559.709772 
L 375.441122 560.393272 
L 373.013504 561.05253 
L 370.579415 561.68748 
L 368.139098 562.298056 
L 365.692797 562.8842 
L 363.240757 563.445852 
L 360.783224 563.982956 
L 358.320442 564.495457 
L 355.852659 564.983306 
L 353.38012 565.446453 
L 350.903074 565.884852 
L 348.421768 566.298459 
L 345.936449 566.687233 
L 343.447368 567.051134 
L 340.954772 567.390127 
L 338.45891 567.704177 
L 335.960033 567.993254 
L 333.458391 568.257327 
L 330.954232 568.496372 
L 328.447809 568.710363 
L 325.93937 568.89928 
L 323.429169 569.063103 
L 320.917454 569.201817 
L 318.404478 569.315406 
L 315.890492 569.403861 
L 313.375746 569.467172 
L 310.860494 569.505333 
L 308.344986 569.51834 
L 305.829473 569.506191 
L 303.314207 569.468889 
L 300.799441 569.406436 
L 298.285425 569.318839 
L 295.77241 569.206106 
L 293.260648 569.06825 
L 290.75039 568.905283 
L 288.241888 568.717222 
L 285.735392 568.504086 
L 283.231152 568.265896 
L 280.729419 568.002676 
L 278.230443 567.714452 
L 275.734475 567.401253 
L 273.241763 567.063111 
L 270.752558 566.700059 
L 268.267107 566.312133 
L 265.78566 565.899373 
L 263.308464 565.461819 
L 260.835768 564.999516 
L 258.367818 564.512509 
L 255.904862 564.000847 
L 253.447145 563.464582 
L 250.994914 562.903767 
L 248.548413 562.318458 
L 246.107888 561.708714 
L 243.673582 561.074595 
L 241.245739 560.416165 
L 238.824602 559.733491 
L 236.410412 559.026639 
L 234.003411 558.295681 
L 231.60384 557.540691 
L 229.211939 556.761742 
L 226.827947 555.958914 
L 224.452102 555.132287 
L 222.084642 554.281943 
L 219.725804 553.407967 
L 217.375823 552.510447 
L 215.034935 551.589473 
L 212.703374 550.645135 
L 210.381372 549.67753 
L 208.069162 548.686754 
L 205.766976 547.672906 
L 203.475043 546.636086 
L 201.193592 545.5764 
L 198.922852 544.493952 
L 196.663051 543.388852 
L 194.414412 542.261209 
L 192.177163 541.111137 
L 189.951526 539.93875 
L 187.737724 538.744165 
L 185.535978 537.527503 
L 185.186444 537.331701 
L 181.378744 544.116297 
L 181.739089 544.318155 
L 184.00893 545.572446 
L 186.2912 546.803976 
L 188.585671 548.012623 
L 190.892114 549.198264 
L 193.210297 550.360783 
L 195.53999 551.500061 
L 197.880959 552.615987 
L 200.23297 553.708447 
L 202.595787 554.777333 
L 204.969175 555.822537 
L 207.352897 556.843956 
L 209.746713 557.841487 
L 212.150385 558.815031 
L 214.563671 559.764489 
L 216.986332 560.689767 
L 219.418124 561.590773 
L 221.858804 562.467417 
L 224.308129 563.31961 
L 226.765853 564.147268 
L 229.23173 564.950307 
L 231.705515 565.728648 
L 234.186959 566.482213 
L 236.675814 567.210926 
L 239.171832 567.914714 
L 241.674763 568.593507 
L 244.184357 569.247238 
L 246.700362 569.87584 
L 249.222528 570.479252 
L 251.750601 571.057411 
L 254.28433 571.610262 
L 256.82346 572.137748 
L 259.367738 572.639817 
L 261.916909 573.116419 
L 264.470719 573.567505 
L 267.028912 573.993031 
L 269.591233 574.392954 
L 272.157424 574.767235 
L 274.72723 575.115835 
L 277.300393 575.438721 
L 279.876657 575.735859 
L 282.455762 576.007219 
L 285.037453 576.252776 
L 287.62147 576.472504 
L 290.207555 576.666381 
L 292.795449 576.834388 
L 295.384894 576.976509 
L 297.975631 577.092728 
L 300.567401 577.183034 
L 303.159944 577.247418 
L 305.753001 577.285875 
L 308.346313 577.298399 
L 310.93962 577.28499 
L 313.532664 577.245649 
L 316.125185 577.18038 
L 318.716923 577.089189 
L 321.30762 576.972086 
L 323.897017 576.829083 
L 326.484854 576.660193 
L 329.070873 576.465433 
L 331.654814 576.244823 
L 334.236421 575.998386 
L 336.815434 575.726145 
L 339.391596 575.428128 
L 341.964649 575.104365 
L 344.534336 574.754888 
L 347.100399 574.379732 
L 349.662583 573.978934 
L 352.220631 573.552535 
L 354.774287 573.100578 
L 357.323295 572.623107 
L 359.867402 572.12017 
L 362.406352 571.591817 
L 364.939892 571.038102 
L 367.467768 570.45908 
L 369.989727 569.854808 
L 372.505518 569.225347 
L 375.014889 568.57076 
L 377.517588 567.891113 
L 380.013366 567.186473 
L 382.501972 566.456911 
L 384.983159 565.7025 
L 387.456678 564.923315 
L 389.922281 564.119434 
L 392.379722 563.290938 
L 394.828756 562.437909 
L 397.269137 561.560433 
L 399.700622 560.658597 
L 402.122966 559.732492 
L 404.535929 558.782211 
L 406.939268 557.807847 
L 409.332744 556.8095 
L 411.716117 555.787268 
L 414.089148 554.741253 
L 416.451601 553.671561 
L 418.803239 552.578299 
L 421.143827 551.461575 
L 423.473131 550.321501 
L 425.790918 549.158192 
L 428.096956 547.971764 
L 430.391014 546.762334 
L 432.672864 545.530025 
L 434.942277 544.27496 
L 437.199026 542.997263 
L 439.442885 541.697064 
L 441.673631 540.374491 
L 443.891039 539.029677 
L 446.094889 537.662757 
L 448.284959 536.273867 
L 450.461031 534.863146 
L 452.622888 533.430735 
L 454.770312 531.976777 
L 456.90309 530.501419 
L 459.021008 529.004807 
L 461.123854 527.48709 
L 463.211418 525.948422 
L 465.283491 524.388955 
L 467.339866 522.808846 
L 469.380338 521.208252 
L 471.404702 519.587334 
L 473.412755 517.946254 
L 475.404298 516.285176 
L 477.379131 514.604265 
L 479.337056 512.903691 
L 481.277878 511.183623 
L 483.201402 509.444232 
L 485.107437 507.685694 
L 486.995791 505.908184 
L 488.866276 504.111879 
L 490.718704 502.29696 
L 492.552892 500.463608 
L 494.368654 498.612005 
L 496.165809 496.742338 
L 497.944179 494.854793 
L 499.703584 492.949559 
L 501.44385 491.026827 
L 503.164801 489.086788 
L 504.866267 487.129637 
L 506.548076 485.155569 
L 508.21006 483.164783 
L 509.852054 481.157476 
L 511.473894 479.13385 
L 513.075416 477.094108 
L 514.656461 475.038452 
L 516.216871 472.967089 
L 517.756489 470.880225 
L 519.275162 468.77807 
L 520.772738 466.660834 
L 522.249067 464.528728 
L 523.704002 462.381965 
L 525.137397 460.220761 
L 526.549108 458.045331 
L 527.938995 455.855893 
L 529.306918 453.652666 
L 530.652741 451.43587 
L 531.976329 449.205726 
L 533.27755 446.962459 
L 534.556273 444.706292 
L 535.812371 442.43745 
L 537.045719 440.156162 
L 538.256192 437.862654 
L 539.44367 435.557156 
L 540.608034 433.239899 
L 541.749167 430.911114 
L 542.866957 428.571035 
L 543.961289 426.219895 
L 545.032056 423.857929 
L 546.079151 421.485374 
L 547.102467 419.102467 
L 548.101904 416.709445 
L 549.077362 414.30655 
L 550.028741 411.89402 
L 550.955949 409.472097 
L 551.858891 407.041023 
L 552.737478 404.601042 
L 553.591621 402.152397 
L 554.421235 399.695333 
L 555.226238 397.230095 
L 556.006549 394.756932 
L 556.762089 392.276088 
L 557.492784 389.787814 
L 558.19856 387.292357 
L 558.879346 384.789968 
L 559.535075 382.280895 
L 560.165681 379.765391 
L 560.7711 377.243707 
L 561.351273 374.716095 
L 561.906141 372.182807 
L 562.435649 369.644098 
L 562.939744 367.100221 
L 563.418375 364.551429 
L 563.871495 361.997979 
L 564.299058 359.440126 
L 564.701022 356.878125 
L 565.077346 354.312233 
L 565.427993 351.742705 
L 565.752927 349.1698 
L 566.052116 346.593774 
L 566.325531 344.014885 
L 566.573143 341.433391 
L 566.794929 338.84955 
L 566.990866 336.26362 
L 567.160933 333.67586 
L 567.305116 331.086529 
L 567.423398 328.495885 
L 567.515768 325.904189 
L 567.582217 323.311698 
L 567.622738 320.718672 
L 567.637328 318.125371 
L 567.625984 315.532054 
L 567.588707 312.938979 
L 567.525503 310.346407 
L 567.436376 307.754597 
L 567.321336 305.163808 
L 567.180395 302.574298 
L 567.013565 299.986327 
L 566.820865 297.400154 
L 566.602314 294.816038 
L 566.357932 292.234236 
L 566.087745 289.655006 
L 565.79178 287.078608 
L 565.470065 284.505298 
L 565.122635 281.935334 
L 564.749522 279.368972 
L 564.350765 276.80647 
L 563.926403 274.248084 
L 563.476479 271.694069 
L 563.001038 269.144681 
L 562.500127 266.600175 
L 561.973797 264.060804 
L 561.4221 261.526825 
L 560.84509 258.998488 
L 560.242827 256.476048 
L 559.61537 253.959757 
L 558.962782 251.449866 
L 558.285127 248.946627 
L 557.582475 246.450288 
L 556.854895 243.961102 
L 556.10246 241.479315 
L 555.325245 239.005176 
L 554.523328 236.538934 
L 553.696789 234.080833 
L 552.845711 231.631121 
L 551.970178 229.190042 
L 551.070279 226.75784 
L 550.146103 224.334759 
L 549.197744 221.92104 
L 548.225294 219.516926 
L 547.228853 217.122656 
L 546.208519 214.73847 
L 545.164395 212.364606 
L 544.096585 210.001302 
L 543.005195 207.648794 
L 541.890335 205.307318 
L 540.752117 202.977107 
L 539.590654 200.658395 
L 538.406062 198.351413 
L 537.19846 196.056392 
L 535.967969 193.773561 
L 534.714711 191.503149 
L 533.438812 189.245384 
L 532.140399 187.00049 
L 530.819603 184.768692 
L 529.476556 182.550213 
L 528.111391 180.345276 
L 526.724245 178.1541 
L 525.315257 175.976905 
L 523.884569 173.813909 
L 522.432322 171.665327 
L 520.958662 169.531375 
L 519.463737 167.412266 
L 517.947696 165.308212 
L 516.41069 163.219424 
L 514.852874 161.146109 
L 513.274403 159.088476 
L 511.675434 157.046731 
L 510.056129 155.021077 
L 508.416648 153.011717 
L 506.757156 151.018852 
L 505.077819 149.042682 
L 503.378804 147.083403 
L 501.660282 145.141212 
L 499.922424 143.216303 
L 498.165404 141.308869 
L 496.389399 139.4191 
L 494.594584 137.547185 
L 492.78114 135.693312 
L 490.949249 133.857665 
L 489.099093 132.040429 
L 487.230858 130.241785 
L 485.344729 128.461913 
L 483.440897 126.700991 
L 481.519551 124.959195 
L 479.580883 123.236699 
L 477.625088 121.533676 
L 475.652361 119.850295 
L 473.662898 118.186726 
L 471.6569 116.543134 
L 469.634566 114.919683 
L 467.596099 113.316537 
L 465.541703 111.733856 
L 463.471583 110.171797 
L 461.385946 108.630517 
L 459.285001 107.110171 
L 457.168958 105.610909 
L 455.038028 104.132883 
L 452.892425 102.676239 
L 450.732363 101.241124 
L 448.558058 99.827681 
L 446.369727 98.436051 
L 444.16759 97.066374 
L 441.951867 95.718786 
L 439.722778 94.393422 
L 437.480548 93.090415 
L 435.225399 91.809896 
L 431.4177 98.594492 
z
" clip-path="url(#pc6749b523c)" style="fill: none; stroke: #000000; stroke-width: 0.5; stroke-linejoin: miter"/>
   </g>
   <g id="patch_10">
    <path d="M 185.186444 537.331701 
L 182.99895 536.089597 
L 180.823987 534.82568 
L 178.661771 533.540077 
L 176.512519 532.232917 
L 174.376446 530.90433 
L 172.253765 529.554449 
L 170.144689 528.18341 
L 168.049429 526.791348 
L 165.968194 525.378403 
L 163.901192 523.944718 
L 161.84863 522.490434 
L 159.810714 521.015698 
L 157.787646 519.520656 
L 155.77963 518.005459 
L 153.786865 516.470258 
L 151.809552 514.915207 
L 149.847889 513.34046 
L 147.90207 511.746176 
L 145.972292 510.132514 
L 144.058746 508.499634 
L 142.161624 506.847702 
L 140.281117 505.176881 
L 138.417411 503.487339 
L 136.570694 501.779244 
L 134.741149 500.052768 
L 132.928961 498.308084 
L 131.13431 496.545365 
L 129.357375 494.764787 
L 127.598335 492.96653 
L 125.857365 491.150773 
L 124.134639 489.317697 
L 122.43033 487.467486 
L 120.744608 485.600324 
L 119.077641 483.716399 
L 117.429597 481.815899 
L 115.80064 479.899013 
L 114.190933 477.965934 
L 112.600636 476.016855 
L 111.02991 474.051971 
L 109.478911 472.071478 
L 107.947794 470.075574 
L 106.436712 468.064459 
L 104.945817 466.038334 
L 103.475257 463.997401 
L 102.025179 461.941866 
L 100.595729 459.871932 
L 99.18705 457.787808 
L 97.799282 455.689702 
L 96.432564 453.577823 
L 95.087032 451.452382 
L 93.762822 449.313593 
L 92.460066 447.161669 
L 91.178894 444.996825 
L 89.919434 442.819277 
L 88.681812 440.629245 
L 87.466152 438.426945 
L 86.272575 436.2126 
L 85.101201 433.98643 
L 83.952147 431.748657 
L 82.825528 429.499506 
L 81.721456 427.239201 
L 80.640042 424.967969 
L 79.581394 422.686036 
L 78.545618 420.393632 
L 77.532818 418.090984 
L 76.78416 416.347541 
L 69.623812 419.390359 
L 70.395625 421.187723 
L 71.439749 423.561586 
L 72.507559 425.92489 
L 73.598949 428.277398 
L 74.713808 430.618875 
L 75.852027 432.949086 
L 77.01349 435.267798 
L 78.198082 437.57478 
L 79.405684 439.869801 
L 80.636175 442.152632 
L 81.889433 444.423043 
L 83.165332 446.680809 
L 84.463744 448.925703 
L 85.78454 451.157501 
L 87.127588 453.375979 
L 88.492753 455.580917 
L 89.879899 457.772092 
L 91.288886 459.949287 
L 92.719575 462.112284 
L 94.171822 464.260865 
L 95.645482 466.394817 
L 97.140407 468.513926 
L 98.656448 470.61798 
L 100.193454 472.706769 
L 101.75127 474.780083 
L 103.329741 476.837716 
L 104.928709 478.879462 
L 106.548015 480.905116 
L 108.187495 482.914476 
L 109.846987 484.90734 
L 111.526325 486.883511 
L 113.225339 488.84279 
L 114.943862 490.784981 
L 116.681719 492.70989 
L 118.438739 494.617324 
L 120.214745 496.507093 
L 122.00956 498.379008 
L 123.823003 500.232881 
L 125.654895 502.068528 
L 127.50505 503.885764 
L 129.373286 505.684408 
L 131.259414 507.46428 
L 133.163246 509.225202 
L 135.084592 510.966998 
L 137.02326 512.689494 
L 138.979056 514.392517 
L 140.951783 516.075898 
L 142.941245 517.739467 
L 144.947244 519.383059 
L 146.969578 521.006509 
L 149.008044 522.609655 
L 151.062441 524.192337 
L 153.132561 525.754395 
L 155.218197 527.295675 
L 157.319142 528.816022 
L 159.435186 530.315283 
L 161.566115 531.79331 
L 163.711719 533.249954 
L 165.871781 534.685069 
L 168.046086 536.098512 
L 170.234416 537.490142 
L 172.436553 538.859819 
L 174.652277 540.207407 
L 176.881366 541.53277 
L 179.123596 542.835777 
L 181.378744 544.116297 
L 185.186444 537.331701 
z
" clip-path="url(#pc6749b523c)" style="fill: none; stroke: #000000; stroke-width: 0.5; stroke-linejoin: miter"/>
   </g>
   <g id="patch_11">
    <path d="M 76.78416 416.347541 
L 75.811908 414.027481 
L 74.862904 411.697815 
L 73.937245 409.358776 
L 73.035021 407.010597 
L 72.156324 404.653513 
L 71.301242 402.287761 
L 70.469859 399.913576 
L 69.662259 397.531196 
L 68.878524 395.140859 
L 68.11873 392.742804 
L 67.382954 390.337272 
L 66.671271 387.924502 
L 65.98375 385.504737 
L 65.32046 383.078217 
L 64.681469 380.645185 
L 64.066839 378.205886 
L 63.476633 375.760562 
L 62.910909 373.309459 
L 62.369724 370.852821 
L 61.853132 368.390894 
L 61.361185 365.923924 
L 60.893932 363.452158 
L 60.451419 360.975844 
L 60.033691 358.495228 
L 59.64079 356.010559 
L 59.272755 353.522085 
L 58.929622 351.030055 
L 58.611427 348.534719 
L 58.3182 346.036326 
L 58.049971 343.535125 
L 57.806768 341.031367 
L 57.588614 338.525303 
L 57.395531 336.017182 
L 57.227538 333.507255 
L 57.084653 330.995775 
L 56.966889 328.482991 
L 56.874258 325.969155 
L 56.80677 323.454518 
L 56.764432 320.939333 
L 56.747246 318.423849 
L 56.755217 315.90832 
L 56.788341 313.392996 
L 56.846617 310.878129 
L 56.930038 308.363971 
L 57.038596 305.850772 
L 57.172281 303.338785 
L 57.331078 300.82826 
L 57.514972 298.319449 
L 57.723944 295.812602 
L 57.957974 293.30797 
L 58.217039 290.805803 
L 58.501111 288.306352 
L 58.810164 285.809867 
L 59.144165 283.316597 
L 59.503082 280.826792 
L 59.886879 278.340701 
L 60.295517 275.858571 
L 60.728955 273.380652 
L 61.187151 270.907191 
L 61.670058 268.438436 
L 62.177627 265.974633 
L 62.709809 263.516029 
L 63.266551 261.06287 
L 63.847795 258.6154 
L 64.453485 256.173866 
L 65.083559 253.73851 
L 65.737955 251.309577 
L 66.416607 248.887309 
L 67.119448 246.471948 
L 67.846406 244.063736 
L 68.59741 241.662915 
L 69.372385 239.269723 
L 70.171252 236.884401 
L 70.993931 234.507186 
L 71.840342 232.138317 
L 72.710398 229.77803 
L 73.604014 227.426562 
L 74.521099 225.084147 
L 75.461562 222.751021 
L 76.425309 220.427415 
L 77.412243 218.113563 
L 78.422266 215.809695 
L 79.455277 213.516043 
L 80.511172 211.232836 
L 81.589847 208.960301 
L 82.691192 206.698667 
L 83.815098 204.448159 
L 84.961453 202.209002 
L 86.130141 199.981421 
L 87.321047 197.765637 
L 88.534051 195.561874 
L 89.769031 193.37035 
L 91.025864 191.191286 
L 92.304425 189.024899 
L 93.604585 186.871405 
L 94.926215 184.73102 
L 96.269182 182.603959 
L 97.633352 180.490433 
L 99.018589 178.390655 
L 100.424755 176.304833 
L 101.851707 174.233178 
L 103.299305 172.175895 
L 104.767403 170.133191 
L 106.255854 168.105269 
L 107.764509 166.092334 
L 109.293219 164.094585 
L 110.841828 162.112223 
L 112.410184 160.145446 
L 113.998129 158.19445 
L 115.605504 156.259432 
L 117.232148 154.340583 
L 118.877899 152.438097 
L 120.542593 150.552163 
L 122.226062 148.68297 
L 123.928139 146.830705 
L 125.648653 144.995553 
L 127.387432 143.177697 
L 129.144303 141.37732 
L 130.919089 139.594602 
L 132.711613 137.82972 
L 134.521696 136.082851 
L 136.349158 134.35417 
L 138.193814 132.64385 
L 140.055481 130.952062 
L 141.933972 129.278974 
L 143.8291 127.624755 
L 145.740676 125.98957 
L 147.668507 124.373582 
L 149.612401 122.776952 
L 151.572165 121.199841 
L 153.547601 119.642406 
L 155.538512 118.104803 
L 157.5447 116.587186 
L 159.565963 115.089706 
L 161.6021 113.612513 
L 163.652907 112.155755 
L 165.718178 110.719578 
L 167.797708 109.304125 
L 169.891288 107.909538 
L 171.998709 106.535956 
L 174.119761 105.183516 
L 176.25423 103.852354 
L 178.401904 102.542603 
L 180.562568 101.254394 
L 182.736006 99.987856 
L 184.922 98.743115 
L 187.120332 97.520295 
L 189.330783 96.31952 
L 191.55313 95.140909 
L 193.787152 93.98458 
L 196.032626 92.850649 
L 198.289326 91.739229 
L 200.557028 90.650431 
L 202.835504 89.584364 
L 205.124526 88.541135 
L 207.423866 87.520847 
L 209.733294 86.523604 
L 212.052579 85.549505 
L 214.381489 84.598646 
L 216.71979 83.671124 
L 219.06725 82.767031 
L 221.423633 81.886458 
L 223.788704 81.029491 
L 226.162226 80.196218 
L 228.543963 79.386722 
L 230.933674 78.601083 
L 233.331123 77.83938 
L 235.736069 77.101689 
L 238.148271 76.388084 
L 240.567488 75.698636 
L 242.993479 75.033415 
L 245.426001 74.392486 
L 247.86481 73.775914 
L 250.309663 73.183761 
L 252.760315 72.616085 
L 253.60637 72.426088 
L 251.914751 64.832159 
L 251.042529 65.028034 
L 248.516084 65.613266 
L 245.995617 66.223733 
L 243.48138 66.859374 
L 240.973626 67.520126 
L 238.472604 68.205921 
L 235.978566 68.916692 
L 233.491759 69.652367 
L 231.012434 70.412873 
L 228.540837 71.198134 
L 226.077217 72.008071 
L 223.621819 72.842604 
L 221.174889 73.701648 
L 218.736671 74.585118 
L 216.30741 75.492926 
L 213.887349 76.424981 
L 211.476728 77.381189 
L 209.075791 78.361455 
L 206.684776 79.365682 
L 204.303922 80.393767 
L 201.933468 81.44561 
L 199.573651 82.521104 
L 197.224707 83.620142 
L 194.88687 84.742614 
L 192.560375 85.888408 
L 190.245454 87.05741 
L 187.942338 88.249501 
L 185.651258 89.464564 
L 183.372444 90.702477 
L 181.106122 91.963115 
L 178.852519 93.246353 
L 176.611862 94.552063 
L 174.384373 95.880114 
L 172.170276 97.230372 
L 169.969792 98.602704 
L 167.783141 99.996972 
L 165.610542 101.413036 
L 163.452212 102.850755 
L 161.308367 104.309985 
L 159.179221 105.79058 
L 157.064988 107.292392 
L 154.965878 108.815271 
L 152.882101 110.359065 
L 150.813866 111.923619 
L 148.76138 113.508777 
L 146.724848 115.11438 
L 144.704473 116.740267 
L 142.700458 118.386277 
L 140.713003 120.052244 
L 138.742307 121.738002 
L 136.788567 123.443383 
L 134.851978 125.168215 
L 132.932734 126.912327 
L 131.031026 128.675544 
L 129.147046 130.457689 
L 127.280981 132.258584 
L 125.433017 134.07805 
L 123.603341 135.915905 
L 121.792134 137.771963 
L 119.999578 139.646041 
L 118.225853 141.537951 
L 116.471134 143.447502 
L 114.735599 145.374505 
L 113.01942 147.318767 
L 111.322769 149.280093 
L 109.645816 151.258288 
L 107.988729 153.253152 
L 106.351672 155.264488 
L 104.734811 157.292093 
L 103.138306 159.335765 
L 101.562317 161.3953 
L 100.007002 163.470491 
L 98.472516 165.561132 
L 96.959013 167.667012 
L 95.466645 169.787922 
L 93.995559 171.92365 
L 92.545904 174.073981 
L 91.117825 176.238701 
L 89.711464 178.417594 
L 88.326961 180.610441 
L 86.964456 182.817023 
L 85.624085 185.037119 
L 84.305981 187.270508 
L 83.010277 189.516966 
L 81.737101 191.776269 
L 80.486582 194.04819 
L 79.258845 196.332503 
L 78.054011 198.628978 
L 76.872202 200.937387 
L 75.713536 203.257499 
L 74.578128 205.589081 
L 73.466093 207.9319 
L 72.377541 210.285722 
L 71.312581 212.650312 
L 70.27132 215.025433 
L 69.253862 217.410847 
L 68.260309 219.806317 
L 67.29076 222.211603 
L 66.345311 224.626463 
L 65.424058 227.050657 
L 64.527093 229.483942 
L 63.654504 231.926075 
L 62.806381 234.376812 
L 61.982807 236.835907 
L 61.183864 239.303115 
L 60.409633 241.778189 
L 59.660191 244.260882 
L 58.935613 246.750944 
L 58.235972 249.248128 
L 57.561337 251.752183 
L 56.911776 254.262859 
L 56.287353 256.779905 
L 55.688132 259.303069 
L 55.114172 261.832099 
L 54.565531 264.366743 
L 54.042263 266.906746 
L 53.544421 269.451854 
L 53.072055 272.001814 
L 52.625211 274.556369 
L 52.203935 277.115266 
L 51.808268 279.678247 
L 51.43825 282.245056 
L 51.093919 284.815438 
L 50.775308 287.389134 
L 50.48245 289.965887 
L 50.215373 292.54544 
L 49.974105 295.127535 
L 49.75867 297.711913 
L 49.569088 300.298317 
L 49.40538 302.886487 
L 49.267561 305.476164 
L 49.155646 308.067091 
L 49.069644 310.659006 
L 49.009566 313.251653 
L 48.975417 315.84477 
L 48.9672 318.438099 
L 48.984917 321.031381 
L 49.028565 323.624356 
L 49.09814 326.216765 
L 49.193636 328.808348 
L 49.315042 331.398847 
L 49.462346 333.988003 
L 49.635534 336.575555 
L 49.834589 339.161247 
L 50.05949 341.744819 
L 50.310216 344.326013 
L 50.58674 346.90457 
L 50.889035 349.480233 
L 51.217072 352.052745 
L 51.570817 354.621848 
L 51.950235 357.187284 
L 52.355288 359.748799 
L 52.785935 362.306135 
L 53.242134 364.859036 
L 53.723838 367.407249 
L 54.231 369.950516 
L 54.763569 372.488585 
L 55.321492 375.021202 
L 55.904712 377.548113 
L 56.513172 380.069065 
L 57.146811 382.583807 
L 57.805565 385.092086 
L 58.489369 387.593653 
L 59.198153 390.088257 
L 59.931848 392.575649 
L 60.690379 395.055579 
L 61.473672 397.5278 
L 62.281647 399.992065 
L 63.114224 402.448126 
L 63.971319 404.89574 
L 64.852848 407.33466 
L 65.758721 409.764643 
L 66.688848 412.185446 
L 67.643136 414.596827 
L 68.62149 416.998545 
L 69.623812 419.390359 
L 76.78416 416.347541 
z
" clip-path="url(#pc6749b523c)" style="fill: none; stroke: #000000; stroke-width: 0.5; stroke-linejoin: miter"/>
   </g>
   <g id="patch_12">
    <path d="M 253.60637 72.426088 
L 256.064434 71.891416 
L 258.527722 71.381352 
L 260.995987 70.895946 
L 263.468982 70.435246 
L 265.946461 69.999299 
L 268.428176 69.588148 
L 270.913877 69.201835 
L 271.675334 69.088581 
L 270.542548 61.391431 
L 269.757542 61.508187 
L 267.194962 61.906449 
L 264.636494 62.330316 
L 262.082392 62.779746 
L 259.532912 63.254694 
L 256.988309 63.755113 
L 254.448837 64.280952 
L 251.914751 64.832159 
L 253.60637 72.426088 
z
" clip-path="url(#pc6749b523c)" style="fill: none; stroke: #000000; stroke-width: 0.5; stroke-linejoin: miter"/>
   </g>
   <g id="patch_13">
    <path d="M 271.675334 69.088581 
L 274.165869 68.734763 
L 276.659818 68.405868 
L 279.15693 68.101928 
L 281.656958 67.822975 
L 284.159649 67.569035 
L 286.664755 67.340134 
L 289.172025 67.136296 
L 291.681208 66.95754 
L 294.192053 66.803884 
L 296.704308 66.675344 
L 299.217724 66.571933 
L 301.732048 66.49366 
L 304.247029 66.440535 
L 306.762415 66.412561 
L 308.302072 66.407849 
L 308.302072 58.62779 
L 306.714797 58.632647 
L 304.121615 58.661486 
L 301.528851 58.716255 
L 298.936765 58.796948 
L 296.345615 58.903558 
L 293.75566 59.036074 
L 291.167161 59.194481 
L 288.580374 59.378766 
L 285.99556 59.588909 
L 283.412977 59.824889 
L 280.832882 60.086682 
L 278.255534 60.374264 
L 275.681191 60.687603 
L 273.11011 61.02667 
L 270.542548 61.391431 
L 271.675334 69.088581 
z
" clip-path="url(#pc6749b523c)" style="fill: none; stroke: #000000; stroke-width: 0.5; stroke-linejoin: miter"/>
   </g>
   <g id="text_1">
    <text style="font: 10px 'DejaVu Sans', 'Bitstream Vera Sans', 'Computer Modern Sans Serif', 'Lucida Grande', 'Verdana', 'Geneva', 'Lucid', 'Arial', 'Helvetica', 'Avant Garde', sans-serif; text-anchor: middle" x="377.702378" y="52.503217" transform="rotate(-345.348837 377.702378 52.503217)">AAA</text>
   </g>
   <g id="text_2">
    <text style="font: 10px 'DejaVu Sans', 'Bitstream Vera Sans', 'Computer Modern Sans Serif', 'Lucida Grande', 'Verdana', 'Geneva', 'Lucid', 'Arial', 'Helvetica', 'Avant Garde', sans-serif; text-anchor: middle" x="552.389145" y="454.951401" transform="rotate(-60.697674 552.389145 454.951401)">CA1v</text>
   </g>
   <g id="text_3">
    <text style="font: 10px 'DejaVu Sans', 'Bitstream Vera Sans', 'Computer Modern Sans Serif', 'Lucida Grande', 'Verdana', 'Geneva', 'Lucid', 'Arial', 'Helvetica', 'Avant Garde', sans-serif; text-anchor: middle" x="99.839959" y="504.745971" transform="rotate(-311.860465 99.839959 504.745971)">MEA</text>
   </g>
   <g id="text_4">
    <text style="font: 10px 'DejaVu Sans', 'Bitstream Vera Sans', 'Computer Modern Sans Serif', 'Lucida Grande', 'Verdana', 'Geneva', 'Lucid', 'Arial', 'Helvetica', 'Avant Garde', sans-serif; text-anchor: middle" x="64.282808" y="192.504143" transform="rotate(-62.790698 64.282808 192.504143)">BST</text>
   </g>
   <g id="text_5">
    <text style="font: 10px 'DejaVu Sans', 'Bitstream Vera Sans', 'Computer Modern Sans Serif', 'Lucida Grande', 'Verdana', 'Geneva', 'Lucid', 'Arial', 'Helvetica', 'Avant Garde', sans-serif; text-anchor: middle" x="258.464233" y="48.145492" transform="rotate(-10.465116 258.464233 48.145492)">IA</text>
   </g>
   <g id="text_6">
    <text style="font: 10px 'DejaVu Sans', 'Bitstream Vera Sans', 'Computer Modern Sans Serif', 'Lucida Grande', 'Verdana', 'Geneva', 'Lucid', 'Arial', 'Helvetica', 'Avant Garde', sans-serif; text-anchor: middle" x="288.273489" y="44.31331" transform="rotate(-4.186047 288.273489 44.31331)">CEA</text>
   </g>
  </g>
 </g>
 <defs>
  <clipPath id="pc6749b523c">
   <path d="M 580.604144 317.963096 
C 580.604144 282.204716 573.560522 246.794041 559.876383 213.757605 
C 546.192243 180.721169 526.133707 150.701448 500.848713 125.416455 
C 475.56372 100.131461 445.543999 80.072925 412.507563 66.388785 
C 379.471127 52.704646 344.060452 45.661024 308.302072 45.661024 
C 272.543691 45.661024 237.133016 52.704646 204.09658 66.388785 
C 171.060145 80.072925 141.040424 100.131461 115.75543 125.416455 
C 90.470437 150.701448 70.411901 180.721169 56.727761 213.757605 
C 43.043621 246.794041 36 282.204716 36 317.963096 
C 36 353.721477 43.043621 389.132152 56.727761 422.168588 
C 70.411901 455.205024 90.470437 485.224744 115.75543 510.509738 
C 141.040424 535.794731 171.060145 555.853267 204.09658 569.537407 
C 237.133016 583.221547 272.543691 590.265168 308.302072 590.265168 
C 344.060452 590.265168 379.471127 583.221547 412.507563 569.537407 
C 445.543999 555.853267 475.56372 535.794731 500.848713 510.509738 
C 526.133707 485.224744 546.192243 455.205024 559.876383 422.168588 
C 573.560522 389.132152 580.604144 353.721477 580.604144 317.963096 
M 308.302072 317.963096 
C 308.302072 317.963096 308.302072 317.963096 308.302072 317.963096 
C 308.302072 317.963096 308.302072 317.963096 308.302072 317.963096 
C 308.302072 317.963096 308.302072 317.963096 308.302072 317.963096 
C 308.302072 317.963096 308.302072 317.963096 308.302072 317.963096 
C 308.302072 317.963096 308.302072 317.963096 308.302072 317.963096 
C 308.302072 317.963096 308.302072 317.963096 308.302072 317.963096 
C 308.302072 317.963096 308.302072 317.963096 308.302072 317.963096 
C 308.302072 317.963096 308.302072 317.963096 308.302072 317.963096 
C 308.302072 317.963096 308.302072 317.963096 308.302072 317.963096 
C 308.302072 317.963096 308.302072 317.963096 308.302072 317.963096 
C 308.302072 317.963096 308.302072 317.963096 308.302072 317.963096 
C 308.302072 317.963096 308.302072 317.963096 308.302072 317.963096 
C 308.302072 317.963096 308.302072 317.963096 308.302072 317.963096 
C 308.302072 317.963096 308.302072 317.963096 308.302072 317.963096 
C 308.302072 317.963096 308.302072 317.963096 308.302072 317.963096 
C 308.302072 317.963096 308.302072 317.963096 308.302072 317.963096 
z
"/>
  </clipPath>
 </defs>
</svg>
