<?xml version="1.0" encoding="utf-8" standalone="no"?>
<!DOCTYPE svg PUBLIC "-//W3C//DTD SVG 1.1//EN"
  "http://www.w3.org/Graphics/SVG/1.1/DTD/svg11.dtd">
<svg xmlns:xlink="http://www.w3.org/1999/xlink" width="616.899917pt" height="626.187415pt" viewBox="0 0 616.899917 626.187415" xmlns="http://www.w3.org/2000/svg" version="1.1">
 <metadata>
  <rdf:RDF xmlns:dc="http://purl.org/dc/elements/1.1/" xmlns:cc="http://creativecommons.org/ns#" xmlns:rdf="http://www.w3.org/1999/02/22-rdf-syntax-ns#">
   <cc:Work>
    <dc:type rdf:resource="http://purl.org/dc/dcmitype/StillImage"/>
    <dc:date>2024-12-11T11:56:45.066438</dc:date>
    <dc:format>image/svg+xml</dc:format>
    <dc:creator>
     <cc:Agent>
      <dc:title>Matplotlib v3.9.3, https://matplotlib.org/</dc:title>
     </cc:Agent>
    </dc:creator>
   </cc:Work>
  </rdf:RDF>
 </metadata>
 <defs>
  <style type="text/css">*{stroke-linejoin: round; stroke-linecap: butt}</style>
 </defs>
 <g id="figure_1">
  <g id="patch_1">
   <path d="M 0 626.187415 
L 616.899917 626.187415 
L 616.899917 0 
L 0 0 
z
" style="fill: #ffffff"/>
  </g>
  <g id="axes_1">
   <g id="patch_2">
    <path d="M 304.311237 65.610021 
L 306.782405 65.622377 
L 309.253326 65.659443 
L 311.723752 65.721217 
L 314.193437 65.807691 
L 316.662134 65.918858 
L 319.129596 66.054705 
L 321.595577 66.21522 
L 324.059828 66.400386 
L 326.522105 66.610185 
L 328.982161 66.844596 
L 331.43975 67.103595 
L 333.894626 67.387157 
L 336.346543 67.695253 
L 338.795257 68.027853 
L 341.240523 68.384922 
L 343.682096 68.766426 
L 346.119732 69.172326 
L 348.553187 69.602582 
L 349.15778 69.713376 
L 350.544786 62.19737 
L 349.921494 62.083149 
L 347.412778 61.639586 
L 344.899751 61.221132 
L 342.382666 60.827829 
L 339.861773 60.459716 
L 337.337326 60.11683 
L 334.809576 59.799206 
L 332.278776 59.506874 
L 329.745179 59.239864 
L 327.209039 58.998203 
L 324.670609 58.781916 
L 322.130144 58.591023 
L 319.587896 58.425544 
L 317.044121 58.285495 
L 314.499072 58.17089 
L 311.953005 58.081741 
L 309.406174 58.018057 
L 306.858833 57.979844 
L 304.311237 57.967106 
z
" clip-path="url(#p2cfa2db5d6)" style="fill: #000080"/>
   </g>
   <g id="patch_3">
    <path d="M 370.1675 74.546765 
L 372.546009 75.217226 
L 374.917695 75.911438 
L 377.28232 76.629332 
L 379.639648 77.370835 
L 381.989443 78.135875 
L 384.331471 78.924374 
L 386.665496 79.736253 
L 388.991286 80.571431 
L 391.308609 81.429826 
L 393.617231 82.31135 
L 395.916923 83.215916 
L 398.207455 84.143433 
L 400.488597 85.093809 
L 402.760121 86.066948 
L 405.021801 87.062754 
L 407.273409 88.081126 
L 409.514722 89.121963 
L 411.745514 90.18516 
L 413.965563 91.270612 
L 415.971223 92.275059 
L 419.424624 85.456837 
L 417.356934 84.421325 
L 415.068223 83.302302 
L 412.768438 82.206222 
L 410.457806 81.133194 
L 408.13656 80.083326 
L 405.804932 79.056722 
L 403.463154 78.053486 
L 401.111461 77.073717 
L 398.750089 76.117513 
L 396.379272 75.184971 
L 393.999249 74.276183 
L 391.610257 73.391241 
L 389.212535 72.530232 
L 386.806323 71.693243 
L 384.391862 70.880358 
L 381.969392 70.091657 
L 379.539157 69.327221 
L 377.1014 68.587124 
L 374.656363 67.871442 
L 372.204292 67.180245 
z
" clip-path="url(#p2cfa2db5d6)" style="fill: #0000d6"/>
   </g>
   <g id="patch_4">
    <path d="M 434.760317 102.845769 
L 436.852611 104.160733 
L 438.931651 105.496553 
L 440.99723 106.853096 
L 443.049139 108.230227 
L 445.087175 109.627808 
L 447.111134 111.045699 
L 449.120813 112.483758 
L 451.116011 113.941842 
L 453.096528 115.419805 
L 455.062167 116.917498 
L 455.667188 117.384778 
L 460.348299 111.343144 
L 459.724567 110.861413 
L 457.698135 109.317399 
L 455.656364 107.793726 
L 453.599459 106.290547 
L 451.527626 104.808011 
L 449.44107 103.346268 
L 447.340002 101.905463 
L 445.224632 100.48574 
L 443.095169 99.087242 
L 440.951829 97.710108 
L 438.794825 96.354476 
z
" clip-path="url(#p2cfa2db5d6)" style="fill: #001cff"/>
   </g>
   <g id="patch_5">
    <path d="M 472.116771 131.319669 
L 473.922463 133.006767 
L 475.711194 134.711837 
L 477.482785 136.434709 
L 479.23706 138.17521 
L 480.973841 139.933167 
L 482.692957 141.708403 
L 484.394235 143.500742 
L 486.077504 145.310003 
L 487.742597 147.136007 
L 489.389347 148.978569 
L 491.01759 150.837507 
L 492.627162 152.712634 
L 494.217902 154.603763 
L 495.789652 156.510704 
L 497.342254 158.433267 
L 498.875554 160.37126 
L 500.389397 162.324489 
L 501.883632 164.292758 
L 503.358111 166.275871 
L 504.812685 168.273629 
L 506.247208 170.285833 
L 507.661539 172.312281 
L 509.055534 174.352771 
L 510.429056 176.407099 
L 511.781965 178.475059 
L 513.114128 180.556444 
L 514.425411 182.651047 
L 515.715682 184.758658 
L 516.984814 186.879066 
L 518.232678 189.012058 
L 519.45915 191.157423 
L 520.664107 193.314945 
L 521.847429 195.484408 
L 523.008998 197.665596 
L 524.148698 199.858291 
L 525.266413 202.062272 
L 526.362034 204.277321 
L 527.435449 206.503214 
L 528.486552 208.73973 
L 529.515238 210.986646 
L 530.521404 213.243735 
L 531.504949 215.510774 
L 532.465775 217.787534 
L 533.403785 220.073788 
L 534.318886 222.369309 
L 535.210987 224.673865 
L 536.079998 226.987227 
L 536.925832 229.309163 
L 537.748406 231.639441 
L 538.547635 233.977828 
L 539.323441 236.324091 
L 540.075746 238.677994 
L 540.804475 241.039302 
L 541.509555 243.40778 
L 542.190915 245.78319 
L 542.598256 247.247821 
L 549.967958 245.222571 
L 549.548018 243.712641 
L 548.845585 241.263765 
L 548.118699 238.822036 
L 547.367432 236.387697 
L 546.59186 233.960993 
L 545.79206 231.542166 
L 544.968112 229.131457 
L 544.120098 226.729108 
L 543.248104 224.33536 
L 542.352217 221.950451 
L 541.432525 219.574619 
L 540.489122 217.208104 
L 539.5221 214.85114 
L 538.531558 212.503965 
L 537.517595 210.166812 
L 536.48031 207.839916 
L 535.41981 205.523508 
L 534.336198 203.217821 
L 533.229584 200.923085 
L 532.100078 198.639531 
L 530.947794 196.367385 
L 529.772847 194.106875 
L 528.575353 191.858228 
L 527.355433 189.621667 
L 526.113209 187.397418 
L 524.848805 185.185702 
L 523.562347 182.98674 
L 522.253964 180.800753 
L 520.923787 178.627958 
L 519.57195 176.468574 
L 518.198586 174.322816 
L 516.803834 172.190898 
L 515.387832 170.073035 
L 513.950723 167.969437 
L 512.492651 165.880315 
L 511.01376 163.805878 
L 509.5142 161.746333 
L 507.994119 159.701887 
L 506.45367 157.672744 
L 504.893007 155.659106 
L 503.312286 153.661175 
L 501.711665 151.679151 
L 500.091304 149.713232 
L 498.451366 147.763615 
L 496.792013 145.830494 
L 495.113413 143.914064 
L 493.415732 142.014514 
L 491.699141 140.132037 
L 489.963812 138.266819 
L 488.209917 136.419047 
L 486.437633 134.588907 
L 484.647136 132.77658 
L 482.838606 130.982249 
L 481.012224 129.206092 
L 479.168171 127.448288 
L 477.306633 125.709012 
z
" clip-path="url(#p2cfa2db5d6)" style="fill: #006cff"/>
   </g>
   <g id="patch_6">
    <path d="M 547.39873 268.265086 
L 547.831227 270.698144 
L 548.239372 273.135405 
L 548.623124 275.576625 
L 548.982445 278.021561 
L 549.3173 280.469968 
L 549.627654 282.921601 
L 549.913476 285.376215 
L 550.174739 287.833564 
L 550.411415 290.293403 
L 550.623482 292.755485 
L 550.706691 293.8095 
L 558.327169 293.224301 
L 558.241386 292.137688 
L 558.022761 289.599459 
L 557.778765 287.063542 
L 557.509422 284.530193 
L 557.214759 281.999663 
L 556.894807 279.472207 
L 556.549596 276.948076 
L 556.179162 274.427523 
L 555.783541 271.910801 
L 555.362773 269.398161 
L 554.9169 266.889854 
z
" clip-path="url(#p2cfa2db5d6)" style="fill: #00b8ff"/>
   </g>
   <g id="patch_7">
    <path d="M 551.418193 315.35628 
L 551.379584 317.827178 
L 551.316269 320.297565 
L 551.228254 322.767196 
L 551.115547 325.235823 
L 550.97816 327.7032 
L 550.816106 330.169079 
L 550.629403 332.633215 
L 550.418067 335.09536 
L 550.182121 337.55527 
L 549.921589 340.012696 
L 549.636495 342.467395 
L 549.326869 344.91912 
L 548.992742 347.367626 
L 548.634147 349.812668 
L 548.251119 352.254002 
L 547.843698 354.691384 
L 547.411924 357.12457 
L 546.95584 359.553317 
L 546.475492 361.977382 
L 545.970927 364.396521 
L 545.442197 366.810495 
L 544.889354 369.21906 
L 544.312453 371.621977 
L 543.711552 374.019005 
L 543.086712 376.409904 
L 542.437994 378.794435 
L 541.765464 381.172359 
L 541.069188 383.54344 
L 540.349237 385.907439 
L 539.605682 388.264121 
L 538.838598 390.61325 
L 538.048061 392.95459 
L 537.234151 395.287908 
L 536.396949 397.612971 
L 535.536539 399.929545 
L 534.653006 402.2374 
L 533.746439 404.536304 
L 532.816929 406.826027 
L 531.864568 409.106342 
L 530.889452 411.377018 
L 529.891679 413.63783 
L 528.871348 415.888552 
L 527.828561 418.128958 
L 526.763422 420.358824 
L 525.676039 422.577927 
L 524.566519 424.786046 
L 523.434974 426.982959 
L 522.281516 429.168448 
L 521.106262 431.342292 
L 519.909328 433.504276 
L 518.690835 435.654182 
L 517.450904 437.791796 
L 516.189659 439.916905 
L 514.907227 442.029294 
L 513.603735 444.128754 
L 512.279314 446.215075 
L 510.934096 448.288046 
L 509.568217 450.347463 
L 508.181812 452.393118 
L 506.775019 454.424806 
L 505.347981 456.442326 
L 503.900839 458.445474 
L 502.433739 460.434051 
L 500.946826 462.407858 
L 499.44025 464.366698 
L 497.914161 466.310373 
L 496.368712 468.238691 
L 494.804057 470.151459 
L 493.220354 472.048484 
L 491.617759 473.929578 
L 489.996434 475.794552 
L 488.356541 477.64322 
L 486.698243 479.475397 
L 485.021707 481.2909 
L 483.3271 483.089546 
L 481.614591 484.871157 
L 479.884353 486.635554 
L 478.136557 488.382561 
L 476.371378 490.112003 
L 474.588994 491.823706 
L 472.789582 493.517501 
L 470.973323 495.193217 
L 469.140397 496.850687 
L 467.290989 498.489745 
L 465.425283 500.110228 
L 463.543465 501.711973 
L 462.064183 502.948556 
L 466.94314 508.831575 
L 468.468173 507.556747 
L 470.408191 505.905464 
L 472.3316 504.234864 
L 474.238206 502.545113 
L 476.12782 500.836381 
L 478.000253 499.108839 
L 479.855317 497.362659 
L 481.692826 495.598016 
L 483.512598 493.815086 
L 485.314449 492.014048 
L 487.0982 490.195082 
L 488.863673 488.35837 
L 490.610691 486.504095 
L 492.339079 484.632443 
L 494.048664 482.743601 
L 495.739275 480.837757 
L 497.410744 478.915104 
L 499.062904 476.975832 
L 500.695588 475.020135 
L 502.308634 473.04821 
L 503.90188 471.060253 
L 505.475168 469.056464 
L 507.028339 467.037042 
L 508.561239 465.002189 
L 510.073714 462.95211 
L 511.565612 460.887008 
L 513.036786 458.807091 
L 514.487087 456.712567 
L 515.916371 454.603644 
L 517.324494 452.480535 
L 518.711316 450.34345 
L 520.076699 448.192605 
L 521.420505 446.028213 
L 522.7426 443.850492 
L 524.042853 441.659659 
L 525.321132 439.455933 
L 526.577311 437.239534 
L 527.811263 435.010685 
L 529.022865 432.769608 
L 530.211996 430.516528 
L 531.378538 428.251668 
L 532.522373 425.975257 
L 533.643387 423.687522 
L 534.741468 421.388691 
L 535.816506 419.078994 
L 536.868394 416.758663 
L 537.897026 414.427928 
L 538.9023 412.087025 
L 539.884115 409.736185 
L 540.842373 407.375646 
L 541.776978 405.005641 
L 542.687837 402.62641 
L 543.574858 400.238189 
L 544.437953 397.841217 
L 545.277035 395.435735 
L 546.092021 393.021982 
L 546.88283 390.6002 
L 547.649381 388.170631 
L 548.391599 385.733518 
L 549.109409 383.289105 
L 549.802739 380.837636 
L 550.47152 378.379357 
L 551.115686 375.914512 
L 551.735171 373.44335 
L 552.329914 370.966116 
L 552.899855 368.483059 
L 553.444938 365.994427 
L 553.965108 363.500468 
L 554.460312 361.001432 
L 554.930502 358.49757 
L 555.37563 355.989131 
L 555.795652 353.476366 
L 556.190525 350.959526 
L 556.560211 348.438864 
L 556.904672 345.914631 
L 557.223874 343.387079 
L 557.517785 340.856462 
L 557.786376 338.323033 
L 558.029619 335.787044 
L 558.24749 333.24875 
L 558.439968 330.708404 
L 558.607034 328.16626 
L 558.74867 325.622573 
L 558.864863 323.077596 
L 558.9556 320.531585 
L 559.020873 317.984794 
L 559.060676 315.437477 
z
" clip-path="url(#p2cfa2db5d6)" style="fill: #1cffdb"/>
   </g>
   <g id="patch_8">
    <path d="M 444.885326 515.973795 
L 442.845902 517.369351 
L 440.792625 518.744443 
L 438.725701 520.098933 
L 436.645334 521.432687 
L 434.551735 522.745571 
L 432.445111 524.037454 
L 430.325675 525.308206 
L 428.193637 526.5577 
L 426.04921 527.785812 
L 423.89261 528.992419 
L 421.724052 530.1774 
L 419.543753 531.340636 
L 417.351931 532.482012 
L 415.148805 533.601413 
L 412.934595 534.698726 
L 410.709523 535.773844 
L 408.473811 536.826657 
L 406.227683 537.85706 
L 403.971363 538.864952 
L 401.705078 539.85023 
L 399.429053 540.812796 
L 397.143516 541.752554 
L 394.848696 542.669411 
L 392.544823 543.563273 
L 390.232126 544.434053 
L 387.910838 545.281662 
L 385.581189 546.106017 
L 384.709918 546.407605 
L 387.196475 553.634719 
L 388.094693 553.323803 
L 390.496392 552.473953 
L 392.889473 551.600129 
L 395.273697 550.702418 
L 397.648824 549.78091 
L 400.014617 548.835697 
L 402.370841 547.866874 
L 404.717258 546.874538 
L 407.053635 545.858788 
L 409.379738 544.819724 
L 411.695334 543.757453 
L 414.000191 542.672078 
L 416.29408 541.56371 
L 418.576771 540.432459 
L 420.848035 539.278437 
L 423.107646 538.101762 
L 425.355377 536.902549 
L 427.591003 535.680919 
L 429.814302 534.436995 
L 432.025051 533.1709 
L 434.223028 531.882761 
L 436.408015 530.572707 
L 438.579791 529.240869 
L 440.738141 527.887381 
L 442.882849 526.512377 
L 445.013699 525.115995 
L 447.13048 523.698374 
L 449.232978 522.259658 
z
" clip-path="url(#p2cfa2db5d6)" style="fill: #5dff9a"/>
   </g>
   <g id="patch_9">
    <path d="M 364.037712 552.525601 
L 361.636819 553.110867 
L 359.230193 553.672094 
L 356.818076 554.209227 
L 354.400708 554.722213 
L 351.978331 555.211 
L 349.551187 555.675539 
L 347.119519 556.115784 
L 344.683571 556.53169 
L 342.243585 556.923217 
L 342.22926 556.925442 
L 343.401983 564.47785 
L 343.416751 564.475556 
L 345.9322 564.07192 
L 348.443487 563.643151 
L 350.950361 563.18929 
L 353.452571 562.710384 
L 355.949867 562.20648 
L 358.441999 561.677629 
L 360.928718 561.123883 
L 363.409775 560.545298 
L 365.884923 559.941932 
z
" clip-path="url(#p2cfa2db5d6)" style="fill: #9aff5d"/>
   </g>
   <g id="patch_10">
    <path d="M 320.802016 559.300982 
L 318.335532 559.453558 
L 315.867645 559.581463 
L 313.398603 559.684683 
L 310.928653 559.763207 
L 308.45804 559.817029 
L 305.987013 559.846142 
L 303.515818 559.850544 
L 303.244248 559.84952 
L 303.211248 567.492363 
L 303.491217 567.493418 
L 306.038841 567.48888 
L 308.586292 567.458867 
L 311.133315 567.403381 
L 313.679656 567.322428 
L 316.22506 567.216016 
L 318.769273 567.084155 
L 321.31204 566.92686 
z
" clip-path="url(#p2cfa2db5d6)" style="fill: #dbff1c"/>
   </g>
   <g id="patch_11">
    <path d="M 281.710503 558.816165 
L 279.250822 558.577857 
L 276.793646 558.314965 
L 274.339223 558.027515 
L 271.887796 557.715535 
L 269.439612 557.379057 
L 266.994915 557.018114 
L 264.55395 556.632743 
L 262.11696 556.222981 
L 261.399143 556.097502 
L 260.071965 563.624303 
L 260.811982 563.753664 
L 263.324343 564.176098 
L 265.840802 564.573388 
L 268.361108 564.945494 
L 270.885009 565.292379 
L 273.412253 565.614007 
L 275.942587 565.910348 
L 278.475757 566.181371 
L 281.011511 566.427049 
z
" clip-path="url(#p2cfa2db5d6)" style="fill: #ffcc00"/>
   </g>
   <g id="patch_12">
    <path d="M 240.351641 551.431383 
L 237.967874 550.779863 
L 235.590742 550.104538 
L 233.220481 549.405476 
L 230.85733 548.682747 
L 228.501523 547.936422 
L 226.153298 547.166578 
L 223.812889 546.37329 
L 221.480529 545.556637 
L 219.156452 544.716703 
L 216.84089 543.85357 
L 214.534076 542.967325 
L 212.236239 542.058057 
L 209.94761 541.125856 
L 207.668417 540.170816 
L 205.398888 539.193032 
L 203.13925 538.192602 
L 200.889729 537.169626 
L 198.650551 536.124206 
L 196.421938 535.056447 
L 194.204114 533.966456 
L 191.997301 532.854341 
L 189.801719 531.720215 
L 187.617588 530.564189 
L 185.445126 529.386381 
L 183.284551 528.186907 
L 181.136079 526.965887 
L 178.999923 525.723445 
L 176.876299 524.459703 
L 174.765418 523.174788 
L 172.667492 521.86883 
L 170.58273 520.541957 
L 168.51134 519.194304 
L 166.453531 517.826005 
L 164.409507 516.437196 
L 162.379473 515.028017 
L 160.363633 513.598608 
L 158.362187 512.149113 
L 156.375335 510.679676 
L 154.403278 509.190444 
L 152.44621 507.681566 
L 150.50433 506.153194 
L 148.57783 504.605479 
L 146.666903 503.038578 
L 144.77174 501.452645 
L 142.892531 499.847841 
L 141.029464 498.224325 
L 139.182725 496.58226 
L 137.352498 494.92181 
L 135.538968 493.243141 
L 133.742314 491.546421 
L 131.962717 489.831819 
L 130.200355 488.099508 
L 128.455404 486.34966 
L 126.728038 484.58245 
L 125.018431 482.798055 
L 123.326752 480.996653 
L 121.653172 479.178425 
L 119.997858 477.343553 
L 118.360975 475.492219 
L 116.742686 473.62461 
L 115.143154 471.740911 
L 113.562539 469.841311 
L 112.000999 467.926 
L 110.45869 465.99517 
L 108.935765 464.049014 
L 107.432378 462.087726 
L 105.948679 460.111502 
L 105.149872 459.030241 
L 98.990242 463.554962 
L 99.813754 464.669665 
L 101.343341 466.707009 
L 102.893225 468.728955 
L 104.46325 470.735302 
L 106.05326 472.725848 
L 107.663095 474.700395 
L 109.292595 476.658745 
L 110.941597 478.600703 
L 112.609936 480.526074 
L 114.297444 482.434665 
L 116.003954 484.326286 
L 117.729294 486.200748 
L 119.473293 488.057863 
L 121.235775 489.897445 
L 123.016564 491.719311 
L 124.815483 493.523278 
L 126.632351 495.309166 
L 128.466987 497.076797 
L 130.319207 498.825993 
L 132.188826 500.556579 
L 134.075657 502.268384 
L 135.979512 503.961234 
L 137.9002 505.634962 
L 139.837529 507.2894 
L 141.791305 508.924381 
L 143.761332 510.539744 
L 145.747415 512.135326 
L 147.749354 513.710968 
L 149.766949 515.266511 
L 151.799998 516.801802 
L 153.848299 518.316685 
L 155.911645 519.811011 
L 157.989831 521.284628 
L 160.08265 522.73739 
L 162.189891 524.169151 
L 164.311344 525.579769 
L 166.446797 526.969103 
L 168.596036 528.337012 
L 170.758847 529.683361 
L 172.935012 531.008016 
L 175.124316 532.310842 
L 177.326538 533.591711 
L 179.541458 534.850494 
L 181.768855 536.087065 
L 184.008506 537.301301 
L 186.260188 538.493079 
L 188.523674 539.662282 
L 190.798739 540.808792 
L 193.085155 541.932494 
L 195.382694 543.033277 
L 197.691126 544.111029 
L 200.010219 545.165643 
L 202.339743 546.197015 
L 204.679463 547.205039 
L 207.029147 548.189617 
L 209.388559 549.150649 
L 211.757463 550.088039 
L 214.135622 551.001693 
L 216.522799 551.891521 
L 218.918754 552.757433 
L 221.323249 553.599342 
L 223.736042 554.417165 
L 226.156893 555.210819 
L 228.585559 555.980226 
L 231.021798 556.725308 
L 233.465366 557.44599 
L 235.916018 558.142201 
L 238.37351 558.813872 
z
" clip-path="url(#p2cfa2db5d6)" style="fill: #ff8600"/>
   </g>
   <g id="patch_13">
    <path d="M 93.156916 441.115471 
L 91.883649 438.997544 
L 90.631625 436.86699 
L 89.400969 434.724023 
L 88.191804 432.568856 
L 87.00425 430.401706 
L 85.838427 428.222789 
L 84.694451 426.032323 
L 83.572437 423.830527 
L 82.472496 421.617621 
L 81.394739 419.393826 
L 80.339274 417.159365 
L 79.306205 414.914461 
L 78.295637 412.659339 
L 77.30767 410.394225 
L 76.342404 408.119344 
L 75.399934 405.834924 
L 74.480355 403.541194 
L 73.583759 401.238383 
L 72.710235 398.926721 
L 71.859871 396.60644 
L 71.032753 394.277771 
L 70.228962 391.940948 
L 69.448578 389.596204 
L 68.691682 387.243773 
L 67.958346 384.883891 
L 67.248646 382.516794 
L 66.562652 380.142718 
L 65.900433 377.761902 
L 65.262054 375.374582 
L 64.64758 372.980998 
L 64.057073 370.581389 
L 63.49059 368.175995 
L 62.94819 365.765056 
L 62.429925 363.348814 
L 61.935849 360.92751 
L 61.46601 358.501387 
L 61.020455 356.070687 
L 60.599229 353.635652 
L 60.202374 351.196528 
L 59.82993 348.753557 
L 59.481933 346.306983 
L 59.15842 343.857052 
L 58.859421 341.404009 
L 58.584967 338.948098 
L 58.335086 336.489565 
L 58.109802 334.028657 
L 57.909139 331.565618 
L 57.733115 329.100697 
L 57.581749 326.634138 
L 57.45887 324.248249 
L 49.824261 324.604455 
L 49.95094 327.064135 
L 50.106987 329.606978 
L 50.288455 332.148135 
L 50.495325 334.687349 
L 50.727576 337.224368 
L 50.985186 339.758938 
L 51.268128 342.290805 
L 51.576374 344.819716 
L 51.909893 347.345418 
L 52.268652 349.867659 
L 52.652615 352.386186 
L 53.061744 354.900747 
L 53.495998 357.411092 
L 53.955333 359.916968 
L 54.439703 362.418126 
L 54.94906 364.914316 
L 55.483353 367.405287 
L 56.042529 369.890791 
L 56.626532 372.370578 
L 57.235302 374.844402 
L 57.868781 377.312015 
L 58.526903 379.773169 
L 59.209603 382.227619 
L 59.916813 384.67512 
L 60.648463 387.115426 
L 61.404479 389.548294 
L 62.184785 391.973481 
L 62.989304 394.390743 
L 63.817954 396.799839 
L 64.670654 399.200528 
L 65.547317 401.592571 
L 66.447857 403.975727 
L 67.372183 406.349759 
L 68.320203 408.714429 
L 69.291821 411.069501 
L 70.286941 413.414739 
L 71.305464 415.749909 
L 72.347287 418.074777 
L 73.412306 420.389111 
L 74.500415 422.692679 
L 75.611504 424.98525 
L 76.745464 427.266597 
L 77.90218 429.53649 
L 79.081536 431.794703 
L 80.283416 434.041009 
L 81.507698 436.275184 
L 82.75426 438.497005 
L 84.022977 440.70625 
L 85.313724 442.902697 
L 86.626369 445.086127 
z
" clip-path="url(#p2cfa2db5d6)" style="fill: #ff3b00"/>
   </g>
   <g id="patch_14">
    <path d="M 57.394417 302.68982 
L 57.507172 300.221195 
L 57.644607 297.753821 
L 57.806709 295.287945 
L 57.993461 292.823813 
L 58.204844 290.361672 
L 58.440838 287.901767 
L 58.701419 285.444346 
L 58.986561 282.989653 
L 59.296235 280.537934 
L 59.63041 278.089434 
L 59.989053 275.644399 
L 60.372128 273.203072 
L 60.779597 270.765698 
L 61.211418 268.33252 
L 61.66755 265.903783 
L 62.147946 263.479728 
L 62.652557 261.060598 
L 63.181335 258.646634 
L 63.734225 256.23808 
L 64.311173 253.835174 
L 64.91212 251.438159 
L 65.537008 249.047272 
L 66.185772 246.662754 
L 66.858349 244.284842 
L 67.554671 241.913775 
L 68.274668 239.54979 
L 69.018269 237.193122 
L 69.785399 234.844009 
L 70.575982 232.502684 
L 71.389937 230.169381 
L 72.227185 227.844335 
L 73.087641 225.527778 
L 73.971219 223.21994 
L 74.877831 220.921054 
L 75.807385 218.631349 
L 76.759791 216.351053 
L 77.734951 214.080396 
L 78.732768 211.819603 
L 79.753143 209.568902 
L 80.795974 207.328516 
L 81.861156 205.098671 
L 82.948583 202.879589 
L 84.058147 200.671492 
L 85.189735 198.4746 
L 86.343235 196.289135 
L 87.518532 194.115313 
L 88.715508 191.953353 
L 89.934043 189.80347 
L 91.174016 187.66588 
L 92.435302 185.540797 
L 93.717776 183.428432 
L 95.021309 181.328998 
L 96.34577 179.242703 
L 97.691029 177.169758 
L 99.056948 175.110368 
L 100.443394 173.06474 
L 101.850226 171.033079 
L 103.277303 169.015588 
L 104.724484 167.012467 
L 106.191624 165.023919 
L 107.678575 163.050141 
L 109.18519 161.091331 
L 110.711316 159.147685 
L 112.256803 157.219397 
L 113.821495 155.306661 
L 115.405236 153.409666 
L 117.007867 151.528604 
L 118.629229 149.663661 
L 120.269158 147.815025 
L 121.927491 145.982881 
L 123.604063 144.167411 
L 125.298706 142.368798 
L 127.011249 140.58722 
L 128.741522 138.822857 
L 130.489352 137.075884 
L 132.254564 135.346477 
L 134.036982 133.634808 
L 135.836427 131.941049 
L 137.652719 130.265368 
L 139.485677 128.607934 
L 141.335118 126.968912 
L 143.200856 125.348466 
L 145.082704 123.746758 
L 146.980476 122.163948 
L 148.89398 120.600195 
L 150.823026 119.055655 
L 152.767421 117.530482 
L 154.72697 116.024829 
L 156.701477 114.538847 
L 158.690745 113.072683 
L 160.694576 111.626486 
L 162.712767 110.200398 
L 164.745119 108.794563 
L 166.791426 107.409122 
L 168.851486 106.044213 
L 170.925092 104.699972 
L 173.012036 103.376535 
L 175.11211 102.074032 
L 177.225103 100.792595 
L 177.361891 100.710632 
L 173.435623 94.153304 
L 173.294604 94.237801 
L 171.11626 95.55887 
L 168.951236 96.901657 
L 166.799747 98.266025 
L 164.662009 99.651841 
L 162.538236 101.058963 
L 160.428641 102.487253 
L 158.333433 103.936567 
L 156.252823 105.406761 
L 154.187019 106.897686 
L 152.136227 108.409195 
L 150.100652 109.941136 
L 148.080499 111.493355 
L 146.075968 113.065698 
L 144.087261 114.658008 
L 142.114576 116.270125 
L 140.15811 117.901887 
L 138.21806 119.553132 
L 136.294619 121.223695 
L 134.387979 122.913409 
L 132.498332 124.622104 
L 130.625866 126.34961 
L 128.770768 128.095753 
L 126.933224 129.86036 
L 125.113418 131.643254 
L 123.311531 133.444257 
L 121.527744 135.263188 
L 119.762235 137.099866 
L 118.015182 138.954107 
L 116.286757 140.825725 
L 114.577135 142.714534 
L 112.886486 144.620344 
L 111.214979 146.542965 
L 109.562782 148.482205 
L 107.93006 150.437869 
L 106.316975 152.409763 
L 104.72369 154.397688 
L 103.150363 156.401447 
L 101.597153 158.420839 
L 100.064213 160.455661 
L 98.551698 162.505711 
L 97.059759 164.570783 
L 95.588545 166.650672 
L 94.138203 168.745168 
L 92.708878 170.854062 
L 91.300713 172.977144 
L 89.913849 175.114202 
L 88.548424 177.265021 
L 87.204576 179.429386 
L 85.882438 181.607082 
L 84.582143 183.797889 
L 83.30382 186.00159 
L 82.047598 188.217964 
L 80.813603 190.446789 
L 79.601956 192.687842 
L 78.412781 194.9409 
L 77.246195 197.205736 
L 76.102316 199.482125 
L 74.981257 201.769838 
L 73.883131 204.068648 
L 72.808048 206.378324 
L 71.756115 208.698634 
L 70.727437 211.029349 
L 69.722117 213.370233 
L 68.740256 215.721053 
L 67.781952 218.081574 
L 66.847301 220.45156 
L 65.936395 222.830773 
L 65.049328 225.218977 
L 64.186186 227.615932 
L 63.347056 230.021398 
L 62.532023 232.435135 
L 61.741167 234.856902 
L 60.974568 237.286456 
L 60.232303 239.723554 
L 59.514445 242.167953 
L 58.821067 244.619408 
L 58.152238 247.077674 
L 57.508024 249.542506 
L 56.88849 252.013656 
L 56.293699 254.490879 
L 55.723709 256.973925 
L 55.178578 259.462546 
L 54.658359 261.956495 
L 54.163106 264.455521 
L 53.692867 266.959374 
L 53.24769 269.467804 
L 52.827619 271.980561 
L 52.432697 274.497393 
L 52.062962 277.018048 
L 51.718451 279.542274 
L 51.3992 282.06982 
L 51.105239 284.600431 
L 50.836599 287.133855 
L 50.593306 289.669839 
L 50.375385 292.208129 
L 50.182857 294.748472 
L 50.015742 297.290612 
L 49.874056 299.834297 
L 49.757814 302.379271 
z
" clip-path="url(#p2cfa2db5d6)" style="fill: #d60000"/>
   </g>
   <g id="patch_15">
    <path d="M 196.323757 90.453069 
L 198.551898 89.384326 
L 200.790615 88.337917 
L 203.039684 87.313948 
L 205.298879 86.31252 
L 207.567976 85.333734 
L 209.846747 84.377687 
L 212.134965 83.444475 
L 214.4324 82.534192 
L 216.738823 81.646929 
L 219.054003 80.782773 
L 221.377708 79.941812 
L 223.709707 79.12413 
L 226.049766 78.329809 
L 228.397651 77.558927 
L 230.753128 76.811562 
L 233.11596 76.087789 
L 235.485911 75.38768 
L 237.862746 74.711306 
L 240.246224 74.058733 
L 242.63611 73.430027 
L 245.032163 72.825251 
L 247.434143 72.244465 
L 249.841812 71.687728 
L 252.254927 71.155095 
L 254.673248 70.646619 
L 257.096532 70.162351 
L 259.524538 69.702341 
L 261.957023 69.266632 
L 264.393743 68.85527 
L 266.834455 68.468296 
L 269.278914 68.105747 
L 271.726877 67.767661 
L 274.178098 67.454071 
L 276.632332 67.165008 
L 279.089334 66.900502 
L 281.548858 66.660579 
L 282.773231 66.55039 
L 282.107108 58.93656 
L 280.844867 59.050156 
L 278.309275 59.297499 
L 275.776283 59.570186 
L 273.246145 59.868189 
L 270.719113 60.191478 
L 268.19544 60.54002 
L 265.675379 60.913782 
L 263.159181 61.312724 
L 260.647099 61.736809 
L 258.139383 62.185993 
L 255.636284 62.660231 
L 253.138052 63.159475 
L 250.644938 63.683677 
L 248.15719 64.232784 
L 245.675058 64.806739 
L 243.198789 65.405488 
L 240.728632 66.028968 
L 238.264832 66.677119 
L 235.807638 67.349874 
L 233.357293 68.047168 
L 230.914044 68.768929 
L 228.478135 69.515087 
L 226.049808 70.285566 
L 223.629308 71.08029 
L 221.216876 71.899178 
L 218.812754 72.742149 
L 216.417181 73.609119 
L 214.030397 74.500001 
L 211.652642 75.414706 
L 209.284152 76.353142 
L 206.925165 77.315216 
L 204.575916 78.300831 
L 202.236641 79.309889 
L 199.907574 80.342289 
L 197.588946 81.397927 
L 195.280991 82.476699 
L 192.983938 83.578496 
z
" clip-path="url(#p2cfa2db5d6)" style="fill: #800000"/>
   </g>
   <g id="PatchCollection_1">
    <path d="M 196.323757 90.453069 
L 196.323757 90.453069 
L 198.551898 89.384326 
L 200.790615 88.337917 
L 202.154492 87.713724 
L 202.154492 87.713724 
Q 304.311237 312.730922 551.418193 315.35628 
L 551.418193 315.35628 
L 551.418193 315.35628 
L 551.379584 317.827178 
L 551.316269 320.297565 
L 551.265793 321.796641 
L 551.265793 321.796641 
Q 304.311237 312.730922 196.323757 90.453069 
z
" clip-path="url(#p2cfa2db5d6)" style="fill: #800000; fill-opacity: 0.5; stroke: #808080; stroke-opacity: 0.5; stroke-width: 0.1"/>
    <path d="M 202.154492 87.713724 
L 202.154492 87.713724 
L 204.409734 86.703425 
L 206.674967 85.715728 
L 208.054651 85.127298 
L 208.054651 85.127298 
Q 304.311237 312.730922 472.116771 131.319669 
L 472.116771 131.319669 
L 472.116771 131.319669 
L 473.922463 133.006767 
L 475.711194 134.711837 
L 476.788537 135.755441 
L 476.788537 135.755441 
Q 304.311237 312.730922 202.154492 87.713724 
z
" clip-path="url(#p2cfa2db5d6)" style="fill: #800000; fill-opacity: 0.5; stroke: #808080; stroke-opacity: 0.5; stroke-width: 0.1"/>
    <path d="M 208.054651 85.127298 
L 208.054651 85.127298 
L 210.335462 84.176129 
L 211.029513 83.891983 
L 211.029513 83.891983 
Q 304.311237 312.730922 434.760317 102.845769 
L 434.760317 102.845769 
L 434.760317 102.845769 
L 436.852611 104.160733 
L 437.48497 104.56393 
L 437.48497 104.56393 
Q 304.311237 312.730922 208.054651 85.127298 
z
" clip-path="url(#p2cfa2db5d6)" style="fill: #800000; fill-opacity: 0.5; stroke: #808080; stroke-opacity: 0.5; stroke-width: 0.1"/>
    <path d="M 211.029513 83.891983 
L 211.029513 83.891983 
L 213.322529 82.970624 
L 215.624643 82.07224 
L 217.026277 81.538198 
L 217.026277 81.538198 
Q 304.311237 312.730922 370.1675 74.546765 
L 370.1675 74.546765 
L 370.1675 74.546765 
L 372.546009 75.217226 
L 374.917695 75.911438 
L 376.353788 76.344352 
L 376.353788 76.344352 
Q 304.311237 312.730922 211.029513 83.891983 
z
" clip-path="url(#p2cfa2db5d6)" style="fill: #800000; fill-opacity: 0.5; stroke: #808080; stroke-opacity: 0.5; stroke-width: 0.1"/>
    <path d="M 57.394417 302.68982 
L 57.394417 302.68982 
L 57.507172 300.221195 
L 57.546273 299.472252 
L 57.546273 299.472252 
Q 304.311237 312.730922 320.802016 559.300982 
L 320.802016 559.300982 
L 320.802016 559.300982 
L 318.335532 559.453558 
L 317.586713 559.494983 
L 317.586713 559.494983 
Q 304.311237 312.730922 57.394417 302.68982 
z
" clip-path="url(#p2cfa2db5d6)" style="fill: #d60000; fill-opacity: 0.5; stroke: #808080; stroke-opacity: 0.5; stroke-width: 0.1"/>
    <path d="M 57.546273 299.472252 
L 57.546273 299.472252 
L 57.691195 297.005306 
L 57.86078 294.539933 
L 57.975731 293.044418 
L 57.975731 293.044418 
Q 304.311237 312.730922 364.037712 552.525601 
L 364.037712 552.525601 
L 364.037712 552.525601 
L 361.636819 553.110867 
L 359.230193 553.672094 
L 357.766771 554.00099 
L 357.766771 554.00099 
Q 304.311237 312.730922 57.546273 299.472252 
z
" clip-path="url(#p2cfa2db5d6)" style="fill: #d60000; fill-opacity: 0.5; stroke: #808080; stroke-opacity: 0.5; stroke-width: 0.1"/>
    <path d="M 57.975731 293.044418 
L 57.975731 293.044418 
L 58.18491 290.582089 
L 58.4187 288.121974 
L 58.572596 286.629964 
L 58.572596 286.629964 
Q 304.311237 312.730922 281.710503 558.816165 
L 281.710503 558.816165 
L 281.710503 558.816165 
L 279.250822 558.577857 
L 276.793646 558.314965 
L 275.303562 558.143421 
L 275.303562 558.143421 
Q 304.311237 312.730922 57.975731 293.044418 
z
" clip-path="url(#p2cfa2db5d6)" style="fill: #d60000; fill-opacity: 0.5; stroke: #808080; stroke-opacity: 0.5; stroke-width: 0.1"/>
    <path d="M 58.572596 286.629964 
L 58.572596 286.629964 
L 58.845888 284.173923 
L 59.143726 281.720739 
L 59.336461 280.233247 
L 59.336461 280.233247 
Q 304.311237 312.730922 444.885326 515.973795 
L 444.885326 515.973795 
L 444.885326 515.973795 
L 442.845902 517.369351 
L 440.792625 518.744443 
L 439.539697 519.569032 
L 439.539697 519.569032 
Q 304.311237 312.730922 58.572596 286.629964 
z
" clip-path="url(#p2cfa2db5d6)" style="fill: #d60000; fill-opacity: 0.5; stroke: #808080; stroke-opacity: 0.5; stroke-width: 0.1"/>
    <path d="M 59.336461 280.233247 
L 59.336461 280.233247 
L 59.673681 277.785165 
L 60.035364 275.340578 
L 60.421475 272.899729 
L 60.831975 270.462864 
L 61.266822 268.030225 
L 61.725974 265.602056 
L 61.973066 264.347549 
L 61.973066 264.347549 
Q 304.311237 312.730922 551.265793 321.796641 
L 551.265793 321.796641 
L 551.265793 321.796641 
L 551.16279 324.265692 
L 551.035101 326.73359 
L 550.882741 329.200087 
L 550.705724 331.664938 
L 550.504067 334.127895 
L 550.277791 336.588713 
L 550.151059 337.861026 
L 550.151059 337.861026 
Q 304.311237 312.730922 59.336461 280.233247 
z
" clip-path="url(#p2cfa2db5d6)" style="fill: #d60000; fill-opacity: 0.5; stroke: #808080; stroke-opacity: 0.5; stroke-width: 0.1"/>
    <path d="M 61.973066 264.347549 
L 61.973066 264.347549 
L 62.469009 261.926627 
L 62.989135 259.510785 
L 63.533394 257.100265 
L 64.04985 254.910459 
L 64.04985 254.910459 
Q 304.311237 312.730922 547.39873 268.265086 
L 547.39873 268.265086 
L 547.39873 268.265086 
L 547.831227 270.698144 
L 548.239372 273.135405 
L 548.623124 275.576625 
L 548.951262 277.802452 
L 548.951262 277.802452 
Q 304.311237 312.730922 61.973066 264.347549 
z
" clip-path="url(#p2cfa2db5d6)" style="fill: #d60000; fill-opacity: 0.5; stroke: #808080; stroke-opacity: 0.5; stroke-width: 0.1"/>
    <path d="M 64.04985 254.910459 
L 64.04985 254.910459 
L 64.640058 252.510776 
L 65.254233 250.117115 
L 65.892314 247.729715 
L 66.554236 245.348816 
L 67.239933 242.974655 
L 67.949338 240.607469 
L 68.682378 238.247495 
L 69.438982 235.89497 
L 70.219072 233.550129 
L 71.022571 231.213205 
L 71.373475 230.21584 
L 71.373475 230.21584 
Q 304.311237 312.730922 476.788537 135.755441 
L 476.788537 135.755441 
L 476.788537 135.755441 
L 478.549639 137.489034 
L 480.293316 139.240151 
L 482.019396 141.008617 
L 483.727705 142.794255 
L 485.418073 144.596887 
L 487.09033 146.416331 
L 488.744309 148.252407 
L 490.379845 150.104931 
L 491.996775 151.973718 
L 493.594936 153.858579 
L 494.272929 154.669872 
L 494.272929 154.669872 
Q 304.311237 312.730922 64.04985 254.910459 
z
" clip-path="url(#p2cfa2db5d6)" style="fill: #d60000; fill-opacity: 0.5; stroke: #808080; stroke-opacity: 0.5; stroke-width: 0.1"/>
    <path d="M 71.373475 230.21584 
L 71.373475 230.21584 
L 72.210259 227.890627 
L 73.070252 225.573898 
L 73.95337 223.265884 
L 74.859523 220.966817 
L 75.788622 218.676926 
L 76.740572 216.396441 
L 77.715279 214.125589 
L 78.53234 212.268842 
L 78.53234 212.268842 
Q 304.311237 312.730922 437.48497 104.56393 
L 437.48497 104.56393 
L 437.48497 104.56393 
L 439.559947 105.906053 
L 441.621399 107.268859 
L 443.66912 108.652211 
L 445.702905 110.05597 
L 447.722551 111.479997 
L 449.727856 112.924149 
L 451.71862 114.388281 
L 453.341798 115.604993 
L 453.341798 115.604993 
Q 304.311237 312.730922 71.373475 230.21584 
z
" clip-path="url(#p2cfa2db5d6)" style="fill: #d60000; fill-opacity: 0.5; stroke: #808080; stroke-opacity: 0.5; stroke-width: 0.1"/>
    <path d="M 78.53234 212.268842 
L 78.53234 212.268842 
L 79.548233 210.016114 
L 80.586602 207.773657 
L 81.647343 205.541696 
L 82.730351 203.320454 
L 83.835516 201.110152 
L 84.962729 198.911013 
L 86.111876 196.723255 
L 87.071505 194.93602 
L 87.071505 194.93602 
Q 304.311237 312.730922 376.353788 76.344352 
L 376.353788 76.344352 
L 376.353788 76.344352 
L 378.714012 77.076584 
L 381.066796 77.832382 
L 383.411905 78.61167 
L 385.749103 79.414369 
L 388.078158 80.2404 
L 390.398836 81.08968 
L 392.710905 81.962123 
L 394.60225 82.695549 
L 394.60225 82.695549 
Q 304.311237 312.730922 78.53234 212.268842 
z
" clip-path="url(#p2cfa2db5d6)" style="fill: #d60000; fill-opacity: 0.5; stroke: #808080; stroke-opacity: 0.5; stroke-width: 0.1"/>
    <path d="M 87.071505 194.93602 
L 87.071505 194.93602 
L 88.260297 192.769549 
L 89.470693 190.615074 
L 90.702573 188.47281 
L 91.955814 186.342972 
L 93.23029 184.225772 
L 94.525874 182.121423 
L 95.842436 180.030135 
L 97.179845 177.952116 
L 98.537967 175.887576 
L 99.916667 173.83672 
L 101.315805 171.799753 
L 102.35189 170.318977 
L 102.35189 170.318977 
Q 304.311237 312.730922 304.311237 65.610021 
L 304.311237 65.610021 
L 304.311237 65.610021 
L 306.782405 65.622377 
L 309.253326 65.659443 
L 311.723752 65.721217 
L 314.193437 65.807691 
L 316.662134 65.918858 
L 319.129596 66.054705 
L 321.595577 66.21522 
L 324.059828 66.400386 
L 326.522105 66.610185 
L 328.982161 66.844596 
L 331.43975 67.103595 
L 333.235344 67.30856 
L 333.235344 67.30856 
Q 304.311237 312.730922 87.071505 194.93602 
z
" clip-path="url(#p2cfa2db5d6)" style="fill: #d60000; fill-opacity: 0.5; stroke: #808080; stroke-opacity: 0.5; stroke-width: 0.1"/>
    <path d="M 93.156916 441.115471 
L 93.156916 441.115471 
L 91.883649 438.997544 
L 90.631625 436.86699 
L 89.400969 434.724023 
L 88.191804 432.568856 
L 87.00425 430.401706 
L 85.838427 428.222789 
L 85.243796 427.090863 
L 85.243796 427.090863 
Q 304.311237 312.730922 550.151059 337.861026 
L 550.151059 337.861026 
L 550.151059 337.861026 
L 549.88747 340.318127 
L 549.599324 342.772469 
L 549.286649 345.223807 
L 548.949477 347.671896 
L 548.587841 350.11649 
L 548.201778 352.557346 
L 547.992451 353.818705 
L 547.992451 353.818705 
Q 304.311237 312.730922 93.156916 441.115471 
z
" clip-path="url(#p2cfa2db5d6)" style="fill: #ff3b00; fill-opacity: 0.5; stroke: #808080; stroke-opacity: 0.5; stroke-width: 0.1"/>
    <path d="M 85.243796 427.090863 
L 85.243796 427.090863 
L 84.111169 424.894507 
L 83.000561 422.686935 
L 81.912085 420.468367 
L 80.845848 418.239026 
L 79.801958 415.999134 
L 78.780519 413.748915 
L 78.260869 412.580665 
L 78.260869 412.580665 
Q 304.311237 312.730922 494.272929 154.669872 
L 494.272929 154.669872 
L 494.272929 154.669872 
L 495.844015 156.57736 
L 497.395948 158.500464 
L 498.928573 160.43899 
L 500.441736 162.392746 
L 501.935286 164.361535 
L 503.409074 166.345161 
L 504.163811 167.377254 
L 504.163811 167.377254 
Q 304.311237 312.730922 85.243796 427.090863 
z
" clip-path="url(#p2cfa2db5d6)" style="fill: #ff3b00; fill-opacity: 0.5; stroke: #808080; stroke-opacity: 0.5; stroke-width: 0.1"/>
    <path d="M 78.260869 412.580665 
L 78.260869 412.580665 
L 77.273691 410.315207 
L 76.309216 408.03999 
L 75.367541 405.755242 
L 74.448761 403.461192 
L 73.552966 401.15807 
L 72.680247 398.846104 
L 72.237787 397.64649 
L 72.237787 397.64649 
Q 304.311237 312.730922 394.60225 82.695549 
L 394.60225 82.695549 
L 394.60225 82.695549 
L 396.898051 83.609946 
L 399.184593 84.547254 
L 401.461648 85.507381 
L 403.728988 86.49023 
L 405.986386 87.495703 
L 408.233617 88.523699 
L 409.392276 89.064396 
L 409.392276 89.064396 
Q 304.311237 312.730922 78.260869 412.580665 
z
" clip-path="url(#p2cfa2db5d6)" style="fill: #ff3b00; fill-opacity: 0.5; stroke: #808080; stroke-opacity: 0.5; stroke-width: 0.1"/>
    <path d="M 72.237787 397.64649 
L 72.237787 397.64649 
L 71.400249 395.321549 
L 70.586002 392.988348 
L 69.795127 390.647122 
L 69.027704 388.298104 
L 68.283809 385.94153 
L 67.563516 383.577634 
L 67.200124 382.351751 
L 67.200124 382.351751 
Q 304.311237 312.730922 333.235344 67.30856 
L 333.235344 67.30856 
L 333.235344 67.30856 
L 335.688081 67.610067 
L 338.13768 67.936086 
L 340.583896 68.286585 
L 343.026485 68.661527 
L 345.465202 69.060877 
L 347.899805 69.484593 
L 349.15778 69.713376 
L 349.15778 69.713376 
Q 304.311237 312.730922 72.237787 397.64649 
z
" clip-path="url(#p2cfa2db5d6)" style="fill: #ff3b00; fill-opacity: 0.5; stroke: #808080; stroke-opacity: 0.5; stroke-width: 0.1"/>
    <path d="M 240.351641 551.431383 
L 240.351641 551.431383 
L 237.967874 550.779863 
L 235.590742 550.104538 
L 234.713015 549.848672 
L 234.713015 549.848672 
Q 304.311237 312.730922 547.992451 353.818705 
L 547.992451 353.818705 
L 547.992451 353.818705 
L 547.569396 356.253422 
L 547.122016 358.683787 
L 546.950345 359.581785 
L 546.950345 359.581785 
Q 304.311237 312.730922 240.351641 551.431383 
z
" clip-path="url(#p2cfa2db5d6)" style="fill: #ff8600; fill-opacity: 0.5; stroke: #808080; stroke-opacity: 0.5; stroke-width: 0.1"/>
    <path d="M 234.713015 549.848672 
L 234.713015 549.848672 
L 232.345357 549.140846 
L 229.984896 548.409379 
L 227.631867 547.654344 
L 226.329353 547.225199 
L 226.329353 547.225199 
Q 304.311237 312.730922 504.163811 167.377254 
L 504.163811 167.377254 
L 504.163811 167.377254 
L 505.607331 169.383014 
L 507.030721 171.403109 
L 508.43384 173.437336 
L 509.203698 174.572248 
L 509.203698 174.572248 
Q 304.311237 312.730922 234.713015 549.848672 
z
" clip-path="url(#p2cfa2db5d6)" style="fill: #ff8600; fill-opacity: 0.5; stroke: #808080; stroke-opacity: 0.5; stroke-width: 0.1"/>
    <path d="M 226.329353 547.225199 
L 226.329353 547.225199 
L 223.988349 546.433668 
L 223.556177 546.284685 
L 223.556177 546.284685 
Q 304.311237 312.730922 453.341798 115.604993 
L 453.341798 115.604993 
L 453.341798 115.604993 
L 455.305573 117.10513 
L 455.667188 117.384778 
L 455.667188 117.384778 
Q 304.311237 312.730922 226.329353 547.225199 
z
" clip-path="url(#p2cfa2db5d6)" style="fill: #ff8600; fill-opacity: 0.5; stroke: #808080; stroke-opacity: 0.5; stroke-width: 0.1"/>
    <path d="M 223.556177 546.284685 
L 223.556177 546.284685 
L 221.224716 545.465471 
L 219.417796 544.812467 
L 219.417796 544.812467 
Q 304.311237 312.730922 409.392276 89.064396 
L 409.392276 89.064396 
L 409.392276 89.064396 
L 411.62365 90.126372 
L 413.351081 90.967417 
L 413.351081 90.967417 
Q 304.311237 312.730922 223.556177 546.284685 
z
" clip-path="url(#p2cfa2db5d6)" style="fill: #ff8600; fill-opacity: 0.5; stroke: #808080; stroke-opacity: 0.5; stroke-width: 0.1"/>
    <path d="M 275.303562 558.143421 
L 275.303562 558.143421 
L 272.850929 557.841079 
L 270.401441 557.514226 
L 267.955344 557.162894 
L 265.731471 556.821769 
L 265.731471 556.821769 
Q 304.311237 312.730922 102.35189 170.318977 
L 102.35189 170.318977 
L 102.35189 170.318977 
L 103.786084 168.306537 
L 105.24033 166.308541 
L 106.714483 164.325186 
L 108.073802 162.532357 
L 108.073802 162.532357 
Q 304.311237 312.730922 275.303562 558.143421 
z
" clip-path="url(#p2cfa2db5d6)" style="fill: #ffcc00; fill-opacity: 0.5; stroke: #808080; stroke-opacity: 0.5; stroke-width: 0.1"/>
    <path d="M 265.731471 556.821769 
L 265.731471 556.821769 
L 263.292532 556.423773 
L 261.399143 556.097502 
L 261.399143 556.097502 
Q 304.311237 312.730922 219.417796 544.812467 
L 219.417796 544.812467 
L 219.417796 544.812467 
L 217.101264 543.951943 
L 215.306235 543.266927 
L 215.306235 543.266927 
Q 304.311237 312.730922 265.731471 556.821769 
z
" clip-path="url(#p2cfa2db5d6)" style="fill: #ffcc00; fill-opacity: 0.5; stroke: #808080; stroke-opacity: 0.5; stroke-width: 0.1"/>
    <path d="M 317.586713 559.494983 
L 317.586713 559.494983 
L 315.11845 559.615397 
L 312.649106 559.711124 
L 310.178928 559.782152 
L 307.708164 559.828475 
L 305.237059 559.850089 
L 304.708414 559.851505 
L 304.708414 559.851505 
Q 304.311237 312.730922 108.073802 162.532357 
L 108.073802 162.532357 
L 108.073802 162.532357 
L 109.585574 160.577526 
L 111.116819 158.637909 
L 112.667383 156.713702 
L 114.237111 154.805096 
L 115.825847 152.912283 
L 116.168166 152.509436 
L 116.168166 152.509436 
Q 304.311237 312.730922 317.586713 559.494983 
z
" clip-path="url(#p2cfa2db5d6)" style="fill: #dbff1c; fill-opacity: 0.5; stroke: #808080; stroke-opacity: 0.5; stroke-width: 0.1"/>
    <path d="M 304.708414 559.851505 
L 304.708414 559.851505 
L 303.244248 559.84952 
L 303.244248 559.84952 
Q 304.311237 312.730922 215.306235 543.266927 
L 215.306235 543.266927 
L 215.306235 543.266927 
L 213.9419 542.735537 
L 213.9419 542.735537 
Q 304.311237 312.730922 304.708414 559.851505 
z
" clip-path="url(#p2cfa2db5d6)" style="fill: #dbff1c; fill-opacity: 0.5; stroke: #808080; stroke-opacity: 0.5; stroke-width: 0.1"/>
    <path d="M 357.766771 554.00099 
L 357.766771 554.00099 
L 355.351438 554.523474 
L 352.931001 555.021777 
L 350.505701 555.495853 
L 348.075783 555.945651 
L 345.641488 556.371129 
L 345.120192 556.458986 
L 345.120192 556.458986 
Q 304.311237 312.730922 116.168166 152.509436 
L 116.168166 152.509436 
L 116.168166 152.509436 
L 117.779761 150.636047 
L 119.410009 148.778868 
L 121.058748 146.938085 
L 122.725811 145.11388 
L 124.411033 143.306437 
L 124.773881 142.921977 
L 124.773881 142.921977 
Q 304.311237 312.730922 357.766771 554.00099 
z
" clip-path="url(#p2cfa2db5d6)" style="fill: #9aff5d; fill-opacity: 0.5; stroke: #808080; stroke-opacity: 0.5; stroke-width: 0.1"/>
    <path d="M 345.120192 556.458986 
L 345.120192 556.458986 
L 342.680912 556.854883 
L 342.22926 556.925442 
L 342.22926 556.925442 
Q 304.311237 312.730922 213.9419 542.735537 
L 213.9419 542.735537 
L 213.9419 542.735537 
L 211.646411 541.820359 
L 211.222794 541.648553 
L 211.222794 541.648553 
Q 304.311237 312.730922 345.120192 556.458986 
z
" clip-path="url(#p2cfa2db5d6)" style="fill: #9aff5d; fill-opacity: 0.5; stroke: #808080; stroke-opacity: 0.5; stroke-width: 0.1"/>
    <path d="M 439.539697 519.569032 
L 439.539697 519.569032 
L 437.464589 520.910952 
L 436.832191 521.314088 
L 436.832191 521.314088 
Q 304.311237 312.730922 217.026277 81.538198 
L 217.026277 81.538198 
L 217.026277 81.538198 
L 219.34253 80.676923 
L 220.047159 80.420128 
L 220.047159 80.420128 
Q 304.311237 312.730922 439.539697 519.569032 
z
" clip-path="url(#p2cfa2db5d6)" style="fill: #5dff9a; fill-opacity: 0.5; stroke: #808080; stroke-opacity: 0.5; stroke-width: 0.1"/>
    <path d="M 436.832191 521.314088 
L 436.832191 521.314088 
L 434.739768 522.628846 
L 432.634302 523.922615 
L 430.516004 525.195264 
L 428.385086 526.446668 
L 426.241761 527.6767 
L 424.086242 528.885238 
L 421.918746 530.07216 
L 419.73949 531.237349 
L 417.548691 532.380687 
L 415.346568 533.50206 
L 414.400996 533.975097 
L 414.400996 533.975097 
Q 304.311237 312.730922 124.773881 142.921977 
L 124.773881 142.921977 
L 124.773881 142.921977 
L 126.480919 141.135124 
L 128.20574 139.36543 
L 129.948171 137.613073 
L 131.708039 135.878227 
L 133.485166 134.161066 
L 135.279376 132.461763 
L 137.090489 130.780486 
L 138.918324 129.117403 
L 140.762698 127.472682 
L 142.623427 125.846487 
L 143.424481 125.156426 
L 143.424481 125.156426 
Q 304.311237 312.730922 436.832191 521.314088 
z
" clip-path="url(#p2cfa2db5d6)" style="fill: #5dff9a; fill-opacity: 0.5; stroke: #808080; stroke-opacity: 0.5; stroke-width: 0.1"/>
    <path d="M 414.400996 533.975097 
L 414.400996 533.975097 
L 412.183086 535.064914 
L 409.95439 536.132498 
L 407.715129 537.177742 
L 405.465528 538.200542 
L 403.205812 539.200794 
L 400.936206 540.1784 
L 398.656938 541.133262 
L 396.368236 542.065283 
L 394.070328 542.974371 
L 391.763444 543.860435 
L 389.447814 544.723386 
L 387.123672 545.563138 
L 384.791248 546.379607 
L 384.709918 546.407605 
L 384.709918 546.407605 
Q 304.311237 312.730922 211.222794 541.648553 
L 211.222794 541.648553 
L 211.222794 541.648553 
L 208.93831 540.706238 
L 206.663364 539.741126 
L 204.398182 538.753314 
L 202.142991 537.742899 
L 199.898018 536.709983 
L 197.663485 535.654669 
L 195.439617 534.577063 
L 193.226636 533.477273 
L 191.024763 532.355408 
L 188.834219 531.211581 
L 186.655223 530.045906 
L 184.487992 528.8585 
L 182.332744 527.649481 
L 182.257946 527.607012 
L 182.257946 527.607012 
Q 304.311237 312.730922 414.400996 533.975097 
z
" clip-path="url(#p2cfa2db5d6)" style="fill: #5dff9a; fill-opacity: 0.5; stroke: #808080; stroke-opacity: 0.5; stroke-width: 0.1"/>
    <path d="M 546.950345 359.581785 
L 546.950345 359.581785 
L 546.469712 362.005793 
L 545.964864 364.424874 
L 545.43585 366.838785 
L 544.882725 369.247286 
L 544.305542 371.650135 
L 543.70436 374.047092 
L 543.079239 376.437917 
L 542.430241 378.822372 
L 541.757432 381.200218 
L 541.060878 383.571217 
L 540.34065 385.935132 
L 539.596818 388.291727 
L 538.829459 390.640765 
L 538.038648 392.982013 
L 537.224464 395.315236 
L 536.386989 397.6402 
L 535.574029 399.830066 
L 535.574029 399.830066 
Q 304.311237 312.730922 220.047159 80.420128 
L 220.047159 80.420128 
L 220.047159 80.420128 
L 222.374441 79.589117 
L 224.709917 78.78142 
L 227.053353 77.997117 
L 229.404515 77.236288 
L 231.763167 76.499008 
L 234.129075 75.78535 
L 236.502 75.095388 
L 238.881706 74.429188 
L 241.267955 73.786819 
L 243.660508 73.168344 
L 246.059127 72.573825 
L 248.46357 72.003321 
L 250.873599 71.45689 
L 253.288971 70.934586 
L 255.709445 70.436461 
L 258.134779 69.962566 
L 260.431572 69.536936 
L 260.431572 69.536936 
Q 304.311237 312.730922 546.950345 359.581785 
z
" clip-path="url(#p2cfa2db5d6)" style="fill: #1cffdb; fill-opacity: 0.5; stroke: #808080; stroke-opacity: 0.5; stroke-width: 0.1"/>
    <path d="M 535.574029 399.830066 
L 535.574029 399.830066 
L 534.691489 402.138301 
L 533.785912 404.437594 
L 532.857387 406.727718 
L 531.906007 409.008441 
L 530.931868 411.279537 
L 529.935068 413.540778 
L 528.915705 415.791938 
L 527.873882 418.032793 
L 526.809702 420.263117 
L 525.723274 422.482688 
L 524.614704 424.691284 
L 523.790025 426.299411 
L 523.790025 426.299411 
Q 304.311237 312.730922 143.424481 125.156426 
L 143.424481 125.156426 
L 143.424481 125.156426 
L 145.308239 123.556964 
L 147.207897 121.976419 
L 149.123265 120.41495 
L 151.054152 118.872712 
L 153.000365 117.349859 
L 154.961708 115.846545 
L 156.937987 114.362918 
L 158.929002 112.899129 
L 160.934556 111.455322 
L 162.954447 110.031643 
L 164.988474 108.628233 
L 166.484842 107.614797 
L 166.484842 107.614797 
Q 304.311237 312.730922 535.574029 399.830066 
z
" clip-path="url(#p2cfa2db5d6)" style="fill: #1cffdb; fill-opacity: 0.5; stroke: #808080; stroke-opacity: 0.5; stroke-width: 0.1"/>
    <path d="M 523.790025 426.299411 
L 523.790025 426.299411 
L 522.643385 428.488484 
L 521.474912 430.665982 
L 520.284723 432.831685 
L 519.072937 434.985379 
L 517.839675 437.126848 
L 516.58506 439.255877 
L 515.309218 441.372254 
L 514.012276 443.475766 
L 512.694364 445.566204 
L 511.355615 447.643359 
L 509.996161 449.707023 
L 508.616138 451.756989 
L 507.215686 453.793053 
L 505.794943 455.81501 
L 504.354052 457.82266 
L 502.893156 459.8158 
L 501.412403 461.794232 
L 499.91194 463.757758 
L 498.391917 465.706181 
L 496.852486 467.639307 
L 495.293801 469.556942 
L 494.152313 470.936819 
L 494.152313 470.936819 
Q 304.311237 312.730922 67.200124 382.351751 
L 67.200124 382.351751 
L 67.200124 382.351751 
L 66.515782 379.977199 
L 65.855221 377.595921 
L 65.218504 375.208158 
L 64.605697 372.814146 
L 64.01686 370.414127 
L 63.452052 368.008339 
L 62.91133 365.597023 
L 62.394747 363.180421 
L 61.902357 360.758774 
L 61.434206 358.332325 
L 60.990344 355.901315 
L 60.570813 353.465988 
L 60.175656 351.026587 
L 59.804912 348.583358 
L 59.458619 346.136542 
L 59.136811 343.686387 
L 58.83952 341.233136 
L 58.566776 338.777034 
L 58.318607 336.318328 
L 58.095036 333.857264 
L 57.896087 331.394086 
L 57.767311 329.607897 
L 57.767311 329.607897 
Q 304.311237 312.730922 523.790025 426.299411 
z
" clip-path="url(#p2cfa2db5d6)" style="fill: #1cffdb; fill-opacity: 0.5; stroke: #808080; stroke-opacity: 0.5; stroke-width: 0.1"/>
    <path d="M 494.152313 470.936819 
L 494.152313 470.936819 
L 492.560789 472.827288 
L 490.950439 474.701747 
L 489.321426 476.56001 
L 487.673912 478.401889 
L 486.008062 480.227202 
L 484.324042 482.035765 
L 482.622022 483.827398 
L 480.90217 485.601922 
L 479.164659 487.359158 
L 477.409663 489.098932 
L 475.637358 490.821069 
L 473.84792 492.525397 
L 472.041528 494.211746 
L 470.218364 495.879947 
L 468.378609 497.529833 
L 466.522447 499.16124 
L 464.650065 500.774003 
L 462.761648 502.367963 
L 462.064183 502.948556 
L 462.064183 502.948556 
Q 304.311237 312.730922 182.257946 527.607012 
L 182.257946 527.607012 
L 182.257946 527.607012 
L 180.115323 526.375756 
L 177.98512 525.123135 
L 175.86755 523.849275 
L 173.762823 522.554304 
L 171.671152 521.238351 
L 169.592744 519.901547 
L 167.527808 518.544026 
L 165.476551 517.165924 
L 163.439177 515.767378 
L 161.415889 514.348529 
L 159.406892 512.909519 
L 157.412384 511.450491 
L 155.432567 509.971591 
L 153.467637 508.472967 
L 151.517791 506.954769 
L 149.583224 505.417149 
L 147.664131 503.860261 
L 145.760701 502.284259 
L 145.065681 501.700742 
L 145.065681 501.700742 
Q 304.311237 312.730922 494.152313 470.936819 
z
" clip-path="url(#p2cfa2db5d6)" style="fill: #1cffdb; fill-opacity: 0.5; stroke: #808080; stroke-opacity: 0.5; stroke-width: 0.1"/>
    <path d="M 548.951262 277.802452 
L 548.951262 277.802452 
L 549.288309 280.250558 
L 549.600859 282.701912 
L 549.888879 285.156269 
L 550.152343 287.613383 
L 550.391222 290.073009 
L 550.605493 292.534901 
L 550.706691 293.8095 
L 550.706691 293.8095 
Q 304.311237 312.730922 145.065681 501.700742 
L 145.065681 501.700742 
L 145.065681 501.700742 
L 143.183976 500.098864 
L 141.318384 498.47825 
L 139.469091 496.839061 
L 137.636283 495.181462 
L 135.820141 493.505618 
L 134.020849 491.811696 
L 133.096563 490.928215 
L 133.096563 490.928215 
Q 304.311237 312.730922 548.951262 277.802452 
z
" clip-path="url(#p2cfa2db5d6)" style="fill: #00b8ff; fill-opacity: 0.5; stroke: #808080; stroke-opacity: 0.5; stroke-width: 0.1"/>
    <path d="M 509.203698 174.572248 
L 509.203698 174.572248 
L 510.575018 176.628047 
L 511.925711 178.697455 
L 513.255642 180.780267 
L 514.56468 182.876274 
L 515.852692 184.985266 
L 517.11955 187.107032 
L 518.365128 189.241361 
L 519.5893 191.388039 
L 520.791945 193.54685 
L 520.94 193.816168 
L 520.94 193.816168 
Q 304.311237 312.730922 260.431572 69.536936 
L 260.431572 69.536936 
L 260.431572 69.536936 
L 262.865665 69.110306 
L 265.303903 68.708038 
L 267.746041 68.330173 
L 270.191836 67.976747 
L 272.641043 67.647796 
L 275.093417 67.343353 
L 277.548713 67.063449 
L 280.006685 66.808112 
L 282.467087 66.577366 
L 282.773231 66.55039 
L 282.773231 66.55039 
Q 304.311237 312.730922 509.203698 174.572248 
z
" clip-path="url(#p2cfa2db5d6)" style="fill: #006cff; fill-opacity: 0.5; stroke: #808080; stroke-opacity: 0.5; stroke-width: 0.1"/>
    <path d="M 520.94 193.816168 
L 520.94 193.816168 
L 522.118297 195.988365 
L 523.274813 198.172236 
L 524.409432 200.367563 
L 525.522042 202.574127 
L 526.612531 204.791706 
L 526.842929 205.267505 
L 526.842929 205.267505 
Q 304.311237 312.730922 166.484842 107.614797 
L 166.484842 107.614797 
L 166.484842 107.614797 
L 168.54286 106.246812 
L 170.614455 104.899475 
L 172.69942 103.572921 
L 174.797546 102.267283 
L 176.908623 100.98269 
L 177.361891 100.710632 
L 177.361891 100.710632 
Q 304.311237 312.730922 520.94 193.816168 
z
" clip-path="url(#p2cfa2db5d6)" style="fill: #006cff; fill-opacity: 0.5; stroke: #808080; stroke-opacity: 0.5; stroke-width: 0.1"/>
    <path d="M 526.842929 205.267505 
L 526.842929 205.267505 
L 527.906419 207.498158 
L 528.947549 209.739334 
L 529.124842 210.126912 
L 529.124842 210.126912 
Q 304.311237 312.730922 57.767311 329.607897 
L 57.767311 329.607897 
L 57.767311 329.607897 
L 57.610871 327.141655 
L 57.479101 324.673972 
L 57.45887 324.248249 
L 57.45887 324.248249 
Q 304.311237 312.730922 526.842929 205.267505 
z
" clip-path="url(#p2cfa2db5d6)" style="fill: #006cff; fill-opacity: 0.5; stroke: #808080; stroke-opacity: 0.5; stroke-width: 0.1"/>
    <path d="M 529.124842 210.126912 
L 529.124842 210.126912 
L 530.139625 212.380141 
L 531.131824 214.643405 
L 532.101342 216.916477 
L 533.048081 219.199131 
L 533.971947 221.491138 
L 534.872847 223.792269 
L 535.75069 226.102293 
L 536.60539 228.42098 
L 537.436861 230.748099 
L 538.24502 233.083415 
L 539.029785 235.426696 
L 539.791078 237.777708 
L 540.528824 240.136215 
L 541.242948 242.501981 
L 541.933379 244.87477 
L 542.598256 247.247821 
L 542.598256 247.247821 
Q 304.311237 312.730922 133.096563 490.928215 
L 133.096563 490.928215 
L 133.096563 490.928215 
L 131.32318 489.207187 
L 129.567096 487.468512 
L 127.828487 485.712363 
L 126.107525 483.938916 
L 124.404384 482.148348 
L 122.719233 480.340839 
L 121.052242 478.516568 
L 119.403576 476.67572 
L 117.7734 474.818477 
L 116.161879 472.945025 
L 114.569172 471.055552 
L 112.995439 469.150247 
L 111.440837 467.2293 
L 109.905523 465.292903 
L 108.389648 463.341251 
L 106.897436 461.379941 
L 106.897436 461.379941 
Q 304.311237 312.730922 529.124842 210.126912 
z
" clip-path="url(#p2cfa2db5d6)" style="fill: #006cff; fill-opacity: 0.5; stroke: #808080; stroke-opacity: 0.5; stroke-width: 0.1"/>
    <path d="M 413.351081 90.967417 
L 413.351081 90.967417 
L 415.563227 92.068885 
L 415.971223 92.275059 
L 415.971223 92.275059 
Q 304.311237 312.730922 106.897436 461.379941 
L 106.897436 461.379941 
L 106.897436 461.379941 
L 105.420841 459.398404 
L 105.149872 459.030241 
L 105.149872 459.030241 
Q 304.311237 312.730922 413.351081 90.967417 
z
" clip-path="url(#p2cfa2db5d6)" style="fill: #0000d6; fill-opacity: 0.5; stroke: #808080; stroke-opacity: 0.5; stroke-width: 0.1"/>
   </g>
   <g id="patch_16">
    <path d="M 304.311237 65.610021 
L 306.782405 65.622377 
L 309.253326 65.659443 
L 311.723752 65.721217 
L 314.193437 65.807691 
L 316.662134 65.918858 
L 319.129596 66.054705 
L 321.595577 66.21522 
L 324.059828 66.400386 
L 326.522105 66.610185 
L 328.982161 66.844596 
L 331.43975 67.103595 
L 333.894626 67.387157 
L 336.346543 67.695253 
L 338.795257 68.027853 
L 341.240523 68.384922 
L 343.682096 68.766426 
L 346.119732 69.172326 
L 348.553187 69.602582 
L 349.15778 69.713376 
L 350.544786 62.19737 
L 349.921494 62.083149 
L 347.412778 61.639586 
L 344.899751 61.221132 
L 342.382666 60.827829 
L 339.861773 60.459716 
L 337.337326 60.11683 
L 334.809576 59.799206 
L 332.278776 59.506874 
L 329.745179 59.239864 
L 327.209039 58.998203 
L 324.670609 58.781916 
L 322.130144 58.591023 
L 319.587896 58.425544 
L 317.044121 58.285495 
L 314.499072 58.17089 
L 311.953005 58.081741 
L 309.406174 58.018057 
L 306.858833 57.979844 
L 304.311237 57.967106 
L 304.311237 65.610021 
z
" clip-path="url(#p2cfa2db5d6)" style="fill: none; stroke: #000000; stroke-width: 0.5; stroke-linejoin: miter"/>
   </g>
   <g id="patch_17">
    <path d="M 370.1675 74.546765 
L 372.546009 75.217226 
L 374.917695 75.911438 
L 377.28232 76.629332 
L 379.639648 77.370835 
L 381.989443 78.135875 
L 384.331471 78.924374 
L 386.665496 79.736253 
L 388.991286 80.571431 
L 391.308609 81.429826 
L 393.617231 82.31135 
L 395.916923 83.215916 
L 398.207455 84.143433 
L 400.488597 85.093809 
L 402.760121 86.066948 
L 405.021801 87.062754 
L 407.273409 88.081126 
L 409.514722 89.121963 
L 411.745514 90.18516 
L 413.965563 91.270612 
L 415.971223 92.275059 
L 419.424624 85.456837 
L 417.356934 84.421325 
L 415.068223 83.302302 
L 412.768438 82.206222 
L 410.457806 81.133194 
L 408.13656 80.083326 
L 405.804932 79.056722 
L 403.463154 78.053486 
L 401.111461 77.073717 
L 398.750089 76.117513 
L 396.379272 75.184971 
L 393.999249 74.276183 
L 391.610257 73.391241 
L 389.212535 72.530232 
L 386.806323 71.693243 
L 384.391862 70.880358 
L 381.969392 70.091657 
L 379.539157 69.327221 
L 377.1014 68.587124 
L 374.656363 67.871442 
L 372.204292 67.180245 
L 370.1675 74.546765 
z
" clip-path="url(#p2cfa2db5d6)" style="fill: none; stroke: #000000; stroke-width: 0.5; stroke-linejoin: miter"/>
   </g>
   <g id="patch_18">
    <path d="M 434.760317 102.845769 
L 436.852611 104.160733 
L 438.931651 105.496553 
L 440.99723 106.853096 
L 443.049139 108.230227 
L 445.087175 109.627808 
L 447.111134 111.045699 
L 449.120813 112.483758 
L 451.116011 113.941842 
L 453.096528 115.419805 
L 455.062167 116.917498 
L 455.667188 117.384778 
L 460.348299 111.343144 
L 459.724567 110.861413 
L 457.698135 109.317399 
L 455.656364 107.793726 
L 453.599459 106.290547 
L 451.527626 104.808011 
L 449.44107 103.346268 
L 447.340002 101.905463 
L 445.224632 100.48574 
L 443.095169 99.087242 
L 440.951829 97.710108 
L 438.794825 96.354476 
L 434.760317 102.845769 
z
" clip-path="url(#p2cfa2db5d6)" style="fill: none; stroke: #000000; stroke-width: 0.5; stroke-linejoin: miter"/>
   </g>
   <g id="patch_19">
    <path d="M 472.116771 131.319669 
L 473.922463 133.006767 
L 475.711194 134.711837 
L 477.482785 136.434709 
L 479.23706 138.17521 
L 480.973841 139.933167 
L 482.692957 141.708403 
L 484.394235 143.500742 
L 486.077504 145.310003 
L 487.742597 147.136007 
L 489.389347 148.978569 
L 491.01759 150.837507 
L 492.627162 152.712634 
L 494.217902 154.603763 
L 495.789652 156.510704 
L 497.342254 158.433267 
L 498.875554 160.37126 
L 500.389397 162.324489 
L 501.883632 164.292758 
L 503.358111 166.275871 
L 504.812685 168.273629 
L 506.247208 170.285833 
L 507.661539 172.312281 
L 509.055534 174.352771 
L 510.429056 176.407099 
L 511.781965 178.475059 
L 513.114128 180.556444 
L 514.425411 182.651047 
L 515.715682 184.758658 
L 516.984814 186.879066 
L 518.232678 189.012058 
L 519.45915 191.157423 
L 520.664107 193.314945 
L 521.847429 195.484408 
L 523.008998 197.665596 
L 524.148698 199.858291 
L 525.266413 202.062272 
L 526.362034 204.277321 
L 527.435449 206.503214 
L 528.486552 208.73973 
L 529.515238 210.986646 
L 530.521404 213.243735 
L 531.504949 215.510774 
L 532.465775 217.787534 
L 533.403785 220.073788 
L 534.318886 222.369309 
L 535.210987 224.673865 
L 536.079998 226.987227 
L 536.925832 229.309163 
L 537.748406 231.639441 
L 538.547635 233.977828 
L 539.323441 236.324091 
L 540.075746 238.677994 
L 540.804475 241.039302 
L 541.509555 243.40778 
L 542.190915 245.78319 
L 542.598256 247.247821 
L 549.967958 245.222571 
L 549.548018 243.712641 
L 548.845585 241.263765 
L 548.118699 238.822036 
L 547.367432 236.387697 
L 546.59186 233.960993 
L 545.79206 231.542166 
L 544.968112 229.131457 
L 544.120098 226.729108 
L 543.248104 224.33536 
L 542.352217 221.950451 
L 541.432525 219.574619 
L 540.489122 217.208104 
L 539.5221 214.85114 
L 538.531558 212.503965 
L 537.517595 210.166812 
L 536.48031 207.839916 
L 535.41981 205.523508 
L 534.336198 203.217821 
L 533.229584 200.923085 
L 532.100078 198.639531 
L 530.947794 196.367385 
L 529.772847 194.106875 
L 528.575353 191.858228 
L 527.355433 189.621667 
L 526.113209 187.397418 
L 524.848805 185.185702 
L 523.562347 182.98674 
L 522.253964 180.800753 
L 520.923787 178.627958 
L 519.57195 176.468574 
L 518.198586 174.322816 
L 516.803834 172.190898 
L 515.387832 170.073035 
L 513.950723 167.969437 
L 512.492651 165.880315 
L 511.01376 163.805878 
L 509.5142 161.746333 
L 507.994119 159.701887 
L 506.45367 157.672744 
L 504.893007 155.659106 
L 503.312286 153.661175 
L 501.711665 151.679151 
L 500.091304 149.713232 
L 498.451366 147.763615 
L 496.792013 145.830494 
L 495.113413 143.914064 
L 493.415732 142.014514 
L 491.699141 140.132037 
L 489.963812 138.266819 
L 488.209917 136.419047 
L 486.437633 134.588907 
L 484.647136 132.77658 
L 482.838606 130.982249 
L 481.012224 129.206092 
L 479.168171 127.448288 
L 477.306633 125.709012 
L 472.116771 131.319669 
z
" clip-path="url(#p2cfa2db5d6)" style="fill: none; stroke: #000000; stroke-width: 0.5; stroke-linejoin: miter"/>
   </g>
   <g id="patch_20">
    <path d="M 547.39873 268.265086 
L 547.831227 270.698144 
L 548.239372 273.135405 
L 548.623124 275.576625 
L 548.982445 278.021561 
L 549.3173 280.469968 
L 549.627654 282.921601 
L 549.913476 285.376215 
L 550.174739 287.833564 
L 550.411415 290.293403 
L 550.623482 292.755485 
L 550.706691 293.8095 
L 558.327169 293.224301 
L 558.241386 292.137688 
L 558.022761 289.599459 
L 557.778765 287.063542 
L 557.509422 284.530193 
L 557.214759 281.999663 
L 556.894807 279.472207 
L 556.549596 276.948076 
L 556.179162 274.427523 
L 555.783541 271.910801 
L 555.362773 269.398161 
L 554.9169 266.889854 
L 547.39873 268.265086 
z
" clip-path="url(#p2cfa2db5d6)" style="fill: none; stroke: #000000; stroke-width: 0.5; stroke-linejoin: miter"/>
   </g>
   <g id="patch_21">
    <path d="M 551.418193 315.35628 
L 551.379584 317.827178 
L 551.316269 320.297565 
L 551.228254 322.767196 
L 551.115547 325.235823 
L 550.97816 327.7032 
L 550.816106 330.169079 
L 550.629403 332.633215 
L 550.418067 335.09536 
L 550.182121 337.55527 
L 549.921589 340.012696 
L 549.636495 342.467395 
L 549.326869 344.91912 
L 548.992742 347.367626 
L 548.634147 349.812668 
L 548.251119 352.254002 
L 547.843698 354.691384 
L 547.411924 357.12457 
L 546.95584 359.553317 
L 546.475492 361.977382 
L 545.970927 364.396521 
L 545.442197 366.810495 
L 544.889354 369.21906 
L 544.312453 371.621977 
L 543.711552 374.019005 
L 543.086712 376.409904 
L 542.437994 378.794435 
L 541.765464 381.172359 
L 541.069188 383.54344 
L 540.349237 385.907439 
L 539.605682 388.264121 
L 538.838598 390.61325 
L 538.048061 392.95459 
L 537.234151 395.287908 
L 536.396949 397.612971 
L 535.536539 399.929545 
L 534.653006 402.2374 
L 533.746439 404.536304 
L 532.816929 406.826027 
L 531.864568 409.106342 
L 530.889452 411.377018 
L 529.891679 413.63783 
L 528.871348 415.888552 
L 527.828561 418.128958 
L 526.763422 420.358824 
L 525.676039 422.577927 
L 524.566519 424.786046 
L 523.434974 426.982959 
L 522.281516 429.168448 
L 521.106262 431.342292 
L 519.909328 433.504276 
L 518.690835 435.654182 
L 517.450904 437.791796 
L 516.189659 439.916905 
L 514.907227 442.029294 
L 513.603735 444.128754 
L 512.279314 446.215075 
L 510.934096 448.288046 
L 509.568217 450.347463 
L 508.181812 452.393118 
L 506.775019 454.424806 
L 505.347981 456.442326 
L 503.900839 458.445474 
L 502.433739 460.434051 
L 500.946826 462.407858 
L 499.44025 464.366698 
L 497.914161 466.310373 
L 496.368712 468.238691 
L 494.804057 470.151459 
L 493.220354 472.048484 
L 491.617759 473.929578 
L 489.996434 475.794552 
L 488.356541 477.64322 
L 486.698243 479.475397 
L 485.021707 481.2909 
L 483.3271 483.089546 
L 481.614591 484.871157 
L 479.884353 486.635554 
L 478.136557 488.382561 
L 476.371378 490.112003 
L 474.588994 491.823706 
L 472.789582 493.517501 
L 470.973323 495.193217 
L 469.140397 496.850687 
L 467.290989 498.489745 
L 465.425283 500.110228 
L 463.543465 501.711973 
L 462.064183 502.948556 
L 466.94314 508.831575 
L 468.468173 507.556747 
L 470.408191 505.905464 
L 472.3316 504.234864 
L 474.238206 502.545113 
L 476.12782 500.836381 
L 478.000253 499.108839 
L 479.855317 497.362659 
L 481.692826 495.598016 
L 483.512598 493.815086 
L 485.314449 492.014048 
L 487.0982 490.195082 
L 488.863673 488.35837 
L 490.610691 486.504095 
L 492.339079 484.632443 
L 494.048664 482.743601 
L 495.739275 480.837757 
L 497.410744 478.915104 
L 499.062904 476.975832 
L 500.695588 475.020135 
L 502.308634 473.04821 
L 503.90188 471.060253 
L 505.475168 469.056464 
L 507.028339 467.037042 
L 508.561239 465.002189 
L 510.073714 462.95211 
L 511.565612 460.887008 
L 513.036786 458.807091 
L 514.487087 456.712567 
L 515.916371 454.603644 
L 517.324494 452.480535 
L 518.711316 450.34345 
L 520.076699 448.192605 
L 521.420505 446.028213 
L 522.7426 443.850492 
L 524.042853 441.659659 
L 525.321132 439.455933 
L 526.577311 437.239534 
L 527.811263 435.010685 
L 529.022865 432.769608 
L 530.211996 430.516528 
L 531.378538 428.251668 
L 532.522373 425.975257 
L 533.643387 423.687522 
L 534.741468 421.388691 
L 535.816506 419.078994 
L 536.868394 416.758663 
L 537.897026 414.427928 
L 538.9023 412.087025 
L 539.884115 409.736185 
L 540.842373 407.375646 
L 541.776978 405.005641 
L 542.687837 402.62641 
L 543.574858 400.238189 
L 544.437953 397.841217 
L 545.277035 395.435735 
L 546.092021 393.021982 
L 546.88283 390.6002 
L 547.649381 388.170631 
L 548.391599 385.733518 
L 549.109409 383.289105 
L 549.802739 380.837636 
L 550.47152 378.379357 
L 551.115686 375.914512 
L 551.735171 373.44335 
L 552.329914 370.966116 
L 552.899855 368.483059 
L 553.444938 365.994427 
L 553.965108 363.500468 
L 554.460312 361.001432 
L 554.930502 358.49757 
L 555.37563 355.989131 
L 555.795652 353.476366 
L 556.190525 350.959526 
L 556.560211 348.438864 
L 556.904672 345.914631 
L 557.223874 343.387079 
L 557.517785 340.856462 
L 557.786376 338.323033 
L 558.029619 335.787044 
L 558.24749 333.24875 
L 558.439968 330.708404 
L 558.607034 328.16626 
L 558.74867 325.622573 
L 558.864863 323.077596 
L 558.9556 320.531585 
L 559.020873 317.984794 
L 559.060676 315.437477 
L 551.418193 315.35628 
z
" clip-path="url(#p2cfa2db5d6)" style="fill: none; stroke: #000000; stroke-width: 0.5; stroke-linejoin: miter"/>
   </g>
   <g id="patch_22">
    <path d="M 444.885326 515.973795 
L 442.845902 517.369351 
L 440.792625 518.744443 
L 438.725701 520.098933 
L 436.645334 521.432687 
L 434.551735 522.745571 
L 432.445111 524.037454 
L 430.325675 525.308206 
L 428.193637 526.5577 
L 426.04921 527.785812 
L 423.89261 528.992419 
L 421.724052 530.1774 
L 419.543753 531.340636 
L 417.351931 532.482012 
L 415.148805 533.601413 
L 412.934595 534.698726 
L 410.709523 535.773844 
L 408.473811 536.826657 
L 406.227683 537.85706 
L 403.971363 538.864952 
L 401.705078 539.85023 
L 399.429053 540.812796 
L 397.143516 541.752554 
L 394.848696 542.669411 
L 392.544823 543.563273 
L 390.232126 544.434053 
L 387.910838 545.281662 
L 385.581189 546.106017 
L 384.709918 546.407605 
L 387.196475 553.634719 
L 388.094693 553.323803 
L 390.496392 552.473953 
L 392.889473 551.600129 
L 395.273697 550.702418 
L 397.648824 549.78091 
L 400.014617 548.835697 
L 402.370841 547.866874 
L 404.717258 546.874538 
L 407.053635 545.858788 
L 409.379738 544.819724 
L 411.695334 543.757453 
L 414.000191 542.672078 
L 416.29408 541.56371 
L 418.576771 540.432459 
L 420.848035 539.278437 
L 423.107646 538.101762 
L 425.355377 536.902549 
L 427.591003 535.680919 
L 429.814302 534.436995 
L 432.025051 533.1709 
L 434.223028 531.882761 
L 436.408015 530.572707 
L 438.579791 529.240869 
L 440.738141 527.887381 
L 442.882849 526.512377 
L 445.013699 525.115995 
L 447.13048 523.698374 
L 449.232978 522.259658 
L 444.885326 515.973795 
z
" clip-path="url(#p2cfa2db5d6)" style="fill: none; stroke: #000000; stroke-width: 0.5; stroke-linejoin: miter"/>
   </g>
   <g id="patch_23">
    <path d="M 364.037712 552.525601 
L 361.636819 553.110867 
L 359.230193 553.672094 
L 356.818076 554.209227 
L 354.400708 554.722213 
L 351.978331 555.211 
L 349.551187 555.675539 
L 347.119519 556.115784 
L 344.683571 556.53169 
L 342.243585 556.923217 
L 342.22926 556.925442 
L 343.401983 564.47785 
L 343.416751 564.475556 
L 345.9322 564.07192 
L 348.443487 563.643151 
L 350.950361 563.18929 
L 353.452571 562.710384 
L 355.949867 562.20648 
L 358.441999 561.677629 
L 360.928718 561.123883 
L 363.409775 560.545298 
L 365.884923 559.941932 
L 364.037712 552.525601 
z
" clip-path="url(#p2cfa2db5d6)" style="fill: none; stroke: #000000; stroke-width: 0.5; stroke-linejoin: miter"/>
   </g>
   <g id="patch_24">
    <path d="M 320.802016 559.300982 
L 318.335532 559.453558 
L 315.867645 559.581463 
L 313.398603 559.684683 
L 310.928653 559.763207 
L 308.45804 559.817029 
L 305.987013 559.846142 
L 303.515818 559.850544 
L 303.244248 559.84952 
L 303.211248 567.492363 
L 303.491217 567.493418 
L 306.038841 567.48888 
L 308.586292 567.458867 
L 311.133315 567.403381 
L 313.679656 567.322428 
L 316.22506 567.216016 
L 318.769273 567.084155 
L 321.31204 566.92686 
L 320.802016 559.300982 
z
" clip-path="url(#p2cfa2db5d6)" style="fill: none; stroke: #000000; stroke-width: 0.5; stroke-linejoin: miter"/>
   </g>
   <g id="patch_25">
    <path d="M 281.710503 558.816165 
L 279.250822 558.577857 
L 276.793646 558.314965 
L 274.339223 558.027515 
L 271.887796 557.715535 
L 269.439612 557.379057 
L 266.994915 557.018114 
L 264.55395 556.632743 
L 262.11696 556.222981 
L 261.399143 556.097502 
L 260.071965 563.624303 
L 260.811982 563.753664 
L 263.324343 564.176098 
L 265.840802 564.573388 
L 268.361108 564.945494 
L 270.885009 565.292379 
L 273.412253 565.614007 
L 275.942587 565.910348 
L 278.475757 566.181371 
L 281.011511 566.427049 
L 281.710503 558.816165 
z
" clip-path="url(#p2cfa2db5d6)" style="fill: none; stroke: #000000; stroke-width: 0.5; stroke-linejoin: miter"/>
   </g>
   <g id="patch_26">
    <path d="M 240.351641 551.431383 
L 237.967874 550.779863 
L 235.590742 550.104538 
L 233.220481 549.405476 
L 230.85733 548.682747 
L 228.501523 547.936422 
L 226.153298 547.166578 
L 223.812889 546.37329 
L 221.480529 545.556637 
L 219.156452 544.716703 
L 216.84089 543.85357 
L 214.534076 542.967325 
L 212.236239 542.058057 
L 209.94761 541.125856 
L 207.668417 540.170816 
L 205.398888 539.193032 
L 203.13925 538.192602 
L 200.889729 537.169626 
L 198.650551 536.124206 
L 196.421938 535.056447 
L 194.204114 533.966456 
L 191.997301 532.854341 
L 189.801719 531.720215 
L 187.617588 530.564189 
L 185.445126 529.386381 
L 183.284551 528.186907 
L 181.136079 526.965887 
L 178.999923 525.723445 
L 176.876299 524.459703 
L 174.765418 523.174788 
L 172.667492 521.86883 
L 170.58273 520.541957 
L 168.51134 519.194304 
L 166.453531 517.826005 
L 164.409507 516.437196 
L 162.379473 515.028017 
L 160.363633 513.598608 
L 158.362187 512.149113 
L 156.375335 510.679676 
L 154.403278 509.190444 
L 152.44621 507.681566 
L 150.50433 506.153194 
L 148.57783 504.605479 
L 146.666903 503.038578 
L 144.77174 501.452645 
L 142.892531 499.847841 
L 141.029464 498.224325 
L 139.182725 496.58226 
L 137.352498 494.92181 
L 135.538968 493.243141 
L 133.742314 491.546421 
L 131.962717 489.831819 
L 130.200355 488.099508 
L 128.455404 486.34966 
L 126.728038 484.58245 
L 125.018431 482.798055 
L 123.326752 480.996653 
L 121.653172 479.178425 
L 119.997858 477.343553 
L 118.360975 475.492219 
L 116.742686 473.62461 
L 115.143154 471.740911 
L 113.562539 469.841311 
L 112.000999 467.926 
L 110.45869 465.99517 
L 108.935765 464.049014 
L 107.432378 462.087726 
L 105.948679 460.111502 
L 105.149872 459.030241 
L 98.990242 463.554962 
L 99.813754 464.669665 
L 101.343341 466.707009 
L 102.893225 468.728955 
L 104.46325 470.735302 
L 106.05326 472.725848 
L 107.663095 474.700395 
L 109.292595 476.658745 
L 110.941597 478.600703 
L 112.609936 480.526074 
L 114.297444 482.434665 
L 116.003954 484.326286 
L 117.729294 486.200748 
L 119.473293 488.057863 
L 121.235775 489.897445 
L 123.016564 491.719311 
L 124.815483 493.523278 
L 126.632351 495.309166 
L 128.466987 497.076797 
L 130.319207 498.825993 
L 132.188826 500.556579 
L 134.075657 502.268384 
L 135.979512 503.961234 
L 137.9002 505.634962 
L 139.837529 507.2894 
L 141.791305 508.924381 
L 143.761332 510.539744 
L 145.747415 512.135326 
L 147.749354 513.710968 
L 149.766949 515.266511 
L 151.799998 516.801802 
L 153.848299 518.316685 
L 155.911645 519.811011 
L 157.989831 521.284628 
L 160.08265 522.73739 
L 162.189891 524.169151 
L 164.311344 525.579769 
L 166.446797 526.969103 
L 168.596036 528.337012 
L 170.758847 529.683361 
L 172.935012 531.008016 
L 175.124316 532.310842 
L 177.326538 533.591711 
L 179.541458 534.850494 
L 181.768855 536.087065 
L 184.008506 537.301301 
L 186.260188 538.493079 
L 188.523674 539.662282 
L 190.798739 540.808792 
L 193.085155 541.932494 
L 195.382694 543.033277 
L 197.691126 544.111029 
L 200.010219 545.165643 
L 202.339743 546.197015 
L 204.679463 547.205039 
L 207.029147 548.189617 
L 209.388559 549.150649 
L 211.757463 550.088039 
L 214.135622 551.001693 
L 216.522799 551.891521 
L 218.918754 552.757433 
L 221.323249 553.599342 
L 223.736042 554.417165 
L 226.156893 555.210819 
L 228.585559 555.980226 
L 231.021798 556.725308 
L 233.465366 557.44599 
L 235.916018 558.142201 
L 238.37351 558.813872 
L 240.351641 551.431383 
z
" clip-path="url(#p2cfa2db5d6)" style="fill: none; stroke: #000000; stroke-width: 0.5; stroke-linejoin: miter"/>
   </g>
   <g id="patch_27">
    <path d="M 93.156916 441.115471 
L 91.883649 438.997544 
L 90.631625 436.86699 
L 89.400969 434.724023 
L 88.191804 432.568856 
L 87.00425 430.401706 
L 85.838427 428.222789 
L 84.694451 426.032323 
L 83.572437 423.830527 
L 82.472496 421.617621 
L 81.394739 419.393826 
L 80.339274 417.159365 
L 79.306205 414.914461 
L 78.295637 412.659339 
L 77.30767 410.394225 
L 76.342404 408.119344 
L 75.399934 405.834924 
L 74.480355 403.541194 
L 73.583759 401.238383 
L 72.710235 398.926721 
L 71.859871 396.60644 
L 71.032753 394.277771 
L 70.228962 391.940948 
L 69.448578 389.596204 
L 68.691682 387.243773 
L 67.958346 384.883891 
L 67.248646 382.516794 
L 66.562652 380.142718 
L 65.900433 377.761902 
L 65.262054 375.374582 
L 64.64758 372.980998 
L 64.057073 370.581389 
L 63.49059 368.175995 
L 62.94819 365.765056 
L 62.429925 363.348814 
L 61.935849 360.92751 
L 61.46601 358.501387 
L 61.020455 356.070687 
L 60.599229 353.635652 
L 60.202374 351.196528 
L 59.82993 348.753557 
L 59.481933 346.306983 
L 59.15842 343.857052 
L 58.859421 341.404009 
L 58.584967 338.948098 
L 58.335086 336.489565 
L 58.109802 334.028657 
L 57.909139 331.565618 
L 57.733115 329.100697 
L 57.581749 326.634138 
L 57.45887 324.248249 
L 49.824261 324.604455 
L 49.95094 327.064135 
L 50.106987 329.606978 
L 50.288455 332.148135 
L 50.495325 334.687349 
L 50.727576 337.224368 
L 50.985186 339.758938 
L 51.268128 342.290805 
L 51.576374 344.819716 
L 51.909893 347.345418 
L 52.268652 349.867659 
L 52.652615 352.386186 
L 53.061744 354.900747 
L 53.495998 357.411092 
L 53.955333 359.916968 
L 54.439703 362.418126 
L 54.94906 364.914316 
L 55.483353 367.405287 
L 56.042529 369.890791 
L 56.626532 372.370578 
L 57.235302 374.844402 
L 57.868781 377.312015 
L 58.526903 379.773169 
L 59.209603 382.227619 
L 59.916813 384.67512 
L 60.648463 387.115426 
L 61.404479 389.548294 
L 62.184785 391.973481 
L 62.989304 394.390743 
L 63.817954 396.799839 
L 64.670654 399.200528 
L 65.547317 401.592571 
L 66.447857 403.975727 
L 67.372183 406.349759 
L 68.320203 408.714429 
L 69.291821 411.069501 
L 70.286941 413.414739 
L 71.305464 415.749909 
L 72.347287 418.074777 
L 73.412306 420.389111 
L 74.500415 422.692679 
L 75.611504 424.98525 
L 76.745464 427.266597 
L 77.90218 429.53649 
L 79.081536 431.794703 
L 80.283416 434.041009 
L 81.507698 436.275184 
L 82.75426 438.497005 
L 84.022977 440.70625 
L 85.313724 442.902697 
L 86.626369 445.086127 
L 93.156916 441.115471 
z
" clip-path="url(#p2cfa2db5d6)" style="fill: none; stroke: #000000; stroke-width: 0.5; stroke-linejoin: miter"/>
   </g>
   <g id="patch_28">
    <path d="M 57.394417 302.68982 
L 57.507172 300.221195 
L 57.644607 297.753821 
L 57.806709 295.287945 
L 57.993461 292.823813 
L 58.204844 290.361672 
L 58.440838 287.901767 
L 58.701419 285.444346 
L 58.986561 282.989653 
L 59.296235 280.537934 
L 59.63041 278.089434 
L 59.989053 275.644399 
L 60.372128 273.203072 
L 60.779597 270.765698 
L 61.211418 268.33252 
L 61.66755 265.903783 
L 62.147946 263.479728 
L 62.652557 261.060598 
L 63.181335 258.646634 
L 63.734225 256.23808 
L 64.311173 253.835174 
L 64.91212 251.438159 
L 65.537008 249.047272 
L 66.185772 246.662754 
L 66.858349 244.284842 
L 67.554671 241.913775 
L 68.274668 239.54979 
L 69.018269 237.193122 
L 69.785399 234.844009 
L 70.575982 232.502684 
L 71.389937 230.169381 
L 72.227185 227.844335 
L 73.087641 225.527778 
L 73.971219 223.21994 
L 74.877831 220.921054 
L 75.807385 218.631349 
L 76.759791 216.351053 
L 77.734951 214.080396 
L 78.732768 211.819603 
L 79.753143 209.568902 
L 80.795974 207.328516 
L 81.861156 205.098671 
L 82.948583 202.879589 
L 84.058147 200.671492 
L 85.189735 198.4746 
L 86.343235 196.289135 
L 87.518532 194.115313 
L 88.715508 191.953353 
L 89.934043 189.80347 
L 91.174016 187.66588 
L 92.435302 185.540797 
L 93.717776 183.428432 
L 95.021309 181.328998 
L 96.34577 179.242703 
L 97.691029 177.169758 
L 99.056948 175.110368 
L 100.443394 173.06474 
L 101.850226 171.033079 
L 103.277303 169.015588 
L 104.724484 167.012467 
L 106.191624 165.023919 
L 107.678575 163.050141 
L 109.18519 161.091331 
L 110.711316 159.147685 
L 112.256803 157.219397 
L 113.821495 155.306661 
L 115.405236 153.409666 
L 117.007867 151.528604 
L 118.629229 149.663661 
L 120.269158 147.815025 
L 121.927491 145.982881 
L 123.604063 144.167411 
L 125.298706 142.368798 
L 127.011249 140.58722 
L 128.741522 138.822857 
L 130.489352 137.075884 
L 132.254564 135.346477 
L 134.036982 133.634808 
L 135.836427 131.941049 
L 137.652719 130.265368 
L 139.485677 128.607934 
L 141.335118 126.968912 
L 143.200856 125.348466 
L 145.082704 123.746758 
L 146.980476 122.163948 
L 148.89398 120.600195 
L 150.823026 119.055655 
L 152.767421 117.530482 
L 154.72697 116.024829 
L 156.701477 114.538847 
L 158.690745 113.072683 
L 160.694576 111.626486 
L 162.712767 110.200398 
L 164.745119 108.794563 
L 166.791426 107.409122 
L 168.851486 106.044213 
L 170.925092 104.699972 
L 173.012036 103.376535 
L 175.11211 102.074032 
L 177.225103 100.792595 
L 177.361891 100.710632 
L 173.435623 94.153304 
L 173.294604 94.237801 
L 171.11626 95.55887 
L 168.951236 96.901657 
L 166.799747 98.266025 
L 164.662009 99.651841 
L 162.538236 101.058963 
L 160.428641 102.487253 
L 158.333433 103.936567 
L 156.252823 105.406761 
L 154.187019 106.897686 
L 152.136227 108.409195 
L 150.100652 109.941136 
L 148.080499 111.493355 
L 146.075968 113.065698 
L 144.087261 114.658008 
L 142.114576 116.270125 
L 140.15811 117.901887 
L 138.21806 119.553132 
L 136.294619 121.223695 
L 134.387979 122.913409 
L 132.498332 124.622104 
L 130.625866 126.34961 
L 128.770768 128.095753 
L 126.933224 129.86036 
L 125.113418 131.643254 
L 123.311531 133.444257 
L 121.527744 135.263188 
L 119.762235 137.099866 
L 118.015182 138.954107 
L 116.286757 140.825725 
L 114.577135 142.714534 
L 112.886486 144.620344 
L 111.214979 146.542965 
L 109.562782 148.482205 
L 107.93006 150.437869 
L 106.316975 152.409763 
L 104.72369 154.397688 
L 103.150363 156.401447 
L 101.597153 158.420839 
L 100.064213 160.455661 
L 98.551698 162.505711 
L 97.059759 164.570783 
L 95.588545 166.650672 
L 94.138203 168.745168 
L 92.708878 170.854062 
L 91.300713 172.977144 
L 89.913849 175.114202 
L 88.548424 177.265021 
L 87.204576 179.429386 
L 85.882438 181.607082 
L 84.582143 183.797889 
L 83.30382 186.00159 
L 82.047598 188.217964 
L 80.813603 190.446789 
L 79.601956 192.687842 
L 78.412781 194.9409 
L 77.246195 197.205736 
L 76.102316 199.482125 
L 74.981257 201.769838 
L 73.883131 204.068648 
L 72.808048 206.378324 
L 71.756115 208.698634 
L 70.727437 211.029349 
L 69.722117 213.370233 
L 68.740256 215.721053 
L 67.781952 218.081574 
L 66.847301 220.45156 
L 65.936395 222.830773 
L 65.049328 225.218977 
L 64.186186 227.615932 
L 63.347056 230.021398 
L 62.532023 232.435135 
L 61.741167 234.856902 
L 60.974568 237.286456 
L 60.232303 239.723554 
L 59.514445 242.167953 
L 58.821067 244.619408 
L 58.152238 247.077674 
L 57.508024 249.542506 
L 56.88849 252.013656 
L 56.293699 254.490879 
L 55.723709 256.973925 
L 55.178578 259.462546 
L 54.658359 261.956495 
L 54.163106 264.455521 
L 53.692867 266.959374 
L 53.24769 269.467804 
L 52.827619 271.980561 
L 52.432697 274.497393 
L 52.062962 277.018048 
L 51.718451 279.542274 
L 51.3992 282.06982 
L 51.105239 284.600431 
L 50.836599 287.133855 
L 50.593306 289.669839 
L 50.375385 292.208129 
L 50.182857 294.748472 
L 50.015742 297.290612 
L 49.874056 299.834297 
L 49.757814 302.379271 
L 57.394417 302.68982 
z
" clip-path="url(#p2cfa2db5d6)" style="fill: none; stroke: #000000; stroke-width: 0.5; stroke-linejoin: miter"/>
   </g>
   <g id="patch_29">
    <path d="M 196.323757 90.453069 
L 198.551898 89.384326 
L 200.790615 88.337917 
L 203.039684 87.313948 
L 205.298879 86.31252 
L 207.567976 85.333734 
L 209.846747 84.377687 
L 212.134965 83.444475 
L 214.4324 82.534192 
L 216.738823 81.646929 
L 219.054003 80.782773 
L 221.377708 79.941812 
L 223.709707 79.12413 
L 226.049766 78.329809 
L 228.397651 77.558927 
L 230.753128 76.811562 
L 233.11596 76.087789 
L 235.485911 75.38768 
L 237.862746 74.711306 
L 240.246224 74.058733 
L 242.63611 73.430027 
L 245.032163 72.825251 
L 247.434143 72.244465 
L 249.841812 71.687728 
L 252.254927 71.155095 
L 254.673248 70.646619 
L 257.096532 70.162351 
L 259.524538 69.702341 
L 261.957023 69.266632 
L 264.393743 68.85527 
L 266.834455 68.468296 
L 269.278914 68.105747 
L 271.726877 67.767661 
L 274.178098 67.454071 
L 276.632332 67.165008 
L 279.089334 66.900502 
L 281.548858 66.660579 
L 282.773231 66.55039 
L 282.107108 58.93656 
L 280.844867 59.050156 
L 278.309275 59.297499 
L 275.776283 59.570186 
L 273.246145 59.868189 
L 270.719113 60.191478 
L 268.19544 60.54002 
L 265.675379 60.913782 
L 263.159181 61.312724 
L 260.647099 61.736809 
L 258.139383 62.185993 
L 255.636284 62.660231 
L 253.138052 63.159475 
L 250.644938 63.683677 
L 248.15719 64.232784 
L 245.675058 64.806739 
L 243.198789 65.405488 
L 240.728632 66.028968 
L 238.264832 66.677119 
L 235.807638 67.349874 
L 233.357293 68.047168 
L 230.914044 68.768929 
L 228.478135 69.515087 
L 226.049808 70.285566 
L 223.629308 71.08029 
L 221.216876 71.899178 
L 218.812754 72.742149 
L 216.417181 73.609119 
L 214.030397 74.500001 
L 211.652642 75.414706 
L 209.284152 76.353142 
L 206.925165 77.315216 
L 204.575916 78.300831 
L 202.236641 79.309889 
L 199.907574 80.342289 
L 197.588946 81.397927 
L 195.280991 82.476699 
L 192.983938 83.578496 
L 196.323757 90.453069 
z
" clip-path="url(#p2cfa2db5d6)" style="fill: none; stroke: #000000; stroke-width: 0.5; stroke-linejoin: miter"/>
   </g>
   <g id="text_1">
    <text style="font: 10px 'DejaVu Sans', 'Bitstream Vera Sans', 'Computer Modern Sans Serif', 'Lucida Grande', 'Verdana', 'Geneva', 'Lucid', 'Arial', 'Helvetica', 'Avant Garde', sans-serif; text-anchor: middle" x="328.874737" y="44.270638" transform="rotate(-354.772124 328.874737 44.270638)">DG</text>
   </g>
   <g id="text_2">
    <text style="font: 10px 'DejaVu Sans', 'Bitstream Vera Sans', 'Computer Modern Sans Serif', 'Lucida Grande', 'Verdana', 'Geneva', 'Lucid', 'Arial', 'Helvetica', 'Avant Garde', sans-serif; text-anchor: middle" x="401.618235" y="61.323607" transform="rotate(-338.841111 401.618235 61.323607)">CA3</text>
   </g>
   <g id="text_3">
    <text style="font: 10px 'DejaVu Sans', 'Bitstream Vera Sans', 'Computer Modern Sans Serif', 'Lucida Grande', 'Verdana', 'Geneva', 'Lucid', 'Arial', 'Helvetica', 'Avant Garde', sans-serif; text-anchor: middle" x="458.224801" y="91.405586" transform="rotate(-325.184564 458.224801 91.405586)">CA2</text>
   </g>
   <g id="text_4">
    <text style="font: 10px 'DejaVu Sans', 'Bitstream Vera Sans', 'Computer Modern Sans Serif', 'Lucida Grande', 'Verdana', 'Geneva', 'Lucid', 'Arial', 'Helvetica', 'Avant Garde', sans-serif; text-anchor: middle" x="534.661168" y="172.68379" transform="rotate(-301.29858 534.661168 172.68379)">CA1v</text>
   </g>
   <g id="text_5">
    <text style="font: 10px 'DejaVu Sans', 'Bitstream Vera Sans', 'Computer Modern Sans Serif', 'Lucida Grande', 'Verdana', 'Geneva', 'Lucid', 'Arial', 'Helvetica', 'Avant Garde', sans-serif; text-anchor: middle" x="571.66055" y="278.109614" transform="rotate(-277.378648 571.66055 278.109614)">CA1d</text>
   </g>
   <g id="text_6">
    <text style="font: 10px 'DejaVu Sans', 'Bitstream Vera Sans', 'Computer Modern Sans Serif', 'Lucida Grande', 'Verdana', 'Geneva', 'Lucid', 'Arial', 'Helvetica', 'Avant Garde', sans-serif; text-anchor: middle" x="552.676049" y="431.032125" transform="rotate(-64.530592 552.676049 431.032125)">SUBv</text>
   </g>
   <g id="text_7">
    <text style="font: 10px 'DejaVu Sans', 'Bitstream Vera Sans', 'Computer Modern Sans Serif', 'Lucida Grande', 'Verdana', 'Geneva', 'Lucid', 'Arial', 'Helvetica', 'Avant Garde', sans-serif; text-anchor: middle" x="428.46817" y="558.220862" transform="rotate(-26.828079 428.46817 558.220862)">SUBd</text>
   </g>
   <g id="text_8">
    <text style="font: 10px 'DejaVu Sans', 'Bitstream Vera Sans', 'Computer Modern Sans Serif', 'Lucida Grande', 'Verdana', 'Geneva', 'Lucid', 'Arial', 'Helvetica', 'Avant Garde', sans-serif; text-anchor: middle" x="358.71639" y="582.398002" transform="rotate(-11.406274 358.71639 582.398002)">PRE</text>
   </g>
   <g id="text_9">
    <text style="font: 10px 'DejaVu Sans', 'Bitstream Vera Sans', 'Computer Modern Sans Serif', 'Lucida Grande', 'Verdana', 'Geneva', 'Lucid', 'Arial', 'Helvetica', 'Avant Garde', sans-serif; text-anchor: middle" x="312.901716" y="587.697208" transform="rotate(-1.789449 312.901716 587.697208)">POST</text>
   </g>
   <g id="text_10">
    <text style="font: 10px 'DejaVu Sans', 'Bitstream Vera Sans', 'Computer Modern Sans Serif', 'Lucida Grande', 'Verdana', 'Geneva', 'Lucid', 'Arial', 'Helvetica', 'Avant Garde', sans-serif; text-anchor: middle" x="267.814689" y="585.399689" transform="rotate(-352.376307 267.814689 585.399689)">PAR</text>
   </g>
   <g id="text_11">
    <text style="font: 10px 'DejaVu Sans', 'Bitstream Vera Sans', 'Computer Modern Sans Serif', 'Lucida Grande', 'Verdana', 'Geneva', 'Lucid', 'Arial', 'Helvetica', 'Avant Garde', sans-serif; text-anchor: middle" x="149.086986" y="539.855748" transform="rotate(-325.65007 149.086986 539.855748)">LHA</text>
   </g>
   <g id="text_12">
    <text style="font: 10px 'DejaVu Sans', 'Bitstream Vera Sans', 'Computer Modern Sans Serif', 'Lucida Grande', 'Verdana', 'Geneva', 'Lucid', 'Arial', 'Helvetica', 'Avant Garde', sans-serif; text-anchor: middle" x="41.211334" y="393.096932" transform="rotate(-286.985719 41.211334 393.096932)">DHA</text>
   </g>
   <g id="text_13">
    <text style="font: 10px 'DejaVu Sans', 'Bitstream Vera Sans', 'Computer Modern Sans Serif', 'Lucida Grande', 'Verdana', 'Geneva', 'Lucid', 'Arial', 'Helvetica', 'Avant Garde', sans-serif; text-anchor: middle" x="72.531466" y="175.063106" transform="rotate(-59.2914 72.531466 175.063106)">mammillary</text>
   </g>
   <g id="text_14">
    <text style="font: 10px 'DejaVu Sans', 'Bitstream Vera Sans', 'Computer Modern Sans Serif', 'Lucida Grande', 'Verdana', 'Geneva', 'Lucid', 'Arial', 'Helvetica', 'Avant Garde', sans-serif; text-anchor: middle" x="232.469305" y="52.898232" transform="rotate(-15.455752 232.469305 52.898232)">AHA</text>
   </g>
  </g>
 </g>
 <defs>
  <clipPath id="p2cfa2db5d6">
   <path d="M 571.813244 312.730922 
C 571.813244 277.602881 564.893786 242.816415 551.450866 210.362336 
C 538.007946 177.908257 518.302997 148.417716 493.46372 123.578439 
C 468.624444 98.739163 439.133902 79.034213 406.679823 65.591293 
C 374.225744 52.148374 339.439279 45.228916 304.311237 45.228916 
C 269.183195 45.228916 234.39673 52.148374 201.942651 65.591293 
C 169.488572 79.034213 139.998031 98.739163 115.158754 123.578439 
C 90.319478 148.417716 70.614528 177.908257 57.171608 210.362336 
C 43.728689 242.816415 36.80923 277.602881 36.80923 312.730922 
C 36.80923 347.858964 43.728689 382.64543 57.171608 415.099508 
C 70.614528 447.553587 90.319478 477.044129 115.158754 501.883405 
C 139.998031 526.722682 169.488572 546.427632 201.942651 559.870551 
C 234.39673 573.313471 269.183195 580.232929 304.311237 580.232929 
C 339.439279 580.232929 374.225744 573.313471 406.679823 559.870551 
C 439.133902 546.427632 468.624444 526.722682 493.46372 501.883405 
C 518.302997 477.044129 538.007946 447.553587 551.450866 415.099508 
C 564.893786 382.64543 571.813244 347.858964 571.813244 312.730922 
M 304.311237 312.730922 
C 304.311237 312.730922 304.311237 312.730922 304.311237 312.730922 
C 304.311237 312.730922 304.311237 312.730922 304.311237 312.730922 
C 304.311237 312.730922 304.311237 312.730922 304.311237 312.730922 
C 304.311237 312.730922 304.311237 312.730922 304.311237 312.730922 
C 304.311237 312.730922 304.311237 312.730922 304.311237 312.730922 
C 304.311237 312.730922 304.311237 312.730922 304.311237 312.730922 
C 304.311237 312.730922 304.311237 312.730922 304.311237 312.730922 
C 304.311237 312.730922 304.311237 312.730922 304.311237 312.730922 
C 304.311237 312.730922 304.311237 312.730922 304.311237 312.730922 
C 304.311237 312.730922 304.311237 312.730922 304.311237 312.730922 
C 304.311237 312.730922 304.311237 312.730922 304.311237 312.730922 
C 304.311237 312.730922 304.311237 312.730922 304.311237 312.730922 
C 304.311237 312.730922 304.311237 312.730922 304.311237 312.730922 
C 304.311237 312.730922 304.311237 312.730922 304.311237 312.730922 
C 304.311237 312.730922 304.311237 312.730922 304.311237 312.730922 
C 304.311237 312.730922 304.311237 312.730922 304.311237 312.730922 
z
"/>
  </clipPath>
 </defs>
</svg>
