<?xml version="1.0" encoding="utf-8" standalone="no"?>
<!DOCTYPE svg PUBLIC "-//W3C//DTD SVG 1.1//EN"
  "http://www.w3.org/Graphics/SVG/1.1/DTD/svg11.dtd">
<svg xmlns:xlink="http://www.w3.org/1999/xlink" width="626.176306pt" height="626.124084pt" viewBox="0 0 626.176306 626.124084" xmlns="http://www.w3.org/2000/svg" version="1.1">
 <metadata>
  <rdf:RDF xmlns:dc="http://purl.org/dc/elements/1.1/" xmlns:cc="http://creativecommons.org/ns#" xmlns:rdf="http://www.w3.org/1999/02/22-rdf-syntax-ns#">
   <cc:Work>
    <dc:type rdf:resource="http://purl.org/dc/dcmitype/StillImage"/>
    <dc:date>2024-10-28T12:59:34.709679</dc:date>
    <dc:format>image/svg+xml</dc:format>
    <dc:creator>
     <cc:Agent>
      <dc:title>Matplotlib v3.9.2, https://matplotlib.org/</dc:title>
     </cc:Agent>
    </dc:creator>
   </cc:Work>
  </rdf:RDF>
 </metadata>
 <defs>
  <style type="text/css">*{stroke-linejoin: round; stroke-linecap: butt}</style>
 </defs>
 <g id="figure_1">
  <g id="patch_1">
   <path d="M 0 626.124084 
L 626.176306 626.124084 
L 626.176306 0 
L 0 0 
z
" style="fill: #ffffff"/>
  </g>
  <g id="axes_1">
   <g id="patch_2">
    <path d="M 317.734331 65.997618 
L 320.251134 66.010202 
L 322.767685 66.047953 
L 325.283733 66.110867 
L 327.799026 66.198939 
L 330.313312 66.312158 
L 332.826341 66.450514 
L 335.33786 66.613993 
L 337.84762 66.802579 
L 340.355367 67.016252 
L 342.860853 67.254992 
L 345.363826 67.518774 
L 347.864037 67.807573 
L 350.361234 68.121358 
L 352.855168 68.4601 
L 355.345591 68.823763 
L 357.832252 69.212313 
L 360.314904 69.625708 
L 362.793298 70.06391 
L 365.267185 70.526873 
L 367.73632 71.014551 
L 369.901842 71.463438 
L 371.51527 63.848428 
L 369.282773 63.385658 
L 366.737274 62.882896 
L 364.186874 62.405615 
L 361.631829 61.953861 
L 359.072394 61.52768 
L 356.508826 61.127114 
L 353.94138 60.752203 
L 351.370313 60.402985 
L 348.795883 60.079494 
L 346.218347 59.781764 
L 343.637962 59.509823 
L 341.054987 59.2637 
L 338.46968 59.043418 
L 335.8823 58.849 
L 333.293104 58.680465 
L 330.702353 58.53783 
L 328.110305 58.421109 
L 325.517219 58.330313 
L 322.923356 58.265453 
L 320.328973 58.226535 
L 317.734331 58.213561 
z
" clip-path="url(#p7afc0bf320)" style="fill: #1f77b4"/>
   </g>
   <g id="patch_3">
    <path d="M 391.1627 76.947073 
L 393.566339 77.693381 
L 395.962395 78.463688 
L 398.350628 79.257916 
L 400.730799 80.075987 
L 403.102671 80.917818 
L 405.466006 81.783325 
L 407.820568 82.672422 
L 410.166121 83.58502 
L 412.502432 84.521027 
L 414.829265 85.48035 
L 417.146389 86.462893 
L 419.453573 87.468558 
L 421.750584 88.497244 
L 424.037193 89.548849 
L 426.313173 90.623266 
L 428.578295 91.720389 
L 430.832332 92.840109 
L 433.07506 93.982312 
L 435.306253 95.146885 
L 437.52569 96.333711 
L 439.733148 97.542672 
L 441.928405 98.773647 
L 444.111244 100.026512 
L 446.281445 101.301143 
L 448.438791 102.597411 
L 450.583067 103.915188 
L 452.714058 105.254342 
L 454.831552 106.614738 
L 456.935335 107.996241 
L 459.025199 109.398712 
L 461.100934 110.822011 
L 463.162332 112.265996 
L 465.209188 113.730522 
L 467.241296 115.215444 
L 469.258453 116.720612 
L 471.260459 118.245876 
L 473.247112 119.791083 
L 475.218213 121.35608 
L 477.173567 122.940708 
L 479.112976 124.544811 
L 481.036248 126.168228 
L 482.94319 127.810795 
L 484.833611 129.47235 
L 486.707323 131.152725 
L 488.564137 132.851753 
L 490.403868 134.569264 
L 492.226333 136.305086 
L 494.031348 138.059046 
L 495.818734 139.830968 
L 497.588312 141.620675 
L 499.339904 143.427988 
L 501.073336 145.252726 
L 502.788434 147.094707 
L 504.485027 148.953746 
L 506.162945 150.829658 
L 507.822021 152.722256 
L 509.462087 154.631349 
L 511.082981 156.556747 
L 512.684541 158.498257 
L 514.266605 160.455686 
L 515.829017 162.428837 
L 517.371619 164.417514 
L 518.894258 166.421517 
L 520.396781 168.440645 
L 521.879037 170.474698 
L 523.34088 172.523471 
L 524.782162 174.586761 
L 526.202739 176.664359 
L 527.60247 178.756059 
L 528.981214 180.861652 
L 530.338833 182.980926 
L 531.675192 185.113671 
L 532.990158 187.259672 
L 534.283598 189.418716 
L 535.555383 191.590586 
L 536.805386 193.775064 
L 538.033483 195.971934 
L 539.239549 198.180974 
L 540.423465 200.401964 
L 541.585113 202.634682 
L 542.724376 204.878905 
L 543.841139 207.134408 
L 544.935293 209.400966 
L 546.006726 211.678352 
L 547.055333 213.966338 
L 548.081007 216.264695 
L 549.083647 218.573195 
L 550.063152 220.891605 
L 551.019425 223.219694 
L 551.952369 225.557229 
L 552.861892 227.903976 
L 553.747902 230.259702 
L 554.610311 232.624169 
L 555.449032 234.997142 
L 556.263983 237.378384 
L 557.05508 239.767656 
L 557.822246 242.164719 
L 558.565403 244.569334 
L 559.284477 246.98126 
L 559.979396 249.400256 
L 560.650091 251.826081 
L 561.296495 254.258491 
L 561.918542 256.697243 
L 562.516172 259.142093 
L 563.089323 261.592798 
L 563.637939 264.049112 
L 564.161965 266.510788 
L 564.661349 268.977582 
L 565.136039 271.449246 
L 565.58599 273.925534 
L 566.011156 276.406197 
L 566.411495 278.890988 
L 566.497396 279.445733 
L 574.191099 278.263164 
L 574.102541 277.691262 
L 573.689821 275.129622 
L 573.251506 272.572238 
L 572.787639 270.019364 
L 572.298267 267.471257 
L 571.783438 264.92817 
L 571.243205 262.390359 
L 570.677622 259.858077 
L 570.086744 257.331578 
L 569.470631 254.811113 
L 568.829345 252.296935 
L 568.16295 249.789296 
L 567.471512 247.288447 
L 566.7551 244.794636 
L 566.013786 242.308114 
L 565.247645 239.82913 
L 564.456753 237.35793 
L 563.641188 234.894763 
L 562.801033 232.439875 
L 561.936372 229.993511 
L 561.047291 227.555916 
L 560.133878 225.127333 
L 559.196226 222.708006 
L 558.234428 220.298176 
L 557.24858 217.898084 
L 556.238781 215.50797 
L 555.205131 213.128074 
L 554.147735 210.758634 
L 553.066697 208.399885 
L 551.962127 206.052065 
L 550.834133 203.715407 
L 549.682831 201.390146 
L 548.508333 199.076515 
L 547.310758 196.774743 
L 546.090226 194.485062 
L 544.846858 192.207701 
L 543.58078 189.942888 
L 542.292116 187.690848 
L 540.980998 185.451807 
L 539.647555 183.225989 
L 538.29192 181.013616 
L 536.91423 178.81491 
L 535.514622 176.630091 
L 534.093237 174.459377 
L 532.650216 172.302985 
L 531.185703 170.161131 
L 529.699845 168.034029 
L 528.192791 165.921892 
L 526.664691 163.82493 
L 525.115699 161.743354 
L 523.545968 159.677372 
L 521.955657 157.62719 
L 520.344923 155.593013 
L 518.713929 153.575045 
L 517.062837 151.573488 
L 515.391812 149.588542 
L 513.701021 147.620405 
L 511.990634 145.669273 
L 510.260822 143.735343 
L 508.511757 141.818808 
L 506.743615 139.919858 
L 504.956571 138.038685 
L 503.150806 136.175476 
L 501.326499 134.330417 
L 499.483833 132.503694 
L 497.622993 130.695488 
L 495.744163 128.90598 
L 493.847533 127.13535 
L 491.933291 125.383775 
L 490.00163 123.651429 
L 488.052743 121.938487 
L 486.086823 120.245118 
L 484.104069 118.571493 
L 482.104677 116.917779 
L 480.088849 115.284141 
L 478.056785 113.670742 
L 476.00869 112.077745 
L 473.944766 110.505308 
L 471.865223 108.953588 
L 469.770266 107.422741 
L 467.660105 105.91292 
L 465.534952 104.424276 
L 463.39502 102.956957 
L 461.240521 101.511111 
L 459.071672 100.086881 
L 456.888689 98.684411 
L 454.691791 97.30384 
L 452.481197 95.945307 
L 450.257129 94.608948 
L 448.019808 93.294896 
L 445.769459 92.003282 
L 443.506307 90.734236 
L 441.230577 89.487884 
L 438.942498 88.264352 
L 436.642299 87.063761 
L 434.330208 85.886232 
L 432.006458 84.731883 
L 429.671281 83.600828 
L 427.324911 82.493181 
L 424.967581 81.409053 
L 422.599528 80.348552 
L 420.220989 79.311784 
L 417.832201 78.298853 
L 415.433404 77.30986 
L 413.024837 76.344904 
L 410.60674 75.404081 
L 408.179357 74.487486 
L 405.742929 73.595211 
L 403.2977 72.727344 
L 400.843915 71.883972 
L 398.381819 71.06518 
L 395.911659 70.271049 
L 393.433681 69.501659 
z
" clip-path="url(#p7afc0bf320)" style="fill: #ff7f0e"/>
   </g>
   <g id="patch_4">
    <path d="M 568.883297 301.272363 
L 569.034835 303.784632 
L 569.161242 306.29829 
L 569.262507 308.813086 
L 569.33862 311.328769 
L 569.389572 313.845088 
L 569.415359 316.36179 
L 569.415978 318.878625 
L 569.391429 321.395339 
L 569.341714 323.911683 
L 569.266839 326.427403 
L 569.166811 328.942249 
L 569.04164 331.455969 
L 568.891339 333.968311 
L 568.715922 336.479025 
L 568.515407 338.98786 
L 568.289814 341.494563 
L 568.039166 343.998886 
L 567.763487 346.500576 
L 567.462806 348.999385 
L 567.137152 351.495063 
L 566.786558 353.987359 
L 566.411059 356.476024 
L 566.010693 358.96081 
L 565.585499 361.441469 
L 565.13552 363.917751 
L 564.660801 366.38941 
L 564.16139 368.856198 
L 563.637337 371.317869 
L 563.088693 373.774176 
L 562.515514 376.224875 
L 561.917857 378.669719 
L 561.295782 381.108464 
L 560.649351 383.540866 
L 559.978629 385.966683 
L 559.283683 388.385672 
L 558.564581 390.79759 
L 557.821397 393.202196 
L 557.054205 395.599251 
L 556.26308 397.988514 
L 555.448103 400.369747 
L 554.609355 402.74271 
L 553.74692 405.107168 
L 552.860883 407.462883 
L 551.951334 409.809621 
L 551.018364 412.147145 
L 550.062065 414.475224 
L 549.082534 416.793623 
L 548.079868 419.102111 
L 547.054167 421.400457 
L 546.005535 423.688431 
L 544.934076 425.965805 
L 543.839898 428.23235 
L 542.723108 430.487841 
L 541.583821 432.732051 
L 540.422148 434.964756 
L 539.238207 437.185733 
L 538.032115 439.394759 
L 536.803994 441.591615 
L 535.553966 443.77608 
L 534.282157 445.947935 
L 532.988693 448.106964 
L 531.673703 450.252951 
L 530.33732 452.38568 
L 528.979677 454.50494 
L 527.600909 456.610517 
L 526.201155 458.702201 
L 524.780554 460.779784 
L 523.339249 462.843057 
L 521.877384 464.891814 
L 520.395104 466.92585 
L 518.892559 468.944961 
L 517.369897 470.948947 
L 515.827273 472.937606 
L 514.264839 474.91074 
L 512.682753 476.868151 
L 511.081172 478.809643 
L 509.460256 480.735023 
L 507.820168 482.644098 
L 506.161071 484.536677 
L 504.483132 486.41257 
L 502.786518 488.27159 
L 501.071399 490.113552 
L 499.337947 491.938271 
L 497.586334 493.745564 
L 495.816736 495.535251 
L 494.02933 497.307153 
L 492.224295 499.061092 
L 490.401811 500.796894 
L 488.562061 502.514384 
L 486.705227 504.213391 
L 484.831497 505.893746 
L 482.941057 507.555279 
L 481.034097 509.197825 
L 479.110807 510.82122 
L 477.171379 512.425301 
L 475.216008 514.009908 
L 473.244889 515.574882 
L 471.258218 517.120067 
L 469.256196 518.645309 
L 467.239021 520.150454 
L 465.206897 521.635353 
L 463.160025 523.099856 
L 461.09861 524.543818 
L 459.022859 525.967094 
L 456.93298 527.369541 
L 454.829181 528.75102 
L 452.711672 530.111393 
L 450.580666 531.450522 
L 448.436375 532.768275 
L 446.279014 534.06452 
L 444.108799 535.339126 
L 441.925946 536.591967 
L 439.730675 537.822917 
L 437.523204 539.031853 
L 435.303754 540.218654 
L 433.072547 541.383202 
L 430.829806 542.52538 
L 428.575756 543.645074 
L 426.310622 544.742172 
L 424.034631 545.816564 
L 421.748009 546.868142 
L 419.450987 547.896803 
L 417.143792 548.902442 
L 414.826657 549.884959 
L 412.499813 550.844256 
L 410.163492 551.780237 
L 407.817928 552.692808 
L 405.463356 553.581879 
L 403.100011 554.44736 
L 400.72813 555.289164 
L 398.347949 556.107208 
L 395.959707 556.901409 
L 393.563643 557.671689 
L 391.159996 558.41797 
L 388.749006 559.140178 
L 386.330915 559.83824 
L 383.905964 560.512087 
L 381.474396 561.161651 
L 379.036455 561.786867 
L 376.592383 562.387673 
L 374.142425 562.964008 
L 371.686826 563.515816 
L 369.225833 564.04304 
L 366.75969 564.545629 
L 364.288645 565.023531 
L 361.812944 565.4767 
L 359.332835 565.905089 
L 356.848567 566.308656 
L 354.360387 566.687361 
L 351.868545 567.041165 
L 349.373289 567.370033 
L 346.87487 567.673933 
L 344.373536 567.952834 
L 341.869539 568.206709 
L 339.363128 568.435531 
L 336.854554 568.639277 
L 334.344068 568.817929 
L 331.831921 568.971467 
L 329.318365 569.099876 
L 328.815189 569.122555 
L 329.157896 576.899064 
L 329.676634 576.875683 
L 332.267929 576.743302 
L 334.857771 576.585016 
L 337.445901 576.400839 
L 340.03206 576.190791 
L 342.615988 575.954892 
L 345.197429 575.693166 
L 347.776124 575.405639 
L 350.351814 575.09234 
L 352.924242 574.753301 
L 355.493152 574.388554 
L 358.058286 573.998137 
L 360.619387 573.582088 
L 363.1762 573.14045 
L 365.728469 572.673266 
L 368.275938 572.180583 
L 370.818353 571.662451 
L 373.35546 571.11892 
L 375.887005 570.550047 
L 378.412735 569.955886 
L 380.932397 569.336499 
L 383.445739 568.691946 
L 385.95251 568.022292 
L 388.452459 567.327605 
L 390.945336 566.607953 
L 393.430893 565.863409 
L 395.90888 565.094047 
L 398.379049 564.299945 
L 400.841154 563.48118 
L 403.294949 562.637836 
L 405.740187 561.769996 
L 408.176625 560.877748 
L 410.604019 559.96118 
L 413.022126 559.020385 
L 415.430704 558.055456 
L 417.829512 557.06649 
L 420.218312 556.053586 
L 422.596862 555.016845 
L 424.964927 553.95637 
L 427.322269 552.872269 
L 429.668652 551.764648 
L 432.003842 550.633619 
L 434.327605 549.479296 
L 436.639708 548.301793 
L 438.939921 547.101228 
L 441.228014 545.877721 
L 443.503758 544.631396 
L 445.766924 543.362375 
L 448.017288 542.070786 
L 450.254623 540.756759 
L 452.478706 539.420425 
L 454.689315 538.061917 
L 456.886229 536.681371 
L 459.069227 535.278925 
L 461.238093 533.85472 
L 463.392608 532.408898 
L 465.532557 530.941603 
L 467.657726 529.452982 
L 469.767904 527.943185 
L 471.862878 526.412361 
L 473.942439 524.860665 
L 476.00638 523.288251 
L 478.054494 521.695277 
L 480.086575 520.081902 
L 482.102422 518.448286 
L 484.101832 516.794595 
L 486.084605 515.120992 
L 488.050544 513.427645 
L 489.999451 511.714724 
L 491.931131 509.9824 
L 493.845392 508.230846 
L 495.742043 506.460238 
L 497.620892 504.670751 
L 499.481753 502.862566 
L 501.32444 501.035863 
L 503.148767 499.190825 
L 504.954553 497.327637 
L 506.741618 495.446483 
L 508.509782 493.547554 
L 510.258868 491.631038 
L 511.988702 489.697127 
L 513.699111 487.746015 
L 515.389924 485.777897 
L 517.060971 483.792969 
L 518.712085 481.791431 
L 520.343102 479.773481 
L 521.953859 477.739323 
L 523.544193 475.689159 
L 525.113947 473.623194 
L 526.662963 471.541635 
L 528.191086 469.444691 
L 529.698164 467.33257 
L 531.184046 465.205485 
L 532.648582 463.063647 
L 534.091628 460.907272 
L 535.513038 458.736573 
L 536.91267 456.55177 
L 538.290385 454.35308 
L 539.646044 452.140722 
L 540.979512 449.914919 
L 542.290656 447.675893 
L 543.579345 445.423868 
L 544.845449 443.159068 
L 546.088842 440.881721 
L 547.3094 438.592054 
L 548.507001 436.290296 
L 549.681524 433.976678 
L 550.832853 431.65143 
L 551.960873 429.314785 
L 553.06547 426.966977 
L 554.146534 424.608241 
L 555.203957 422.238812 
L 556.237633 419.858927 
L 557.247459 417.468825 
L 558.233334 415.068744 
L 559.195159 412.658925 
L 560.132838 410.239608 
L 561.046278 407.811036 
L 561.935387 405.373451 
L 562.800076 402.927096 
L 563.640258 400.472217 
L 564.45585 398.00906 
L 565.246771 395.537869 
L 566.01294 393.058893 
L 566.754281 390.57238 
L 567.470721 388.078577 
L 568.162187 385.577735 
L 568.828611 383.070104 
L 569.469925 380.555933 
L 570.086066 378.035476 
L 570.676972 375.508983 
L 571.242584 372.976707 
L 571.782846 370.438902 
L 572.297703 367.895821 
L 572.787103 365.34772 
L 573.250999 362.794851 
L 573.689343 360.237471 
L 574.102092 357.675836 
L 574.489204 355.110202 
L 574.850641 352.540824 
L 575.186367 349.967961 
L 575.496348 347.391869 
L 575.780552 344.812807 
L 576.038953 342.231031 
L 576.271523 339.6468 
L 576.478239 337.060373 
L 576.659081 334.472008 
L 576.814031 331.881965 
L 576.943074 329.290501 
L 577.046195 326.697876 
L 577.123386 324.10435 
L 577.174638 321.510181 
L 577.199946 318.91563 
L 577.199308 316.320956 
L 577.172724 313.726417 
L 577.120196 311.132274 
L 577.041729 308.538786 
L 576.937332 305.946213 
L 576.807015 303.354813 
L 576.650791 300.764845 
z
" clip-path="url(#p7afc0bf320)" style="fill: #2ca02c"/>
   </g>
   <g id="patch_5">
    <path d="M 306.858544 569.131509 
L 304.344636 569.01018 
L 301.832067 568.863719 
L 299.321087 568.69214 
L 296.81195 568.49546 
L 294.304904 568.2737 
L 291.800201 568.02688 
L 289.298092 567.755026 
L 286.798826 567.458164 
L 284.302654 567.136326 
L 281.809825 566.789542 
L 279.320589 566.417848 
L 276.835193 566.02128 
L 274.353888 565.599879 
L 271.876921 565.153686 
L 269.404539 564.682746 
L 266.93699 564.187106 
L 264.474521 563.666816 
L 262.017378 563.121928 
L 259.565807 562.552495 
L 257.120052 561.958576 
L 254.680359 561.34023 
L 252.246971 560.697518 
L 249.820131 560.030505 
L 247.400084 559.339257 
L 244.987069 558.623843 
L 242.581329 557.884336 
L 240.183105 557.120808 
L 237.792635 556.333337 
L 235.41016 555.522001 
L 233.035916 554.686881 
L 230.670143 553.828061 
L 228.313076 552.945626 
L 225.964951 552.039666 
L 223.626003 551.110269 
L 221.296466 550.15753 
L 218.976572 549.181544 
L 216.666554 548.182408 
L 214.366643 547.160222 
L 212.077069 546.115089 
L 209.79806 545.047112 
L 207.529844 543.956399 
L 205.272649 542.843059 
L 203.0267 541.707203 
L 200.792222 540.548945 
L 198.569438 539.3684 
L 196.35857 538.165687 
L 194.15984 536.940925 
L 191.973467 535.694238 
L 189.79967 534.42575 
L 187.638666 533.135588 
L 185.490672 531.82388 
L 183.355902 530.490759 
L 181.23457 529.136356 
L 179.126888 527.760809 
L 177.033066 526.364254 
L 174.953314 524.94683 
L 172.887841 523.508681 
L 170.836852 522.049949 
L 168.800552 520.57078 
L 166.779146 519.071323 
L 164.772835 517.551727 
L 162.78182 516.012144 
L 161.523356 515.022462 
L 156.692089 521.125771 
L 157.989474 522.146063 
L 160.042067 523.733261 
L 162.110429 525.299855 
L 164.194353 526.845688 
L 166.293631 528.370604 
L 168.408052 529.874451 
L 170.537407 531.35708 
L 172.681481 532.818341 
L 174.84006 534.258088 
L 177.012928 535.676178 
L 179.199868 537.072469 
L 181.400662 538.446821 
L 183.615089 539.799097 
L 185.842928 541.129162 
L 188.083956 542.436881 
L 190.337948 543.722126 
L 192.604681 544.984767 
L 194.883926 546.224677 
L 197.175456 547.441734 
L 199.479042 548.635814 
L 201.794453 549.8068 
L 204.121458 550.954573 
L 206.459824 552.07902 
L 208.809318 553.180026 
L 211.169704 554.257484 
L 213.540747 555.311283 
L 215.922209 556.34132 
L 218.313851 557.347492 
L 220.715436 558.329697 
L 223.126723 559.287837 
L 225.54747 560.221818 
L 227.977436 561.131544 
L 230.416378 562.016926 
L 232.864051 562.877874 
L 235.320211 563.714303 
L 237.784613 564.526129 
L 240.25701 565.313271 
L 242.737154 566.075649 
L 245.224798 566.813189 
L 247.719692 567.525816 
L 250.221588 568.213458 
L 252.730236 568.876048 
L 255.245383 569.513519 
L 257.76678 570.125806 
L 260.294173 570.71285 
L 262.82731 571.27459 
L 265.365938 571.810972 
L 267.909803 572.321941 
L 270.45865 572.807446 
L 273.012225 573.267439 
L 275.570271 573.701873 
L 278.132535 574.110706 
L 280.698758 574.493896 
L 283.268685 574.851405 
L 285.842058 575.183197 
L 288.418621 575.48924 
L 290.998115 575.769502 
L 293.580283 576.023955 
L 296.164866 576.252574 
L 298.751606 576.455337 
L 301.340244 576.632223 
L 303.930522 576.783213 
L 306.52218 576.908294 
z
" clip-path="url(#p7afc0bf320)" style="fill: #9467bd"/>
   </g>
   <g id="patch_6">
    <path d="M 144.918441 500.656838 
L 143.097365 498.91956 
L 141.293752 497.164157 
L 139.507784 495.390807 
L 137.739638 493.599686 
L 135.989491 491.790973 
L 134.257519 489.96485 
L 132.543894 488.121498 
L 130.848788 486.261103 
L 129.17237 484.383849 
L 127.514808 482.489926 
L 125.876268 480.579522 
L 124.256914 478.652829 
L 122.656908 476.710039 
L 121.076409 474.751346 
L 119.515575 472.776946 
L 117.974564 470.787037 
L 116.453528 468.781817 
L 114.95262 466.761488 
L 113.47199 464.72625 
L 112.011786 462.676309 
L 110.572154 460.611868 
L 109.153239 458.533134 
L 107.755181 456.440316 
L 106.378121 454.333621 
L 105.022196 452.213262 
L 103.687543 450.07945 
L 102.374293 447.932398 
L 101.08258 445.772321 
L 99.812532 443.599435 
L 98.564276 441.413957 
L 97.337936 439.216107 
L 96.133636 437.006103 
L 94.951496 434.784167 
L 93.791634 432.55052 
L 92.654166 430.305387 
L 91.539206 428.048992 
L 90.446865 425.78156 
L 89.377253 423.503319 
L 88.330476 421.214495 
L 87.30664 418.915318 
L 86.305846 416.606018 
L 85.328195 414.286825 
L 84.373784 411.957973 
L 83.442709 409.619692 
L 82.535063 407.272218 
L 81.650936 404.915785 
L 80.790418 402.550629 
L 79.953594 400.176986 
L 79.140548 397.795094 
L 78.351361 395.40519 
L 77.586113 393.007514 
L 76.844878 390.602306 
L 76.127733 388.189805 
L 75.434748 385.770254 
L 74.765993 383.343894 
L 74.121534 380.910969 
L 73.501437 378.47172 
L 72.905762 376.026392 
L 72.33457 373.57523 
L 71.787918 371.118479 
L 71.265861 368.656384 
L 70.76845 366.189191 
L 70.295735 363.717148 
L 69.847764 361.240502 
L 69.424582 358.7595 
L 69.02623 356.27439 
L 68.652749 353.785421 
L 68.304176 351.292841 
L 67.980546 348.796901 
L 67.681891 346.297849 
L 67.408241 343.795935 
L 67.159623 341.29141 
L 66.936062 338.784525 
L 66.737582 336.275529 
L 66.5642 333.764673 
L 66.415936 331.25221 
L 66.292803 328.738389 
L 66.194814 326.223463 
L 66.121979 323.707683 
L 66.074304 321.1913 
L 66.051796 318.674566 
L 66.054456 316.157733 
L 66.082283 313.641052 
L 66.135275 311.124776 
L 66.213427 308.609155 
L 66.316731 306.094442 
L 66.445177 303.580887 
L 66.598751 301.068742 
L 66.777439 298.558259 
L 66.981222 296.049688 
L 67.21008 293.543281 
L 67.46399 291.039287 
L 67.742927 288.537957 
L 68.046864 286.039542 
L 68.375768 283.544291 
L 68.729609 281.052454 
L 69.108349 278.56428 
L 69.511952 276.080017 
L 69.940377 273.599915 
L 70.393581 271.124221 
L 70.871519 268.653182 
L 71.374144 266.187047 
L 71.901403 263.726061 
L 72.453247 261.27047 
L 73.029617 258.820521 
L 73.630459 256.376457 
L 74.25571 253.938525 
L 74.905309 251.506966 
L 75.579191 249.082025 
L 76.277288 246.663944 
L 76.99953 244.252965 
L 77.745846 241.849328 
L 78.516161 239.453275 
L 79.310397 237.065045 
L 80.128475 234.684876 
L 80.970314 232.313007 
L 81.835829 229.949674 
L 82.724933 227.595115 
L 83.637539 225.249565 
L 84.573553 222.913258 
L 85.532884 220.586427 
L 86.515435 218.269306 
L 87.521107 215.962126 
L 88.549801 213.665118 
L 89.601412 211.378512 
L 90.675837 209.102536 
L 91.772967 206.837418 
L 92.892694 204.583384 
L 94.034904 202.34066 
L 95.199484 200.10947 
L 96.386318 197.890037 
L 97.595286 195.682584 
L 98.826268 193.48733 
L 100.07914 191.304495 
L 101.353778 189.134299 
L 102.650053 186.976956 
L 103.967837 184.832685 
L 105.306998 182.701698 
L 106.667401 180.584209 
L 108.04891 178.48043 
L 109.451388 176.39057 
L 110.874694 174.31484 
L 112.318685 172.253447 
L 113.108599 171.144082 
L 106.779968 166.611978 
L 105.965624 167.755653 
L 104.476973 169.880801 
L 103.009647 172.020729 
L 101.563794 174.175223 
L 100.139557 176.344068 
L 98.73708 178.527046 
L 97.356503 180.72394 
L 95.997962 182.934529 
L 94.661596 185.158593 
L 93.347536 187.395909 
L 92.055915 189.646254 
L 90.786862 191.909402 
L 89.540503 194.185128 
L 88.316963 196.473203 
L 87.116365 198.773399 
L 85.938829 201.085485 
L 84.784472 203.409232 
L 83.653409 205.744405 
L 82.545755 208.090772 
L 81.461619 210.448098 
L 80.40111 212.816147 
L 79.364335 215.194683 
L 78.351396 217.583468 
L 77.362395 219.982262 
L 76.397432 222.390826 
L 75.456602 224.80892 
L 74.539999 227.2363 
L 73.647715 229.672725 
L 72.779841 232.117951 
L 71.936461 234.571733 
L 71.117661 237.033827 
L 70.323522 239.503985 
L 69.554124 241.98196 
L 68.809544 244.467506 
L 68.089857 246.960373 
L 67.395133 249.460312 
L 66.725443 251.967074 
L 66.080854 254.480406 
L 65.46143 257.000059 
L 64.867234 259.52578 
L 64.298323 262.057317 
L 63.754756 264.594416 
L 63.236587 267.136824 
L 62.743867 269.684286 
L 62.276647 272.236548 
L 61.834971 274.793354 
L 61.418886 277.35445 
L 61.028432 279.919578 
L 60.663648 282.488482 
L 60.324571 285.060906 
L 60.011235 287.636592 
L 59.72367 290.215282 
L 59.461907 292.796719 
L 59.225971 295.380644 
L 59.015885 297.9668 
L 58.831671 300.554927 
L 58.673347 303.144767 
L 58.540929 305.73606 
L 58.43443 308.328548 
L 58.353861 310.921972 
L 58.29923 313.516071 
L 58.270542 316.110587 
L 58.2678 318.705261 
L 58.291005 321.299831 
L 58.340153 323.894041 
L 58.415241 326.487629 
L 58.516261 329.080336 
L 58.643202 331.671904 
L 58.796052 334.262072 
L 58.974796 336.850583 
L 59.179415 339.437177 
L 59.40989 342.021595 
L 59.666197 344.603579 
L 59.94831 347.182872 
L 60.256202 349.759214 
L 60.589842 352.332348 
L 60.949195 354.902018 
L 61.334227 357.467965 
L 61.744899 360.029934 
L 62.18117 362.587669 
L 62.642995 365.140913 
L 63.13033 367.68941 
L 63.643125 370.232908 
L 64.181328 372.77115 
L 64.744887 375.303883 
L 65.333745 377.830854 
L 65.947842 380.351811 
L 66.587118 382.8665 
L 67.251508 385.374671 
L 67.940946 387.876073 
L 68.655364 390.370456 
L 69.394689 392.857569 
L 70.158848 395.337166 
L 70.947764 397.808997 
L 71.761359 400.272815 
L 72.599551 402.728374 
L 73.462256 405.175429 
L 74.349388 407.613734 
L 75.260859 410.043046 
L 76.196576 412.463123 
L 77.156447 414.873721 
L 78.140376 417.2746 
L 79.148264 419.66552 
L 80.18001 422.046242 
L 81.235512 424.416527 
L 82.314663 426.77614 
L 83.417356 429.124842 
L 84.543481 431.462401 
L 85.692924 433.788582 
L 86.865571 436.103152 
L 88.061305 438.40588 
L 89.280006 440.696536 
L 90.521553 442.97489 
L 91.78582 445.240715 
L 93.072682 447.493785 
L 94.382011 449.733874 
L 95.713674 451.960757 
L 97.067539 454.174213 
L 98.44347 456.374019 
L 99.841331 458.559957 
L 101.26098 460.731807 
L 102.702277 462.889352 
L 104.165077 465.032376 
L 105.649233 467.160666 
L 107.154598 469.274007 
L 108.681021 471.37219 
L 110.228348 473.455004 
L 111.796427 475.52224 
L 113.385098 477.573693 
L 114.994205 479.609157 
L 116.623585 481.628428 
L 118.273077 483.631305 
L 119.942514 485.617587 
L 121.63173 487.587075 
L 123.340557 489.539573 
L 125.068822 491.474886 
L 126.816354 493.392819 
L 128.582978 495.293182 
L 130.368517 497.175783 
L 132.172792 499.040436 
L 133.995623 500.886952 
L 135.836827 502.715149 
L 137.696222 504.524842 
L 139.57362 506.315851 
z
" clip-path="url(#p7afc0bf320)" style="fill: #8c564b"/>
   </g>
   <g id="patch_7">
    <path d="M 126.658893 153.867396 
L 128.306566 151.964864 
L 129.973182 150.078904 
L 131.658574 148.209704 
L 133.362574 146.357451 
L 135.08501 144.52233 
L 136.825712 142.704525 
L 138.584504 140.904218 
L 140.361211 139.121589 
L 142.155655 137.356815 
L 143.967656 135.610074 
L 145.797035 133.881539 
L 147.643607 132.171385 
L 149.507187 130.479782 
L 151.387591 128.806898 
L 153.284629 127.152902 
L 154.543833 126.073277 
L 149.496704 120.14723 
L 148.198555 121.260246 
L 146.242846 122.965397 
L 144.304286 124.690019 
L 142.383069 126.43394 
L 140.479386 128.196986 
L 138.593429 129.97898 
L 136.725386 131.779744 
L 134.875444 133.599098 
L 133.043787 135.436861 
L 131.2306 137.292848 
L 129.436062 139.166873 
L 127.660355 141.05875 
L 125.903654 142.968289 
L 124.166136 144.8953 
L 122.447975 146.839589 
L 120.749343 148.800962 
z
" clip-path="url(#p7afc0bf320)" style="fill: #7f7f7f"/>
   </g>
   <g id="patch_8">
    <path d="M 171.864632 112.579417 
L 173.922918 111.130999 
L 175.995586 109.703237 
L 178.082427 108.296272 
L 180.183233 106.910245 
L 182.297794 105.545296 
L 184.425898 104.20156 
L 186.567333 102.879171 
L 188.353647 101.798525 
L 184.352183 95.121713 
L 182.510622 96.235782 
L 180.302957 97.599068 
L 178.109035 98.984363 
L 175.929075 100.391528 
L 173.763295 101.820421 
L 171.611913 103.270901 
L 169.475143 104.742821 
L 167.353198 106.236035 
z
" clip-path="url(#p7afc0bf320)" style="fill: #bcbd22"/>
   </g>
   <g id="patch_9">
    <path d="M 207.661474 91.343758 
L 209.930323 90.254364 
L 212.209953 89.187713 
L 214.500135 88.143912 
L 216.80064 87.123064 
L 219.111239 86.125272 
L 221.4317 85.150635 
L 223.761791 84.199251 
L 226.101279 83.271216 
L 228.449931 82.366621 
L 230.80751 81.485557 
L 233.173783 80.628113 
L 235.548511 79.794375 
L 237.931458 78.984424 
L 240.322385 78.198344 
L 242.721054 77.436211 
L 245.127223 76.698103 
L 247.540654 75.984093 
L 249.961103 75.294253 
L 252.38833 74.628651 
L 254.822091 73.987355 
L 257.262144 73.370427 
L 259.708243 72.777931 
L 262.160146 72.209925 
L 264.617605 71.666466 
L 267.080377 71.147608 
L 269.548213 70.653404 
L 272.020868 70.183902 
L 274.498095 69.73915 
L 276.979645 69.319192 
L 279.46527 68.92407 
L 281.954723 68.553823 
L 284.447753 68.208489 
L 286.944112 67.888103 
L 289.44355 67.592695 
L 291.945817 67.322297 
L 294.450663 67.076934 
L 295.798582 66.955353 
L 295.120157 59.200918 
L 293.730549 59.326258 
L 291.148234 59.57921 
L 288.568577 59.857971 
L 285.991837 60.162515 
L 283.418271 60.49281 
L 280.848137 60.848825 
L 278.281691 61.230522 
L 275.719191 61.637864 
L 273.160892 62.070811 
L 270.60705 62.529318 
L 268.057921 63.013341 
L 265.513759 63.52283 
L 262.97482 64.057735 
L 260.441356 64.618002 
L 257.913622 65.203575 
L 255.39187 65.814396 
L 252.876352 66.450404 
L 250.36732 67.111534 
L 247.865024 67.797721 
L 245.369715 68.508897 
L 242.881643 69.24499 
L 240.401056 70.005926 
L 237.928202 70.791629 
L 235.463328 71.602022 
L 233.006682 72.437022 
L 230.558508 73.296546 
L 228.119052 74.180509 
L 225.688557 75.088822 
L 223.267267 76.021394 
L 220.855424 76.978132 
L 218.453268 77.95894 
L 216.06104 78.96372 
L 213.67898 79.992372 
L 211.307325 81.044792 
L 208.946312 82.120876 
L 206.596179 83.220516 
L 204.257159 84.343602 
z
" clip-path="url(#p7afc0bf320)" style="fill: #17becf"/>
   </g>
   <g id="PatchCollection_1">
    <path d="M 144.918441 500.656838 
L 144.918441 500.656838 
L 143.097365 498.91956 
L 141.293752 497.164157 
L 139.507784 495.390807 
L 137.739638 493.599686 
L 135.989491 491.790973 
L 134.257519 489.96485 
L 132.543894 488.121498 
L 131.136462 486.57947 
L 131.136462 486.57947 
Q 317.734331 317.682109 568.883297 301.272363 
L 568.883297 301.272363 
L 568.883297 301.272363 
L 569.034835 303.784632 
L 569.161242 306.29829 
L 569.262507 308.813086 
L 569.33862 311.328769 
L 569.389572 313.845088 
L 569.415359 316.36179 
L 569.415978 318.878625 
L 569.397394 320.966295 
L 569.397394 320.966295 
Q 317.734331 317.682109 144.918441 500.656838 
z
" clip-path="url(#p7afc0bf320)" style="fill: #8c564b; fill-opacity: 0.5; stroke: #808080; stroke-opacity: 0.5; stroke-width: 0.1"/>
    <path d="M 131.136462 486.57947 
L 131.136462 486.57947 
L 129.456846 484.705078 
L 127.796058 482.813984 
L 126.154264 480.906376 
L 124.531627 478.982446 
L 122.928311 477.042386 
L 121.344475 475.086391 
L 119.780278 473.114655 
L 118.235876 471.127375 
L 116.711424 469.124752 
L 115.207073 467.106984 
L 113.722976 465.074274 
L 112.259279 463.026825 
L 110.81613 460.964842 
L 109.393672 458.88853 
L 107.992049 456.798098 
L 106.611399 454.693755 
L 105.251861 452.57571 
L 103.913572 450.444176 
L 102.596664 448.299366 
L 101.30127 446.141494 
L 100.180861 444.234751 
L 100.180861 444.234751 
Q 317.734331 317.682109 391.1627 76.947073 
L 391.1627 76.947073 
L 391.1627 76.947073 
L 393.566339 77.693381 
L 395.962395 78.463688 
L 398.350628 79.257916 
L 400.730799 80.075987 
L 403.102671 80.917818 
L 405.466006 81.783325 
L 407.820568 82.672422 
L 410.166121 83.58502 
L 412.502432 84.521027 
L 414.829265 85.48035 
L 417.146389 86.462893 
L 419.453573 87.468558 
L 421.750584 88.497244 
L 424.037193 89.548849 
L 426.313173 90.623266 
L 428.578295 91.720389 
L 430.832332 92.840109 
L 433.07506 93.982312 
L 435.306253 95.146885 
L 437.52569 96.333711 
L 439.46604 97.394856 
L 439.46604 97.394856 
Q 317.734331 317.682109 131.136462 486.57947 
z
" clip-path="url(#p7afc0bf320)" style="fill: #8c564b; fill-opacity: 0.5; stroke: #808080; stroke-opacity: 0.5; stroke-width: 0.1"/>
    <path d="M 306.858544 569.131509 
L 306.858544 569.131509 
L 304.344636 569.01018 
L 301.832067 568.863719 
L 299.321087 568.69214 
L 296.81195 568.49546 
L 294.304904 568.2737 
L 291.800201 568.02688 
L 289.298092 567.755026 
L 286.798826 567.458164 
L 284.302654 567.136326 
L 281.809825 566.789542 
L 279.320589 566.417848 
L 276.835193 566.02128 
L 274.353888 565.599879 
L 271.876921 565.153686 
L 269.404539 564.682746 
L 267.777795 564.358877 
L 267.777795 564.358877 
Q 317.734331 317.682109 569.397394 320.966295 
L 569.397394 320.966295 
L 569.397394 320.966295 
L 569.351969 323.482719 
L 569.281383 325.998564 
L 569.185643 328.513577 
L 569.064758 331.027506 
L 568.918739 333.540101 
L 568.747603 336.051111 
L 568.551366 338.560283 
L 568.330047 341.067368 
L 568.083668 343.572114 
L 567.812255 346.074271 
L 567.515834 348.573589 
L 567.194436 351.069818 
L 566.848091 353.562708 
L 566.476836 356.05201 
L 566.080706 358.537475 
L 565.806066 360.17325 
L 565.806066 360.17325 
Q 317.734331 317.682109 306.858544 569.131509 
z
" clip-path="url(#p7afc0bf320)" style="fill: #9467bd; fill-opacity: 0.5; stroke: #808080; stroke-opacity: 0.5; stroke-width: 0.1"/>
    <path d="M 267.777795 564.358877 
L 267.777795 564.358877 
L 265.313566 563.846986 
L 262.854579 563.310479 
L 260.401081 562.749409 
L 257.953315 562.163833 
L 255.511528 561.553809 
L 253.075962 560.919398 
L 250.646863 560.260663 
L 248.63697 559.695824 
L 248.63697 559.695824 
Q 317.734331 317.682109 171.864632 112.579417 
L 171.864632 112.579417 
L 171.864632 112.579417 
L 173.922918 111.130999 
L 175.995586 109.703237 
L 178.082427 108.296272 
L 180.183233 106.910245 
L 182.297794 105.545296 
L 184.425898 104.20156 
L 186.567333 102.879171 
L 188.353647 101.798525 
L 188.353647 101.798525 
Q 317.734331 317.682109 267.777795 564.358877 
z
" clip-path="url(#p7afc0bf320)" style="fill: #9467bd; fill-opacity: 0.5; stroke: #808080; stroke-opacity: 0.5; stroke-width: 0.1"/>
    <path d="M 248.63697 559.695824 
L 248.63697 559.695824 
L 246.220328 558.992761 
L 243.810837 558.265567 
L 241.408739 557.514316 
L 239.014273 556.739081 
L 236.627679 555.939941 
L 234.249196 555.116975 
L 231.879061 554.270266 
L 229.517512 553.399898 
L 227.164784 552.505959 
L 224.821113 551.588538 
L 222.486733 550.647726 
L 220.161878 549.683617 
L 217.846781 548.696309 
L 217.733155 548.647146 
L 217.733155 548.647146 
Q 317.734331 317.682109 439.46604 97.394856 
L 439.46604 97.394856 
L 439.46604 97.394856 
L 441.662789 98.623167 
L 443.847146 99.873383 
L 446.018891 101.145381 
L 448.177808 102.439032 
L 450.323681 103.754207 
L 452.456295 105.090775 
L 454.575437 106.448601 
L 456.680895 107.827551 
L 458.772458 109.227486 
L 460.849918 110.648267 
L 462.913066 112.08975 
L 464.961696 113.551793 
L 466.995604 115.034249 
L 467.09527 115.107696 
L 467.09527 115.107696 
Q 317.734331 317.682109 248.63697 559.695824 
z
" clip-path="url(#p7afc0bf320)" style="fill: #9467bd; fill-opacity: 0.5; stroke: #808080; stroke-opacity: 0.5; stroke-width: 0.1"/>
    <path d="M 565.806066 360.17325 
L 565.806066 360.17325 
L 565.368759 362.651802 
L 564.906688 365.125856 
L 564.419899 367.595167 
L 563.908443 370.059485 
L 563.372369 372.518567 
L 562.811732 374.972164 
L 562.226587 377.420033 
L 561.616994 379.861928 
L 560.983012 382.297605 
L 560.324705 384.726821 
L 559.64214 387.149332 
L 558.935384 389.564896 
L 558.204508 391.973272 
L 557.449585 394.37422 
L 556.670691 396.767498 
L 555.867904 399.152867 
L 555.041303 401.53009 
L 554.190972 403.898927 
L 553.316996 406.259144 
L 552.419461 408.610502 
L 551.498458 410.952768 
L 550.554079 413.285707 
L 549.586418 415.609085 
L 548.595572 417.922671 
L 547.58164 420.226233 
L 546.544724 422.519541 
L 545.484927 424.802365 
L 544.402355 427.074477 
L 543.297116 429.33565 
L 542.169321 431.585657 
L 541.019083 433.824275 
L 539.846516 436.051278 
L 538.651739 438.266444 
L 537.43487 440.469553 
L 536.196031 442.660382 
L 534.935346 444.838714 
L 533.652941 447.00433 
L 532.348945 449.157014 
L 531.023487 451.296551 
L 529.6767 453.422726 
L 528.30872 455.535327 
L 526.919682 457.634144 
L 525.509726 459.718965 
L 524.078992 461.789582 
L 522.627624 463.845789 
L 521.155767 465.88738 
L 519.663568 467.91415 
L 518.151177 469.925897 
L 516.618743 471.92242 
L 515.066422 473.903519 
L 513.494367 475.868996 
L 511.902737 477.818655 
L 510.29169 479.7523 
L 508.661387 481.669738 
L 507.011992 483.570777 
L 505.343669 485.455228 
L 503.656585 487.322901 
L 501.95091 489.173611 
L 500.226812 491.007172 
L 498.484466 492.8234 
L 496.724045 494.622114 
L 494.945725 496.403134 
L 493.149684 498.166283 
L 491.336102 499.911383 
L 489.505159 501.63826 
L 487.65704 503.346742 
L 485.791929 505.036658 
L 483.910012 506.707838 
L 482.011477 508.360116 
L 480.096515 509.993326 
L 478.165317 511.607306 
L 476.218076 513.201893 
L 474.254986 514.776928 
L 474.106199 514.894994 
L 474.106199 514.894994 
Q 317.734331 317.682109 100.180861 444.234751 
L 100.180861 444.234751 
L 100.180861 444.234751 
L 98.926234 442.052925 
L 97.693486 439.858662 
L 96.482743 437.652182 
L 95.294125 435.433704 
L 94.127751 433.203452 
L 92.983737 430.961647 
L 91.862198 428.708515 
L 90.763245 426.44428 
L 89.68699 424.169169 
L 88.63354 421.883409 
L 87.602999 419.587229 
L 86.595471 417.280859 
L 85.611057 414.964529 
L 84.649855 412.638471 
L 83.711962 410.302917 
L 82.79747 407.958102 
L 81.906472 405.604258 
L 81.039056 403.241623 
L 80.19531 400.870432 
L 79.375318 398.490922 
L 78.579161 396.103331 
L 77.806919 393.707898 
L 77.05867 391.304863 
L 76.334489 388.894465 
L 75.634447 386.476946 
L 74.958615 384.052548 
L 74.30706 381.621513 
L 73.679848 379.184084 
L 73.077041 376.740505 
L 72.4987 374.29102 
L 71.944882 371.835874 
L 71.415643 369.375313 
L 70.911035 366.909582 
L 70.43111 364.438929 
L 69.975914 361.9636 
L 69.545495 359.483843 
L 69.139894 356.999906 
L 68.759152 354.512037 
L 68.403307 352.020486 
L 68.072396 349.5255 
L 67.76645 347.02733 
L 67.485501 344.526226 
L 67.229577 342.022437 
L 66.998703 339.516214 
L 66.792902 337.007808 
L 66.612195 334.497469 
L 66.4566 331.985449 
L 66.326133 329.471998 
L 66.220807 326.957369 
L 66.140631 324.441812 
L 66.085615 321.925579 
L 66.055763 319.408921 
L 66.051079 316.892091 
L 66.071563 314.37534 
L 66.117213 311.85892 
L 66.188025 309.343082 
L 66.283991 306.828078 
L 66.405102 304.314159 
L 66.551346 301.801577 
L 66.722707 299.290583 
L 66.91917 296.781428 
L 67.140714 294.274363 
L 67.387317 291.769639 
L 67.658955 289.267506 
L 67.9556 286.768215 
L 68.277222 284.272015 
L 68.623791 281.779156 
L 68.995269 279.289887 
L 69.391622 276.804458 
L 69.812809 274.323116 
L 70.258788 271.84611 
L 70.729514 269.373688 
L 71.22494 266.906096 
L 71.26333 266.720075 
L 71.26333 266.720075 
Q 317.734331 317.682109 565.806066 360.17325 
z
" clip-path="url(#p7afc0bf320)" style="fill: #2ca02c; fill-opacity: 0.5; stroke: #808080; stroke-opacity: 0.5; stroke-width: 0.1"/>
    <path d="M 474.106199 514.894994 
L 474.106199 514.894994 
L 472.126284 516.448826 
L 470.130931 517.982782 
L 468.120338 519.496708 
L 466.094706 520.990452 
L 464.054238 522.463866 
L 461.999139 523.916801 
L 459.929613 525.349114 
L 457.845868 526.76066 
L 455.748112 528.151298 
L 453.636555 529.520889 
L 451.511407 530.869297 
L 449.372882 532.196386 
L 447.221193 533.502024 
L 445.056556 534.78608 
L 442.879186 536.048426 
L 441.437382 536.868419 
L 441.437382 536.868419 
Q 317.734331 317.682109 217.733155 548.647146 
L 217.733155 548.647146 
L 217.733155 548.647146 
L 215.428543 547.635603 
L 213.134162 546.601064 
L 210.850241 545.543634 
L 208.577007 544.463418 
L 206.31469 543.360524 
L 204.063514 542.235062 
L 201.823706 541.087146 
L 199.595488 539.916888 
L 197.379084 538.724408 
L 195.174716 537.509824 
L 192.982603 536.273257 
L 190.802966 535.014831 
L 188.636021 533.734672 
L 186.481986 532.432908 
L 184.341077 531.109669 
L 182.937435 530.22594 
L 182.937435 530.22594 
Q 317.734331 317.682109 474.106199 514.894994 
z
" clip-path="url(#p7afc0bf320)" style="fill: #2ca02c; fill-opacity: 0.5; stroke: #808080; stroke-opacity: 0.5; stroke-width: 0.1"/>
    <path d="M 441.437382 536.868419 
L 441.437382 536.868419 
L 439.23937 538.094469 
L 437.029208 539.298479 
L 434.807117 540.480327 
L 432.573318 541.639896 
L 430.328036 542.777069 
L 428.071494 543.891732 
L 425.803918 544.983775 
L 423.525536 546.053088 
L 421.236575 547.099564 
L 418.937264 548.123098 
L 416.627832 549.123589 
L 414.308511 550.100936 
L 411.979533 551.05504 
L 409.64113 551.985808 
L 407.293537 552.893146 
L 404.936988 553.776962 
L 402.571719 554.63717 
L 400.197966 555.473682 
L 397.815967 556.286415 
L 395.425959 557.075288 
L 393.028183 557.840222 
L 390.622877 558.58114 
L 388.210282 559.297968 
L 385.79064 559.990635 
L 383.364193 560.659072 
L 380.931182 561.303211 
L 378.491852 561.922988 
L 376.046446 562.518341 
L 373.595209 563.089211 
L 371.138386 563.63554 
L 368.676222 564.157274 
L 367.892033 564.318052 
L 367.892033 564.318052 
Q 317.734331 317.682109 207.661474 91.343758 
L 207.661474 91.343758 
L 207.661474 91.343758 
L 209.930323 90.254364 
L 212.209953 89.187713 
L 214.500135 88.143912 
L 216.80064 87.123064 
L 219.111239 86.125272 
L 221.4317 85.150635 
L 223.761791 84.199251 
L 226.101279 83.271216 
L 228.449931 82.366621 
L 230.80751 81.485557 
L 233.173783 80.628113 
L 235.548511 79.794375 
L 237.931458 78.984424 
L 240.322385 78.198344 
L 242.721054 77.436211 
L 245.127223 76.698103 
L 247.540654 75.984093 
L 249.961103 75.294253 
L 252.38833 74.628651 
L 254.822091 73.987355 
L 257.262144 73.370427 
L 259.708243 72.777931 
L 262.160146 72.209925 
L 264.617605 71.666466 
L 267.080377 71.147608 
L 269.548213 70.653404 
L 272.020868 70.183902 
L 274.498095 69.73915 
L 276.979645 69.319192 
L 279.46527 68.92407 
L 281.954723 68.553823 
L 282.747274 68.441284 
L 282.747274 68.441284 
Q 317.734331 317.682109 441.437382 536.868419 
z
" clip-path="url(#p7afc0bf320)" style="fill: #2ca02c; fill-opacity: 0.5; stroke: #808080; stroke-opacity: 0.5; stroke-width: 0.1"/>
    <path d="M 367.892033 564.318052 
L 367.892033 564.318052 
L 365.423207 564.807289 
L 362.949612 565.271813 
L 360.471495 565.711579 
L 357.989105 566.126542 
L 355.502689 566.516661 
L 353.012497 566.881897 
L 350.518777 567.222213 
L 348.021778 567.537575 
L 345.521751 567.827952 
L 343.018944 568.093314 
L 340.51361 568.333636 
L 338.005998 568.548892 
L 335.496358 568.739062 
L 335.372859 568.747769 
L 335.372859 568.747769 
Q 317.734331 317.682109 126.658893 153.867396 
L 126.658893 153.867396 
L 126.658893 153.867396 
L 128.306566 151.964864 
L 129.973182 150.078904 
L 131.658574 148.209704 
L 133.362574 146.357451 
L 135.08501 144.52233 
L 136.825712 142.704525 
L 138.584504 140.904218 
L 140.361211 139.121589 
L 142.155655 137.356815 
L 143.967656 135.610074 
L 145.797035 133.881539 
L 147.643607 132.171385 
L 149.507187 130.479782 
L 149.599294 130.397052 
L 149.599294 130.397052 
Q 317.734331 317.682109 367.892033 564.318052 
z
" clip-path="url(#p7afc0bf320)" style="fill: #2ca02c; fill-opacity: 0.5; stroke: #808080; stroke-opacity: 0.5; stroke-width: 0.1"/>
    <path d="M 335.372859 568.747769 
L 335.372859 568.747769 
L 332.861363 568.911598 
L 330.348353 569.050305 
L 328.815189 569.122555 
L 328.815189 569.122555 
Q 317.734331 317.682109 317.734331 65.997618 
L 317.734331 65.997618 
L 317.734331 65.997618 
L 320.251134 66.010202 
L 322.767685 66.047953 
L 324.302143 66.083327 
L 324.302143 66.083327 
Q 317.734331 317.682109 335.372859 568.747769 
z
" clip-path="url(#p7afc0bf320)" style="fill: #2ca02c; fill-opacity: 0.5; stroke: #808080; stroke-opacity: 0.5; stroke-width: 0.1"/>
    <path d="M 467.09527 115.107696 
L 467.09527 115.107696 
L 469.113512 116.611409 
L 471.116617 118.135229 
L 473.104383 119.679003 
L 475.076613 121.242578 
L 477.033108 122.825797 
L 478.973674 124.428501 
L 480.898116 126.05053 
L 482.806242 127.691722 
L 484.697861 129.351913 
L 486.572783 131.030937 
L 488.430822 132.728626 
L 490.271791 134.44481 
L 492.095507 136.179317 
L 493.901786 137.931975 
L 495.69045 139.702608 
L 497.461317 141.491038 
L 499.214212 143.297088 
L 500.948959 145.120575 
L 502.665385 146.961319 
L 504.363318 148.819135 
L 506.042589 150.693837 
L 507.703028 152.585237 
L 509.344471 154.493147 
L 510.966753 156.417376 
L 512.569712 158.357731 
L 514.153187 160.314019 
L 515.717021 162.286043 
L 517.261057 164.273607 
L 518.78514 166.276511 
L 520.289118 168.294556 
L 521.772841 170.327539 
L 523.236161 172.375258 
L 524.67893 174.437507 
L 526.101005 176.514081 
L 527.502244 178.604771 
L 528.882505 180.709369 
L 530.241653 182.827665 
L 531.579549 184.959445 
L 532.896062 187.104498 
L 534.191058 189.262608 
L 535.464409 191.43356 
L 536.414374 193.086275 
L 536.414374 193.086275 
Q 317.734331 317.682109 71.26333 266.720075 
L 71.26333 266.720075 
L 71.26333 266.720075 
L 71.785265 264.257954 
L 72.331795 261.801176 
L 72.902865 259.349986 
L 73.498418 256.904628 
L 74.118394 254.465349 
L 74.762732 252.032391 
L 75.431367 249.605998 
L 76.124232 247.186412 
L 76.841257 244.773876 
L 77.582372 242.368631 
L 78.347502 239.970917 
L 79.13657 237.580974 
L 79.949498 235.199042 
L 80.786204 232.825357 
L 81.646604 230.460158 
L 82.530614 228.103681 
L 83.438143 225.756162 
L 84.369102 223.417835 
L 85.323397 221.088935 
L 86.300933 218.769694 
L 87.301613 216.460344 
L 88.325335 214.161117 
L 89.371998 211.872241 
L 90.441497 209.593946 
L 91.533725 207.32646 
L 92.648573 205.070009 
L 93.78593 202.82482 
L 94.945681 200.591116 
L 96.12771 198.369121 
L 97.331901 196.159058 
L 98.558131 193.961146 
L 99.806279 191.775607 
L 101.076219 189.602658 
L 102.367825 187.442517 
L 103.680967 185.295399 
L 105.015515 183.161521 
L 106.371334 181.041094 
L 107.74829 178.934331 
L 109.146244 176.841443 
L 110.565056 174.762639 
L 112.004585 172.698127 
L 113.108599 171.144082 
L 113.108599 171.144082 
Q 317.734331 317.682109 467.09527 115.107696 
z
" clip-path="url(#p7afc0bf320)" style="fill: #ff7f0e; fill-opacity: 0.5; stroke: #808080; stroke-opacity: 0.5; stroke-width: 0.1"/>
    <path d="M 536.414374 193.086275 
L 536.414374 193.086275 
L 537.649378 195.279269 
L 538.86239 197.484503 
L 540.05329 199.701756 
L 541.221958 201.930808 
L 542.368277 204.171434 
L 543.492133 206.423412 
L 544.593414 208.686515 
L 545.672009 210.960518 
L 546.72781 213.245193 
L 547.760712 215.540311 
L 548.207253 216.551921 
L 548.207253 216.551921 
Q 317.734331 317.682109 182.937435 530.22594 
L 182.937435 530.22594 
L 182.937435 530.22594 
L 180.818772 528.867367 
L 178.7138 527.487675 
L 176.62273 526.087002 
L 174.545772 524.66549 
L 172.483132 523.223279 
L 170.435017 521.760514 
L 168.401632 520.277342 
L 166.38318 518.77391 
L 164.379863 517.250369 
L 162.391881 515.706872 
L 161.523356 515.022462 
L 161.523356 515.022462 
Q 317.734331 317.682109 536.414374 193.086275 
z
" clip-path="url(#p7afc0bf320)" style="fill: #ff7f0e; fill-opacity: 0.5; stroke: #808080; stroke-opacity: 0.5; stroke-width: 0.1"/>
    <path d="M 548.207253 216.551921 
L 548.207253 216.551921 
L 549.207015 218.861668 
L 550.183629 221.181297 
L 551.136999 223.510576 
L 552.067029 225.849273 
L 552.973625 228.197152 
L 553.169634 228.714133 
L 553.169634 228.714133 
Q 317.734331 317.682109 282.747274 68.441284 
L 282.747274 68.441284 
L 282.747274 68.441284 
L 285.24139 68.103881 
L 287.738755 67.791436 
L 290.23912 67.503979 
L 292.742234 67.241541 
L 295.247848 67.004146 
L 295.798582 66.955353 
L 295.798582 66.955353 
Q 317.734331 317.682109 548.207253 216.551921 
z
" clip-path="url(#p7afc0bf320)" style="fill: #ff7f0e; fill-opacity: 0.5; stroke: #808080; stroke-opacity: 0.5; stroke-width: 0.1"/>
    <path d="M 553.169634 228.714133 
L 553.169634 228.714133 
L 554.047528 231.072895 
L 554.90179 233.440318 
L 555.411115 234.888213 
L 555.411115 234.888213 
Q 317.734331 317.682109 149.599294 130.397052 
L 149.599294 130.397052 
L 149.599294 130.397052 
L 151.48052 128.725094 
L 153.378371 127.072031 
L 154.543833 126.073277 
L 154.543833 126.073277 
Q 317.734331 317.682109 553.169634 228.714133 
z
" clip-path="url(#p7afc0bf320)" style="fill: #ff7f0e; fill-opacity: 0.5; stroke: #808080; stroke-opacity: 0.5; stroke-width: 0.1"/>
    <path d="M 555.411115 234.888213 
L 555.411115 234.888213 
L 556.227157 237.269081 
L 557.019349 239.65799 
L 557.787613 242.054701 
L 558.531872 244.458976 
L 559.252051 246.870572 
L 559.948079 249.289249 
L 560.619886 251.714766 
L 561.158732 253.731783 
L 561.158732 253.731783 
Q 317.734331 317.682109 324.302143 66.083327 
L 324.302143 66.083327 
L 324.302143 66.083327 
L 326.81776 66.161584 
L 329.332469 66.264993 
L 331.846019 66.393543 
L 334.358157 66.547222 
L 336.868633 66.726014 
L 339.377195 66.929902 
L 341.883593 67.158864 
L 343.960865 67.367803 
L 343.960865 67.367803 
Q 317.734331 317.682109 555.411115 234.888213 
z
" clip-path="url(#p7afc0bf320)" style="fill: #ff7f0e; fill-opacity: 0.5; stroke: #808080; stroke-opacity: 0.5; stroke-width: 0.1"/>
    <path d="M 343.960865 67.367803 
L 343.960865 67.367803 
L 346.462655 67.642579 
L 348.961572 67.94236 
L 351.457367 68.267114 
L 353.949789 68.616809 
L 356.43859 68.991411 
L 358.92352 69.390881 
L 361.404332 69.815181 
L 363.880776 70.264267 
L 366.352606 70.738094 
L 368.819574 71.236616 
L 369.901842 71.463438 
L 369.901842 71.463438 
Q 317.734331 317.682109 561.158732 253.731783 
L 561.158732 253.731783 
L 561.158732 253.731783 
L 561.786053 256.169184 
L 562.38897 258.612736 
L 562.967421 261.062196 
L 563.521349 263.517317 
L 564.050699 265.977854 
L 564.555417 268.443562 
L 565.035453 270.914193 
L 565.49076 273.389502 
L 565.921291 275.869239 
L 566.327003 278.353158 
L 566.497396 279.445733 
L 566.497396 279.445733 
Q 317.734331 317.682109 343.960865 67.367803 
z
" clip-path="url(#p7afc0bf320)" style="fill: #1f77b4; fill-opacity: 0.5; stroke: #808080; stroke-opacity: 0.5; stroke-width: 0.1"/>
   </g>
   <g id="patch_10">
    <path d="M 317.734331 65.997618 
L 320.251134 66.010202 
L 322.767685 66.047953 
L 325.283733 66.110867 
L 327.799026 66.198939 
L 330.313312 66.312158 
L 332.826341 66.450514 
L 335.33786 66.613993 
L 337.84762 66.802579 
L 340.355367 67.016252 
L 342.860853 67.254992 
L 345.363826 67.518774 
L 347.864037 67.807573 
L 350.361234 68.121358 
L 352.855168 68.4601 
L 355.345591 68.823763 
L 357.832252 69.212313 
L 360.314904 69.625708 
L 362.793298 70.06391 
L 365.267185 70.526873 
L 367.73632 71.014551 
L 369.901842 71.463438 
L 371.51527 63.848428 
L 369.282773 63.385658 
L 366.737274 62.882896 
L 364.186874 62.405615 
L 361.631829 61.953861 
L 359.072394 61.52768 
L 356.508826 61.127114 
L 353.94138 60.752203 
L 351.370313 60.402985 
L 348.795883 60.079494 
L 346.218347 59.781764 
L 343.637962 59.509823 
L 341.054987 59.2637 
L 338.46968 59.043418 
L 335.8823 58.849 
L 333.293104 58.680465 
L 330.702353 58.53783 
L 328.110305 58.421109 
L 325.517219 58.330313 
L 322.923356 58.265453 
L 320.328973 58.226535 
L 317.734331 58.213561 
L 317.734331 65.997618 
z
" clip-path="url(#p7afc0bf320)" style="fill: none; stroke: #000000; stroke-width: 0.5; stroke-linejoin: miter"/>
   </g>
   <g id="patch_11">
    <path d="M 391.1627 76.947073 
L 393.566339 77.693381 
L 395.962395 78.463688 
L 398.350628 79.257916 
L 400.730799 80.075987 
L 403.102671 80.917818 
L 405.466006 81.783325 
L 407.820568 82.672422 
L 410.166121 83.58502 
L 412.502432 84.521027 
L 414.829265 85.48035 
L 417.146389 86.462893 
L 419.453573 87.468558 
L 421.750584 88.497244 
L 424.037193 89.548849 
L 426.313173 90.623266 
L 428.578295 91.720389 
L 430.832332 92.840109 
L 433.07506 93.982312 
L 435.306253 95.146885 
L 437.52569 96.333711 
L 439.733148 97.542672 
L 441.928405 98.773647 
L 444.111244 100.026512 
L 446.281445 101.301143 
L 448.438791 102.597411 
L 450.583067 103.915188 
L 452.714058 105.254342 
L 454.831552 106.614738 
L 456.935335 107.996241 
L 459.025199 109.398712 
L 461.100934 110.822011 
L 463.162332 112.265996 
L 465.209188 113.730522 
L 467.241296 115.215444 
L 469.258453 116.720612 
L 471.260459 118.245876 
L 473.247112 119.791083 
L 475.218213 121.35608 
L 477.173567 122.940708 
L 479.112976 124.544811 
L 481.036248 126.168228 
L 482.94319 127.810795 
L 484.833611 129.47235 
L 486.707323 131.152725 
L 488.564137 132.851753 
L 490.403868 134.569264 
L 492.226333 136.305086 
L 494.031348 138.059046 
L 495.818734 139.830968 
L 497.588312 141.620675 
L 499.339904 143.427988 
L 501.073336 145.252726 
L 502.788434 147.094707 
L 504.485027 148.953746 
L 506.162945 150.829658 
L 507.822021 152.722256 
L 509.462087 154.631349 
L 511.082981 156.556747 
L 512.684541 158.498257 
L 514.266605 160.455686 
L 515.829017 162.428837 
L 517.371619 164.417514 
L 518.894258 166.421517 
L 520.396781 168.440645 
L 521.879037 170.474698 
L 523.34088 172.523471 
L 524.782162 174.586761 
L 526.202739 176.664359 
L 527.60247 178.756059 
L 528.981214 180.861652 
L 530.338833 182.980926 
L 531.675192 185.113671 
L 532.990158 187.259672 
L 534.283598 189.418716 
L 535.555383 191.590586 
L 536.805386 193.775064 
L 538.033483 195.971934 
L 539.239549 198.180974 
L 540.423465 200.401964 
L 541.585113 202.634682 
L 542.724376 204.878905 
L 543.841139 207.134408 
L 544.935293 209.400966 
L 546.006726 211.678352 
L 547.055333 213.966338 
L 548.081007 216.264695 
L 549.083647 218.573195 
L 550.063152 220.891605 
L 551.019425 223.219694 
L 551.952369 225.557229 
L 552.861892 227.903976 
L 553.747902 230.259702 
L 554.610311 232.624169 
L 555.449032 234.997142 
L 556.263983 237.378384 
L 557.05508 239.767656 
L 557.822246 242.164719 
L 558.565403 244.569334 
L 559.284477 246.98126 
L 559.979396 249.400256 
L 560.650091 251.826081 
L 561.296495 254.258491 
L 561.918542 256.697243 
L 562.516172 259.142093 
L 563.089323 261.592798 
L 563.637939 264.049112 
L 564.161965 266.510788 
L 564.661349 268.977582 
L 565.136039 271.449246 
L 565.58599 273.925534 
L 566.011156 276.406197 
L 566.411495 278.890988 
L 566.497396 279.445733 
L 574.191099 278.263164 
L 574.102541 277.691262 
L 573.689821 275.129622 
L 573.251506 272.572238 
L 572.787639 270.019364 
L 572.298267 267.471257 
L 571.783438 264.92817 
L 571.243205 262.390359 
L 570.677622 259.858077 
L 570.086744 257.331578 
L 569.470631 254.811113 
L 568.829345 252.296935 
L 568.16295 249.789296 
L 567.471512 247.288447 
L 566.7551 244.794636 
L 566.013786 242.308114 
L 565.247645 239.82913 
L 564.456753 237.35793 
L 563.641188 234.894763 
L 562.801033 232.439875 
L 561.936372 229.993511 
L 561.047291 227.555916 
L 560.133878 225.127333 
L 559.196226 222.708006 
L 558.234428 220.298176 
L 557.24858 217.898084 
L 556.238781 215.50797 
L 555.205131 213.128074 
L 554.147735 210.758634 
L 553.066697 208.399885 
L 551.962127 206.052065 
L 550.834133 203.715407 
L 549.682831 201.390146 
L 548.508333 199.076515 
L 547.310758 196.774743 
L 546.090226 194.485062 
L 544.846858 192.207701 
L 543.58078 189.942888 
L 542.292116 187.690848 
L 540.980998 185.451807 
L 539.647555 183.225989 
L 538.29192 181.013616 
L 536.91423 178.81491 
L 535.514622 176.630091 
L 534.093237 174.459377 
L 532.650216 172.302985 
L 531.185703 170.161131 
L 529.699845 168.034029 
L 528.192791 165.921892 
L 526.664691 163.82493 
L 525.115699 161.743354 
L 523.545968 159.677372 
L 521.955657 157.62719 
L 520.344923 155.593013 
L 518.713929 153.575045 
L 517.062837 151.573488 
L 515.391812 149.588542 
L 513.701021 147.620405 
L 511.990634 145.669273 
L 510.260822 143.735343 
L 508.511757 141.818808 
L 506.743615 139.919858 
L 504.956571 138.038685 
L 503.150806 136.175476 
L 501.326499 134.330417 
L 499.483833 132.503694 
L 497.622993 130.695488 
L 495.744163 128.90598 
L 493.847533 127.13535 
L 491.933291 125.383775 
L 490.00163 123.651429 
L 488.052743 121.938487 
L 486.086823 120.245118 
L 484.104069 118.571493 
L 482.104677 116.917779 
L 480.088849 115.284141 
L 478.056785 113.670742 
L 476.00869 112.077745 
L 473.944766 110.505308 
L 471.865223 108.953588 
L 469.770266 107.422741 
L 467.660105 105.91292 
L 465.534952 104.424276 
L 463.39502 102.956957 
L 461.240521 101.511111 
L 459.071672 100.086881 
L 456.888689 98.684411 
L 454.691791 97.30384 
L 452.481197 95.945307 
L 450.257129 94.608948 
L 448.019808 93.294896 
L 445.769459 92.003282 
L 443.506307 90.734236 
L 441.230577 89.487884 
L 438.942498 88.264352 
L 436.642299 87.063761 
L 434.330208 85.886232 
L 432.006458 84.731883 
L 429.671281 83.600828 
L 427.324911 82.493181 
L 424.967581 81.409053 
L 422.599528 80.348552 
L 420.220989 79.311784 
L 417.832201 78.298853 
L 415.433404 77.30986 
L 413.024837 76.344904 
L 410.60674 75.404081 
L 408.179357 74.487486 
L 405.742929 73.595211 
L 403.2977 72.727344 
L 400.843915 71.883972 
L 398.381819 71.06518 
L 395.911659 70.271049 
L 393.433681 69.501659 
L 391.1627 76.947073 
z
" clip-path="url(#p7afc0bf320)" style="fill: none; stroke: #000000; stroke-width: 0.5; stroke-linejoin: miter"/>
   </g>
   <g id="patch_12">
    <path d="M 568.883297 301.272363 
L 569.034835 303.784632 
L 569.161242 306.29829 
L 569.262507 308.813086 
L 569.33862 311.328769 
L 569.389572 313.845088 
L 569.415359 316.36179 
L 569.415978 318.878625 
L 569.391429 321.395339 
L 569.341714 323.911683 
L 569.266839 326.427403 
L 569.166811 328.942249 
L 569.04164 331.455969 
L 568.891339 333.968311 
L 568.715922 336.479025 
L 568.515407 338.98786 
L 568.289814 341.494563 
L 568.039166 343.998886 
L 567.763487 346.500576 
L 567.462806 348.999385 
L 567.137152 351.495063 
L 566.786558 353.987359 
L 566.411059 356.476024 
L 566.010693 358.96081 
L 565.585499 361.441469 
L 565.13552 363.917751 
L 564.660801 366.38941 
L 564.16139 368.856198 
L 563.637337 371.317869 
L 563.088693 373.774176 
L 562.515514 376.224875 
L 561.917857 378.669719 
L 561.295782 381.108464 
L 560.649351 383.540866 
L 559.978629 385.966683 
L 559.283683 388.385672 
L 558.564581 390.79759 
L 557.821397 393.202196 
L 557.054205 395.599251 
L 556.26308 397.988514 
L 555.448103 400.369747 
L 554.609355 402.74271 
L 553.74692 405.107168 
L 552.860883 407.462883 
L 551.951334 409.809621 
L 551.018364 412.147145 
L 550.062065 414.475224 
L 549.082534 416.793623 
L 548.079868 419.102111 
L 547.054167 421.400457 
L 546.005535 423.688431 
L 544.934076 425.965805 
L 543.839898 428.23235 
L 542.723108 430.487841 
L 541.583821 432.732051 
L 540.422148 434.964756 
L 539.238207 437.185733 
L 538.032115 439.394759 
L 536.803994 441.591615 
L 535.553966 443.77608 
L 534.282157 445.947935 
L 532.988693 448.106964 
L 531.673703 450.252951 
L 530.33732 452.38568 
L 528.979677 454.50494 
L 527.600909 456.610517 
L 526.201155 458.702201 
L 524.780554 460.779784 
L 523.339249 462.843057 
L 521.877384 464.891814 
L 520.395104 466.92585 
L 518.892559 468.944961 
L 517.369897 470.948947 
L 515.827273 472.937606 
L 514.264839 474.91074 
L 512.682753 476.868151 
L 511.081172 478.809643 
L 509.460256 480.735023 
L 507.820168 482.644098 
L 506.161071 484.536677 
L 504.483132 486.41257 
L 502.786518 488.27159 
L 501.071399 490.113552 
L 499.337947 491.938271 
L 497.586334 493.745564 
L 495.816736 495.535251 
L 494.02933 497.307153 
L 492.224295 499.061092 
L 490.401811 500.796894 
L 488.562061 502.514384 
L 486.705227 504.213391 
L 484.831497 505.893746 
L 482.941057 507.555279 
L 481.034097 509.197825 
L 479.110807 510.82122 
L 477.171379 512.425301 
L 475.216008 514.009908 
L 473.244889 515.574882 
L 471.258218 517.120067 
L 469.256196 518.645309 
L 467.239021 520.150454 
L 465.206897 521.635353 
L 463.160025 523.099856 
L 461.09861 524.543818 
L 459.022859 525.967094 
L 456.93298 527.369541 
L 454.829181 528.75102 
L 452.711672 530.111393 
L 450.580666 531.450522 
L 448.436375 532.768275 
L 446.279014 534.06452 
L 444.108799 535.339126 
L 441.925946 536.591967 
L 439.730675 537.822917 
L 437.523204 539.031853 
L 435.303754 540.218654 
L 433.072547 541.383202 
L 430.829806 542.52538 
L 428.575756 543.645074 
L 426.310622 544.742172 
L 424.034631 545.816564 
L 421.748009 546.868142 
L 419.450987 547.896803 
L 417.143792 548.902442 
L 414.826657 549.884959 
L 412.499813 550.844256 
L 410.163492 551.780237 
L 407.817928 552.692808 
L 405.463356 553.581879 
L 403.100011 554.44736 
L 400.72813 555.289164 
L 398.347949 556.107208 
L 395.959707 556.901409 
L 393.563643 557.671689 
L 391.159996 558.41797 
L 388.749006 559.140178 
L 386.330915 559.83824 
L 383.905964 560.512087 
L 381.474396 561.161651 
L 379.036455 561.786867 
L 376.592383 562.387673 
L 374.142425 562.964008 
L 371.686826 563.515816 
L 369.225833 564.04304 
L 366.75969 564.545629 
L 364.288645 565.023531 
L 361.812944 565.4767 
L 359.332835 565.905089 
L 356.848567 566.308656 
L 354.360387 566.687361 
L 351.868545 567.041165 
L 349.373289 567.370033 
L 346.87487 567.673933 
L 344.373536 567.952834 
L 341.869539 568.206709 
L 339.363128 568.435531 
L 336.854554 568.639277 
L 334.344068 568.817929 
L 331.831921 568.971467 
L 329.318365 569.099876 
L 328.815189 569.122555 
L 329.157896 576.899064 
L 329.676634 576.875683 
L 332.267929 576.743302 
L 334.857771 576.585016 
L 337.445901 576.400839 
L 340.03206 576.190791 
L 342.615988 575.954892 
L 345.197429 575.693166 
L 347.776124 575.405639 
L 350.351814 575.09234 
L 352.924242 574.753301 
L 355.493152 574.388554 
L 358.058286 573.998137 
L 360.619387 573.582088 
L 363.1762 573.14045 
L 365.728469 572.673266 
L 368.275938 572.180583 
L 370.818353 571.662451 
L 373.35546 571.11892 
L 375.887005 570.550047 
L 378.412735 569.955886 
L 380.932397 569.336499 
L 383.445739 568.691946 
L 385.95251 568.022292 
L 388.452459 567.327605 
L 390.945336 566.607953 
L 393.430893 565.863409 
L 395.90888 565.094047 
L 398.379049 564.299945 
L 400.841154 563.48118 
L 403.294949 562.637836 
L 405.740187 561.769996 
L 408.176625 560.877748 
L 410.604019 559.96118 
L 413.022126 559.020385 
L 415.430704 558.055456 
L 417.829512 557.06649 
L 420.218312 556.053586 
L 422.596862 555.016845 
L 424.964927 553.95637 
L 427.322269 552.872269 
L 429.668652 551.764648 
L 432.003842 550.633619 
L 434.327605 549.479296 
L 436.639708 548.301793 
L 438.939921 547.101228 
L 441.228014 545.877721 
L 443.503758 544.631396 
L 445.766924 543.362375 
L 448.017288 542.070786 
L 450.254623 540.756759 
L 452.478706 539.420425 
L 454.689315 538.061917 
L 456.886229 536.681371 
L 459.069227 535.278925 
L 461.238093 533.85472 
L 463.392608 532.408898 
L 465.532557 530.941603 
L 467.657726 529.452982 
L 469.767904 527.943185 
L 471.862878 526.412361 
L 473.942439 524.860665 
L 476.00638 523.288251 
L 478.054494 521.695277 
L 480.086575 520.081902 
L 482.102422 518.448286 
L 484.101832 516.794595 
L 486.084605 515.120992 
L 488.050544 513.427645 
L 489.999451 511.714724 
L 491.931131 509.9824 
L 493.845392 508.230846 
L 495.742043 506.460238 
L 497.620892 504.670751 
L 499.481753 502.862566 
L 501.32444 501.035863 
L 503.148767 499.190825 
L 504.954553 497.327637 
L 506.741618 495.446483 
L 508.509782 493.547554 
L 510.258868 491.631038 
L 511.988702 489.697127 
L 513.699111 487.746015 
L 515.389924 485.777897 
L 517.060971 483.792969 
L 518.712085 481.791431 
L 520.343102 479.773481 
L 521.953859 477.739323 
L 523.544193 475.689159 
L 525.113947 473.623194 
L 526.662963 471.541635 
L 528.191086 469.444691 
L 529.698164 467.33257 
L 531.184046 465.205485 
L 532.648582 463.063647 
L 534.091628 460.907272 
L 535.513038 458.736573 
L 536.91267 456.55177 
L 538.290385 454.35308 
L 539.646044 452.140722 
L 540.979512 449.914919 
L 542.290656 447.675893 
L 543.579345 445.423868 
L 544.845449 443.159068 
L 546.088842 440.881721 
L 547.3094 438.592054 
L 548.507001 436.290296 
L 549.681524 433.976678 
L 550.832853 431.65143 
L 551.960873 429.314785 
L 553.06547 426.966977 
L 554.146534 424.608241 
L 555.203957 422.238812 
L 556.237633 419.858927 
L 557.247459 417.468825 
L 558.233334 415.068744 
L 559.195159 412.658925 
L 560.132838 410.239608 
L 561.046278 407.811036 
L 561.935387 405.373451 
L 562.800076 402.927096 
L 563.640258 400.472217 
L 564.45585 398.00906 
L 565.246771 395.537869 
L 566.01294 393.058893 
L 566.754281 390.57238 
L 567.470721 388.078577 
L 568.162187 385.577735 
L 568.828611 383.070104 
L 569.469925 380.555933 
L 570.086066 378.035476 
L 570.676972 375.508983 
L 571.242584 372.976707 
L 571.782846 370.438902 
L 572.297703 367.895821 
L 572.787103 365.34772 
L 573.250999 362.794851 
L 573.689343 360.237471 
L 574.102092 357.675836 
L 574.489204 355.110202 
L 574.850641 352.540824 
L 575.186367 349.967961 
L 575.496348 347.391869 
L 575.780552 344.812807 
L 576.038953 342.231031 
L 576.271523 339.6468 
L 576.478239 337.060373 
L 576.659081 334.472008 
L 576.814031 331.881965 
L 576.943074 329.290501 
L 577.046195 326.697876 
L 577.123386 324.10435 
L 577.174638 321.510181 
L 577.199946 318.91563 
L 577.199308 316.320956 
L 577.172724 313.726417 
L 577.120196 311.132274 
L 577.041729 308.538786 
L 576.937332 305.946213 
L 576.807015 303.354813 
L 576.650791 300.764845 
L 568.883297 301.272363 
z
" clip-path="url(#p7afc0bf320)" style="fill: none; stroke: #000000; stroke-width: 0.5; stroke-linejoin: miter"/>
   </g>
   <g id="patch_13">
    <path d="M 306.858544 569.131509 
L 304.344636 569.01018 
L 301.832067 568.863719 
L 299.321087 568.69214 
L 296.81195 568.49546 
L 294.304904 568.2737 
L 291.800201 568.02688 
L 289.298092 567.755026 
L 286.798826 567.458164 
L 284.302654 567.136326 
L 281.809825 566.789542 
L 279.320589 566.417848 
L 276.835193 566.02128 
L 274.353888 565.599879 
L 271.876921 565.153686 
L 269.404539 564.682746 
L 266.93699 564.187106 
L 264.474521 563.666816 
L 262.017378 563.121928 
L 259.565807 562.552495 
L 257.120052 561.958576 
L 254.680359 561.34023 
L 252.246971 560.697518 
L 249.820131 560.030505 
L 247.400084 559.339257 
L 244.987069 558.623843 
L 242.581329 557.884336 
L 240.183105 557.120808 
L 237.792635 556.333337 
L 235.41016 555.522001 
L 233.035916 554.686881 
L 230.670143 553.828061 
L 228.313076 552.945626 
L 225.964951 552.039666 
L 223.626003 551.110269 
L 221.296466 550.15753 
L 218.976572 549.181544 
L 216.666554 548.182408 
L 214.366643 547.160222 
L 212.077069 546.115089 
L 209.79806 545.047112 
L 207.529844 543.956399 
L 205.272649 542.843059 
L 203.0267 541.707203 
L 200.792222 540.548945 
L 198.569438 539.3684 
L 196.35857 538.165687 
L 194.15984 536.940925 
L 191.973467 535.694238 
L 189.79967 534.42575 
L 187.638666 533.135588 
L 185.490672 531.82388 
L 183.355902 530.490759 
L 181.23457 529.136356 
L 179.126888 527.760809 
L 177.033066 526.364254 
L 174.953314 524.94683 
L 172.887841 523.508681 
L 170.836852 522.049949 
L 168.800552 520.57078 
L 166.779146 519.071323 
L 164.772835 517.551727 
L 162.78182 516.012144 
L 161.523356 515.022462 
L 156.692089 521.125771 
L 157.989474 522.146063 
L 160.042067 523.733261 
L 162.110429 525.299855 
L 164.194353 526.845688 
L 166.293631 528.370604 
L 168.408052 529.874451 
L 170.537407 531.35708 
L 172.681481 532.818341 
L 174.84006 534.258088 
L 177.012928 535.676178 
L 179.199868 537.072469 
L 181.400662 538.446821 
L 183.615089 539.799097 
L 185.842928 541.129162 
L 188.083956 542.436881 
L 190.337948 543.722126 
L 192.604681 544.984767 
L 194.883926 546.224677 
L 197.175456 547.441734 
L 199.479042 548.635814 
L 201.794453 549.8068 
L 204.121458 550.954573 
L 206.459824 552.07902 
L 208.809318 553.180026 
L 211.169704 554.257484 
L 213.540747 555.311283 
L 215.922209 556.34132 
L 218.313851 557.347492 
L 220.715436 558.329697 
L 223.126723 559.287837 
L 225.54747 560.221818 
L 227.977436 561.131544 
L 230.416378 562.016926 
L 232.864051 562.877874 
L 235.320211 563.714303 
L 237.784613 564.526129 
L 240.25701 565.313271 
L 242.737154 566.075649 
L 245.224798 566.813189 
L 247.719692 567.525816 
L 250.221588 568.213458 
L 252.730236 568.876048 
L 255.245383 569.513519 
L 257.76678 570.125806 
L 260.294173 570.71285 
L 262.82731 571.27459 
L 265.365938 571.810972 
L 267.909803 572.321941 
L 270.45865 572.807446 
L 273.012225 573.267439 
L 275.570271 573.701873 
L 278.132535 574.110706 
L 280.698758 574.493896 
L 283.268685 574.851405 
L 285.842058 575.183197 
L 288.418621 575.48924 
L 290.998115 575.769502 
L 293.580283 576.023955 
L 296.164866 576.252574 
L 298.751606 576.455337 
L 301.340244 576.632223 
L 303.930522 576.783213 
L 306.52218 576.908294 
L 306.858544 569.131509 
z
" clip-path="url(#p7afc0bf320)" style="fill: none; stroke: #000000; stroke-width: 0.5; stroke-linejoin: miter"/>
   </g>
   <g id="patch_14">
    <path d="M 144.918441 500.656838 
L 143.097365 498.91956 
L 141.293752 497.164157 
L 139.507784 495.390807 
L 137.739638 493.599686 
L 135.989491 491.790973 
L 134.257519 489.96485 
L 132.543894 488.121498 
L 130.848788 486.261103 
L 129.17237 484.383849 
L 127.514808 482.489926 
L 125.876268 480.579522 
L 124.256914 478.652829 
L 122.656908 476.710039 
L 121.076409 474.751346 
L 119.515575 472.776946 
L 117.974564 470.787037 
L 116.453528 468.781817 
L 114.95262 466.761488 
L 113.47199 464.72625 
L 112.011786 462.676309 
L 110.572154 460.611868 
L 109.153239 458.533134 
L 107.755181 456.440316 
L 106.378121 454.333621 
L 105.022196 452.213262 
L 103.687543 450.07945 
L 102.374293 447.932398 
L 101.08258 445.772321 
L 99.812532 443.599435 
L 98.564276 441.413957 
L 97.337936 439.216107 
L 96.133636 437.006103 
L 94.951496 434.784167 
L 93.791634 432.55052 
L 92.654166 430.305387 
L 91.539206 428.048992 
L 90.446865 425.78156 
L 89.377253 423.503319 
L 88.330476 421.214495 
L 87.30664 418.915318 
L 86.305846 416.606018 
L 85.328195 414.286825 
L 84.373784 411.957973 
L 83.442709 409.619692 
L 82.535063 407.272218 
L 81.650936 404.915785 
L 80.790418 402.550629 
L 79.953594 400.176986 
L 79.140548 397.795094 
L 78.351361 395.40519 
L 77.586113 393.007514 
L 76.844878 390.602306 
L 76.127733 388.189805 
L 75.434748 385.770254 
L 74.765993 383.343894 
L 74.121534 380.910969 
L 73.501437 378.47172 
L 72.905762 376.026392 
L 72.33457 373.57523 
L 71.787918 371.118479 
L 71.265861 368.656384 
L 70.76845 366.189191 
L 70.295735 363.717148 
L 69.847764 361.240502 
L 69.424582 358.7595 
L 69.02623 356.27439 
L 68.652749 353.785421 
L 68.304176 351.292841 
L 67.980546 348.796901 
L 67.681891 346.297849 
L 67.408241 343.795935 
L 67.159623 341.29141 
L 66.936062 338.784525 
L 66.737582 336.275529 
L 66.5642 333.764673 
L 66.415936 331.25221 
L 66.292803 328.738389 
L 66.194814 326.223463 
L 66.121979 323.707683 
L 66.074304 321.1913 
L 66.051796 318.674566 
L 66.054456 316.157733 
L 66.082283 313.641052 
L 66.135275 311.124776 
L 66.213427 308.609155 
L 66.316731 306.094442 
L 66.445177 303.580887 
L 66.598751 301.068742 
L 66.777439 298.558259 
L 66.981222 296.049688 
L 67.21008 293.543281 
L 67.46399 291.039287 
L 67.742927 288.537957 
L 68.046864 286.039542 
L 68.375768 283.544291 
L 68.729609 281.052454 
L 69.108349 278.56428 
L 69.511952 276.080017 
L 69.940377 273.599915 
L 70.393581 271.124221 
L 70.871519 268.653182 
L 71.374144 266.187047 
L 71.901403 263.726061 
L 72.453247 261.27047 
L 73.029617 258.820521 
L 73.630459 256.376457 
L 74.25571 253.938525 
L 74.905309 251.506966 
L 75.579191 249.082025 
L 76.277288 246.663944 
L 76.99953 244.252965 
L 77.745846 241.849328 
L 78.516161 239.453275 
L 79.310397 237.065045 
L 80.128475 234.684876 
L 80.970314 232.313007 
L 81.835829 229.949674 
L 82.724933 227.595115 
L 83.637539 225.249565 
L 84.573553 222.913258 
L 85.532884 220.586427 
L 86.515435 218.269306 
L 87.521107 215.962126 
L 88.549801 213.665118 
L 89.601412 211.378512 
L 90.675837 209.102536 
L 91.772967 206.837418 
L 92.892694 204.583384 
L 94.034904 202.34066 
L 95.199484 200.10947 
L 96.386318 197.890037 
L 97.595286 195.682584 
L 98.826268 193.48733 
L 100.07914 191.304495 
L 101.353778 189.134299 
L 102.650053 186.976956 
L 103.967837 184.832685 
L 105.306998 182.701698 
L 106.667401 180.584209 
L 108.04891 178.48043 
L 109.451388 176.39057 
L 110.874694 174.31484 
L 112.318685 172.253447 
L 113.108599 171.144082 
L 106.779968 166.611978 
L 105.965624 167.755653 
L 104.476973 169.880801 
L 103.009647 172.020729 
L 101.563794 174.175223 
L 100.139557 176.344068 
L 98.73708 178.527046 
L 97.356503 180.72394 
L 95.997962 182.934529 
L 94.661596 185.158593 
L 93.347536 187.395909 
L 92.055915 189.646254 
L 90.786862 191.909402 
L 89.540503 194.185128 
L 88.316963 196.473203 
L 87.116365 198.773399 
L 85.938829 201.085485 
L 84.784472 203.409232 
L 83.653409 205.744405 
L 82.545755 208.090772 
L 81.461619 210.448098 
L 80.40111 212.816147 
L 79.364335 215.194683 
L 78.351396 217.583468 
L 77.362395 219.982262 
L 76.397432 222.390826 
L 75.456602 224.80892 
L 74.539999 227.2363 
L 73.647715 229.672725 
L 72.779841 232.117951 
L 71.936461 234.571733 
L 71.117661 237.033827 
L 70.323522 239.503985 
L 69.554124 241.98196 
L 68.809544 244.467506 
L 68.089857 246.960373 
L 67.395133 249.460312 
L 66.725443 251.967074 
L 66.080854 254.480406 
L 65.46143 257.000059 
L 64.867234 259.52578 
L 64.298323 262.057317 
L 63.754756 264.594416 
L 63.236587 267.136824 
L 62.743867 269.684286 
L 62.276647 272.236548 
L 61.834971 274.793354 
L 61.418886 277.35445 
L 61.028432 279.919578 
L 60.663648 282.488482 
L 60.324571 285.060906 
L 60.011235 287.636592 
L 59.72367 290.215282 
L 59.461907 292.796719 
L 59.225971 295.380644 
L 59.015885 297.9668 
L 58.831671 300.554927 
L 58.673347 303.144767 
L 58.540929 305.73606 
L 58.43443 308.328548 
L 58.353861 310.921972 
L 58.29923 313.516071 
L 58.270542 316.110587 
L 58.2678 318.705261 
L 58.291005 321.299831 
L 58.340153 323.894041 
L 58.415241 326.487629 
L 58.516261 329.080336 
L 58.643202 331.671904 
L 58.796052 334.262072 
L 58.974796 336.850583 
L 59.179415 339.437177 
L 59.40989 342.021595 
L 59.666197 344.603579 
L 59.94831 347.182872 
L 60.256202 349.759214 
L 60.589842 352.332348 
L 60.949195 354.902018 
L 61.334227 357.467965 
L 61.744899 360.029934 
L 62.18117 362.587669 
L 62.642995 365.140913 
L 63.13033 367.68941 
L 63.643125 370.232908 
L 64.181328 372.77115 
L 64.744887 375.303883 
L 65.333745 377.830854 
L 65.947842 380.351811 
L 66.587118 382.8665 
L 67.251508 385.374671 
L 67.940946 387.876073 
L 68.655364 390.370456 
L 69.394689 392.857569 
L 70.158848 395.337166 
L 70.947764 397.808997 
L 71.761359 400.272815 
L 72.599551 402.728374 
L 73.462256 405.175429 
L 74.349388 407.613734 
L 75.260859 410.043046 
L 76.196576 412.463123 
L 77.156447 414.873721 
L 78.140376 417.2746 
L 79.148264 419.66552 
L 80.18001 422.046242 
L 81.235512 424.416527 
L 82.314663 426.77614 
L 83.417356 429.124842 
L 84.543481 431.462401 
L 85.692924 433.788582 
L 86.865571 436.103152 
L 88.061305 438.40588 
L 89.280006 440.696536 
L 90.521553 442.97489 
L 91.78582 445.240715 
L 93.072682 447.493785 
L 94.382011 449.733874 
L 95.713674 451.960757 
L 97.067539 454.174213 
L 98.44347 456.374019 
L 99.841331 458.559957 
L 101.26098 460.731807 
L 102.702277 462.889352 
L 104.165077 465.032376 
L 105.649233 467.160666 
L 107.154598 469.274007 
L 108.681021 471.37219 
L 110.228348 473.455004 
L 111.796427 475.52224 
L 113.385098 477.573693 
L 114.994205 479.609157 
L 116.623585 481.628428 
L 118.273077 483.631305 
L 119.942514 485.617587 
L 121.63173 487.587075 
L 123.340557 489.539573 
L 125.068822 491.474886 
L 126.816354 493.392819 
L 128.582978 495.293182 
L 130.368517 497.175783 
L 132.172792 499.040436 
L 133.995623 500.886952 
L 135.836827 502.715149 
L 137.696222 504.524842 
L 139.57362 506.315851 
L 144.918441 500.656838 
z
" clip-path="url(#p7afc0bf320)" style="fill: none; stroke: #000000; stroke-width: 0.5; stroke-linejoin: miter"/>
   </g>
   <g id="patch_15">
    <path d="M 126.658893 153.867396 
L 128.306566 151.964864 
L 129.973182 150.078904 
L 131.658574 148.209704 
L 133.362574 146.357451 
L 135.08501 144.52233 
L 136.825712 142.704525 
L 138.584504 140.904218 
L 140.361211 139.121589 
L 142.155655 137.356815 
L 143.967656 135.610074 
L 145.797035 133.881539 
L 147.643607 132.171385 
L 149.507187 130.479782 
L 151.387591 128.806898 
L 153.284629 127.152902 
L 154.543833 126.073277 
L 149.496704 120.14723 
L 148.198555 121.260246 
L 146.242846 122.965397 
L 144.304286 124.690019 
L 142.383069 126.43394 
L 140.479386 128.196986 
L 138.593429 129.97898 
L 136.725386 131.779744 
L 134.875444 133.599098 
L 133.043787 135.436861 
L 131.2306 137.292848 
L 129.436062 139.166873 
L 127.660355 141.05875 
L 125.903654 142.968289 
L 124.166136 144.8953 
L 122.447975 146.839589 
L 120.749343 148.800962 
L 126.658893 153.867396 
z
" clip-path="url(#p7afc0bf320)" style="fill: none; stroke: #000000; stroke-width: 0.5; stroke-linejoin: miter"/>
   </g>
   <g id="patch_16">
    <path d="M 171.864632 112.579417 
L 173.922918 111.130999 
L 175.995586 109.703237 
L 178.082427 108.296272 
L 180.183233 106.910245 
L 182.297794 105.545296 
L 184.425898 104.20156 
L 186.567333 102.879171 
L 188.353647 101.798525 
L 184.352183 95.121713 
L 182.510622 96.235782 
L 180.302957 97.599068 
L 178.109035 98.984363 
L 175.929075 100.391528 
L 173.763295 101.820421 
L 171.611913 103.270901 
L 169.475143 104.742821 
L 167.353198 106.236035 
L 171.864632 112.579417 
z
" clip-path="url(#p7afc0bf320)" style="fill: none; stroke: #000000; stroke-width: 0.5; stroke-linejoin: miter"/>
   </g>
   <g id="patch_17">
    <path d="M 207.661474 91.343758 
L 209.930323 90.254364 
L 212.209953 89.187713 
L 214.500135 88.143912 
L 216.80064 87.123064 
L 219.111239 86.125272 
L 221.4317 85.150635 
L 223.761791 84.199251 
L 226.101279 83.271216 
L 228.449931 82.366621 
L 230.80751 81.485557 
L 233.173783 80.628113 
L 235.548511 79.794375 
L 237.931458 78.984424 
L 240.322385 78.198344 
L 242.721054 77.436211 
L 245.127223 76.698103 
L 247.540654 75.984093 
L 249.961103 75.294253 
L 252.38833 74.628651 
L 254.822091 73.987355 
L 257.262144 73.370427 
L 259.708243 72.777931 
L 262.160146 72.209925 
L 264.617605 71.666466 
L 267.080377 71.147608 
L 269.548213 70.653404 
L 272.020868 70.183902 
L 274.498095 69.73915 
L 276.979645 69.319192 
L 279.46527 68.92407 
L 281.954723 68.553823 
L 284.447753 68.208489 
L 286.944112 67.888103 
L 289.44355 67.592695 
L 291.945817 67.322297 
L 294.450663 67.076934 
L 295.798582 66.955353 
L 295.120157 59.200918 
L 293.730549 59.326258 
L 291.148234 59.57921 
L 288.568577 59.857971 
L 285.991837 60.162515 
L 283.418271 60.49281 
L 280.848137 60.848825 
L 278.281691 61.230522 
L 275.719191 61.637864 
L 273.160892 62.070811 
L 270.60705 62.529318 
L 268.057921 63.013341 
L 265.513759 63.52283 
L 262.97482 64.057735 
L 260.441356 64.618002 
L 257.913622 65.203575 
L 255.39187 65.814396 
L 252.876352 66.450404 
L 250.36732 67.111534 
L 247.865024 67.797721 
L 245.369715 68.508897 
L 242.881643 69.24499 
L 240.401056 70.005926 
L 237.928202 70.791629 
L 235.463328 71.602022 
L 233.006682 72.437022 
L 230.558508 73.296546 
L 228.119052 74.180509 
L 225.688557 75.088822 
L 223.267267 76.021394 
L 220.855424 76.978132 
L 218.453268 77.95894 
L 216.06104 78.96372 
L 213.67898 79.992372 
L 211.307325 81.044792 
L 208.946312 82.120876 
L 206.596179 83.220516 
L 204.257159 84.343602 
L 207.661474 91.343758 
z
" clip-path="url(#p7afc0bf320)" style="fill: none; stroke: #000000; stroke-width: 0.5; stroke-linejoin: miter"/>
   </g>
   <g id="text_1">
    <text style="font: 10px 'DejaVu Sans', 'Bitstream Vera Sans', 'Computer Modern Sans Serif', 'Lucida Grande', 'Verdana', 'Geneva', 'Lucid', 'Arial', 'Helvetica', 'Avant Garde', sans-serif; text-anchor: middle" x="346.34059" y="44.654958" transform="rotate(-354.018692 346.34059 44.654958)">AAA</text>
   </g>
   <g id="text_2">
    <text style="font: 10px 'DejaVu Sans', 'Bitstream Vera Sans', 'Computer Modern Sans Serif', 'Lucida Grande', 'Verdana', 'Geneva', 'Lucid', 'Arial', 'Helvetica', 'Avant Garde', sans-serif; text-anchor: middle" x="525.270591" y="137.985576" transform="rotate(-310.88785 525.270591 137.985576)">CA1v</text>
   </g>
   <g id="text_3">
    <text style="font: 10px 'DejaVu Sans', 'Bitstream Vera Sans', 'Computer Modern Sans Serif', 'Lucida Grande', 'Verdana', 'Geneva', 'Lucid', 'Arial', 'Helvetica', 'Avant Garde', sans-serif; text-anchor: middle" x="526.272282" y="504.589989" transform="rotate(-48.130841 526.272282 504.589989)">SUBv</text>
   </g>
   <g id="text_4">
    <text style="font: 10px 'DejaVu Sans', 'Bitstream Vera Sans', 'Computer Modern Sans Serif', 'Lucida Grande', 'Verdana', 'Geneva', 'Lucid', 'Arial', 'Helvetica', 'Avant Garde', sans-serif; text-anchor: middle" x="220.025886" y="580.123898" transform="rotate(-339.579439 220.025886 580.123898)">MEA</text>
   </g>
   <g id="text_5">
    <text style="font: 10px 'DejaVu Sans', 'Bitstream Vera Sans', 'Computer Modern Sans Serif', 'Lucida Grande', 'Verdana', 'Geneva', 'Lucid', 'Arial', 'Helvetica', 'Avant Garde', sans-serif; text-anchor: middle" x="38.989744" y="344.590995" transform="rotate(-275.514019 38.989744 344.590995)">BST</text>
   </g>
   <g id="text_6">
    <text style="font: 10px 'DejaVu Sans', 'Bitstream Vera Sans', 'Computer Modern Sans Serif', 'Lucida Grande', 'Verdana', 'Geneva', 'Lucid', 'Arial', 'Helvetica', 'Avant Garde', sans-serif; text-anchor: middle" x="123.935092" y="123.249606" transform="rotate(-44.906542 123.935092 123.249606)">IA</text>
   </g>
   <g id="text_7">
    <text style="font: 10px 'DejaVu Sans', 'Bitstream Vera Sans', 'Computer Modern Sans Serif', 'Lucida Grande', 'Verdana', 'Geneva', 'Lucid', 'Arial', 'Helvetica', 'Avant Garde', sans-serif; text-anchor: middle" x="167.506301" y="87.91335" transform="rotate(-33.17757 167.506301 87.91335)">PAR</text>
   </g>
   <g id="text_8">
    <text style="font: 10px 'DejaVu Sans', 'Bitstream Vera Sans', 'Computer Modern Sans Serif', 'Lucida Grande', 'Verdana', 'Geneva', 'Lucid', 'Arial', 'Helvetica', 'Avant Garde', sans-serif; text-anchor: middle" x="244.522644" y="53.102835" transform="rotate(-15.46729 244.522644 53.102835)">CEA</text>
   </g>
  </g>
 </g>
 <defs>
  <clipPath id="p7afc0bf320">
   <path d="M 590.176306 317.682109 
C 590.176306 281.905357 583.129066 246.476488 569.437895 213.423079 
C 555.746725 180.36967 535.677883 150.334525 510.379899 125.036541 
C 485.081914 99.738557 455.04677 79.669715 421.993361 65.978545 
C 388.939951 52.287374 353.511083 45.240134 317.734331 45.240134 
C 281.957578 45.240134 246.52871 52.287374 213.4753 65.978545 
C 180.421891 79.669715 150.386747 99.738557 125.088762 125.036541 
C 99.790778 150.334525 79.721936 180.36967 66.030766 213.423079 
C 52.339595 246.476488 45.292355 281.905357 45.292355 317.682109 
C 45.292355 353.458862 52.339595 388.88773 66.030766 421.941139 
C 79.721936 454.994549 99.790778 485.029693 125.088762 510.327677 
C 150.386747 535.625662 180.421891 555.694504 213.4753 569.385674 
C 246.52871 583.076844 281.957578 590.124084 317.734331 590.124084 
C 353.511083 590.124084 388.939951 583.076844 421.993361 569.385674 
C 455.04677 555.694504 485.081914 535.625662 510.379899 510.327677 
C 535.677883 485.029693 555.746725 454.994549 569.437895 421.941139 
C 583.129066 388.88773 590.176306 353.458862 590.176306 317.682109 
M 317.734331 317.682109 
C 317.734331 317.682109 317.734331 317.682109 317.734331 317.682109 
C 317.734331 317.682109 317.734331 317.682109 317.734331 317.682109 
C 317.734331 317.682109 317.734331 317.682109 317.734331 317.682109 
C 317.734331 317.682109 317.734331 317.682109 317.734331 317.682109 
C 317.734331 317.682109 317.734331 317.682109 317.734331 317.682109 
C 317.734331 317.682109 317.734331 317.682109 317.734331 317.682109 
C 317.734331 317.682109 317.734331 317.682109 317.734331 317.682109 
C 317.734331 317.682109 317.734331 317.682109 317.734331 317.682109 
C 317.734331 317.682109 317.734331 317.682109 317.734331 317.682109 
C 317.734331 317.682109 317.734331 317.682109 317.734331 317.682109 
C 317.734331 317.682109 317.734331 317.682109 317.734331 317.682109 
C 317.734331 317.682109 317.734331 317.682109 317.734331 317.682109 
C 317.734331 317.682109 317.734331 317.682109 317.734331 317.682109 
C 317.734331 317.682109 317.734331 317.682109 317.734331 317.682109 
C 317.734331 317.682109 317.734331 317.682109 317.734331 317.682109 
C 317.734331 317.682109 317.734331 317.682109 317.734331 317.682109 
z
"/>
  </clipPath>
 </defs>
</svg>
