<?xml version="1.0" encoding="utf-8" standalone="no"?>
<!DOCTYPE svg PUBLIC "-//W3C//DTD SVG 1.1//EN"
  "http://www.w3.org/Graphics/SVG/1.1/DTD/svg11.dtd">
<svg xmlns:xlink="http://www.w3.org/1999/xlink" width="619.986214pt" height="624.856369pt" viewBox="0 0 619.986214 624.856369" xmlns="http://www.w3.org/2000/svg" version="1.1">
 <metadata>
  <rdf:RDF xmlns:dc="http://purl.org/dc/elements/1.1/" xmlns:cc="http://creativecommons.org/ns#" xmlns:rdf="http://www.w3.org/1999/02/22-rdf-syntax-ns#">
   <cc:Work>
    <dc:type rdf:resource="http://purl.org/dc/dcmitype/StillImage"/>
    <dc:date>2024-12-19T12:18:54.624479</dc:date>
    <dc:format>image/svg+xml</dc:format>
    <dc:creator>
     <cc:Agent>
      <dc:title>Matplotlib v3.9.3, https://matplotlib.org/</dc:title>
     </cc:Agent>
    </dc:creator>
   </cc:Work>
  </rdf:RDF>
 </metadata>
 <defs>
  <style type="text/css">*{stroke-linejoin: round; stroke-linecap: butt}</style>
 </defs>
 <g id="figure_1">
  <g id="patch_1">
   <path d="M 0 624.856369 
L 619.986214 624.856369 
L 619.986214 0 
L 0 0 
z
" style="fill: #ffffff"/>
  </g>
  <g id="axes_1">
   <g id="patch_2">
    <path d="M 314.699037 65.682382 
L 317.186696 65.69482 
L 319.674106 65.732134 
L 322.161019 65.79432 
L 324.647186 65.881371 
L 327.132358 65.99328 
L 329.616286 66.130034 
L 332.098723 66.29162 
L 334.57942 66.478022 
L 337.058129 66.689221 
L 339.534602 66.925196 
L 342.008591 67.185924 
L 344.47985 67.471378 
L 346.94813 67.78153 
L 349.413186 68.116349 
L 351.87477 68.475802 
L 354.332637 68.859851 
L 356.78654 69.26846 
L 359.236234 69.701587 
L 361.681475 70.159189 
L 364.122018 70.641221 
L 366.557619 71.147633 
L 368.988033 71.678375 
L 371.413019 72.233394 
L 373.832333 72.812636 
L 376.245734 73.416041 
L 378.652981 74.043549 
L 381.053832 74.695098 
L 383.448048 75.370623 
L 385.835389 76.070055 
L 386.838975 76.371842 
L 389.070107 69.008525 
L 388.035482 68.697404 
L 385.574306 67.97634 
L 383.106042 67.279923 
L 380.630938 66.608223 
L 378.149241 65.961307 
L 375.661198 65.33924 
L 373.16706 64.742084 
L 370.667074 64.169899 
L 368.161492 63.622742 
L 365.650564 63.100667 
L 363.13454 62.603728 
L 360.613674 62.131973 
L 358.088215 61.685451 
L 355.558418 61.264204 
L 353.024535 60.868277 
L 350.486819 60.497707 
L 347.945525 60.152533 
L 345.400906 59.832788 
L 342.853217 59.538506 
L 340.302712 59.269714 
L 337.749647 59.026441 
L 335.194277 58.80871 
L 332.636858 58.616543 
L 330.077645 58.449959 
L 327.516893 58.308976 
L 324.954861 58.193606 
L 322.391802 58.103863 
L 319.827975 58.039754 
L 317.263634 58.001286 
L 314.699037 57.988463 
z
" clip-path="url(#pa4e0fdb0ae)" style="fill: #000080"/>
   </g>
   <g id="patch_3">
    <path d="M 407.314552 83.56522 
L 409.618755 84.502904 
L 411.913466 85.463583 
L 414.198456 86.447161 
L 416.473496 87.453538 
L 418.738359 88.482616 
L 420.992817 89.53429 
L 423.236647 90.608456 
L 425.469622 91.705006 
L 427.691521 92.823831 
L 429.902121 93.964818 
L 432.1012 95.127854 
L 434.288539 96.312822 
L 436.46392 97.519604 
L 438.627124 98.748079 
L 440.777935 99.998125 
L 442.916139 101.269615 
L 445.04152 102.562424 
L 447.153868 103.876422 
L 449.252971 105.211477 
L 451.338618 106.567455 
L 453.410601 107.944223 
L 455.468713 109.34164 
L 455.60395 109.43452 
L 459.961834 103.09376 
L 459.822415 102.998007 
L 457.700649 101.55737 
L 455.564584 100.138023 
L 453.414433 98.740106 
L 451.250409 97.363761 
L 449.072731 96.009125 
L 446.881616 94.676332 
L 444.677282 93.365517 
L 442.459951 92.076811 
L 440.229844 90.810341 
L 437.987184 89.566236 
L 435.732195 88.34462 
L 433.465103 87.145613 
L 431.186134 85.969338 
L 428.895517 84.81591 
L 426.59348 83.685446 
L 424.280254 82.578059 
L 421.95607 81.493858 
L 419.62116 80.432954 
L 417.275758 79.395451 
L 414.920098 78.381454 
L 412.554417 77.391063 
L 410.17895 76.424379 
z
" clip-path="url(#pa4e0fdb0ae)" style="fill: #0000df"/>
   </g>
   <g id="patch_4">
    <path d="M 472.936253 122.495348 
L 474.847881 124.087291 
L 476.743493 125.698271 
L 478.622901 127.328127 
L 480.485917 128.976694 
L 482.332354 130.643809 
L 484.162028 132.329304 
L 485.974756 134.033012 
L 487.770357 135.754762 
L 489.54865 137.494381 
L 491.309459 139.251696 
L 493.052607 141.02653 
L 494.777919 142.818708 
L 496.485224 144.628048 
L 498.174351 146.454371 
L 499.84513 148.297493 
L 501.497394 150.157231 
L 503.130979 152.033398 
L 504.745721 153.925807 
L 506.341458 155.834268 
L 507.918031 157.758592 
L 509.475283 159.698584 
L 511.013057 161.654052 
L 512.5312 163.624799 
L 514.02956 165.610629 
L 515.507986 167.611343 
L 516.966333 169.626741 
L 518.404452 171.656621 
L 519.822201 173.700781 
L 521.219438 175.759016 
L 522.596024 177.83112 
L 523.951819 179.916887 
L 525.28669 182.016106 
L 526.600502 184.12857 
L 527.893124 186.254065 
L 529.164427 188.39238 
L 530.414283 190.543301 
L 531.642568 192.706613 
L 532.849159 194.8821 
L 534.033935 197.069543 
L 535.196778 199.268725 
L 536.337571 201.479424 
L 537.456201 203.701421 
L 538.552555 205.934493 
L 539.626523 208.178417 
L 540.678 210.432968 
L 541.706878 212.697921 
L 542.713056 214.973049 
L 543.696433 217.258125 
L 544.65691 219.552921 
L 545.594392 221.857206 
L 546.508784 224.170751 
L 547.399995 226.493324 
L 548.267937 228.824693 
L 549.112522 231.164624 
L 549.933665 233.512884 
L 550.731286 235.869238 
L 551.505303 238.23345 
L 552.25564 240.605285 
L 552.982222 242.984503 
L 553.684975 245.370869 
L 554.36383 247.764142 
L 555.018719 250.164085 
L 555.649576 252.570456 
L 556.256338 254.983015 
L 556.838945 257.401521 
L 557.397337 259.825733 
L 557.931461 262.255407 
L 558.441261 264.6903 
L 558.926687 267.13017 
L 559.38769 269.574772 
L 559.824225 272.023861 
L 560.236248 274.477194 
L 560.623717 276.934524 
L 560.986594 279.395605 
L 561.324842 281.860193 
L 561.638428 284.328039 
L 561.92732 286.798898 
L 562.191489 289.272522 
L 562.43091 291.748665 
L 562.645557 294.227077 
L 562.83541 296.707513 
L 563.00045 299.189722 
L 563.14066 301.673458 
L 563.256025 304.158472 
L 563.346536 306.644515 
L 563.412181 309.131339 
L 563.452956 311.618695 
L 563.468855 314.106334 
L 563.468903 314.762574 
L 571.162816 314.772165 
L 571.162767 314.09563 
L 571.146376 311.531053 
L 571.10434 308.966769 
L 571.036664 306.403033 
L 570.943355 303.840102 
L 570.824421 301.278232 
L 570.679875 298.717679 
L 570.509731 296.1587 
L 570.314006 293.601551 
L 570.09272 291.046486 
L 569.845895 288.493762 
L 569.573555 285.943634 
L 569.275728 283.396357 
L 568.952444 280.852185 
L 568.603735 278.311373 
L 568.229635 275.774176 
L 567.830182 273.240846 
L 567.405417 270.711637 
L 566.955381 268.186803 
L 566.480119 265.666594 
L 565.97968 263.151265 
L 565.454113 260.641065 
L 564.90347 258.136247 
L 564.327808 255.63706 
L 563.727182 253.143755 
L 563.101654 250.65658 
L 562.451286 248.175785 
L 561.776143 245.701618 
L 561.076293 243.234325 
L 560.351805 240.774155 
L 559.602752 238.321352 
L 558.829208 235.876162 
L 558.031252 233.43883 
L 557.208963 231.009599 
L 556.362423 228.588712 
L 555.491717 226.176412 
L 554.596932 223.772939 
L 553.678157 221.378534 
L 552.735485 218.993436 
L 551.769009 216.617884 
L 550.778826 214.252116 
L 549.765036 211.896367 
L 548.727739 209.550874 
L 547.66704 207.215871 
L 546.583044 204.891592 
L 545.475859 202.578268 
L 544.345597 200.276132 
L 543.192371 197.985413 
L 542.016296 195.706342 
L 540.817489 193.439144 
L 539.59607 191.184048 
L 538.352162 188.941278 
L 537.085889 186.71106 
L 535.797377 184.493615 
L 534.486755 182.289167 
L 533.154155 180.097934 
L 531.79971 177.920137 
L 530.423555 175.755993 
L 529.025827 173.605719 
L 527.606667 171.469529 
L 526.166217 169.347637 
L 524.70462 167.240256 
L 523.222022 165.147596 
L 521.718572 163.069866 
L 520.194421 161.007274 
L 518.64972 158.960026 
L 517.084625 156.928328 
L 515.499291 154.912382 
L 513.893877 152.91239 
L 512.268543 150.928552 
L 510.623453 148.961066 
L 508.958771 147.010129 
L 507.274663 145.075936 
L 505.571297 143.15868 
L 503.848845 141.258554 
L 502.107477 139.375747 
L 500.347369 137.510448 
L 498.568696 135.662843 
L 496.771637 133.833116 
L 494.95637 132.021451 
L 493.123078 130.228029 
L 491.271943 128.45303 
L 489.403152 126.69663 
L 487.51689 124.959006 
L 485.613346 123.240331 
L 483.692711 121.540777 
L 481.755177 119.860513 
L 479.800938 118.199709 
L 477.830188 116.558531 
z
" clip-path="url(#pa4e0fdb0ae)" style="fill: #0028ff"/>
   </g>
   <g id="patch_5">
    <path d="M 562.495228 336.443116 
L 562.262936 338.919937 
L 562.005887 341.394311 
L 561.724107 343.865992 
L 561.417626 346.33473 
L 561.086472 348.800281 
L 560.73068 351.262397 
L 560.350285 353.720832 
L 559.945325 356.17534 
L 559.515841 358.625676 
L 559.061875 361.071595 
L 558.583474 363.512851 
L 558.080684 365.949202 
L 557.553556 368.380403 
L 557.002142 370.806211 
L 556.426499 373.226384 
L 555.826683 375.64068 
L 555.202755 378.048857 
L 554.554776 380.450674 
L 553.882812 382.845892 
L 553.18693 385.23427 
L 552.467199 387.61557 
L 551.723692 389.989554 
L 550.956482 392.355984 
L 550.165647 394.714624 
L 549.351265 397.065238 
L 548.513418 399.407591 
L 547.65219 401.741448 
L 546.767667 404.066576 
L 545.859937 406.382743 
L 544.929092 408.689717 
L 543.975223 410.987267 
L 542.998427 413.275164 
L 541.998802 415.553179 
L 540.976446 417.821084 
L 539.931463 420.078652 
L 538.863957 422.325657 
L 537.774035 424.561875 
L 536.661805 426.787083 
L 535.52738 429.001057 
L 534.370871 431.203576 
L 533.192396 433.39442 
L 531.992071 435.57337 
L 530.770018 437.740209 
L 529.526357 439.894718 
L 528.261214 442.036683 
L 526.974715 444.16589 
L 525.666988 446.282126 
L 524.338165 448.385179 
L 522.988378 450.474839 
L 521.617762 452.550896 
L 520.226455 454.613144 
L 518.814595 456.661376 
L 517.382324 458.695387 
L 515.929784 460.714974 
L 514.457122 462.719935 
L 512.964484 464.71007 
L 511.452019 466.685178 
L 509.91988 468.645064 
L 508.368218 470.58953 
L 506.79719 472.518383 
L 505.206952 474.431429 
L 503.597664 476.328478 
L 501.969485 478.209339 
L 500.32258 480.073824 
L 498.657113 481.921748 
L 496.97325 483.752924 
L 495.27116 485.567171 
L 493.551012 487.364307 
L 491.81298 489.144151 
L 490.057236 490.906526 
L 488.283957 492.651257 
L 486.493319 494.378167 
L 484.685503 496.087085 
L 482.860687 497.77784 
L 481.019056 499.450262 
L 479.160792 501.104185 
L 477.286083 502.739442 
L 475.395115 504.355871 
L 473.488078 505.95331 
L 471.565162 507.531599 
L 469.626559 509.09058 
L 467.672464 510.630098 
L 465.703071 512.149998 
L 463.718578 513.650128 
L 461.719184 515.130339 
L 459.705087 516.590482 
L 457.67649 518.030412 
L 455.633596 519.449984 
L 453.576608 520.849056 
L 451.505732 522.227489 
L 449.421176 523.585144 
L 447.323148 524.921887 
L 445.211857 526.237582 
L 443.087516 527.5321 
L 440.950335 528.805309 
L 438.80053 530.057083 
L 436.638314 531.287298 
L 434.463905 532.495828 
L 432.277519 533.682555 
L 430.079376 534.847359 
L 427.869694 535.990123 
L 425.648696 537.110734 
L 423.416603 538.209079 
L 421.173638 539.285049 
L 418.920026 540.338536 
L 416.655991 541.369434 
L 414.381761 542.377641 
L 412.097563 543.363056 
L 409.803625 544.325579 
L 407.500177 545.265116 
L 405.187449 546.181571 
L 402.865672 547.074854 
L 400.535078 547.944874 
L 398.195901 548.791546 
L 395.848374 549.614784 
L 393.492732 550.414506 
L 391.129211 551.190631 
L 388.758047 551.943084 
L 386.379478 552.671787 
L 383.99374 553.376669 
L 381.601073 554.057658 
L 379.201716 554.714687 
L 376.795908 555.34769 
L 374.383891 555.956604 
L 371.965905 556.541367 
L 369.542193 557.101922 
L 367.112997 557.638212 
L 364.678559 558.150184 
L 362.239123 558.637786 
L 359.794933 559.10097 
L 357.346234 559.539689 
L 354.89327 559.953899 
L 352.436287 560.34356 
L 349.975529 560.708632 
L 347.511245 561.049078 
L 345.043679 561.364865 
L 342.573079 561.655961 
L 340.099691 561.922336 
L 337.623763 562.163965 
L 335.145543 562.380823 
L 332.665278 562.572889 
L 330.183217 562.740142 
L 327.699607 562.882567 
L 325.214697 563.000149 
L 322.728736 563.092877 
L 320.241971 563.160741 
L 317.754653 563.203734 
L 315.267028 563.221852 
L 312.779347 563.215093 
L 310.291858 563.183459 
L 307.80481 563.126951 
L 305.318451 563.045576 
L 302.83303 562.939343 
L 300.348796 562.80826 
L 299.202446 562.739368 
L 298.72317 570.418345 
L 299.904974 570.489368 
L 302.46604 570.624505 
L 305.02833 570.734024 
L 307.591586 570.817915 
L 310.155554 570.876171 
L 312.719975 570.908784 
L 315.284595 570.915751 
L 317.849156 570.897073 
L 320.413402 570.85275 
L 322.977077 570.782787 
L 325.539924 570.687192 
L 328.101686 570.565973 
L 330.662109 570.419143 
L 333.220935 570.246717 
L 335.777909 570.048711 
L 338.332775 569.825147 
L 340.885278 569.576045 
L 343.435162 569.30143 
L 345.982173 569.001332 
L 348.526055 568.675778 
L 351.066555 568.324803 
L 353.603418 567.94844 
L 356.136391 567.546728 
L 358.665219 567.119707 
L 361.189652 566.667419 
L 363.709435 566.18991 
L 366.224317 565.687227 
L 368.734047 565.159421 
L 371.238373 564.606545 
L 373.737046 564.028654 
L 376.229814 563.425805 
L 378.71643 562.798059 
L 381.196644 562.145478 
L 383.670208 561.468129 
L 386.136875 560.766078 
L 388.596399 560.039396 
L 391.048532 559.288155 
L 393.493031 558.512431 
L 395.929651 557.712301 
L 398.358147 556.887846 
L 400.778278 556.039147 
L 403.189801 555.16629 
L 405.592475 554.269361 
L 407.986059 553.348451 
L 410.370315 552.403652 
L 412.745004 551.435058 
L 415.109889 550.442765 
L 417.464732 549.426874 
L 419.809299 548.387486 
L 422.143355 547.324704 
L 424.466667 546.238635 
L 426.779002 545.129388 
L 429.080129 543.997073 
L 431.369818 542.841804 
L 433.64784 541.663696 
L 435.913967 540.462868 
L 438.167973 539.239438 
L 440.409632 537.99353 
L 442.63872 536.725268 
L 444.855015 535.434779 
L 447.058293 534.122192 
L 449.248336 532.787638 
L 451.424925 531.431251 
L 453.58784 530.053166 
L 455.736867 528.653521 
L 457.871791 527.232456 
L 459.992397 525.790114 
L 462.098474 524.326638 
L 464.189811 522.842174 
L 466.266199 521.336872 
L 468.32743 519.810881 
L 470.373299 518.264355 
L 472.403601 516.697448 
L 474.418132 515.110317 
L 476.416691 513.503119 
L 478.399079 511.876017 
L 480.365097 510.229173 
L 482.314548 508.562751 
L 484.247238 506.876919 
L 486.162974 505.171844 
L 488.061563 503.447697 
L 489.942816 501.704651 
L 491.806545 499.94288 
L 493.652563 498.16256 
L 495.480686 496.363869 
L 497.290731 494.546987 
L 499.082517 492.712096 
L 500.855865 490.859379 
L 502.610597 488.989022 
L 504.346538 487.101211 
L 506.063515 485.196135 
L 507.761355 483.273985 
L 509.439889 481.334953 
L 511.09895 479.379233 
L 512.73837 477.40702 
L 514.357987 475.418512 
L 515.957638 473.413908 
L 517.537163 471.393407 
L 519.096405 469.357213 
L 520.635207 467.305528 
L 522.153416 465.238558 
L 523.650879 463.15651 
L 525.127447 461.059591 
L 526.582973 458.948011 
L 528.017311 456.821983 
L 529.430316 454.681717 
L 530.821849 452.527429 
L 532.19177 450.359333 
L 533.539942 448.177647 
L 534.86623 445.982588 
L 536.170501 443.774376 
L 537.452625 441.553232 
L 538.712474 439.319379 
L 539.949922 437.073038 
L 541.164846 434.814436 
L 542.357122 432.543798 
L 543.526633 430.26135 
L 544.673262 427.967322 
L 545.796893 425.661942 
L 546.897415 423.345442 
L 547.974717 421.018052 
L 549.028691 418.680006 
L 550.059233 416.331537 
L 551.066239 413.97288 
L 552.049609 411.604272 
L 553.009244 409.225948 
L 553.945048 406.838147 
L 554.856927 404.441108 
L 555.744791 402.035069 
L 556.60855 399.620273 
L 557.448119 397.19696 
L 558.263413 394.765372 
L 559.054351 392.325753 
L 559.820853 389.878347 
L 560.562844 387.423399 
L 561.280248 384.961153 
L 561.972995 382.491857 
L 562.641014 380.015756 
L 563.284239 377.5331 
L 563.902606 375.044135 
L 564.496053 372.549112 
L 565.06452 370.048278 
L 565.607951 367.541885 
L 566.126291 365.030184 
L 566.619489 362.513424 
L 567.087495 359.991859 
L 567.530262 357.465739 
L 567.947747 354.935318 
L 568.339906 352.400849 
L 568.706702 349.862585 
L 569.048097 347.320781 
L 569.364058 344.775689 
L 569.654552 342.227565 
L 569.919551 339.676664 
L 570.159028 337.12324 
z
" clip-path="url(#pa4e0fdb0ae)" style="fill: #0080ff"/>
   </g>
   <g id="patch_6">
    <path d="M 277.621784 560.443944 
L 275.163763 560.060878 
L 272.709697 559.653252 
L 270.259829 559.221106 
L 267.814405 558.764483 
L 265.373669 558.283429 
L 262.937866 557.777992 
L 260.50724 557.248222 
L 258.082032 556.694174 
L 255.662486 556.115901 
L 253.248843 555.513462 
L 250.841346 554.886918 
L 248.440234 554.23633 
L 246.045748 553.561764 
L 243.658127 552.863287 
L 241.965711 552.352432 
L 239.716226 559.710164 
L 241.460985 560.236818 
L 243.92245 560.956898 
L 246.390992 561.652327 
L 248.866365 562.323036 
L 251.348322 562.968958 
L 253.836613 563.590029 
L 256.33099 564.186186 
L 258.831205 564.75737 
L 261.337006 565.303524 
L 263.848143 565.824593 
L 266.364365 566.320525 
L 268.88542 566.791271 
L 271.411057 567.236782 
L 273.941023 567.657016 
L 276.475064 568.051929 
z
" clip-path="url(#pa4e0fdb0ae)" style="fill: #00d4ff"/>
   </g>
   <g id="patch_7">
    <path d="M 221.508132 545.108023 
L 219.206275 544.164597 
L 216.913966 543.1982 
L 214.631436 542.208928 
L 212.358912 541.196881 
L 210.096622 540.16216 
L 207.844793 539.104868 
L 205.603649 538.025111 
L 203.373414 536.922997 
L 201.154312 535.798635 
L 198.946564 534.65214 
L 196.750391 533.483625 
L 194.566013 532.293206 
L 192.393649 531.081004 
L 190.233514 529.847139 
L 188.085826 528.591735 
L 185.9508 527.314917 
L 183.828648 526.016813 
L 181.719583 524.697553 
L 179.623816 523.357269 
L 177.541556 521.996094 
L 175.473012 520.614165 
L 173.41839 519.21162 
L 171.377896 517.788599 
L 169.351735 516.345245 
L 167.340108 514.881701 
L 165.343216 513.398115 
L 163.361261 511.894635 
L 161.394438 510.37141 
L 159.442946 508.828594 
L 157.50698 507.26634 
L 155.586733 505.684805 
L 153.682397 504.084147 
L 151.794162 502.464526 
L 149.922218 500.826104 
L 148.066751 499.169044 
L 146.227947 497.493514 
L 144.40599 495.799679 
L 142.601063 494.087709 
L 140.813345 492.357777 
L 139.043015 490.610054 
L 137.290251 488.844715 
L 135.555228 487.061937 
L 133.838119 485.261898 
L 132.139096 483.444779 
L 131.916359 483.203841 
L 126.263287 488.422957 
L 126.492912 488.671346 
L 128.244482 490.544665 
L 130.014698 492.400375 
L 131.803382 494.23829 
L 133.610355 496.058227 
L 135.435437 497.860004 
L 137.278445 499.643439 
L 139.139195 501.408356 
L 141.017501 503.154578 
L 142.913175 504.881929 
L 144.826027 506.590238 
L 146.755867 508.279333 
L 148.7025 509.949045 
L 150.665734 511.599208 
L 152.64537 513.229656 
L 154.641212 514.840227 
L 156.653059 516.43076 
L 158.680711 518.001094 
L 160.723964 519.551074 
L 162.782615 521.080544 
L 164.856457 522.589352 
L 166.945284 524.077346 
L 169.048886 525.544378 
L 171.167052 526.9903 
L 173.299572 528.41497 
L 175.446232 529.818243 
L 177.606816 531.199979 
L 179.78111 532.560041 
L 181.968896 533.898293 
L 184.169954 535.2146 
L 186.384065 536.508831 
L 188.611008 537.780857 
L 190.850559 539.03055 
L 193.102495 540.257785 
L 195.366591 541.46244 
L 197.642619 542.644394 
L 199.930354 543.803529 
L 202.229565 544.939729 
L 204.540023 546.052881 
L 206.861496 547.142873 
L 209.193754 548.209596 
L 211.536561 549.252944 
L 213.889685 550.272811 
L 216.25289 551.269097 
L 218.62594 552.241701 
z
" clip-path="url(#pa4e0fdb0ae)" style="fill: #36ffc1"/>
   </g>
   <g id="patch_8">
    <path d="M 117.904249 466.631131 
L 116.392327 464.655607 
L 114.900236 462.665063 
L 113.428124 460.659698 
L 111.976139 458.639712 
L 110.544427 456.605307 
L 109.133129 454.556688 
L 107.742388 452.494058 
L 106.372343 450.417624 
L 105.02313 448.327593 
L 103.694884 446.224176 
L 102.387739 444.107581 
L 101.101825 441.97802 
L 99.83727 439.835708 
L 98.594201 437.680857 
L 97.372743 435.513683 
L 96.173017 433.334403 
L 94.995143 431.143235 
L 93.83924 428.940399 
L 92.705422 426.726113 
L 91.593804 424.5006 
L 90.504496 422.264083 
L 89.437607 420.016784 
L 88.393244 417.758929 
L 87.371512 415.490744 
L 86.372512 413.212455 
L 85.396344 410.924289 
L 84.443107 408.626477 
L 83.512895 406.319248 
L 82.605801 404.002831 
L 81.721917 401.67746 
L 80.86133 399.343367 
L 80.024127 397.000784 
L 79.210391 394.649947 
L 78.420203 392.29109 
L 77.653644 389.924449 
L 76.910788 387.550261 
L 76.350301 385.701458 
L 68.97869 387.905035 
L 69.556513 389.811018 
L 70.322343 392.258634 
L 71.112611 394.69847 
L 71.927237 397.130282 
L 72.76614 399.553826 
L 73.629236 401.968859 
L 74.516439 404.375141 
L 75.42766 406.772431 
L 76.362808 409.160489 
L 77.32179 411.539076 
L 78.304508 413.907955 
L 79.310867 416.266888 
L 80.340763 418.61564 
L 81.394096 420.953975 
L 82.470759 423.281661 
L 83.570644 425.598463 
L 84.693642 427.904152 
L 85.83964 430.198495 
L 87.008525 432.481263 
L 88.200177 434.752229 
L 89.41448 437.011165 
L 90.651311 439.257845 
L 91.910547 441.492045 
L 93.192061 443.713541 
L 94.495726 445.92211 
L 95.82141 448.117533 
L 97.168983 450.29959 
L 98.538308 452.468062 
L 99.929249 454.622733 
L 101.341667 456.763386 
L 102.775421 458.889809 
L 104.230366 461.001788 
L 105.706359 463.099112 
L 107.20325 465.181572 
L 108.720891 467.248959 
L 110.25913 469.301066 
L 111.817812 471.337689 
z
" clip-path="url(#pa4e0fdb0ae)" style="fill: #7dff7a"/>
   </g>
   <g id="patch_9">
    <path d="M 71.047529 364.656872 
L 70.557675 362.217888 
L 70.092236 359.774127 
L 69.651257 357.325833 
L 69.234782 354.873253 
L 68.842854 352.41663 
L 68.475511 349.956211 
L 68.13279 347.492242 
L 67.814726 345.024968 
L 67.52135 342.554638 
L 67.252692 340.081497 
L 67.008777 337.605793 
L 66.789632 335.127774 
L 66.595278 332.647688 
L 66.425733 330.165782 
L 66.281016 327.682304 
L 66.16114 325.197504 
L 66.066118 322.711629 
L 65.995959 320.224929 
L 65.950671 317.737651 
L 65.930256 315.250044 
L 65.934719 312.762358 
L 65.964057 310.274841 
L 65.966867 310.110805 
L 58.274119 309.976528 
L 58.271223 310.145637 
L 58.240977 312.710087 
L 58.236377 315.274712 
L 58.257422 317.839255 
L 58.304112 320.403459 
L 58.376441 322.967068 
L 58.474401 325.529826 
L 58.597985 328.091475 
L 58.747178 330.651761 
L 58.921966 333.210427 
L 59.122331 335.767217 
L 59.348254 338.321876 
L 59.599712 340.874148 
L 59.876679 343.423778 
L 60.179129 345.97051 
L 60.50703 348.514091 
L 60.86035 351.054266 
L 61.239054 353.59078 
L 61.643104 356.123381 
L 62.072459 358.651814 
L 62.527077 361.175828 
L 63.006912 363.69517 
L 63.511915 366.209587 
z
" clip-path="url(#pa4e0fdb0ae)" style="fill: #c1ff36"/>
   </g>
   <g id="patch_10">
    <path d="M 67.291766 288.448889 
L 67.564168 285.976158 
L 67.861282 283.506274 
L 68.183081 281.039485 
L 68.52953 278.576037 
L 68.900597 276.116177 
L 69.296243 273.66015 
L 69.716429 271.208203 
L 70.161113 268.76058 
L 70.630251 266.317526 
L 71.123795 263.879285 
L 71.641697 261.446102 
L 72.183905 259.01822 
L 72.750363 256.59588 
L 73.341016 254.179327 
L 73.955805 251.7688 
L 74.594668 249.364542 
L 75.257542 246.966793 
L 75.944359 244.575792 
L 76.655051 242.191779 
L 77.389548 239.814992 
L 78.147775 237.445668 
L 78.929658 235.084046 
L 79.735117 232.730359 
L 80.564072 230.384846 
L 81.416441 228.047738 
L 82.292137 225.719271 
L 83.191075 223.399678 
L 84.113162 221.089189 
L 85.058308 218.788037 
L 85.463345 217.821494 
L 78.373581 214.832908 
L 77.956018 215.829344 
L 76.98164 218.201666 
L 76.031034 220.583613 
L 75.104295 222.974947 
L 74.201515 225.375428 
L 73.322785 227.784817 
L 72.468192 230.202872 
L 71.637821 232.629353 
L 70.831757 235.064016 
L 70.050079 237.506617 
L 69.292866 239.956913 
L 68.560194 242.414659 
L 67.852135 244.879608 
L 67.16876 247.351515 
L 66.510138 249.830131 
L 65.876335 252.31521 
L 65.267414 254.806502 
L 64.683437 257.303759 
L 64.12446 259.806731 
L 63.590541 262.315167 
L 63.081732 264.828817 
L 62.598085 267.347429 
L 62.139647 269.870752 
L 61.706466 272.398533 
L 61.298583 274.930519 
L 60.91604 277.466458 
L 60.558876 280.006095 
L 60.227125 282.549176 
L 59.920821 285.095448 
L 59.639995 287.644656 
z
" clip-path="url(#pa4e0fdb0ae)" style="fill: #ffe600"/>
   </g>
   <g id="patch_11">
    <path d="M 94.757598 198.209997 
L 95.931 196.016431 
L 97.126279 193.834709 
L 98.343315 191.665049 
L 99.581986 189.507667 
L 100.842168 187.362779 
L 102.123737 185.230601 
L 103.426562 183.111344 
L 104.750515 181.005222 
L 106.095462 178.912444 
L 107.46127 176.83322 
L 108.847801 174.767757 
L 110.254917 172.716263 
L 111.682477 170.678943 
L 113.130339 168.656 
L 114.598357 166.647636 
L 116.086386 164.654053 
L 117.594275 162.675449 
L 119.121875 160.712023 
L 120.669032 158.763971 
L 122.235592 156.831488 
L 123.821399 154.914767 
L 125.426293 153.013999 
L 125.5328 152.889212 
L 119.682298 147.892411 
L 119.572496 148.021057 
L 117.917967 149.980612 
L 116.283115 151.956613 
L 114.668104 153.948864 
L 113.073097 155.957165 
L 111.498251 157.981316 
L 109.943726 160.021113 
L 108.409676 162.076354 
L 106.896255 164.146832 
L 105.403614 166.23234 
L 103.931903 168.33267 
L 102.481268 170.447612 
L 101.051854 172.576955 
L 99.643805 174.720485 
L 98.257262 176.877988 
L 96.892362 179.049248 
L 95.549243 181.234049 
L 94.228039 183.432171 
L 92.928881 185.643395 
L 91.651901 187.8675 
L 90.397224 190.104264 
L 89.164978 192.353462 
L 87.955286 194.61487 
z
" clip-path="url(#pa4e0fdb0ae)" style="fill: #ff9400"/>
   </g>
   <g id="patch_12">
    <path d="M 140.333798 137.017085 
L 142.11684 135.282333 
L 143.91714 133.565498 
L 145.734518 131.866752 
L 147.568793 130.186264 
L 149.419781 128.524203 
L 151.287296 126.880734 
L 153.171152 125.256023 
L 155.071161 123.65023 
L 156.987133 122.063518 
L 158.918876 120.496045 
L 160.866196 118.947967 
L 162.8289 117.419439 
L 164.80679 115.910615 
L 166.79967 114.421644 
L 168.224876 113.375683 
L 163.694747 107.156814 
L 162.225463 108.235125 
L 160.170948 109.770146 
L 158.131885 111.325635 
L 156.108479 112.901437 
L 154.100932 114.497393 
L 152.109445 116.113345 
L 150.134217 117.749131 
L 148.175444 119.404587 
L 146.233325 121.079547 
L 144.308051 122.773845 
L 142.399816 124.48731 
L 140.508812 126.219772 
L 138.635226 127.971057 
L 136.779246 129.740989 
L 134.941058 131.529393 
z
" clip-path="url(#pa4e0fdb0ae)" style="fill: #ff4700"/>
   </g>
   <g id="patch_13">
    <path d="M 186.307249 101.374777 
L 188.444409 100.101534 
L 190.594195 98.849726 
L 192.756392 97.619479 
L 194.930782 96.410914 
L 197.11715 95.224153 
L 199.315275 94.059315 
L 201.524939 92.916517 
L 203.74592 91.795871 
L 205.977996 90.697491 
L 208.220944 89.621487 
L 210.47454 88.567965 
L 212.738558 87.537031 
L 215.012773 86.528789 
L 217.296955 85.543339 
L 219.590878 84.58078 
L 221.894312 83.641208 
L 224.207026 82.724717 
L 226.528789 81.831398 
L 228.859369 80.961341 
L 231.198533 80.114633 
L 233.546047 79.291359 
L 235.901677 78.4916 
L 238.265185 77.715438 
L 240.636338 76.962949 
L 243.014896 76.234209 
L 245.400623 75.52929 
L 247.79328 74.848263 
L 250.192627 74.191197 
L 252.598424 73.558157 
L 253.613775 73.298687 
L 251.72454 65.840324 
L 250.677787 66.107818 
L 248.197583 66.760437 
L 245.724029 67.437825 
L 243.257373 68.139914 
L 240.797861 68.866634 
L 238.345739 69.617913 
L 235.901252 70.393675 
L 233.464645 71.193842 
L 231.036161 72.018336 
L 228.616044 72.867072 
L 226.204534 73.739967 
L 223.801874 74.636933 
L 221.408304 75.55788 
L 219.024063 76.502716 
L 216.649389 77.471347 
L 214.28452 78.463676 
L 211.929692 79.479604 
L 209.585141 80.519029 
L 207.251102 81.581847 
L 204.927807 82.667952 
L 202.615489 83.777235 
L 200.31438 84.909586 
L 198.024709 86.06489 
L 195.746705 87.243033 
L 193.480596 88.443897 
L 191.226609 89.667362 
L 188.98497 90.913305 
L 186.755901 92.181601 
L 184.539627 93.472125 
L 182.336369 94.784746 
z
" clip-path="url(#pa4e0fdb0ae)" style="fill: #df0000"/>
   </g>
   <g id="patch_14">
    <path d="M 274.864157 68.892419 
L 277.321708 68.506354 
L 279.782997 68.144884 
L 282.247777 67.808045 
L 284.715802 67.49587 
L 287.186826 67.20839 
L 289.660601 66.945635 
L 292.13688 66.70763 
L 293.017298 66.629027 
L 292.346728 58.964385 
L 291.439081 59.045419 
L 288.886216 59.290785 
L 286.335933 59.561667 
L 283.788486 59.858038 
L 281.24413 60.179868 
L 278.703119 60.527125 
L 276.165708 60.899774 
L 273.63215 61.297779 
z
" clip-path="url(#pa4e0fdb0ae)" style="fill: #800000"/>
   </g>
   <g id="PatchCollection_1">
    <path d="M 562.495228 336.443116 
L 562.495228 336.443116 
L 562.262936 338.919937 
L 562.005887 341.394311 
L 561.724107 343.865992 
L 561.417626 346.33473 
L 561.086472 348.800281 
L 560.73068 351.262397 
L 560.350285 353.720832 
L 559.945325 356.17534 
L 559.515841 358.625676 
L 559.061875 361.071595 
L 558.583474 363.512851 
L 558.080684 365.949202 
L 557.553556 368.380403 
L 557.002142 370.806211 
L 556.59556 372.526658 
L 556.59556 372.526658 
Q 314.699037 314.452441 186.307249 101.374777 
L 186.307249 101.374777 
L 186.307249 101.374777 
L 188.444409 100.101534 
L 190.594195 98.849726 
L 192.756392 97.619479 
L 194.930782 96.410914 
L 197.11715 95.224153 
L 199.315275 94.059315 
L 201.524939 92.916517 
L 203.74592 91.795871 
L 205.977996 90.697491 
L 208.220944 89.621487 
L 210.47454 88.567965 
L 212.738558 87.537031 
L 215.012773 86.528789 
L 217.296955 85.543339 
L 218.926103 84.856955 
L 218.926103 84.856955 
Q 314.699037 314.452441 562.495228 336.443116 
z
" clip-path="url(#pa4e0fdb0ae)" style="fill: #0080ff; fill-opacity: 0.5; stroke: #808080; stroke-opacity: 0.5; stroke-width: 0.1"/>
    <path d="M 556.59556 372.526658 
L 556.59556 372.526658 
L 556.002732 374.942679 
L 555.385775 377.352652 
L 554.744749 379.756334 
L 554.079719 382.153486 
L 553.390751 384.543868 
L 552.677914 386.927241 
L 551.941279 389.303366 
L 551.18092 391.672006 
L 550.396913 394.032925 
L 549.589337 396.385885 
L 548.758272 398.730652 
L 547.903801 401.066992 
L 547.02601 403.39467 
L 546.124986 405.713454 
L 545.470618 407.355723 
L 545.470618 407.355723 
Q 314.699037 314.452441 140.333798 137.017085 
L 140.333798 137.017085 
L 140.333798 137.017085 
L 142.11684 135.282333 
L 143.91714 133.565498 
L 145.734518 131.866752 
L 147.568793 130.186264 
L 149.419781 128.524203 
L 151.287296 126.880734 
L 153.171152 125.256023 
L 155.071161 123.65023 
L 156.987133 122.063518 
L 158.918876 120.496045 
L 160.866196 118.947967 
L 162.8289 117.419439 
L 164.80679 115.910615 
L 166.79967 114.421644 
L 168.224876 113.375683 
L 168.224876 113.375683 
Q 314.699037 314.452441 556.59556 372.526658 
z
" clip-path="url(#pa4e0fdb0ae)" style="fill: #0080ff; fill-opacity: 0.5; stroke: #808080; stroke-opacity: 0.5; stroke-width: 0.1"/>
    <path d="M 545.470618 407.355723 
L 545.470618 407.355723 
L 544.530062 409.658755 
L 543.566523 411.952267 
L 542.580098 414.236029 
L 541.570885 416.509812 
L 540.538984 418.77339 
L 539.4845 421.026536 
L 538.407538 423.269025 
L 538.019484 424.063208 
L 538.019484 424.063208 
Q 314.699037 314.452441 407.314552 83.56522 
L 407.314552 83.56522 
L 407.314552 83.56522 
L 409.618755 84.502904 
L 411.913466 85.463583 
L 414.198456 86.447161 
L 416.473496 87.453538 
L 418.738359 88.482616 
L 420.992817 89.53429 
L 423.236647 90.608456 
L 424.031314 90.99552 
L 424.031314 90.99552 
Q 314.699037 314.452441 545.470618 407.355723 
z
" clip-path="url(#pa4e0fdb0ae)" style="fill: #0080ff; fill-opacity: 0.5; stroke: #808080; stroke-opacity: 0.5; stroke-width: 0.1"/>
    <path d="M 538.019484 424.063208 
L 538.019484 424.063208 
L 536.912229 426.290895 
L 535.782752 428.507398 
L 534.631167 430.712496 
L 533.45759 432.905967 
L 532.262136 435.087594 
L 531.044927 437.257157 
L 529.806083 439.41444 
L 529.360716 440.177959 
L 529.360716 440.177959 
Q 314.699037 314.452441 314.699037 65.682382 
L 314.699037 65.682382 
L 314.699037 65.682382 
L 317.186696 65.69482 
L 319.674106 65.732134 
L 322.161019 65.79432 
L 324.647186 65.881371 
L 327.132358 65.99328 
L 329.616286 66.130034 
L 332.098723 66.29162 
L 332.980367 66.35501 
L 332.980367 66.35501 
Q 314.699037 314.452441 538.019484 424.063208 
z
" clip-path="url(#pa4e0fdb0ae)" style="fill: #0080ff; fill-opacity: 0.5; stroke: #808080; stroke-opacity: 0.5; stroke-width: 0.1"/>
    <path d="M 529.360716 440.177959 
L 529.360716 440.177959 
L 528.092749 442.318254 
L 526.803442 444.445762 
L 525.492926 446.560271 
L 524.16133 448.66157 
L 522.808788 450.749447 
L 521.435435 452.823695 
L 520.041409 454.884106 
L 518.626849 456.930474 
L 517.191896 458.962595 
L 515.736694 460.980264 
L 514.261388 462.983281 
L 512.766126 464.971445 
L 511.251058 466.944557 
L 509.716335 468.90242 
L 508.16211 470.844838 
L 506.588539 472.771616 
L 504.995779 474.682564 
L 503.38399 476.577488 
L 501.753332 478.4562 
L 500.10397 480.318511 
L 498.436066 482.164237 
L 496.74979 483.993191 
L 496.637941 484.113213 
L 496.637941 484.113213 
Q 314.699037 314.452441 94.757598 198.209997 
L 94.757598 198.209997 
L 94.757598 198.209997 
L 95.931 196.016431 
L 97.126279 193.834709 
L 98.343315 191.665049 
L 99.581986 189.507667 
L 100.842168 187.362779 
L 102.123737 185.230601 
L 103.426562 183.111344 
L 104.750515 181.005222 
L 106.095462 178.912444 
L 107.46127 176.83322 
L 108.847801 174.767757 
L 110.254917 172.716263 
L 111.682477 170.678943 
L 113.130339 168.656 
L 114.598357 166.647636 
L 116.086386 164.654053 
L 117.594275 162.675449 
L 119.121875 160.712023 
L 120.669032 158.763971 
L 122.235592 156.831488 
L 123.821399 154.914767 
L 125.426293 153.013999 
L 125.5328 152.889212 
L 125.5328 152.889212 
Q 314.699037 314.452441 529.360716 440.177959 
z
" clip-path="url(#pa4e0fdb0ae)" style="fill: #0080ff; fill-opacity: 0.5; stroke: #808080; stroke-opacity: 0.5; stroke-width: 0.1"/>
    <path d="M 496.637941 484.113213 
L 496.637941 484.113213 
L 494.932264 485.924089 
L 493.208565 487.717818 
L 491.467014 489.49422 
L 489.707787 491.253119 
L 487.93106 492.994337 
L 486.137009 494.717701 
L 484.325815 496.423039 
L 482.497658 498.11018 
L 480.652721 499.778956 
L 478.791189 501.429199 
L 476.913248 503.060744 
L 475.019086 504.673429 
L 473.108892 506.267092 
L 471.182857 507.841573 
L 469.804632 508.948705 
L 469.804632 508.948705 
Q 314.699037 314.452441 67.291766 288.448889 
L 67.291766 288.448889 
L 67.291766 288.448889 
L 67.564168 285.976158 
L 67.861282 283.506274 
L 68.183081 281.039485 
L 68.52953 278.576037 
L 68.900597 276.116177 
L 69.296243 273.66015 
L 69.716429 271.208203 
L 70.161113 268.76058 
L 70.630251 266.317526 
L 71.123795 263.879285 
L 71.641697 261.446102 
L 72.183905 259.01822 
L 72.750363 256.59588 
L 73.341016 254.179327 
L 73.775427 252.465695 
L 73.775427 252.465695 
Q 314.699037 314.452441 496.637941 484.113213 
z
" clip-path="url(#pa4e0fdb0ae)" style="fill: #0080ff; fill-opacity: 0.5; stroke: #808080; stroke-opacity: 0.5; stroke-width: 0.1"/>
    <path d="M 469.804632 508.948705 
L 469.804632 508.948705 
L 467.851946 510.490011 
L 465.883946 512.011712 
L 463.900827 513.513658 
L 461.902788 514.995698 
L 459.890028 516.457684 
L 457.86275 517.89947 
L 455.821156 519.320911 
L 453.765449 520.721865 
L 451.695836 522.102193 
L 449.612523 523.461756 
L 447.515719 524.800418 
L 445.405634 526.118045 
L 443.282478 527.414506 
L 441.146464 528.689671 
L 438.997805 529.943412 
L 436.836716 531.175605 
L 434.663414 532.386125 
L 432.478115 533.574852 
L 430.281038 534.741667 
L 428.072404 535.886454 
L 425.852432 537.009097 
L 423.621345 538.109485 
L 423.473823 538.181269 
L 423.473823 538.181269 
Q 314.699037 314.452441 71.047529 364.656872 
L 71.047529 364.656872 
L 71.047529 364.656872 
L 70.557675 362.217888 
L 70.092236 359.774127 
L 69.651257 357.325833 
L 69.234782 354.873253 
L 68.842854 352.41663 
L 68.475511 349.956211 
L 68.13279 347.492242 
L 67.814726 345.024968 
L 67.52135 342.554638 
L 67.252692 340.081497 
L 67.008777 337.605793 
L 66.789632 335.127774 
L 66.595278 332.647688 
L 66.425733 330.165782 
L 66.281016 327.682304 
L 66.16114 325.197504 
L 66.066118 322.711629 
L 65.995959 320.224929 
L 65.950671 317.737651 
L 65.930256 315.250044 
L 65.934719 312.762358 
L 65.964057 310.274841 
L 65.966867 310.110805 
L 65.966867 310.110805 
Q 314.699037 314.452441 469.804632 508.948705 
z
" clip-path="url(#pa4e0fdb0ae)" style="fill: #0080ff; fill-opacity: 0.5; stroke: #808080; stroke-opacity: 0.5; stroke-width: 0.1"/>
    <path d="M 423.473823 538.181269 
L 423.473823 538.181269 
L 421.231133 539.257812 
L 418.977791 540.311875 
L 416.71402 541.343352 
L 414.440048 542.352141 
L 412.156102 543.338139 
L 409.86241 544.301249 
L 407.559202 545.241375 
L 405.246709 546.158422 
L 402.92516 547.052298 
L 400.594789 547.922915 
L 398.255828 548.770185 
L 395.908512 549.594023 
L 393.553075 550.394347 
L 391.189753 551.171077 
L 388.818781 551.924136 
L 386.440398 552.653448 
L 384.054841 553.358939 
L 381.662348 554.04054 
L 379.263158 554.698183 
L 376.857513 555.331801 
L 374.445651 555.941332 
L 372.027816 556.526714 
L 371.868159 556.564469 
L 371.868159 556.564469 
Q 314.699037 314.452441 117.904249 466.631131 
L 117.904249 466.631131 
L 117.904249 466.631131 
L 116.392327 464.655607 
L 114.900236 462.665063 
L 113.428124 460.659698 
L 111.976139 458.639712 
L 110.544427 456.605307 
L 109.133129 454.556688 
L 107.742388 452.494058 
L 106.372343 450.417624 
L 105.02313 448.327593 
L 103.694884 446.224176 
L 102.387739 444.107581 
L 101.101825 441.97802 
L 99.83727 439.835708 
L 98.594201 437.680857 
L 97.372743 435.513683 
L 96.173017 433.334403 
L 94.995143 431.143235 
L 93.83924 428.940399 
L 92.705422 426.726113 
L 91.593804 424.5006 
L 90.504496 422.264083 
L 89.437607 420.016784 
L 89.368038 419.868205 
L 89.368038 419.868205 
Q 314.699037 314.452441 423.473823 538.181269 
z
" clip-path="url(#pa4e0fdb0ae)" style="fill: #0080ff; fill-opacity: 0.5; stroke: #808080; stroke-opacity: 0.5; stroke-width: 0.1"/>
    <path d="M 371.868159 556.564469 
L 371.868159 556.564469 
L 369.444221 557.124045 
L 367.014808 557.659354 
L 364.580163 558.170343 
L 362.140531 558.65696 
L 359.696154 559.119157 
L 357.247278 559.556887 
L 354.794147 559.970107 
L 352.337007 560.358776 
L 349.876102 560.722854 
L 347.411681 561.062306 
L 344.943987 561.377096 
L 342.47327 561.667195 
L 339.999775 561.932572 
L 337.52375 562.173201 
L 335.045442 562.389058 
L 332.5651 562.580122 
L 330.082971 562.746374 
L 327.599304 562.887796 
L 325.114347 563.004375 
L 322.628348 563.096099 
L 320.141557 563.162958 
L 317.654221 563.204947 
L 315.166589 563.222061 
L 312.678911 563.214298 
L 310.191435 563.181659 
L 307.70441 563.124147 
L 305.218084 563.041769 
L 302.732706 562.934532 
L 300.248525 562.802446 
L 299.202446 562.739368 
L 299.202446 562.739368 
Q 314.699037 314.452441 221.508132 545.108023 
L 221.508132 545.108023 
L 221.508132 545.108023 
L 219.206275 544.164597 
L 216.913966 543.1982 
L 214.631436 542.208928 
L 212.358912 541.196881 
L 210.096622 540.16216 
L 207.844793 539.104868 
L 205.603649 538.025111 
L 203.373414 536.922997 
L 201.154312 535.798635 
L 198.946564 534.65214 
L 196.750391 533.483625 
L 194.566013 532.293206 
L 192.393649 531.081004 
L 190.233514 529.847139 
L 188.085826 528.591735 
L 185.9508 527.314917 
L 183.828648 526.016813 
L 181.719583 524.697553 
L 179.623816 523.357269 
L 177.541556 521.996094 
L 175.473012 520.614165 
L 173.41839 519.21162 
L 171.377896 517.788599 
L 169.351735 516.345245 
L 167.340108 514.881701 
L 165.343216 513.398115 
L 163.361261 511.894635 
L 161.394438 510.37141 
L 159.442946 508.828594 
L 158.625489 508.172832 
L 158.625489 508.172832 
Q 314.699037 314.452441 371.868159 556.564469 
z
" clip-path="url(#pa4e0fdb0ae)" style="fill: #0080ff; fill-opacity: 0.5; stroke: #808080; stroke-opacity: 0.5; stroke-width: 0.1"/>
    <path d="M 472.936253 122.495348 
L 472.936253 122.495348 
L 474.847881 124.087291 
L 476.743493 125.698271 
L 478.622901 127.328127 
L 480.485917 128.976694 
L 482.332354 130.643809 
L 484.162028 132.329304 
L 485.974756 134.033012 
L 486.614733 134.64272 
L 486.614733 134.64272 
Q 314.699037 314.452441 274.864157 68.892419 
L 274.864157 68.892419 
L 274.864157 68.892419 
L 277.321708 68.506354 
L 279.782997 68.144884 
L 282.247777 67.808045 
L 284.715802 67.49587 
L 287.186826 67.20839 
L 289.660601 66.945635 
L 292.13688 66.70763 
L 293.017298 66.629027 
L 293.017298 66.629027 
Q 314.699037 314.452441 472.936253 122.495348 
z
" clip-path="url(#pa4e0fdb0ae)" style="fill: #0028ff; fill-opacity: 0.5; stroke: #808080; stroke-opacity: 0.5; stroke-width: 0.1"/>
    <path d="M 486.614733 134.64272 
L 486.614733 134.64272 
L 488.404205 136.370839 
L 490.176306 138.116766 
L 491.930859 139.880326 
L 493.66769 141.661343 
L 495.386624 143.459639 
L 497.087489 145.275034 
L 498.770115 147.107347 
L 500.434335 148.956395 
L 502.079981 150.821991 
L 503.706889 152.703951 
L 505.314897 154.602085 
L 506.903843 156.516205 
L 508.473569 158.446117 
L 510.023918 160.391631 
L 511.113782 161.783551 
L 511.113782 161.783551 
Q 314.699037 314.452441 218.926103 84.856955 
L 218.926103 84.856955 
L 218.926103 84.856955 
L 221.226808 83.910721 
L 223.53686 82.987541 
L 225.856029 82.087508 
L 228.184082 81.210711 
L 230.520786 80.357237 
L 232.865908 79.527174 
L 235.219213 78.720602 
L 237.580466 77.937604 
L 239.949431 77.178256 
L 242.325871 76.442636 
L 244.709548 75.730817 
L 247.100223 75.04287 
L 249.497659 74.378863 
L 251.901615 73.738864 
L 253.613775 73.298687 
L 253.613775 73.298687 
Q 314.699037 314.452441 486.614733 134.64272 
z
" clip-path="url(#pa4e0fdb0ae)" style="fill: #0028ff; fill-opacity: 0.5; stroke: #808080; stroke-opacity: 0.5; stroke-width: 0.1"/>
    <path d="M 511.113782 161.783551 
L 511.113782 161.783551 
L 512.630625 163.755299 
L 514.127675 165.742116 
L 515.604782 167.743805 
L 517.061799 169.760164 
L 518.498579 171.790993 
L 519.91498 173.836087 
L 521.31086 175.895243 
L 521.80187 176.630242 
L 521.80187 176.630242 
Q 314.699037 314.452441 424.031314 90.99552 
L 424.031314 90.99552 
L 424.031314 90.99552 
L 426.260379 92.099997 
L 428.478288 93.22671 
L 430.68482 94.375544 
L 432.879753 95.546387 
L 435.062868 96.739119 
L 437.233947 97.953623 
L 439.392772 99.189777 
L 440.156846 99.634191 
L 440.156846 99.634191 
Q 314.699037 314.452441 511.113782 161.783551 
z
" clip-path="url(#pa4e0fdb0ae)" style="fill: #0028ff; fill-opacity: 0.5; stroke: #808080; stroke-opacity: 0.5; stroke-width: 0.1"/>
    <path d="M 521.80187 176.630242 
L 521.80187 176.630242 
L 523.169714 178.708126 
L 524.516711 180.799586 
L 525.842727 182.90441 
L 527.147628 185.022389 
L 528.431285 187.153311 
L 529.693568 189.296963 
L 530.934353 191.45313 
L 532.153514 193.621597 
L 533.350929 195.802147 
L 534.52648 197.994562 
L 535.680048 200.198623 
L 536.811518 202.414109 
L 537.920777 204.640798 
L 539.007715 206.878469 
L 539.7665 208.475182 
L 539.7665 208.475182 
Q 314.699037 314.452441 332.980367 66.35501 
L 332.980367 66.35501 
L 332.980367 66.35501 
L 335.460386 66.550225 
L 337.938329 66.77023 
L 340.413947 67.015003 
L 342.886995 67.28452 
L 345.357224 67.578753 
L 347.824386 67.897673 
L 350.288237 68.241249 
L 352.748528 68.609445 
L 355.205015 69.002226 
L 357.657451 69.419551 
L 360.105591 69.86138 
L 362.54919 70.327667 
L 364.988005 70.818367 
L 367.421791 71.33343 
L 369.148127 71.71423 
L 369.148127 71.71423 
Q 314.699037 314.452441 521.80187 176.630242 
z
" clip-path="url(#pa4e0fdb0ae)" style="fill: #0028ff; fill-opacity: 0.5; stroke: #808080; stroke-opacity: 0.5; stroke-width: 0.1"/>
    <path d="M 539.7665 208.475182 
L 539.7665 208.475182 
L 540.815001 210.731118 
L 541.840892 212.997425 
L 542.844068 215.273879 
L 543.82443 217.56025 
L 544.781879 219.85631 
L 545.716321 222.16183 
L 546.627661 224.476579 
L 547.515808 226.800325 
L 548.380674 229.132837 
L 549.222172 231.47388 
L 550.040217 233.823221 
L 550.834729 236.180625 
L 551.605628 238.545857 
L 552.352836 240.918678 
L 552.869385 242.609365 
L 552.869385 242.609365 
Q 314.699037 314.452441 73.775427 252.465695 
L 73.775427 252.465695 
L 73.775427 252.465695 
L 74.40733 250.059599 
L 75.063263 247.659941 
L 75.743158 245.266963 
L 76.446949 242.880903 
L 77.174565 240.502001 
L 77.925933 238.130493 
L 78.700979 235.766617 
L 79.499624 233.41061 
L 80.321788 231.062708 
L 81.16739 228.723144 
L 82.036346 226.392152 
L 82.928567 224.069967 
L 83.843965 221.75682 
L 84.782448 219.452943 
L 85.463345 217.821494 
L 85.463345 217.821494 
Q 314.699037 314.452441 539.7665 208.475182 
z
" clip-path="url(#pa4e0fdb0ae)" style="fill: #0028ff; fill-opacity: 0.5; stroke: #808080; stroke-opacity: 0.5; stroke-width: 0.1"/>
    <path d="M 552.869385 242.609365 
L 552.869385 242.609365 
L 553.575896 244.994621 
L 554.258518 247.386823 
L 554.917186 249.785731 
L 555.551831 252.191106 
L 556.162392 254.602707 
L 556.748806 257.020292 
L 557.311015 259.443621 
L 557.848964 261.872451 
L 558.362598 264.306539 
L 558.851865 266.745641 
L 559.316718 269.189514 
L 559.757109 271.637913 
L 560.172994 274.090594 
L 560.564332 276.54731 
L 560.827488 278.295451 
L 560.827488 278.295451 
Q 314.699037 314.452441 89.368038 419.868205 
L 89.368038 419.868205 
L 89.368038 419.868205 
L 88.325164 417.609662 
L 87.304928 415.340803 
L 86.307431 413.061855 
L 85.332773 410.773047 
L 84.381051 408.474607 
L 83.452361 406.166764 
L 82.546795 403.84975 
L 81.664444 401.523797 
L 80.805397 399.189136 
L 79.969739 396.846002 
L 79.157553 394.494628 
L 78.368921 392.135251 
L 77.603923 389.768105 
L 76.862633 387.393427 
L 76.350301 385.701458 
L 76.350301 385.701458 
Q 314.699037 314.452441 552.869385 242.609365 
z
" clip-path="url(#pa4e0fdb0ae)" style="fill: #0028ff; fill-opacity: 0.5; stroke: #808080; stroke-opacity: 0.5; stroke-width: 0.1"/>
    <path d="M 560.827488 278.295451 
L 560.827488 278.295451 
L 561.176745 280.758502 
L 561.501355 283.224923 
L 561.801285 285.694466 
L 562.076505 288.166886 
L 562.326988 290.641933 
L 562.552708 293.119362 
L 562.753642 295.598924 
L 562.929772 298.080371 
L 563.081078 300.563456 
L 563.207547 303.04793 
L 563.309165 305.533543 
L 563.385922 308.020049 
L 563.43781 310.507198 
L 563.464825 312.994742 
L 563.468903 314.762574 
L 563.468903 314.762574 
Q 314.699037 314.452441 158.625489 508.172832 
L 158.625489 508.172832 
L 158.625489 508.172832 
L 156.696121 506.602437 
L 154.782553 505.012826 
L 152.884977 503.40416 
L 151.003581 501.776599 
L 149.138556 500.130306 
L 147.290086 498.465445 
L 145.458357 496.782183 
L 143.643552 495.080688 
L 141.845852 493.36113 
L 140.065438 491.623682 
L 138.302487 489.868516 
L 136.557175 488.095809 
L 134.829677 486.305738 
L 133.120166 484.498482 
L 131.916359 483.203841 
L 131.916359 483.203841 
Q 314.699037 314.452441 560.827488 278.295451 
z
" clip-path="url(#pa4e0fdb0ae)" style="fill: #0028ff; fill-opacity: 0.5; stroke: #808080; stroke-opacity: 0.5; stroke-width: 0.1"/>
    <path d="M 440.156846 99.634191 
L 440.156846 99.634191 
L 442.29872 100.899489 
L 444.427834 102.186143 
L 446.543975 103.494022 
L 448.646932 104.822997 
L 450.736494 106.172935 
L 452.812453 107.543701 
L 454.8746 108.935158 
L 455.60395 109.43452 
L 455.60395 109.43452 
Q 314.699037 314.452441 277.621784 560.443944 
L 277.621784 560.443944 
L 277.621784 560.443944 
L 275.163763 560.060878 
L 272.709697 559.653252 
L 270.259829 559.221106 
L 267.814405 558.764483 
L 265.373669 558.283429 
L 262.937866 557.777992 
L 260.50724 557.248222 
L 259.644891 557.054138 
L 259.644891 557.054138 
Q 314.699037 314.452441 440.156846 99.634191 
z
" clip-path="url(#pa4e0fdb0ae)" style="fill: #0000df; fill-opacity: 0.5; stroke: #808080; stroke-opacity: 0.5; stroke-width: 0.1"/>
    <path d="M 369.148127 71.71423 
L 369.148127 71.71423 
L 371.572746 72.270849 
L 373.991678 72.851686 
L 376.404681 73.456682 
L 378.811513 74.085778 
L 381.211934 74.73891 
L 383.605704 75.416014 
L 385.992583 76.117021 
L 386.838975 76.371842 
L 386.838975 76.371842 
Q 314.699037 314.452441 259.644891 557.054138 
L 259.644891 557.054138 
L 259.644891 557.054138 
L 257.221667 556.491476 
L 254.804191 555.90461 
L 252.392704 555.293599 
L 249.987448 554.658504 
L 247.588663 553.999389 
L 245.196589 553.316319 
L 242.811465 552.609363 
L 241.965711 552.352432 
L 241.965711 552.352432 
Q 314.699037 314.452441 369.148127 71.71423 
z
" clip-path="url(#pa4e0fdb0ae)" style="fill: #000080; fill-opacity: 0.5; stroke: #808080; stroke-opacity: 0.5; stroke-width: 0.1"/>
   </g>
   <g id="patch_15">
    <path d="M 314.699037 65.682382 
L 317.186696 65.69482 
L 319.674106 65.732134 
L 322.161019 65.79432 
L 324.647186 65.881371 
L 327.132358 65.99328 
L 329.616286 66.130034 
L 332.098723 66.29162 
L 334.57942 66.478022 
L 337.058129 66.689221 
L 339.534602 66.925196 
L 342.008591 67.185924 
L 344.47985 67.471378 
L 346.94813 67.78153 
L 349.413186 68.116349 
L 351.87477 68.475802 
L 354.332637 68.859851 
L 356.78654 69.26846 
L 359.236234 69.701587 
L 361.681475 70.159189 
L 364.122018 70.641221 
L 366.557619 71.147633 
L 368.988033 71.678375 
L 371.413019 72.233394 
L 373.832333 72.812636 
L 376.245734 73.416041 
L 378.652981 74.043549 
L 381.053832 74.695098 
L 383.448048 75.370623 
L 385.835389 76.070055 
L 386.838975 76.371842 
L 389.070107 69.008525 
L 388.035482 68.697404 
L 385.574306 67.97634 
L 383.106042 67.279923 
L 380.630938 66.608223 
L 378.149241 65.961307 
L 375.661198 65.33924 
L 373.16706 64.742084 
L 370.667074 64.169899 
L 368.161492 63.622742 
L 365.650564 63.100667 
L 363.13454 62.603728 
L 360.613674 62.131973 
L 358.088215 61.685451 
L 355.558418 61.264204 
L 353.024535 60.868277 
L 350.486819 60.497707 
L 347.945525 60.152533 
L 345.400906 59.832788 
L 342.853217 59.538506 
L 340.302712 59.269714 
L 337.749647 59.026441 
L 335.194277 58.80871 
L 332.636858 58.616543 
L 330.077645 58.449959 
L 327.516893 58.308976 
L 324.954861 58.193606 
L 322.391802 58.103863 
L 319.827975 58.039754 
L 317.263634 58.001286 
L 314.699037 57.988463 
L 314.699037 65.682382 
z
" clip-path="url(#pa4e0fdb0ae)" style="fill: none; stroke: #000000; stroke-width: 0.5; stroke-linejoin: miter"/>
   </g>
   <g id="patch_16">
    <path d="M 407.314552 83.56522 
L 409.618755 84.502904 
L 411.913466 85.463583 
L 414.198456 86.447161 
L 416.473496 87.453538 
L 418.738359 88.482616 
L 420.992817 89.53429 
L 423.236647 90.608456 
L 425.469622 91.705006 
L 427.691521 92.823831 
L 429.902121 93.964818 
L 432.1012 95.127854 
L 434.288539 96.312822 
L 436.46392 97.519604 
L 438.627124 98.748079 
L 440.777935 99.998125 
L 442.916139 101.269615 
L 445.04152 102.562424 
L 447.153868 103.876422 
L 449.252971 105.211477 
L 451.338618 106.567455 
L 453.410601 107.944223 
L 455.468713 109.34164 
L 455.60395 109.43452 
L 459.961834 103.09376 
L 459.822415 102.998007 
L 457.700649 101.55737 
L 455.564584 100.138023 
L 453.414433 98.740106 
L 451.250409 97.363761 
L 449.072731 96.009125 
L 446.881616 94.676332 
L 444.677282 93.365517 
L 442.459951 92.076811 
L 440.229844 90.810341 
L 437.987184 89.566236 
L 435.732195 88.34462 
L 433.465103 87.145613 
L 431.186134 85.969338 
L 428.895517 84.81591 
L 426.59348 83.685446 
L 424.280254 82.578059 
L 421.95607 81.493858 
L 419.62116 80.432954 
L 417.275758 79.395451 
L 414.920098 78.381454 
L 412.554417 77.391063 
L 410.17895 76.424379 
L 407.314552 83.56522 
z
" clip-path="url(#pa4e0fdb0ae)" style="fill: none; stroke: #000000; stroke-width: 0.5; stroke-linejoin: miter"/>
   </g>
   <g id="patch_17">
    <path d="M 472.936253 122.495348 
L 474.847881 124.087291 
L 476.743493 125.698271 
L 478.622901 127.328127 
L 480.485917 128.976694 
L 482.332354 130.643809 
L 484.162028 132.329304 
L 485.974756 134.033012 
L 487.770357 135.754762 
L 489.54865 137.494381 
L 491.309459 139.251696 
L 493.052607 141.02653 
L 494.777919 142.818708 
L 496.485224 144.628048 
L 498.174351 146.454371 
L 499.84513 148.297493 
L 501.497394 150.157231 
L 503.130979 152.033398 
L 504.745721 153.925807 
L 506.341458 155.834268 
L 507.918031 157.758592 
L 509.475283 159.698584 
L 511.013057 161.654052 
L 512.5312 163.624799 
L 514.02956 165.610629 
L 515.507986 167.611343 
L 516.966333 169.626741 
L 518.404452 171.656621 
L 519.822201 173.700781 
L 521.219438 175.759016 
L 522.596024 177.83112 
L 523.951819 179.916887 
L 525.28669 182.016106 
L 526.600502 184.12857 
L 527.893124 186.254065 
L 529.164427 188.39238 
L 530.414283 190.543301 
L 531.642568 192.706613 
L 532.849159 194.8821 
L 534.033935 197.069543 
L 535.196778 199.268725 
L 536.337571 201.479424 
L 537.456201 203.701421 
L 538.552555 205.934493 
L 539.626523 208.178417 
L 540.678 210.432968 
L 541.706878 212.697921 
L 542.713056 214.973049 
L 543.696433 217.258125 
L 544.65691 219.552921 
L 545.594392 221.857206 
L 546.508784 224.170751 
L 547.399995 226.493324 
L 548.267937 228.824693 
L 549.112522 231.164624 
L 549.933665 233.512884 
L 550.731286 235.869238 
L 551.505303 238.23345 
L 552.25564 240.605285 
L 552.982222 242.984503 
L 553.684975 245.370869 
L 554.36383 247.764142 
L 555.018719 250.164085 
L 555.649576 252.570456 
L 556.256338 254.983015 
L 556.838945 257.401521 
L 557.397337 259.825733 
L 557.931461 262.255407 
L 558.441261 264.6903 
L 558.926687 267.13017 
L 559.38769 269.574772 
L 559.824225 272.023861 
L 560.236248 274.477194 
L 560.623717 276.934524 
L 560.986594 279.395605 
L 561.324842 281.860193 
L 561.638428 284.328039 
L 561.92732 286.798898 
L 562.191489 289.272522 
L 562.43091 291.748665 
L 562.645557 294.227077 
L 562.83541 296.707513 
L 563.00045 299.189722 
L 563.14066 301.673458 
L 563.256025 304.158472 
L 563.346536 306.644515 
L 563.412181 309.131339 
L 563.452956 311.618695 
L 563.468855 314.106334 
L 563.468903 314.762574 
L 571.162816 314.772165 
L 571.162767 314.09563 
L 571.146376 311.531053 
L 571.10434 308.966769 
L 571.036664 306.403033 
L 570.943355 303.840102 
L 570.824421 301.278232 
L 570.679875 298.717679 
L 570.509731 296.1587 
L 570.314006 293.601551 
L 570.09272 291.046486 
L 569.845895 288.493762 
L 569.573555 285.943634 
L 569.275728 283.396357 
L 568.952444 280.852185 
L 568.603735 278.311373 
L 568.229635 275.774176 
L 567.830182 273.240846 
L 567.405417 270.711637 
L 566.955381 268.186803 
L 566.480119 265.666594 
L 565.97968 263.151265 
L 565.454113 260.641065 
L 564.90347 258.136247 
L 564.327808 255.63706 
L 563.727182 253.143755 
L 563.101654 250.65658 
L 562.451286 248.175785 
L 561.776143 245.701618 
L 561.076293 243.234325 
L 560.351805 240.774155 
L 559.602752 238.321352 
L 558.829208 235.876162 
L 558.031252 233.43883 
L 557.208963 231.009599 
L 556.362423 228.588712 
L 555.491717 226.176412 
L 554.596932 223.772939 
L 553.678157 221.378534 
L 552.735485 218.993436 
L 551.769009 216.617884 
L 550.778826 214.252116 
L 549.765036 211.896367 
L 548.727739 209.550874 
L 547.66704 207.215871 
L 546.583044 204.891592 
L 545.475859 202.578268 
L 544.345597 200.276132 
L 543.192371 197.985413 
L 542.016296 195.706342 
L 540.817489 193.439144 
L 539.59607 191.184048 
L 538.352162 188.941278 
L 537.085889 186.71106 
L 535.797377 184.493615 
L 534.486755 182.289167 
L 533.154155 180.097934 
L 531.79971 177.920137 
L 530.423555 175.755993 
L 529.025827 173.605719 
L 527.606667 171.469529 
L 526.166217 169.347637 
L 524.70462 167.240256 
L 523.222022 165.147596 
L 521.718572 163.069866 
L 520.194421 161.007274 
L 518.64972 158.960026 
L 517.084625 156.928328 
L 515.499291 154.912382 
L 513.893877 152.91239 
L 512.268543 150.928552 
L 510.623453 148.961066 
L 508.958771 147.010129 
L 507.274663 145.075936 
L 505.571297 143.15868 
L 503.848845 141.258554 
L 502.107477 139.375747 
L 500.347369 137.510448 
L 498.568696 135.662843 
L 496.771637 133.833116 
L 494.95637 132.021451 
L 493.123078 130.228029 
L 491.271943 128.45303 
L 489.403152 126.69663 
L 487.51689 124.959006 
L 485.613346 123.240331 
L 483.692711 121.540777 
L 481.755177 119.860513 
L 479.800938 118.199709 
L 477.830188 116.558531 
L 472.936253 122.495348 
z
" clip-path="url(#pa4e0fdb0ae)" style="fill: none; stroke: #000000; stroke-width: 0.5; stroke-linejoin: miter"/>
   </g>
   <g id="patch_18">
    <path d="M 562.495228 336.443116 
L 562.262936 338.919937 
L 562.005887 341.394311 
L 561.724107 343.865992 
L 561.417626 346.33473 
L 561.086472 348.800281 
L 560.73068 351.262397 
L 560.350285 353.720832 
L 559.945325 356.17534 
L 559.515841 358.625676 
L 559.061875 361.071595 
L 558.583474 363.512851 
L 558.080684 365.949202 
L 557.553556 368.380403 
L 557.002142 370.806211 
L 556.426499 373.226384 
L 555.826683 375.64068 
L 555.202755 378.048857 
L 554.554776 380.450674 
L 553.882812 382.845892 
L 553.18693 385.23427 
L 552.467199 387.61557 
L 551.723692 389.989554 
L 550.956482 392.355984 
L 550.165647 394.714624 
L 549.351265 397.065238 
L 548.513418 399.407591 
L 547.65219 401.741448 
L 546.767667 404.066576 
L 545.859937 406.382743 
L 544.929092 408.689717 
L 543.975223 410.987267 
L 542.998427 413.275164 
L 541.998802 415.553179 
L 540.976446 417.821084 
L 539.931463 420.078652 
L 538.863957 422.325657 
L 537.774035 424.561875 
L 536.661805 426.787083 
L 535.52738 429.001057 
L 534.370871 431.203576 
L 533.192396 433.39442 
L 531.992071 435.57337 
L 530.770018 437.740209 
L 529.526357 439.894718 
L 528.261214 442.036683 
L 526.974715 444.16589 
L 525.666988 446.282126 
L 524.338165 448.385179 
L 522.988378 450.474839 
L 521.617762 452.550896 
L 520.226455 454.613144 
L 518.814595 456.661376 
L 517.382324 458.695387 
L 515.929784 460.714974 
L 514.457122 462.719935 
L 512.964484 464.71007 
L 511.452019 466.685178 
L 509.91988 468.645064 
L 508.368218 470.58953 
L 506.79719 472.518383 
L 505.206952 474.431429 
L 503.597664 476.328478 
L 501.969485 478.209339 
L 500.32258 480.073824 
L 498.657113 481.921748 
L 496.97325 483.752924 
L 495.27116 485.567171 
L 493.551012 487.364307 
L 491.81298 489.144151 
L 490.057236 490.906526 
L 488.283957 492.651257 
L 486.493319 494.378167 
L 484.685503 496.087085 
L 482.860687 497.77784 
L 481.019056 499.450262 
L 479.160792 501.104185 
L 477.286083 502.739442 
L 475.395115 504.355871 
L 473.488078 505.95331 
L 471.565162 507.531599 
L 469.626559 509.09058 
L 467.672464 510.630098 
L 465.703071 512.149998 
L 463.718578 513.650128 
L 461.719184 515.130339 
L 459.705087 516.590482 
L 457.67649 518.030412 
L 455.633596 519.449984 
L 453.576608 520.849056 
L 451.505732 522.227489 
L 449.421176 523.585144 
L 447.323148 524.921887 
L 445.211857 526.237582 
L 443.087516 527.5321 
L 440.950335 528.805309 
L 438.80053 530.057083 
L 436.638314 531.287298 
L 434.463905 532.495828 
L 432.277519 533.682555 
L 430.079376 534.847359 
L 427.869694 535.990123 
L 425.648696 537.110734 
L 423.416603 538.209079 
L 421.173638 539.285049 
L 418.920026 540.338536 
L 416.655991 541.369434 
L 414.381761 542.377641 
L 412.097563 543.363056 
L 409.803625 544.325579 
L 407.500177 545.265116 
L 405.187449 546.181571 
L 402.865672 547.074854 
L 400.535078 547.944874 
L 398.195901 548.791546 
L 395.848374 549.614784 
L 393.492732 550.414506 
L 391.129211 551.190631 
L 388.758047 551.943084 
L 386.379478 552.671787 
L 383.99374 553.376669 
L 381.601073 554.057658 
L 379.201716 554.714687 
L 376.795908 555.34769 
L 374.383891 555.956604 
L 371.965905 556.541367 
L 369.542193 557.101922 
L 367.112997 557.638212 
L 364.678559 558.150184 
L 362.239123 558.637786 
L 359.794933 559.10097 
L 357.346234 559.539689 
L 354.89327 559.953899 
L 352.436287 560.34356 
L 349.975529 560.708632 
L 347.511245 561.049078 
L 345.043679 561.364865 
L 342.573079 561.655961 
L 340.099691 561.922336 
L 337.623763 562.163965 
L 335.145543 562.380823 
L 332.665278 562.572889 
L 330.183217 562.740142 
L 327.699607 562.882567 
L 325.214697 563.000149 
L 322.728736 563.092877 
L 320.241971 563.160741 
L 317.754653 563.203734 
L 315.267028 563.221852 
L 312.779347 563.215093 
L 310.291858 563.183459 
L 307.80481 563.126951 
L 305.318451 563.045576 
L 302.83303 562.939343 
L 300.348796 562.80826 
L 299.202446 562.739368 
L 298.72317 570.418345 
L 299.904974 570.489368 
L 302.46604 570.624505 
L 305.02833 570.734024 
L 307.591586 570.817915 
L 310.155554 570.876171 
L 312.719975 570.908784 
L 315.284595 570.915751 
L 317.849156 570.897073 
L 320.413402 570.85275 
L 322.977077 570.782787 
L 325.539924 570.687192 
L 328.101686 570.565973 
L 330.662109 570.419143 
L 333.220935 570.246717 
L 335.777909 570.048711 
L 338.332775 569.825147 
L 340.885278 569.576045 
L 343.435162 569.30143 
L 345.982173 569.001332 
L 348.526055 568.675778 
L 351.066555 568.324803 
L 353.603418 567.94844 
L 356.136391 567.546728 
L 358.665219 567.119707 
L 361.189652 566.667419 
L 363.709435 566.18991 
L 366.224317 565.687227 
L 368.734047 565.159421 
L 371.238373 564.606545 
L 373.737046 564.028654 
L 376.229814 563.425805 
L 378.71643 562.798059 
L 381.196644 562.145478 
L 383.670208 561.468129 
L 386.136875 560.766078 
L 388.596399 560.039396 
L 391.048532 559.288155 
L 393.493031 558.512431 
L 395.929651 557.712301 
L 398.358147 556.887846 
L 400.778278 556.039147 
L 403.189801 555.16629 
L 405.592475 554.269361 
L 407.986059 553.348451 
L 410.370315 552.403652 
L 412.745004 551.435058 
L 415.109889 550.442765 
L 417.464732 549.426874 
L 419.809299 548.387486 
L 422.143355 547.324704 
L 424.466667 546.238635 
L 426.779002 545.129388 
L 429.080129 543.997073 
L 431.369818 542.841804 
L 433.64784 541.663696 
L 435.913967 540.462868 
L 438.167973 539.239438 
L 440.409632 537.99353 
L 442.63872 536.725268 
L 444.855015 535.434779 
L 447.058293 534.122192 
L 449.248336 532.787638 
L 451.424925 531.431251 
L 453.58784 530.053166 
L 455.736867 528.653521 
L 457.871791 527.232456 
L 459.992397 525.790114 
L 462.098474 524.326638 
L 464.189811 522.842174 
L 466.266199 521.336872 
L 468.32743 519.810881 
L 470.373299 518.264355 
L 472.403601 516.697448 
L 474.418132 515.110317 
L 476.416691 513.503119 
L 478.399079 511.876017 
L 480.365097 510.229173 
L 482.314548 508.562751 
L 484.247238 506.876919 
L 486.162974 505.171844 
L 488.061563 503.447697 
L 489.942816 501.704651 
L 491.806545 499.94288 
L 493.652563 498.16256 
L 495.480686 496.363869 
L 497.290731 494.546987 
L 499.082517 492.712096 
L 500.855865 490.859379 
L 502.610597 488.989022 
L 504.346538 487.101211 
L 506.063515 485.196135 
L 507.761355 483.273985 
L 509.439889 481.334953 
L 511.09895 479.379233 
L 512.73837 477.40702 
L 514.357987 475.418512 
L 515.957638 473.413908 
L 517.537163 471.393407 
L 519.096405 469.357213 
L 520.635207 467.305528 
L 522.153416 465.238558 
L 523.650879 463.15651 
L 525.127447 461.059591 
L 526.582973 458.948011 
L 528.017311 456.821983 
L 529.430316 454.681717 
L 530.821849 452.527429 
L 532.19177 450.359333 
L 533.539942 448.177647 
L 534.86623 445.982588 
L 536.170501 443.774376 
L 537.452625 441.553232 
L 538.712474 439.319379 
L 539.949922 437.073038 
L 541.164846 434.814436 
L 542.357122 432.543798 
L 543.526633 430.26135 
L 544.673262 427.967322 
L 545.796893 425.661942 
L 546.897415 423.345442 
L 547.974717 421.018052 
L 549.028691 418.680006 
L 550.059233 416.331537 
L 551.066239 413.97288 
L 552.049609 411.604272 
L 553.009244 409.225948 
L 553.945048 406.838147 
L 554.856927 404.441108 
L 555.744791 402.035069 
L 556.60855 399.620273 
L 557.448119 397.19696 
L 558.263413 394.765372 
L 559.054351 392.325753 
L 559.820853 389.878347 
L 560.562844 387.423399 
L 561.280248 384.961153 
L 561.972995 382.491857 
L 562.641014 380.015756 
L 563.284239 377.5331 
L 563.902606 375.044135 
L 564.496053 372.549112 
L 565.06452 370.048278 
L 565.607951 367.541885 
L 566.126291 365.030184 
L 566.619489 362.513424 
L 567.087495 359.991859 
L 567.530262 357.465739 
L 567.947747 354.935318 
L 568.339906 352.400849 
L 568.706702 349.862585 
L 569.048097 347.320781 
L 569.364058 344.775689 
L 569.654552 342.227565 
L 569.919551 339.676664 
L 570.159028 337.12324 
L 562.495228 336.443116 
z
" clip-path="url(#pa4e0fdb0ae)" style="fill: none; stroke: #000000; stroke-width: 0.5; stroke-linejoin: miter"/>
   </g>
   <g id="patch_19">
    <path d="M 277.621784 560.443944 
L 275.163763 560.060878 
L 272.709697 559.653252 
L 270.259829 559.221106 
L 267.814405 558.764483 
L 265.373669 558.283429 
L 262.937866 557.777992 
L 260.50724 557.248222 
L 258.082032 556.694174 
L 255.662486 556.115901 
L 253.248843 555.513462 
L 250.841346 554.886918 
L 248.440234 554.23633 
L 246.045748 553.561764 
L 243.658127 552.863287 
L 241.965711 552.352432 
L 239.716226 559.710164 
L 241.460985 560.236818 
L 243.92245 560.956898 
L 246.390992 561.652327 
L 248.866365 562.323036 
L 251.348322 562.968958 
L 253.836613 563.590029 
L 256.33099 564.186186 
L 258.831205 564.75737 
L 261.337006 565.303524 
L 263.848143 565.824593 
L 266.364365 566.320525 
L 268.88542 566.791271 
L 271.411057 567.236782 
L 273.941023 567.657016 
L 276.475064 568.051929 
L 277.621784 560.443944 
z
" clip-path="url(#pa4e0fdb0ae)" style="fill: none; stroke: #000000; stroke-width: 0.5; stroke-linejoin: miter"/>
   </g>
   <g id="patch_20">
    <path d="M 221.508132 545.108023 
L 219.206275 544.164597 
L 216.913966 543.1982 
L 214.631436 542.208928 
L 212.358912 541.196881 
L 210.096622 540.16216 
L 207.844793 539.104868 
L 205.603649 538.025111 
L 203.373414 536.922997 
L 201.154312 535.798635 
L 198.946564 534.65214 
L 196.750391 533.483625 
L 194.566013 532.293206 
L 192.393649 531.081004 
L 190.233514 529.847139 
L 188.085826 528.591735 
L 185.9508 527.314917 
L 183.828648 526.016813 
L 181.719583 524.697553 
L 179.623816 523.357269 
L 177.541556 521.996094 
L 175.473012 520.614165 
L 173.41839 519.21162 
L 171.377896 517.788599 
L 169.351735 516.345245 
L 167.340108 514.881701 
L 165.343216 513.398115 
L 163.361261 511.894635 
L 161.394438 510.37141 
L 159.442946 508.828594 
L 157.50698 507.26634 
L 155.586733 505.684805 
L 153.682397 504.084147 
L 151.794162 502.464526 
L 149.922218 500.826104 
L 148.066751 499.169044 
L 146.227947 497.493514 
L 144.40599 495.799679 
L 142.601063 494.087709 
L 140.813345 492.357777 
L 139.043015 490.610054 
L 137.290251 488.844715 
L 135.555228 487.061937 
L 133.838119 485.261898 
L 132.139096 483.444779 
L 131.916359 483.203841 
L 126.263287 488.422957 
L 126.492912 488.671346 
L 128.244482 490.544665 
L 130.014698 492.400375 
L 131.803382 494.23829 
L 133.610355 496.058227 
L 135.435437 497.860004 
L 137.278445 499.643439 
L 139.139195 501.408356 
L 141.017501 503.154578 
L 142.913175 504.881929 
L 144.826027 506.590238 
L 146.755867 508.279333 
L 148.7025 509.949045 
L 150.665734 511.599208 
L 152.64537 513.229656 
L 154.641212 514.840227 
L 156.653059 516.43076 
L 158.680711 518.001094 
L 160.723964 519.551074 
L 162.782615 521.080544 
L 164.856457 522.589352 
L 166.945284 524.077346 
L 169.048886 525.544378 
L 171.167052 526.9903 
L 173.299572 528.41497 
L 175.446232 529.818243 
L 177.606816 531.199979 
L 179.78111 532.560041 
L 181.968896 533.898293 
L 184.169954 535.2146 
L 186.384065 536.508831 
L 188.611008 537.780857 
L 190.850559 539.03055 
L 193.102495 540.257785 
L 195.366591 541.46244 
L 197.642619 542.644394 
L 199.930354 543.803529 
L 202.229565 544.939729 
L 204.540023 546.052881 
L 206.861496 547.142873 
L 209.193754 548.209596 
L 211.536561 549.252944 
L 213.889685 550.272811 
L 216.25289 551.269097 
L 218.62594 552.241701 
L 221.508132 545.108023 
z
" clip-path="url(#pa4e0fdb0ae)" style="fill: none; stroke: #000000; stroke-width: 0.5; stroke-linejoin: miter"/>
   </g>
   <g id="patch_21">
    <path d="M 117.904249 466.631131 
L 116.392327 464.655607 
L 114.900236 462.665063 
L 113.428124 460.659698 
L 111.976139 458.639712 
L 110.544427 456.605307 
L 109.133129 454.556688 
L 107.742388 452.494058 
L 106.372343 450.417624 
L 105.02313 448.327593 
L 103.694884 446.224176 
L 102.387739 444.107581 
L 101.101825 441.97802 
L 99.83727 439.835708 
L 98.594201 437.680857 
L 97.372743 435.513683 
L 96.173017 433.334403 
L 94.995143 431.143235 
L 93.83924 428.940399 
L 92.705422 426.726113 
L 91.593804 424.5006 
L 90.504496 422.264083 
L 89.437607 420.016784 
L 88.393244 417.758929 
L 87.371512 415.490744 
L 86.372512 413.212455 
L 85.396344 410.924289 
L 84.443107 408.626477 
L 83.512895 406.319248 
L 82.605801 404.002831 
L 81.721917 401.67746 
L 80.86133 399.343367 
L 80.024127 397.000784 
L 79.210391 394.649947 
L 78.420203 392.29109 
L 77.653644 389.924449 
L 76.910788 387.550261 
L 76.350301 385.701458 
L 68.97869 387.905035 
L 69.556513 389.811018 
L 70.322343 392.258634 
L 71.112611 394.69847 
L 71.927237 397.130282 
L 72.76614 399.553826 
L 73.629236 401.968859 
L 74.516439 404.375141 
L 75.42766 406.772431 
L 76.362808 409.160489 
L 77.32179 411.539076 
L 78.304508 413.907955 
L 79.310867 416.266888 
L 80.340763 418.61564 
L 81.394096 420.953975 
L 82.470759 423.281661 
L 83.570644 425.598463 
L 84.693642 427.904152 
L 85.83964 430.198495 
L 87.008525 432.481263 
L 88.200177 434.752229 
L 89.41448 437.011165 
L 90.651311 439.257845 
L 91.910547 441.492045 
L 93.192061 443.713541 
L 94.495726 445.92211 
L 95.82141 448.117533 
L 97.168983 450.29959 
L 98.538308 452.468062 
L 99.929249 454.622733 
L 101.341667 456.763386 
L 102.775421 458.889809 
L 104.230366 461.001788 
L 105.706359 463.099112 
L 107.20325 465.181572 
L 108.720891 467.248959 
L 110.25913 469.301066 
L 111.817812 471.337689 
L 117.904249 466.631131 
z
" clip-path="url(#pa4e0fdb0ae)" style="fill: none; stroke: #000000; stroke-width: 0.5; stroke-linejoin: miter"/>
   </g>
   <g id="patch_22">
    <path d="M 71.047529 364.656872 
L 70.557675 362.217888 
L 70.092236 359.774127 
L 69.651257 357.325833 
L 69.234782 354.873253 
L 68.842854 352.41663 
L 68.475511 349.956211 
L 68.13279 347.492242 
L 67.814726 345.024968 
L 67.52135 342.554638 
L 67.252692 340.081497 
L 67.008777 337.605793 
L 66.789632 335.127774 
L 66.595278 332.647688 
L 66.425733 330.165782 
L 66.281016 327.682304 
L 66.16114 325.197504 
L 66.066118 322.711629 
L 65.995959 320.224929 
L 65.950671 317.737651 
L 65.930256 315.250044 
L 65.934719 312.762358 
L 65.964057 310.274841 
L 65.966867 310.110805 
L 58.274119 309.976528 
L 58.271223 310.145637 
L 58.240977 312.710087 
L 58.236377 315.274712 
L 58.257422 317.839255 
L 58.304112 320.403459 
L 58.376441 322.967068 
L 58.474401 325.529826 
L 58.597985 328.091475 
L 58.747178 330.651761 
L 58.921966 333.210427 
L 59.122331 335.767217 
L 59.348254 338.321876 
L 59.599712 340.874148 
L 59.876679 343.423778 
L 60.179129 345.97051 
L 60.50703 348.514091 
L 60.86035 351.054266 
L 61.239054 353.59078 
L 61.643104 356.123381 
L 62.072459 358.651814 
L 62.527077 361.175828 
L 63.006912 363.69517 
L 63.511915 366.209587 
L 71.047529 364.656872 
z
" clip-path="url(#pa4e0fdb0ae)" style="fill: none; stroke: #000000; stroke-width: 0.5; stroke-linejoin: miter"/>
   </g>
   <g id="patch_23">
    <path d="M 67.291766 288.448889 
L 67.564168 285.976158 
L 67.861282 283.506274 
L 68.183081 281.039485 
L 68.52953 278.576037 
L 68.900597 276.116177 
L 69.296243 273.66015 
L 69.716429 271.208203 
L 70.161113 268.76058 
L 70.630251 266.317526 
L 71.123795 263.879285 
L 71.641697 261.446102 
L 72.183905 259.01822 
L 72.750363 256.59588 
L 73.341016 254.179327 
L 73.955805 251.7688 
L 74.594668 249.364542 
L 75.257542 246.966793 
L 75.944359 244.575792 
L 76.655051 242.191779 
L 77.389548 239.814992 
L 78.147775 237.445668 
L 78.929658 235.084046 
L 79.735117 232.730359 
L 80.564072 230.384846 
L 81.416441 228.047738 
L 82.292137 225.719271 
L 83.191075 223.399678 
L 84.113162 221.089189 
L 85.058308 218.788037 
L 85.463345 217.821494 
L 78.373581 214.832908 
L 77.956018 215.829344 
L 76.98164 218.201666 
L 76.031034 220.583613 
L 75.104295 222.974947 
L 74.201515 225.375428 
L 73.322785 227.784817 
L 72.468192 230.202872 
L 71.637821 232.629353 
L 70.831757 235.064016 
L 70.050079 237.506617 
L 69.292866 239.956913 
L 68.560194 242.414659 
L 67.852135 244.879608 
L 67.16876 247.351515 
L 66.510138 249.830131 
L 65.876335 252.31521 
L 65.267414 254.806502 
L 64.683437 257.303759 
L 64.12446 259.806731 
L 63.590541 262.315167 
L 63.081732 264.828817 
L 62.598085 267.347429 
L 62.139647 269.870752 
L 61.706466 272.398533 
L 61.298583 274.930519 
L 60.91604 277.466458 
L 60.558876 280.006095 
L 60.227125 282.549176 
L 59.920821 285.095448 
L 59.639995 287.644656 
L 67.291766 288.448889 
z
" clip-path="url(#pa4e0fdb0ae)" style="fill: none; stroke: #000000; stroke-width: 0.5; stroke-linejoin: miter"/>
   </g>
   <g id="patch_24">
    <path d="M 94.757598 198.209997 
L 95.931 196.016431 
L 97.126279 193.834709 
L 98.343315 191.665049 
L 99.581986 189.507667 
L 100.842168 187.362779 
L 102.123737 185.230601 
L 103.426562 183.111344 
L 104.750515 181.005222 
L 106.095462 178.912444 
L 107.46127 176.83322 
L 108.847801 174.767757 
L 110.254917 172.716263 
L 111.682477 170.678943 
L 113.130339 168.656 
L 114.598357 166.647636 
L 116.086386 164.654053 
L 117.594275 162.675449 
L 119.121875 160.712023 
L 120.669032 158.763971 
L 122.235592 156.831488 
L 123.821399 154.914767 
L 125.426293 153.013999 
L 125.5328 152.889212 
L 119.682298 147.892411 
L 119.572496 148.021057 
L 117.917967 149.980612 
L 116.283115 151.956613 
L 114.668104 153.948864 
L 113.073097 155.957165 
L 111.498251 157.981316 
L 109.943726 160.021113 
L 108.409676 162.076354 
L 106.896255 164.146832 
L 105.403614 166.23234 
L 103.931903 168.33267 
L 102.481268 170.447612 
L 101.051854 172.576955 
L 99.643805 174.720485 
L 98.257262 176.877988 
L 96.892362 179.049248 
L 95.549243 181.234049 
L 94.228039 183.432171 
L 92.928881 185.643395 
L 91.651901 187.8675 
L 90.397224 190.104264 
L 89.164978 192.353462 
L 87.955286 194.61487 
L 94.757598 198.209997 
z
" clip-path="url(#pa4e0fdb0ae)" style="fill: none; stroke: #000000; stroke-width: 0.5; stroke-linejoin: miter"/>
   </g>
   <g id="patch_25">
    <path d="M 140.333798 137.017085 
L 142.11684 135.282333 
L 143.91714 133.565498 
L 145.734518 131.866752 
L 147.568793 130.186264 
L 149.419781 128.524203 
L 151.287296 126.880734 
L 153.171152 125.256023 
L 155.071161 123.65023 
L 156.987133 122.063518 
L 158.918876 120.496045 
L 160.866196 118.947967 
L 162.8289 117.419439 
L 164.80679 115.910615 
L 166.79967 114.421644 
L 168.224876 113.375683 
L 163.694747 107.156814 
L 162.225463 108.235125 
L 160.170948 109.770146 
L 158.131885 111.325635 
L 156.108479 112.901437 
L 154.100932 114.497393 
L 152.109445 116.113345 
L 150.134217 117.749131 
L 148.175444 119.404587 
L 146.233325 121.079547 
L 144.308051 122.773845 
L 142.399816 124.48731 
L 140.508812 126.219772 
L 138.635226 127.971057 
L 136.779246 129.740989 
L 134.941058 131.529393 
L 140.333798 137.017085 
z
" clip-path="url(#pa4e0fdb0ae)" style="fill: none; stroke: #000000; stroke-width: 0.5; stroke-linejoin: miter"/>
   </g>
   <g id="patch_26">
    <path d="M 186.307249 101.374777 
L 188.444409 100.101534 
L 190.594195 98.849726 
L 192.756392 97.619479 
L 194.930782 96.410914 
L 197.11715 95.224153 
L 199.315275 94.059315 
L 201.524939 92.916517 
L 203.74592 91.795871 
L 205.977996 90.697491 
L 208.220944 89.621487 
L 210.47454 88.567965 
L 212.738558 87.537031 
L 215.012773 86.528789 
L 217.296955 85.543339 
L 219.590878 84.58078 
L 221.894312 83.641208 
L 224.207026 82.724717 
L 226.528789 81.831398 
L 228.859369 80.961341 
L 231.198533 80.114633 
L 233.546047 79.291359 
L 235.901677 78.4916 
L 238.265185 77.715438 
L 240.636338 76.962949 
L 243.014896 76.234209 
L 245.400623 75.52929 
L 247.79328 74.848263 
L 250.192627 74.191197 
L 252.598424 73.558157 
L 253.613775 73.298687 
L 251.72454 65.840324 
L 250.677787 66.107818 
L 248.197583 66.760437 
L 245.724029 67.437825 
L 243.257373 68.139914 
L 240.797861 68.866634 
L 238.345739 69.617913 
L 235.901252 70.393675 
L 233.464645 71.193842 
L 231.036161 72.018336 
L 228.616044 72.867072 
L 226.204534 73.739967 
L 223.801874 74.636933 
L 221.408304 75.55788 
L 219.024063 76.502716 
L 216.649389 77.471347 
L 214.28452 78.463676 
L 211.929692 79.479604 
L 209.585141 80.519029 
L 207.251102 81.581847 
L 204.927807 82.667952 
L 202.615489 83.777235 
L 200.31438 84.909586 
L 198.024709 86.06489 
L 195.746705 87.243033 
L 193.480596 88.443897 
L 191.226609 89.667362 
L 188.98497 90.913305 
L 186.755901 92.181601 
L 184.539627 93.472125 
L 182.336369 94.784746 
L 186.307249 101.374777 
z
" clip-path="url(#pa4e0fdb0ae)" style="fill: none; stroke: #000000; stroke-width: 0.5; stroke-linejoin: miter"/>
   </g>
   <g id="patch_27">
    <path d="M 274.864157 68.892419 
L 277.321708 68.506354 
L 279.782997 68.144884 
L 282.247777 67.808045 
L 284.715802 67.49587 
L 287.186826 67.20839 
L 289.660601 66.945635 
L 292.13688 66.70763 
L 293.017298 66.629027 
L 292.346728 58.964385 
L 291.439081 59.045419 
L 288.886216 59.290785 
L 286.335933 59.561667 
L 283.788486 59.858038 
L 281.24413 60.179868 
L 278.703119 60.527125 
L 276.165708 60.899774 
L 273.63215 61.297779 
L 274.864157 68.892419 
z
" clip-path="url(#pa4e0fdb0ae)" style="fill: none; stroke: #000000; stroke-width: 0.5; stroke-linejoin: miter"/>
   </g>
   <g id="text_1">
    <text style="font: 10px 'DejaVu Sans', 'Bitstream Vera Sans', 'Computer Modern Sans Serif', 'Lucida Grande', 'Verdana', 'Geneva', 'Lucid', 'Arial', 'Helvetica', 'Avant Garde', sans-serif; text-anchor: middle" x="354.474995" y="46.016511" transform="rotate(-351.571429 354.474995 46.016511)">SUBv</text>
   </g>
   <g id="text_2">
    <text style="font: 10px 'DejaVu Sans', 'Bitstream Vera Sans', 'Computer Modern Sans Serif', 'Lucida Grande', 'Verdana', 'Geneva', 'Lucid', 'Arial', 'Helvetica', 'Avant Garde', sans-serif; text-anchor: middle" x="442.844203" y="75.247943" transform="rotate(-331.821429 442.844203 75.247943)">SUBd</text>
   </g>
   <g id="text_3">
    <text style="font: 10px 'DejaVu Sans', 'Bitstream Vera Sans', 'Computer Modern Sans Serif', 'Lucida Grande', 'Verdana', 'Geneva', 'Lucid', 'Arial', 'Helvetica', 'Avant Garde', sans-serif; text-anchor: middle" x="560.210301" y="198.848832" transform="rotate(-295.214286 560.210301 198.848832)">NI</text>
   </g>
   <g id="text_4">
    <text style="font: 10px 'DejaVu Sans', 'Bitstream Vera Sans', 'Computer Modern Sans Serif', 'Lucida Grande', 'Verdana', 'Geneva', 'Lucid', 'Arial', 'Helvetica', 'Avant Garde', sans-serif; text-anchor: middle" x="495.177183" y="524.436446" transform="rotate(-40.678571 495.177183 524.436446)">LC</text>
   </g>
   <g id="text_5">
    <text style="font: 10px 'DejaVu Sans', 'Bitstream Vera Sans', 'Computer Modern Sans Serif', 'Lucida Grande', 'Verdana', 'Geneva', 'Lucid', 'Arial', 'Helvetica', 'Avant Garde', sans-serif; text-anchor: middle" x="253.422768" y="584.472556" transform="rotate(-347.214286 253.422768 584.472556)">DTN</text>
   </g>
   <g id="text_6">
    <text style="font: 10px 'DejaVu Sans', 'Bitstream Vera Sans', 'Computer Modern Sans Serif', 'Lucida Grande', 'Verdana', 'Geneva', 'Lucid', 'Arial', 'Helvetica', 'Avant Garde', sans-serif; text-anchor: middle" x="157.300837" y="542.249391" transform="rotate(-325.357143 157.300837 542.249391)">DG</text>
   </g>
   <g id="text_7">
    <text style="font: 10px 'DejaVu Sans', 'Bitstream Vera Sans', 'Computer Modern Sans Serif', 'Lucida Grande', 'Verdana', 'Geneva', 'Lucid', 'Arial', 'Helvetica', 'Avant Garde', sans-serif; text-anchor: middle" x="68.38512" y="440.924169" transform="rotate(-297.178571 68.38512 440.924169)">CA3</text>
   </g>
   <g id="text_8">
    <text style="font: 10px 'DejaVu Sans', 'Bitstream Vera Sans', 'Computer Modern Sans Serif', 'Lucida Grande', 'Verdana', 'Geneva', 'Lucid', 'Arial', 'Helvetica', 'Avant Garde', sans-serif; text-anchor: middle" x="39.006776" y="340.131638" transform="rotate(-275.321429 39.006776 340.131638)">CA2</text>
   </g>
   <g id="text_9">
    <text style="font: 10px 'DejaVu Sans', 'Bitstream Vera Sans', 'Computer Modern Sans Serif', 'Lucida Grande', 'Verdana', 'Geneva', 'Lucid', 'Arial', 'Helvetica', 'Avant Garde', sans-serif; text-anchor: middle" x="51.891347" y="246.835185" transform="rotate(-75.571429 51.891347 246.835185)">CA1v</text>
   </g>
   <g id="text_10">
    <text style="font: 10px 'DejaVu Sans', 'Bitstream Vera Sans', 'Computer Modern Sans Serif', 'Lucida Grande', 'Verdana', 'Geneva', 'Lucid', 'Arial', 'Helvetica', 'Avant Garde', sans-serif; text-anchor: middle" x="90.199744" y="162.005589" transform="rotate(-55.821429 90.199744 162.005589)">CA1d</text>
   </g>
   <g id="text_11">
    <text style="font: 10px 'DejaVu Sans', 'Bitstream Vera Sans', 'Computer Modern Sans Serif', 'Lucida Grande', 'Verdana', 'Geneva', 'Lucid', 'Arial', 'Helvetica', 'Avant Garde', sans-serif; text-anchor: middle" x="139.23333" y="107.445772" transform="rotate(-40.285714 139.23333 107.445772)">PAR</text>
   </g>
   <g id="text_12">
    <text style="font: 10px 'DejaVu Sans', 'Bitstream Vera Sans', 'Computer Modern Sans Serif', 'Lucida Grande', 'Verdana', 'Geneva', 'Lucid', 'Arial', 'Helvetica', 'Avant Garde', sans-serif; text-anchor: middle" x="210.226654" y="64.001854" transform="rotate(-22.642857 210.226654 64.001854)">PRE</text>
   </g>
   <g id="text_13">
    <text style="font: 10px 'DejaVu Sans', 'Bitstream Vera Sans', 'Computer Modern Sans Serif', 'Lucida Grande', 'Verdana', 'Geneva', 'Lucid', 'Arial', 'Helvetica', 'Avant Garde', sans-serif; text-anchor: middle" x="281.124121" y="45.170618" transform="rotate(-7.107143 281.124121 45.170618)">POST</text>
   </g>
  </g>
 </g>
 <defs>
  <clipPath id="pa4e0fdb0ae">
   <path d="M 583.986214 314.452441 
C 583.986214 279.089973 577.020579 244.07136 563.487949 211.4007 
C 549.955318 178.730039 530.118867 149.042693 505.113826 124.037652 
C 480.108785 99.032611 450.421439 79.19616 417.750778 65.663529 
C 385.080118 52.130899 350.061505 45.165264 314.699037 45.165264 
C 279.336569 45.165264 244.317956 52.130899 211.647296 65.663529 
C 178.976635 79.19616 149.289289 99.032611 124.284248 124.037652 
C 99.279207 149.042693 79.442756 178.730039 65.910125 211.4007 
C 52.377495 244.07136 45.411859 279.089973 45.411859 314.452441 
C 45.411859 349.814909 52.377495 384.833522 65.910125 417.504182 
C 79.442756 450.174843 99.279207 479.862189 124.284248 504.86723 
C 149.289289 529.872271 178.976635 549.708722 211.647296 563.241353 
C 244.317956 576.773983 279.336569 583.739619 314.699037 583.739619 
C 350.061505 583.739619 385.080118 576.773983 417.750778 563.241353 
C 450.421439 549.708722 480.108785 529.872271 505.113826 504.86723 
C 530.118867 479.862189 549.955318 450.174843 563.487949 417.504182 
C 577.020579 384.833522 583.986214 349.814909 583.986214 314.452441 
M 314.699037 314.452441 
C 314.699037 314.452441 314.699037 314.452441 314.699037 314.452441 
C 314.699037 314.452441 314.699037 314.452441 314.699037 314.452441 
C 314.699037 314.452441 314.699037 314.452441 314.699037 314.452441 
C 314.699037 314.452441 314.699037 314.452441 314.699037 314.452441 
C 314.699037 314.452441 314.699037 314.452441 314.699037 314.452441 
C 314.699037 314.452441 314.699037 314.452441 314.699037 314.452441 
C 314.699037 314.452441 314.699037 314.452441 314.699037 314.452441 
C 314.699037 314.452441 314.699037 314.452441 314.699037 314.452441 
C 314.699037 314.452441 314.699037 314.452441 314.699037 314.452441 
C 314.699037 314.452441 314.699037 314.452441 314.699037 314.452441 
C 314.699037 314.452441 314.699037 314.452441 314.699037 314.452441 
C 314.699037 314.452441 314.699037 314.452441 314.699037 314.452441 
C 314.699037 314.452441 314.699037 314.452441 314.699037 314.452441 
C 314.699037 314.452441 314.699037 314.452441 314.699037 314.452441 
C 314.699037 314.452441 314.699037 314.452441 314.699037 314.452441 
C 314.699037 314.452441 314.699037 314.452441 314.699037 314.452441 
z
"/>
  </clipPath>
 </defs>
</svg>
