<?xml version="1.0" encoding="utf-8" standalone="no"?>
<!DOCTYPE svg PUBLIC "-//W3C//DTD SVG 1.1//EN"
  "http://www.w3.org/Graphics/SVG/1.1/DTD/svg11.dtd">
<svg xmlns:xlink="http://www.w3.org/1999/xlink" width="625.650108pt" height="624.484889pt" viewBox="0 0 625.650108 624.484889" xmlns="http://www.w3.org/2000/svg" version="1.1">
 <metadata>
  <rdf:RDF xmlns:dc="http://purl.org/dc/elements/1.1/" xmlns:cc="http://creativecommons.org/ns#" xmlns:rdf="http://www.w3.org/1999/02/22-rdf-syntax-ns#">
   <cc:Work>
    <dc:type rdf:resource="http://purl.org/dc/dcmitype/StillImage"/>
    <dc:date>2024-12-11T12:06:36.878541</dc:date>
    <dc:format>image/svg+xml</dc:format>
    <dc:creator>
     <cc:Agent>
      <dc:title>Matplotlib v3.9.3, https://matplotlib.org/</dc:title>
     </cc:Agent>
    </dc:creator>
   </cc:Work>
  </rdf:RDF>
 </metadata>
 <defs>
  <style type="text/css">*{stroke-linejoin: round; stroke-linecap: butt}</style>
 </defs>
 <g id="figure_1">
  <g id="patch_1">
   <path d="M 0 624.484889 
L 625.650108 624.484889 
L 625.650108 0 
L 0 0 
z
" style="fill: #ffffff"/>
  </g>
  <g id="axes_1">
   <g id="patch_2">
    <path d="M 317.561664 56.730548 
L 320.075201 56.743116 
L 322.588486 56.780818 
L 325.10127 56.843651 
L 327.613299 56.931608 
L 330.124323 57.04468 
L 332.63409 57.182857 
L 335.142351 57.346124 
L 337.648853 57.534465 
L 340.153347 57.747861 
L 342.655581 57.986291 
L 345.155306 58.249731 
L 347.652272 58.538154 
L 350.146229 58.851533 
L 352.636927 59.189835 
L 355.124118 59.553026 
L 357.607553 59.941071 
L 360.086983 60.353931 
L 362.562161 60.791564 
L 365.032838 61.253926 
L 367.498769 61.740971 
L 369.959706 62.252651 
L 372.415403 62.788915 
L 374.865614 63.349708 
L 377.310096 63.934975 
L 379.748602 64.544656 
L 382.18089 65.178693 
L 384.606717 65.837019 
L 387.025838 66.519571 
L 389.438014 67.22628 
L 391.843001 67.957074 
L 394.240561 68.711882 
L 396.630453 69.490627 
L 399.012438 70.293231 
L 401.386278 71.119615 
L 403.751735 71.969696 
L 406.108574 72.843388 
L 408.456558 73.740604 
L 410.795453 74.661255 
L 413.125024 75.605249 
L 415.445039 76.572491 
L 417.755266 77.562884 
L 420.055473 78.576329 
L 422.345432 79.612726 
L 424.624912 80.67197 
L 426.893685 81.753955 
L 429.151526 82.858574 
L 431.398208 83.985715 
L 433.633506 85.135267 
L 435.857197 86.307113 
L 438.069059 87.501138 
L 440.26887 88.717221 
L 442.45641 89.955241 
L 444.631461 91.215074 
L 446.793805 92.496595 
L 448.943226 93.799674 
L 451.079509 95.124182 
L 453.20244 96.469987 
L 455.311808 97.836953 
L 457.4074 99.224943 
L 459.489008 100.633821 
L 461.556423 102.063443 
L 463.609439 103.513668 
L 465.647851 104.98435 
L 467.671454 106.475342 
L 469.680046 107.986496 
L 471.673426 109.517659 
L 473.651395 111.06868 
L 475.613756 112.639402 
L 477.560311 114.229669 
L 479.490867 115.839321 
L 481.405229 117.468199 
L 483.303208 119.116138 
L 485.184612 120.782974 
L 487.049255 122.468541 
L 488.896949 124.17267 
L 490.727509 125.89519 
L 492.540753 127.635929 
L 494.336499 129.394713 
L 496.114568 131.171367 
L 497.874782 132.965712 
L 499.616964 134.777569 
L 501.340942 136.606757 
L 503.046541 138.453093 
L 504.733592 140.316393 
L 506.401926 142.196469 
L 508.051376 144.093135 
L 509.681778 146.0062 
L 511.292967 147.935473 
L 512.884784 149.880762 
L 514.457068 151.841871 
L 516.009663 153.818604 
L 517.542413 155.810764 
L 519.055166 157.818152 
L 520.547769 159.840567 
L 522.020074 161.877807 
L 523.471933 163.929667 
L 524.903202 165.995944 
L 526.313736 168.076429 
L 527.703395 170.170916 
L 529.07204 172.279194 
L 530.419535 174.401053 
L 531.745744 176.53628 
L 533.050534 178.684663 
L 534.333776 180.845986 
L 535.595341 183.020033 
L 536.835103 185.206587 
L 538.052937 187.405428 
L 539.248723 189.616339 
L 540.42234 191.839096 
L 541.573671 194.073478 
L 542.702601 196.319261 
L 543.809018 198.576222 
L 544.892809 200.844133 
L 545.953868 203.122769 
L 546.992088 205.411901 
L 548.007365 207.711301 
L 548.999597 210.020738 
L 549.968686 212.339982 
L 550.914535 214.668801 
L 551.837048 217.006962 
L 552.736134 219.354231 
L 553.611703 221.710373 
L 554.463667 224.075153 
L 554.756398 224.905212 
L 562.092317 222.332534 
L 561.790533 221.476803 
L 560.912219 219.038886 
L 560.009571 216.609874 
L 559.082678 214.190009 
L 558.131634 211.779534 
L 557.156532 209.37869 
L 556.157471 206.987716 
L 555.134551 204.606853 
L 554.087874 202.236338 
L 553.017544 199.876408 
L 551.923669 197.527299 
L 550.806358 195.189246 
L 549.665723 192.862482 
L 548.501878 190.547242 
L 547.314938 188.243755 
L 546.105024 185.952253 
L 544.872255 183.672964 
L 543.616756 181.406117 
L 542.338651 179.151938 
L 541.038068 176.910652 
L 539.715139 174.682484 
L 538.369994 172.467656 
L 537.002768 170.266391 
L 535.613599 168.078908 
L 534.202624 165.905425 
L 532.769986 163.746161 
L 531.315826 161.60133 
L 529.840292 159.471149 
L 528.34353 157.355828 
L 526.82569 155.255581 
L 525.286924 153.170618 
L 523.727385 151.101146 
L 522.14723 149.047372 
L 520.546617 147.009502 
L 518.925705 144.987741 
L 517.284657 142.982289 
L 515.623637 140.993347 
L 513.942811 139.021115 
L 512.242347 137.06579 
L 510.522415 135.127566 
L 508.783187 133.206639 
L 507.024837 131.3032 
L 505.247541 129.417439 
L 503.451476 127.549545 
L 501.636823 125.699704 
L 499.803762 123.868103 
L 497.952477 122.054923 
L 496.083154 120.260347 
L 494.195978 118.484553 
L 492.291139 116.727719 
L 490.368827 114.990022 
L 488.429235 113.271634 
L 486.472556 111.572727 
L 484.498986 109.893472 
L 482.508723 108.234036 
L 480.501965 106.594586 
L 478.478913 104.975285 
L 476.439769 103.376295 
L 474.384738 101.797776 
L 472.314025 100.239885 
L 470.227836 98.70278 
L 468.126381 97.186613 
L 466.00987 95.691536 
L 463.878514 94.217698 
L 461.732526 92.765248 
L 459.572121 91.334329 
L 457.397516 89.925086 
L 455.208927 88.537659 
L 453.006573 87.172186 
L 450.790675 85.828806 
L 448.561455 84.507651 
L 446.319134 83.208853 
L 444.063938 81.932544 
L 441.796091 80.67885 
L 439.515822 79.447897 
L 437.223357 78.239808 
L 434.918926 77.054703 
L 432.602759 75.892701 
L 430.275088 74.753919 
L 427.936146 73.638471 
L 425.586167 72.546467 
L 423.225385 71.478016 
L 420.854037 70.433227 
L 418.47236 69.412203 
L 416.080592 68.415047 
L 413.678972 67.441858 
L 411.26774 66.492733 
L 408.847138 65.567767 
L 406.417408 64.667054 
L 403.978792 63.790682 
L 401.531534 62.93874 
L 399.075879 62.111313 
L 396.612073 61.308483 
L 394.140362 60.530331 
L 391.660993 59.776934 
L 389.174215 59.048369 
L 386.680275 58.344707 
L 384.179423 57.66602 
L 381.67191 57.012374 
L 379.157986 56.383836 
L 376.637902 55.780468 
L 374.11191 55.202331 
L 371.580264 54.649482 
L 369.043215 54.121977 
L 366.501019 53.619868 
L 363.953929 53.143206 
L 361.402199 52.692039 
L 358.846086 52.26641 
L 356.285844 51.866364 
L 353.721729 51.49194 
L 351.153999 51.143175 
L 348.58291 50.820104 
L 346.008718 50.52276 
L 343.431682 50.251173 
L 340.852059 50.005368 
L 338.270106 49.785372 
L 335.686083 49.591206 
L 333.100248 49.42289 
L 330.512858 49.28044 
L 327.924174 49.16387 
L 325.334453 49.073193 
L 322.743955 49.008417 
L 320.152939 48.969549 
L 317.561664 48.956593 
z
" clip-path="url(#pce47451078)" style="fill: #000080"/>
   </g>
   <g id="patch_3">
    <path d="M 561.103697 245.894632 
L 561.713447 248.333121 
L 562.298783 250.777586 
L 562.859646 253.227782 
L 563.395978 255.683464 
L 563.907728 258.144387 
L 564.394843 260.610303 
L 564.857275 263.080968 
L 565.294977 265.556133 
L 565.707907 268.035552 
L 566.096022 270.518975 
L 566.459284 273.006156 
L 566.797656 275.496845 
L 567.111105 277.990793 
L 567.399599 280.48775 
L 567.663109 282.987468 
L 567.90161 285.489696 
L 568.115077 287.994184 
L 568.303489 290.500681 
L 568.466826 293.008937 
L 568.605074 295.5187 
L 568.718217 298.029721 
L 568.806245 300.541748 
L 568.869148 303.054529 
L 568.906921 305.567814 
L 568.91956 308.08135 
L 568.907063 310.594888 
L 568.869432 313.108175 
L 568.80667 315.620959 
L 568.718784 318.132991 
L 568.605783 320.644018 
L 568.467677 323.15379 
L 568.304481 325.662055 
L 568.116211 328.168562 
L 567.902885 330.673062 
L 567.664526 333.175303 
L 567.401157 335.675036 
L 567.112803 338.17201 
L 566.799495 340.665976 
L 566.461264 343.156683 
L 566.098142 345.643885 
L 565.710167 348.12733 
L 565.297378 350.606772 
L 564.859815 353.081962 
L 564.397522 355.552653 
L 563.910547 358.018597 
L 563.398936 360.479548 
L 562.862742 362.93526 
L 562.302018 365.385488 
L 561.71682 367.829986 
L 561.107207 370.26851 
L 560.47324 372.700816 
L 559.814981 375.12666 
L 559.132498 377.545801 
L 558.425857 379.957996 
L 557.695131 382.363005 
L 556.940391 384.760586 
L 556.161713 387.150499 
L 555.359176 389.532507 
L 554.532859 391.90637 
L 553.682846 394.271852 
L 552.80922 396.628715 
L 551.91207 398.976725 
L 550.991485 401.315645 
L 550.047557 403.645243 
L 549.08038 405.965286 
L 548.090052 408.275541 
L 547.076672 410.575777 
L 546.04034 412.865764 
L 544.98116 415.145274 
L 543.899239 417.414078 
L 542.794684 419.67195 
L 541.667606 421.918664 
L 540.518118 424.153994 
L 539.346334 426.377718 
L 538.152372 428.589614 
L 536.936351 430.789459 
L 535.698392 432.977034 
L 534.438621 435.152121 
L 533.157161 437.314501 
L 531.854142 439.463959 
L 530.529695 441.600279 
L 529.18395 443.723249 
L 527.817044 445.832655 
L 526.429112 447.928286 
L 525.020294 450.009934 
L 523.59073 452.07739 
L 522.140563 454.130447 
L 520.669938 456.168899 
L 519.179003 458.192544 
L 517.667906 460.201179 
L 516.136799 462.194602 
L 514.585834 464.172615 
L 513.015168 466.13502 
L 511.424956 468.08162 
L 509.815357 470.012221 
L 508.186534 471.92663 
L 506.538648 473.824655 
L 504.871865 475.706107 
L 503.186351 477.570797 
L 501.482275 479.418539 
L 499.759806 481.249148 
L 498.019118 483.062441 
L 496.260385 484.858237 
L 494.483781 486.636356 
L 492.689486 488.39662 
L 490.877678 490.138854 
L 489.048538 491.862883 
L 487.20225 493.568534 
L 485.338998 495.255638 
L 483.458969 496.924025 
L 481.56235 498.573529 
L 479.649331 500.203984 
L 477.720103 501.815228 
L 475.77486 503.407099 
L 473.813795 504.979439 
L 471.837105 506.53209 
L 469.844988 508.064897 
L 467.837643 509.577706 
L 465.81527 511.070366 
L 463.778072 512.542728 
L 461.726253 513.994645 
L 459.660017 515.425972 
L 457.579571 516.836565 
L 455.485124 518.226284 
L 453.376885 519.594988 
L 451.255064 520.942543 
L 449.119874 522.268812 
L 446.971528 523.573663 
L 444.810241 524.856966 
L 442.63623 526.118592 
L 440.449711 527.358416 
L 438.250903 528.576312 
L 436.040027 529.77216 
L 433.817303 530.94584 
L 431.582953 532.097234 
L 429.337202 533.226228 
L 427.080273 534.332708 
L 424.812392 535.416563 
L 422.533786 536.477686 
L 420.244683 537.515971 
L 417.945312 538.531313 
L 415.635903 539.52361 
L 413.316686 540.492765 
L 410.987894 541.438679 
L 408.649759 542.361258 
L 406.302516 543.26041 
L 403.946398 544.136046 
L 401.581642 544.988076 
L 400.210404 545.469948 
L 402.76655 552.811644 
L 404.180198 552.314869 
L 406.618091 551.436487 
L 409.047078 550.53377 
L 411.466917 549.606809 
L 413.877365 548.655696 
L 416.278181 547.680527 
L 418.669127 546.681399 
L 421.049961 545.658412 
L 423.420447 544.611668 
L 425.780347 543.541271 
L 428.129425 542.44733 
L 430.467446 541.329953 
L 432.794177 540.189252 
L 435.109385 539.025341 
L 437.412838 537.838337 
L 439.704306 536.628358 
L 441.98356 535.395525 
L 444.250372 534.139961 
L 446.504515 532.861793 
L 448.745764 531.561147 
L 450.973895 530.238154 
L 453.188684 528.892947 
L 455.389911 527.525659 
L 457.577355 526.136428 
L 459.750798 524.725392 
L 461.910022 523.292693 
L 464.054811 521.838473 
L 466.184951 520.362878 
L 468.300229 518.866057 
L 470.400433 517.348157 
L 472.485354 515.809332 
L 474.554782 514.249735 
L 476.608511 512.669522 
L 478.646335 511.068851 
L 480.668051 509.447882 
L 482.673457 507.806778 
L 484.662351 506.145702 
L 486.634536 504.46482 
L 488.589813 502.764301 
L 490.527988 501.044314 
L 492.448866 499.305032 
L 494.352256 497.546628 
L 496.237967 495.769279 
L 498.10581 493.973162 
L 499.955599 492.158456 
L 501.787149 490.325344 
L 503.600277 488.474008 
L 505.3948 486.604633 
L 507.170541 484.717408 
L 508.927321 482.812519 
L 510.664964 480.890158 
L 512.383297 478.950517 
L 514.082149 476.993791 
L 515.761348 475.020173 
L 517.420728 473.029863 
L 519.060121 471.023059 
L 520.679365 468.999961 
L 522.278298 466.960772 
L 523.856759 464.905696 
L 525.414591 462.834939 
L 526.951637 460.748707 
L 528.467745 458.647209 
L 529.962762 456.530656 
L 531.43654 454.399258 
L 532.88893 452.25323 
L 534.319788 450.092785 
L 535.728969 447.918139 
L 537.116335 445.729511 
L 538.481745 443.527119 
L 539.825063 441.311183 
L 541.146155 439.081925 
L 542.444889 436.839568 
L 543.721135 434.584336 
L 544.974765 432.316454 
L 546.205654 430.03615 
L 547.413678 427.74365 
L 548.598718 425.439186 
L 549.760654 423.122986 
L 550.89937 420.795283 
L 552.014753 418.45631 
L 553.106691 416.1063 
L 554.175074 413.745488 
L 555.219796 411.37411 
L 556.240753 408.992405 
L 557.237842 406.600608 
L 558.210964 404.198961 
L 559.16002 401.787702 
L 560.084917 399.367074 
L 560.985562 396.937318 
L 561.861865 394.498677 
L 562.713738 392.051396 
L 563.541096 389.595718 
L 564.343857 387.131889 
L 565.121939 384.660156 
L 565.875265 382.180766 
L 566.603761 379.693967 
L 567.307352 377.200007 
L 567.985969 374.699136 
L 568.639544 372.191604 
L 569.268011 369.677662 
L 569.871307 367.157561 
L 570.449373 364.631554 
L 571.002151 362.099892 
L 571.529584 359.562828 
L 572.031621 357.020618 
L 572.508211 354.473514 
L 572.959307 351.921772 
L 573.384863 349.365646 
L 573.784837 346.805393 
L 574.159189 344.241268 
L 574.507882 341.673528 
L 574.83088 339.102429 
L 575.128151 336.52823 
L 575.399666 333.951186 
L 575.645397 331.371555 
L 575.86532 328.789597 
L 576.059413 326.205568 
L 576.227657 323.619728 
L 576.370034 321.032335 
L 576.48653 318.443647 
L 576.577135 315.853924 
L 576.641837 313.263424 
L 576.680632 310.672407 
L 576.693516 308.081131 
L 576.680486 305.489856 
L 576.641545 302.898841 
L 576.576696 300.308345 
L 576.485945 297.718627 
L 576.369303 295.129945 
L 576.22678 292.54256 
L 576.05839 289.956729 
L 575.864151 287.372712 
L 575.644083 284.790766 
L 575.398206 282.211149 
L 575.126545 279.634121 
L 574.829129 277.059937 
L 574.505986 274.488857 
L 574.157148 271.921137 
L 573.782651 269.357033 
L 573.382533 266.796802 
L 572.956832 264.240701 
L 572.505593 261.688984 
L 572.028859 259.141907 
L 571.526678 256.599725 
L 570.999101 254.062692 
L 570.446181 251.531061 
L 569.867973 249.005086 
L 569.264534 246.485019 
L 568.635925 243.971112 
z
" clip-path="url(#pce47451078)" style="fill: #0010ff"/>
   </g>
   <g id="patch_4">
    <path d="M 379.206739 551.769952 
L 376.766882 552.374208 
L 374.321105 552.954036 
L 371.869652 553.509378 
L 369.412768 554.040178 
L 366.950699 554.546383 
L 364.483692 555.027942 
L 362.011992 555.484808 
L 359.535847 555.916934 
L 357.055505 556.324278 
L 354.571213 556.706798 
L 352.08322 557.064456 
L 349.591776 557.397217 
L 347.097128 557.705048 
L 344.599527 557.987917 
L 342.099222 558.245796 
L 339.596463 558.47866 
L 337.091501 558.686485 
L 334.584586 558.86925 
L 332.075969 559.026938 
L 329.5659 559.159531 
L 327.054631 559.267018 
L 324.542412 559.349388 
L 322.029495 559.406631 
L 319.516132 559.438743 
L 317.002573 559.44572 
L 314.48907 559.427561 
L 311.975875 559.384269 
L 309.463238 559.315847 
L 306.95141 559.222303 
L 304.440644 559.103646 
L 301.93119 558.959887 
L 299.423299 558.791041 
L 296.917222 558.597126 
L 294.413209 558.378159 
L 291.911511 558.134164 
L 289.412378 557.865165 
L 286.91606 557.571188 
L 284.422806 557.252263 
L 281.932866 556.908422 
L 279.44649 556.539699 
L 276.963924 556.146131 
L 274.485419 555.727758 
L 272.01122 555.284621 
L 269.541577 554.816764 
L 267.076736 554.324235 
L 264.616944 553.807082 
L 262.162445 553.265358 
L 259.713487 552.699116 
L 257.270314 552.108414 
L 254.833169 551.49331 
L 252.402297 550.853865 
L 249.977942 550.190144 
L 247.560344 549.502213 
L 245.149747 548.790141 
L 242.74639 548.053999 
L 240.350516 547.29386 
L 237.962362 546.509802 
L 235.582168 545.701901 
L 233.210172 544.870239 
L 230.846611 544.014899 
L 228.491722 543.135967 
L 226.145739 542.23353 
L 223.808898 541.307679 
L 221.481432 540.358506 
L 219.163574 539.386106 
L 216.855556 538.390577 
L 214.557608 537.372018 
L 212.269961 536.33053 
L 209.992843 535.266219 
L 207.726481 534.17919 
L 205.471103 533.069552 
L 203.226934 531.937416 
L 200.994198 530.782895 
L 198.773119 529.606105 
L 196.563919 528.407164 
L 194.366818 527.186191 
L 192.182037 525.943308 
L 190.009794 524.67864 
L 189.737758 524.518205 
L 185.784441 531.211909 
L 186.06489 531.377306 
L 188.304317 532.681087 
L 190.556668 533.96241 
L 192.821721 535.221145 
L 195.099247 536.457167 
L 197.389019 537.670352 
L 199.690808 538.86058 
L 202.004385 540.02773 
L 204.329517 541.171687 
L 206.665972 542.292335 
L 209.013516 543.389564 
L 211.371916 544.463262 
L 213.740934 545.513323 
L 216.120334 546.539642 
L 218.509878 547.542116 
L 220.909328 548.520645 
L 223.318442 549.475131 
L 225.736981 550.405478 
L 228.164702 551.311594 
L 230.601363 552.193387 
L 233.04672 553.050771 
L 235.500528 553.883658 
L 237.962542 554.691966 
L 240.432516 555.475614 
L 242.910203 556.234523 
L 245.395355 556.968618 
L 247.887723 557.677825 
L 250.387059 558.362074 
L 252.893113 559.021295 
L 255.405633 559.655423 
L 257.924368 560.264395 
L 260.449068 560.848149 
L 262.979478 561.406628 
L 265.515347 561.939775 
L 268.05642 562.447537 
L 270.602444 562.929863 
L 273.153164 563.386706 
L 275.708324 563.818018 
L 278.26767 564.223758 
L 280.830945 564.603885 
L 283.397893 564.958361 
L 285.968258 565.287149 
L 288.541781 565.590218 
L 291.118207 565.867537 
L 293.697277 566.119078 
L 296.278734 566.344817 
L 298.862319 566.54473 
L 301.447773 566.718798 
L 304.03484 566.867002 
L 306.623258 566.98933 
L 309.212771 567.085767 
L 311.803118 567.156305 
L 314.394042 567.200936 
L 316.985282 567.219656 
L 319.57658 567.212463 
L 322.167676 567.179358 
L 324.758312 567.120345 
L 327.348228 567.035428 
L 329.937165 566.924617 
L 332.524865 566.787922 
L 335.111068 566.625357 
L 337.695517 566.43694 
L 340.277952 566.222687 
L 342.858116 565.982621 
L 345.43575 565.716767 
L 348.010596 565.425149 
L 350.582398 565.107798 
L 353.150897 564.764745 
L 355.715838 564.396025 
L 358.276964 564.001675 
L 360.834018 563.581733 
L 363.386744 563.136242 
L 365.934888 562.665246 
L 368.478195 562.168794 
L 371.016411 561.646933 
L 373.549281 561.099716 
L 376.076552 560.527199 
L 378.597972 559.929438 
L 381.113288 559.306493 
z
" clip-path="url(#pce47451078)" style="fill: #00a4ff"/>
   </g>
   <g id="patch_5">
    <path d="M 171.36107 512.554037 
L 169.323758 511.081833 
L 167.30127 509.589329 
L 165.293807 508.076675 
L 163.301572 506.544022 
L 161.324762 504.991524 
L 159.363576 503.419336 
L 157.418209 501.827615 
L 155.488857 500.216521 
L 153.575712 498.586213 
L 151.678965 496.936856 
L 149.798807 495.268615 
L 147.935424 493.581655 
L 146.089004 491.876146 
L 144.259731 490.152259 
L 142.447789 488.410166 
L 140.653357 486.65004 
L 138.876616 484.872058 
L 137.117744 483.076399 
L 135.376916 481.26324 
L 133.654306 479.432764 
L 131.950086 477.585154 
L 130.264428 475.720595 
L 128.597499 473.839272 
L 126.949467 471.941374 
L 125.320495 470.027092 
L 123.710748 468.096615 
L 122.120385 466.150138 
L 120.549566 464.187855 
L 118.998449 462.209962 
L 117.467188 460.216657 
L 115.955935 458.208139 
L 114.464844 456.184609 
L 112.994061 454.14627 
L 111.543736 452.093325 
L 110.114012 450.02598 
L 108.705032 447.944441 
L 107.316939 445.848917 
L 105.949869 443.739617 
L 104.60396 441.616752 
L 103.279347 439.480534 
L 101.976162 437.331177 
L 100.694536 435.168896 
L 99.434596 432.993907 
L 98.196468 430.806427 
L 96.980277 428.606676 
L 95.786144 426.394873 
L 94.614188 424.171239 
L 93.464526 421.935998 
L 92.337275 419.689371 
L 91.232545 417.431585 
L 90.150448 415.162864 
L 89.091092 412.883436 
L 88.054583 410.593529 
L 87.041025 408.293371 
L 86.050518 405.983193 
L 85.083163 403.663226 
L 84.139055 401.333701 
L 83.218289 398.994851 
L 82.682232 397.600706 
L 75.41792 400.369126 
L 75.970555 401.80639 
L 76.919799 404.217575 
L 77.893106 406.619147 
L 78.89038 409.010866 
L 79.911521 411.392493 
L 80.956426 413.763789 
L 82.024992 416.124519 
L 83.117112 418.474444 
L 84.232676 420.813332 
L 85.371572 423.140946 
L 86.533687 425.457056 
L 87.718905 427.761429 
L 88.927107 430.053835 
L 90.158172 432.334044 
L 91.411978 434.601829 
L 92.688398 436.856962 
L 93.987305 439.099219 
L 95.308569 441.328375 
L 96.652059 443.544207 
L 98.01764 445.746493 
L 99.405174 447.935014 
L 100.814524 450.10955 
L 102.245549 452.269885 
L 103.698105 454.415801 
L 105.172047 456.547085 
L 106.667228 458.663522 
L 108.183499 460.764903 
L 109.720707 462.851016 
L 111.278699 464.921653 
L 112.857319 466.976606 
L 114.456409 469.015671 
L 116.075809 471.038644 
L 117.715358 473.045321 
L 119.374892 475.035503 
L 121.054244 477.008991 
L 122.753247 478.965586 
L 124.47173 480.905094 
L 126.209522 482.827321 
L 127.966449 484.732073 
L 129.742336 486.619162 
L 131.537004 488.488397 
L 133.350275 490.339593 
L 135.181966 492.172564 
L 137.031896 493.987126 
L 138.899878 495.783099 
L 140.785726 497.560302 
L 142.689252 499.318559 
L 144.610265 501.057692 
L 146.548572 502.777529 
L 148.503981 504.477897 
L 150.476296 506.158626 
L 152.465319 507.819549 
L 154.470852 509.460498 
L 156.492693 511.08131 
L 158.530641 512.681824 
L 160.584492 514.261878 
L 162.654041 515.821315 
L 164.739081 517.359979 
L 166.839402 518.877716 
z
" clip-path="url(#pce47451078)" style="fill: #40ffb7"/>
   </g>
   <g id="patch_6">
    <path d="M 75.774512 376.788993 
L 75.099607 374.367727 
L 74.448948 371.939833 
L 73.8226 369.505554 
L 73.220626 367.065133 
L 72.643086 364.618814 
L 72.090038 362.166843 
L 71.561536 359.709464 
L 71.057635 357.246922 
L 70.578383 354.779465 
L 70.12383 352.307339 
L 69.69402 349.830791 
L 69.288997 347.350069 
L 68.908801 344.86542 
L 68.55347 342.377094 
L 68.223039 339.88534 
L 67.917542 337.390405 
L 67.63701 334.89254 
L 67.381469 332.391995 
L 67.150947 329.88902 
L 66.945465 327.383864 
L 66.765045 324.876779 
L 66.609704 322.368016 
L 66.479458 319.857824 
L 66.37432 317.346455 
L 66.294301 314.834161 
L 66.239408 312.321192 
L 66.209648 309.807799 
L 66.205022 307.294235 
L 66.225531 304.78075 
L 66.271175 302.267596 
L 66.341946 299.755024 
L 66.43784 297.243286 
L 66.558846 294.732632 
L 66.704952 292.223313 
L 66.876143 289.715581 
L 67.072403 287.209686 
L 67.293712 284.705879 
L 67.540047 282.204411 
L 67.636262 281.291325 
L 59.90661 280.462548 
L 59.807419 281.403873 
L 59.553466 283.982707 
L 59.325313 286.563951 
L 59.122983 289.147348 
L 58.946497 291.732639 
L 58.795872 294.319565 
L 58.671124 296.907868 
L 58.572265 299.49729 
L 58.499304 302.08757 
L 58.452249 304.678451 
L 58.431105 307.269672 
L 58.435874 309.860975 
L 58.466555 312.452101 
L 58.523146 315.042791 
L 58.60564 317.632785 
L 58.714029 320.221825 
L 58.848303 322.809652 
L 59.008448 325.396006 
L 59.194449 327.98063 
L 59.406285 330.563264 
L 59.643938 333.143652 
L 59.907381 335.721533 
L 60.19659 338.296651 
L 60.511535 340.868749 
L 60.852185 343.437568 
L 61.218506 346.002853 
L 61.610461 348.564346 
L 62.028011 351.121791 
L 62.471113 353.674934 
L 62.939725 356.223517 
L 63.433799 358.767288 
L 63.953285 361.30599 
L 64.498132 363.839371 
L 65.068285 366.367176 
L 65.663687 368.889154 
L 66.284279 371.405052 
L 66.929998 373.914618 
L 67.60078 376.417602 
L 68.296559 378.913752 
z
" clip-path="url(#pce47451078)" style="fill: #b7ff40"/>
   </g>
   <g id="patch_7">
    <path d="M 70.922826 259.610862 
L 71.419926 257.146939 
L 71.941639 254.68811 
L 72.487915 252.23462 
L 73.058697 249.786716 
L 73.65393 247.344642 
L 74.273553 244.908643 
L 74.917505 242.478961 
L 75.585721 240.055841 
L 76.278134 237.639523 
L 76.994676 235.23025 
L 77.735274 232.828263 
L 78.499854 230.433803 
L 79.288341 228.047107 
L 80.100654 225.668415 
L 80.936714 223.297966 
L 81.796436 220.935995 
L 82.679734 218.58274 
L 83.58652 216.238435 
L 84.516703 213.903315 
L 85.470191 211.577614 
L 86.446888 209.261563 
L 87.446696 206.955395 
L 88.469515 204.65934 
L 89.515243 202.373628 
L 90.583776 200.098488 
L 91.675007 197.834146 
L 92.788825 195.58083 
L 93.925121 193.338765 
L 95.083781 191.108174 
L 96.264688 188.889281 
L 97.467724 186.682308 
L 98.69277 184.487476 
L 99.939702 182.305003 
L 101.208397 180.135109 
L 102.498727 177.97801 
L 103.810562 175.833922 
L 105.143773 173.703059 
L 106.498225 171.585635 
L 107.873784 169.481861 
L 109.270311 167.391947 
L 110.687667 165.316103 
L 112.12571 163.254536 
L 113.584297 161.207453 
L 115.063281 159.175057 
L 116.562515 157.157552 
L 118.081848 155.155141 
L 119.62113 153.168023 
L 121.180205 151.196396 
L 122.758918 149.240459 
L 124.357112 147.300406 
L 125.974626 145.376432 
L 127.611298 143.468729 
L 129.266965 141.577488 
L 130.941462 139.702898 
L 132.63462 137.845146 
L 134.346271 136.004419 
L 136.076243 134.1809 
L 137.824364 132.374771 
L 138.871682 131.309819 
L 133.345188 125.842439 
L 132.265478 126.940327 
L 130.463292 128.802316 
L 128.679815 130.682232 
L 126.915227 132.57989 
L 125.169703 134.495098 
L 123.443418 136.427665 
L 121.736544 138.377398 
L 120.049253 140.344102 
L 118.381713 142.32758 
L 116.734091 144.327635 
L 115.106552 146.344065 
L 113.499258 148.376669 
L 111.912369 150.425245 
L 110.346046 152.489587 
L 108.800444 154.569488 
L 107.275718 156.664741 
L 105.772021 158.775137 
L 104.289502 160.900464 
L 102.82831 163.040509 
L 101.388591 165.195059 
L 99.97049 167.363898 
L 98.574147 169.54681 
L 97.199703 171.743576 
L 95.847295 173.953976 
L 94.517059 176.177789 
L 93.209126 178.414794 
L 91.923629 180.664765 
L 90.660695 182.927479 
L 89.420451 185.202709 
L 88.203021 187.490227 
L 87.008527 189.789805 
L 85.837088 192.101213 
L 84.688821 194.42422 
L 83.563841 196.758592 
L 82.462261 199.104098 
L 81.384191 201.460502 
L 80.329738 203.827569 
L 79.299008 206.205062 
L 78.292104 208.592742 
L 77.309127 210.990373 
L 76.350175 213.397713 
L 75.415344 215.814522 
L 74.504728 218.240559 
L 73.618416 220.67558 
L 72.756499 223.119342 
L 71.919063 225.571602 
L 71.10619 228.032113 
L 70.317963 230.500629 
L 69.55446 232.976904 
L 68.815757 235.46069 
L 68.101929 237.951739 
L 67.413046 240.449802 
L 66.749178 242.954628 
L 66.110392 245.465968 
L 65.49675 247.98357 
L 64.908314 250.507182 
L 64.345144 253.036553 
L 63.807295 255.571428 
L 63.294821 258.111556 
z
" clip-path="url(#pce47451078)" style="fill: #ffb900"/>
   </g>
   <g id="patch_8">
    <path d="M 154.958924 116.408657 
L 156.88382 114.79224 
L 158.824783 113.195153 
L 160.781621 111.617556 
L 162.754136 110.059605 
L 164.742131 108.521457 
L 166.745409 107.003265 
L 168.763768 105.505182 
L 169.421485 105.023727 
L 164.83983 98.743375 
L 164.161771 99.23972 
L 162.080989 100.784136 
L 160.015754 102.349282 
L 157.966274 103.935002 
L 155.932753 105.541136 
L 153.915395 107.167526 
L 151.914402 108.814007 
L 149.929973 110.480416 
z
" clip-path="url(#pce47451078)" style="fill: #ff3000"/>
   </g>
   <g id="patch_9">
    <path d="M 187.683459 92.885182 
L 189.84195 91.597182 
L 192.013212 90.330831 
L 194.197029 89.086255 
L 196.393183 87.863579 
L 198.601453 86.662926 
L 200.82162 85.484415 
L 203.05346 84.328164 
L 205.296751 83.194289 
L 207.551268 82.082903 
L 209.816786 80.994117 
L 212.093079 79.928041 
L 214.379918 78.884781 
L 216.677076 77.864441 
L 218.984321 76.867123 
L 221.301425 75.892927 
L 223.628154 74.94195 
L 225.964277 74.014288 
L 228.30956 73.110033 
L 230.663767 72.229275 
L 233.026664 71.372104 
L 235.398015 70.538604 
L 237.777582 69.728858 
L 240.165127 68.942949 
L 242.560412 68.180953 
L 244.963197 67.442949 
L 247.373242 66.729008 
L 249.790305 66.039204 
L 252.214146 65.373604 
L 254.644521 64.732275 
L 257.081188 64.115282 
L 259.523903 63.522686 
L 261.972422 62.954546 
L 264.4265 62.410919 
L 266.885891 61.89186 
L 269.350349 61.397421 
L 271.819629 60.92765 
L 274.293483 60.482595 
L 276.771663 60.062301 
L 279.253923 59.666809 
L 281.740013 59.296159 
L 284.229686 58.950388 
L 286.722691 58.62953 
L 289.218781 58.333619 
L 291.717705 58.062682 
L 294.219213 57.816748 
L 295.654379 57.687041 
L 294.976835 49.942668 
L 293.497281 50.076386 
L 290.918407 50.329927 
L 288.342197 50.609243 
L 285.768909 50.914306 
L 283.1988 51.245087 
L 280.632127 51.601552 
L 278.069147 51.983666 
L 275.510117 52.391389 
L 272.955292 52.824682 
L 270.404927 53.283502 
L 267.859278 53.767801 
L 265.318599 54.277533 
L 262.783144 54.812645 
L 260.253167 55.373085 
L 257.728921 55.958796 
L 255.210658 56.56972 
L 252.69863 57.205795 
L 250.193089 57.866959 
L 247.694284 58.553145 
L 245.202466 59.264283 
L 242.717884 60.000304 
L 240.240786 60.761134 
L 237.77142 61.546696 
L 235.310033 62.356912 
L 232.856871 63.191701 
L 230.41218 64.05098 
L 227.976203 64.934662 
L 225.549185 65.842659 
L 223.131368 66.774881 
L 220.722994 67.731234 
L 218.324304 68.711622 
L 215.935538 69.715948 
L 213.556934 70.744111 
L 211.18873 71.796008 
L 208.831164 72.871534 
L 206.48447 73.970581 
L 204.148885 75.093041 
L 201.82464 76.238799 
L 199.511969 77.407743 
L 197.211103 78.599754 
L 194.922272 79.814714 
L 192.645704 81.052501 
L 190.381628 82.312991 
L 188.13027 83.596059 
L 185.891855 84.901576 
L 183.666607 86.229411 
z
" clip-path="url(#pce47451078)" style="fill: #800000"/>
   </g>
   <g id="PatchCollection_1">
    <path d="M 75.774512 376.788993 
L 75.774512 376.788993 
L 75.099607 374.367727 
L 74.448948 371.939833 
L 74.389893 371.714559 
L 74.389893 371.714559 
Q 317.561664 308.088445 561.103697 245.894632 
L 561.103697 245.894632 
L 561.103697 245.894632 
L 561.713447 248.333121 
L 562.298783 250.777586 
L 562.351777 251.004363 
L 562.351777 251.004363 
Q 317.561664 308.088445 75.774512 376.788993 
z
" clip-path="url(#pce47451078)" style="fill: #b7ff40; fill-opacity: 0.5; stroke: #808080; stroke-opacity: 0.5; stroke-width: 0.1"/>
    <path d="M 74.389893 371.714559 
L 74.389893 371.714559 
L 73.765801 369.2797 
L 73.166089 366.838723 
L 72.590815 364.39187 
L 72.040039 361.939387 
L 71.513815 359.481519 
L 71.219673 358.052592 
L 71.219673 358.052592 
Q 317.561664 308.088445 317.561664 56.730548 
L 317.561664 56.730548 
L 317.561664 56.730548 
L 320.075201 56.743116 
L 322.588486 56.780818 
L 325.10127 56.843651 
L 327.613299 56.931608 
L 330.124323 57.04468 
L 331.581169 57.121822 
L 331.581169 57.121822 
Q 317.561664 308.088445 74.389893 371.714559 
z
" clip-path="url(#pce47451078)" style="fill: #b7ff40; fill-opacity: 0.5; stroke: #808080; stroke-opacity: 0.5; stroke-width: 0.1"/>
    <path d="M 171.36107 512.554037 
L 171.36107 512.554037 
L 169.323758 511.081833 
L 167.30127 509.589329 
L 165.293807 508.076675 
L 163.301572 506.544022 
L 161.324762 504.991524 
L 159.363576 503.419336 
L 157.418209 501.827615 
L 155.488857 500.216521 
L 153.575712 498.586213 
L 151.678965 496.936856 
L 149.798807 495.268615 
L 147.935424 493.581655 
L 146.089004 491.876146 
L 144.259731 490.152259 
L 143.082594 489.024473 
L 143.082594 489.024473 
Q 317.561664 308.088445 562.351777 251.004363 
L 562.351777 251.004363 
L 562.351777 251.004363 
L 562.910369 253.455077 
L 563.444427 255.911255 
L 563.953896 258.372651 
L 564.438726 260.839018 
L 564.898869 263.31011 
L 565.334278 265.785679 
L 565.74491 268.265479 
L 566.130724 270.749262 
L 566.491681 273.236778 
L 566.827745 275.727779 
L 567.138883 278.222016 
L 567.425064 280.71924 
L 567.686258 283.219201 
L 567.922441 285.721649 
L 568.062236 287.345844 
L 568.062236 287.345844 
Q 317.561664 308.088445 171.36107 512.554037 
z
" clip-path="url(#pce47451078)" style="fill: #40ffb7; fill-opacity: 0.5; stroke: #808080; stroke-opacity: 0.5; stroke-width: 0.1"/>
    <path d="M 143.082594 489.024473 
L 143.082594 489.024473 
L 141.281988 487.270665 
L 139.499009 485.498939 
L 137.733837 483.709471 
L 135.986647 481.902442 
L 134.257615 480.078031 
L 132.546913 478.236422 
L 130.854712 476.377798 
L 130.309967 475.771462 
L 130.309967 475.771462 
Q 317.561664 308.088445 154.958924 116.408657 
L 154.958924 116.408657 
L 154.958924 116.408657 
L 156.88382 114.79224 
L 158.824783 113.195153 
L 160.781621 111.617556 
L 162.754136 110.059605 
L 164.742131 108.521457 
L 166.745409 107.003265 
L 168.763768 105.505182 
L 169.421485 105.023727 
L 169.421485 105.023727 
Q 317.561664 308.088445 143.082594 489.024473 
z
" clip-path="url(#pce47451078)" style="fill: #40ffb7; fill-opacity: 0.5; stroke: #808080; stroke-opacity: 0.5; stroke-width: 0.1"/>
    <path d="M 130.309967 475.771462 
L 130.309967 475.771462 
L 128.642528 473.890593 
L 126.99398 471.993143 
L 125.364488 470.079302 
L 123.754216 468.149263 
L 122.163325 466.203218 
L 120.591974 464.241362 
L 119.040319 462.26389 
L 117.508516 460.271001 
L 115.996719 458.262894 
L 114.505077 456.239769 
L 113.033741 454.20183 
L 111.582858 452.149279 
L 111.284904 451.722322 
L 111.284904 451.722322 
Q 317.561664 308.088445 331.581169 57.121822 
L 331.581169 57.121822 
L 331.581169 57.121822 
L 334.090092 57.274563 
L 336.597363 57.452385 
L 339.10273 57.655271 
L 341.605943 57.883199 
L 344.106752 58.136148 
L 346.604906 58.414092 
L 349.100155 58.717003 
L 351.592251 59.044852 
L 354.080944 59.397604 
L 356.565985 59.775225 
L 359.047126 60.177677 
L 361.524118 60.60492 
L 362.036641 60.696512 
L 362.036641 60.696512 
Q 317.561664 308.088445 130.309967 475.771462 
z
" clip-path="url(#pce47451078)" style="fill: #40ffb7; fill-opacity: 0.5; stroke: #808080; stroke-opacity: 0.5; stroke-width: 0.1"/>
    <path d="M 379.206739 551.769952 
L 379.206739 551.769952 
L 376.766882 552.374208 
L 374.321105 552.954036 
L 371.869652 553.509378 
L 369.412768 554.040178 
L 366.950699 554.546383 
L 364.483692 555.027942 
L 362.011992 555.484808 
L 359.535847 555.916934 
L 357.055505 556.324278 
L 354.571213 556.706798 
L 352.08322 557.064456 
L 349.591776 557.397217 
L 347.097128 557.705048 
L 344.599527 557.987917 
L 342.099222 558.245796 
L 339.596463 558.47866 
L 337.091501 558.686485 
L 334.584586 558.86925 
L 332.075969 559.026938 
L 329.5659 559.159531 
L 327.054631 559.267018 
L 324.542412 559.349388 
L 322.029495 559.406631 
L 319.516132 559.438743 
L 317.002573 559.44572 
L 314.48907 559.427561 
L 311.975875 559.384269 
L 309.463238 559.315847 
L 306.95141 559.222303 
L 304.440644 559.103646 
L 301.93119 558.959887 
L 299.423299 558.791041 
L 296.917222 558.597126 
L 294.413209 558.378159 
L 291.911511 558.134164 
L 289.412378 557.865165 
L 286.91606 557.571188 
L 284.422806 557.252263 
L 281.932866 556.908422 
L 281.776558 556.88599 
L 281.776558 556.88599 
Q 317.561664 308.088445 362.036641 60.696512 
L 362.036641 60.696512 
L 362.036641 60.696512 
L 364.508296 61.153624 
L 366.975255 61.635429 
L 369.437274 62.141879 
L 371.894105 62.672924 
L 374.345502 63.22851 
L 376.791222 63.808581 
L 379.231018 64.413081 
L 381.664648 65.041948 
L 384.091867 65.695119 
L 386.512434 66.37253 
L 388.926105 67.074112 
L 391.33264 67.799795 
L 393.731798 68.549507 
L 396.123339 69.323172 
L 398.507024 70.120714 
L 400.882614 70.942052 
L 403.249872 71.787105 
L 405.608562 72.655788 
L 407.958447 73.548014 
L 410.299293 74.463694 
L 412.630864 75.402736 
L 414.952929 76.365046 
L 417.265255 77.350528 
L 419.567611 78.359084 
L 421.859766 79.390613 
L 424.141491 80.445012 
L 426.412558 81.522174 
L 428.672741 82.621993 
L 430.921812 83.744359 
L 433.159548 84.889159 
L 435.385724 86.056278 
L 437.600117 87.2456 
L 439.802507 88.457007 
L 441.992673 89.690377 
L 444.170395 90.945586 
L 446.335457 92.222509 
L 448.487642 93.521019 
L 450.626734 94.840985 
L 452.75252 96.182276 
L 452.885619 96.267248 
L 452.885619 96.267248 
Q 317.561664 308.088445 379.206739 551.769952 
z
" clip-path="url(#pce47451078)" style="fill: #00a4ff; fill-opacity: 0.5; stroke: #808080; stroke-opacity: 0.5; stroke-width: 0.1"/>
    <path d="M 568.062236 287.345844 
L 568.062236 287.345844 
L 568.257134 289.851845 
L 568.426962 292.35967 
L 568.571704 294.869067 
L 568.691345 297.379787 
L 568.785873 299.891577 
L 568.85528 302.404187 
L 568.899557 304.917366 
L 568.9187 307.430861 
L 568.912708 309.944423 
L 568.881581 312.457799 
L 568.825322 314.970737 
L 568.743938 317.482988 
L 568.637435 319.994299 
L 568.505825 322.50442 
L 568.34912 325.013099 
L 568.167337 327.520085 
L 567.960494 330.025129 
L 567.728611 332.527978 
L 567.471711 335.028384 
L 567.325021 336.356048 
L 567.325021 336.356048 
Q 317.561664 308.088445 71.219673 358.052592 
L 71.219673 358.052592 
L 71.219673 358.052592 
L 70.732357 355.586715 
L 70.269724 353.116088 
L 69.831819 350.640959 
L 69.418688 348.161574 
L 69.03037 345.678182 
L 68.666905 343.191031 
L 68.32833 340.70037 
L 68.014678 338.206447 
L 67.72598 335.709513 
L 67.462266 333.209817 
L 67.223561 330.707609 
L 67.00989 328.203138 
L 66.821274 325.696657 
L 66.657732 323.188414 
L 66.51928 320.678662 
L 66.405931 318.16765 
L 66.317699 315.655631 
L 66.25459 313.142854 
L 66.216612 310.629573 
L 66.206657 309.293867 
L 66.206657 309.293867 
Q 317.561664 308.088445 568.062236 287.345844 
z
" clip-path="url(#pce47451078)" style="fill: #0010ff; fill-opacity: 0.5; stroke: #808080; stroke-opacity: 0.5; stroke-width: 0.1"/>
    <path d="M 567.325021 336.356048 
L 567.325021 336.356048 
L 567.029862 338.852227 
L 566.709756 341.345329 
L 566.364735 343.835106 
L 565.994835 346.321307 
L 565.600091 348.803686 
L 565.180543 351.281993 
L 564.736234 353.755981 
L 564.267208 356.225402 
L 563.773511 358.69001 
L 563.255193 361.149557 
L 562.712307 363.603799 
L 562.144905 366.052488 
L 561.553045 368.495382 
L 560.936786 370.932235 
L 560.524092 372.509332 
L 560.524092 372.509332 
Q 317.561664 308.088445 111.284904 451.722322 
L 111.284904 451.722322 
L 111.284904 451.722322 
L 109.858903 449.652407 
L 108.453672 447.568336 
L 107.069352 445.470317 
L 105.70608 443.35856 
L 104.363994 441.233276 
L 103.043228 439.094677 
L 101.743913 436.942979 
L 100.46618 434.778394 
L 99.210157 432.601141 
L 97.975968 430.411437 
L 96.763738 428.209501 
L 95.573587 425.995552 
L 94.405635 423.769813 
L 93.259998 421.532506 
L 92.528969 420.075402 
L 92.528969 420.075402 
Q 317.561664 308.088445 567.325021 336.356048 
z
" clip-path="url(#pce47451078)" style="fill: #0010ff; fill-opacity: 0.5; stroke: #808080; stroke-opacity: 0.5; stroke-width: 0.1"/>
    <path d="M 560.524092 372.509332 
L 560.524092 372.509332 
L 559.867746 374.935695 
L 559.187169 377.355373 
L 558.48243 379.768125 
L 557.753599 382.173708 
L 557.00075 384.571883 
L 556.223956 386.96241 
L 555.423297 389.345049 
L 554.598851 391.719563 
L 553.750702 394.085714 
L 552.878934 396.443265 
L 551.983635 398.791981 
L 551.064894 401.131627 
L 550.122802 403.461968 
L 549.157455 405.782772 
L 548.168948 408.093807 
L 547.157381 410.394841 
L 546.122855 412.685644 
L 545.065472 414.965988 
L 543.985339 417.235645 
L 542.882565 419.494386 
L 541.757258 421.741988 
L 540.609532 423.978224 
L 539.439501 426.202871 
L 538.247282 428.415706 
L 537.032996 430.616509 
L 535.796762 432.80506 
L 534.538705 434.981139 
L 533.25895 437.144528 
L 531.957626 439.295013 
L 530.634863 441.432376 
L 529.290792 443.556405 
L 527.925549 445.666888 
L 526.539269 447.763613 
L 525.132092 449.846371 
L 523.704158 451.914952 
L 522.25561 453.969152 
L 520.786592 456.008763 
L 519.297253 458.033583 
L 517.78774 460.043408 
L 517.692238 460.169165 
L 517.692238 460.169165 
Q 317.561664 308.088445 187.683459 92.885182 
L 187.683459 92.885182 
L 187.683459 92.885182 
L 189.84195 91.597182 
L 192.013212 90.330831 
L 194.197029 89.086255 
L 196.393183 87.863579 
L 198.601453 86.662926 
L 200.82162 85.484415 
L 203.05346 84.328164 
L 205.296751 83.194289 
L 207.551268 82.082903 
L 209.816786 80.994117 
L 212.093079 79.928041 
L 214.379918 78.884781 
L 216.677076 77.864441 
L 218.984321 76.867123 
L 221.301425 75.892927 
L 223.628154 74.94195 
L 225.964277 74.014288 
L 228.30956 73.110033 
L 230.663767 72.229275 
L 233.026664 71.372104 
L 235.398015 70.538604 
L 237.777582 69.728858 
L 240.165127 68.942949 
L 242.560412 68.180953 
L 244.963197 67.442949 
L 247.373242 66.729008 
L 249.790305 66.039204 
L 252.214146 65.373604 
L 254.644521 64.732275 
L 257.081188 64.115282 
L 259.523903 63.522686 
L 261.972422 62.954546 
L 264.4265 62.410919 
L 266.885891 61.89186 
L 269.350349 61.397421 
L 271.819629 60.92765 
L 274.293483 60.482595 
L 276.771663 60.062301 
L 279.253923 59.666809 
L 279.409996 59.642792 
L 279.409996 59.642792 
Q 317.561664 308.088445 560.524092 372.509332 
z
" clip-path="url(#pce47451078)" style="fill: #0010ff; fill-opacity: 0.5; stroke: #808080; stroke-opacity: 0.5; stroke-width: 0.1"/>
    <path d="M 517.692238 460.169165 
L 517.692238 460.169165 
L 516.161449 462.162834 
L 514.610801 464.141095 
L 513.040448 466.103751 
L 511.450548 468.050606 
L 509.841258 469.981464 
L 508.212741 471.896133 
L 506.565159 473.794422 
L 504.898677 475.67614 
L 503.213461 477.5411 
L 501.50968 479.389114 
L 499.787505 481.219999 
L 498.047107 483.03357 
L 496.288661 484.829648 
L 494.512342 486.608051 
L 492.718328 488.368602 
L 490.906799 490.111126 
L 489.077935 491.835447 
L 487.23192 493.541394 
L 485.368938 495.228796 
L 483.489175 496.897483 
L 481.59282 498.547291 
L 479.680062 500.178052 
L 477.751092 501.789604 
L 475.806103 503.381787 
L 473.84529 504.954441 
L 471.868849 506.507408 
L 469.876977 508.040533 
L 467.869874 509.553663 
L 465.84774 511.046647 
L 463.810777 512.519335 
L 461.75919 513.97158 
L 459.693183 515.403238 
L 457.612963 516.814163 
L 455.518739 518.204217 
L 453.410718 519.573259 
L 451.289113 520.921153 
L 449.154135 522.247763 
L 447.005998 523.552958 
L 444.844916 524.836607 
L 442.671107 526.098581 
L 440.484786 527.338754 
L 438.286174 528.557002 
L 436.075489 529.753204 
L 433.852952 530.927239 
L 431.618787 532.078991 
L 429.373216 533.208344 
L 427.116464 534.315185 
L 424.848757 535.399403 
L 422.96176 536.280495 
L 422.96176 536.280495 
Q 317.561664 308.088445 70.922826 259.610862 
L 70.922826 259.610862 
L 70.922826 259.610862 
L 71.419926 257.146939 
L 71.941639 254.68811 
L 72.487915 252.23462 
L 73.058697 249.786716 
L 73.65393 247.344642 
L 74.273553 244.908643 
L 74.917505 242.478961 
L 75.585721 240.055841 
L 76.278134 237.639523 
L 76.994676 235.23025 
L 77.735274 232.828263 
L 78.499854 230.433803 
L 79.288341 228.047107 
L 80.100654 225.668415 
L 80.936714 223.297966 
L 81.796436 220.935995 
L 82.679734 218.58274 
L 83.58652 216.238435 
L 84.516703 213.903315 
L 85.470191 211.577614 
L 86.446888 209.261563 
L 87.446696 206.955395 
L 88.469515 204.65934 
L 89.515243 202.373628 
L 90.583776 200.098488 
L 91.675007 197.834146 
L 92.788825 195.58083 
L 93.925121 193.338765 
L 95.083781 191.108174 
L 96.264688 188.889281 
L 97.467724 186.682308 
L 98.69277 184.487476 
L 99.939702 182.305003 
L 101.208397 180.135109 
L 102.498727 177.97801 
L 103.810562 175.833922 
L 105.143773 173.703059 
L 106.498225 171.585635 
L 107.873784 169.481861 
L 109.270311 167.391947 
L 110.687667 165.316103 
L 112.12571 163.254536 
L 113.584297 161.207453 
L 115.063281 159.175057 
L 116.562515 157.157552 
L 118.081848 155.155141 
L 119.62113 153.168023 
L 121.180205 151.196396 
L 122.486826 149.574723 
L 122.486826 149.574723 
Q 317.561664 308.088445 517.692238 460.169165 
z
" clip-path="url(#pce47451078)" style="fill: #0010ff; fill-opacity: 0.5; stroke: #808080; stroke-opacity: 0.5; stroke-width: 0.1"/>
    <path d="M 422.96176 536.280495 
L 422.96176 536.280495 
L 420.674607 537.323069 
L 418.377144 538.34272 
L 416.069598 539.339345 
L 413.752203 540.312846 
L 411.425188 541.263124 
L 409.088787 542.190085 
L 406.743233 543.093636 
L 404.388761 543.973687 
L 402.025607 544.830149 
L 400.210404 545.469948 
L 400.210404 545.469948 
Q 317.561664 308.088445 281.776558 556.88599 
L 281.776558 556.88599 
L 281.776558 556.88599 
L 279.290413 556.515705 
L 276.808095 556.120578 
L 274.329853 555.700647 
L 271.855934 555.255956 
L 269.386585 554.786548 
L 266.922054 554.29247 
L 264.462587 553.773772 
L 262.008429 553.230506 
L 259.559827 552.662726 
L 257.688826 552.211437 
L 257.688826 552.211437 
Q 317.561664 308.088445 422.96176 536.280495 
z
" clip-path="url(#pce47451078)" style="fill: #0010ff; fill-opacity: 0.5; stroke: #808080; stroke-opacity: 0.5; stroke-width: 0.1"/>
    <path d="M 452.885619 96.267248 
L 452.885619 96.267248 
L 454.99703 97.631056 
L 457.094697 99.01591 
L 459.178411 100.421671 
L 461.247963 101.848198 
L 463.303147 103.295349 
L 465.343757 104.762979 
L 467.369588 106.250941 
L 469.38044 107.759087 
L 471.376109 109.287266 
L 473.356397 110.835325 
L 475.321106 112.403109 
L 475.635576 112.657049 
L 475.635576 112.657049 
Q 317.561664 308.088445 66.206657 309.293867 
L 66.206657 309.293867 
L 66.206657 309.293867 
L 66.207171 306.780299 
L 66.23282 304.266861 
L 66.283601 301.753805 
L 66.359511 299.241383 
L 66.46054 296.729846 
L 66.586679 294.219445 
L 66.737915 291.71043 
L 66.914234 289.203053 
L 67.115617 286.697565 
L 67.342044 284.194216 
L 67.593493 281.693256 
L 67.636262 281.291325 
L 67.636262 281.291325 
Q 317.561664 308.088445 452.885619 96.267248 
z
" clip-path="url(#pce47451078)" style="fill: #000080; fill-opacity: 0.5; stroke: #808080; stroke-opacity: 0.5; stroke-width: 0.1"/>
    <path d="M 475.635576 112.657049 
L 475.635576 112.657049 
L 477.581954 114.247534 
L 479.51233 115.857402 
L 481.426511 117.486493 
L 483.324305 119.134644 
L 485.205524 120.80169 
L 487.069978 122.487465 
L 488.917482 124.1918 
L 490.74785 125.914525 
L 492.560899 127.655466 
L 493.937341 129.000722 
L 493.937341 129.000722 
Q 317.561664 308.088445 92.528969 420.075402 
L 92.528969 420.075402 
L 92.528969 420.075402 
L 91.42037 417.819514 
L 90.334385 415.552652 
L 89.271122 413.275044 
L 88.230688 410.986917 
L 87.213187 408.688501 
L 86.21872 406.380024 
L 85.247388 404.061719 
L 84.299287 401.733816 
L 83.374511 399.396549 
L 82.682232 397.600706 
L 82.682232 397.600706 
Q 317.561664 308.088445 475.635576 112.657049 
z
" clip-path="url(#pce47451078)" style="fill: #000080; fill-opacity: 0.5; stroke: #808080; stroke-opacity: 0.5; stroke-width: 0.1"/>
    <path d="M 493.937341 129.000722 
L 493.937341 129.000722 
L 495.71937 130.773403 
L 497.483583 132.563816 
L 499.229804 134.371782 
L 500.957858 136.197119 
L 502.667573 138.039645 
L 504.358778 139.899175 
L 505.214897 140.854906 
L 505.214897 140.854906 
Q 317.561664 308.088445 279.409996 59.642792 
L 279.409996 59.642792 
L 279.409996 59.642792 
L 281.896319 59.273704 
L 284.386208 58.929497 
L 286.879415 58.610206 
L 289.37569 58.315862 
L 291.874783 58.046496 
L 294.376445 57.802133 
L 295.654379 57.687041 
L 295.654379 57.687041 
Q 317.561664 308.088445 493.937341 129.000722 
z
" clip-path="url(#pce47451078)" style="fill: #000080; fill-opacity: 0.5; stroke: #808080; stroke-opacity: 0.5; stroke-width: 0.1"/>
    <path d="M 505.214897 140.854906 
L 505.214897 140.854906 
L 506.877822 142.739769 
L 508.521815 144.641167 
L 510.146713 146.558909 
L 511.752352 148.492803 
L 513.338572 150.442658 
L 514.905215 152.408276 
L 516.452124 154.389463 
L 517.979144 156.386019 
L 519.486122 158.397746 
L 520.626381 159.948266 
L 520.626381 159.948266 
Q 317.561664 308.088445 122.486826 149.574723 
L 122.486826 149.574723 
L 122.486826 149.574723 
L 124.081691 147.631933 
L 125.695903 145.705188 
L 127.329302 143.794682 
L 128.981723 141.900604 
L 130.653003 140.023146 
L 132.342973 138.162493 
L 134.051465 136.318834 
L 135.778308 134.492351 
L 137.523329 132.683227 
L 138.871682 131.309819 
L 138.871682 131.309819 
Q 317.561664 308.088445 505.214897 140.854906 
z
" clip-path="url(#pce47451078)" style="fill: #000080; fill-opacity: 0.5; stroke: #808080; stroke-opacity: 0.5; stroke-width: 0.1"/>
    <path d="M 520.626381 159.948266 
L 520.626381 159.948266 
L 522.097605 161.986286 
L 523.548376 164.038916 
L 524.978548 166.105952 
L 526.387978 168.187185 
L 527.776526 170.282408 
L 529.144053 172.391412 
L 530.490422 174.513986 
L 531.815498 176.649916 
L 533.119149 178.798991 
L 534.401244 180.960994 
L 535.661655 183.13571 
L 536.900257 185.322921 
L 538.116925 187.522409 
L 539.311537 189.733953 
L 540.483975 191.957333 
L 541.634121 194.192325 
L 542.76186 196.438707 
L 543.867078 198.696254 
L 544.949667 200.96474 
L 546.009517 203.243938 
L 547.046522 205.533621 
L 548.060579 207.833559 
L 549.051586 210.143522 
L 550.019445 212.46328 
L 550.964058 214.7926 
L 551.885331 217.13125 
L 552.783171 219.478996 
L 553.65749 221.835602 
L 554.5082 224.200833 
L 554.756398 224.905212 
L 554.756398 224.905212 
Q 317.561664 308.088445 257.688826 552.211437 
L 257.688826 552.211437 
L 257.688826 552.211437 
L 255.250631 551.600513 
L 252.818666 550.965238 
L 250.393176 550.305675 
L 247.974402 549.62189 
L 245.562588 548.913953 
L 243.157972 548.181933 
L 240.760798 547.425904 
L 238.371303 546.645941 
L 235.989727 545.842123 
L 233.616309 545.014529 
L 231.251285 544.163244 
L 228.894891 543.288351 
L 226.547365 542.389938 
L 224.20894 541.468095 
L 221.87985 540.522914 
L 219.560328 539.554491 
L 217.250606 538.56292 
L 214.950915 537.548303 
L 212.661485 536.51074 
L 210.382545 535.450334 
L 208.114323 534.367193 
L 205.857046 533.261424 
L 203.610939 532.133138 
L 201.376227 530.982447 
L 199.153133 529.809468 
L 196.94188 528.614316 
L 194.742689 527.397112 
L 192.55578 526.157978 
L 190.381371 524.897036 
L 189.737758 524.518205 
L 189.737758 524.518205 
Q 317.561664 308.088445 520.626381 159.948266 
z
" clip-path="url(#pce47451078)" style="fill: #000080; fill-opacity: 0.5; stroke: #808080; stroke-opacity: 0.5; stroke-width: 0.1"/>
   </g>
   <g id="patch_10">
    <path d="M 317.561664 56.730548 
L 320.075201 56.743116 
L 322.588486 56.780818 
L 325.10127 56.843651 
L 327.613299 56.931608 
L 330.124323 57.04468 
L 332.63409 57.182857 
L 335.142351 57.346124 
L 337.648853 57.534465 
L 340.153347 57.747861 
L 342.655581 57.986291 
L 345.155306 58.249731 
L 347.652272 58.538154 
L 350.146229 58.851533 
L 352.636927 59.189835 
L 355.124118 59.553026 
L 357.607553 59.941071 
L 360.086983 60.353931 
L 362.562161 60.791564 
L 365.032838 61.253926 
L 367.498769 61.740971 
L 369.959706 62.252651 
L 372.415403 62.788915 
L 374.865614 63.349708 
L 377.310096 63.934975 
L 379.748602 64.544656 
L 382.18089 65.178693 
L 384.606717 65.837019 
L 387.025838 66.519571 
L 389.438014 67.22628 
L 391.843001 67.957074 
L 394.240561 68.711882 
L 396.630453 69.490627 
L 399.012438 70.293231 
L 401.386278 71.119615 
L 403.751735 71.969696 
L 406.108574 72.843388 
L 408.456558 73.740604 
L 410.795453 74.661255 
L 413.125024 75.605249 
L 415.445039 76.572491 
L 417.755266 77.562884 
L 420.055473 78.576329 
L 422.345432 79.612726 
L 424.624912 80.67197 
L 426.893685 81.753955 
L 429.151526 82.858574 
L 431.398208 83.985715 
L 433.633506 85.135267 
L 435.857197 86.307113 
L 438.069059 87.501138 
L 440.26887 88.717221 
L 442.45641 89.955241 
L 444.631461 91.215074 
L 446.793805 92.496595 
L 448.943226 93.799674 
L 451.079509 95.124182 
L 453.20244 96.469987 
L 455.311808 97.836953 
L 457.4074 99.224943 
L 459.489008 100.633821 
L 461.556423 102.063443 
L 463.609439 103.513668 
L 465.647851 104.98435 
L 467.671454 106.475342 
L 469.680046 107.986496 
L 471.673426 109.517659 
L 473.651395 111.06868 
L 475.613756 112.639402 
L 477.560311 114.229669 
L 479.490867 115.839321 
L 481.405229 117.468199 
L 483.303208 119.116138 
L 485.184612 120.782974 
L 487.049255 122.468541 
L 488.896949 124.17267 
L 490.727509 125.89519 
L 492.540753 127.635929 
L 494.336499 129.394713 
L 496.114568 131.171367 
L 497.874782 132.965712 
L 499.616964 134.777569 
L 501.340942 136.606757 
L 503.046541 138.453093 
L 504.733592 140.316393 
L 506.401926 142.196469 
L 508.051376 144.093135 
L 509.681778 146.0062 
L 511.292967 147.935473 
L 512.884784 149.880762 
L 514.457068 151.841871 
L 516.009663 153.818604 
L 517.542413 155.810764 
L 519.055166 157.818152 
L 520.547769 159.840567 
L 522.020074 161.877807 
L 523.471933 163.929667 
L 524.903202 165.995944 
L 526.313736 168.076429 
L 527.703395 170.170916 
L 529.07204 172.279194 
L 530.419535 174.401053 
L 531.745744 176.53628 
L 533.050534 178.684663 
L 534.333776 180.845986 
L 535.595341 183.020033 
L 536.835103 185.206587 
L 538.052937 187.405428 
L 539.248723 189.616339 
L 540.42234 191.839096 
L 541.573671 194.073478 
L 542.702601 196.319261 
L 543.809018 198.576222 
L 544.892809 200.844133 
L 545.953868 203.122769 
L 546.992088 205.411901 
L 548.007365 207.711301 
L 548.999597 210.020738 
L 549.968686 212.339982 
L 550.914535 214.668801 
L 551.837048 217.006962 
L 552.736134 219.354231 
L 553.611703 221.710373 
L 554.463667 224.075153 
L 554.756398 224.905212 
L 562.092317 222.332534 
L 561.790533 221.476803 
L 560.912219 219.038886 
L 560.009571 216.609874 
L 559.082678 214.190009 
L 558.131634 211.779534 
L 557.156532 209.37869 
L 556.157471 206.987716 
L 555.134551 204.606853 
L 554.087874 202.236338 
L 553.017544 199.876408 
L 551.923669 197.527299 
L 550.806358 195.189246 
L 549.665723 192.862482 
L 548.501878 190.547242 
L 547.314938 188.243755 
L 546.105024 185.952253 
L 544.872255 183.672964 
L 543.616756 181.406117 
L 542.338651 179.151938 
L 541.038068 176.910652 
L 539.715139 174.682484 
L 538.369994 172.467656 
L 537.002768 170.266391 
L 535.613599 168.078908 
L 534.202624 165.905425 
L 532.769986 163.746161 
L 531.315826 161.60133 
L 529.840292 159.471149 
L 528.34353 157.355828 
L 526.82569 155.255581 
L 525.286924 153.170618 
L 523.727385 151.101146 
L 522.14723 149.047372 
L 520.546617 147.009502 
L 518.925705 144.987741 
L 517.284657 142.982289 
L 515.623637 140.993347 
L 513.942811 139.021115 
L 512.242347 137.06579 
L 510.522415 135.127566 
L 508.783187 133.206639 
L 507.024837 131.3032 
L 505.247541 129.417439 
L 503.451476 127.549545 
L 501.636823 125.699704 
L 499.803762 123.868103 
L 497.952477 122.054923 
L 496.083154 120.260347 
L 494.195978 118.484553 
L 492.291139 116.727719 
L 490.368827 114.990022 
L 488.429235 113.271634 
L 486.472556 111.572727 
L 484.498986 109.893472 
L 482.508723 108.234036 
L 480.501965 106.594586 
L 478.478913 104.975285 
L 476.439769 103.376295 
L 474.384738 101.797776 
L 472.314025 100.239885 
L 470.227836 98.70278 
L 468.126381 97.186613 
L 466.00987 95.691536 
L 463.878514 94.217698 
L 461.732526 92.765248 
L 459.572121 91.334329 
L 457.397516 89.925086 
L 455.208927 88.537659 
L 453.006573 87.172186 
L 450.790675 85.828806 
L 448.561455 84.507651 
L 446.319134 83.208853 
L 444.063938 81.932544 
L 441.796091 80.67885 
L 439.515822 79.447897 
L 437.223357 78.239808 
L 434.918926 77.054703 
L 432.602759 75.892701 
L 430.275088 74.753919 
L 427.936146 73.638471 
L 425.586167 72.546467 
L 423.225385 71.478016 
L 420.854037 70.433227 
L 418.47236 69.412203 
L 416.080592 68.415047 
L 413.678972 67.441858 
L 411.26774 66.492733 
L 408.847138 65.567767 
L 406.417408 64.667054 
L 403.978792 63.790682 
L 401.531534 62.93874 
L 399.075879 62.111313 
L 396.612073 61.308483 
L 394.140362 60.530331 
L 391.660993 59.776934 
L 389.174215 59.048369 
L 386.680275 58.344707 
L 384.179423 57.66602 
L 381.67191 57.012374 
L 379.157986 56.383836 
L 376.637902 55.780468 
L 374.11191 55.202331 
L 371.580264 54.649482 
L 369.043215 54.121977 
L 366.501019 53.619868 
L 363.953929 53.143206 
L 361.402199 52.692039 
L 358.846086 52.26641 
L 356.285844 51.866364 
L 353.721729 51.49194 
L 351.153999 51.143175 
L 348.58291 50.820104 
L 346.008718 50.52276 
L 343.431682 50.251173 
L 340.852059 50.005368 
L 338.270106 49.785372 
L 335.686083 49.591206 
L 333.100248 49.42289 
L 330.512858 49.28044 
L 327.924174 49.16387 
L 325.334453 49.073193 
L 322.743955 49.008417 
L 320.152939 48.969549 
L 317.561664 48.956593 
L 317.561664 56.730548 
z
" clip-path="url(#pce47451078)" style="fill: none; stroke: #000000; stroke-width: 0.5; stroke-linejoin: miter"/>
   </g>
   <g id="patch_11">
    <path d="M 561.103697 245.894632 
L 561.713447 248.333121 
L 562.298783 250.777586 
L 562.859646 253.227782 
L 563.395978 255.683464 
L 563.907728 258.144387 
L 564.394843 260.610303 
L 564.857275 263.080968 
L 565.294977 265.556133 
L 565.707907 268.035552 
L 566.096022 270.518975 
L 566.459284 273.006156 
L 566.797656 275.496845 
L 567.111105 277.990793 
L 567.399599 280.48775 
L 567.663109 282.987468 
L 567.90161 285.489696 
L 568.115077 287.994184 
L 568.303489 290.500681 
L 568.466826 293.008937 
L 568.605074 295.5187 
L 568.718217 298.029721 
L 568.806245 300.541748 
L 568.869148 303.054529 
L 568.906921 305.567814 
L 568.91956 308.08135 
L 568.907063 310.594888 
L 568.869432 313.108175 
L 568.80667 315.620959 
L 568.718784 318.132991 
L 568.605783 320.644018 
L 568.467677 323.15379 
L 568.304481 325.662055 
L 568.116211 328.168562 
L 567.902885 330.673062 
L 567.664526 333.175303 
L 567.401157 335.675036 
L 567.112803 338.17201 
L 566.799495 340.665976 
L 566.461264 343.156683 
L 566.098142 345.643885 
L 565.710167 348.12733 
L 565.297378 350.606772 
L 564.859815 353.081962 
L 564.397522 355.552653 
L 563.910547 358.018597 
L 563.398936 360.479548 
L 562.862742 362.93526 
L 562.302018 365.385488 
L 561.71682 367.829986 
L 561.107207 370.26851 
L 560.47324 372.700816 
L 559.814981 375.12666 
L 559.132498 377.545801 
L 558.425857 379.957996 
L 557.695131 382.363005 
L 556.940391 384.760586 
L 556.161713 387.150499 
L 555.359176 389.532507 
L 554.532859 391.90637 
L 553.682846 394.271852 
L 552.80922 396.628715 
L 551.91207 398.976725 
L 550.991485 401.315645 
L 550.047557 403.645243 
L 549.08038 405.965286 
L 548.090052 408.275541 
L 547.076672 410.575777 
L 546.04034 412.865764 
L 544.98116 415.145274 
L 543.899239 417.414078 
L 542.794684 419.67195 
L 541.667606 421.918664 
L 540.518118 424.153994 
L 539.346334 426.377718 
L 538.152372 428.589614 
L 536.936351 430.789459 
L 535.698392 432.977034 
L 534.438621 435.152121 
L 533.157161 437.314501 
L 531.854142 439.463959 
L 530.529695 441.600279 
L 529.18395 443.723249 
L 527.817044 445.832655 
L 526.429112 447.928286 
L 525.020294 450.009934 
L 523.59073 452.07739 
L 522.140563 454.130447 
L 520.669938 456.168899 
L 519.179003 458.192544 
L 517.667906 460.201179 
L 516.136799 462.194602 
L 514.585834 464.172615 
L 513.015168 466.13502 
L 511.424956 468.08162 
L 509.815357 470.012221 
L 508.186534 471.92663 
L 506.538648 473.824655 
L 504.871865 475.706107 
L 503.186351 477.570797 
L 501.482275 479.418539 
L 499.759806 481.249148 
L 498.019118 483.062441 
L 496.260385 484.858237 
L 494.483781 486.636356 
L 492.689486 488.39662 
L 490.877678 490.138854 
L 489.048538 491.862883 
L 487.20225 493.568534 
L 485.338998 495.255638 
L 483.458969 496.924025 
L 481.56235 498.573529 
L 479.649331 500.203984 
L 477.720103 501.815228 
L 475.77486 503.407099 
L 473.813795 504.979439 
L 471.837105 506.53209 
L 469.844988 508.064897 
L 467.837643 509.577706 
L 465.81527 511.070366 
L 463.778072 512.542728 
L 461.726253 513.994645 
L 459.660017 515.425972 
L 457.579571 516.836565 
L 455.485124 518.226284 
L 453.376885 519.594988 
L 451.255064 520.942543 
L 449.119874 522.268812 
L 446.971528 523.573663 
L 444.810241 524.856966 
L 442.63623 526.118592 
L 440.449711 527.358416 
L 438.250903 528.576312 
L 436.040027 529.77216 
L 433.817303 530.94584 
L 431.582953 532.097234 
L 429.337202 533.226228 
L 427.080273 534.332708 
L 424.812392 535.416563 
L 422.533786 536.477686 
L 420.244683 537.515971 
L 417.945312 538.531313 
L 415.635903 539.52361 
L 413.316686 540.492765 
L 410.987894 541.438679 
L 408.649759 542.361258 
L 406.302516 543.26041 
L 403.946398 544.136046 
L 401.581642 544.988076 
L 400.210404 545.469948 
L 402.76655 552.811644 
L 404.180198 552.314869 
L 406.618091 551.436487 
L 409.047078 550.53377 
L 411.466917 549.606809 
L 413.877365 548.655696 
L 416.278181 547.680527 
L 418.669127 546.681399 
L 421.049961 545.658412 
L 423.420447 544.611668 
L 425.780347 543.541271 
L 428.129425 542.44733 
L 430.467446 541.329953 
L 432.794177 540.189252 
L 435.109385 539.025341 
L 437.412838 537.838337 
L 439.704306 536.628358 
L 441.98356 535.395525 
L 444.250372 534.139961 
L 446.504515 532.861793 
L 448.745764 531.561147 
L 450.973895 530.238154 
L 453.188684 528.892947 
L 455.389911 527.525659 
L 457.577355 526.136428 
L 459.750798 524.725392 
L 461.910022 523.292693 
L 464.054811 521.838473 
L 466.184951 520.362878 
L 468.300229 518.866057 
L 470.400433 517.348157 
L 472.485354 515.809332 
L 474.554782 514.249735 
L 476.608511 512.669522 
L 478.646335 511.068851 
L 480.668051 509.447882 
L 482.673457 507.806778 
L 484.662351 506.145702 
L 486.634536 504.46482 
L 488.589813 502.764301 
L 490.527988 501.044314 
L 492.448866 499.305032 
L 494.352256 497.546628 
L 496.237967 495.769279 
L 498.10581 493.973162 
L 499.955599 492.158456 
L 501.787149 490.325344 
L 503.600277 488.474008 
L 505.3948 486.604633 
L 507.170541 484.717408 
L 508.927321 482.812519 
L 510.664964 480.890158 
L 512.383297 478.950517 
L 514.082149 476.993791 
L 515.761348 475.020173 
L 517.420728 473.029863 
L 519.060121 471.023059 
L 520.679365 468.999961 
L 522.278298 466.960772 
L 523.856759 464.905696 
L 525.414591 462.834939 
L 526.951637 460.748707 
L 528.467745 458.647209 
L 529.962762 456.530656 
L 531.43654 454.399258 
L 532.88893 452.25323 
L 534.319788 450.092785 
L 535.728969 447.918139 
L 537.116335 445.729511 
L 538.481745 443.527119 
L 539.825063 441.311183 
L 541.146155 439.081925 
L 542.444889 436.839568 
L 543.721135 434.584336 
L 544.974765 432.316454 
L 546.205654 430.03615 
L 547.413678 427.74365 
L 548.598718 425.439186 
L 549.760654 423.122986 
L 550.89937 420.795283 
L 552.014753 418.45631 
L 553.106691 416.1063 
L 554.175074 413.745488 
L 555.219796 411.37411 
L 556.240753 408.992405 
L 557.237842 406.600608 
L 558.210964 404.198961 
L 559.16002 401.787702 
L 560.084917 399.367074 
L 560.985562 396.937318 
L 561.861865 394.498677 
L 562.713738 392.051396 
L 563.541096 389.595718 
L 564.343857 387.131889 
L 565.121939 384.660156 
L 565.875265 382.180766 
L 566.603761 379.693967 
L 567.307352 377.200007 
L 567.985969 374.699136 
L 568.639544 372.191604 
L 569.268011 369.677662 
L 569.871307 367.157561 
L 570.449373 364.631554 
L 571.002151 362.099892 
L 571.529584 359.562828 
L 572.031621 357.020618 
L 572.508211 354.473514 
L 572.959307 351.921772 
L 573.384863 349.365646 
L 573.784837 346.805393 
L 574.159189 344.241268 
L 574.507882 341.673528 
L 574.83088 339.102429 
L 575.128151 336.52823 
L 575.399666 333.951186 
L 575.645397 331.371555 
L 575.86532 328.789597 
L 576.059413 326.205568 
L 576.227657 323.619728 
L 576.370034 321.032335 
L 576.48653 318.443647 
L 576.577135 315.853924 
L 576.641837 313.263424 
L 576.680632 310.672407 
L 576.693516 308.081131 
L 576.680486 305.489856 
L 576.641545 302.898841 
L 576.576696 300.308345 
L 576.485945 297.718627 
L 576.369303 295.129945 
L 576.22678 292.54256 
L 576.05839 289.956729 
L 575.864151 287.372712 
L 575.644083 284.790766 
L 575.398206 282.211149 
L 575.126545 279.634121 
L 574.829129 277.059937 
L 574.505986 274.488857 
L 574.157148 271.921137 
L 573.782651 269.357033 
L 573.382533 266.796802 
L 572.956832 264.240701 
L 572.505593 261.688984 
L 572.028859 259.141907 
L 571.526678 256.599725 
L 570.999101 254.062692 
L 570.446181 251.531061 
L 569.867973 249.005086 
L 569.264534 246.485019 
L 568.635925 243.971112 
L 561.103697 245.894632 
z
" clip-path="url(#pce47451078)" style="fill: none; stroke: #000000; stroke-width: 0.5; stroke-linejoin: miter"/>
   </g>
   <g id="patch_12">
    <path d="M 379.206739 551.769952 
L 376.766882 552.374208 
L 374.321105 552.954036 
L 371.869652 553.509378 
L 369.412768 554.040178 
L 366.950699 554.546383 
L 364.483692 555.027942 
L 362.011992 555.484808 
L 359.535847 555.916934 
L 357.055505 556.324278 
L 354.571213 556.706798 
L 352.08322 557.064456 
L 349.591776 557.397217 
L 347.097128 557.705048 
L 344.599527 557.987917 
L 342.099222 558.245796 
L 339.596463 558.47866 
L 337.091501 558.686485 
L 334.584586 558.86925 
L 332.075969 559.026938 
L 329.5659 559.159531 
L 327.054631 559.267018 
L 324.542412 559.349388 
L 322.029495 559.406631 
L 319.516132 559.438743 
L 317.002573 559.44572 
L 314.48907 559.427561 
L 311.975875 559.384269 
L 309.463238 559.315847 
L 306.95141 559.222303 
L 304.440644 559.103646 
L 301.93119 558.959887 
L 299.423299 558.791041 
L 296.917222 558.597126 
L 294.413209 558.378159 
L 291.911511 558.134164 
L 289.412378 557.865165 
L 286.91606 557.571188 
L 284.422806 557.252263 
L 281.932866 556.908422 
L 279.44649 556.539699 
L 276.963924 556.146131 
L 274.485419 555.727758 
L 272.01122 555.284621 
L 269.541577 554.816764 
L 267.076736 554.324235 
L 264.616944 553.807082 
L 262.162445 553.265358 
L 259.713487 552.699116 
L 257.270314 552.108414 
L 254.833169 551.49331 
L 252.402297 550.853865 
L 249.977942 550.190144 
L 247.560344 549.502213 
L 245.149747 548.790141 
L 242.74639 548.053999 
L 240.350516 547.29386 
L 237.962362 546.509802 
L 235.582168 545.701901 
L 233.210172 544.870239 
L 230.846611 544.014899 
L 228.491722 543.135967 
L 226.145739 542.23353 
L 223.808898 541.307679 
L 221.481432 540.358506 
L 219.163574 539.386106 
L 216.855556 538.390577 
L 214.557608 537.372018 
L 212.269961 536.33053 
L 209.992843 535.266219 
L 207.726481 534.17919 
L 205.471103 533.069552 
L 203.226934 531.937416 
L 200.994198 530.782895 
L 198.773119 529.606105 
L 196.563919 528.407164 
L 194.366818 527.186191 
L 192.182037 525.943308 
L 190.009794 524.67864 
L 189.737758 524.518205 
L 185.784441 531.211909 
L 186.06489 531.377306 
L 188.304317 532.681087 
L 190.556668 533.96241 
L 192.821721 535.221145 
L 195.099247 536.457167 
L 197.389019 537.670352 
L 199.690808 538.86058 
L 202.004385 540.02773 
L 204.329517 541.171687 
L 206.665972 542.292335 
L 209.013516 543.389564 
L 211.371916 544.463262 
L 213.740934 545.513323 
L 216.120334 546.539642 
L 218.509878 547.542116 
L 220.909328 548.520645 
L 223.318442 549.475131 
L 225.736981 550.405478 
L 228.164702 551.311594 
L 230.601363 552.193387 
L 233.04672 553.050771 
L 235.500528 553.883658 
L 237.962542 554.691966 
L 240.432516 555.475614 
L 242.910203 556.234523 
L 245.395355 556.968618 
L 247.887723 557.677825 
L 250.387059 558.362074 
L 252.893113 559.021295 
L 255.405633 559.655423 
L 257.924368 560.264395 
L 260.449068 560.848149 
L 262.979478 561.406628 
L 265.515347 561.939775 
L 268.05642 562.447537 
L 270.602444 562.929863 
L 273.153164 563.386706 
L 275.708324 563.818018 
L 278.26767 564.223758 
L 280.830945 564.603885 
L 283.397893 564.958361 
L 285.968258 565.287149 
L 288.541781 565.590218 
L 291.118207 565.867537 
L 293.697277 566.119078 
L 296.278734 566.344817 
L 298.862319 566.54473 
L 301.447773 566.718798 
L 304.03484 566.867002 
L 306.623258 566.98933 
L 309.212771 567.085767 
L 311.803118 567.156305 
L 314.394042 567.200936 
L 316.985282 567.219656 
L 319.57658 567.212463 
L 322.167676 567.179358 
L 324.758312 567.120345 
L 327.348228 567.035428 
L 329.937165 566.924617 
L 332.524865 566.787922 
L 335.111068 566.625357 
L 337.695517 566.43694 
L 340.277952 566.222687 
L 342.858116 565.982621 
L 345.43575 565.716767 
L 348.010596 565.425149 
L 350.582398 565.107798 
L 353.150897 564.764745 
L 355.715838 564.396025 
L 358.276964 564.001675 
L 360.834018 563.581733 
L 363.386744 563.136242 
L 365.934888 562.665246 
L 368.478195 562.168794 
L 371.016411 561.646933 
L 373.549281 561.099716 
L 376.076552 560.527199 
L 378.597972 559.929438 
L 381.113288 559.306493 
L 379.206739 551.769952 
z
" clip-path="url(#pce47451078)" style="fill: none; stroke: #000000; stroke-width: 0.5; stroke-linejoin: miter"/>
   </g>
   <g id="patch_13">
    <path d="M 171.36107 512.554037 
L 169.323758 511.081833 
L 167.30127 509.589329 
L 165.293807 508.076675 
L 163.301572 506.544022 
L 161.324762 504.991524 
L 159.363576 503.419336 
L 157.418209 501.827615 
L 155.488857 500.216521 
L 153.575712 498.586213 
L 151.678965 496.936856 
L 149.798807 495.268615 
L 147.935424 493.581655 
L 146.089004 491.876146 
L 144.259731 490.152259 
L 142.447789 488.410166 
L 140.653357 486.65004 
L 138.876616 484.872058 
L 137.117744 483.076399 
L 135.376916 481.26324 
L 133.654306 479.432764 
L 131.950086 477.585154 
L 130.264428 475.720595 
L 128.597499 473.839272 
L 126.949467 471.941374 
L 125.320495 470.027092 
L 123.710748 468.096615 
L 122.120385 466.150138 
L 120.549566 464.187855 
L 118.998449 462.209962 
L 117.467188 460.216657 
L 115.955935 458.208139 
L 114.464844 456.184609 
L 112.994061 454.14627 
L 111.543736 452.093325 
L 110.114012 450.02598 
L 108.705032 447.944441 
L 107.316939 445.848917 
L 105.949869 443.739617 
L 104.60396 441.616752 
L 103.279347 439.480534 
L 101.976162 437.331177 
L 100.694536 435.168896 
L 99.434596 432.993907 
L 98.196468 430.806427 
L 96.980277 428.606676 
L 95.786144 426.394873 
L 94.614188 424.171239 
L 93.464526 421.935998 
L 92.337275 419.689371 
L 91.232545 417.431585 
L 90.150448 415.162864 
L 89.091092 412.883436 
L 88.054583 410.593529 
L 87.041025 408.293371 
L 86.050518 405.983193 
L 85.083163 403.663226 
L 84.139055 401.333701 
L 83.218289 398.994851 
L 82.682232 397.600706 
L 75.41792 400.369126 
L 75.970555 401.80639 
L 76.919799 404.217575 
L 77.893106 406.619147 
L 78.89038 409.010866 
L 79.911521 411.392493 
L 80.956426 413.763789 
L 82.024992 416.124519 
L 83.117112 418.474444 
L 84.232676 420.813332 
L 85.371572 423.140946 
L 86.533687 425.457056 
L 87.718905 427.761429 
L 88.927107 430.053835 
L 90.158172 432.334044 
L 91.411978 434.601829 
L 92.688398 436.856962 
L 93.987305 439.099219 
L 95.308569 441.328375 
L 96.652059 443.544207 
L 98.01764 445.746493 
L 99.405174 447.935014 
L 100.814524 450.10955 
L 102.245549 452.269885 
L 103.698105 454.415801 
L 105.172047 456.547085 
L 106.667228 458.663522 
L 108.183499 460.764903 
L 109.720707 462.851016 
L 111.278699 464.921653 
L 112.857319 466.976606 
L 114.456409 469.015671 
L 116.075809 471.038644 
L 117.715358 473.045321 
L 119.374892 475.035503 
L 121.054244 477.008991 
L 122.753247 478.965586 
L 124.47173 480.905094 
L 126.209522 482.827321 
L 127.966449 484.732073 
L 129.742336 486.619162 
L 131.537004 488.488397 
L 133.350275 490.339593 
L 135.181966 492.172564 
L 137.031896 493.987126 
L 138.899878 495.783099 
L 140.785726 497.560302 
L 142.689252 499.318559 
L 144.610265 501.057692 
L 146.548572 502.777529 
L 148.503981 504.477897 
L 150.476296 506.158626 
L 152.465319 507.819549 
L 154.470852 509.460498 
L 156.492693 511.08131 
L 158.530641 512.681824 
L 160.584492 514.261878 
L 162.654041 515.821315 
L 164.739081 517.359979 
L 166.839402 518.877716 
L 171.36107 512.554037 
z
" clip-path="url(#pce47451078)" style="fill: none; stroke: #000000; stroke-width: 0.5; stroke-linejoin: miter"/>
   </g>
   <g id="patch_14">
    <path d="M 75.774512 376.788993 
L 75.099607 374.367727 
L 74.448948 371.939833 
L 73.8226 369.505554 
L 73.220626 367.065133 
L 72.643086 364.618814 
L 72.090038 362.166843 
L 71.561536 359.709464 
L 71.057635 357.246922 
L 70.578383 354.779465 
L 70.12383 352.307339 
L 69.69402 349.830791 
L 69.288997 347.350069 
L 68.908801 344.86542 
L 68.55347 342.377094 
L 68.223039 339.88534 
L 67.917542 337.390405 
L 67.63701 334.89254 
L 67.381469 332.391995 
L 67.150947 329.88902 
L 66.945465 327.383864 
L 66.765045 324.876779 
L 66.609704 322.368016 
L 66.479458 319.857824 
L 66.37432 317.346455 
L 66.294301 314.834161 
L 66.239408 312.321192 
L 66.209648 309.807799 
L 66.205022 307.294235 
L 66.225531 304.78075 
L 66.271175 302.267596 
L 66.341946 299.755024 
L 66.43784 297.243286 
L 66.558846 294.732632 
L 66.704952 292.223313 
L 66.876143 289.715581 
L 67.072403 287.209686 
L 67.293712 284.705879 
L 67.540047 282.204411 
L 67.636262 281.291325 
L 59.90661 280.462548 
L 59.807419 281.403873 
L 59.553466 283.982707 
L 59.325313 286.563951 
L 59.122983 289.147348 
L 58.946497 291.732639 
L 58.795872 294.319565 
L 58.671124 296.907868 
L 58.572265 299.49729 
L 58.499304 302.08757 
L 58.452249 304.678451 
L 58.431105 307.269672 
L 58.435874 309.860975 
L 58.466555 312.452101 
L 58.523146 315.042791 
L 58.60564 317.632785 
L 58.714029 320.221825 
L 58.848303 322.809652 
L 59.008448 325.396006 
L 59.194449 327.98063 
L 59.406285 330.563264 
L 59.643938 333.143652 
L 59.907381 335.721533 
L 60.19659 338.296651 
L 60.511535 340.868749 
L 60.852185 343.437568 
L 61.218506 346.002853 
L 61.610461 348.564346 
L 62.028011 351.121791 
L 62.471113 353.674934 
L 62.939725 356.223517 
L 63.433799 358.767288 
L 63.953285 361.30599 
L 64.498132 363.839371 
L 65.068285 366.367176 
L 65.663687 368.889154 
L 66.284279 371.405052 
L 66.929998 373.914618 
L 67.60078 376.417602 
L 68.296559 378.913752 
L 75.774512 376.788993 
z
" clip-path="url(#pce47451078)" style="fill: none; stroke: #000000; stroke-width: 0.5; stroke-linejoin: miter"/>
   </g>
   <g id="patch_15">
    <path d="M 70.922826 259.610862 
L 71.419926 257.146939 
L 71.941639 254.68811 
L 72.487915 252.23462 
L 73.058697 249.786716 
L 73.65393 247.344642 
L 74.273553 244.908643 
L 74.917505 242.478961 
L 75.585721 240.055841 
L 76.278134 237.639523 
L 76.994676 235.23025 
L 77.735274 232.828263 
L 78.499854 230.433803 
L 79.288341 228.047107 
L 80.100654 225.668415 
L 80.936714 223.297966 
L 81.796436 220.935995 
L 82.679734 218.58274 
L 83.58652 216.238435 
L 84.516703 213.903315 
L 85.470191 211.577614 
L 86.446888 209.261563 
L 87.446696 206.955395 
L 88.469515 204.65934 
L 89.515243 202.373628 
L 90.583776 200.098488 
L 91.675007 197.834146 
L 92.788825 195.58083 
L 93.925121 193.338765 
L 95.083781 191.108174 
L 96.264688 188.889281 
L 97.467724 186.682308 
L 98.69277 184.487476 
L 99.939702 182.305003 
L 101.208397 180.135109 
L 102.498727 177.97801 
L 103.810562 175.833922 
L 105.143773 173.703059 
L 106.498225 171.585635 
L 107.873784 169.481861 
L 109.270311 167.391947 
L 110.687667 165.316103 
L 112.12571 163.254536 
L 113.584297 161.207453 
L 115.063281 159.175057 
L 116.562515 157.157552 
L 118.081848 155.155141 
L 119.62113 153.168023 
L 121.180205 151.196396 
L 122.758918 149.240459 
L 124.357112 147.300406 
L 125.974626 145.376432 
L 127.611298 143.468729 
L 129.266965 141.577488 
L 130.941462 139.702898 
L 132.63462 137.845146 
L 134.346271 136.004419 
L 136.076243 134.1809 
L 137.824364 132.374771 
L 138.871682 131.309819 
L 133.345188 125.842439 
L 132.265478 126.940327 
L 130.463292 128.802316 
L 128.679815 130.682232 
L 126.915227 132.57989 
L 125.169703 134.495098 
L 123.443418 136.427665 
L 121.736544 138.377398 
L 120.049253 140.344102 
L 118.381713 142.32758 
L 116.734091 144.327635 
L 115.106552 146.344065 
L 113.499258 148.376669 
L 111.912369 150.425245 
L 110.346046 152.489587 
L 108.800444 154.569488 
L 107.275718 156.664741 
L 105.772021 158.775137 
L 104.289502 160.900464 
L 102.82831 163.040509 
L 101.388591 165.195059 
L 99.97049 167.363898 
L 98.574147 169.54681 
L 97.199703 171.743576 
L 95.847295 173.953976 
L 94.517059 176.177789 
L 93.209126 178.414794 
L 91.923629 180.664765 
L 90.660695 182.927479 
L 89.420451 185.202709 
L 88.203021 187.490227 
L 87.008527 189.789805 
L 85.837088 192.101213 
L 84.688821 194.42422 
L 83.563841 196.758592 
L 82.462261 199.104098 
L 81.384191 201.460502 
L 80.329738 203.827569 
L 79.299008 206.205062 
L 78.292104 208.592742 
L 77.309127 210.990373 
L 76.350175 213.397713 
L 75.415344 215.814522 
L 74.504728 218.240559 
L 73.618416 220.67558 
L 72.756499 223.119342 
L 71.919063 225.571602 
L 71.10619 228.032113 
L 70.317963 230.500629 
L 69.55446 232.976904 
L 68.815757 235.46069 
L 68.101929 237.951739 
L 67.413046 240.449802 
L 66.749178 242.954628 
L 66.110392 245.465968 
L 65.49675 247.98357 
L 64.908314 250.507182 
L 64.345144 253.036553 
L 63.807295 255.571428 
L 63.294821 258.111556 
L 70.922826 259.610862 
z
" clip-path="url(#pce47451078)" style="fill: none; stroke: #000000; stroke-width: 0.5; stroke-linejoin: miter"/>
   </g>
   <g id="patch_16">
    <path d="M 154.958924 116.408657 
L 156.88382 114.79224 
L 158.824783 113.195153 
L 160.781621 111.617556 
L 162.754136 110.059605 
L 164.742131 108.521457 
L 166.745409 107.003265 
L 168.763768 105.505182 
L 169.421485 105.023727 
L 164.83983 98.743375 
L 164.161771 99.23972 
L 162.080989 100.784136 
L 160.015754 102.349282 
L 157.966274 103.935002 
L 155.932753 105.541136 
L 153.915395 107.167526 
L 151.914402 108.814007 
L 149.929973 110.480416 
L 154.958924 116.408657 
z
" clip-path="url(#pce47451078)" style="fill: none; stroke: #000000; stroke-width: 0.5; stroke-linejoin: miter"/>
   </g>
   <g id="patch_17">
    <path d="M 187.683459 92.885182 
L 189.84195 91.597182 
L 192.013212 90.330831 
L 194.197029 89.086255 
L 196.393183 87.863579 
L 198.601453 86.662926 
L 200.82162 85.484415 
L 203.05346 84.328164 
L 205.296751 83.194289 
L 207.551268 82.082903 
L 209.816786 80.994117 
L 212.093079 79.928041 
L 214.379918 78.884781 
L 216.677076 77.864441 
L 218.984321 76.867123 
L 221.301425 75.892927 
L 223.628154 74.94195 
L 225.964277 74.014288 
L 228.30956 73.110033 
L 230.663767 72.229275 
L 233.026664 71.372104 
L 235.398015 70.538604 
L 237.777582 69.728858 
L 240.165127 68.942949 
L 242.560412 68.180953 
L 244.963197 67.442949 
L 247.373242 66.729008 
L 249.790305 66.039204 
L 252.214146 65.373604 
L 254.644521 64.732275 
L 257.081188 64.115282 
L 259.523903 63.522686 
L 261.972422 62.954546 
L 264.4265 62.410919 
L 266.885891 61.89186 
L 269.350349 61.397421 
L 271.819629 60.92765 
L 274.293483 60.482595 
L 276.771663 60.062301 
L 279.253923 59.666809 
L 281.740013 59.296159 
L 284.229686 58.950388 
L 286.722691 58.62953 
L 289.218781 58.333619 
L 291.717705 58.062682 
L 294.219213 57.816748 
L 295.654379 57.687041 
L 294.976835 49.942668 
L 293.497281 50.076386 
L 290.918407 50.329927 
L 288.342197 50.609243 
L 285.768909 50.914306 
L 283.1988 51.245087 
L 280.632127 51.601552 
L 278.069147 51.983666 
L 275.510117 52.391389 
L 272.955292 52.824682 
L 270.404927 53.283502 
L 267.859278 53.767801 
L 265.318599 54.277533 
L 262.783144 54.812645 
L 260.253167 55.373085 
L 257.728921 55.958796 
L 255.210658 56.56972 
L 252.69863 57.205795 
L 250.193089 57.866959 
L 247.694284 58.553145 
L 245.202466 59.264283 
L 242.717884 60.000304 
L 240.240786 60.761134 
L 237.77142 61.546696 
L 235.310033 62.356912 
L 232.856871 63.191701 
L 230.41218 64.05098 
L 227.976203 64.934662 
L 225.549185 65.842659 
L 223.131368 66.774881 
L 220.722994 67.731234 
L 218.324304 68.711622 
L 215.935538 69.715948 
L 213.556934 70.744111 
L 211.18873 71.796008 
L 208.831164 72.871534 
L 206.48447 73.970581 
L 204.148885 75.093041 
L 201.82464 76.238799 
L 199.511969 77.407743 
L 197.211103 78.599754 
L 194.922272 79.814714 
L 192.645704 81.052501 
L 190.381628 82.312991 
L 188.13027 83.596059 
L 185.891855 84.901576 
L 183.666607 86.229411 
L 187.683459 92.885182 
z
" clip-path="url(#pce47451078)" style="fill: none; stroke: #000000; stroke-width: 0.5; stroke-linejoin: miter"/>
   </g>
   <g id="text_1">
    <text style="font: 10px 'DejaVu Sans', 'Bitstream Vera Sans', 'Computer Modern Sans Serif', 'Lucida Grande', 'Verdana', 'Geneva', 'Lucid', 'Arial', 'Helvetica', 'Avant Garde', sans-serif; text-anchor: middle" x="476.137128" y="84.432488" transform="rotate(-324.662781 476.137128 84.432488)">CA1v</text>
   </g>
   <g id="text_2">
    <text style="font: 10px 'DejaVu Sans', 'Bitstream Vera Sans', 'Computer Modern Sans Serif', 'Lucida Grande', 'Verdana', 'Geneva', 'Lucid', 'Arial', 'Helvetica', 'Avant Garde', sans-serif; text-anchor: middle" x="563.960734" y="440.422304" transform="rotate(-61.761032 563.960734 440.422304)">SUBv</text>
   </g>
   <g id="text_3">
    <text style="font: 10px 'DejaVu Sans', 'Bitstream Vera Sans', 'Computer Modern Sans Serif', 'Lucida Grande', 'Verdana', 'Geneva', 'Lucid', 'Arial', 'Helvetica', 'Avant Garde', sans-serif; text-anchor: middle" x="277.743441" y="584.926414" transform="rotate(-351.815154 277.743441 584.926414)">AAA</text>
   </g>
   <g id="text_4">
    <text style="font: 10px 'DejaVu Sans', 'Bitstream Vera Sans', 'Computer Modern Sans Serif', 'Lucida Grande', 'Verdana', 'Geneva', 'Lucid', 'Arial', 'Helvetica', 'Avant Garde', sans-serif; text-anchor: middle" x="96.111069" y="478.922827" transform="rotate(-307.647794 96.111069 478.922827)">MEA</text>
   </g>
   <g id="text_5">
    <text style="font: 10px 'DejaVu Sans', 'Bitstream Vera Sans', 'Computer Modern Sans Serif', 'Lucida Grande', 'Verdana', 'Geneva', 'Lucid', 'Arial', 'Helvetica', 'Avant Garde', sans-serif; text-anchor: middle" x="38.884873" y="331.837102" transform="rotate(-274.870941 38.884873 331.837102)">BST</text>
   </g>
   <g id="text_6">
    <text style="font: 10px 'DejaVu Sans', 'Bitstream Vera Sans', 'Computer Modern Sans Serif', 'Lucida Grande', 'Verdana', 'Geneva', 'Lucid', 'Arial', 'Helvetica', 'Avant Garde', sans-serif; text-anchor: middle" x="75.27453" y="179.772002" transform="rotate(-62.094088 75.27453 179.772002)">IA</text>
   </g>
   <g id="text_7">
    <text style="font: 10px 'DejaVu Sans', 'Bitstream Vera Sans', 'Computer Modern Sans Serif', 'Lucida Grande', 'Verdana', 'Geneva', 'Lucid', 'Arial', 'Helvetica', 'Avant Garde', sans-serif; text-anchor: middle" x="147.976845" y="92.660606" transform="rotate(-38.209825 147.976845 92.660606)">PAR</text>
   </g>
   <g id="text_8">
    <text style="font: 10px 'DejaVu Sans', 'Bitstream Vera Sans', 'Computer Modern Sans Serif', 'Lucida Grande', 'Verdana', 'Geneva', 'Lucid', 'Arial', 'Helvetica', 'Avant Garde', sans-serif; text-anchor: middle" x="232.585209" y="47.421671" transform="rotate(-18.055787 232.585209 47.421671)">CEA</text>
   </g>
  </g>
 </g>
 <defs>
  <clipPath id="pce47451078">
   <path d="M 589.650108 308.088445 
C 589.650108 272.358118 582.612013 236.975223 568.938609 203.964705 
C 555.265205 170.954187 535.222405 140.958017 509.957248 115.69286 
C 484.692091 90.427704 454.695922 70.384904 421.685404 56.7115 
C 388.674886 43.038095 353.291991 36 317.561664 36 
C 281.831336 36 246.448442 43.038095 213.437924 56.7115 
C 180.427406 70.384904 150.431236 90.427704 125.166079 115.69286 
C 99.900923 140.958017 79.858123 170.954187 66.184718 203.964705 
C 52.511314 236.975223 45.473219 272.358118 45.473219 308.088445 
C 45.473219 343.818772 52.511314 379.201667 66.184718 412.212185 
C 79.858123 445.222703 99.900923 475.218873 125.166079 500.484029 
C 150.431236 525.749186 180.427406 545.791986 213.437924 559.46539 
C 246.448442 573.138794 281.831336 580.17689 317.561664 580.17689 
C 353.291991 580.17689 388.674886 573.138794 421.685404 559.46539 
C 454.695922 545.791986 484.692091 525.749186 509.957248 500.484029 
C 535.222405 475.218873 555.265205 445.222703 568.938609 412.212185 
C 582.612013 379.201667 589.650108 343.818772 589.650108 308.088445 
M 317.561664 308.088445 
C 317.561664 308.088445 317.561664 308.088445 317.561664 308.088445 
C 317.561664 308.088445 317.561664 308.088445 317.561664 308.088445 
C 317.561664 308.088445 317.561664 308.088445 317.561664 308.088445 
C 317.561664 308.088445 317.561664 308.088445 317.561664 308.088445 
C 317.561664 308.088445 317.561664 308.088445 317.561664 308.088445 
C 317.561664 308.088445 317.561664 308.088445 317.561664 308.088445 
C 317.561664 308.088445 317.561664 308.088445 317.561664 308.088445 
C 317.561664 308.088445 317.561664 308.088445 317.561664 308.088445 
C 317.561664 308.088445 317.561664 308.088445 317.561664 308.088445 
C 317.561664 308.088445 317.561664 308.088445 317.561664 308.088445 
C 317.561664 308.088445 317.561664 308.088445 317.561664 308.088445 
C 317.561664 308.088445 317.561664 308.088445 317.561664 308.088445 
C 317.561664 308.088445 317.561664 308.088445 317.561664 308.088445 
C 317.561664 308.088445 317.561664 308.088445 317.561664 308.088445 
C 317.561664 308.088445 317.561664 308.088445 317.561664 308.088445 
C 317.561664 308.088445 317.561664 308.088445 317.561664 308.088445 
z
"/>
  </clipPath>
 </defs>
</svg>
