<?xml version="1.0" encoding="utf-8" standalone="no"?>
<!DOCTYPE svg PUBLIC "-//W3C//DTD SVG 1.1//EN"
  "http://www.w3.org/Graphics/SVG/1.1/DTD/svg11.dtd">
<svg xmlns:xlink="http://www.w3.org/1999/xlink" width="626.747179pt" height="625.938628pt" viewBox="0 0 626.747179 625.938628" xmlns="http://www.w3.org/2000/svg" version="1.1">
 <metadata>
  <rdf:RDF xmlns:dc="http://purl.org/dc/elements/1.1/" xmlns:cc="http://creativecommons.org/ns#" xmlns:rdf="http://www.w3.org/1999/02/22-rdf-syntax-ns#">
   <cc:Work>
    <dc:type rdf:resource="http://purl.org/dc/dcmitype/StillImage"/>
    <dc:date>2024-12-19T10:19:54.730020</dc:date>
    <dc:format>image/svg+xml</dc:format>
    <dc:creator>
     <cc:Agent>
      <dc:title>Matplotlib v3.9.3, https://matplotlib.org/</dc:title>
     </cc:Agent>
    </dc:creator>
   </cc:Work>
  </rdf:RDF>
 </metadata>
 <defs>
  <style type="text/css">*{stroke-linejoin: round; stroke-linecap: butt}</style>
 </defs>
 <g id="figure_1">
  <g id="patch_1">
   <path d="M 0 625.938628 
L 626.747179 625.938628 
L 626.747179 0 
L 0 0 
z
" style="fill: #ffffff"/>
  </g>
  <g id="axes_1">
   <g id="patch_2">
    <path d="M 313.511044 65.552723 
L 315.984018 65.565088 
L 318.456745 65.602182 
L 320.928977 65.664 
L 323.400467 65.750538 
L 325.870969 65.861785 
L 328.340234 65.997732 
L 330.808016 66.158364 
L 333.274069 66.343666 
L 335.738146 66.553618 
L 338.2 66.7882 
L 340.659385 67.047389 
L 343.116055 67.331158 
L 345.569764 67.639479 
L 348.020268 67.972322 
L 350.467321 68.329652 
L 352.910678 68.711435 
L 355.350096 69.117632 
L 357.785329 69.548202 
L 360.216136 70.003103 
L 362.642271 70.482289 
L 365.063494 70.985711 
L 367.479561 71.51332 
L 369.890232 72.065063 
L 372.295265 72.640885 
L 374.694419 73.240728 
L 377.087455 73.864532 
L 379.474133 74.512235 
L 381.854216 75.183772 
L 384.227464 75.879076 
L 386.59364 76.598077 
L 388.952508 77.340704 
L 391.303832 78.106881 
L 393.647377 78.896533 
L 395.982908 79.709581 
L 398.310192 80.545943 
L 400.628997 81.405536 
L 402.939089 82.288273 
L 405.240239 83.194067 
L 407.532216 84.122826 
L 409.814791 85.074459 
L 412.087736 86.048869 
L 414.350823 87.04596 
L 416.603826 88.065631 
L 418.43916 88.916456 
L 421.684359 81.990546 
L 419.792263 81.113406 
L 417.469579 80.062199 
L 415.1365 79.03427 
L 412.793258 78.029723 
L 410.440088 77.048659 
L 408.077225 76.091175 
L 405.704905 75.157367 
L 403.323367 74.247328 
L 400.932847 73.36115 
L 398.533585 72.498922 
L 396.12582 71.660728 
L 393.709795 70.846654 
L 391.285749 70.05678 
L 388.853926 69.291185 
L 386.414569 68.549947 
L 383.967922 67.833139 
L 381.514229 67.140833 
L 379.053736 66.473098 
L 376.586688 65.830001 
L 374.113333 65.211606 
L 371.633918 64.617976 
L 369.148691 64.049168 
L 366.657899 63.505241 
L 364.161794 62.986249 
L 361.660623 62.492243 
L 359.154637 62.023273 
L 356.644087 61.579386 
L 354.129224 61.160627 
L 351.610299 60.767036 
L 349.087564 60.398654 
L 346.561271 60.055518 
L 344.031674 59.737661 
L 341.499024 59.445115 
L 338.963576 59.177911 
L 336.425582 58.936073 
L 333.885297 58.719627 
L 331.342974 58.528595 
L 328.798869 58.362995 
L 326.253234 58.222844 
L 323.706326 58.108155 
L 321.158397 58.018941 
L 318.609705 57.955211 
L 316.060502 57.91697 
L 313.511044 57.904222 
z
" clip-path="url(#p2bdaecfb86)" style="fill: #000080"/>
   </g>
   <g id="patch_3">
    <path d="M 437.557341 98.913695 
L 439.690508 100.164834 
L 441.811058 101.437242 
L 443.918778 102.730792 
L 446.013457 104.045354 
L 448.094886 105.380796 
L 450.162857 106.736986 
L 452.217162 108.113787 
L 454.257597 109.511062 
L 456.283958 110.928671 
L 458.296042 112.366472 
L 460.293647 113.824323 
L 462.276574 115.302076 
L 464.244624 116.799584 
L 466.197601 118.316697 
L 468.13531 119.853264 
L 470.057557 121.409131 
L 471.964149 122.984142 
L 473.854895 124.57814 
L 475.729608 126.190965 
L 477.588099 127.822457 
L 479.430182 129.472452 
L 481.255673 131.140785 
L 483.06439 132.827289 
L 484.856152 134.531795 
L 486.63078 136.254134 
L 488.388096 137.994132 
L 490.127924 139.751616 
L 491.85009 141.526411 
L 493.554423 143.318338 
L 495.240752 145.127218 
L 496.908908 146.952871 
L 498.558724 148.795114 
L 500.190036 150.653763 
L 501.80268 152.528632 
L 503.396494 154.419533 
L 504.971321 156.326278 
L 506.527001 158.248675 
L 508.063381 160.186533 
L 509.580305 162.139657 
L 511.077622 164.107852 
L 512.555183 166.090923 
L 514.01284 168.088669 
L 515.450446 170.100892 
L 516.867859 172.12739 
L 516.883003 172.149276 
L 523.172858 167.797576 
L 523.157245 167.775013 
L 521.695995 165.68584 
L 520.213926 163.611383 
L 518.711187 161.551851 
L 517.187929 159.507449 
L 515.644303 157.478381 
L 514.080463 155.464851 
L 512.496567 153.46706 
L 510.892773 151.485207 
L 509.26924 149.519491 
L 507.626132 147.570108 
L 505.963613 145.637254 
L 504.281848 143.721121 
L 502.581007 141.821901 
L 500.861258 139.939785 
L 499.122775 138.074959 
L 497.365731 136.227612 
L 495.590301 134.397927 
L 493.796664 132.586087 
L 491.984998 130.792275 
L 490.155486 129.016668 
L 488.308308 127.259445 
L 486.443651 125.520781 
L 484.561702 123.80085 
L 482.662647 122.099825 
L 480.746677 120.417874 
L 478.813983 118.755168 
L 476.86476 117.111871 
L 474.899201 115.488148 
L 472.917504 113.884161 
L 470.919866 112.300072 
L 468.906487 110.736037 
L 466.877569 109.192215 
L 464.833315 107.668758 
L 462.773928 106.16582 
L 460.699615 104.68355 
L 458.610584 103.222097 
L 456.507042 101.781608 
L 454.389201 100.362225 
L 452.257273 98.964092 
L 450.11147 97.587347 
L 447.952007 96.232129 
L 445.7791 94.898572 
L 443.592966 93.586812 
L 441.393824 92.296977 
z
" clip-path="url(#p2bdaecfb86)" style="fill: #0000c8"/>
   </g>
   <g id="patch_4">
    <path d="M 528.372357 190.409735 
L 529.586039 192.564435 
L 530.778113 194.731163 
L 531.948461 196.909704 
L 533.096965 199.099839 
L 534.223511 201.301349 
L 535.327986 203.514014 
L 536.410279 205.737614 
L 537.470283 207.971925 
L 538.507891 210.216724 
L 539.522999 212.471787 
L 540.515506 214.736888 
L 541.485313 217.0118 
L 542.432323 219.296297 
L 543.356441 221.59015 
L 544.257575 223.893128 
L 545.135634 226.205003 
L 545.99053 228.525543 
L 546.822179 230.854515 
L 547.630498 233.191688 
L 548.415404 235.536826 
L 549.17682 237.889697 
L 549.91467 240.250063 
L 550.628879 242.61769 
L 551.319378 244.992341 
L 551.986095 247.373778 
L 552.628965 249.761763 
L 553.247923 252.156057 
L 553.842908 254.55642 
L 554.41386 256.962614 
L 554.960722 259.374396 
L 555.483439 261.791527 
L 555.98196 264.213764 
L 556.456233 266.640864 
L 556.906212 269.072586 
L 557.331851 271.508687 
L 557.733109 273.948921 
L 558.109945 276.393046 
L 558.462321 278.840818 
L 558.790202 281.29199 
L 559.093555 283.746319 
L 559.372351 286.203559 
L 559.62656 288.663463 
L 559.856158 291.125787 
L 560.061122 293.590283 
L 560.241431 296.056706 
L 560.397067 298.524809 
L 560.466002 299.766466 
L 568.103784 299.361689 
L 568.032717 298.081631 
L 567.872268 295.537195 
L 567.686382 292.994491 
L 567.475079 290.453773 
L 567.23838 287.915295 
L 566.976309 285.379311 
L 566.688891 282.846074 
L 566.376155 280.315838 
L 566.038133 277.788856 
L 565.674859 275.265381 
L 565.286369 272.745664 
L 564.872701 270.229958 
L 564.433897 267.718515 
L 563.970002 265.211585 
L 563.48106 262.709419 
L 562.967122 260.212268 
L 562.428238 257.720381 
L 561.864463 255.234007 
L 561.275853 252.753395 
L 560.662466 250.278793 
L 560.024365 247.810449 
L 559.361612 245.348609 
L 558.674274 242.893519 
L 557.962421 240.445426 
L 557.226122 238.004573 
L 556.465452 235.571206 
L 555.680487 233.145566 
L 554.871305 230.727898 
L 554.037988 228.318441 
L 553.180618 225.917439 
L 552.299281 223.52513 
L 551.394065 221.141754 
L 550.465062 218.767549 
L 549.512363 216.402752 
L 548.536064 214.047601 
L 547.536263 211.70233 
L 546.513059 209.367175 
L 545.466556 207.042368 
L 544.396857 204.728142 
L 543.30407 202.424728 
L 542.188304 200.132358 
L 541.04967 197.851259 
L 539.888282 195.581661 
L 538.704257 193.32379 
L 537.497713 191.077872 
L 536.268771 188.844131 
L 535.017552 186.622792 
z
" clip-path="url(#p2bdaecfb86)" style="fill: #0000ff"/>
   </g>
   <g id="patch_5">
    <path d="M 560.666938 321.339811 
L 560.569726 323.810905 
L 560.447809 326.280903 
L 560.301198 328.749558 
L 560.129908 331.216623 
L 559.933956 333.681853 
L 559.713362 336.145 
L 559.468149 338.605817 
L 559.198339 341.06406 
L 558.903962 343.519481 
L 558.585045 345.971836 
L 558.241621 348.420879 
L 557.873724 350.866366 
L 557.481391 353.308052 
L 557.064661 355.745692 
L 556.894726 356.699702 
L 564.422056 358.055747 
L 564.597247 357.072231 
L 565.026866 354.5592 
L 565.431333 352.041999 
L 565.810608 349.520879 
L 566.164653 346.996092 
L 566.493433 344.467891 
L 566.796916 341.936528 
L 567.075069 339.402258 
L 567.327867 336.865332 
L 567.555283 334.326006 
L 567.757295 331.784532 
L 567.933883 329.241166 
L 568.085028 326.69616 
L 568.210716 324.149771 
L 568.310935 321.602252 
z
" clip-path="url(#p2bdaecfb86)" style="fill: #0040ff"/>
   </g>
   <g id="patch_6">
    <path d="M 552.147194 377.745142 
L 551.486364 380.128219 
L 550.801737 382.504569 
L 550.09338 384.873954 
L 549.361366 387.236137 
L 549.05014 388.21587 
L 556.334854 390.546642 
L 556.655706 389.536608 
L 557.41036 387.101368 
L 558.140624 384.658703 
L 558.846425 382.208858 
L 559.527693 379.752077 
z
" clip-path="url(#p2bdaecfb86)" style="fill: #0080ff"/>
   </g>
   <g id="patch_7">
    <path d="M 541.585644 408.457681 
L 540.618222 410.733609 
L 539.628089 412.999749 
L 538.615345 415.255875 
L 537.580091 417.50176 
L 536.52243 419.737181 
L 535.442468 421.961914 
L 534.340313 424.175736 
L 533.216075 426.378425 
L 532.069867 428.569763 
L 530.901803 430.749529 
L 529.712 432.917506 
L 528.500578 435.073476 
L 527.267656 437.217225 
L 526.013359 439.348537 
L 524.737813 441.4672 
L 523.441143 443.573002 
L 522.123481 445.665732 
L 520.784958 447.745181 
L 519.425707 449.811141 
L 518.045865 451.863406 
L 516.64557 453.90177 
L 515.224962 455.926029 
L 513.784182 457.935981 
L 512.323375 459.931425 
L 510.842687 461.912161 
L 509.342267 463.877992 
L 507.822263 465.82872 
L 506.282828 467.764151 
L 504.724116 469.684092 
L 503.146283 471.588349 
L 501.549487 473.476733 
L 499.933887 475.349055 
L 498.299645 477.205128 
L 496.646924 479.044766 
L 494.97589 480.867784 
L 493.286709 482.674002 
L 491.579551 484.463238 
L 489.854586 486.235313 
L 488.111988 487.99005 
L 486.351929 489.727273 
L 484.574586 491.44681 
L 482.780137 493.148487 
L 480.968761 494.832135 
L 479.14064 496.497586 
L 477.295955 498.144672 
L 475.434893 499.773229 
L 473.557638 501.383095 
L 471.664378 502.974108 
L 469.755304 504.546109 
L 467.830605 506.098941 
L 465.890474 507.632449 
L 463.935106 509.146479 
L 461.964695 510.64088 
L 459.979439 512.115502 
L 457.979536 513.570199 
L 455.965187 515.004824 
L 453.936592 516.419234 
L 451.893955 517.813288 
L 449.837479 519.186846 
L 447.767371 520.539772 
L 445.683838 521.871928 
L 443.587087 523.183183 
L 441.477329 524.473406 
L 439.354775 525.742466 
L 437.219636 526.990238 
L 435.072126 528.216597 
L 432.91246 529.42142 
L 430.740855 530.604586 
L 428.557526 531.765977 
L 426.362693 532.905477 
L 424.156575 534.022972 
L 421.939392 535.118351 
L 419.711367 536.191503 
L 417.472721 537.242322 
L 415.22368 538.270702 
L 412.964467 539.27654 
L 410.695309 540.259737 
L 408.416433 541.220193 
L 406.128066 542.157813 
L 403.830438 543.072503 
L 401.523778 543.964171 
L 399.208316 544.832728 
L 396.884285 545.678088 
L 394.551917 546.500165 
L 392.211445 547.298878 
L 389.863102 548.074147 
L 387.507125 548.825894 
L 385.143748 549.554044 
L 382.773208 550.258524 
L 380.395742 550.939264 
L 378.011587 551.596196 
L 375.620982 552.229254 
L 373.224166 552.838374 
L 370.821379 553.423496 
L 368.412861 553.984561 
L 365.998853 554.521514 
L 363.579597 555.0343 
L 361.155333 555.522868 
L 358.726305 555.98717 
L 356.292755 556.427159 
L 353.854928 556.84279 
L 351.413066 557.234023 
L 348.967414 557.600818 
L 346.518216 557.943138 
L 344.065717 558.26095 
L 341.610163 558.554222 
L 339.1518 558.822923 
L 336.690872 559.067028 
L 334.227626 559.286512 
L 331.762308 559.481353 
L 329.295166 559.651531 
L 326.826445 559.79703 
L 324.356392 559.917835 
L 321.885255 560.013933 
L 319.413281 560.085316 
L 316.940716 560.131976 
L 314.631758 560.15322 
L 314.666419 567.801642 
L 317.046789 567.779741 
L 319.595824 567.731638 
L 322.144252 567.658048 
L 324.691816 567.558977 
L 327.238261 567.434436 
L 329.783335 567.284437 
L 332.326781 567.108996 
L 334.868345 566.908129 
L 337.407774 566.681857 
L 339.944813 566.430202 
L 342.479208 566.15319 
L 345.010707 565.850848 
L 347.539056 565.523207 
L 350.064002 565.1703 
L 352.585293 564.79216 
L 355.102677 564.388828 
L 357.615901 563.960342 
L 360.124715 563.506745 
L 362.628868 563.028084 
L 365.128108 562.524405 
L 367.622188 561.99576 
L 370.110856 561.4422 
L 372.593864 560.863782 
L 375.070964 560.260564 
L 377.541908 559.632604 
L 380.006449 558.979968 
L 382.46434 558.302718 
L 384.915337 557.600925 
L 387.359193 556.874656 
L 389.795664 556.123986 
L 392.224506 555.348989 
L 394.645478 554.549743 
L 397.058336 553.726328 
L 399.462839 552.878825 
L 401.858748 552.007321 
L 404.245821 551.111901 
L 406.623821 550.192655 
L 408.99251 549.249676 
L 411.351651 548.283058 
L 413.701008 547.292897 
L 416.040346 546.279292 
L 418.369431 545.242345 
L 420.688031 544.182159 
L 422.995913 543.098841 
L 425.292846 541.992498 
L 427.578601 540.863242 
L 429.85295 539.711185 
L 432.115665 538.536443 
L 434.366519 537.339132 
L 436.605288 536.119373 
L 438.831747 534.877288 
L 441.045675 533.613001 
L 443.246849 532.326638 
L 445.435049 531.018328 
L 447.610058 529.688202 
L 449.771656 528.336393 
L 451.919629 526.963035 
L 454.053761 525.568267 
L 456.173839 524.152228 
L 458.27965 522.715059 
L 460.370985 521.256904 
L 462.447634 519.777909 
L 464.509389 518.278222 
L 466.556045 516.757992 
L 468.587396 515.217373 
L 470.60324 513.656517 
L 472.603375 512.075581 
L 474.587601 510.474724 
L 476.555719 508.854104 
L 478.507533 507.213884 
L 480.442847 505.554229 
L 482.361468 503.875304 
L 484.263204 502.177277 
L 486.147866 500.460318 
L 488.015263 498.724598 
L 489.865211 496.970291 
L 491.697523 495.197573 
L 493.512017 493.406621 
L 495.30851 491.597614 
L 497.086825 489.770733 
L 498.846781 487.92616 
L 500.588205 486.06408 
L 502.31092 484.184679 
L 504.014756 482.288145 
L 505.699542 480.374668 
L 507.365109 478.444439 
L 509.011291 476.497651 
L 510.637923 474.534499 
L 512.244842 472.555179 
L 513.831888 470.55989 
L 515.398902 468.548829 
L 516.945728 466.5222 
L 518.47221 464.480203 
L 519.978197 462.423045 
L 521.463536 460.350929 
L 522.928081 458.264064 
L 524.371684 456.162658 
L 525.794202 454.046922 
L 527.195491 451.917066 
L 528.575412 449.773304 
L 529.933827 447.61585 
L 531.270599 445.44492 
L 532.585596 443.260732 
L 533.878686 441.063502 
L 535.149739 438.853452 
L 536.398628 436.630802 
L 537.625228 434.395775 
L 538.829418 432.148593 
L 540.011076 429.889483 
L 541.170084 427.618668 
L 542.306326 425.336378 
L 543.419689 423.042839 
L 544.510061 420.738281 
L 545.577334 418.422936 
L 546.6214 416.097033 
L 547.642155 413.760806 
L 548.639498 411.414489 
z
" clip-path="url(#p2bdaecfb86)" style="fill: #00c0ff"/>
   </g>
   <g id="patch_8">
    <path d="M 293.073967 559.309849 
L 290.610474 559.093159 
L 288.149271 558.851846 
L 287.034786 558.734392 
L 286.215932 566.338933 
L 287.364886 566.460019 
L 289.902209 566.708796 
L 292.441893 566.932188 
z
" clip-path="url(#p2bdaecfb86)" style="fill: #16ffe1"/>
   </g>
   <g id="patch_9">
    <path d="M 265.705669 555.491186 
L 263.28173 555.001008 
L 260.862814 554.486616 
L 258.449163 553.948061 
L 256.041018 553.385397 
L 253.63862 552.79868 
L 251.242209 552.187969 
L 248.852025 551.553324 
L 246.468307 550.89481 
L 244.091293 550.212492 
L 241.721221 549.506438 
L 239.358328 548.776719 
L 237.00285 548.023408 
L 234.655023 547.246581 
L 232.315082 546.446314 
L 229.98326 545.622689 
L 227.65979 544.775786 
L 225.344906 543.905692 
L 223.038838 543.012493 
L 220.741818 542.096278 
L 218.454074 541.157139 
L 216.175836 540.195171 
L 213.907331 539.210468 
L 211.648787 538.203129 
L 209.400429 537.173256 
L 207.162481 536.120952 
L 204.935169 535.046321 
L 202.718714 533.949471 
L 200.513338 532.830511 
L 198.319262 531.689554 
L 196.136705 530.526714 
L 193.965885 529.342106 
L 191.807019 528.13585 
L 189.660324 526.908066 
L 187.526014 525.658877 
L 185.404303 524.388408 
L 183.295401 523.096785 
L 181.199522 521.784138 
L 179.116873 520.450599 
L 177.047664 519.0963 
L 174.992101 517.721377 
L 172.950389 516.325967 
L 170.922734 514.91021 
L 168.909337 513.474248 
L 166.910401 512.018225 
L 164.926124 510.542284 
L 162.956706 509.046576 
L 161.002343 507.531248 
L 159.06323 505.996452 
L 157.139563 504.442343 
L 155.231532 502.869075 
L 153.33933 501.276806 
L 151.463144 499.665694 
L 149.603163 498.035902 
L 147.759572 496.387591 
L 145.932557 494.720927 
L 144.122299 493.036077 
L 142.32898 491.333209 
L 140.552779 489.612493 
L 138.793874 487.874101 
L 137.052441 486.118208 
L 135.328653 484.344988 
L 133.622683 482.554619 
L 131.934702 480.747281 
L 130.264878 478.923153 
L 129.002654 477.519644 
L 123.296209 482.612388 
L 124.597471 484.059305 
L 126.318938 485.939849 
L 128.059125 487.803085 
L 129.817857 489.648826 
L 131.594958 491.476887 
L 133.39025 493.287087 
L 135.203555 495.079243 
L 137.03469 496.853177 
L 138.883472 498.608711 
L 140.749717 500.34567 
L 142.633238 502.06388 
L 144.533847 503.763169 
L 146.451353 505.443368 
L 148.385565 507.104308 
L 150.33629 508.745822 
L 152.303332 510.367748 
L 154.286494 511.969923 
L 156.285579 513.552186 
L 158.300386 515.11438 
L 160.330714 516.656348 
L 162.37636 518.177935 
L 164.43712 519.678991 
L 166.512786 521.159364 
L 168.603153 522.618907 
L 170.70801 524.057474 
L 172.827147 525.47492 
L 174.960352 526.871105 
L 177.107413 528.245888 
L 179.268113 529.599132 
L 181.442238 530.930702 
L 183.62957 532.240464 
L 185.82989 533.528288 
L 188.042977 534.794045 
L 190.268612 536.037607 
L 192.50657 537.258852 
L 194.756629 538.457657 
L 197.018563 539.633901 
L 199.292147 540.787467 
L 201.577152 541.918241 
L 203.87335 543.026108 
L 206.180513 544.110958 
L 208.498408 545.172683 
L 210.826804 546.211176 
L 213.165469 547.226333 
L 215.514168 548.218054 
L 217.872666 549.186238 
L 220.240729 550.130789 
L 222.618118 551.051613 
L 225.004597 551.948618 
L 227.399926 552.821713 
L 229.803866 553.670811 
L 232.216177 554.495828 
L 234.636618 555.296682 
L 237.064945 556.073291 
L 239.500917 556.825578 
L 241.944291 557.553469 
L 244.39482 558.256889 
L 246.852262 558.93577 
L 249.316369 559.590043 
L 251.786896 560.219642 
L 254.263595 560.824505 
L 256.746218 561.404571 
L 259.234518 561.959783 
L 261.728246 562.490084 
L 264.227152 562.995421 
z
" clip-path="url(#p2bdaecfb86)" style="fill: #49ffad"/>
   </g>
   <g id="patch_10">
    <path d="M 115.353228 460.812076 
L 113.883582 458.823133 
L 112.433899 456.819594 
L 111.004323 454.801657 
L 109.594998 452.769527 
L 108.206064 450.723404 
L 106.837661 448.663495 
L 105.489924 446.590006 
L 104.16299 444.503142 
L 102.85699 442.403114 
L 101.572056 440.290132 
L 100.308315 438.164405 
L 99.065894 436.026148 
L 97.844918 433.875574 
L 96.645508 431.712897 
L 95.467784 429.538335 
L 94.311865 427.352105 
L 93.177865 425.154425 
L 92.065899 422.945515 
L 90.976077 420.725596 
L 89.908508 418.49489 
L 88.863299 416.25362 
L 87.840555 414.00201 
L 86.840377 411.740285 
L 85.862867 409.468672 
L 84.908121 407.187397 
L 83.976235 404.89669 
L 83.067302 402.596778 
L 82.181414 400.287892 
L 81.318659 397.970262 
L 80.479122 395.644121 
L 79.662889 393.309701 
L 78.87004 390.967236 
L 78.100655 388.616959 
L 77.354811 386.259107 
L 76.632582 383.893914 
L 75.934041 381.521616 
L 75.259257 379.142453 
L 74.608299 376.75666 
L 73.98123 374.364477 
L 73.378114 371.966144 
L 73.098854 370.819918 
L 65.663425 372.612671 
L 65.951323 373.794347 
L 66.573092 376.266856 
L 67.219554 378.733024 
L 67.890645 381.192604 
L 68.586298 383.64535 
L 69.306444 386.091017 
L 70.05101 388.52936 
L 70.819921 390.960136 
L 71.613101 393.383102 
L 72.430471 395.798015 
L 73.271949 398.204633 
L 74.137451 400.602716 
L 75.02689 402.992025 
L 75.940176 405.37232 
L 76.87722 407.743363 
L 77.837927 410.104918 
L 78.822201 412.456747 
L 79.829944 414.798616 
L 80.861055 417.130291 
L 81.91543 419.451538 
L 82.992965 421.762126 
L 84.093552 424.061823 
L 85.21708 426.3504 
L 86.363437 428.627626 
L 87.532509 430.893276 
L 88.724178 433.147122 
L 89.938326 435.388938 
L 91.174832 437.618502 
L 92.43357 439.835588 
L 93.714416 442.039977 
L 95.017242 444.231448 
L 96.341917 446.409781 
L 97.688308 448.574758 
L 99.056282 450.726163 
L 100.445701 452.863782 
L 101.856426 454.987399 
L 103.288316 457.096804 
L 104.741229 459.191784 
L 106.215018 461.27213 
L 107.709537 463.337635 
L 109.224636 465.388092 
z
" clip-path="url(#p2bdaecfb86)" style="fill: #7dff7a"/>
   </g>
   <g id="patch_11">
    <path d="M 68.961653 349.646038 
L 68.605969 347.198745 
L 68.274775 344.748018 
L 67.968104 342.294102 
L 67.685987 339.837241 
L 67.428453 337.377682 
L 67.195527 334.915671 
L 66.987232 332.451454 
L 66.803589 329.985277 
L 66.644617 327.517387 
L 66.523346 325.308881 
L 58.884552 325.694076 
L 59.009572 327.970887 
L 59.173461 330.515103 
L 59.362784 333.057554 
L 59.577521 335.597984 
L 59.817651 338.136139 
L 60.08315 340.671767 
L 60.373992 343.204613 
L 60.690148 345.734424 
L 61.031585 348.260946 
L 61.39827 350.783929 
z
" clip-path="url(#p2bdaecfb86)" style="fill: #b1ff46"/>
   </g>
   <g id="patch_12">
    <path d="M 66.377716 303.735091 
L 66.481262 301.264255 
L 66.609512 298.794578 
L 66.762451 296.326306 
L 66.798124 295.802091 
L 59.167827 295.274705 
L 59.131051 295.815133 
L 58.973382 298.359743 
L 58.841166 300.905802 
L 58.734417 303.453055 
z
" clip-path="url(#p2bdaecfb86)" style="fill: #e4ff13"/>
   </g>
   <g id="patch_13">
    <path d="M 69.223134 274.364532 
L 69.620239 271.923618 
L 70.041732 269.486797 
L 70.150351 268.881363 
L 62.623732 267.521377 
L 62.511754 268.145536 
L 62.077224 270.657722 
L 61.667837 273.174129 
z
" clip-path="url(#p2bdaecfb86)" style="fill: #ffd000"/>
   </g>
   <g id="patch_14">
    <path d="M 74.908901 247.838411 
L 75.570978 245.45568 
L 76.25685 243.079689 
L 76.966446 240.710675 
L 77.699697 238.348876 
L 78.456529 235.994527 
L 79.236866 233.647864 
L 80.04063 231.309121 
L 80.867741 228.978533 
L 81.718116 226.656333 
L 82.59167 224.342752 
L 83.488316 222.038022 
L 84.407964 219.742374 
L 85.350523 217.456037 
L 86.315897 215.17924 
L 87.30399 212.91221 
L 88.314704 210.655174 
L 89.347937 208.408358 
L 90.403587 206.171987 
L 91.481547 203.946283 
L 92.58171 201.731471 
L 93.703965 199.52777 
L 94.848201 197.335402 
L 96.014304 195.154586 
L 97.202155 192.98554 
L 98.411638 190.828481 
L 99.64263 188.683624 
L 100.895009 186.551184 
L 102.168649 184.431374 
L 103.463423 182.324406 
L 104.779202 180.230491 
L 106.115854 178.149839 
L 107.438688 176.134729 
L 101.065316 171.90629 
L 99.70157 173.983723 
L 98.323578 176.128726 
L 96.967105 178.287401 
L 95.632286 180.459532 
L 94.319255 182.644903 
L 93.028143 184.843295 
L 91.759079 187.054488 
L 90.51219 189.278261 
L 89.2876 191.514391 
L 88.085433 193.762655 
L 86.905808 196.022828 
L 85.748844 198.294684 
L 84.614655 200.577996 
L 83.503356 202.872535 
L 82.415058 205.178073 
L 81.349869 207.494378 
L 80.307896 209.821219 
L 79.289243 212.158363 
L 78.294012 214.505577 
L 77.322302 216.862626 
L 76.374211 219.229273 
L 75.449834 221.605283 
L 74.549263 223.990418 
L 73.672587 226.384439 
L 72.819895 228.787107 
L 71.991273 231.198182 
L 71.186801 233.617422 
L 70.406563 236.044586 
L 69.650634 238.479431 
L 68.919091 240.921713 
L 68.212007 243.371188 
L 67.529453 245.827612 
z
" clip-path="url(#p2bdaecfb86)" style="fill: #ff9400"/>
   </g>
   <g id="patch_15">
    <path d="M 120.138746 158.694599 
L 121.689986 156.768616 
L 123.260407 154.858241 
L 124.849853 152.963667 
L 126.458165 151.085081 
L 128.085182 149.222671 
L 129.730742 147.376625 
L 131.394679 145.547127 
L 133.076828 143.734359 
L 134.777021 141.938502 
L 136.495086 140.159738 
L 138.230853 138.398242 
L 139.984148 136.654192 
L 141.754795 134.927762 
L 143.542618 133.219125 
L 145.347438 131.52845 
L 147.169074 129.855908 
L 149.007344 128.201666 
L 150.862064 126.565889 
L 152.733048 124.948741 
L 154.620111 123.350383 
L 156.523062 121.770975 
L 158.441713 120.210676 
L 160.37587 118.66964 
L 162.32534 117.148023 
L 164.289929 115.645977 
L 166.269439 114.163651 
L 168.263674 112.701194 
L 170.272434 111.258752 
L 172.295517 109.836469 
L 174.332721 108.434488 
L 176.383844 107.052949 
L 178.448679 105.69199 
L 180.52702 104.351747 
L 182.618659 103.032354 
L 184.723388 101.733943 
L 186.840995 100.456644 
L 188.971269 99.200584 
L 191.113997 97.96589 
L 193.268964 96.752684 
L 194.519082 96.06182 
L 190.838918 89.3569 
L 189.550137 90.06913 
L 187.328521 91.319858 
L 185.119523 92.592739 
L 182.923364 93.887646 
L 180.740264 95.204449 
L 178.570441 96.543017 
L 176.414112 97.903216 
L 174.271492 99.28491 
L 172.142796 100.687961 
L 170.028237 102.112228 
L 167.928026 103.557569 
L 165.842374 105.02384 
L 163.771488 106.510893 
L 161.715575 108.018581 
L 159.674843 109.546752 
L 157.649493 111.095254 
L 155.63973 112.663931 
L 153.645754 114.252627 
L 151.667764 115.861183 
L 149.705958 117.489439 
L 147.760533 119.137231 
L 145.831683 120.804394 
L 143.9196 122.490762 
L 142.024477 124.196166 
L 140.146502 125.920436 
L 138.285863 127.663399 
L 136.442747 129.424881 
L 134.617337 131.204706 
L 132.809816 133.002696 
L 131.020366 134.818671 
L 129.249164 136.652449 
L 127.496389 138.503847 
L 125.762215 140.37268 
L 124.046815 142.258761 
L 122.350362 144.161901 
L 120.673024 146.081911 
L 119.014971 148.018597 
L 117.376367 149.971767 
L 115.757376 151.941225 
L 114.15816 153.926775 
z
" clip-path="url(#p2bdaecfb86)" style="fill: #ff5900"/>
   </g>
   <g id="patch_16">
    <path d="M 213.866587 86.515948 
L 216.134914 85.530837 
L 218.412979 84.568458 
L 220.700554 83.628907 
L 222.997409 82.712279 
L 225.303316 81.818665 
L 227.618044 80.948154 
L 229.941361 80.100833 
L 232.273034 79.276788 
L 232.495928 79.199385 
L 229.990306 71.972946 
L 229.760519 72.052743 
L 227.356731 72.902274 
L 224.961559 73.775801 
L 222.575242 74.673234 
L 220.198018 75.594486 
L 217.830126 76.539464 
L 215.471802 77.508073 
L 213.123281 78.500216 
L 210.784799 79.515795 
z
" clip-path="url(#p2bdaecfb86)" style="fill: #ff1e00"/>
   </g>
   <g id="patch_17">
    <path d="M 253.168578 73.02758 
L 255.569821 72.436156 
L 257.976859 71.868774 
L 260.38945 71.325491 
L 261.834637 71.012165 
L 260.236398 63.532513 
L 258.746515 63.85553 
L 256.259307 64.415616 
L 253.777825 65.000545 
L 251.302316 65.61026 
z
" clip-path="url(#p2bdaecfb86)" style="fill: #c40000"/>
   </g>
   <g id="patch_18">
    <path d="M 283.109207 67.428551 
L 285.564943 67.136809 
L 288.023474 66.869639 
L 290.484553 66.627066 
L 291.957297 66.49378 
L 291.290686 58.874384 
L 289.772394 59.011793 
L 287.235199 59.261867 
L 284.700631 59.537301 
L 282.168944 59.838066 
z
" clip-path="url(#p2bdaecfb86)" style="fill: #800000"/>
   </g>
   <g id="PatchCollection_1">
    <path d="M 69.223134 274.364532 
L 69.223134 274.364532 
L 69.518503 272.534509 
L 69.518503 272.534509 
Q 313.511044 312.854241 74.908901 247.838411 
L 74.908901 247.838411 
L 74.908901 247.838411 
L 75.402942 246.051752 
L 75.402942 246.051752 
Q 313.511044 312.854241 69.223134 274.364532 
z
" clip-path="url(#p2bdaecfb86)" style="fill: #ffd000; fill-opacity: 0.5; stroke: #808080; stroke-opacity: 0.5; stroke-width: 0.1"/>
    <path d="M 66.377716 303.735091 
L 66.377716 303.735091 
L 66.481262 301.264255 
L 66.515295 300.560303 
L 66.515295 300.560303 
Q 313.511044 312.854241 437.557341 98.913695 
L 437.557341 98.913695 
L 437.557341 98.913695 
L 439.690508 100.164834 
L 440.29613 100.525291 
L 440.29613 100.525291 
Q 313.511044 312.854241 66.377716 303.735091 
z
" clip-path="url(#p2bdaecfb86)" style="fill: #e4ff13; fill-opacity: 0.5; stroke: #808080; stroke-opacity: 0.5; stroke-width: 0.1"/>
    <path d="M 66.515295 300.560303 
L 66.515295 300.560303 
L 66.59938 298.973638 
L 66.59938 298.973638 
Q 313.511044 312.854241 75.402942 246.051752 
L 75.402942 246.051752 
L 75.402942 246.051752 
L 75.837055 244.523314 
L 75.837055 244.523314 
Q 313.511044 312.854241 66.515295 300.560303 
z
" clip-path="url(#p2bdaecfb86)" style="fill: #e4ff13; fill-opacity: 0.5; stroke: #808080; stroke-opacity: 0.5; stroke-width: 0.1"/>
    <path d="M 68.961653 349.646038 
L 68.961653 349.646038 
L 68.640612 347.444882 
L 68.640612 347.444882 
Q 313.511044 312.854241 560.666938 321.339811 
L 560.666938 321.339811 
L 560.666938 321.339811 
L 560.580614 323.562581 
L 560.580614 323.562581 
Q 313.511044 312.854241 68.961653 349.646038 
z
" clip-path="url(#p2bdaecfb86)" style="fill: #b1ff46; fill-opacity: 0.5; stroke: #808080; stroke-opacity: 0.5; stroke-width: 0.1"/>
    <path d="M 68.640612 347.444882 
L 68.640612 347.444882 
L 68.306955 344.994489 
L 67.997818 342.540882 
L 67.796456 340.825335 
L 67.796456 340.825335 
Q 313.511044 312.854241 528.372357 190.409735 
L 528.372357 190.409735 
L 528.372357 190.409735 
L 529.586039 192.564435 
L 530.778113 194.731163 
L 531.597861 196.251578 
L 531.597861 196.251578 
Q 313.511044 312.854241 68.640612 347.444882 
z
" clip-path="url(#p2bdaecfb86)" style="fill: #b1ff46; fill-opacity: 0.5; stroke: #808080; stroke-opacity: 0.5; stroke-width: 0.1"/>
    <path d="M 67.796456 340.825335 
L 67.796456 340.825335 
L 67.529035 338.366832 
L 67.333048 336.400691 
L 67.333048 336.400691 
Q 313.511044 312.854241 440.29613 100.525291 
L 440.29613 100.525291 
L 440.29613 100.525291 
L 442.413044 101.803737 
L 444.095164 102.840364 
L 444.095164 102.840364 
Q 313.511044 312.854241 67.796456 340.825335 
z
" clip-path="url(#p2bdaecfb86)" style="fill: #b1ff46; fill-opacity: 0.5; stroke: #808080; stroke-opacity: 0.5; stroke-width: 0.1"/>
    <path d="M 67.333048 336.400691 
L 67.333048 336.400691 
L 67.109897 333.937775 
L 66.911385 331.47275 
L 66.787356 329.749885 
L 66.787356 329.749885 
Q 313.511044 312.854241 313.511044 65.552723 
L 313.511044 65.552723 
L 313.511044 65.552723 
L 315.984018 65.565088 
L 318.456745 65.602182 
L 320.183592 65.642757 
L 320.183592 65.642757 
Q 313.511044 312.854241 67.333048 336.400691 
z
" clip-path="url(#p2bdaecfb86)" style="fill: #b1ff46; fill-opacity: 0.5; stroke: #808080; stroke-opacity: 0.5; stroke-width: 0.1"/>
    <path d="M 66.787356 329.749885 
L 66.787356 329.749885 
L 66.645365 327.529977 
L 66.645365 327.529977 
Q 313.511044 312.854241 120.138746 158.694599 
L 120.138746 158.694599 
L 120.138746 158.694599 
L 121.533201 156.961494 
L 121.533201 156.961494 
Q 313.511044 312.854241 66.787356 329.749885 
z
" clip-path="url(#p2bdaecfb86)" style="fill: #b1ff46; fill-opacity: 0.5; stroke: #808080; stroke-opacity: 0.5; stroke-width: 0.1"/>
    <path d="M 66.645365 327.529977 
L 66.645365 327.529977 
L 66.523346 325.308881 
L 66.523346 325.308881 
Q 313.511044 312.854241 75.837055 244.523314 
L 75.837055 244.523314 
L 75.837055 244.523314 
L 76.461291 242.388253 
L 76.461291 242.388253 
Q 313.511044 312.854241 66.645365 327.529977 
z
" clip-path="url(#p2bdaecfb86)" style="fill: #b1ff46; fill-opacity: 0.5; stroke: #808080; stroke-opacity: 0.5; stroke-width: 0.1"/>
    <path d="M 115.353228 460.812076 
L 115.353228 460.812076 
L 113.883582 458.823133 
L 112.433899 456.819594 
L 111.004323 454.801657 
L 109.594998 452.769527 
L 108.206064 450.723404 
L 106.837661 448.663495 
L 105.489924 446.590006 
L 104.16299 444.503142 
L 102.85699 442.403114 
L 101.572056 440.290132 
L 100.308315 438.164405 
L 100.003661 437.644618 
L 100.003661 437.644618 
Q 313.511044 312.854241 531.597861 196.251578 
L 531.597861 196.251578 
L 531.597861 196.251578 
L 532.752964 198.438239 
L 533.886143 200.636343 
L 534.997285 202.845668 
L 536.086278 205.065994 
L 537.153014 207.297098 
L 538.197385 209.538759 
L 539.219289 211.79075 
L 540.218622 214.052848 
L 541.195284 216.324826 
L 542.149178 218.606457 
L 543.080208 220.897513 
L 543.303556 221.457074 
L 543.303556 221.457074 
Q 313.511044 312.854241 115.353228 460.812076 
z
" clip-path="url(#p2bdaecfb86)" style="fill: #7dff7a; fill-opacity: 0.5; stroke: #808080; stroke-opacity: 0.5; stroke-width: 0.1"/>
    <path d="M 100.003661 437.644618 
L 100.003661 437.644618 
L 98.766453 435.50334 
L 97.55072 433.349798 
L 96.356582 431.184206 
L 95.18416 429.006781 
L 94.03357 426.817741 
L 92.904928 424.617304 
L 91.798346 422.405692 
L 90.713935 420.183124 
L 89.651804 417.949824 
L 88.612059 415.706014 
L 87.594803 413.451919 
L 87.350392 412.901232 
L 87.350392 412.901232 
Q 313.511044 312.854241 444.095164 102.840364 
L 444.095164 102.840364 
L 444.095164 102.840364 
L 446.188738 104.156684 
L 448.269045 105.493874 
L 450.335876 106.851799 
L 452.389025 108.230325 
L 454.428287 109.629312 
L 456.453456 111.048623 
L 458.464332 112.488113 
L 460.460712 113.94764 
L 462.442397 115.427057 
L 464.40919 116.926217 
L 466.360893 118.44497 
L 466.834069 118.817928 
L 466.834069 118.817928 
Q 313.511044 312.854241 100.003661 437.644618 
z
" clip-path="url(#p2bdaecfb86)" style="fill: #7dff7a; fill-opacity: 0.5; stroke: #808080; stroke-opacity: 0.5; stroke-width: 0.1"/>
    <path d="M 87.350392 412.901232 
L 87.350392 412.901232 
L 86.361247 410.634661 
L 85.394816 408.358312 
L 84.451197 406.072412 
L 83.530484 403.777191 
L 82.632768 401.472878 
L 81.758141 399.159703 
L 80.906688 396.837897 
L 80.078496 394.507693 
L 79.277691 392.181269 
L 79.277691 392.181269 
Q 313.511044 312.854241 320.183592 65.642757 
L 320.183592 65.642757 
L 320.183592 65.642757 
L 322.655332 65.721842 
L 325.126157 65.825639 
L 327.595821 65.95414 
L 330.064077 66.10733 
L 332.530677 66.285195 
L 334.995376 66.487717 
L 337.457926 66.714875 
L 339.918081 66.966646 
L 342.36307 67.241535 
L 342.36307 67.241535 
Q 313.511044 312.854241 87.350392 412.901232 
z
" clip-path="url(#p2bdaecfb86)" style="fill: #7dff7a; fill-opacity: 0.5; stroke: #808080; stroke-opacity: 0.5; stroke-width: 0.1"/>
    <path d="M 79.277691 392.181269 
L 79.277691 392.181269 
L 78.496146 389.835008 
L 77.738102 387.481049 
L 77.003635 385.119628 
L 76.292818 382.75098 
L 75.605723 380.375343 
L 74.942418 377.992953 
L 74.302971 375.60405 
L 73.687443 373.208871 
L 73.098854 370.819918 
L 73.098854 370.819918 
Q 313.511044 312.854241 121.533201 156.961494 
L 121.533201 156.961494 
L 121.533201 156.961494 
L 123.101701 155.049542 
L 124.689242 153.153371 
L 126.295665 151.273169 
L 127.92081 149.409125 
L 129.564513 147.561426 
L 131.226611 145.730256 
L 132.906937 143.915798 
L 134.605324 142.118234 
L 136.312803 140.34678 
L 136.312803 140.34678 
Q 313.511044 312.854241 79.277691 392.181269 
z
" clip-path="url(#p2bdaecfb86)" style="fill: #7dff7a; fill-opacity: 0.5; stroke: #808080; stroke-opacity: 0.5; stroke-width: 0.1"/>
    <path d="M 265.705669 555.491186 
L 265.705669 555.491186 
L 263.28173 555.001008 
L 260.862814 554.486616 
L 258.449163 553.948061 
L 257.008511 553.614505 
L 257.008511 553.614505 
Q 313.511044 312.854241 552.147194 377.745142 
L 552.147194 377.745142 
L 552.147194 377.745142 
L 551.486364 380.128219 
L 550.801737 382.504569 
L 550.09338 384.873954 
L 549.658504 386.287326 
L 549.658504 386.287326 
Q 313.511044 312.854241 265.705669 555.491186 
z
" clip-path="url(#p2bdaecfb86)" style="fill: #49ffad; fill-opacity: 0.5; stroke: #808080; stroke-opacity: 0.5; stroke-width: 0.1"/>
    <path d="M 257.008511 553.614505 
L 257.008511 553.614505 
L 254.603774 553.037451 
L 252.204927 552.436379 
L 249.812211 551.811349 
L 248.38449 551.426186 
L 248.38449 551.426186 
Q 313.511044 312.854241 283.109207 67.428551 
L 283.109207 67.428551 
L 283.109207 67.428551 
L 285.564943 67.136809 
L 288.023474 66.869639 
L 290.484553 66.627066 
L 291.957297 66.49378 
L 291.957297 66.49378 
Q 313.511044 312.854241 257.008511 553.614505 
z
" clip-path="url(#p2bdaecfb86)" style="fill: #49ffad; fill-opacity: 0.5; stroke: #808080; stroke-opacity: 0.5; stroke-width: 0.1"/>
    <path d="M 248.38449 551.426186 
L 248.38449 551.426186 
L 246.002066 550.763003 
L 243.626394 550.076029 
L 241.25771 549.365333 
L 239.844768 548.929061 
L 239.844768 548.929061 
Q 313.511044 312.854241 253.168578 73.02758 
L 253.168578 73.02758 
L 253.168578 73.02758 
L 255.569821 72.436156 
L 257.976859 71.868774 
L 260.38945 71.325491 
L 261.834637 71.012165 
L 261.834637 71.012165 
Q 313.511044 312.854241 248.38449 551.426186 
z
" clip-path="url(#p2bdaecfb86)" style="fill: #49ffad; fill-opacity: 0.5; stroke: #808080; stroke-opacity: 0.5; stroke-width: 0.1"/>
    <path d="M 239.844768 548.929061 
L 239.844768 548.929061 
L 237.487742 548.180607 
L 235.138319 547.408621 
L 232.796733 546.613179 
L 230.463218 545.794361 
L 228.138008 544.95225 
L 225.821335 544.086929 
L 225.136278 543.825975 
L 225.136278 543.825975 
Q 313.511044 312.854241 543.303556 221.457074 
L 543.303556 221.457074 
L 543.303556 221.457074 
L 544.206023 223.759531 
L 545.085421 226.070897 
L 545.941661 228.390941 
L 546.774659 230.719432 
L 547.58433 233.056135 
L 548.370594 235.400819 
L 548.599157 236.097353 
L 548.599157 236.097353 
Q 313.511044 312.854241 239.844768 548.929061 
z
" clip-path="url(#p2bdaecfb86)" style="fill: #49ffad; fill-opacity: 0.5; stroke: #808080; stroke-opacity: 0.5; stroke-width: 0.1"/>
    <path d="M 225.136278 543.825975 
L 225.136278 543.825975 
L 222.831018 542.930693 
L 220.534826 542.012404 
L 218.247931 541.0712 
L 215.970563 540.107174 
L 213.702948 539.120423 
L 211.445314 538.111045 
L 209.197887 537.079142 
L 206.960891 536.024817 
L 204.73455 534.948175 
L 202.519086 533.849323 
L 200.314722 532.728372 
L 198.792913 531.938224 
L 198.792913 531.938224 
Q 313.511044 312.854241 466.834069 118.817928 
L 466.834069 118.817928 
L 466.834069 118.817928 
L 468.766734 120.360834 
L 470.683873 121.92299 
L 472.585295 123.504238 
L 474.47081 125.104422 
L 476.340229 126.72338 
L 478.193365 128.360951 
L 480.030033 130.016971 
L 481.850049 131.691275 
L 483.653232 133.383695 
L 485.439401 135.094062 
L 487.208376 136.822205 
L 488.424745 138.030793 
L 488.424745 138.030793 
Q 313.511044 312.854241 225.136278 543.825975 
z
" clip-path="url(#p2bdaecfb86)" style="fill: #49ffad; fill-opacity: 0.5; stroke: #808080; stroke-opacity: 0.5; stroke-width: 0.1"/>
    <path d="M 198.792913 531.938224 
L 198.792913 531.938224 
L 196.607846 530.780107 
L 194.434468 529.600199 
L 192.272999 528.398615 
L 190.123653 527.175478 
L 187.986645 525.930909 
L 185.86219 524.665032 
L 183.7505 523.377974 
L 181.651786 522.069864 
L 179.576859 520.747664 
L 179.576859 520.747664 
Q 313.511044 312.854241 342.36307 67.241535 
L 342.36307 67.241535 
L 342.36307 67.241535 
L 344.817714 67.542331 
L 347.269227 67.867658 
L 349.717364 68.217483 
L 352.16188 68.591772 
L 354.602532 68.990487 
L 357.039074 69.413588 
L 359.471264 69.861033 
L 361.898857 70.332777 
L 364.30927 70.826182 
L 364.30927 70.826182 
Q 313.511044 312.854241 198.792913 531.938224 
z
" clip-path="url(#p2bdaecfb86)" style="fill: #49ffad; fill-opacity: 0.5; stroke: #808080; stroke-opacity: 0.5; stroke-width: 0.1"/>
    <path d="M 179.576859 520.747664 
L 179.576859 520.747664 
L 177.504656 519.397949 
L 175.446054 518.027581 
L 173.401258 516.636696 
L 172.185232 515.795257 
L 172.185232 515.795257 
Q 313.511044 312.854241 213.866587 86.515948 
L 213.866587 86.515948 
L 213.866587 86.515948 
L 216.134914 85.530837 
L 218.412979 84.568458 
L 220.700554 83.628907 
L 222.072881 83.078039 
L 222.072881 83.078039 
Q 313.511044 312.854241 179.576859 520.747664 
z
" clip-path="url(#p2bdaecfb86)" style="fill: #49ffad; fill-opacity: 0.5; stroke: #808080; stroke-opacity: 0.5; stroke-width: 0.1"/>
    <path d="M 172.185232 515.795257 
L 172.185232 515.795257 
L 170.162922 514.371875 
L 168.154947 512.928342 
L 166.161507 511.464802 
L 164.182802 509.981401 
L 162.219029 508.478287 
L 160.270386 506.955611 
L 158.337067 505.413525 
L 156.419265 503.852183 
L 154.517171 502.271741 
L 152.630978 500.672358 
L 150.760872 499.054194 
L 149.473739 497.921265 
L 149.473739 497.921265 
Q 313.511044 312.854241 136.312803 140.34678 
L 136.312803 140.34678 
L 136.312803 140.34678 
L 138.046709 138.583452 
L 139.798161 136.837552 
L 141.566984 135.109253 
L 143.353001 133.398728 
L 145.156034 131.706148 
L 146.975903 130.031684 
L 148.812424 128.375501 
L 150.665416 126.737766 
L 152.534692 125.118643 
L 154.420065 123.518293 
L 156.321348 121.936876 
L 157.64888 120.851567 
L 157.64888 120.851567 
Q 313.511044 312.854241 172.185232 515.795257 
z
" clip-path="url(#p2bdaecfb86)" style="fill: #49ffad; fill-opacity: 0.5; stroke: #808080; stroke-opacity: 0.5; stroke-width: 0.1"/>
    <path d="M 149.473739 497.921265 
L 149.473739 497.921265 
L 147.631301 496.271666 
L 145.805452 494.603726 
L 143.996372 492.91761 
L 142.204244 491.213489 
L 140.429247 489.491531 
L 138.671557 487.751911 
L 136.931352 485.9948 
L 135.208804 484.220376 
L 133.504086 482.428815 
L 131.817369 480.620296 
L 130.148821 478.795002 
L 129.002654 477.519644 
L 129.002654 477.519644 
Q 313.511044 312.854241 76.461291 242.388253 
L 76.461291 242.388253 
L 76.461291 242.388253 
L 77.177792 240.021318 
L 77.917925 237.661667 
L 78.681618 235.309534 
L 79.468794 232.965156 
L 80.279373 230.628767 
L 81.113276 228.300601 
L 81.970418 225.980889 
L 82.850714 223.669865 
L 83.754076 221.36776 
L 84.680413 219.074803 
L 85.629633 216.791223 
L 86.301178 215.213483 
L 86.301178 215.213483 
Q 313.511044 312.854241 149.473739 497.921265 
z
" clip-path="url(#p2bdaecfb86)" style="fill: #49ffad; fill-opacity: 0.5; stroke: #808080; stroke-opacity: 0.5; stroke-width: 0.1"/>
    <path d="M 293.073967 559.309849 
L 293.073967 559.309849 
L 290.610474 559.093159 
L 289.046255 558.94267 
L 289.046255 558.94267 
Q 313.511044 312.854241 548.599157 236.097353 
L 548.599157 236.097353 
L 548.599157 236.097353 
L 549.354959 238.452033 
L 549.822973 239.952163 
L 549.822973 239.952163 
Q 313.511044 312.854241 293.073967 559.309849 
z
" clip-path="url(#p2bdaecfb86)" style="fill: #16ffe1; fill-opacity: 0.5; stroke: #808080; stroke-opacity: 0.5; stroke-width: 0.1"/>
    <path d="M 541.585644 408.457681 
L 541.585644 408.457681 
L 540.618222 410.733609 
L 539.628089 412.999749 
L 538.615345 415.255875 
L 537.580091 417.50176 
L 536.52243 419.737181 
L 535.442468 421.961914 
L 534.340313 424.175736 
L 533.216075 426.378425 
L 532.075768 428.558617 
L 532.075768 428.558617 
Q 313.511044 312.854241 560.580614 323.562581 
L 560.580614 323.562581 
L 560.580614 323.562581 
L 560.461179 326.0327 
L 560.317049 328.501501 
L 560.148239 330.968738 
L 559.954765 333.434163 
L 559.736647 335.89753 
L 559.493907 338.358593 
L 559.226569 340.817105 
L 558.934659 343.272821 
L 558.619884 345.712996 
L 558.619884 345.712996 
Q 313.511044 312.854241 541.585644 408.457681 
z
" clip-path="url(#p2bdaecfb86)" style="fill: #00c0ff; fill-opacity: 0.5; stroke: #808080; stroke-opacity: 0.5; stroke-width: 0.1"/>
    <path d="M 532.075768 428.558617 
L 532.075768 428.558617 
L 530.907815 430.738443 
L 529.718123 432.90648 
L 528.50681 435.062512 
L 527.273998 437.206324 
L 526.01981 439.3377 
L 524.744371 441.456428 
L 523.447809 443.562296 
L 522.130254 445.655093 
L 520.791836 447.734611 
L 519.432691 449.80064 
L 518.052954 451.852975 
L 516.652763 453.89141 
L 515.232258 455.915742 
L 514.525452 456.907179 
L 514.525452 456.907179 
Q 313.511044 312.854241 549.822973 239.952163 
L 549.822973 239.952163 
L 549.822973 239.952163 
L 550.540167 242.318888 
L 551.233657 244.692667 
L 551.903375 247.073261 
L 552.549255 249.460434 
L 553.17123 251.853946 
L 553.76924 254.253558 
L 554.343224 256.659029 
L 554.893126 259.070121 
L 555.418889 261.486591 
L 555.920462 263.908197 
L 556.397794 266.334698 
L 556.850837 268.765851 
L 557.279547 271.201413 
L 557.481669 272.402108 
L 557.481669 272.402108 
Q 313.511044 312.854241 532.075768 428.558617 
z
" clip-path="url(#p2bdaecfb86)" style="fill: #00c0ff; fill-opacity: 0.5; stroke: #808080; stroke-opacity: 0.5; stroke-width: 0.1"/>
    <path d="M 514.525452 456.907179 
L 514.525452 456.907179 
L 513.074896 458.910087 
L 511.604383 460.89839 
L 510.114062 462.871888 
L 508.60408 464.830384 
L 507.07459 466.773683 
L 505.525743 468.701591 
L 503.957695 470.613913 
L 502.370602 472.51046 
L 500.764624 474.391042 
L 499.13992 476.255469 
L 497.496653 478.103557 
L 495.834989 479.93512 
L 494.155092 481.749975 
L 493.321347 482.637327 
L 493.321347 482.637327 
Q 313.511044 312.854241 488.424745 138.030793 
L 488.424745 138.030793 
L 488.424745 138.030793 
L 490.164205 139.788642 
L 491.886 141.563797 
L 493.589957 143.356082 
L 495.275906 145.165315 
L 496.943679 146.991318 
L 498.593109 148.833907 
L 500.224031 150.692898 
L 501.836282 152.568105 
L 503.429701 154.45934 
L 505.004127 156.366414 
L 506.559405 158.289138 
L 508.095378 160.227317 
L 509.611893 162.180759 
L 510.351354 163.148085 
L 510.351354 163.148085 
Q 313.511044 312.854241 514.525452 456.907179 
z
" clip-path="url(#p2bdaecfb86)" style="fill: #00c0ff; fill-opacity: 0.5; stroke: #808080; stroke-opacity: 0.5; stroke-width: 0.1"/>
    <path d="M 493.321347 482.637327 
L 493.321347 482.637327 
L 491.614554 484.42691 
L 489.88995 486.199337 
L 488.147709 487.95443 
L 486.388005 489.692012 
L 484.611013 491.411911 
L 482.816911 493.113955 
L 481.005879 494.797972 
L 479.178097 496.463796 
L 477.333749 498.111258 
L 475.473018 499.740195 
L 473.596092 501.350444 
L 471.703157 502.941843 
L 469.794403 504.514233 
L 467.870021 506.067458 
L 465.930203 507.601361 
L 463.975144 509.11579 
L 462.005038 510.610593 
L 460.040402 512.070677 
L 460.040402 512.070677 
Q 313.511044 312.854241 364.30927 70.826182 
L 364.30927 70.826182 
L 364.30927 70.826182 
L 366.72697 71.346258 
L 369.139349 71.890483 
L 371.546165 72.458805 
L 373.947177 73.051166 
L 376.342146 73.667508 
L 378.730832 74.307767 
L 381.112996 74.971882 
L 383.4884 75.659784 
L 385.856806 76.371405 
L 388.217978 77.106675 
L 390.571679 77.865519 
L 392.917674 78.647862 
L 395.255729 79.453625 
L 397.585609 80.282729 
L 399.907081 81.135089 
L 402.219914 82.01062 
L 404.523877 82.909236 
L 406.795378 83.821331 
L 406.795378 83.821331 
Q 313.511044 312.854241 493.321347 482.637327 
z
" clip-path="url(#p2bdaecfb86)" style="fill: #00c0ff; fill-opacity: 0.5; stroke: #808080; stroke-opacity: 0.5; stroke-width: 0.1"/>
    <path d="M 460.040402 512.070677 
L 460.040402 512.070677 
L 458.040945 513.525985 
L 456.027034 514.961226 
L 453.998872 516.376257 
L 451.956662 517.770936 
L 450.935595 518.457096 
L 450.935595 518.457096 
Q 313.511044 312.854241 222.072881 83.078039 
L 222.072881 83.078039 
L 222.072881 83.078039 
L 224.375176 82.175161 
L 226.686385 81.295351 
L 229.006277 80.438697 
L 231.334619 79.605284 
L 232.495928 79.199385 
L 232.495928 79.199385 
Q 313.511044 312.854241 460.040402 512.070677 
z
" clip-path="url(#p2bdaecfb86)" style="fill: #00c0ff; fill-opacity: 0.5; stroke: #808080; stroke-opacity: 0.5; stroke-width: 0.1"/>
    <path d="M 450.935595 518.457096 
L 450.935595 518.457096 
L 448.872729 519.821038 
L 446.796328 521.164284 
L 444.706598 522.4867 
L 442.603748 523.788152 
L 440.48799 525.068511 
L 438.359534 526.327648 
L 436.218593 527.565439 
L 434.065381 528.781758 
L 431.900115 529.976485 
L 429.723009 531.1495 
L 427.534282 532.300686 
L 425.334153 533.429927 
L 423.122842 534.537111 
L 420.90057 535.622126 
L 418.667558 536.684866 
L 416.424032 537.725222 
L 414.170214 538.743091 
L 411.92947 539.728335 
L 411.92947 539.728335 
Q 313.511044 312.854241 157.64888 120.851567 
L 157.64888 120.851567 
L 157.64888 120.851567 
L 159.576668 119.302572 
L 161.519849 117.772931 
L 163.478229 116.262799 
L 165.451612 114.772325 
L 167.439801 113.301659 
L 169.442597 111.850949 
L 171.4598 110.420338 
L 173.491208 109.009971 
L 175.536618 107.619988 
L 177.595825 106.250529 
L 179.668623 104.901729 
L 181.754806 103.573725 
L 183.854164 102.266648 
L 185.966487 100.98063 
L 188.091565 99.7158 
L 190.229185 98.472283 
L 192.379133 97.250204 
L 194.519082 96.06182 
L 194.519082 96.06182 
Q 313.511044 312.854241 450.935595 518.457096 
z
" clip-path="url(#p2bdaecfb86)" style="fill: #00c0ff; fill-opacity: 0.5; stroke: #808080; stroke-opacity: 0.5; stroke-width: 0.1"/>
    <path d="M 411.92947 539.728335 
L 411.92947 539.728335 
L 409.655846 540.701159 
L 407.372608 541.651199 
L 405.079983 542.578359 
L 402.778202 543.482547 
L 400.467494 544.363672 
L 398.148091 545.221647 
L 395.820224 546.056385 
L 393.484126 546.867803 
L 391.14003 547.65582 
L 388.788172 548.420357 
L 386.428786 549.161337 
L 384.062109 549.878688 
L 381.688377 550.572335 
L 379.307826 551.242211 
L 376.920697 551.888249 
L 374.527226 552.510383 
L 372.127654 553.108552 
L 369.746783 553.676962 
L 369.746783 553.676962 
Q 313.511044 312.854241 86.301178 215.213483 
L 86.301178 215.213483 
L 86.301178 215.213483 
L 87.28893 212.946304 
L 88.299304 210.689116 
L 89.332198 208.442144 
L 90.387511 206.205614 
L 91.465135 203.979748 
L 92.564964 201.76477 
L 93.686888 199.5609 
L 94.830793 197.36836 
L 95.996567 195.187368 
L 97.184092 193.018143 
L 98.393249 190.860901 
L 99.623918 188.715859 
L 100.875975 186.58323 
L 102.149296 184.463228 
L 103.443753 182.356065 
L 104.759216 180.261952 
L 106.095554 178.181098 
L 107.438688 176.134729 
L 107.438688 176.134729 
Q 313.511044 312.854241 411.92947 539.728335 
z
" clip-path="url(#p2bdaecfb86)" style="fill: #00c0ff; fill-opacity: 0.5; stroke: #808080; stroke-opacity: 0.5; stroke-width: 0.1"/>
    <path d="M 549.658504 386.287326 
L 549.658504 386.287326 
L 549.05014 388.21587 
L 549.05014 388.21587 
Q 313.511044 312.854241 289.046255 558.94267 
L 289.046255 558.94267 
L 289.046255 558.94267 
L 287.034786 558.734392 
L 287.034786 558.734392 
Q 313.511044 312.854241 549.658504 386.287326 
z
" clip-path="url(#p2bdaecfb86)" style="fill: #0080ff; fill-opacity: 0.5; stroke: #808080; stroke-opacity: 0.5; stroke-width: 0.1"/>
    <path d="M 558.619884 345.712996 
L 558.619884 345.712996 
L 558.279046 348.162401 
L 557.913732 350.608274 
L 557.523978 353.050373 
L 557.109823 355.488452 
L 556.894726 356.699702 
L 556.894726 356.699702 
Q 313.511044 312.854241 369.746783 553.676962 
L 369.746783 553.676962 
L 369.746783 553.676962 
L 367.335784 554.227269 
L 364.919402 554.753438 
L 362.49788 555.255419 
L 360.07146 555.733159 
L 358.862687 555.961768 
L 358.862687 555.961768 
Q 313.511044 312.854241 558.619884 345.712996 
z
" clip-path="url(#p2bdaecfb86)" style="fill: #0040ff; fill-opacity: 0.5; stroke: #808080; stroke-opacity: 0.5; stroke-width: 0.1"/>
    <path d="M 557.481669 272.402108 
L 557.481669 272.402108 
L 557.873985 274.843796 
L 558.060669 276.064003 
L 558.060669 276.064003 
Q 313.511044 312.854241 69.518503 272.534509 
L 69.518503 272.534509 
L 69.518503 272.534509 
L 69.933893 270.09664 
L 70.150351 268.881363 
L 70.150351 268.881363 
Q 313.511044 312.854241 557.481669 272.402108 
z
" clip-path="url(#p2bdaecfb86)" style="fill: #0000ff; fill-opacity: 0.5; stroke: #808080; stroke-opacity: 0.5; stroke-width: 0.1"/>
    <path d="M 558.060669 276.064003 
L 558.060669 276.064003 
L 558.291995 277.635965 
L 558.291995 277.635965 
Q 313.511044 312.854241 66.59938 298.973638 
L 66.59938 298.973638 
L 66.59938 298.973638 
L 66.693658 297.387545 
L 66.693658 297.387545 
Q 313.511044 312.854241 558.060669 276.064003 
z
" clip-path="url(#p2bdaecfb86)" style="fill: #0000ff; fill-opacity: 0.5; stroke: #808080; stroke-opacity: 0.5; stroke-width: 0.1"/>
    <path d="M 558.291995 277.635965 
L 558.291995 277.635965 
L 558.631933 280.085495 
L 558.947359 282.538301 
L 559.238242 284.994139 
L 559.504552 287.452763 
L 559.746263 289.913927 
L 559.96335 292.377386 
L 560.155793 294.842891 
L 560.323571 297.310198 
L 560.466002 299.766466 
L 560.466002 299.766466 
Q 313.511044 312.854241 358.862687 555.961768 
L 358.862687 555.961768 
L 358.862687 555.961768 
L 356.429385 556.403121 
L 353.991791 556.82012 
L 351.550148 557.212723 
L 349.104702 557.58089 
L 346.655697 557.924584 
L 344.203377 558.243772 
L 341.747988 558.53842 
L 339.289776 558.808501 
L 336.84154 559.052797 
L 336.84154 559.052797 
Q 313.511044 312.854241 558.291995 277.635965 
z
" clip-path="url(#p2bdaecfb86)" style="fill: #0000ff; fill-opacity: 0.5; stroke: #808080; stroke-opacity: 0.5; stroke-width: 0.1"/>
    <path d="M 510.351354 163.148085 
L 510.351354 163.148085 
L 511.838549 165.123941 
L 513.305911 167.114569 
L 514.753294 169.119771 
L 516.180553 171.139347 
L 516.883003 172.149276 
L 516.883003 172.149276 
Q 313.511044 312.854241 336.84154 559.052797 
L 336.84154 559.052797 
L 336.84154 559.052797 
L 334.378429 559.273788 
L 331.913232 559.470138 
L 329.446194 559.641826 
L 326.977562 559.788835 
L 325.749024 559.852769 
L 325.749024 559.852769 
Q 313.511044 312.854241 510.351354 163.148085 
z
" clip-path="url(#p2bdaecfb86)" style="fill: #0000c8; fill-opacity: 0.5; stroke: #808080; stroke-opacity: 0.5; stroke-width: 0.1"/>
    <path d="M 406.795378 83.821331 
L 406.795378 83.821331 
L 408.264963 84.425399 
L 408.264963 84.425399 
Q 313.511044 312.854241 66.693658 297.387545 
L 66.693658 297.387545 
L 66.693658 297.387545 
L 66.798124 295.802091 
L 66.798124 295.802091 
Q 313.511044 312.854241 406.795378 83.821331 
z
" clip-path="url(#p2bdaecfb86)" style="fill: #000080; fill-opacity: 0.5; stroke: #808080; stroke-opacity: 0.5; stroke-width: 0.1"/>
    <path d="M 408.264963 84.425399 
L 408.264963 84.425399 
L 410.544476 85.384344 
L 412.814285 86.366036 
L 415.074164 87.370376 
L 417.323887 88.397264 
L 418.43916 88.916456 
L 418.43916 88.916456 
Q 313.511044 312.854241 325.749024 559.852769 
L 325.749024 559.852769 
L 325.749024 559.852769 
L 323.278468 559.962797 
L 320.806935 560.048114 
L 318.334673 560.108712 
L 315.861928 560.144585 
L 314.631758 560.15322 
L 314.631758 560.15322 
Q 313.511044 312.854241 408.264963 84.425399 
z
" clip-path="url(#p2bdaecfb86)" style="fill: #000080; fill-opacity: 0.5; stroke: #808080; stroke-opacity: 0.5; stroke-width: 0.1"/>
   </g>
   <g id="patch_19">
    <path d="M 313.511044 65.552723 
L 315.984018 65.565088 
L 318.456745 65.602182 
L 320.928977 65.664 
L 323.400467 65.750538 
L 325.870969 65.861785 
L 328.340234 65.997732 
L 330.808016 66.158364 
L 333.274069 66.343666 
L 335.738146 66.553618 
L 338.2 66.7882 
L 340.659385 67.047389 
L 343.116055 67.331158 
L 345.569764 67.639479 
L 348.020268 67.972322 
L 350.467321 68.329652 
L 352.910678 68.711435 
L 355.350096 69.117632 
L 357.785329 69.548202 
L 360.216136 70.003103 
L 362.642271 70.482289 
L 365.063494 70.985711 
L 367.479561 71.51332 
L 369.890232 72.065063 
L 372.295265 72.640885 
L 374.694419 73.240728 
L 377.087455 73.864532 
L 379.474133 74.512235 
L 381.854216 75.183772 
L 384.227464 75.879076 
L 386.59364 76.598077 
L 388.952508 77.340704 
L 391.303832 78.106881 
L 393.647377 78.896533 
L 395.982908 79.709581 
L 398.310192 80.545943 
L 400.628997 81.405536 
L 402.939089 82.288273 
L 405.240239 83.194067 
L 407.532216 84.122826 
L 409.814791 85.074459 
L 412.087736 86.048869 
L 414.350823 87.04596 
L 416.603826 88.065631 
L 418.43916 88.916456 
L 421.684359 81.990546 
L 419.792263 81.113406 
L 417.469579 80.062199 
L 415.1365 79.03427 
L 412.793258 78.029723 
L 410.440088 77.048659 
L 408.077225 76.091175 
L 405.704905 75.157367 
L 403.323367 74.247328 
L 400.932847 73.36115 
L 398.533585 72.498922 
L 396.12582 71.660728 
L 393.709795 70.846654 
L 391.285749 70.05678 
L 388.853926 69.291185 
L 386.414569 68.549947 
L 383.967922 67.833139 
L 381.514229 67.140833 
L 379.053736 66.473098 
L 376.586688 65.830001 
L 374.113333 65.211606 
L 371.633918 64.617976 
L 369.148691 64.049168 
L 366.657899 63.505241 
L 364.161794 62.986249 
L 361.660623 62.492243 
L 359.154637 62.023273 
L 356.644087 61.579386 
L 354.129224 61.160627 
L 351.610299 60.767036 
L 349.087564 60.398654 
L 346.561271 60.055518 
L 344.031674 59.737661 
L 341.499024 59.445115 
L 338.963576 59.177911 
L 336.425582 58.936073 
L 333.885297 58.719627 
L 331.342974 58.528595 
L 328.798869 58.362995 
L 326.253234 58.222844 
L 323.706326 58.108155 
L 321.158397 58.018941 
L 318.609705 57.955211 
L 316.060502 57.91697 
L 313.511044 57.904222 
L 313.511044 65.552723 
z
" clip-path="url(#p2bdaecfb86)" style="fill: none; stroke: #000000; stroke-width: 0.5; stroke-linejoin: miter"/>
   </g>
   <g id="patch_20">
    <path d="M 437.557341 98.913695 
L 439.690508 100.164834 
L 441.811058 101.437242 
L 443.918778 102.730792 
L 446.013457 104.045354 
L 448.094886 105.380796 
L 450.162857 106.736986 
L 452.217162 108.113787 
L 454.257597 109.511062 
L 456.283958 110.928671 
L 458.296042 112.366472 
L 460.293647 113.824323 
L 462.276574 115.302076 
L 464.244624 116.799584 
L 466.197601 118.316697 
L 468.13531 119.853264 
L 470.057557 121.409131 
L 471.964149 122.984142 
L 473.854895 124.57814 
L 475.729608 126.190965 
L 477.588099 127.822457 
L 479.430182 129.472452 
L 481.255673 131.140785 
L 483.06439 132.827289 
L 484.856152 134.531795 
L 486.63078 136.254134 
L 488.388096 137.994132 
L 490.127924 139.751616 
L 491.85009 141.526411 
L 493.554423 143.318338 
L 495.240752 145.127218 
L 496.908908 146.952871 
L 498.558724 148.795114 
L 500.190036 150.653763 
L 501.80268 152.528632 
L 503.396494 154.419533 
L 504.971321 156.326278 
L 506.527001 158.248675 
L 508.063381 160.186533 
L 509.580305 162.139657 
L 511.077622 164.107852 
L 512.555183 166.090923 
L 514.01284 168.088669 
L 515.450446 170.100892 
L 516.867859 172.12739 
L 516.883003 172.149276 
L 523.172858 167.797576 
L 523.157245 167.775013 
L 521.695995 165.68584 
L 520.213926 163.611383 
L 518.711187 161.551851 
L 517.187929 159.507449 
L 515.644303 157.478381 
L 514.080463 155.464851 
L 512.496567 153.46706 
L 510.892773 151.485207 
L 509.26924 149.519491 
L 507.626132 147.570108 
L 505.963613 145.637254 
L 504.281848 143.721121 
L 502.581007 141.821901 
L 500.861258 139.939785 
L 499.122775 138.074959 
L 497.365731 136.227612 
L 495.590301 134.397927 
L 493.796664 132.586087 
L 491.984998 130.792275 
L 490.155486 129.016668 
L 488.308308 127.259445 
L 486.443651 125.520781 
L 484.561702 123.80085 
L 482.662647 122.099825 
L 480.746677 120.417874 
L 478.813983 118.755168 
L 476.86476 117.111871 
L 474.899201 115.488148 
L 472.917504 113.884161 
L 470.919866 112.300072 
L 468.906487 110.736037 
L 466.877569 109.192215 
L 464.833315 107.668758 
L 462.773928 106.16582 
L 460.699615 104.68355 
L 458.610584 103.222097 
L 456.507042 101.781608 
L 454.389201 100.362225 
L 452.257273 98.964092 
L 450.11147 97.587347 
L 447.952007 96.232129 
L 445.7791 94.898572 
L 443.592966 93.586812 
L 441.393824 92.296977 
L 437.557341 98.913695 
z
" clip-path="url(#p2bdaecfb86)" style="fill: none; stroke: #000000; stroke-width: 0.5; stroke-linejoin: miter"/>
   </g>
   <g id="patch_21">
    <path d="M 528.372357 190.409735 
L 529.586039 192.564435 
L 530.778113 194.731163 
L 531.948461 196.909704 
L 533.096965 199.099839 
L 534.223511 201.301349 
L 535.327986 203.514014 
L 536.410279 205.737614 
L 537.470283 207.971925 
L 538.507891 210.216724 
L 539.522999 212.471787 
L 540.515506 214.736888 
L 541.485313 217.0118 
L 542.432323 219.296297 
L 543.356441 221.59015 
L 544.257575 223.893128 
L 545.135634 226.205003 
L 545.99053 228.525543 
L 546.822179 230.854515 
L 547.630498 233.191688 
L 548.415404 235.536826 
L 549.17682 237.889697 
L 549.91467 240.250063 
L 550.628879 242.61769 
L 551.319378 244.992341 
L 551.986095 247.373778 
L 552.628965 249.761763 
L 553.247923 252.156057 
L 553.842908 254.55642 
L 554.41386 256.962614 
L 554.960722 259.374396 
L 555.483439 261.791527 
L 555.98196 264.213764 
L 556.456233 266.640864 
L 556.906212 269.072586 
L 557.331851 271.508687 
L 557.733109 273.948921 
L 558.109945 276.393046 
L 558.462321 278.840818 
L 558.790202 281.29199 
L 559.093555 283.746319 
L 559.372351 286.203559 
L 559.62656 288.663463 
L 559.856158 291.125787 
L 560.061122 293.590283 
L 560.241431 296.056706 
L 560.397067 298.524809 
L 560.466002 299.766466 
L 568.103784 299.361689 
L 568.032717 298.081631 
L 567.872268 295.537195 
L 567.686382 292.994491 
L 567.475079 290.453773 
L 567.23838 287.915295 
L 566.976309 285.379311 
L 566.688891 282.846074 
L 566.376155 280.315838 
L 566.038133 277.788856 
L 565.674859 275.265381 
L 565.286369 272.745664 
L 564.872701 270.229958 
L 564.433897 267.718515 
L 563.970002 265.211585 
L 563.48106 262.709419 
L 562.967122 260.212268 
L 562.428238 257.720381 
L 561.864463 255.234007 
L 561.275853 252.753395 
L 560.662466 250.278793 
L 560.024365 247.810449 
L 559.361612 245.348609 
L 558.674274 242.893519 
L 557.962421 240.445426 
L 557.226122 238.004573 
L 556.465452 235.571206 
L 555.680487 233.145566 
L 554.871305 230.727898 
L 554.037988 228.318441 
L 553.180618 225.917439 
L 552.299281 223.52513 
L 551.394065 221.141754 
L 550.465062 218.767549 
L 549.512363 216.402752 
L 548.536064 214.047601 
L 547.536263 211.70233 
L 546.513059 209.367175 
L 545.466556 207.042368 
L 544.396857 204.728142 
L 543.30407 202.424728 
L 542.188304 200.132358 
L 541.04967 197.851259 
L 539.888282 195.581661 
L 538.704257 193.32379 
L 537.497713 191.077872 
L 536.268771 188.844131 
L 535.017552 186.622792 
L 528.372357 190.409735 
z
" clip-path="url(#p2bdaecfb86)" style="fill: none; stroke: #000000; stroke-width: 0.5; stroke-linejoin: miter"/>
   </g>
   <g id="patch_22">
    <path d="M 560.666938 321.339811 
L 560.569726 323.810905 
L 560.447809 326.280903 
L 560.301198 328.749558 
L 560.129908 331.216623 
L 559.933956 333.681853 
L 559.713362 336.145 
L 559.468149 338.605817 
L 559.198339 341.06406 
L 558.903962 343.519481 
L 558.585045 345.971836 
L 558.241621 348.420879 
L 557.873724 350.866366 
L 557.481391 353.308052 
L 557.064661 355.745692 
L 556.894726 356.699702 
L 564.422056 358.055747 
L 564.597247 357.072231 
L 565.026866 354.5592 
L 565.431333 352.041999 
L 565.810608 349.520879 
L 566.164653 346.996092 
L 566.493433 344.467891 
L 566.796916 341.936528 
L 567.075069 339.402258 
L 567.327867 336.865332 
L 567.555283 334.326006 
L 567.757295 331.784532 
L 567.933883 329.241166 
L 568.085028 326.69616 
L 568.210716 324.149771 
L 568.310935 321.602252 
L 560.666938 321.339811 
z
" clip-path="url(#p2bdaecfb86)" style="fill: none; stroke: #000000; stroke-width: 0.5; stroke-linejoin: miter"/>
   </g>
   <g id="patch_23">
    <path d="M 552.147194 377.745142 
L 551.486364 380.128219 
L 550.801737 382.504569 
L 550.09338 384.873954 
L 549.361366 387.236137 
L 549.05014 388.21587 
L 556.334854 390.546642 
L 556.655706 389.536608 
L 557.41036 387.101368 
L 558.140624 384.658703 
L 558.846425 382.208858 
L 559.527693 379.752077 
L 552.147194 377.745142 
z
" clip-path="url(#p2bdaecfb86)" style="fill: none; stroke: #000000; stroke-width: 0.5; stroke-linejoin: miter"/>
   </g>
   <g id="patch_24">
    <path d="M 541.585644 408.457681 
L 540.618222 410.733609 
L 539.628089 412.999749 
L 538.615345 415.255875 
L 537.580091 417.50176 
L 536.52243 419.737181 
L 535.442468 421.961914 
L 534.340313 424.175736 
L 533.216075 426.378425 
L 532.069867 428.569763 
L 530.901803 430.749529 
L 529.712 432.917506 
L 528.500578 435.073476 
L 527.267656 437.217225 
L 526.013359 439.348537 
L 524.737813 441.4672 
L 523.441143 443.573002 
L 522.123481 445.665732 
L 520.784958 447.745181 
L 519.425707 449.811141 
L 518.045865 451.863406 
L 516.64557 453.90177 
L 515.224962 455.926029 
L 513.784182 457.935981 
L 512.323375 459.931425 
L 510.842687 461.912161 
L 509.342267 463.877992 
L 507.822263 465.82872 
L 506.282828 467.764151 
L 504.724116 469.684092 
L 503.146283 471.588349 
L 501.549487 473.476733 
L 499.933887 475.349055 
L 498.299645 477.205128 
L 496.646924 479.044766 
L 494.97589 480.867784 
L 493.286709 482.674002 
L 491.579551 484.463238 
L 489.854586 486.235313 
L 488.111988 487.99005 
L 486.351929 489.727273 
L 484.574586 491.44681 
L 482.780137 493.148487 
L 480.968761 494.832135 
L 479.14064 496.497586 
L 477.295955 498.144672 
L 475.434893 499.773229 
L 473.557638 501.383095 
L 471.664378 502.974108 
L 469.755304 504.546109 
L 467.830605 506.098941 
L 465.890474 507.632449 
L 463.935106 509.146479 
L 461.964695 510.64088 
L 459.979439 512.115502 
L 457.979536 513.570199 
L 455.965187 515.004824 
L 453.936592 516.419234 
L 451.893955 517.813288 
L 449.837479 519.186846 
L 447.767371 520.539772 
L 445.683838 521.871928 
L 443.587087 523.183183 
L 441.477329 524.473406 
L 439.354775 525.742466 
L 437.219636 526.990238 
L 435.072126 528.216597 
L 432.91246 529.42142 
L 430.740855 530.604586 
L 428.557526 531.765977 
L 426.362693 532.905477 
L 424.156575 534.022972 
L 421.939392 535.118351 
L 419.711367 536.191503 
L 417.472721 537.242322 
L 415.22368 538.270702 
L 412.964467 539.27654 
L 410.695309 540.259737 
L 408.416433 541.220193 
L 406.128066 542.157813 
L 403.830438 543.072503 
L 401.523778 543.964171 
L 399.208316 544.832728 
L 396.884285 545.678088 
L 394.551917 546.500165 
L 392.211445 547.298878 
L 389.863102 548.074147 
L 387.507125 548.825894 
L 385.143748 549.554044 
L 382.773208 550.258524 
L 380.395742 550.939264 
L 378.011587 551.596196 
L 375.620982 552.229254 
L 373.224166 552.838374 
L 370.821379 553.423496 
L 368.412861 553.984561 
L 365.998853 554.521514 
L 363.579597 555.0343 
L 361.155333 555.522868 
L 358.726305 555.98717 
L 356.292755 556.427159 
L 353.854928 556.84279 
L 351.413066 557.234023 
L 348.967414 557.600818 
L 346.518216 557.943138 
L 344.065717 558.26095 
L 341.610163 558.554222 
L 339.1518 558.822923 
L 336.690872 559.067028 
L 334.227626 559.286512 
L 331.762308 559.481353 
L 329.295166 559.651531 
L 326.826445 559.79703 
L 324.356392 559.917835 
L 321.885255 560.013933 
L 319.413281 560.085316 
L 316.940716 560.131976 
L 314.631758 560.15322 
L 314.666419 567.801642 
L 317.046789 567.779741 
L 319.595824 567.731638 
L 322.144252 567.658048 
L 324.691816 567.558977 
L 327.238261 567.434436 
L 329.783335 567.284437 
L 332.326781 567.108996 
L 334.868345 566.908129 
L 337.407774 566.681857 
L 339.944813 566.430202 
L 342.479208 566.15319 
L 345.010707 565.850848 
L 347.539056 565.523207 
L 350.064002 565.1703 
L 352.585293 564.79216 
L 355.102677 564.388828 
L 357.615901 563.960342 
L 360.124715 563.506745 
L 362.628868 563.028084 
L 365.128108 562.524405 
L 367.622188 561.99576 
L 370.110856 561.4422 
L 372.593864 560.863782 
L 375.070964 560.260564 
L 377.541908 559.632604 
L 380.006449 558.979968 
L 382.46434 558.302718 
L 384.915337 557.600925 
L 387.359193 556.874656 
L 389.795664 556.123986 
L 392.224506 555.348989 
L 394.645478 554.549743 
L 397.058336 553.726328 
L 399.462839 552.878825 
L 401.858748 552.007321 
L 404.245821 551.111901 
L 406.623821 550.192655 
L 408.99251 549.249676 
L 411.351651 548.283058 
L 413.701008 547.292897 
L 416.040346 546.279292 
L 418.369431 545.242345 
L 420.688031 544.182159 
L 422.995913 543.098841 
L 425.292846 541.992498 
L 427.578601 540.863242 
L 429.85295 539.711185 
L 432.115665 538.536443 
L 434.366519 537.339132 
L 436.605288 536.119373 
L 438.831747 534.877288 
L 441.045675 533.613001 
L 443.246849 532.326638 
L 445.435049 531.018328 
L 447.610058 529.688202 
L 449.771656 528.336393 
L 451.919629 526.963035 
L 454.053761 525.568267 
L 456.173839 524.152228 
L 458.27965 522.715059 
L 460.370985 521.256904 
L 462.447634 519.777909 
L 464.509389 518.278222 
L 466.556045 516.757992 
L 468.587396 515.217373 
L 470.60324 513.656517 
L 472.603375 512.075581 
L 474.587601 510.474724 
L 476.555719 508.854104 
L 478.507533 507.213884 
L 480.442847 505.554229 
L 482.361468 503.875304 
L 484.263204 502.177277 
L 486.147866 500.460318 
L 488.015263 498.724598 
L 489.865211 496.970291 
L 491.697523 495.197573 
L 493.512017 493.406621 
L 495.30851 491.597614 
L 497.086825 489.770733 
L 498.846781 487.92616 
L 500.588205 486.06408 
L 502.31092 484.184679 
L 504.014756 482.288145 
L 505.699542 480.374668 
L 507.365109 478.444439 
L 509.011291 476.497651 
L 510.637923 474.534499 
L 512.244842 472.555179 
L 513.831888 470.55989 
L 515.398902 468.548829 
L 516.945728 466.5222 
L 518.47221 464.480203 
L 519.978197 462.423045 
L 521.463536 460.350929 
L 522.928081 458.264064 
L 524.371684 456.162658 
L 525.794202 454.046922 
L 527.195491 451.917066 
L 528.575412 449.773304 
L 529.933827 447.61585 
L 531.270599 445.44492 
L 532.585596 443.260732 
L 533.878686 441.063502 
L 535.149739 438.853452 
L 536.398628 436.630802 
L 537.625228 434.395775 
L 538.829418 432.148593 
L 540.011076 429.889483 
L 541.170084 427.618668 
L 542.306326 425.336378 
L 543.419689 423.042839 
L 544.510061 420.738281 
L 545.577334 418.422936 
L 546.6214 416.097033 
L 547.642155 413.760806 
L 548.639498 411.414489 
L 541.585644 408.457681 
z
" clip-path="url(#p2bdaecfb86)" style="fill: none; stroke: #000000; stroke-width: 0.5; stroke-linejoin: miter"/>
   </g>
   <g id="patch_25">
    <path d="M 293.073967 559.309849 
L 290.610474 559.093159 
L 288.149271 558.851846 
L 287.034786 558.734392 
L 286.215932 566.338933 
L 287.364886 566.460019 
L 289.902209 566.708796 
L 292.441893 566.932188 
L 293.073967 559.309849 
z
" clip-path="url(#p2bdaecfb86)" style="fill: none; stroke: #000000; stroke-width: 0.5; stroke-linejoin: miter"/>
   </g>
   <g id="patch_26">
    <path d="M 265.705669 555.491186 
L 263.28173 555.001008 
L 260.862814 554.486616 
L 258.449163 553.948061 
L 256.041018 553.385397 
L 253.63862 552.79868 
L 251.242209 552.187969 
L 248.852025 551.553324 
L 246.468307 550.89481 
L 244.091293 550.212492 
L 241.721221 549.506438 
L 239.358328 548.776719 
L 237.00285 548.023408 
L 234.655023 547.246581 
L 232.315082 546.446314 
L 229.98326 545.622689 
L 227.65979 544.775786 
L 225.344906 543.905692 
L 223.038838 543.012493 
L 220.741818 542.096278 
L 218.454074 541.157139 
L 216.175836 540.195171 
L 213.907331 539.210468 
L 211.648787 538.203129 
L 209.400429 537.173256 
L 207.162481 536.120952 
L 204.935169 535.046321 
L 202.718714 533.949471 
L 200.513338 532.830511 
L 198.319262 531.689554 
L 196.136705 530.526714 
L 193.965885 529.342106 
L 191.807019 528.13585 
L 189.660324 526.908066 
L 187.526014 525.658877 
L 185.404303 524.388408 
L 183.295401 523.096785 
L 181.199522 521.784138 
L 179.116873 520.450599 
L 177.047664 519.0963 
L 174.992101 517.721377 
L 172.950389 516.325967 
L 170.922734 514.91021 
L 168.909337 513.474248 
L 166.910401 512.018225 
L 164.926124 510.542284 
L 162.956706 509.046576 
L 161.002343 507.531248 
L 159.06323 505.996452 
L 157.139563 504.442343 
L 155.231532 502.869075 
L 153.33933 501.276806 
L 151.463144 499.665694 
L 149.603163 498.035902 
L 147.759572 496.387591 
L 145.932557 494.720927 
L 144.122299 493.036077 
L 142.32898 491.333209 
L 140.552779 489.612493 
L 138.793874 487.874101 
L 137.052441 486.118208 
L 135.328653 484.344988 
L 133.622683 482.554619 
L 131.934702 480.747281 
L 130.264878 478.923153 
L 129.002654 477.519644 
L 123.296209 482.612388 
L 124.597471 484.059305 
L 126.318938 485.939849 
L 128.059125 487.803085 
L 129.817857 489.648826 
L 131.594958 491.476887 
L 133.39025 493.287087 
L 135.203555 495.079243 
L 137.03469 496.853177 
L 138.883472 498.608711 
L 140.749717 500.34567 
L 142.633238 502.06388 
L 144.533847 503.763169 
L 146.451353 505.443368 
L 148.385565 507.104308 
L 150.33629 508.745822 
L 152.303332 510.367748 
L 154.286494 511.969923 
L 156.285579 513.552186 
L 158.300386 515.11438 
L 160.330714 516.656348 
L 162.37636 518.177935 
L 164.43712 519.678991 
L 166.512786 521.159364 
L 168.603153 522.618907 
L 170.70801 524.057474 
L 172.827147 525.47492 
L 174.960352 526.871105 
L 177.107413 528.245888 
L 179.268113 529.599132 
L 181.442238 530.930702 
L 183.62957 532.240464 
L 185.82989 533.528288 
L 188.042977 534.794045 
L 190.268612 536.037607 
L 192.50657 537.258852 
L 194.756629 538.457657 
L 197.018563 539.633901 
L 199.292147 540.787467 
L 201.577152 541.918241 
L 203.87335 543.026108 
L 206.180513 544.110958 
L 208.498408 545.172683 
L 210.826804 546.211176 
L 213.165469 547.226333 
L 215.514168 548.218054 
L 217.872666 549.186238 
L 220.240729 550.130789 
L 222.618118 551.051613 
L 225.004597 551.948618 
L 227.399926 552.821713 
L 229.803866 553.670811 
L 232.216177 554.495828 
L 234.636618 555.296682 
L 237.064945 556.073291 
L 239.500917 556.825578 
L 241.944291 557.553469 
L 244.39482 558.256889 
L 246.852262 558.93577 
L 249.316369 559.590043 
L 251.786896 560.219642 
L 254.263595 560.824505 
L 256.746218 561.404571 
L 259.234518 561.959783 
L 261.728246 562.490084 
L 264.227152 562.995421 
L 265.705669 555.491186 
z
" clip-path="url(#p2bdaecfb86)" style="fill: none; stroke: #000000; stroke-width: 0.5; stroke-linejoin: miter"/>
   </g>
   <g id="patch_27">
    <path d="M 115.353228 460.812076 
L 113.883582 458.823133 
L 112.433899 456.819594 
L 111.004323 454.801657 
L 109.594998 452.769527 
L 108.206064 450.723404 
L 106.837661 448.663495 
L 105.489924 446.590006 
L 104.16299 444.503142 
L 102.85699 442.403114 
L 101.572056 440.290132 
L 100.308315 438.164405 
L 99.065894 436.026148 
L 97.844918 433.875574 
L 96.645508 431.712897 
L 95.467784 429.538335 
L 94.311865 427.352105 
L 93.177865 425.154425 
L 92.065899 422.945515 
L 90.976077 420.725596 
L 89.908508 418.49489 
L 88.863299 416.25362 
L 87.840555 414.00201 
L 86.840377 411.740285 
L 85.862867 409.468672 
L 84.908121 407.187397 
L 83.976235 404.89669 
L 83.067302 402.596778 
L 82.181414 400.287892 
L 81.318659 397.970262 
L 80.479122 395.644121 
L 79.662889 393.309701 
L 78.87004 390.967236 
L 78.100655 388.616959 
L 77.354811 386.259107 
L 76.632582 383.893914 
L 75.934041 381.521616 
L 75.259257 379.142453 
L 74.608299 376.75666 
L 73.98123 374.364477 
L 73.378114 371.966144 
L 73.098854 370.819918 
L 65.663425 372.612671 
L 65.951323 373.794347 
L 66.573092 376.266856 
L 67.219554 378.733024 
L 67.890645 381.192604 
L 68.586298 383.64535 
L 69.306444 386.091017 
L 70.05101 388.52936 
L 70.819921 390.960136 
L 71.613101 393.383102 
L 72.430471 395.798015 
L 73.271949 398.204633 
L 74.137451 400.602716 
L 75.02689 402.992025 
L 75.940176 405.37232 
L 76.87722 407.743363 
L 77.837927 410.104918 
L 78.822201 412.456747 
L 79.829944 414.798616 
L 80.861055 417.130291 
L 81.91543 419.451538 
L 82.992965 421.762126 
L 84.093552 424.061823 
L 85.21708 426.3504 
L 86.363437 428.627626 
L 87.532509 430.893276 
L 88.724178 433.147122 
L 89.938326 435.388938 
L 91.174832 437.618502 
L 92.43357 439.835588 
L 93.714416 442.039977 
L 95.017242 444.231448 
L 96.341917 446.409781 
L 97.688308 448.574758 
L 99.056282 450.726163 
L 100.445701 452.863782 
L 101.856426 454.987399 
L 103.288316 457.096804 
L 104.741229 459.191784 
L 106.215018 461.27213 
L 107.709537 463.337635 
L 109.224636 465.388092 
L 115.353228 460.812076 
z
" clip-path="url(#p2bdaecfb86)" style="fill: none; stroke: #000000; stroke-width: 0.5; stroke-linejoin: miter"/>
   </g>
   <g id="patch_28">
    <path d="M 68.961653 349.646038 
L 68.605969 347.198745 
L 68.274775 344.748018 
L 67.968104 342.294102 
L 67.685987 339.837241 
L 67.428453 337.377682 
L 67.195527 334.915671 
L 66.987232 332.451454 
L 66.803589 329.985277 
L 66.644617 327.517387 
L 66.523346 325.308881 
L 58.884552 325.694076 
L 59.009572 327.970887 
L 59.173461 330.515103 
L 59.362784 333.057554 
L 59.577521 335.597984 
L 59.817651 338.136139 
L 60.08315 340.671767 
L 60.373992 343.204613 
L 60.690148 345.734424 
L 61.031585 348.260946 
L 61.39827 350.783929 
L 68.961653 349.646038 
z
" clip-path="url(#p2bdaecfb86)" style="fill: none; stroke: #000000; stroke-width: 0.5; stroke-linejoin: miter"/>
   </g>
   <g id="patch_29">
    <path d="M 66.377716 303.735091 
L 66.481262 301.264255 
L 66.609512 298.794578 
L 66.762451 296.326306 
L 66.798124 295.802091 
L 59.167827 295.274705 
L 59.131051 295.815133 
L 58.973382 298.359743 
L 58.841166 300.905802 
L 58.734417 303.453055 
L 66.377716 303.735091 
z
" clip-path="url(#p2bdaecfb86)" style="fill: none; stroke: #000000; stroke-width: 0.5; stroke-linejoin: miter"/>
   </g>
   <g id="patch_30">
    <path d="M 69.223134 274.364532 
L 69.620239 271.923618 
L 70.041732 269.486797 
L 70.150351 268.881363 
L 62.623732 267.521377 
L 62.511754 268.145536 
L 62.077224 270.657722 
L 61.667837 273.174129 
L 69.223134 274.364532 
z
" clip-path="url(#p2bdaecfb86)" style="fill: none; stroke: #000000; stroke-width: 0.5; stroke-linejoin: miter"/>
   </g>
   <g id="patch_31">
    <path d="M 74.908901 247.838411 
L 75.570978 245.45568 
L 76.25685 243.079689 
L 76.966446 240.710675 
L 77.699697 238.348876 
L 78.456529 235.994527 
L 79.236866 233.647864 
L 80.04063 231.309121 
L 80.867741 228.978533 
L 81.718116 226.656333 
L 82.59167 224.342752 
L 83.488316 222.038022 
L 84.407964 219.742374 
L 85.350523 217.456037 
L 86.315897 215.17924 
L 87.30399 212.91221 
L 88.314704 210.655174 
L 89.347937 208.408358 
L 90.403587 206.171987 
L 91.481547 203.946283 
L 92.58171 201.731471 
L 93.703965 199.52777 
L 94.848201 197.335402 
L 96.014304 195.154586 
L 97.202155 192.98554 
L 98.411638 190.828481 
L 99.64263 188.683624 
L 100.895009 186.551184 
L 102.168649 184.431374 
L 103.463423 182.324406 
L 104.779202 180.230491 
L 106.115854 178.149839 
L 107.438688 176.134729 
L 101.065316 171.90629 
L 99.70157 173.983723 
L 98.323578 176.128726 
L 96.967105 178.287401 
L 95.632286 180.459532 
L 94.319255 182.644903 
L 93.028143 184.843295 
L 91.759079 187.054488 
L 90.51219 189.278261 
L 89.2876 191.514391 
L 88.085433 193.762655 
L 86.905808 196.022828 
L 85.748844 198.294684 
L 84.614655 200.577996 
L 83.503356 202.872535 
L 82.415058 205.178073 
L 81.349869 207.494378 
L 80.307896 209.821219 
L 79.289243 212.158363 
L 78.294012 214.505577 
L 77.322302 216.862626 
L 76.374211 219.229273 
L 75.449834 221.605283 
L 74.549263 223.990418 
L 73.672587 226.384439 
L 72.819895 228.787107 
L 71.991273 231.198182 
L 71.186801 233.617422 
L 70.406563 236.044586 
L 69.650634 238.479431 
L 68.919091 240.921713 
L 68.212007 243.371188 
L 67.529453 245.827612 
L 74.908901 247.838411 
z
" clip-path="url(#p2bdaecfb86)" style="fill: none; stroke: #000000; stroke-width: 0.5; stroke-linejoin: miter"/>
   </g>
   <g id="patch_32">
    <path d="M 120.138746 158.694599 
L 121.689986 156.768616 
L 123.260407 154.858241 
L 124.849853 152.963667 
L 126.458165 151.085081 
L 128.085182 149.222671 
L 129.730742 147.376625 
L 131.394679 145.547127 
L 133.076828 143.734359 
L 134.777021 141.938502 
L 136.495086 140.159738 
L 138.230853 138.398242 
L 139.984148 136.654192 
L 141.754795 134.927762 
L 143.542618 133.219125 
L 145.347438 131.52845 
L 147.169074 129.855908 
L 149.007344 128.201666 
L 150.862064 126.565889 
L 152.733048 124.948741 
L 154.620111 123.350383 
L 156.523062 121.770975 
L 158.441713 120.210676 
L 160.37587 118.66964 
L 162.32534 117.148023 
L 164.289929 115.645977 
L 166.269439 114.163651 
L 168.263674 112.701194 
L 170.272434 111.258752 
L 172.295517 109.836469 
L 174.332721 108.434488 
L 176.383844 107.052949 
L 178.448679 105.69199 
L 180.52702 104.351747 
L 182.618659 103.032354 
L 184.723388 101.733943 
L 186.840995 100.456644 
L 188.971269 99.200584 
L 191.113997 97.96589 
L 193.268964 96.752684 
L 194.519082 96.06182 
L 190.838918 89.3569 
L 189.550137 90.06913 
L 187.328521 91.319858 
L 185.119523 92.592739 
L 182.923364 93.887646 
L 180.740264 95.204449 
L 178.570441 96.543017 
L 176.414112 97.903216 
L 174.271492 99.28491 
L 172.142796 100.687961 
L 170.028237 102.112228 
L 167.928026 103.557569 
L 165.842374 105.02384 
L 163.771488 106.510893 
L 161.715575 108.018581 
L 159.674843 109.546752 
L 157.649493 111.095254 
L 155.63973 112.663931 
L 153.645754 114.252627 
L 151.667764 115.861183 
L 149.705958 117.489439 
L 147.760533 119.137231 
L 145.831683 120.804394 
L 143.9196 122.490762 
L 142.024477 124.196166 
L 140.146502 125.920436 
L 138.285863 127.663399 
L 136.442747 129.424881 
L 134.617337 131.204706 
L 132.809816 133.002696 
L 131.020366 134.818671 
L 129.249164 136.652449 
L 127.496389 138.503847 
L 125.762215 140.37268 
L 124.046815 142.258761 
L 122.350362 144.161901 
L 120.673024 146.081911 
L 119.014971 148.018597 
L 117.376367 149.971767 
L 115.757376 151.941225 
L 114.15816 153.926775 
L 120.138746 158.694599 
z
" clip-path="url(#p2bdaecfb86)" style="fill: none; stroke: #000000; stroke-width: 0.5; stroke-linejoin: miter"/>
   </g>
   <g id="patch_33">
    <path d="M 213.866587 86.515948 
L 216.134914 85.530837 
L 218.412979 84.568458 
L 220.700554 83.628907 
L 222.997409 82.712279 
L 225.303316 81.818665 
L 227.618044 80.948154 
L 229.941361 80.100833 
L 232.273034 79.276788 
L 232.495928 79.199385 
L 229.990306 71.972946 
L 229.760519 72.052743 
L 227.356731 72.902274 
L 224.961559 73.775801 
L 222.575242 74.673234 
L 220.198018 75.594486 
L 217.830126 76.539464 
L 215.471802 77.508073 
L 213.123281 78.500216 
L 210.784799 79.515795 
L 213.866587 86.515948 
z
" clip-path="url(#p2bdaecfb86)" style="fill: none; stroke: #000000; stroke-width: 0.5; stroke-linejoin: miter"/>
   </g>
   <g id="patch_34">
    <path d="M 253.168578 73.02758 
L 255.569821 72.436156 
L 257.976859 71.868774 
L 260.38945 71.325491 
L 261.834637 71.012165 
L 260.236398 63.532513 
L 258.746515 63.85553 
L 256.259307 64.415616 
L 253.777825 65.000545 
L 251.302316 65.61026 
L 253.168578 73.02758 
z
" clip-path="url(#p2bdaecfb86)" style="fill: none; stroke: #000000; stroke-width: 0.5; stroke-linejoin: miter"/>
   </g>
   <g id="patch_35">
    <path d="M 283.109207 67.428551 
L 285.564943 67.136809 
L 288.023474 66.869639 
L 290.484553 66.627066 
L 291.957297 66.49378 
L 291.290686 58.874384 
L 289.772394 59.011793 
L 287.235199 59.261867 
L 284.700631 59.537301 
L 282.168944 59.838066 
L 283.109207 67.428551 
z
" clip-path="url(#p2bdaecfb86)" style="fill: none; stroke: #000000; stroke-width: 0.5; stroke-linejoin: miter"/>
   </g>
   <g id="text_1">
    <text style="font: 10px 'DejaVu Sans', 'Bitstream Vera Sans', 'Computer Modern Sans Serif', 'Lucida Grande', 'Verdana', 'Geneva', 'Lucid', 'Arial', 'Helvetica', 'Avant Garde', sans-serif; text-anchor: middle" x="372.144837" y="49.525891" transform="rotate(-347.447064 372.144837 49.525891)">CA1v</text>
   </g>
   <g id="text_2">
    <text style="font: 10px 'DejaVu Sans', 'Bitstream Vera Sans', 'Computer Modern Sans Serif', 'Lucida Grande', 'Verdana', 'Geneva', 'Lucid', 'Arial', 'Helvetica', 'Avant Garde', sans-serif; text-anchor: middle" x="496.511601" y="114.635832" transform="rotate(-317.285972 496.511601 114.635832)">CA1d</text>
   </g>
   <g id="text_3">
    <text style="font: 10px 'DejaVu Sans', 'Bitstream Vera Sans', 'Computer Modern Sans Serif', 'Lucida Grande', 'Verdana', 'Geneva', 'Lucid', 'Arial', 'Helvetica', 'Avant Garde', sans-serif; text-anchor: middle" x="572.370863" y="236.884935" transform="rotate(-286.355731 572.370863 236.884935)">SUBv</text>
   </g>
   <g id="text_4">
    <text style="font: 10px 'DejaVu Sans', 'Bitstream Vera Sans', 'Computer Modern Sans Serif', 'Lucida Grande', 'Verdana', 'Geneva', 'Lucid', 'Arial', 'Helvetica', 'Avant Garde', sans-serif; text-anchor: middle" x="587.253711" y="342.057259" transform="rotate(-83.910685 587.253711 342.057259)">SUBd</text>
   </g>
   <g id="text_5">
    <text style="font: 10px 'DejaVu Sans', 'Bitstream Vera Sans', 'Computer Modern Sans Serif', 'Lucida Grande', 'Verdana', 'Geneva', 'Lucid', 'Arial', 'Helvetica', 'Avant Garde', sans-serif; text-anchor: middle" x="577.501236" y="390.937803" transform="rotate(-73.522728 577.501236 390.937803)">POST</text>
   </g>
   <g id="text_6">
    <text style="font: 10px 'DejaVu Sans', 'Bitstream Vera Sans', 'Computer Modern Sans Serif', 'Lucida Grande', 'Verdana', 'Geneva', 'Lucid', 'Arial', 'Helvetica', 'Avant Garde', sans-serif; text-anchor: middle" x="466.492002" y="541.731262" transform="rotate(-33.758691 466.492002 541.731262)">VTA</text>
   </g>
   <g id="text_7">
    <text style="font: 10px 'DejaVu Sans', 'Bitstream Vera Sans', 'Computer Modern Sans Serif', 'Lucida Grande', 'Verdana', 'Geneva', 'Lucid', 'Arial', 'Helvetica', 'Avant Garde', sans-serif; text-anchor: middle" x="287.397126" y="586.908848" transform="rotate(-354.556875 287.397126 586.908848)">VRA</text>
   </g>
   <g id="text_8">
    <text style="font: 10px 'DejaVu Sans', 'Bitstream Vera Sans', 'Computer Modern Sans Serif', 'Lucida Grande', 'Verdana', 'Geneva', 'Lucid', 'Arial', 'Helvetica', 'Avant Garde', sans-serif; text-anchor: middle" x="177.11655" y="551.986853" transform="rotate(-330.300785 177.11655 551.986853)">RAP</text>
   </g>
   <g id="text_9">
    <text style="font: 10px 'DejaVu Sans', 'Bitstream Vera Sans', 'Computer Modern Sans Serif', 'Lucida Grande', 'Verdana', 'Geneva', 'Lucid', 'Arial', 'Helvetica', 'Avant Garde', sans-serif; text-anchor: middle" x="64.316989" y="429.859313" transform="rotate(-295.15165 64.316989 429.859313)">SN</text>
   </g>
   <g id="text_10">
    <text style="font: 10px 'DejaVu Sans', 'Bitstream Vera Sans', 'Computer Modern Sans Serif', 'Lucida Grande', 'Verdana', 'Geneva', 'Lucid', 'Arial', 'Helvetica', 'Avant Garde', sans-serif; text-anchor: middle" x="39.58645" y="340.298376" transform="rotate(-275.721295 39.58645 340.298376)">RET</text>
   </g>
   <g id="text_11">
    <text style="font: 10px 'DejaVu Sans', 'Bitstream Vera Sans', 'Computer Modern Sans Serif', 'Lucida Grande', 'Verdana', 'Geneva', 'Lucid', 'Arial', 'Helvetica', 'Avant Garde', sans-serif; text-anchor: middle" x="44.111869" y="298.577476" transform="rotate(-86.966457 44.111869 298.577476)">PAG</text>
   </g>
   <g id="text_12">
    <text style="font: 10px 'DejaVu Sans', 'Bitstream Vera Sans', 'Computer Modern Sans Serif', 'Lucida Grande', 'Verdana', 'Geneva', 'Lucid', 'Arial', 'Helvetica', 'Avant Garde', sans-serif; text-anchor: middle" x="47.510262" y="267.872849" transform="rotate(-80.401942 47.510262 267.872849)">OMA</text>
   </g>
   <g id="text_13">
    <text style="font: 10px 'DejaVu Sans', 'Bitstream Vera Sans', 'Computer Modern Sans Serif', 'Lucida Grande', 'Verdana', 'Geneva', 'Lucid', 'Arial', 'Helvetica', 'Avant Garde', sans-serif; text-anchor: middle" x="67.833931" y="201.397981" transform="rotate(-65.597644 67.833931 201.397981)">DG</text>
   </g>
   <g id="text_14">
    <text style="font: 10px 'DejaVu Sans', 'Bitstream Vera Sans', 'Computer Modern Sans Serif', 'Lucida Grande', 'Verdana', 'Geneva', 'Lucid', 'Arial', 'Helvetica', 'Avant Garde', sans-serif; text-anchor: middle" x="139.743248" y="106.494132" transform="rotate(-40.099423 139.743248 106.494132)">CA3</text>
   </g>
   <g id="text_15">
    <text style="font: 10px 'DejaVu Sans', 'Bitstream Vera Sans', 'Computer Modern Sans Serif', 'Lucida Grande', 'Verdana', 'Geneva', 'Lucid', 'Arial', 'Helvetica', 'Avant Garde', sans-serif; text-anchor: middle" x="214.89097" y="61.749039" transform="rotate(-21.442123 214.89097 61.749039)">CA2</text>
   </g>
   <g id="text_16">
    <text style="font: 10px 'DejaVu Sans', 'Bitstream Vera Sans', 'Computer Modern Sans Serif', 'Lucida Grande', 'Verdana', 'Geneva', 'Lucid', 'Arial', 'Helvetica', 'Avant Garde', sans-serif; text-anchor: middle" x="252.401372" y="50.089423" transform="rotate(-13.092219 252.401372 50.089423)">PAR</text>
   </g>
   <g id="text_17">
    <text style="font: 10px 'DejaVu Sans', 'Bitstream Vera Sans', 'Computer Modern Sans Serif', 'Lucida Grande', 'Verdana', 'Geneva', 'Lucid', 'Arial', 'Helvetica', 'Avant Garde', sans-serif; text-anchor: middle" x="285.167707" y="44.57007" transform="rotate(-6.03074 285.167707 44.57007)">PRE</text>
   </g>
  </g>
 </g>
 <defs>
  <clipPath id="p2bdaecfb86">
   <path d="M 581.208564 312.854241 
C 581.208564 277.700525 574.284048 242.888634 560.831303 210.410836 
C 547.378559 177.933037 527.659207 148.420941 502.801776 123.56351 
C 477.944345 98.706079 448.432249 78.986727 415.95445 65.533982 
C 383.476651 52.081237 348.66476 45.156721 313.511044 45.156721 
C 278.357328 45.156721 243.545437 52.081237 211.067638 65.533982 
C 178.58984 78.986727 149.077744 98.706079 124.220313 123.56351 
C 99.362882 148.420941 79.64353 177.933037 66.190785 210.410836 
C 52.73804 242.888634 45.813524 277.700525 45.813524 312.854241 
C 45.813524 348.007957 52.73804 382.819848 66.190785 415.297647 
C 79.64353 447.775446 99.362882 477.287542 124.220313 502.144973 
C 149.077744 527.002404 178.58984 546.721756 211.067638 560.174501 
C 243.545437 573.627245 278.357328 580.551761 313.511044 580.551761 
C 348.66476 580.551761 383.476651 573.627245 415.95445 560.174501 
C 448.432249 546.721756 477.944345 527.002404 502.801776 502.144973 
C 527.659207 477.287542 547.378559 447.775446 560.831303 415.297647 
C 574.284048 382.819848 581.208564 348.007957 581.208564 312.854241 
M 313.511044 312.854241 
C 313.511044 312.854241 313.511044 312.854241 313.511044 312.854241 
C 313.511044 312.854241 313.511044 312.854241 313.511044 312.854241 
C 313.511044 312.854241 313.511044 312.854241 313.511044 312.854241 
C 313.511044 312.854241 313.511044 312.854241 313.511044 312.854241 
C 313.511044 312.854241 313.511044 312.854241 313.511044 312.854241 
C 313.511044 312.854241 313.511044 312.854241 313.511044 312.854241 
C 313.511044 312.854241 313.511044 312.854241 313.511044 312.854241 
C 313.511044 312.854241 313.511044 312.854241 313.511044 312.854241 
C 313.511044 312.854241 313.511044 312.854241 313.511044 312.854241 
C 313.511044 312.854241 313.511044 312.854241 313.511044 312.854241 
C 313.511044 312.854241 313.511044 312.854241 313.511044 312.854241 
C 313.511044 312.854241 313.511044 312.854241 313.511044 312.854241 
C 313.511044 312.854241 313.511044 312.854241 313.511044 312.854241 
C 313.511044 312.854241 313.511044 312.854241 313.511044 312.854241 
C 313.511044 312.854241 313.511044 312.854241 313.511044 312.854241 
C 313.511044 312.854241 313.511044 312.854241 313.511044 312.854241 
z
"/>
  </clipPath>
 </defs>
</svg>
