<?xml version="1.0" encoding="utf-8" standalone="no"?>
<!DOCTYPE svg PUBLIC "-//W3C//DTD SVG 1.1//EN"
  "http://www.w3.org/Graphics/SVG/1.1/DTD/svg11.dtd">
<svg xmlns:xlink="http://www.w3.org/1999/xlink" width="627.218051pt" height="625.873579pt" viewBox="0 0 627.218051 625.873579" xmlns="http://www.w3.org/2000/svg" version="1.1">
 <metadata>
  <rdf:RDF xmlns:dc="http://purl.org/dc/elements/1.1/" xmlns:cc="http://creativecommons.org/ns#" xmlns:rdf="http://www.w3.org/1999/02/22-rdf-syntax-ns#">
   <cc:Work>
    <dc:type rdf:resource="http://purl.org/dc/dcmitype/StillImage"/>
    <dc:date>2024-12-19T10:18:28.692382</dc:date>
    <dc:format>image/svg+xml</dc:format>
    <dc:creator>
     <cc:Agent>
      <dc:title>Matplotlib v3.9.3, https://matplotlib.org/</dc:title>
     </cc:Agent>
    </dc:creator>
   </cc:Work>
  </rdf:RDF>
 </metadata>
 <defs>
  <style type="text/css">*{stroke-linejoin: round; stroke-linecap: butt}</style>
 </defs>
 <g id="figure_1">
  <g id="patch_1">
   <path d="M 0 625.873579 
L 627.218051 625.873579 
L 627.218051 0 
L 0 0 
z
" style="fill: #ffffff"/>
  </g>
  <g id="axes_1">
   <g id="patch_2">
    <path d="M 313.515754 65.211952 
L 315.989882 65.224323 
L 318.463764 65.261434 
L 320.93715 65.323281 
L 323.409794 65.409859 
L 325.881449 65.521159 
L 328.351867 65.657169 
L 330.820802 65.817876 
L 333.288006 66.003264 
L 335.753233 66.213315 
L 338.216236 66.448006 
L 340.67677 66.707316 
L 343.134587 66.991218 
L 345.589442 67.299683 
L 348.04109 67.632681 
L 350.489286 67.990178 
L 352.933784 68.372139 
L 355.37434 68.778525 
L 357.810711 69.209297 
L 360.242652 69.66441 
L 362.66992 70.143819 
L 365.092273 70.647477 
L 367.509469 71.175332 
L 369.921265 71.727333 
L 372.32742 72.303424 
L 374.727695 72.903547 
L 377.121848 73.527642 
L 379.509641 74.175647 
L 381.890834 74.847498 
L 384.26519 75.543126 
L 386.632471 76.262463 
L 388.992441 77.005436 
L 391.344863 77.771972 
L 393.689502 78.561992 
L 396.026124 79.37542 
L 398.354494 80.212172 
L 400.674381 81.072166 
L 402.985553 81.955316 
L 405.287777 82.861532 
L 407.580824 83.790726 
L 407.915116 83.928423 
L 410.834683 76.855212 
L 410.490053 76.713255 
L 408.126087 75.755324 
L 405.75266 74.82108 
L 403.370009 73.910617 
L 400.978373 73.024025 
L 398.577991 72.161394 
L 396.169102 71.322809 
L 393.751949 70.508354 
L 391.326771 69.718112 
L 388.893813 68.95216 
L 386.453317 68.210575 
L 384.005528 67.493433 
L 381.550689 66.800803 
L 379.089047 66.132757 
L 376.620848 65.489359 
L 374.146338 64.870676 
L 371.665765 64.276768 
L 369.179377 63.707695 
L 366.687423 63.163514 
L 364.190152 62.644279 
L 361.687813 62.150043 
L 359.180658 61.680854 
L 356.668935 61.23676 
L 354.152898 60.817805 
L 351.632797 60.424031 
L 349.108884 60.055477 
L 346.581412 59.71218 
L 344.050633 59.394175 
L 341.516801 59.101493 
L 338.980169 58.834163 
L 336.44099 58.592213 
L 333.899519 58.375666 
L 331.35601 58.184544 
L 328.810716 58.018867 
L 326.263893 57.87865 
L 323.715795 57.763908 
L 321.166678 57.674653 
L 318.616795 57.610892 
L 316.066402 57.572634 
L 313.515754 57.55988 
z
" clip-path="url(#p11bebcaefa)" style="fill: #000080"/>
   </g>
   <g id="patch_3">
    <path d="M 427.48846 93.026144 
L 429.678753 94.176833 
L 431.857429 95.349366 
L 434.024272 96.543627 
L 436.179064 97.759496 
L 438.321589 98.996852 
L 440.451634 100.255571 
L 442.568986 101.535527 
L 444.673432 102.836593 
L 446.764762 104.158637 
L 448.842768 105.501528 
L 450.907241 106.865132 
L 452.957976 108.249312 
L 454.994766 109.65393 
L 457.017408 111.078845 
L 459.0257 112.523915 
L 461.019442 113.988996 
L 462.998433 115.47394 
L 464.962476 116.9786 
L 466.911374 118.502824 
L 468.844933 120.046461 
L 470.76296 121.609356 
L 472.665261 123.191353 
L 474.551648 124.792293 
L 476.421932 126.412017 
L 478.275924 128.050362 
L 480.113441 129.707165 
L 481.934299 131.38226 
L 483.738314 133.07548 
L 485.525308 134.786655 
L 487.295101 136.515614 
L 489.047516 138.262184 
L 490.782378 140.02619 
L 492.499513 141.807457 
L 494.19875 143.605806 
L 495.879919 145.421057 
L 497.542852 147.253029 
L 499.187382 149.101538 
L 500.813345 150.966399 
L 502.420579 152.847427 
L 504.008922 154.744433 
L 505.578216 156.657227 
L 507.128304 158.585618 
L 508.659031 160.529413 
L 510.170244 162.488418 
L 510.548187 162.984745 
L 516.641973 158.356574 
L 516.252342 157.844897 
L 514.694391 155.825304 
L 513.116322 153.821392 
L 511.518293 151.83336 
L 509.900464 149.861407 
L 508.262996 147.905731 
L 506.606054 145.966527 
L 504.929804 144.043989 
L 503.234412 142.13831 
L 501.520048 140.249679 
L 499.786884 138.378287 
L 498.035093 136.524319 
L 496.264851 134.687961 
L 494.476333 132.869398 
L 492.66972 131.06881 
L 490.845191 129.286378 
L 489.00293 127.52228 
L 487.14312 125.776693 
L 485.265947 124.049791 
L 483.3716 122.341747 
L 481.460267 120.652731 
L 479.53214 118.982912 
L 477.587411 117.332458 
L 475.626275 115.701534 
L 473.648929 114.090302 
L 471.655569 112.498924 
L 469.646395 110.927558 
L 467.621609 109.376363 
L 465.581412 107.845493 
L 463.526008 106.3351 
L 461.455604 104.845337 
L 459.370405 103.376353 
L 457.270622 101.928293 
L 455.156463 100.501303 
L 453.02814 99.095526 
L 450.885866 97.711102 
L 448.729855 96.34817 
L 446.560323 95.006865 
L 444.377486 93.687323 
L 442.181563 92.389674 
L 439.972774 91.114049 
L 437.75134 89.860576 
L 435.517481 88.629379 
L 433.271423 87.420582 
L 431.013389 86.234306 
z
" clip-path="url(#p11bebcaefa)" style="fill: #0000c8"/>
   </g>
   <g id="patch_4">
    <path d="M 522.840769 180.726694 
L 524.149303 182.826504 
L 525.436774 184.939295 
L 526.703054 187.064854 
L 527.948014 189.20297 
L 529.171532 191.353428 
L 530.373484 193.516013 
L 531.55375 195.69051 
L 532.712213 197.876701 
L 533.848757 200.074366 
L 534.963267 202.283287 
L 536.055633 204.503243 
L 537.125745 206.734011 
L 538.173496 208.975368 
L 539.198782 211.22709 
L 540.201499 213.488953 
L 541.181548 215.76073 
L 542.138831 218.042193 
L 543.073252 220.333115 
L 543.984717 222.633267 
L 544.873135 224.942418 
L 545.738418 227.260337 
L 546.580478 229.586793 
L 547.399233 231.921554 
L 548.194599 234.264385 
L 548.966498 236.615053 
L 549.714851 238.973321 
L 550.439585 241.338956 
L 551.140627 243.711719 
L 551.817907 246.091374 
L 552.471356 248.477683 
L 553.10091 250.870407 
L 553.706506 253.269306 
L 554.288083 255.674141 
L 554.845583 258.084672 
L 555.37895 260.500658 
L 555.888131 262.921856 
L 556.373075 265.348024 
L 556.833734 267.778921 
L 557.27006 270.214303 
L 557.682012 272.653926 
L 558.069547 275.097547 
L 558.432627 277.54492 
L 558.771216 279.995802 
L 559.085279 282.449948 
L 559.374786 284.907111 
L 559.628097 287.254196 
L 567.239819 286.46941 
L 566.978673 284.049735 
L 566.680213 281.516577 
L 566.356436 278.98653 
L 566.007376 276.459848 
L 565.633067 273.936782 
L 565.233546 271.417586 
L 564.808853 268.90251 
L 564.359032 266.391807 
L 563.884126 263.885728 
L 563.384184 261.384523 
L 562.859255 258.888443 
L 562.309392 256.397736 
L 561.73465 253.912653 
L 561.135086 251.433441 
L 560.510761 248.960349 
L 559.861736 246.493623 
L 559.188076 244.033511 
L 558.48985 241.580259 
L 557.767127 239.134111 
L 557.019978 236.695313 
L 556.248479 234.264108 
L 555.452708 231.840739 
L 554.632743 229.425449 
L 553.788666 227.01848 
L 552.920562 224.620071 
L 552.028518 222.230463 
L 551.112623 219.849895 
L 550.172968 217.478605 
L 549.209648 215.11683 
L 548.222758 212.764806 
L 547.212399 210.422768 
L 546.178669 208.090951 
L 545.121674 205.769587 
L 544.041518 203.45891 
L 542.93831 201.159149 
L 541.812159 198.870535 
L 540.66318 196.593297 
L 539.491485 194.327662 
L 538.297194 192.073858 
L 537.080424 189.832108 
L 535.841298 187.602639 
L 534.57994 185.385672 
L 533.296475 183.181429 
L 531.991033 180.990131 
L 530.663743 178.811996 
L 529.314739 176.647243 
z
" clip-path="url(#p11bebcaefa)" style="fill: #0000ff"/>
   </g>
   <g id="patch_5">
    <path d="M 560.90312 308.800859 
L 560.92903 311.274883 
L 560.9302 313.749042 
L 560.906629 316.223089 
L 560.858318 318.696777 
L 560.785274 321.169858 
L 560.687503 323.642085 
L 560.590446 325.638905 
L 568.231931 326.041276 
L 568.33199 323.982698 
L 568.432785 321.43401 
L 568.508088 318.884442 
L 568.557893 316.334248 
L 568.582193 313.783684 
L 568.580988 311.233005 
L 568.554275 308.682465 
z
" clip-path="url(#p11bebcaefa)" style="fill: #0040ff"/>
   </g>
   <g id="patch_6">
    <path d="M 558.516359 347.123377 
L 558.15917 349.571617 
L 557.777517 352.016164 
L 557.371438 354.456771 
L 556.940974 356.893196 
L 556.486168 359.325195 
L 556.007065 361.752523 
L 555.503713 364.17494 
L 554.976162 366.592202 
L 554.424465 369.004068 
L 553.848678 371.410296 
L 553.723502 371.919748 
L 561.152608 373.753485 
L 561.281655 373.228276 
L 561.87525 370.747628 
L 562.444009 368.261169 
L 562.987876 365.769146 
L 563.506796 363.27181 
L 564.000717 360.769409 
L 564.469589 358.262194 
L 564.913367 355.750416 
L 565.332005 353.234325 
L 565.725461 350.714175 
L 566.093697 348.190215 
z
" clip-path="url(#p11bebcaefa)" style="fill: #0080ff"/>
   </g>
   <g id="patch_7">
    <path d="M 547.641904 392.629613 
L 546.830204 394.966836 
L 545.995173 397.295825 
L 545.136895 399.616347 
L 544.255454 401.92817 
L 543.35094 404.231064 
L 542.423442 406.524797 
L 541.473054 408.809141 
L 540.49987 411.083867 
L 539.503988 413.348748 
L 538.485507 415.603557 
L 537.44453 417.848068 
L 536.38116 420.082058 
L 535.295503 422.305302 
L 534.187669 424.517579 
L 533.057768 426.718667 
L 531.905912 428.908346 
L 530.732218 431.086397 
L 529.536802 433.252603 
L 528.319785 435.406746 
L 527.081287 437.548612 
L 525.821433 439.677985 
L 524.540348 441.794654 
L 523.238162 443.898407 
L 521.915003 445.989033 
L 520.571004 448.066322 
L 519.2063 450.130069 
L 517.821027 452.180065 
L 516.415324 454.216106 
L 514.989331 456.237989 
L 513.543191 458.24551 
L 512.077048 460.238471 
L 510.591049 462.21667 
L 509.085343 464.179911 
L 507.56008 466.127997 
L 506.015413 468.060733 
L 504.451496 469.977926 
L 502.868486 471.879384 
L 501.26654 473.764917 
L 499.64582 475.634337 
L 498.006486 477.487456 
L 496.348704 479.32409 
L 494.672639 481.144055 
L 492.978458 482.947168 
L 491.266331 484.733249 
L 490.831818 485.180886 
L 496.31582 490.517544 
L 496.763772 490.056063 
L 498.528851 488.214742 
L 500.275429 486.355862 
L 502.003332 484.479611 
L 503.712385 482.586174 
L 505.40242 480.675741 
L 507.073266 478.748504 
L 508.724756 476.804656 
L 510.356725 474.844389 
L 511.969011 472.867902 
L 513.561451 470.87539 
L 515.133887 468.867054 
L 516.686162 466.843095 
L 518.218119 464.803714 
L 519.729606 462.749116 
L 521.220473 460.679506 
L 522.690568 458.595091 
L 524.139747 456.496079 
L 525.567863 454.382681 
L 526.974775 452.255108 
L 528.36034 450.113572 
L 529.724422 447.958288 
L 531.066882 445.78947 
L 532.387588 443.607337 
L 533.686407 441.412107 
L 534.963209 439.203998 
L 536.217866 436.983231 
L 537.450253 434.75003 
L 538.660247 432.504616 
L 539.847727 430.247215 
L 541.012573 427.978052 
L 542.154671 425.697354 
L 543.273904 423.40535 
L 544.370162 421.102268 
L 545.443335 418.788339 
L 546.493315 416.463794 
L 547.519997 414.128865 
L 548.52328 411.783787 
L 549.503061 409.428793 
L 550.459245 407.064119 
L 551.391734 404.690002 
L 552.300435 402.306679 
L 553.185259 399.914388 
L 554.046115 397.513369 
L 554.882919 395.103861 
z
" clip-path="url(#p11bebcaefa)" style="fill: #00c0ff"/>
   </g>
   <g id="patch_8">
    <path d="M 475.118184 499.978387 
L 473.23664 501.585017 
L 471.339125 503.172751 
L 469.425828 504.741432 
L 467.496939 506.290901 
L 465.552653 507.821004 
L 463.593163 509.331588 
L 461.618665 510.822502 
L 459.629358 512.293597 
L 457.625439 513.744726 
L 455.607109 515.175743 
L 455.177324 515.476567 
L 459.55861 521.750206 
L 460.001687 521.440077 
L 462.082439 519.964802 
L 464.148335 518.468793 
L 466.199168 516.9522 
L 468.234732 515.415175 
L 470.254825 513.857872 
L 472.259244 512.280446 
L 474.247789 510.683055 
L 476.22026 509.065859 
L 478.176462 507.429019 
L 480.116197 505.7727 
z
" clip-path="url(#p11bebcaefa)" style="fill: #16ffe1"/>
   </g>
   <g id="patch_9">
    <path d="M 436.958923 527.05129 
L 434.808563 528.27498 
L 432.646074 529.477106 
L 430.471672 530.657547 
L 428.285574 531.816185 
L 426.088 532.952905 
L 423.879168 534.067593 
L 421.6593 535.160137 
L 419.428618 536.230428 
L 417.187345 537.278359 
L 414.935705 538.303825 
L 412.673922 539.306724 
L 410.402224 540.286955 
L 408.120838 541.244421 
L 405.829991 542.179025 
L 403.529912 543.090675 
L 401.220833 543.979279 
L 398.902983 544.844747 
L 396.576594 545.686995 
L 394.241899 546.505936 
L 391.899132 547.301491 
L 389.548526 548.073578 
L 387.190317 548.822121 
L 384.824741 549.547045 
L 382.452034 550.248277 
L 380.072434 550.925747 
L 377.686177 551.579388 
L 375.293504 552.209134 
L 372.894653 552.814923 
L 370.489864 553.396693 
L 368.079378 553.954386 
L 365.663436 554.487947 
L 363.242279 554.997322 
L 360.816149 555.482461 
L 358.385289 555.943314 
L 355.949942 556.379837 
L 353.510352 556.791984 
L 351.066763 557.179715 
L 348.619418 557.542992 
L 346.168563 557.881777 
L 343.714443 558.196037 
L 341.257303 558.48574 
L 338.797389 558.750859 
L 336.334946 558.991365 
L 333.870222 559.207235 
L 331.403463 559.398447 
L 328.934914 559.564983 
L 326.464824 559.706825 
L 323.993439 559.82396 
L 321.521006 559.916376 
L 319.047772 559.984062 
L 316.573986 560.027014 
L 314.099893 560.045226 
L 311.625742 560.038697 
L 309.15178 560.007427 
L 306.678255 559.951419 
L 304.205413 559.870679 
L 301.733502 559.765215 
L 299.26277 559.635038 
L 296.793463 559.48016 
L 294.325828 559.300597 
L 291.860112 559.096368 
L 289.396561 558.867492 
L 286.935423 558.613992 
L 284.476942 558.335894 
L 282.021365 558.033226 
L 279.568938 557.706017 
L 277.119905 557.354301 
L 274.674512 556.978112 
L 272.233003 556.577489 
L 269.795622 556.152471 
L 267.362614 555.703101 
L 264.93422 555.229423 
L 262.510685 554.731486 
L 260.09225 554.209339 
L 257.679157 553.663034 
L 255.271648 553.092626 
L 252.869963 552.498171 
L 250.474343 551.87973 
L 248.085027 551.237364 
L 245.702254 550.571137 
L 243.326263 549.881117 
L 240.95729 549.167371 
L 238.595573 548.429971 
L 236.241348 547.668992 
L 233.89485 546.884509 
L 231.556314 546.076601 
L 229.225974 545.245348 
L 226.904063 544.390833 
L 224.590814 543.513143 
L 222.286456 542.612364 
L 219.991222 541.688587 
L 217.705339 540.741905 
L 215.429038 539.772411 
L 213.162546 538.780203 
L 210.906088 537.76538 
L 208.659892 536.728044 
L 206.424181 535.668298 
L 204.199179 534.586248 
L 201.985108 533.482003 
L 199.782191 532.355672 
L 197.590647 531.207369 
L 195.410695 530.037209 
L 193.242554 528.845308 
L 191.08644 527.631785 
L 188.942569 526.396762 
L 186.811154 525.140363 
L 184.692411 523.862712 
L 182.586549 522.563939 
L 180.493781 521.244172 
L 178.414314 519.903544 
L 176.348358 518.542188 
L 174.296118 517.160241 
L 172.2578 515.757842 
L 170.233607 514.335129 
L 168.223743 512.892247 
L 166.228408 511.429338 
L 164.247801 509.946549 
L 162.282121 508.444028 
L 160.331564 506.921927 
L 158.396326 505.380396 
L 156.476599 503.81959 
L 154.572577 502.239665 
L 153.542707 501.371582 
L 148.595087 507.208983 
L 149.656808 508.103914 
L 151.619718 509.732703 
L 153.598818 511.341781 
L 155.593909 512.930988 
L 157.604792 514.500165 
L 159.631266 516.049156 
L 161.673129 517.577804 
L 163.730176 519.085957 
L 165.802201 520.573465 
L 167.888997 522.040179 
L 169.990356 523.485952 
L 172.106067 524.910639 
L 174.235919 526.314099 
L 176.379699 527.69619 
L 178.537192 529.056774 
L 180.708184 530.395716 
L 182.892456 531.712881 
L 185.08979 533.008138 
L 187.299966 534.281358 
L 189.522764 535.532412 
L 191.757961 536.761176 
L 194.005334 537.967527 
L 196.264658 539.151345 
L 198.535707 540.31251 
L 200.818254 541.450907 
L 203.11207 542.566422 
L 205.416927 543.658944 
L 207.732593 544.728363 
L 210.058838 545.774572 
L 212.395428 546.797467 
L 214.742131 547.796945 
L 217.09871 548.772906 
L 219.464932 549.725254 
L 221.840558 550.653891 
L 224.225351 551.558727 
L 226.619074 552.43967 
L 229.021486 553.296632 
L 231.432348 554.129527 
L 233.851417 554.938272 
L 236.278454 555.722787 
L 238.713213 556.482993 
L 241.155454 557.218813 
L 243.60493 557.930175 
L 246.061397 558.617006 
L 248.524609 559.279239 
L 250.99432 559.916807 
L 253.470284 560.529647 
L 255.952252 561.117697 
L 258.439976 561.680898 
L 260.933208 562.219194 
L 263.431698 562.732531 
L 265.935197 563.220858 
L 268.443453 563.684127 
L 270.956217 564.122289 
L 273.473237 564.535303 
L 275.994261 564.923126 
L 278.519036 565.28572 
L 281.047312 565.623049 
L 283.578834 565.935078 
L 286.113351 566.221777 
L 288.650607 566.483117 
L 291.19035 566.719072 
L 293.732325 566.929618 
L 296.276278 567.114734 
L 298.821956 567.274402 
L 301.369103 567.408605 
L 303.917465 567.517331 
L 306.466786 567.600568 
L 309.016812 567.658308 
L 311.567288 567.690545 
L 314.117959 567.697276 
L 316.66857 567.678501 
L 319.218866 567.634221 
L 321.768591 567.564441 
L 324.317491 567.469167 
L 326.865311 567.34841 
L 329.411796 567.20218 
L 331.956691 567.030494 
L 334.499742 566.833368 
L 337.040695 566.610821 
L 339.579295 566.362877 
L 342.115289 566.089559 
L 344.648423 565.790896 
L 347.178444 565.466916 
L 349.705098 565.117653 
L 352.228134 564.743141 
L 354.747299 564.343418 
L 357.26234 563.918524 
L 359.773007 563.468501 
L 362.279048 562.993395 
L 364.780212 562.493252 
L 367.276251 561.968123 
L 369.766913 561.41806 
L 372.25195 560.843118 
L 374.731114 560.243355 
L 377.204156 559.618831 
L 379.67083 558.969608 
L 382.130888 558.295752 
L 384.584084 557.597329 
L 387.030174 556.874409 
L 389.468912 556.127065 
L 391.900055 555.355371 
L 394.32336 554.559405 
L 396.738584 553.739246 
L 399.145486 552.894976 
L 401.543825 552.02668 
L 403.933361 551.134444 
L 406.313855 550.218358 
L 408.68507 549.278513 
L 411.046768 548.315003 
L 413.398713 547.327925 
L 415.74067 546.317377 
L 418.072404 545.283461 
L 420.393683 544.226279 
L 422.704274 543.145938 
L 425.003946 542.042545 
L 427.29247 540.916211 
L 429.569615 539.767049 
L 431.835156 538.595173 
L 434.088865 537.4007 
L 436.330516 536.183751 
L 438.559887 534.944446 
L 440.776753 533.68291 
z
" clip-path="url(#p11bebcaefa)" style="fill: #49ffad"/>
   </g>
   <g id="patch_10">
    <path d="M 137.701447 486.710789 
L 135.969448 484.943972 
L 134.255204 483.159923 
L 132.558885 481.35882 
L 130.880662 479.540845 
L 129.220703 477.706179 
L 127.579172 475.855006 
L 125.956236 473.98751 
L 124.352055 472.103878 
L 122.76679 470.204299 
L 121.2006 468.288962 
L 119.653641 466.35806 
L 118.126069 464.411785 
L 116.618035 462.450331 
L 115.129691 460.473896 
L 113.661185 458.482676 
L 112.212664 456.476871 
L 110.784274 454.456682 
L 109.376157 452.422309 
L 107.988453 450.373958 
L 106.621302 448.311832 
L 105.27484 446.236138 
L 103.949203 444.147083 
L 102.644521 442.044876 
L 101.360927 439.929728 
L 100.098548 437.801851 
L 98.85751 435.661455 
L 97.637938 433.508757 
L 96.439954 431.343971 
L 95.263677 429.167314 
L 94.109225 426.979002 
L 93.38629 425.581057 
L 86.578162 429.074421 
L 87.323456 430.515602 
L 88.513613 432.771593 
L 89.72627 435.01557 
L 90.961305 437.247308 
L 92.218596 439.466585 
L 93.498016 441.673178 
L 94.799437 443.866866 
L 96.122731 446.047431 
L 97.467763 448.214654 
L 98.8344 450.368319 
L 100.222505 452.50821 
L 101.631939 454.634113 
L 103.062561 456.745816 
L 104.514228 458.843107 
L 105.986796 460.925776 
L 107.480116 462.993617 
L 108.994039 465.046421 
L 110.528415 467.083983 
L 112.083089 469.1061 
L 113.657906 471.112569 
L 115.252709 473.10319 
L 116.867337 475.077764 
L 118.501631 477.036093 
L 120.155426 478.977981 
L 121.828556 480.903235 
L 123.520856 482.811661 
L 125.232154 484.70307 
L 126.962281 486.577271 
L 128.711063 488.434077 
L 130.478325 490.273303 
L 132.263891 492.094764 
z
" clip-path="url(#p11bebcaefa)" style="fill: #7dff7a"/>
   </g>
   <g id="patch_11">
    <path d="M 84.379523 405.965693 
L 83.457628 403.669702 
L 82.558738 401.364607 
L 81.682944 399.050638 
L 80.830333 396.728028 
L 80.00099 394.397008 
L 79.194998 392.05781 
L 78.412439 389.710671 
L 77.653389 387.355823 
L 76.917926 384.993502 
L 76.206122 382.623945 
L 75.518049 380.247388 
L 74.853775 377.86407 
L 74.213368 375.474228 
L 73.596891 373.078102 
L 73.004405 370.675931 
L 72.43597 368.267955 
L 71.891643 365.854416 
L 71.371478 363.435554 
L 71.010939 361.685817 
L 63.51079 363.20304 
L 63.88248 365.006892 
L 64.418732 367.500565 
L 64.979894 369.98875 
L 65.565909 372.471199 
L 66.176719 374.947664 
L 66.812263 377.417897 
L 67.472477 379.881652 
L 68.157295 382.338681 
L 68.866649 384.788739 
L 69.600467 387.231581 
L 70.358677 389.666963 
L 71.141202 392.094642 
L 71.947965 394.514374 
L 72.778884 396.925917 
L 73.633876 399.329031 
L 74.512857 401.723475 
L 75.415737 404.109009 
L 76.342428 406.485396 
L 77.292835 408.852397 
z
" clip-path="url(#p11bebcaefa)" style="fill: #b1ff46"/>
   </g>
   <g id="patch_12">
    <path d="M 67.658154 340.363453 
L 67.393106 337.903532 
L 67.152671 335.441082 
L 66.936871 332.976352 
L 66.745729 330.509587 
L 66.579264 328.041034 
L 66.437492 325.57094 
L 66.320428 323.099551 
L 66.228083 320.627115 
L 66.190507 319.365782 
L 58.541272 319.574138 
L 58.580011 320.874482 
L 58.675212 323.423384 
L 58.795896 325.971208 
L 58.942053 328.517697 
L 59.113666 331.062597 
L 59.31072 333.605654 
L 59.533194 336.146613 
L 59.781066 338.68522 
L 60.054311 341.221222 
z
" clip-path="url(#p11bebcaefa)" style="fill: #e4ff13"/>
   </g>
   <g id="patch_13">
    <path d="M 66.544499 297.784331 
L 66.705291 295.315401 
L 66.890764 292.848204 
L 67.100899 290.382984 
L 67.335676 287.919989 
L 67.59507 285.459464 
L 67.624012 285.198763 
L 60.019113 284.350408 
L 59.989275 284.619172 
L 59.721859 287.155795 
L 59.479821 289.694965 
L 59.263187 292.236429 
L 59.071978 294.779931 
L 58.906213 297.325219 
z
" clip-path="url(#p11bebcaefa)" style="fill: #ffd000"/>
   </g>
   <g id="patch_14">
    <path d="M 70.950401 263.872266 
L 71.450088 261.449091 
L 71.973981 259.031033 
L 72.522028 256.618336 
L 73.094174 254.211239 
L 73.690363 251.809984 
L 74.310533 249.414811 
L 74.954624 247.02596 
L 75.622571 244.643668 
L 76.314307 242.268175 
L 77.029762 239.899718 
L 77.768867 237.538534 
L 78.531545 235.184859 
L 79.317722 232.838929 
L 80.127319 230.500977 
L 80.960254 228.171238 
L 81.816445 225.849944 
L 82.695805 223.537329 
L 83.598247 221.233622 
L 84.523681 218.939055 
L 85.472013 216.653857 
L 86.44315 214.378256 
L 87.436994 212.112481 
L 88.453446 209.856757 
L 89.492403 207.61131 
L 90.553763 205.376364 
L 91.637419 203.152144 
L 92.743263 200.938871 
L 93.871183 198.736768 
L 95.021068 196.546053 
L 96.192802 194.366947 
L 97.386268 192.199667 
L 98.601347 190.044429 
L 99.837917 187.90145 
L 101.095855 185.770944 
L 101.146755 185.685753 
L 94.578641 181.759676 
L 94.526168 181.847501 
L 93.229325 184.043899 
L 91.95451 186.253156 
L 90.701851 188.47505 
L 89.471474 190.70936 
L 88.2635 192.955861 
L 87.078052 195.21433 
L 85.915247 197.48454 
L 84.775203 199.766264 
L 83.658032 202.059274 
L 82.563846 204.363342 
L 81.492756 206.678236 
L 80.444868 209.003724 
L 79.420286 211.339576 
L 78.419114 213.685556 
L 77.441452 216.04143 
L 76.487396 218.406963 
L 75.557044 220.781918 
L 74.650487 223.166058 
L 73.767816 225.559144 
L 72.90912 227.960937 
L 72.074484 230.371196 
L 71.263992 232.789682 
L 70.477726 235.216151 
L 69.715763 237.650361 
L 68.978179 240.092069 
L 68.26505 242.541031 
L 67.576445 244.997002 
L 66.912433 247.459735 
L 66.273082 249.928986 
L 65.658455 252.404506 
L 65.068614 254.886049 
L 64.503617 257.373366 
L 63.963521 259.866209 
L 63.44838 262.364328 
z
" clip-path="url(#p11bebcaefa)" style="fill: #ff9400"/>
   </g>
   <g id="patch_15">
    <path d="M 113.01871 167.659633 
L 114.478404 165.661944 
L 115.958001 163.678952 
L 117.457353 161.710855 
L 118.976312 159.757849 
L 120.514724 157.820131 
L 122.072436 155.897893 
L 123.649293 153.991328 
L 125.245136 152.100627 
L 126.859805 150.225979 
L 128.493141 148.36757 
L 130.144978 146.525588 
L 131.815152 144.700216 
L 133.503496 142.891637 
L 135.209842 141.100031 
L 136.934017 139.325578 
L 138.675851 137.568455 
L 140.435168 135.828838 
L 142.211794 134.106901 
L 144.00555 132.402816 
L 145.816256 130.716753 
L 147.643733 129.048882 
L 149.487796 127.399368 
L 151.348262 125.768377 
L 153.224945 124.156072 
L 155.117657 122.562615 
L 157.026208 120.988163 
L 158.950408 119.432876 
L 160.890065 117.896908 
L 162.844984 116.380413 
L 164.81497 114.883543 
L 166.799826 113.406447 
L 168.799353 111.949273 
L 170.813352 110.512167 
L 172.841621 109.095273 
L 174.883957 107.698731 
L 176.940157 106.322683 
L 179.010014 104.967265 
L 179.933605 104.371947 
L 175.802198 97.93101 
L 174.850042 98.544739 
L 172.716169 99.942077 
L 170.596376 101.360684 
L 168.490875 102.800417 
L 166.399876 104.261133 
L 164.323588 105.742686 
L 162.26222 107.244927 
L 160.215976 108.767706 
L 158.185063 110.310871 
L 156.169683 111.874268 
L 154.170037 113.45774 
L 152.186325 115.061129 
L 150.218746 116.684275 
L 148.267497 118.327015 
L 146.332773 119.989185 
L 144.414766 121.670619 
L 142.51367 123.371148 
L 140.629674 125.090603 
L 138.762966 126.828812 
L 136.913733 128.585601 
L 135.082161 130.360794 
L 133.268431 132.154213 
L 131.472726 133.96568 
L 129.695226 135.795013 
L 127.936107 137.642029 
L 126.195546 139.506544 
L 124.473717 141.388371 
L 122.770792 143.287322 
L 121.086941 145.203207 
L 119.422333 147.135834 
L 117.777134 149.085011 
L 116.151509 151.050541 
L 114.54562 153.03223 
L 112.959628 155.029878 
L 111.393692 157.043285 
L 109.847967 159.072251 
L 108.322609 161.116573 
L 106.81777 163.176046 
z
" clip-path="url(#p11bebcaefa)" style="fill: #ff5900"/>
   </g>
   <g id="patch_16">
    <path d="M 198.592718 93.521977 
L 200.789497 92.383721 
L 202.997549 91.267489 
L 205.216652 90.173393 
L 207.446585 89.101543 
L 209.687125 88.052045 
L 211.938048 87.025005 
L 214.199129 86.020525 
L 216.470141 85.038706 
L 217.63217 84.546709 
L 214.666699 77.492619 
L 213.46873 77.999833 
L 211.12748 79.012018 
L 208.79647 80.047564 
L 206.475931 81.106368 
L 204.166096 82.188325 
L 201.867195 83.293325 
L 199.57946 84.421259 
L 197.303118 85.572013 
L 195.038397 86.745473 
z
" clip-path="url(#p11bebcaefa)" style="fill: #ff1e00"/>
   </g>
   <g id="patch_17">
    <path d="M 237.875712 77.057826 
L 240.235166 76.313216 
L 242.601948 75.592238 
L 244.975821 74.894964 
L 247.356548 74.221462 
L 249.743891 73.571802 
L 252.137611 72.946046 
L 254.076284 72.457927 
L 252.23795 65.029958 
L 250.239318 65.533174 
L 247.771565 66.178282 
L 245.310387 66.848036 
L 242.856029 67.542367 
L 240.408737 68.261206 
L 237.968756 69.004483 
L 235.536329 69.772121 
z
" clip-path="url(#p11bebcaefa)" style="fill: #c40000"/>
   </g>
   <g id="patch_18">
    <path d="M 275.234751 68.191359 
L 277.681 67.820778 
L 280.130833 67.474676 
L 282.584004 67.15309 
L 285.040268 66.856052 
L 287.499379 66.58359 
L 289.961093 66.335733 
L 291.951943 66.153448 
L 291.285021 58.530495 
L 289.232598 58.718417 
L 286.694749 58.97394 
L 284.159583 59.254828 
L 281.627352 59.561054 
L 279.098309 59.892586 
L 276.572709 60.249391 
L 274.050803 60.631434 
z
" clip-path="url(#p11bebcaefa)" style="fill: #800000"/>
   </g>
   <g id="PatchCollection_1">
    <path d="M 66.544499 297.784331 
L 66.544499 297.784331 
L 66.705291 295.315401 
L 66.832914 293.583219 
L 66.832914 293.583219 
Q 313.515754 312.628934 70.950401 263.872266 
L 70.950401 263.872266 
L 70.950401 263.872266 
L 71.450088 261.449091 
L 71.815335 259.751052 
L 71.815335 259.751052 
Q 313.515754 312.628934 66.544499 297.784331 
z
" clip-path="url(#p11bebcaefa)" style="fill: #ffd000; fill-opacity: 0.5; stroke: #808080; stroke-opacity: 0.5; stroke-width: 0.1"/>
    <path d="M 67.658154 340.363453 
L 67.658154 340.363453 
L 67.393106 337.903532 
L 67.152671 335.441082 
L 66.936871 332.976352 
L 66.856678 331.979983 
L 66.856678 331.979983 
Q 313.515754 312.628934 427.48846 93.026144 
L 427.48846 93.026144 
L 427.48846 93.026144 
L 429.678753 94.176833 
L 431.857429 95.349366 
L 434.024272 96.543627 
L 434.896294 97.032256 
L 434.896294 97.032256 
Q 313.515754 312.628934 67.658154 340.363453 
z
" clip-path="url(#p11bebcaefa)" style="fill: #e4ff13; fill-opacity: 0.5; stroke: #808080; stroke-opacity: 0.5; stroke-width: 0.1"/>
    <path d="M 66.856678 331.979983 
L 66.856678 331.979983 
L 66.675503 329.512466 
L 66.563063 327.779232 
L 66.563063 327.779232 
Q 313.515754 312.628934 71.815335 259.751052 
L 71.815335 259.751052 
L 71.815335 259.751052 
L 72.35619 257.336732 
L 72.750283 255.645155 
L 72.750283 255.645155 
Q 313.515754 312.628934 66.856678 331.979983 
z
" clip-path="url(#p11bebcaefa)" style="fill: #e4ff13; fill-opacity: 0.5; stroke: #808080; stroke-opacity: 0.5; stroke-width: 0.1"/>
    <path d="M 84.379523 405.965693 
L 84.379523 405.965693 
L 83.457628 403.669702 
L 82.82419 402.052451 
L 82.82419 402.052451 
Q 313.515754 312.628934 560.90312 308.800859 
L 560.90312 308.800859 
L 560.90312 308.800859 
L 560.92903 311.274883 
L 560.93244 313.011756 
L 560.93244 313.011756 
Q 313.515754 312.628934 84.379523 405.965693 
z
" clip-path="url(#p11bebcaefa)" style="fill: #b1ff46; fill-opacity: 0.5; stroke: #808080; stroke-opacity: 0.5; stroke-width: 0.1"/>
    <path d="M 82.82419 402.052451 
L 82.82419 402.052451 
L 81.941505 399.741103 
L 81.081976 397.421043 
L 80.245691 395.092505 
L 79.432732 392.75572 
L 78.643182 390.410922 
L 78.560852 390.161875 
L 78.560852 390.161875 
Q 313.515754 312.628934 522.840769 180.726694 
L 522.840769 180.726694 
L 522.840769 180.726694 
L 524.149303 182.826504 
L 525.436774 184.939295 
L 526.703054 187.064854 
L 527.948014 189.20297 
L 529.171532 191.353428 
L 529.299982 191.582126 
L 529.299982 191.582126 
Q 313.515754 312.628934 82.82419 402.052451 
z
" clip-path="url(#p11bebcaefa)" style="fill: #b1ff46; fill-opacity: 0.5; stroke: #808080; stroke-opacity: 0.5; stroke-width: 0.1"/>
    <path d="M 78.560852 390.161875 
L 78.560852 390.161875 
L 77.797283 387.808489 
L 77.057286 385.447584 
L 76.340934 383.079398 
L 76.058243 382.120614 
L 76.058243 382.120614 
Q 313.515754 312.628934 434.896294 97.032256 
L 434.896294 97.032256 
L 434.896294 97.032256 
L 437.046156 98.256821 
L 439.183665 99.502823 
L 441.308607 100.770138 
L 442.163495 101.288162 
L 442.163495 101.288162 
Q 313.515754 312.628934 78.560852 390.161875 
z
" clip-path="url(#p11bebcaefa)" style="fill: #b1ff46; fill-opacity: 0.5; stroke: #808080; stroke-opacity: 0.5; stroke-width: 0.1"/>
    <path d="M 76.058243 382.120614 
L 76.058243 382.120614 
L 75.375211 379.742603 
L 74.715992 377.357882 
L 74.080653 374.966688 
L 73.469258 372.56926 
L 72.881867 370.165838 
L 72.821003 369.910694 
L 72.821003 369.910694 
Q 313.515754 312.628934 313.515754 65.211952 
L 313.515754 65.211952 
L 313.515754 65.211952 
L 315.989882 65.224323 
L 318.463764 65.261434 
L 320.93715 65.323281 
L 323.409794 65.409859 
L 325.881449 65.521159 
L 326.143417 65.534407 
L 326.143417 65.534407 
Q 313.515754 312.628934 76.058243 382.120614 
z
" clip-path="url(#p11bebcaefa)" style="fill: #b1ff46; fill-opacity: 0.5; stroke: #808080; stroke-opacity: 0.5; stroke-width: 0.1"/>
    <path d="M 72.821003 369.910694 
L 72.821003 369.910694 
L 72.26023 367.500923 
L 71.880973 365.805958 
L 71.880973 365.805958 
Q 313.515754 312.628934 113.01871 167.659633 
L 113.01871 167.659633 
L 113.01871 167.659633 
L 114.478404 165.661944 
L 115.515016 164.268324 
L 115.515016 164.268324 
Q 313.515754 312.628934 72.821003 369.910694 
z
" clip-path="url(#p11bebcaefa)" style="fill: #b1ff46; fill-opacity: 0.5; stroke: #808080; stroke-opacity: 0.5; stroke-width: 0.1"/>
    <path d="M 71.880973 365.805958 
L 71.880973 365.805958 
L 71.361294 363.386991 
L 71.010939 361.685817 
L 71.010939 361.685817 
Q 313.515754 312.628934 72.750283 255.645155 
L 72.750283 255.645155 
L 72.750283 255.645155 
L 73.33215 253.240389 
L 73.754975 251.555764 
L 73.754975 251.555764 
Q 313.515754 312.628934 71.880973 365.805958 
z
" clip-path="url(#p11bebcaefa)" style="fill: #b1ff46; fill-opacity: 0.5; stroke: #808080; stroke-opacity: 0.5; stroke-width: 0.1"/>
    <path d="M 137.701447 486.710789 
L 137.701447 486.710789 
L 135.969448 484.943972 
L 134.255204 483.159923 
L 132.558885 481.35882 
L 130.880662 479.540845 
L 129.220703 477.706179 
L 127.579172 475.855006 
L 125.956236 473.98751 
L 124.352055 472.103878 
L 123.541153 471.137021 
L 123.541153 471.137021 
Q 313.515754 312.628934 529.299982 191.582126 
L 529.299982 191.582126 
L 529.299982 191.582126 
L 530.499641 193.745985 
L 531.677602 195.921732 
L 532.833746 198.109149 
L 533.967959 200.308019 
L 535.080127 202.51812 
L 536.170139 204.739232 
L 537.237885 206.971133 
L 538.28326 209.2136 
L 538.807781 210.361316 
L 538.807781 210.361316 
Q 313.515754 312.628934 137.701447 486.710789 
z
" clip-path="url(#p11bebcaefa)" style="fill: #7dff7a; fill-opacity: 0.5; stroke: #808080; stroke-opacity: 0.5; stroke-width: 0.1"/>
    <path d="M 123.541153 471.137021 
L 123.541153 471.137021 
L 121.965597 469.229382 
L 120.409196 467.306082 
L 118.872105 465.367315 
L 117.354479 463.413274 
L 115.856469 461.444155 
L 114.378224 459.460154 
L 112.919893 457.461471 
L 111.481622 455.448304 
L 110.755835 454.416021 
L 110.755835 454.416021 
Q 313.515754 312.628934 442.163495 101.288162 
L 442.163495 101.288162 
L 442.163495 101.288162 
L 444.270435 102.585185 
L 446.3643 103.903212 
L 448.44488 105.242112 
L 450.511967 106.60175 
L 452.565355 107.981991 
L 454.604838 109.382696 
L 456.630212 110.803725 
L 458.641275 112.244937 
L 459.661396 112.98772 
L 459.661396 112.98772 
Q 313.515754 312.628934 123.541153 471.137021 
z
" clip-path="url(#p11bebcaefa)" style="fill: #7dff7a; fill-opacity: 0.5; stroke: #808080; stroke-opacity: 0.5; stroke-width: 0.1"/>
    <path d="M 110.755835 454.416021 
L 110.755835 454.416021 
L 109.348126 452.381367 
L 107.960833 450.332737 
L 106.594095 448.270337 
L 105.24805 446.194373 
L 103.922831 444.105052 
L 102.618571 442.002584 
L 101.5801 440.294284 
L 101.5801 440.294284 
Q 313.515754 312.628934 326.143417 65.534407 
L 326.143417 65.534407 
L 326.143417 65.534407 
L 328.61369 65.673036 
L 331.082453 65.836361 
L 333.549459 66.024365 
L 336.014462 66.237028 
L 338.477215 66.474331 
L 340.937472 66.736249 
L 342.923422 66.965847 
L 342.923422 66.965847 
Q 313.515754 312.628934 110.755835 454.416021 
z
" clip-path="url(#p11bebcaefa)" style="fill: #7dff7a; fill-opacity: 0.5; stroke: #808080; stroke-opacity: 0.5; stroke-width: 0.1"/>
    <path d="M 101.5801 440.294284 
L 101.5801 440.294284 
L 100.314065 438.168579 
L 99.069349 436.030321 
L 97.846078 433.879723 
L 96.644374 431.716999 
L 95.464356 429.542367 
L 94.306144 427.356044 
L 93.38629 425.581057 
L 93.38629 425.581057 
Q 313.515754 312.628934 115.515016 164.268324 
L 115.515016 164.268324 
L 115.515016 164.268324 
L 117.008497 162.295767 
L 118.521629 160.338244 
L 120.05426 158.39595 
L 121.606237 156.469079 
L 123.177405 154.557823 
L 124.767607 152.662375 
L 126.066319 151.142487 
L 126.066319 151.142487 
Q 313.515754 312.628934 101.5801 440.294284 
z
" clip-path="url(#p11bebcaefa)" style="fill: #7dff7a; fill-opacity: 0.5; stroke: #808080; stroke-opacity: 0.5; stroke-width: 0.1"/>
    <path d="M 436.958923 527.05129 
L 436.958923 527.05129 
L 434.808563 528.27498 
L 432.646074 529.477106 
L 430.471672 530.657547 
L 428.285574 531.816185 
L 426.088 532.952905 
L 423.879168 534.067593 
L 422.086312 534.952115 
L 422.086312 534.952115 
Q 313.515754 312.628934 558.516359 347.123377 
L 558.516359 347.123377 
L 558.516359 347.123377 
L 558.15917 349.571617 
L 557.777517 352.016164 
L 557.371438 354.456771 
L 556.940974 356.893196 
L 556.486168 359.325195 
L 556.007065 361.752523 
L 555.602224 363.710281 
L 555.602224 363.710281 
Q 313.515754 312.628934 436.958923 527.05129 
z
" clip-path="url(#p11bebcaefa)" style="fill: #49ffad; fill-opacity: 0.5; stroke: #808080; stroke-opacity: 0.5; stroke-width: 0.1"/>
    <path d="M 422.086312 534.952115 
L 422.086312 534.952115 
L 419.857689 536.026686 
L 417.618431 537.078918 
L 415.368764 538.108705 
L 413.108911 539.115944 
L 410.839099 540.100535 
L 408.559555 541.062379 
L 406.71068 541.822888 
L 406.71068 541.822888 
Q 313.515754 312.628934 275.234751 68.191359 
L 275.234751 68.191359 
L 275.234751 68.191359 
L 277.681 67.820778 
L 280.130833 67.474676 
L 282.584004 67.15309 
L 285.040268 66.856052 
L 287.499379 66.58359 
L 289.961093 66.335733 
L 291.951943 66.153448 
L 291.951943 66.153448 
Q 313.515754 312.628934 422.086312 534.952115 
z
" clip-path="url(#p11bebcaefa)" style="fill: #49ffad; fill-opacity: 0.5; stroke: #808080; stroke-opacity: 0.5; stroke-width: 0.1"/>
    <path d="M 406.71068 541.822888 
L 406.71068 541.822888 
L 404.414119 542.743362 
L 402.108468 543.640825 
L 399.793958 544.515187 
L 397.47082 545.36636 
L 395.139287 546.19426 
L 392.799592 546.998804 
L 390.903264 547.631777 
L 390.903264 547.631777 
Q 313.515754 312.628934 237.875712 77.057826 
L 237.875712 77.057826 
L 237.875712 77.057826 
L 240.235166 76.313216 
L 242.601948 75.592238 
L 244.975821 74.894964 
L 247.356548 74.221462 
L 249.743891 73.571802 
L 252.137611 72.946046 
L 254.076284 72.457927 
L 254.076284 72.457927 
Q 313.515754 312.628934 406.71068 541.822888 
z
" clip-path="url(#p11bebcaefa)" style="fill: #49ffad; fill-opacity: 0.5; stroke: #808080; stroke-opacity: 0.5; stroke-width: 0.1"/>
    <path d="M 390.903264 547.631777 
L 390.903264 547.631777 
L 388.549406 548.393889 
L 386.188044 549.132425 
L 383.819415 549.84731 
L 381.443755 550.538475 
L 379.061303 551.205848 
L 376.672296 551.849364 
L 374.276974 552.468958 
L 371.875576 553.064568 
L 369.468342 553.636135 
L 367.055512 554.183601 
L 364.637329 554.706912 
L 362.422539 555.164064 
L 362.422539 555.164064 
Q 313.515754 312.628934 538.807781 210.361316 
L 538.807781 210.361316 
L 538.807781 210.361316 
L 539.819175 212.619312 
L 540.80794 214.887309 
L 541.773975 217.16508 
L 542.717185 219.452397 
L 543.637475 221.749032 
L 544.534753 224.054755 
L 545.408929 226.369335 
L 546.259916 228.692541 
L 547.087629 231.024141 
L 547.891984 233.363901 
L 548.672903 235.711587 
L 549.366124 237.864197 
L 549.366124 237.864197 
Q 313.515754 312.628934 390.903264 547.631777 
z
" clip-path="url(#p11bebcaefa)" style="fill: #49ffad; fill-opacity: 0.5; stroke: #808080; stroke-opacity: 0.5; stroke-width: 0.1"/>
    <path d="M 362.422539 555.164064 
L 362.422539 555.164064 
L 359.994782 555.640997 
L 357.562378 556.093629 
L 355.12557 556.521915 
L 352.6846 556.925811 
L 350.239714 557.305279 
L 347.791155 557.660278 
L 345.339168 557.990775 
L 342.884 558.296736 
L 340.425894 558.57813 
L 337.965098 558.83493 
L 335.501856 559.067109 
L 333.036416 559.274645 
L 330.569024 559.457516 
L 328.099927 559.615704 
L 325.629371 559.749194 
L 323.157604 559.857973 
L 320.684873 559.942028 
L 318.211425 560.001353 
L 315.737507 560.03594 
L 313.263367 560.045787 
L 310.789252 560.030892 
L 308.31541 559.991258 
L 308.003562 559.984505 
L 308.003562 559.984505 
Q 313.515754 312.628934 459.661396 112.98772 
L 459.661396 112.98772 
L 459.661396 112.98772 
L 461.650468 114.459134 
L 463.624726 115.950365 
L 465.583973 117.461264 
L 467.528014 118.991679 
L 469.456654 120.541457 
L 471.3697 122.110445 
L 473.26696 123.698484 
L 475.148246 125.305416 
L 477.013368 126.93108 
L 478.862141 128.575313 
L 480.694379 130.237952 
L 482.5099 131.91883 
L 484.308521 133.617779 
L 486.090063 135.334629 
L 487.854348 137.069208 
L 489.601199 138.821342 
L 491.330442 140.590858 
L 493.041903 142.377577 
L 494.735412 144.181321 
L 496.410799 146.00191 
L 498.067897 147.839161 
L 499.70654 149.692891 
L 499.911807 149.927753 
L 499.911807 149.927753 
Q 313.515754 312.628934 362.422539 555.164064 
z
" clip-path="url(#p11bebcaefa)" style="fill: #49ffad; fill-opacity: 0.5; stroke: #808080; stroke-opacity: 0.5; stroke-width: 0.1"/>
    <path d="M 308.003562 559.984505 
L 308.003562 559.984505 
L 305.530323 559.917016 
L 303.057883 559.824799 
L 300.586488 559.707863 
L 298.116386 559.566218 
L 295.647825 559.39988 
L 293.18105 559.208866 
L 290.716308 558.993193 
L 288.253847 558.752884 
L 285.793911 558.487963 
L 283.336748 558.198457 
L 280.882603 557.884393 
L 278.431721 557.545804 
L 275.984347 557.182724 
L 273.540726 556.795189 
L 271.101103 556.383237 
L 268.665722 555.94691 
L 266.234825 555.486251 
L 266.186121 555.476764 
L 266.186121 555.476764 
Q 313.515754 312.628934 342.923422 66.965847 
L 342.923422 66.965847 
L 342.923422 66.965847 
L 345.378541 67.272202 
L 347.830475 67.603093 
L 350.278976 67.958485 
L 352.723802 68.338345 
L 355.164707 68.742633 
L 357.601447 69.17131 
L 360.033778 69.624332 
L 362.461458 70.101655 
L 364.884243 70.60323 
L 367.301891 71.129008 
L 369.714161 71.678935 
L 372.120811 72.252957 
L 374.5216 72.851016 
L 376.916289 73.473054 
L 379.304638 74.119006 
L 381.686408 74.788809 
L 384.061361 75.482396 
L 384.108919 75.496549 
L 384.108919 75.496549 
Q 313.515754 312.628934 308.003562 559.984505 
z
" clip-path="url(#p11bebcaefa)" style="fill: #49ffad; fill-opacity: 0.5; stroke: #808080; stroke-opacity: 0.5; stroke-width: 0.1"/>
    <path d="M 266.186121 555.476764 
L 266.186121 555.476764 
L 263.76005 554.991334 
L 261.338954 554.481667 
L 258.923076 553.947815 
L 256.512657 553.389832 
L 254.107938 552.807772 
L 251.70916 552.201695 
L 249.775399 551.694469 
L 249.775399 551.694469 
Q 313.515754 312.628934 198.592718 93.521977 
L 198.592718 93.521977 
L 198.592718 93.521977 
L 200.789497 92.383721 
L 202.997549 91.267489 
L 205.216652 90.173393 
L 207.446585 89.101543 
L 209.687125 88.052045 
L 211.938048 87.025005 
L 213.764273 86.211609 
L 213.764273 86.211609 
Q 313.515754 312.628934 266.186121 555.476764 
z
" clip-path="url(#p11bebcaefa)" style="fill: #49ffad; fill-opacity: 0.5; stroke: #808080; stroke-opacity: 0.5; stroke-width: 0.1"/>
    <path d="M 249.775399 551.694469 
L 249.775399 551.694469 
L 247.38797 551.045123 
L 245.007154 550.371935 
L 242.633189 549.674974 
L 240.266312 548.954308 
L 237.906761 548.210009 
L 235.554769 547.442153 
L 233.210574 546.650815 
L 230.87441 545.836076 
L 228.546509 544.998016 
L 226.227106 544.136719 
L 223.916431 543.252272 
L 221.614716 542.344763 
L 219.322191 541.414282 
L 217.039085 540.460923 
L 214.765627 539.484781 
L 212.502044 538.485953 
L 210.248562 537.46454 
L 208.005407 536.420644 
L 205.772802 535.354369 
L 203.550972 534.265821 
L 201.340138 533.15511 
L 199.140522 532.022346 
L 198.864021 531.877977 
L 198.864021 531.877977 
Q 313.515754 312.628934 126.066319 151.142487 
L 126.066319 151.142487 
L 126.066319 151.142487 
L 127.690529 149.276099 
L 129.333321 147.426045 
L 130.994532 145.592511 
L 132.673994 143.775681 
L 134.371541 141.975736 
L 136.087001 140.192857 
L 137.820205 138.427221 
L 139.570977 136.679004 
L 141.339145 134.948383 
L 143.124529 133.23553 
L 144.926953 131.540615 
L 146.746235 129.86381 
L 148.582194 128.20528 
L 150.434647 126.565193 
L 152.303407 124.943713 
L 154.188289 123.341 
L 156.089103 121.757217 
L 158.005659 120.19252 
L 159.937767 118.647066 
L 161.885232 117.121011 
L 163.84786 115.614507 
L 165.825455 114.127703 
L 166.075825 113.941666 
L 166.075825 113.941666 
Q 313.515754 312.628934 249.775399 551.694469 
z
" clip-path="url(#p11bebcaefa)" style="fill: #49ffad; fill-opacity: 0.5; stroke: #808080; stroke-opacity: 0.5; stroke-width: 0.1"/>
    <path d="M 198.864021 531.877977 
L 198.864021 531.877977 
L 196.6773 530.720517 
L 194.502262 529.541247 
L 192.339126 528.340287 
L 190.188107 527.117755 
L 188.049421 525.873775 
L 185.923281 524.60847 
L 183.809901 523.321968 
L 181.709491 522.014396 
L 179.622261 520.685887 
L 177.548421 519.336571 
L 175.488178 517.966585 
L 173.441737 516.576066 
L 171.409303 515.165152 
L 169.39108 513.733984 
L 167.387269 512.282706 
L 165.398071 510.811463 
L 163.423684 509.320402 
L 161.464307 507.809672 
L 159.520135 506.279424 
L 157.591362 504.729811 
L 155.678181 503.160988 
L 153.780784 501.573112 
L 153.542707 501.371582 
L 153.542707 501.371582 
Q 313.515754 312.628934 73.754975 251.555764 
L 73.754975 251.555764 
L 73.754975 251.555764 
L 74.377685 249.16125 
L 75.024308 246.773083 
L 75.69478 244.391501 
L 76.389034 242.016742 
L 77.107 239.649045 
L 77.848607 237.288646 
L 78.613781 234.935781 
L 79.402444 232.590685 
L 80.214519 230.253593 
L 81.049924 227.924738 
L 81.908575 225.604354 
L 82.790386 223.292672 
L 83.69527 220.989923 
L 84.623136 218.696339 
L 85.573891 216.412147 
L 86.54744 214.137577 
L 87.543685 211.872857 
L 88.562528 209.618211 
L 89.603865 207.373867 
L 90.667594 205.140048 
L 91.753607 202.916978 
L 92.861796 200.704879 
L 93.003076 200.426787 
L 93.003076 200.426787 
Q 313.515754 312.628934 198.864021 531.877977 
z
" clip-path="url(#p11bebcaefa)" style="fill: #49ffad; fill-opacity: 0.5; stroke: #808080; stroke-opacity: 0.5; stroke-width: 0.1"/>
    <path d="M 475.118184 499.978387 
L 475.118184 499.978387 
L 473.23664 501.585017 
L 471.339125 503.172751 
L 469.425828 504.741432 
L 467.496939 506.290901 
L 465.552653 507.821004 
L 463.593163 509.331588 
L 461.99888 510.537812 
L 461.99888 510.537812 
Q 313.515754 312.628934 549.366124 237.864197 
L 549.366124 237.864197 
L 549.366124 237.864197 
L 550.101966 240.2264 
L 550.81415 242.595842 
L 551.502605 244.972289 
L 552.167261 247.3555 
L 552.808052 249.745239 
L 553.424914 252.141266 
L 553.90583 254.081738 
L 553.90583 254.081738 
Q 313.515754 312.628934 475.118184 499.978387 
z
" clip-path="url(#p11bebcaefa)" style="fill: #16ffe1; fill-opacity: 0.5; stroke: #808080; stroke-opacity: 0.5; stroke-width: 0.1"/>
    <path d="M 547.641904 392.629613 
L 547.641904 392.629613 
L 546.830204 394.966836 
L 545.995173 397.295825 
L 545.136895 399.616347 
L 544.783567 400.551409 
L 544.783567 400.551409 
Q 313.515754 312.628934 560.93244 313.011756 
L 560.93244 313.011756 
L 560.93244 313.011756 
L 560.916241 315.485863 
L 560.875302 317.959684 
L 560.809627 320.432971 
L 560.77608 321.431999 
L 560.77608 321.431999 
Q 313.515754 312.628934 547.641904 392.629613 
z
" clip-path="url(#p11bebcaefa)" style="fill: #00c0ff; fill-opacity: 0.5; stroke: #808080; stroke-opacity: 0.5; stroke-width: 0.1"/>
    <path d="M 544.783567 400.551409 
L 544.783567 400.551409 
L 543.892793 402.859652 
L 542.978982 405.158873 
L 542.042225 407.448841 
L 541.082616 409.729326 
L 540.10025 412.000102 
L 539.994773 412.240263 
L 539.994773 412.240263 
Q 313.515754 312.628934 553.90583 254.081738 
L 553.90583 254.081738 
L 553.90583 254.081738 
L 554.479273 256.488526 
L 555.02862 258.900928 
L 555.553815 261.318703 
L 556.054807 263.741609 
L 556.531545 266.169404 
L 556.580664 266.427066 
L 556.580664 266.427066 
Q 313.515754 312.628934 544.783567 400.551409 
z
" clip-path="url(#p11bebcaefa)" style="fill: #00c0ff; fill-opacity: 0.5; stroke: #808080; stroke-opacity: 0.5; stroke-width: 0.1"/>
    <path d="M 539.994773 412.240263 
L 539.994773 412.240263 
L 538.987352 414.500035 
L 537.957385 416.74962 
L 536.904973 418.988793 
L 535.830223 421.21733 
L 534.733242 423.435008 
L 534.615645 423.669472 
L 534.615645 423.669472 
Q 313.515754 312.628934 499.911807 149.927753 
L 499.911807 149.927753 
L 499.911807 149.927753 
L 501.529472 151.799818 
L 503.128336 153.687965 
L 504.708239 155.592006 
L 506.269022 157.511751 
L 507.810531 159.447007 
L 507.97282 159.653078 
L 507.97282 159.653078 
Q 313.515754 312.628934 539.994773 412.240263 
z
" clip-path="url(#p11bebcaefa)" style="fill: #00c0ff; fill-opacity: 0.5; stroke: #808080; stroke-opacity: 0.5; stroke-width: 0.1"/>
    <path d="M 534.615645 423.669472 
L 534.615645 423.669472 
L 533.494203 425.874883 
L 532.350763 428.068968 
L 531.185441 430.25151 
L 529.998351 432.422289 
L 528.789613 434.58109 
L 527.559349 436.727695 
L 526.549627 438.453144 
L 526.549627 438.453144 
Q 313.515754 312.628934 384.108919 75.496549 
L 384.108919 75.496549 
L 384.108919 75.496549 
L 386.476674 76.214325 
L 388.837132 76.955743 
L 391.190059 77.720728 
L 393.535218 78.509203 
L 395.872376 79.32109 
L 398.201297 80.156308 
L 400.076942 80.848168 
L 400.076942 80.848168 
Q 313.515754 312.628934 534.615645 423.669472 
z
" clip-path="url(#p11bebcaefa)" style="fill: #00c0ff; fill-opacity: 0.5; stroke: #808080; stroke-opacity: 0.5; stroke-width: 0.1"/>
    <path d="M 526.549627 438.453144 
L 526.549627 438.453144 
L 525.280754 440.577156 
L 524.37734 442.060593 
L 524.37734 442.060593 
Q 313.515754 312.628934 213.764273 86.211609 
L 213.764273 86.211609 
L 213.764273 86.211609 
L 216.033397 85.225431 
L 217.63217 84.546709 
L 217.63217 84.546709 
Q 313.515754 312.628934 526.549627 438.453144 
z
" clip-path="url(#p11bebcaefa)" style="fill: #00c0ff; fill-opacity: 0.5; stroke: #808080; stroke-opacity: 0.5; stroke-width: 0.1"/>
    <path d="M 524.37734 442.060593 
L 524.37734 442.060593 
L 523.072502 444.162702 
L 521.746709 446.251658 
L 520.400092 448.327252 
L 519.032787 450.389276 
L 517.644931 452.437524 
L 516.236662 454.471791 
L 515.083936 456.105172 
L 515.083936 456.105172 
Q 313.515754 312.628934 166.075825 113.941666 
L 166.075825 113.941666 
L 166.075825 113.941666 
L 168.070037 112.477226 
L 170.078793 111.0328 
L 172.101892 109.608534 
L 174.139133 108.20457 
L 176.190311 106.821048 
L 178.255222 105.458107 
L 179.933605 104.371947 
L 179.933605 104.371947 
Q 313.515754 312.628934 524.37734 442.060593 
z
" clip-path="url(#p11bebcaefa)" style="fill: #00c0ff; fill-opacity: 0.5; stroke: #808080; stroke-opacity: 0.5; stroke-width: 0.1"/>
    <path d="M 515.083936 456.105172 
L 515.083936 456.105172 
L 513.639119 458.113647 
L 512.17429 460.107573 
L 510.689595 462.086751 
L 509.185183 464.050984 
L 507.661205 466.000075 
L 506.117812 467.933828 
L 504.85664 469.485008 
L 504.85664 469.485008 
Q 313.515754 312.628934 93.003076 200.426787 
L 93.003076 200.426787 
L 93.003076 200.426787 
L 94.136104 198.227307 
L 95.29107 196.039267 
L 96.467859 193.862886 
L 97.666352 191.698382 
L 98.886429 189.54597 
L 100.12797 187.405867 
L 101.146755 185.685753 
L 101.146755 185.685753 
Q 313.515754 312.628934 515.083936 456.105172 
z
" clip-path="url(#p11bebcaefa)" style="fill: #00c0ff; fill-opacity: 0.5; stroke: #808080; stroke-opacity: 0.5; stroke-width: 0.1"/>
    <path d="M 555.602224 363.710281 
L 555.602224 363.710281 
L 555.079314 366.128552 
L 554.532249 368.541472 
L 553.961082 370.948801 
L 553.723502 371.919748 
L 553.723502 371.919748 
Q 313.515754 312.628934 461.99888 510.537812 
L 461.99888 510.537812 
L 461.99888 510.537812 
L 460.0124 512.012723 
L 458.011271 513.467696 
L 455.995692 514.902585 
L 455.177324 515.476567 
L 455.177324 515.476567 
Q 313.515754 312.628934 555.602224 363.710281 
z
" clip-path="url(#p11bebcaefa)" style="fill: #0080ff; fill-opacity: 0.5; stroke: #808080; stroke-opacity: 0.5; stroke-width: 0.1"/>
    <path d="M 560.77608 321.431999 
L 560.77608 321.431999 
L 560.675688 323.904121 
L 560.590446 325.638905 
L 560.590446 325.638905 
Q 313.515754 312.628934 504.85664 469.485008 
L 504.85664 469.485008 
L 504.85664 469.485008 
L 503.278539 471.390543 
L 502.159357 472.718765 
L 502.159357 472.718765 
Q 313.515754 312.628934 560.77608 321.431999 
z
" clip-path="url(#p11bebcaefa)" style="fill: #0040ff; fill-opacity: 0.5; stroke: #808080; stroke-opacity: 0.5; stroke-width: 0.1"/>
    <path d="M 556.580664 266.427066 
L 556.580664 266.427066 
L 557.030521 268.859985 
L 557.456028 271.29728 
L 557.857141 273.738709 
L 558.012267 274.72619 
L 558.012267 274.72619 
Q 313.515754 312.628934 66.832914 293.583219 
L 66.832914 293.583219 
L 66.832914 293.583219 
L 67.035702 291.117384 
L 67.263137 288.6537 
L 67.515198 286.192414 
L 67.624012 285.198763 
L 67.624012 285.198763 
Q 313.515754 312.628934 556.580664 266.427066 
z
" clip-path="url(#p11bebcaefa)" style="fill: #0000ff; fill-opacity: 0.5; stroke: #808080; stroke-opacity: 0.5; stroke-width: 0.1"/>
    <path d="M 558.012267 274.72619 
L 558.012267 274.72619 
L 558.379063 277.173009 
L 558.62193 278.892823 
L 558.62193 278.892823 
Q 313.515754 312.628934 66.563063 327.779232 
L 66.563063 327.779232 
L 66.563063 327.779232 
L 66.42391 325.308989 
L 66.340985 323.574092 
L 66.340985 323.574092 
Q 313.515754 312.628934 558.012267 274.72619 
z
" clip-path="url(#p11bebcaefa)" style="fill: #0000ff; fill-opacity: 0.5; stroke: #808080; stroke-opacity: 0.5; stroke-width: 0.1"/>
    <path d="M 558.62193 278.892823 
L 558.62193 278.892823 
L 558.947031 281.34553 
L 559.247588 283.801366 
L 559.523572 286.260085 
L 559.628097 287.254196 
L 559.628097 287.254196 
Q 313.515754 312.628934 502.159357 472.718765 
L 502.159357 472.718765 
L 502.159357 472.718765 
L 500.549053 474.597165 
L 498.920046 476.459368 
L 497.272499 478.305189 
L 496.601651 479.046232 
L 496.601651 479.046232 
Q 313.515754 312.628934 558.62193 278.892823 
z
" clip-path="url(#p11bebcaefa)" style="fill: #0000ff; fill-opacity: 0.5; stroke: #808080; stroke-opacity: 0.5; stroke-width: 0.1"/>
    <path d="M 507.97282 159.653078 
L 507.97282 159.653078 
L 509.49283 161.605265 
L 510.548187 162.984745 
L 510.548187 162.984745 
Q 313.515754 312.628934 496.601651 479.046232 
L 496.601651 479.046232 
L 496.601651 479.046232 
L 494.928351 480.86874 
L 493.742838 482.13811 
L 493.742838 482.13811 
Q 313.515754 312.628934 507.97282 159.653078 
z
" clip-path="url(#p11bebcaefa)" style="fill: #0000c8; fill-opacity: 0.5; stroke: #808080; stroke-opacity: 0.5; stroke-width: 0.1"/>
    <path d="M 400.076942 80.848168 
L 400.076942 80.848168 
L 402.390383 81.725354 
L 404.009136 82.354943 
L 404.009136 82.354943 
Q 313.515754 312.628934 66.340985 323.574092 
L 66.340985 323.574092 
L 66.340985 323.574092 
L 66.243894 321.101839 
L 66.190507 319.365782 
L 66.190507 319.365782 
Q 313.515754 312.628934 400.076942 80.848168 
z
" clip-path="url(#p11bebcaefa)" style="fill: #000080; fill-opacity: 0.5; stroke: #808080; stroke-opacity: 0.5; stroke-width: 0.1"/>
    <path d="M 404.009136 82.354943 
L 404.009136 82.354943 
L 406.307313 83.271375 
L 407.915116 83.928423 
L 407.915116 83.928423 
Q 313.515754 312.628934 493.742838 482.13811 
L 493.742838 482.13811 
L 493.742838 482.13811 
L 492.038764 483.931876 
L 490.831818 485.180886 
L 490.831818 485.180886 
Q 313.515754 312.628934 404.009136 82.354943 
z
" clip-path="url(#p11bebcaefa)" style="fill: #000080; fill-opacity: 0.5; stroke: #808080; stroke-opacity: 0.5; stroke-width: 0.1"/>
   </g>
   <g id="patch_19">
    <path d="M 313.515754 65.211952 
L 315.989882 65.224323 
L 318.463764 65.261434 
L 320.93715 65.323281 
L 323.409794 65.409859 
L 325.881449 65.521159 
L 328.351867 65.657169 
L 330.820802 65.817876 
L 333.288006 66.003264 
L 335.753233 66.213315 
L 338.216236 66.448006 
L 340.67677 66.707316 
L 343.134587 66.991218 
L 345.589442 67.299683 
L 348.04109 67.632681 
L 350.489286 67.990178 
L 352.933784 68.372139 
L 355.37434 68.778525 
L 357.810711 69.209297 
L 360.242652 69.66441 
L 362.66992 70.143819 
L 365.092273 70.647477 
L 367.509469 71.175332 
L 369.921265 71.727333 
L 372.32742 72.303424 
L 374.727695 72.903547 
L 377.121848 73.527642 
L 379.509641 74.175647 
L 381.890834 74.847498 
L 384.26519 75.543126 
L 386.632471 76.262463 
L 388.992441 77.005436 
L 391.344863 77.771972 
L 393.689502 78.561992 
L 396.026124 79.37542 
L 398.354494 80.212172 
L 400.674381 81.072166 
L 402.985553 81.955316 
L 405.287777 82.861532 
L 407.580824 83.790726 
L 407.915116 83.928423 
L 410.834683 76.855212 
L 410.490053 76.713255 
L 408.126087 75.755324 
L 405.75266 74.82108 
L 403.370009 73.910617 
L 400.978373 73.024025 
L 398.577991 72.161394 
L 396.169102 71.322809 
L 393.751949 70.508354 
L 391.326771 69.718112 
L 388.893813 68.95216 
L 386.453317 68.210575 
L 384.005528 67.493433 
L 381.550689 66.800803 
L 379.089047 66.132757 
L 376.620848 65.489359 
L 374.146338 64.870676 
L 371.665765 64.276768 
L 369.179377 63.707695 
L 366.687423 63.163514 
L 364.190152 62.644279 
L 361.687813 62.150043 
L 359.180658 61.680854 
L 356.668935 61.23676 
L 354.152898 60.817805 
L 351.632797 60.424031 
L 349.108884 60.055477 
L 346.581412 59.71218 
L 344.050633 59.394175 
L 341.516801 59.101493 
L 338.980169 58.834163 
L 336.44099 58.592213 
L 333.899519 58.375666 
L 331.35601 58.184544 
L 328.810716 58.018867 
L 326.263893 57.87865 
L 323.715795 57.763908 
L 321.166678 57.674653 
L 318.616795 57.610892 
L 316.066402 57.572634 
L 313.515754 57.55988 
L 313.515754 65.211952 
z
" clip-path="url(#p11bebcaefa)" style="fill: none; stroke: #000000; stroke-width: 0.5; stroke-linejoin: miter"/>
   </g>
   <g id="patch_20">
    <path d="M 427.48846 93.026144 
L 429.678753 94.176833 
L 431.857429 95.349366 
L 434.024272 96.543627 
L 436.179064 97.759496 
L 438.321589 98.996852 
L 440.451634 100.255571 
L 442.568986 101.535527 
L 444.673432 102.836593 
L 446.764762 104.158637 
L 448.842768 105.501528 
L 450.907241 106.865132 
L 452.957976 108.249312 
L 454.994766 109.65393 
L 457.017408 111.078845 
L 459.0257 112.523915 
L 461.019442 113.988996 
L 462.998433 115.47394 
L 464.962476 116.9786 
L 466.911374 118.502824 
L 468.844933 120.046461 
L 470.76296 121.609356 
L 472.665261 123.191353 
L 474.551648 124.792293 
L 476.421932 126.412017 
L 478.275924 128.050362 
L 480.113441 129.707165 
L 481.934299 131.38226 
L 483.738314 133.07548 
L 485.525308 134.786655 
L 487.295101 136.515614 
L 489.047516 138.262184 
L 490.782378 140.02619 
L 492.499513 141.807457 
L 494.19875 143.605806 
L 495.879919 145.421057 
L 497.542852 147.253029 
L 499.187382 149.101538 
L 500.813345 150.966399 
L 502.420579 152.847427 
L 504.008922 154.744433 
L 505.578216 156.657227 
L 507.128304 158.585618 
L 508.659031 160.529413 
L 510.170244 162.488418 
L 510.548187 162.984745 
L 516.641973 158.356574 
L 516.252342 157.844897 
L 514.694391 155.825304 
L 513.116322 153.821392 
L 511.518293 151.83336 
L 509.900464 149.861407 
L 508.262996 147.905731 
L 506.606054 145.966527 
L 504.929804 144.043989 
L 503.234412 142.13831 
L 501.520048 140.249679 
L 499.786884 138.378287 
L 498.035093 136.524319 
L 496.264851 134.687961 
L 494.476333 132.869398 
L 492.66972 131.06881 
L 490.845191 129.286378 
L 489.00293 127.52228 
L 487.14312 125.776693 
L 485.265947 124.049791 
L 483.3716 122.341747 
L 481.460267 120.652731 
L 479.53214 118.982912 
L 477.587411 117.332458 
L 475.626275 115.701534 
L 473.648929 114.090302 
L 471.655569 112.498924 
L 469.646395 110.927558 
L 467.621609 109.376363 
L 465.581412 107.845493 
L 463.526008 106.3351 
L 461.455604 104.845337 
L 459.370405 103.376353 
L 457.270622 101.928293 
L 455.156463 100.501303 
L 453.02814 99.095526 
L 450.885866 97.711102 
L 448.729855 96.34817 
L 446.560323 95.006865 
L 444.377486 93.687323 
L 442.181563 92.389674 
L 439.972774 91.114049 
L 437.75134 89.860576 
L 435.517481 88.629379 
L 433.271423 87.420582 
L 431.013389 86.234306 
L 427.48846 93.026144 
z
" clip-path="url(#p11bebcaefa)" style="fill: none; stroke: #000000; stroke-width: 0.5; stroke-linejoin: miter"/>
   </g>
   <g id="patch_21">
    <path d="M 522.840769 180.726694 
L 524.149303 182.826504 
L 525.436774 184.939295 
L 526.703054 187.064854 
L 527.948014 189.20297 
L 529.171532 191.353428 
L 530.373484 193.516013 
L 531.55375 195.69051 
L 532.712213 197.876701 
L 533.848757 200.074366 
L 534.963267 202.283287 
L 536.055633 204.503243 
L 537.125745 206.734011 
L 538.173496 208.975368 
L 539.198782 211.22709 
L 540.201499 213.488953 
L 541.181548 215.76073 
L 542.138831 218.042193 
L 543.073252 220.333115 
L 543.984717 222.633267 
L 544.873135 224.942418 
L 545.738418 227.260337 
L 546.580478 229.586793 
L 547.399233 231.921554 
L 548.194599 234.264385 
L 548.966498 236.615053 
L 549.714851 238.973321 
L 550.439585 241.338956 
L 551.140627 243.711719 
L 551.817907 246.091374 
L 552.471356 248.477683 
L 553.10091 250.870407 
L 553.706506 253.269306 
L 554.288083 255.674141 
L 554.845583 258.084672 
L 555.37895 260.500658 
L 555.888131 262.921856 
L 556.373075 265.348024 
L 556.833734 267.778921 
L 557.27006 270.214303 
L 557.682012 272.653926 
L 558.069547 275.097547 
L 558.432627 277.54492 
L 558.771216 279.995802 
L 559.085279 282.449948 
L 559.374786 284.907111 
L 559.628097 287.254196 
L 567.239819 286.46941 
L 566.978673 284.049735 
L 566.680213 281.516577 
L 566.356436 278.98653 
L 566.007376 276.459848 
L 565.633067 273.936782 
L 565.233546 271.417586 
L 564.808853 268.90251 
L 564.359032 266.391807 
L 563.884126 263.885728 
L 563.384184 261.384523 
L 562.859255 258.888443 
L 562.309392 256.397736 
L 561.73465 253.912653 
L 561.135086 251.433441 
L 560.510761 248.960349 
L 559.861736 246.493623 
L 559.188076 244.033511 
L 558.48985 241.580259 
L 557.767127 239.134111 
L 557.019978 236.695313 
L 556.248479 234.264108 
L 555.452708 231.840739 
L 554.632743 229.425449 
L 553.788666 227.01848 
L 552.920562 224.620071 
L 552.028518 222.230463 
L 551.112623 219.849895 
L 550.172968 217.478605 
L 549.209648 215.11683 
L 548.222758 212.764806 
L 547.212399 210.422768 
L 546.178669 208.090951 
L 545.121674 205.769587 
L 544.041518 203.45891 
L 542.93831 201.159149 
L 541.812159 198.870535 
L 540.66318 196.593297 
L 539.491485 194.327662 
L 538.297194 192.073858 
L 537.080424 189.832108 
L 535.841298 187.602639 
L 534.57994 185.385672 
L 533.296475 183.181429 
L 531.991033 180.990131 
L 530.663743 178.811996 
L 529.314739 176.647243 
L 522.840769 180.726694 
z
" clip-path="url(#p11bebcaefa)" style="fill: none; stroke: #000000; stroke-width: 0.5; stroke-linejoin: miter"/>
   </g>
   <g id="patch_22">
    <path d="M 560.90312 308.800859 
L 560.92903 311.274883 
L 560.9302 313.749042 
L 560.906629 316.223089 
L 560.858318 318.696777 
L 560.785274 321.169858 
L 560.687503 323.642085 
L 560.590446 325.638905 
L 568.231931 326.041276 
L 568.33199 323.982698 
L 568.432785 321.43401 
L 568.508088 318.884442 
L 568.557893 316.334248 
L 568.582193 313.783684 
L 568.580988 311.233005 
L 568.554275 308.682465 
L 560.90312 308.800859 
z
" clip-path="url(#p11bebcaefa)" style="fill: none; stroke: #000000; stroke-width: 0.5; stroke-linejoin: miter"/>
   </g>
   <g id="patch_23">
    <path d="M 558.516359 347.123377 
L 558.15917 349.571617 
L 557.777517 352.016164 
L 557.371438 354.456771 
L 556.940974 356.893196 
L 556.486168 359.325195 
L 556.007065 361.752523 
L 555.503713 364.17494 
L 554.976162 366.592202 
L 554.424465 369.004068 
L 553.848678 371.410296 
L 553.723502 371.919748 
L 561.152608 373.753485 
L 561.281655 373.228276 
L 561.87525 370.747628 
L 562.444009 368.261169 
L 562.987876 365.769146 
L 563.506796 363.27181 
L 564.000717 360.769409 
L 564.469589 358.262194 
L 564.913367 355.750416 
L 565.332005 353.234325 
L 565.725461 350.714175 
L 566.093697 348.190215 
L 558.516359 347.123377 
z
" clip-path="url(#p11bebcaefa)" style="fill: none; stroke: #000000; stroke-width: 0.5; stroke-linejoin: miter"/>
   </g>
   <g id="patch_24">
    <path d="M 547.641904 392.629613 
L 546.830204 394.966836 
L 545.995173 397.295825 
L 545.136895 399.616347 
L 544.255454 401.92817 
L 543.35094 404.231064 
L 542.423442 406.524797 
L 541.473054 408.809141 
L 540.49987 411.083867 
L 539.503988 413.348748 
L 538.485507 415.603557 
L 537.44453 417.848068 
L 536.38116 420.082058 
L 535.295503 422.305302 
L 534.187669 424.517579 
L 533.057768 426.718667 
L 531.905912 428.908346 
L 530.732218 431.086397 
L 529.536802 433.252603 
L 528.319785 435.406746 
L 527.081287 437.548612 
L 525.821433 439.677985 
L 524.540348 441.794654 
L 523.238162 443.898407 
L 521.915003 445.989033 
L 520.571004 448.066322 
L 519.2063 450.130069 
L 517.821027 452.180065 
L 516.415324 454.216106 
L 514.989331 456.237989 
L 513.543191 458.24551 
L 512.077048 460.238471 
L 510.591049 462.21667 
L 509.085343 464.179911 
L 507.56008 466.127997 
L 506.015413 468.060733 
L 504.451496 469.977926 
L 502.868486 471.879384 
L 501.26654 473.764917 
L 499.64582 475.634337 
L 498.006486 477.487456 
L 496.348704 479.32409 
L 494.672639 481.144055 
L 492.978458 482.947168 
L 491.266331 484.733249 
L 490.831818 485.180886 
L 496.31582 490.517544 
L 496.763772 490.056063 
L 498.528851 488.214742 
L 500.275429 486.355862 
L 502.003332 484.479611 
L 503.712385 482.586174 
L 505.40242 480.675741 
L 507.073266 478.748504 
L 508.724756 476.804656 
L 510.356725 474.844389 
L 511.969011 472.867902 
L 513.561451 470.87539 
L 515.133887 468.867054 
L 516.686162 466.843095 
L 518.218119 464.803714 
L 519.729606 462.749116 
L 521.220473 460.679506 
L 522.690568 458.595091 
L 524.139747 456.496079 
L 525.567863 454.382681 
L 526.974775 452.255108 
L 528.36034 450.113572 
L 529.724422 447.958288 
L 531.066882 445.78947 
L 532.387588 443.607337 
L 533.686407 441.412107 
L 534.963209 439.203998 
L 536.217866 436.983231 
L 537.450253 434.75003 
L 538.660247 432.504616 
L 539.847727 430.247215 
L 541.012573 427.978052 
L 542.154671 425.697354 
L 543.273904 423.40535 
L 544.370162 421.102268 
L 545.443335 418.788339 
L 546.493315 416.463794 
L 547.519997 414.128865 
L 548.52328 411.783787 
L 549.503061 409.428793 
L 550.459245 407.064119 
L 551.391734 404.690002 
L 552.300435 402.306679 
L 553.185259 399.914388 
L 554.046115 397.513369 
L 554.882919 395.103861 
L 547.641904 392.629613 
z
" clip-path="url(#p11bebcaefa)" style="fill: none; stroke: #000000; stroke-width: 0.5; stroke-linejoin: miter"/>
   </g>
   <g id="patch_25">
    <path d="M 475.118184 499.978387 
L 473.23664 501.585017 
L 471.339125 503.172751 
L 469.425828 504.741432 
L 467.496939 506.290901 
L 465.552653 507.821004 
L 463.593163 509.331588 
L 461.618665 510.822502 
L 459.629358 512.293597 
L 457.625439 513.744726 
L 455.607109 515.175743 
L 455.177324 515.476567 
L 459.55861 521.750206 
L 460.001687 521.440077 
L 462.082439 519.964802 
L 464.148335 518.468793 
L 466.199168 516.9522 
L 468.234732 515.415175 
L 470.254825 513.857872 
L 472.259244 512.280446 
L 474.247789 510.683055 
L 476.22026 509.065859 
L 478.176462 507.429019 
L 480.116197 505.7727 
L 475.118184 499.978387 
z
" clip-path="url(#p11bebcaefa)" style="fill: none; stroke: #000000; stroke-width: 0.5; stroke-linejoin: miter"/>
   </g>
   <g id="patch_26">
    <path d="M 436.958923 527.05129 
L 434.808563 528.27498 
L 432.646074 529.477106 
L 430.471672 530.657547 
L 428.285574 531.816185 
L 426.088 532.952905 
L 423.879168 534.067593 
L 421.6593 535.160137 
L 419.428618 536.230428 
L 417.187345 537.278359 
L 414.935705 538.303825 
L 412.673922 539.306724 
L 410.402224 540.286955 
L 408.120838 541.244421 
L 405.829991 542.179025 
L 403.529912 543.090675 
L 401.220833 543.979279 
L 398.902983 544.844747 
L 396.576594 545.686995 
L 394.241899 546.505936 
L 391.899132 547.301491 
L 389.548526 548.073578 
L 387.190317 548.822121 
L 384.824741 549.547045 
L 382.452034 550.248277 
L 380.072434 550.925747 
L 377.686177 551.579388 
L 375.293504 552.209134 
L 372.894653 552.814923 
L 370.489864 553.396693 
L 368.079378 553.954386 
L 365.663436 554.487947 
L 363.242279 554.997322 
L 360.816149 555.482461 
L 358.385289 555.943314 
L 355.949942 556.379837 
L 353.510352 556.791984 
L 351.066763 557.179715 
L 348.619418 557.542992 
L 346.168563 557.881777 
L 343.714443 558.196037 
L 341.257303 558.48574 
L 338.797389 558.750859 
L 336.334946 558.991365 
L 333.870222 559.207235 
L 331.403463 559.398447 
L 328.934914 559.564983 
L 326.464824 559.706825 
L 323.993439 559.82396 
L 321.521006 559.916376 
L 319.047772 559.984062 
L 316.573986 560.027014 
L 314.099893 560.045226 
L 311.625742 560.038697 
L 309.15178 560.007427 
L 306.678255 559.951419 
L 304.205413 559.870679 
L 301.733502 559.765215 
L 299.26277 559.635038 
L 296.793463 559.48016 
L 294.325828 559.300597 
L 291.860112 559.096368 
L 289.396561 558.867492 
L 286.935423 558.613992 
L 284.476942 558.335894 
L 282.021365 558.033226 
L 279.568938 557.706017 
L 277.119905 557.354301 
L 274.674512 556.978112 
L 272.233003 556.577489 
L 269.795622 556.152471 
L 267.362614 555.703101 
L 264.93422 555.229423 
L 262.510685 554.731486 
L 260.09225 554.209339 
L 257.679157 553.663034 
L 255.271648 553.092626 
L 252.869963 552.498171 
L 250.474343 551.87973 
L 248.085027 551.237364 
L 245.702254 550.571137 
L 243.326263 549.881117 
L 240.95729 549.167371 
L 238.595573 548.429971 
L 236.241348 547.668992 
L 233.89485 546.884509 
L 231.556314 546.076601 
L 229.225974 545.245348 
L 226.904063 544.390833 
L 224.590814 543.513143 
L 222.286456 542.612364 
L 219.991222 541.688587 
L 217.705339 540.741905 
L 215.429038 539.772411 
L 213.162546 538.780203 
L 210.906088 537.76538 
L 208.659892 536.728044 
L 206.424181 535.668298 
L 204.199179 534.586248 
L 201.985108 533.482003 
L 199.782191 532.355672 
L 197.590647 531.207369 
L 195.410695 530.037209 
L 193.242554 528.845308 
L 191.08644 527.631785 
L 188.942569 526.396762 
L 186.811154 525.140363 
L 184.692411 523.862712 
L 182.586549 522.563939 
L 180.493781 521.244172 
L 178.414314 519.903544 
L 176.348358 518.542188 
L 174.296118 517.160241 
L 172.2578 515.757842 
L 170.233607 514.335129 
L 168.223743 512.892247 
L 166.228408 511.429338 
L 164.247801 509.946549 
L 162.282121 508.444028 
L 160.331564 506.921927 
L 158.396326 505.380396 
L 156.476599 503.81959 
L 154.572577 502.239665 
L 153.542707 501.371582 
L 148.595087 507.208983 
L 149.656808 508.103914 
L 151.619718 509.732703 
L 153.598818 511.341781 
L 155.593909 512.930988 
L 157.604792 514.500165 
L 159.631266 516.049156 
L 161.673129 517.577804 
L 163.730176 519.085957 
L 165.802201 520.573465 
L 167.888997 522.040179 
L 169.990356 523.485952 
L 172.106067 524.910639 
L 174.235919 526.314099 
L 176.379699 527.69619 
L 178.537192 529.056774 
L 180.708184 530.395716 
L 182.892456 531.712881 
L 185.08979 533.008138 
L 187.299966 534.281358 
L 189.522764 535.532412 
L 191.757961 536.761176 
L 194.005334 537.967527 
L 196.264658 539.151345 
L 198.535707 540.31251 
L 200.818254 541.450907 
L 203.11207 542.566422 
L 205.416927 543.658944 
L 207.732593 544.728363 
L 210.058838 545.774572 
L 212.395428 546.797467 
L 214.742131 547.796945 
L 217.09871 548.772906 
L 219.464932 549.725254 
L 221.840558 550.653891 
L 224.225351 551.558727 
L 226.619074 552.43967 
L 229.021486 553.296632 
L 231.432348 554.129527 
L 233.851417 554.938272 
L 236.278454 555.722787 
L 238.713213 556.482993 
L 241.155454 557.218813 
L 243.60493 557.930175 
L 246.061397 558.617006 
L 248.524609 559.279239 
L 250.99432 559.916807 
L 253.470284 560.529647 
L 255.952252 561.117697 
L 258.439976 561.680898 
L 260.933208 562.219194 
L 263.431698 562.732531 
L 265.935197 563.220858 
L 268.443453 563.684127 
L 270.956217 564.122289 
L 273.473237 564.535303 
L 275.994261 564.923126 
L 278.519036 565.28572 
L 281.047312 565.623049 
L 283.578834 565.935078 
L 286.113351 566.221777 
L 288.650607 566.483117 
L 291.19035 566.719072 
L 293.732325 566.929618 
L 296.276278 567.114734 
L 298.821956 567.274402 
L 301.369103 567.408605 
L 303.917465 567.517331 
L 306.466786 567.600568 
L 309.016812 567.658308 
L 311.567288 567.690545 
L 314.117959 567.697276 
L 316.66857 567.678501 
L 319.218866 567.634221 
L 321.768591 567.564441 
L 324.317491 567.469167 
L 326.865311 567.34841 
L 329.411796 567.20218 
L 331.956691 567.030494 
L 334.499742 566.833368 
L 337.040695 566.610821 
L 339.579295 566.362877 
L 342.115289 566.089559 
L 344.648423 565.790896 
L 347.178444 565.466916 
L 349.705098 565.117653 
L 352.228134 564.743141 
L 354.747299 564.343418 
L 357.26234 563.918524 
L 359.773007 563.468501 
L 362.279048 562.993395 
L 364.780212 562.493252 
L 367.276251 561.968123 
L 369.766913 561.41806 
L 372.25195 560.843118 
L 374.731114 560.243355 
L 377.204156 559.618831 
L 379.67083 558.969608 
L 382.130888 558.295752 
L 384.584084 557.597329 
L 387.030174 556.874409 
L 389.468912 556.127065 
L 391.900055 555.355371 
L 394.32336 554.559405 
L 396.738584 553.739246 
L 399.145486 552.894976 
L 401.543825 552.02668 
L 403.933361 551.134444 
L 406.313855 550.218358 
L 408.68507 549.278513 
L 411.046768 548.315003 
L 413.398713 547.327925 
L 415.74067 546.317377 
L 418.072404 545.283461 
L 420.393683 544.226279 
L 422.704274 543.145938 
L 425.003946 542.042545 
L 427.29247 540.916211 
L 429.569615 539.767049 
L 431.835156 538.595173 
L 434.088865 537.4007 
L 436.330516 536.183751 
L 438.559887 534.944446 
L 440.776753 533.68291 
L 436.958923 527.05129 
z
" clip-path="url(#p11bebcaefa)" style="fill: none; stroke: #000000; stroke-width: 0.5; stroke-linejoin: miter"/>
   </g>
   <g id="patch_27">
    <path d="M 137.701447 486.710789 
L 135.969448 484.943972 
L 134.255204 483.159923 
L 132.558885 481.35882 
L 130.880662 479.540845 
L 129.220703 477.706179 
L 127.579172 475.855006 
L 125.956236 473.98751 
L 124.352055 472.103878 
L 122.76679 470.204299 
L 121.2006 468.288962 
L 119.653641 466.35806 
L 118.126069 464.411785 
L 116.618035 462.450331 
L 115.129691 460.473896 
L 113.661185 458.482676 
L 112.212664 456.476871 
L 110.784274 454.456682 
L 109.376157 452.422309 
L 107.988453 450.373958 
L 106.621302 448.311832 
L 105.27484 446.236138 
L 103.949203 444.147083 
L 102.644521 442.044876 
L 101.360927 439.929728 
L 100.098548 437.801851 
L 98.85751 435.661455 
L 97.637938 433.508757 
L 96.439954 431.343971 
L 95.263677 429.167314 
L 94.109225 426.979002 
L 93.38629 425.581057 
L 86.578162 429.074421 
L 87.323456 430.515602 
L 88.513613 432.771593 
L 89.72627 435.01557 
L 90.961305 437.247308 
L 92.218596 439.466585 
L 93.498016 441.673178 
L 94.799437 443.866866 
L 96.122731 446.047431 
L 97.467763 448.214654 
L 98.8344 450.368319 
L 100.222505 452.50821 
L 101.631939 454.634113 
L 103.062561 456.745816 
L 104.514228 458.843107 
L 105.986796 460.925776 
L 107.480116 462.993617 
L 108.994039 465.046421 
L 110.528415 467.083983 
L 112.083089 469.1061 
L 113.657906 471.112569 
L 115.252709 473.10319 
L 116.867337 475.077764 
L 118.501631 477.036093 
L 120.155426 478.977981 
L 121.828556 480.903235 
L 123.520856 482.811661 
L 125.232154 484.70307 
L 126.962281 486.577271 
L 128.711063 488.434077 
L 130.478325 490.273303 
L 132.263891 492.094764 
L 137.701447 486.710789 
z
" clip-path="url(#p11bebcaefa)" style="fill: none; stroke: #000000; stroke-width: 0.5; stroke-linejoin: miter"/>
   </g>
   <g id="patch_28">
    <path d="M 84.379523 405.965693 
L 83.457628 403.669702 
L 82.558738 401.364607 
L 81.682944 399.050638 
L 80.830333 396.728028 
L 80.00099 394.397008 
L 79.194998 392.05781 
L 78.412439 389.710671 
L 77.653389 387.355823 
L 76.917926 384.993502 
L 76.206122 382.623945 
L 75.518049 380.247388 
L 74.853775 377.86407 
L 74.213368 375.474228 
L 73.596891 373.078102 
L 73.004405 370.675931 
L 72.43597 368.267955 
L 71.891643 365.854416 
L 71.371478 363.435554 
L 71.010939 361.685817 
L 63.51079 363.20304 
L 63.88248 365.006892 
L 64.418732 367.500565 
L 64.979894 369.98875 
L 65.565909 372.471199 
L 66.176719 374.947664 
L 66.812263 377.417897 
L 67.472477 379.881652 
L 68.157295 382.338681 
L 68.866649 384.788739 
L 69.600467 387.231581 
L 70.358677 389.666963 
L 71.141202 392.094642 
L 71.947965 394.514374 
L 72.778884 396.925917 
L 73.633876 399.329031 
L 74.512857 401.723475 
L 75.415737 404.109009 
L 76.342428 406.485396 
L 77.292835 408.852397 
L 84.379523 405.965693 
z
" clip-path="url(#p11bebcaefa)" style="fill: none; stroke: #000000; stroke-width: 0.5; stroke-linejoin: miter"/>
   </g>
   <g id="patch_29">
    <path d="M 67.658154 340.363453 
L 67.393106 337.903532 
L 67.152671 335.441082 
L 66.936871 332.976352 
L 66.745729 330.509587 
L 66.579264 328.041034 
L 66.437492 325.57094 
L 66.320428 323.099551 
L 66.228083 320.627115 
L 66.190507 319.365782 
L 58.541272 319.574138 
L 58.580011 320.874482 
L 58.675212 323.423384 
L 58.795896 325.971208 
L 58.942053 328.517697 
L 59.113666 331.062597 
L 59.31072 333.605654 
L 59.533194 336.146613 
L 59.781066 338.68522 
L 60.054311 341.221222 
L 67.658154 340.363453 
z
" clip-path="url(#p11bebcaefa)" style="fill: none; stroke: #000000; stroke-width: 0.5; stroke-linejoin: miter"/>
   </g>
   <g id="patch_30">
    <path d="M 66.544499 297.784331 
L 66.705291 295.315401 
L 66.890764 292.848204 
L 67.100899 290.382984 
L 67.335676 287.919989 
L 67.59507 285.459464 
L 67.624012 285.198763 
L 60.019113 284.350408 
L 59.989275 284.619172 
L 59.721859 287.155795 
L 59.479821 289.694965 
L 59.263187 292.236429 
L 59.071978 294.779931 
L 58.906213 297.325219 
L 66.544499 297.784331 
z
" clip-path="url(#p11bebcaefa)" style="fill: none; stroke: #000000; stroke-width: 0.5; stroke-linejoin: miter"/>
   </g>
   <g id="patch_31">
    <path d="M 70.950401 263.872266 
L 71.450088 261.449091 
L 71.973981 259.031033 
L 72.522028 256.618336 
L 73.094174 254.211239 
L 73.690363 251.809984 
L 74.310533 249.414811 
L 74.954624 247.02596 
L 75.622571 244.643668 
L 76.314307 242.268175 
L 77.029762 239.899718 
L 77.768867 237.538534 
L 78.531545 235.184859 
L 79.317722 232.838929 
L 80.127319 230.500977 
L 80.960254 228.171238 
L 81.816445 225.849944 
L 82.695805 223.537329 
L 83.598247 221.233622 
L 84.523681 218.939055 
L 85.472013 216.653857 
L 86.44315 214.378256 
L 87.436994 212.112481 
L 88.453446 209.856757 
L 89.492403 207.61131 
L 90.553763 205.376364 
L 91.637419 203.152144 
L 92.743263 200.938871 
L 93.871183 198.736768 
L 95.021068 196.546053 
L 96.192802 194.366947 
L 97.386268 192.199667 
L 98.601347 190.044429 
L 99.837917 187.90145 
L 101.095855 185.770944 
L 101.146755 185.685753 
L 94.578641 181.759676 
L 94.526168 181.847501 
L 93.229325 184.043899 
L 91.95451 186.253156 
L 90.701851 188.47505 
L 89.471474 190.70936 
L 88.2635 192.955861 
L 87.078052 195.21433 
L 85.915247 197.48454 
L 84.775203 199.766264 
L 83.658032 202.059274 
L 82.563846 204.363342 
L 81.492756 206.678236 
L 80.444868 209.003724 
L 79.420286 211.339576 
L 78.419114 213.685556 
L 77.441452 216.04143 
L 76.487396 218.406963 
L 75.557044 220.781918 
L 74.650487 223.166058 
L 73.767816 225.559144 
L 72.90912 227.960937 
L 72.074484 230.371196 
L 71.263992 232.789682 
L 70.477726 235.216151 
L 69.715763 237.650361 
L 68.978179 240.092069 
L 68.26505 242.541031 
L 67.576445 244.997002 
L 66.912433 247.459735 
L 66.273082 249.928986 
L 65.658455 252.404506 
L 65.068614 254.886049 
L 64.503617 257.373366 
L 63.963521 259.866209 
L 63.44838 262.364328 
L 70.950401 263.872266 
z
" clip-path="url(#p11bebcaefa)" style="fill: none; stroke: #000000; stroke-width: 0.5; stroke-linejoin: miter"/>
   </g>
   <g id="patch_32">
    <path d="M 113.01871 167.659633 
L 114.478404 165.661944 
L 115.958001 163.678952 
L 117.457353 161.710855 
L 118.976312 159.757849 
L 120.514724 157.820131 
L 122.072436 155.897893 
L 123.649293 153.991328 
L 125.245136 152.100627 
L 126.859805 150.225979 
L 128.493141 148.36757 
L 130.144978 146.525588 
L 131.815152 144.700216 
L 133.503496 142.891637 
L 135.209842 141.100031 
L 136.934017 139.325578 
L 138.675851 137.568455 
L 140.435168 135.828838 
L 142.211794 134.106901 
L 144.00555 132.402816 
L 145.816256 130.716753 
L 147.643733 129.048882 
L 149.487796 127.399368 
L 151.348262 125.768377 
L 153.224945 124.156072 
L 155.117657 122.562615 
L 157.026208 120.988163 
L 158.950408 119.432876 
L 160.890065 117.896908 
L 162.844984 116.380413 
L 164.81497 114.883543 
L 166.799826 113.406447 
L 168.799353 111.949273 
L 170.813352 110.512167 
L 172.841621 109.095273 
L 174.883957 107.698731 
L 176.940157 106.322683 
L 179.010014 104.967265 
L 179.933605 104.371947 
L 175.802198 97.93101 
L 174.850042 98.544739 
L 172.716169 99.942077 
L 170.596376 101.360684 
L 168.490875 102.800417 
L 166.399876 104.261133 
L 164.323588 105.742686 
L 162.26222 107.244927 
L 160.215976 108.767706 
L 158.185063 110.310871 
L 156.169683 111.874268 
L 154.170037 113.45774 
L 152.186325 115.061129 
L 150.218746 116.684275 
L 148.267497 118.327015 
L 146.332773 119.989185 
L 144.414766 121.670619 
L 142.51367 123.371148 
L 140.629674 125.090603 
L 138.762966 126.828812 
L 136.913733 128.585601 
L 135.082161 130.360794 
L 133.268431 132.154213 
L 131.472726 133.96568 
L 129.695226 135.795013 
L 127.936107 137.642029 
L 126.195546 139.506544 
L 124.473717 141.388371 
L 122.770792 143.287322 
L 121.086941 145.203207 
L 119.422333 147.135834 
L 117.777134 149.085011 
L 116.151509 151.050541 
L 114.54562 153.03223 
L 112.959628 155.029878 
L 111.393692 157.043285 
L 109.847967 159.072251 
L 108.322609 161.116573 
L 106.81777 163.176046 
L 113.01871 167.659633 
z
" clip-path="url(#p11bebcaefa)" style="fill: none; stroke: #000000; stroke-width: 0.5; stroke-linejoin: miter"/>
   </g>
   <g id="patch_33">
    <path d="M 198.592718 93.521977 
L 200.789497 92.383721 
L 202.997549 91.267489 
L 205.216652 90.173393 
L 207.446585 89.101543 
L 209.687125 88.052045 
L 211.938048 87.025005 
L 214.199129 86.020525 
L 216.470141 85.038706 
L 217.63217 84.546709 
L 214.666699 77.492619 
L 213.46873 77.999833 
L 211.12748 79.012018 
L 208.79647 80.047564 
L 206.475931 81.106368 
L 204.166096 82.188325 
L 201.867195 83.293325 
L 199.57946 84.421259 
L 197.303118 85.572013 
L 195.038397 86.745473 
L 198.592718 93.521977 
z
" clip-path="url(#p11bebcaefa)" style="fill: none; stroke: #000000; stroke-width: 0.5; stroke-linejoin: miter"/>
   </g>
   <g id="patch_34">
    <path d="M 237.875712 77.057826 
L 240.235166 76.313216 
L 242.601948 75.592238 
L 244.975821 74.894964 
L 247.356548 74.221462 
L 249.743891 73.571802 
L 252.137611 72.946046 
L 254.076284 72.457927 
L 252.23795 65.029958 
L 250.239318 65.533174 
L 247.771565 66.178282 
L 245.310387 66.848036 
L 242.856029 67.542367 
L 240.408737 68.261206 
L 237.968756 69.004483 
L 235.536329 69.772121 
L 237.875712 77.057826 
z
" clip-path="url(#p11bebcaefa)" style="fill: none; stroke: #000000; stroke-width: 0.5; stroke-linejoin: miter"/>
   </g>
   <g id="patch_35">
    <path d="M 275.234751 68.191359 
L 277.681 67.820778 
L 280.130833 67.474676 
L 282.584004 67.15309 
L 285.040268 66.856052 
L 287.499379 66.58359 
L 289.961093 66.335733 
L 291.951943 66.153448 
L 291.285021 58.530495 
L 289.232598 58.718417 
L 286.694749 58.97394 
L 284.159583 59.254828 
L 281.627352 59.561054 
L 279.098309 59.892586 
L 276.572709 60.249391 
L 274.050803 60.631434 
L 275.234751 68.191359 
z
" clip-path="url(#p11bebcaefa)" style="fill: none; stroke: #000000; stroke-width: 0.5; stroke-linejoin: miter"/>
   </g>
   <g id="text_1">
    <text style="font: 10px 'DejaVu Sans', 'Bitstream Vera Sans', 'Computer Modern Sans Serif', 'Lucida Grande', 'Verdana', 'Geneva', 'Lucid', 'Arial', 'Helvetica', 'Avant Garde', sans-serif; text-anchor: middle" x="366.007214" y="47.880297" transform="rotate(-348.785461 366.007214 47.880297)">CA1v</text>
   </g>
   <g id="text_2">
    <text style="font: 10px 'DejaVu Sans', 'Bitstream Vera Sans', 'Computer Modern Sans Serif', 'Lucida Grande', 'Verdana', 'Geneva', 'Lucid', 'Arial', 'Helvetica', 'Avant Garde', sans-serif; text-anchor: middle" x="487.389133" y="106.194339" transform="rotate(-319.893617 487.389133 106.194339)">CA1d</text>
   </g>
   <g id="text_3">
    <text style="font: 10px 'DejaVu Sans', 'Bitstream Vera Sans', 'Computer Modern Sans Serif', 'Lucida Grande', 'Verdana', 'Geneva', 'Lucid', 'Arial', 'Helvetica', 'Avant Garde', sans-serif; text-anchor: middle" x="568.634331" y="224.52839" transform="rotate(-289.051418 568.634331 224.52839)">SUBv</text>
   </g>
   <g id="text_4">
    <text style="font: 10px 'DejaVu Sans', 'Bitstream Vera Sans', 'Computer Modern Sans Serif', 'Lucida Grande', 'Verdana', 'Geneva', 'Lucid', 'Arial', 'Helvetica', 'Avant Garde', sans-serif; text-anchor: middle" x="588.889224" y="317.742472" transform="rotate(-88.93617 588.889224 317.742472)">SUBd</text>
   </g>
   <g id="text_5">
    <text style="font: 10px 'DejaVu Sans', 'Bitstream Vera Sans', 'Computer Modern Sans Serif', 'Lucida Grande', 'Verdana', 'Geneva', 'Lucid', 'Arial', 'Helvetica', 'Avant Garde', sans-serif; text-anchor: middle" x="583.931583" y="364.897239" transform="rotate(-79.060284 583.931583 364.897239)">POST</text>
   </g>
   <g id="text_6">
    <text style="font: 10px 'DejaVu Sans', 'Bitstream Vera Sans', 'Computer Modern Sans Serif', 'Lucida Grande', 'Verdana', 'Geneva', 'Lucid', 'Arial', 'Helvetica', 'Avant Garde', sans-serif; text-anchor: middle" x="548.243769" y="456.710352" transform="rotate(-58.457447 548.243769 456.710352)">VTA</text>
   </g>
   <g id="text_7">
    <text style="font: 10px 'DejaVu Sans', 'Bitstream Vera Sans', 'Computer Modern Sans Serif', 'Lucida Grande', 'Verdana', 'Geneva', 'Lucid', 'Arial', 'Helvetica', 'Avant Garde', sans-serif; text-anchor: middle" x="482.53054" y="530.09318" transform="rotate(-37.85461 482.53054 530.09318)">VRA</text>
   </g>
   <g id="text_8">
    <text style="font: 10px 'DejaVu Sans', 'Bitstream Vera Sans', 'Computer Modern Sans Serif', 'Lucida Grande', 'Verdana', 'Geneva', 'Lucid', 'Arial', 'Helvetica', 'Avant Garde', sans-serif; text-anchor: middle" x="288.662291" y="586.926221" transform="rotate(-354.822695 288.662291 586.926221)">RAP</text>
   </g>
   <g id="text_9">
    <text style="font: 10px 'DejaVu Sans', 'Bitstream Vera Sans', 'Computer Modern Sans Serif', 'Lucida Grande', 'Verdana', 'Geneva', 'Lucid', 'Arial', 'Helvetica', 'Avant Garde', sans-serif; text-anchor: middle" x="90.525323" y="474.282773" transform="rotate(-305.939716 90.525323 474.282773)">SN</text>
   </g>
   <g id="text_10">
    <text style="font: 10px 'DejaVu Sans', 'Bitstream Vera Sans', 'Computer Modern Sans Serif', 'Lucida Grande', 'Verdana', 'Geneva', 'Lucid', 'Arial', 'Helvetica', 'Avant Garde', sans-serif; text-anchor: middle" x="49.849422" y="392.232712" transform="rotate(-286.799645 49.849422 392.232712)">RET</text>
   </g>
   <g id="text_11">
    <text style="font: 10px 'DejaVu Sans', 'Bitstream Vera Sans', 'Computer Modern Sans Serif', 'Lucida Grande', 'Verdana', 'Geneva', 'Lucid', 'Arial', 'Helvetica', 'Avant Garde', sans-serif; text-anchor: middle" x="38.765127" y="331.832825" transform="rotate(-273.998227 38.765127 331.832825)">PAG</text>
   </g>
   <g id="text_12">
    <text style="font: 10px 'DejaVu Sans', 'Bitstream Vera Sans', 'Computer Modern Sans Serif', 'Lucida Grande', 'Verdana', 'Geneva', 'Lucid', 'Arial', 'Helvetica', 'Avant Garde', sans-serif; text-anchor: middle" x="44.600972" y="289.563068" transform="rotate(-85.097518 44.600972 289.563068)">OMA</text>
   </g>
   <g id="text_13">
    <text style="font: 10px 'DejaVu Sans', 'Bitstream Vera Sans', 'Computer Modern Sans Serif', 'Lucida Grande', 'Verdana', 'Geneva', 'Lucid', 'Arial', 'Helvetica', 'Avant Garde', sans-serif; text-anchor: middle" x="61.738425" y="215.390204" transform="rotate(-68.882979 61.738425 215.390204)">DG</text>
   </g>
   <g id="text_14">
    <text style="font: 10px 'DejaVu Sans', 'Bitstream Vera Sans', 'Computer Modern Sans Serif', 'Lucida Grande', 'Verdana', 'Geneva', 'Lucid', 'Arial', 'Helvetica', 'Avant Garde', sans-serif; text-anchor: middle" x="128.054763" y="116.53861" transform="rotate(-43.404255 128.054763 116.53861)">CA3</text>
   </g>
   <g id="text_15">
    <text style="font: 10px 'DejaVu Sans', 'Bitstream Vera Sans', 'Computer Modern Sans Serif', 'Lucida Grande', 'Verdana', 'Geneva', 'Lucid', 'Arial', 'Helvetica', 'Avant Garde', sans-serif; text-anchor: middle" x="198.429243" y="68.493133" transform="rotate(-25.239362 198.429243 68.493133)">CA2</text>
   </g>
   <g id="text_16">
    <text style="font: 10px 'DejaVu Sans', 'Bitstream Vera Sans', 'Computer Modern Sans Serif', 'Lucida Grande', 'Verdana', 'Geneva', 'Lucid', 'Arial', 'Helvetica', 'Avant Garde', sans-serif; text-anchor: middle" x="239.79529" y="52.989785" transform="rotate(-15.851064 239.79529 52.989785)">PAR</text>
   </g>
   <g id="text_17">
    <text style="font: 10px 'DejaVu Sans', 'Bitstream Vera Sans', 'Computer Modern Sans Serif', 'Lucida Grande', 'Verdana', 'Geneva', 'Lucid', 'Arial', 'Helvetica', 'Avant Garde', sans-serif; text-anchor: middle" x="280.855083" y="44.71015" transform="rotate(-6.950355 280.855083 44.71015)">PRE</text>
   </g>
  </g>
 </g>
 <defs>
  <clipPath id="p11bebcaefa">
   <path d="M 581.33826 312.628934 
C 581.33826 277.458805 574.410511 242.63066 560.951486 210.137698 
C 547.49246 177.644735 527.763901 148.11886 502.894864 123.249824 
C 478.025827 98.380787 448.499952 78.652228 416.00699 65.193202 
C 383.514027 51.734176 348.685883 44.806428 313.515754 44.806428 
C 278.345625 44.806428 243.51748 51.734176 211.024518 65.193202 
C 178.531555 78.652228 149.00568 98.380787 124.136644 123.249824 
C 99.267607 148.11886 79.539048 177.644735 66.080022 210.137698 
C 52.620996 242.63066 45.693248 277.458805 45.693248 312.628934 
C 45.693248 347.799063 52.620996 382.627207 66.080022 415.12017 
C 79.539048 447.613132 99.267607 477.139007 124.136644 502.008044 
C 149.00568 526.877081 178.531555 546.60564 211.024518 560.064666 
C 243.51748 573.523691 278.345625 580.45144 313.515754 580.45144 
C 348.685883 580.45144 383.514027 573.523691 416.00699 560.064666 
C 448.499952 546.60564 478.025827 526.877081 502.894864 502.008044 
C 527.763901 477.139007 547.49246 447.613132 560.951486 415.12017 
C 574.410511 382.627207 581.33826 347.799063 581.33826 312.628934 
M 313.515754 312.628934 
C 313.515754 312.628934 313.515754 312.628934 313.515754 312.628934 
C 313.515754 312.628934 313.515754 312.628934 313.515754 312.628934 
C 313.515754 312.628934 313.515754 312.628934 313.515754 312.628934 
C 313.515754 312.628934 313.515754 312.628934 313.515754 312.628934 
C 313.515754 312.628934 313.515754 312.628934 313.515754 312.628934 
C 313.515754 312.628934 313.515754 312.628934 313.515754 312.628934 
C 313.515754 312.628934 313.515754 312.628934 313.515754 312.628934 
C 313.515754 312.628934 313.515754 312.628934 313.515754 312.628934 
C 313.515754 312.628934 313.515754 312.628934 313.515754 312.628934 
C 313.515754 312.628934 313.515754 312.628934 313.515754 312.628934 
C 313.515754 312.628934 313.515754 312.628934 313.515754 312.628934 
C 313.515754 312.628934 313.515754 312.628934 313.515754 312.628934 
C 313.515754 312.628934 313.515754 312.628934 313.515754 312.628934 
C 313.515754 312.628934 313.515754 312.628934 313.515754 312.628934 
C 313.515754 312.628934 313.515754 312.628934 313.515754 312.628934 
C 313.515754 312.628934 313.515754 312.628934 313.515754 312.628934 
z
"/>
  </clipPath>
 </defs>
</svg>
