<?xml version="1.0" encoding="utf-8" standalone="no"?>
<!DOCTYPE svg PUBLIC "-//W3C//DTD SVG 1.1//EN"
  "http://www.w3.org/Graphics/SVG/1.1/DTD/svg11.dtd">
<svg xmlns:xlink="http://www.w3.org/1999/xlink" width="625.547007pt" height="625.959307pt" viewBox="0 0 625.547007 625.959307" xmlns="http://www.w3.org/2000/svg" version="1.1">
 <metadata>
  <rdf:RDF xmlns:dc="http://purl.org/dc/elements/1.1/" xmlns:cc="http://creativecommons.org/ns#" xmlns:rdf="http://www.w3.org/1999/02/22-rdf-syntax-ns#">
   <cc:Work>
    <dc:type rdf:resource="http://purl.org/dc/dcmitype/StillImage"/>
    <dc:date>2024-12-19T10:34:06.856255</dc:date>
    <dc:format>image/svg+xml</dc:format>
    <dc:creator>
     <cc:Agent>
      <dc:title>Matplotlib v3.9.3, https://matplotlib.org/</dc:title>
     </cc:Agent>
    </dc:creator>
   </cc:Work>
  </rdf:RDF>
 </metadata>
 <defs>
  <style type="text/css">*{stroke-linejoin: round; stroke-linecap: butt}</style>
 </defs>
 <g id="figure_1">
  <g id="patch_1">
   <path d="M 0 625.959307 
L 625.547007 625.959307 
L 625.547007 0 
L 0 0 
z
" style="fill: #ffffff"/>
  </g>
  <g id="axes_1">
   <g id="patch_2">
    <path d="M 313.709362 64.814223 
L 316.183529 64.826594 
L 318.657448 64.863706 
L 321.130872 64.925554 
L 323.603554 65.012133 
L 326.075247 65.123435 
L 328.545703 65.259447 
L 331.014675 65.420156 
L 333.481917 65.605547 
L 335.947182 65.815601 
L 338.410223 66.050296 
L 340.870794 66.30961 
L 343.328649 66.593516 
L 345.783541 66.901986 
L 348.235227 67.234989 
L 350.68346 67.592492 
L 353.127995 67.974458 
L 355.568589 68.380851 
L 358.004997 68.811629 
L 360.436975 69.266749 
L 362.864281 69.746166 
L 365.286671 70.249831 
L 367.703903 70.777695 
L 370.115736 71.329704 
L 372.521929 71.905803 
L 374.92224 72.505936 
L 377.31643 73.13004 
L 379.704259 73.778056 
L 382.085489 74.449916 
L 384.459882 75.145555 
L 386.827199 75.864903 
L 389.187205 76.607888 
L 391.539663 77.374435 
L 393.884337 78.164468 
L 396.220995 78.977908 
L 398.549401 79.814673 
L 400.869324 80.67468 
L 403.18053 81.557843 
L 405.48279 82.464074 
L 407.775872 83.393281 
L 410.059548 84.345373 
L 412.333589 85.320253 
L 414.597767 86.317824 
L 416.851857 87.337987 
L 418.688075 88.189223 
L 421.93484 81.259972 
L 420.041831 80.38241 
L 417.718027 79.330695 
L 415.383823 78.302271 
L 413.039451 77.29724 
L 410.685146 76.315703 
L 408.321143 75.357757 
L 405.94768 74.423498 
L 403.564993 73.513021 
L 401.17332 72.626416 
L 398.772901 71.763771 
L 396.363976 70.925173 
L 393.946785 70.110706 
L 391.521571 69.320452 
L 389.088575 68.554488 
L 386.648042 67.812892 
L 384.200215 67.095739 
L 381.745339 66.403099 
L 379.283659 65.735042 
L 376.815422 65.091635 
L 374.340874 64.472942 
L 371.860263 63.879025 
L 369.373838 63.309943 
L 366.881845 62.765754 
L 364.384536 62.246511 
L 361.882159 61.752267 
L 359.374965 61.283071 
L 356.863204 60.83897 
L 354.347128 60.420009 
L 351.826989 60.026229 
L 349.303037 59.657669 
L 346.775526 59.314367 
L 344.244709 58.996357 
L 341.710838 58.70367 
L 339.174167 58.436337 
L 336.63495 58.194383 
L 334.09344 57.977833 
L 331.549891 57.786708 
L 329.004559 57.621028 
L 326.457697 57.480809 
L 323.90956 57.366065 
L 321.360403 57.276809 
L 318.810481 57.213047 
L 316.260049 57.174788 
L 313.709362 57.162034 
z
" clip-path="url(#p6c7b2f459b)" style="fill: #000080"/>
   </g>
   <g id="patch_3">
    <path d="M 437.815475 98.191282 
L 439.949671 99.443025 
L 442.071243 100.716046 
L 444.17998 102.01022 
L 446.275669 103.325415 
L 448.358101 104.661502 
L 450.427069 106.018345 
L 452.482366 107.39581 
L 454.523785 108.793759 
L 456.551122 110.212052 
L 458.564176 111.650546 
L 460.562745 113.1091 
L 462.546628 114.587565 
L 464.515627 116.085795 
L 466.469546 117.60364 
L 468.408189 119.140948 
L 470.331363 120.697565 
L 472.238874 122.273336 
L 474.130533 123.868103 
L 476.006149 125.481706 
L 477.865536 127.113984 
L 479.708508 128.764775 
L 481.534879 130.433912 
L 483.344469 132.121229 
L 485.137094 133.826557 
L 486.912578 135.549726 
L 488.670741 137.290564 
L 490.411408 139.048896 
L 492.134405 140.824546 
L 493.83956 142.617337 
L 495.526702 144.42709 
L 497.195662 146.253623 
L 498.846274 148.096755 
L 500.478372 149.9563 
L 502.091793 151.832073 
L 503.686377 153.723886 
L 505.261963 155.63155 
L 506.818394 157.554874 
L 508.355514 159.493666 
L 509.873169 161.447732 
L 511.371208 163.416877 
L 512.849482 165.400903 
L 514.307841 167.399613 
L 515.746141 169.412806 
L 517.164237 171.440281 
L 517.179389 171.462178 
L 523.472276 167.10838 
L 523.456656 167.085805 
L 521.994701 164.995625 
L 520.511918 162.920168 
L 519.008455 160.859642 
L 517.484461 158.814254 
L 515.940091 156.784208 
L 514.375498 154.769707 
L 512.790838 152.770953 
L 511.18627 150.788144 
L 509.561955 148.82148 
L 507.918054 146.871158 
L 506.254733 144.937371 
L 504.572158 143.020314 
L 502.870496 141.120179 
L 501.149918 139.237155 
L 499.410597 137.37143 
L 497.652705 135.523192 
L 495.87642 133.692625 
L 494.081918 131.879912 
L 492.269378 130.085234 
L 490.438983 128.308771 
L 488.590915 126.5507 
L 486.725359 124.811198 
L 484.842502 123.090438 
L 482.942531 121.388592 
L 481.025637 119.705831 
L 479.092012 118.042322 
L 477.141849 116.398233 
L 475.175342 114.773727 
L 473.192689 113.168967 
L 471.194088 111.584114 
L 469.179738 110.019325 
L 467.149842 108.474758 
L 465.104602 106.950567 
L 463.044222 105.446904 
L 460.968909 103.963919 
L 458.87887 102.501762 
L 456.774314 101.060578 
L 454.655452 99.640511 
L 452.522495 98.241703 
L 450.375658 96.864294 
L 448.215153 95.508422 
L 446.041198 94.174223 
L 443.854011 92.86183 
L 441.653808 91.571374 
z
" clip-path="url(#p6c7b2f459b)" style="fill: #0000c8"/>
   </g>
   <g id="patch_4">
    <path d="M 528.674283 189.731442 
L 529.88855 191.887181 
L 531.081199 194.054954 
L 532.252112 196.234545 
L 533.40117 198.425736 
L 534.528259 200.628308 
L 535.633266 202.842041 
L 536.716081 205.066712 
L 537.776596 207.302101 
L 537.876611 207.515931 
L 544.809618 204.277198 
L 544.70651 204.056753 
L 543.613196 201.752229 
L 542.496892 199.458753 
L 541.357709 197.176555 
L 540.195762 194.905862 
L 539.011166 192.646902 
L 537.80404 190.399901 
L 536.574504 188.165084 
L 535.322683 185.942673 
z
" clip-path="url(#p6c7b2f459b)" style="fill: #0000ff"/>
   </g>
   <g id="patch_5">
    <path d="M 546.150454 227.451882 
L 546.986649 229.780493 
L 547.799517 232.11735 
L 548.588975 234.462219 
L 549.354946 236.814864 
L 550.097353 239.175052 
L 550.816121 241.542545 
L 551.511178 243.917108 
L 552.182456 246.298502 
L 552.829886 248.68649 
L 553.453404 251.080833 
L 554.052949 253.481291 
L 554.628459 255.887625 
L 555.179877 258.299593 
L 555.707149 260.716954 
L 556.210221 263.139468 
L 556.689043 265.566891 
L 557.143567 267.99898 
L 557.573749 270.435494 
L 557.979543 272.876187 
L 558.360912 275.320816 
L 558.717815 277.769136 
L 559.050217 280.220903 
L 559.358086 282.675872 
L 559.64139 285.133796 
L 559.900101 287.59443 
L 560.134193 290.057529 
L 560.343643 292.522845 
L 560.528429 294.990132 
L 560.688534 297.459144 
L 560.823941 299.929633 
L 560.934637 302.401353 
L 561.020611 304.874056 
L 561.081853 307.347495 
L 561.118359 309.821424 
L 561.130124 312.295593 
L 561.117147 314.769756 
L 561.079429 317.243666 
L 561.016975 319.717075 
L 560.92979 322.189736 
L 560.868173 323.617412 
L 568.512259 323.969445 
L 568.575783 322.497615 
L 568.665664 319.94848 
L 568.73005 317.398574 
L 568.768934 314.848151 
L 568.782312 312.297467 
L 568.770184 309.746777 
L 568.732549 307.196336 
L 568.669412 304.646398 
L 568.58078 302.09722 
L 568.46666 299.549055 
L 568.327065 297.002159 
L 568.162008 294.456786 
L 567.971507 291.913191 
L 567.755579 289.371628 
L 567.514247 286.832351 
L 567.247535 284.295615 
L 566.955469 281.761672 
L 566.638079 279.230777 
L 566.295396 276.703182 
L 565.927454 274.17914 
L 565.534291 271.658904 
L 565.115946 269.142726 
L 564.67246 266.630856 
L 564.203879 264.123547 
L 563.710247 261.62105 
L 563.191617 259.123613 
L 562.648038 256.631488 
L 562.079565 254.144922 
L 561.486256 251.664166 
L 560.868169 249.189467 
L 560.225366 246.721073 
L 559.557912 244.259229 
L 558.865873 241.804184 
L 558.149319 239.356181 
L 557.408322 236.915466 
L 556.642954 234.482283 
L 555.853293 232.056875 
L 555.039418 229.639485 
L 554.201411 227.230354 
L 553.339354 224.829724 
z
" clip-path="url(#p6c7b2f459b)" style="fill: #0040ff"/>
   </g>
   <g id="patch_6">
    <path d="M 558.935615 345.115408 
L 558.594556 347.565986 
L 558.229007 350.01303 
L 557.839007 352.456297 
L 557.424595 354.895542 
L 556.985811 357.33052 
L 556.522699 359.760989 
L 556.035306 362.186706 
L 555.523681 364.607428 
L 554.987875 367.022912 
L 554.427941 369.432917 
L 553.843936 371.837203 
L 553.235917 374.235529 
L 552.603946 376.627654 
L 551.948085 379.013341 
L 551.268401 381.39235 
L 550.564961 383.764442 
L 549.837836 386.129383 
L 549.087098 388.486933 
L 548.312822 390.836859 
L 547.515087 393.178924 
L 546.693971 395.512895 
L 545.849556 397.838539 
L 544.981928 400.155622 
L 544.091173 402.463913 
L 543.17738 404.763181 
L 542.24064 407.053197 
L 541.281048 409.333731 
L 540.298698 411.604555 
L 539.293689 413.865442 
L 538.266123 416.116166 
L 537.216101 418.356502 
L 536.171102 420.530011 
L 543.051362 423.879342 
L 544.12868 421.638611 
L 545.211177 419.328986 
L 546.270524 417.008652 
L 547.306615 414.67784 
L 548.319347 412.336784 
L 549.308618 409.985719 
L 550.274329 407.624878 
L 551.216384 405.254498 
L 552.134688 402.874817 
L 553.02915 400.486071 
L 553.89968 398.088501 
L 554.746192 395.682345 
L 555.5686 393.267844 
L 556.366822 390.845241 
L 557.140778 388.414776 
L 557.890392 385.976694 
L 558.615588 383.531237 
L 559.316293 381.078651 
L 559.992438 378.61918 
L 560.643955 376.153071 
L 561.270778 373.680571 
L 561.872846 371.201925 
L 562.450097 368.717384 
L 563.002475 366.227194 
L 563.529923 363.731604 
L 564.03239 361.230866 
L 564.509824 358.725227 
L 564.962179 356.21494 
L 565.389409 353.700255 
L 565.791471 351.181423 
L 566.168324 348.658697 
L 566.519933 346.132328 
z
" clip-path="url(#p6c7b2f459b)" style="fill: #0080ff"/>
   </g>
   <g id="patch_7">
    <path d="M 525.886035 439.506734 
L 524.60273 441.622102 
L 523.298336 443.724531 
L 521.972983 445.813812 
L 520.626804 447.889734 
L 519.259934 449.952092 
L 517.872508 452.000677 
L 516.464667 454.035287 
L 515.03655 456.055716 
L 513.5883 458.061763 
L 512.120063 460.053228 
L 510.631985 462.029911 
L 509.124214 463.991615 
L 507.596903 465.938143 
L 506.050203 467.869301 
L 504.484269 469.784896 
L 502.899257 471.684736 
L 501.295327 473.568631 
L 499.672638 475.436392 
L 498.031353 477.287834 
L 496.371636 479.122771 
L 494.693653 480.941019 
L 492.997572 482.742396 
L 491.283562 484.526723 
L 489.551795 486.293821 
L 487.802443 488.043513 
L 486.035683 489.775625 
L 484.25169 491.489982 
L 482.450643 493.186414 
L 480.632722 494.864751 
L 478.798109 496.524826 
L 476.946987 498.166471 
L 475.079541 499.789524 
L 473.195959 501.393821 
L 471.296428 502.979203 
L 469.381138 504.54551 
L 467.450281 506.092586 
L 465.504051 507.620277 
L 463.542641 509.128429 
L 461.566248 510.616893 
L 459.575069 512.085518 
L 457.569304 513.534158 
L 455.549153 514.962669 
L 453.514818 516.370907 
L 451.466502 517.758731 
L 449.404411 519.126004 
L 447.328751 520.472587 
L 446.279931 521.141864 
L 450.380052 527.602902 
L 451.461309 526.912925 
L 453.601166 525.524695 
L 455.727032 524.115136 
L 457.838698 522.684389 
L 459.93595 521.232597 
L 462.01858 519.759906 
L 464.086379 518.266462 
L 466.139141 516.752415 
L 468.17666 515.217917 
L 470.198732 513.663121 
L 472.205155 512.088182 
L 474.195729 510.493258 
L 476.170254 508.878508 
L 478.128534 507.244094 
L 480.070371 505.59018 
L 481.995573 503.916929 
L 483.903946 502.224511 
L 485.7953 500.513095 
L 487.669445 498.78285 
L 489.526195 497.033951 
L 491.365363 495.266572 
L 493.186766 493.48089 
L 494.990221 491.677084 
L 496.775548 489.855333 
L 498.542568 488.015821 
L 500.291106 486.158731 
L 502.020985 484.284248 
L 503.732033 482.392561 
L 505.42408 480.483858 
L 507.096955 478.558331 
L 508.750491 476.616171 
L 510.384523 474.657573 
L 511.998888 472.682733 
L 513.593425 470.691849 
L 515.167973 468.685119 
L 516.722375 466.662744 
L 518.256476 464.624926 
L 519.770123 462.57187 
L 521.263164 460.503779 
L 522.735449 458.420863 
L 524.186832 456.323327 
L 525.617168 454.211383 
L 527.026313 452.085242 
L 528.414126 449.945116 
L 529.78047 447.791218 
L 531.125206 445.623765 
L 532.448201 443.442974 
z
" clip-path="url(#p6c7b2f459b)" style="fill: #00c0ff"/>
   </g>
   <g id="patch_8">
    <path d="M 427.568027 531.901197 
L 425.365708 533.028781 
L 423.152224 534.134287 
L 420.927796 535.217602 
L 418.692647 536.27862 
L 416.446998 537.317233 
L 414.191077 538.333338 
L 411.925107 539.326834 
L 409.649316 540.29762 
L 407.36393 541.245601 
L 405.06918 542.17068 
L 402.765293 543.072767 
L 400.452501 543.951769 
L 398.131035 544.807601 
L 395.801127 545.640175 
L 394.885923 545.960051 
L 397.396538 553.188661 
L 398.340047 552.858892 
L 400.742015 552.000568 
L 403.135279 551.118268 
L 405.5196 550.212079 
L 407.894741 549.282093 
L 410.260463 548.328403 
L 412.616531 547.351104 
L 414.962707 546.350293 
L 417.298759 545.32607 
L 419.624451 544.278539 
L 421.939552 543.207804 
L 424.24383 542.113972 
L 426.537055 540.997151 
L 428.818997 539.857455 
L 431.089429 538.694997 
z
" clip-path="url(#p6c7b2f459b)" style="fill: #16ffe1"/>
   </g>
   <g id="patch_9">
    <path d="M 374.20654 552.14566 
L 371.804449 552.738626 
L 369.396548 553.307542 
L 366.983078 553.852351 
L 365.537359 554.166585 
L 367.140287 561.649006 
L 368.630719 561.325053 
L 371.118832 560.763394 
L 373.601204 560.176883 
L 376.077587 559.565577 
z
" clip-path="url(#p6c7b2f459b)" style="fill: #49ffad"/>
   </g>
   <g id="patch_10">
    <path d="M 344.25441 557.76307 
L 341.797643 558.056239 
L 339.338067 558.324826 
L 336.875928 558.568805 
L 335.402545 558.702927 
L 336.073468 566.325646 
L 337.59242 566.187376 
L 340.130707 565.935852 
L 342.666353 565.658958 
L 345.199102 565.356722 
z
" clip-path="url(#p6c7b2f459b)" style="fill: #7dff7a"/>
   </g>
   <g id="patch_11">
    <path d="M 313.8389 559.655727 
L 311.364727 559.644652 
L 308.890789 559.608835 
L 306.417333 559.548282 
L 303.944606 559.462997 
L 302.91702 559.420272 
L 302.583236 567.065177 
L 303.642603 567.109224 
L 306.191806 567.197147 
L 308.741761 567.259573 
L 311.292213 567.296497 
L 313.842906 567.307915 
z
" clip-path="url(#p6c7b2f459b)" style="fill: #b1ff46"/>
   </g>
   <g id="patch_12">
    <path d="M 281.414471 557.539042 
L 278.963086 557.203834 
L 276.515176 556.844128 
L 274.070985 556.459962 
L 271.630758 556.051374 
L 269.194739 555.618404 
L 266.763171 555.161096 
L 264.336298 554.679496 
L 261.914362 554.173652 
L 259.497605 553.643613 
L 257.08627 553.089435 
L 254.680597 552.51117 
L 252.280826 551.908879 
L 249.887199 551.28262 
L 247.499953 550.632457 
L 245.119329 549.958454 
L 242.745563 549.260679 
L 240.378894 548.539202 
L 238.019558 547.794094 
L 235.667791 547.025431 
L 233.323828 546.233289 
L 230.987903 545.417747 
L 228.66025 544.578887 
L 226.341102 543.716793 
L 224.030691 542.831551 
L 221.729248 541.92325 
L 219.437003 540.991979 
L 217.154185 540.037834 
L 214.881022 539.060908 
L 212.617742 538.0613 
L 210.364571 537.039109 
L 208.121734 535.994439 
L 205.889457 534.927392 
L 203.667961 533.838076 
L 201.457469 532.726601 
L 199.258202 531.593076 
L 197.07038 530.437616 
L 194.894222 529.260335 
L 192.729946 528.061352 
L 190.577767 526.840787 
L 188.437901 525.598762 
L 186.310563 524.3354 
L 184.195964 523.050828 
L 182.094316 521.745175 
L 180.00583 520.418571 
L 177.930714 519.071149 
L 175.869176 517.703043 
L 173.821422 516.314391 
L 171.787656 514.905331 
L 169.768082 513.476004 
L 167.762903 512.026553 
L 165.772318 510.557124 
L 163.796526 509.067862 
L 161.835726 507.558917 
L 159.890113 506.03044 
L 157.959882 504.482583 
L 156.045225 502.915502 
L 154.146335 501.329353 
L 152.263401 499.724295 
L 150.396611 498.100488 
L 148.546153 496.458094 
L 146.712211 494.797279 
L 144.894968 493.118207 
L 143.094607 491.421047 
L 141.311307 489.705969 
L 139.545246 487.973143 
L 137.796602 486.222744 
L 136.065549 484.454947 
L 134.352261 482.669927 
L 132.656907 480.867864 
L 130.979659 479.048939 
L 129.320684 477.213331 
L 127.680148 475.361226 
L 126.058214 473.492809 
L 124.455045 471.608266 
L 122.870801 469.707786 
L 121.305642 467.791558 
L 119.759722 465.859776 
L 118.233197 463.91263 
L 116.72622 461.950317 
L 115.238941 459.973033 
L 113.771508 457.980975 
L 112.324069 455.974343 
L 110.896769 453.953336 
L 109.48975 451.918158 
L 108.103152 449.869012 
L 106.737115 447.806103 
L 105.391775 445.729636 
L 104.067267 443.63982 
L 102.763723 441.536864 
L 101.481273 439.420978 
L 100.220045 437.292373 
L 98.980167 435.151263 
L 97.761761 432.997861 
L 96.56495 430.832383 
L 95.389852 428.655045 
L 94.236587 426.466065 
L 93.105269 424.265663 
L 91.996011 422.054057 
L 90.908924 419.83147 
L 89.844118 417.598122 
L 88.801697 415.354239 
L 87.781767 413.100044 
L 86.78443 410.835763 
L 85.809784 408.561621 
L 84.857929 406.277847 
L 83.928959 403.984669 
L 83.022966 401.682316 
L 82.140042 399.371018 
L 81.280275 397.051006 
L 80.44375 394.722513 
L 79.630552 392.385772 
L 78.840761 390.041015 
L 78.074457 387.688478 
L 77.331717 385.328396 
L 76.612613 382.961004 
L 75.91722 380.58654 
L 75.289393 378.363318 
L 67.91558 380.408524 
L 68.562824 382.700505 
L 69.279724 385.148406 
L 70.021068 387.589016 
L 70.78678 390.022091 
L 71.576784 392.447387 
L 72.391001 394.864662 
L 73.22935 397.273674 
L 74.091746 399.674182 
L 74.978104 402.065946 
L 75.888335 404.448728 
L 76.822348 406.822288 
L 77.78005 409.186389 
L 78.761344 411.540795 
L 79.766133 413.885271 
L 80.794316 416.219582 
L 81.84579 418.543494 
L 82.92045 420.856776 
L 84.018189 423.159196 
L 85.138897 425.450523 
L 86.282462 427.730529 
L 87.448769 429.998985 
L 88.637703 432.255665 
L 89.849143 434.500343 
L 91.082969 436.732795 
L 92.339057 438.952797 
L 93.617283 441.160127 
L 94.917517 443.354565 
L 96.239631 445.535891 
L 97.583491 447.703887 
L 98.948963 449.858337 
L 100.335912 451.999024 
L 101.744197 454.125734 
L 103.173679 456.238256 
L 104.624215 458.336378 
L 106.095658 460.41989 
L 107.587863 462.488583 
L 109.10068 464.542251 
L 110.633958 466.580688 
L 112.187543 468.603691 
L 113.761279 470.611057 
L 115.355011 472.602586 
L 116.968578 474.578078 
L 118.601819 476.537336 
L 120.25457 478.480164 
L 121.926667 480.406368 
L 123.617941 482.315754 
L 125.328225 484.208133 
L 127.057347 486.083314 
L 128.805134 487.941111 
L 130.571411 489.781337 
L 132.356001 491.603809 
L 134.158727 493.408344 
L 135.979408 495.194762 
L 137.817862 496.962884 
L 139.673904 498.712533 
L 141.54735 500.443535 
L 143.438012 502.155716 
L 145.345702 503.848905 
L 147.270227 505.522933 
L 149.211396 507.177632 
L 151.169015 508.812837 
L 153.142887 510.428385 
L 155.132816 512.024113 
L 157.138603 513.599863 
L 159.160047 515.155476 
L 161.196945 516.690798 
L 163.249095 518.205674 
L 165.31629 519.699953 
L 167.398325 521.173486 
L 169.49499 522.626125 
L 171.606077 524.057725 
L 173.731374 525.468143 
L 175.870669 526.857238 
L 178.023748 528.224871 
L 180.190395 529.570905 
L 182.370394 530.895206 
L 184.563526 532.197641 
L 186.769573 533.47808 
L 188.988314 534.736394 
L 191.219527 535.972459 
L 193.462989 537.18615 
L 195.718475 538.377347 
L 197.985761 539.545929 
L 200.264618 540.69178 
L 202.55482 541.814786 
L 204.856138 542.914834 
L 207.16834 543.991814 
L 209.491197 545.045619 
L 211.824475 546.076143 
L 214.167942 547.083283 
L 216.521363 548.066938 
L 218.884502 549.02701 
L 221.257124 549.963403 
L 223.638991 550.876024 
L 226.029865 551.764781 
L 228.429507 552.629585 
L 230.837677 553.470349 
L 233.254134 554.286991 
L 235.678636 555.079427 
L 238.110942 555.847579 
L 240.550807 556.59137 
L 242.997988 557.310726 
L 245.45224 558.005574 
L 247.913317 558.675846 
L 250.380975 559.321473 
L 252.854965 559.942392 
L 255.33504 560.538541 
L 257.820953 561.109859 
L 260.312455 561.656291 
L 262.809296 562.17778 
L 265.311227 562.674275 
L 267.817998 563.145726 
L 270.329358 563.592087 
L 272.845056 564.013312 
L 275.36484 564.409359 
L 277.888459 564.78019 
L 280.41566 565.125766 
z
" clip-path="url(#p6c7b2f459b)" style="fill: #e4ff13"/>
   </g>
   <g id="patch_13">
    <path d="M 70.43319 357.33201 
L 69.994391 354.897034 
L 69.579963 352.457792 
L 69.400199 351.351099 
L 61.844246 352.560875 
L 62.02957 353.701796 
L 62.456815 356.216479 
L 62.909185 358.726763 
z
" clip-path="url(#p6c7b2f459b)" style="fill: #ffd000"/>
   </g>
   <g id="patch_14">
    <path d="M 66.920676 329.909304 
L 66.756275 327.440574 
L 66.616569 324.970324 
L 66.501573 322.498801 
L 66.480324 321.97355 
L 58.834065 322.274742 
L 58.855971 322.816238 
L 58.974524 325.364201 
L 59.118551 327.91085 
L 59.288036 330.455932 
z
" clip-path="url(#p6c7b2f459b)" style="fill: #ff9400"/>
   </g>
   <g id="patch_15">
    <path d="M 66.572334 300.389061 
L 66.703148 297.918324 
L 66.858662 295.449019 
L 66.901177 294.835092 
L 59.267934 294.296951 
L 59.224104 294.929865 
L 59.06378 297.475541 
L 58.92892 300.022692 
z
" clip-path="url(#p6c7b2f459b)" style="fill: #ff5900"/>
   </g>
   <g id="patch_16">
    <path d="M 69.356857 273.390553 
L 69.757513 270.949011 
L 70.182563 268.511597 
L 70.631966 266.078556 
L 71.105677 263.65013 
L 71.603647 261.226563 
L 72.125828 258.808097 
L 72.672167 256.394973 
L 73.24261 253.987433 
L 73.837099 251.585718 
L 74.455575 249.190068 
L 75.097977 246.800722 
L 75.764239 244.41792 
L 76.454295 242.041899 
L 77.168077 239.672898 
L 77.905513 237.311152 
L 78.666529 234.956899 
L 79.451049 232.610374 
L 80.258995 230.271811 
L 81.090286 227.941444 
L 81.944838 225.619507 
L 82.822566 223.306231 
L 83.723383 221.001848 
L 84.647199 218.706588 
L 85.59392 216.420681 
L 86.563453 214.144355 
L 87.5557 211.877839 
L 88.570563 209.621358 
L 89.607939 207.375138 
L 90.667725 205.139404 
L 91.749815 202.914379 
L 92.854101 200.700287 
L 93.980472 198.497348 
L 95.128816 196.305782 
L 96.299017 194.12581 
L 97.49096 191.957648 
L 98.704524 189.801514 
L 99.939589 187.657623 
L 101.19603 185.52619 
L 102.473723 183.407427 
L 103.772538 181.301547 
L 105.092348 179.208761 
L 106.433019 177.129276 
L 107.794417 175.063303 
L 109.176407 173.011046 
L 110.57885 170.972712 
L 112.001605 168.948504 
L 113.444532 166.938624 
L 114.907484 164.943274 
L 116.390317 162.962653 
L 117.892881 160.996959 
L 119.415027 159.046388 
L 120.956602 157.111137 
L 122.517453 155.191397 
L 124.097422 153.287362 
L 125.696352 151.399222 
L 127.314084 149.527165 
L 128.950454 147.671378 
L 130.605301 145.832048 
L 132.278458 144.009358 
L 133.969758 142.20349 
L 135.679031 140.414626 
L 137.406108 138.642943 
L 139.150814 136.88862 
L 140.912977 135.15183 
L 142.269641 133.838078 
L 136.967382 128.320647 
L 135.568759 129.675032 
L 133.752096 131.465536 
L 131.95343 133.274117 
L 130.172939 135.100594 
L 128.410801 136.944784 
L 126.667193 138.806503 
L 124.942289 140.685565 
L 123.236261 142.581782 
L 121.549281 144.494964 
L 119.881517 146.42492 
L 118.233135 148.371456 
L 116.604301 150.334379 
L 114.995177 152.313492 
L 113.405924 154.308596 
L 111.836701 156.319494 
L 110.287666 158.345982 
L 108.758973 160.38786 
L 107.250774 162.444922 
L 105.763221 164.516963 
L 104.296463 166.603775 
L 102.850645 168.705151 
L 101.425914 170.820879 
L 100.02241 172.950749 
L 98.640275 175.094547 
L 97.279647 177.252059 
L 95.940662 179.423069 
L 94.623453 181.607361 
L 93.328152 183.804714 
L 92.05489 186.014911 
L 90.803793 188.23773 
L 89.574986 190.472948 
L 88.368593 192.720343 
L 87.184733 194.979689 
L 86.023526 197.25076 
L 84.885087 199.53333 
L 83.76953 201.827169 
L 82.676967 204.13205 
L 81.607507 206.44774 
L 80.561257 208.774009 
L 79.538322 211.110624 
L 78.538804 213.457352 
L 77.562802 215.813957 
L 76.610415 218.180204 
L 75.681738 220.555857 
L 74.776863 222.940678 
L 73.895881 225.334427 
L 73.038881 227.736867 
L 72.205947 230.147757 
L 71.397163 232.566855 
L 70.612611 234.99392 
L 69.852367 237.428709 
L 69.11651 239.870979 
L 68.405111 242.320485 
L 67.718243 244.776982 
L 67.055974 247.240225 
L 66.418369 249.709968 
L 65.805494 252.185962 
L 65.217409 254.667962 
L 64.654173 257.155719 
L 64.115842 259.648983 
L 63.60247 262.147506 
L 63.114109 264.651037 
L 62.650807 267.159327 
L 62.21261 269.672125 
L 61.799564 272.189179 
z
" clip-path="url(#p6c7b2f459b)" style="fill: #ff1e00"/>
   </g>
   <g id="patch_17">
    <path d="M 158.470337 119.574975 
L 160.404667 118.032244 
L 162.354327 116.508933 
L 164.319123 115.005194 
L 166.298857 113.521178 
L 168.293333 112.057033 
L 170.30235 110.612906 
L 172.325707 109.18894 
L 174.363203 107.78528 
L 176.414634 106.402064 
L 178.479793 105.039431 
L 180.558476 103.697517 
L 182.650473 102.376457 
L 184.755576 101.076383 
L 186.873575 99.797425 
L 189.004257 98.53971 
L 191.147409 97.303364 
L 193.302818 96.088512 
L 195.470267 94.895273 
L 197.64954 93.723769 
L 199.840419 92.574116 
L 202.042684 91.446428 
L 204.256116 90.340819 
L 206.480494 89.2574 
L 208.715594 88.196278 
L 210.961193 87.157559 
L 213.217067 86.141349 
L 215.482991 85.147747 
L 217.758737 84.176854 
L 220.044077 83.228766 
L 222.338785 82.303579 
L 224.642629 81.401385 
L 226.95538 80.522274 
L 229.276806 79.666335 
L 231.606676 78.833651 
L 233.944755 78.024308 
L 236.290811 77.238386 
L 238.644609 76.475963 
L 241.005913 75.737116 
L 243.374488 75.021918 
L 245.750096 74.330442 
L 246.885792 74.008949 
L 244.819083 66.641134 
L 243.648263 66.972569 
L 241.199182 67.685431 
L 238.757353 68.422749 
L 236.323019 69.184447 
L 233.896423 69.97045 
L 231.477809 70.780679 
L 229.067417 71.615053 
L 226.66549 72.473489 
L 224.272267 73.355902 
L 221.887988 74.262202 
L 219.512891 75.192299 
L 217.147213 76.1461 
L 214.791191 77.123509 
L 212.445062 78.12443 
L 210.109058 79.148762 
L 207.783415 80.196402 
L 205.468364 81.267245 
L 203.164137 82.361185 
L 200.870964 83.478113 
L 198.589076 84.617916 
L 196.318699 85.78048 
L 194.060061 86.96569 
L 191.813388 88.173426 
L 189.578904 89.403569 
L 187.356834 90.655994 
L 185.147398 91.930577 
L 182.950819 93.227191 
L 180.767315 94.545705 
L 178.597105 95.885987 
L 176.440407 97.247905 
L 174.297435 98.631321 
L 172.168405 100.036097 
L 170.053528 101.462093 
L 167.953017 102.909166 
L 165.867081 104.377171 
L 163.79593 105.865962 
L 161.73977 107.37539 
L 159.698806 108.905303 
L 157.673244 110.455549 
L 155.663285 112.025973 
L 153.66913 113.616418 
z
" clip-path="url(#p6c7b2f459b)" style="fill: #c40000"/>
   </g>
   <g id="patch_18">
    <path d="M 267.902843 69.091414 
L 270.336529 68.645513 
L 272.774552 68.223971 
L 275.216668 67.826831 
L 277.662633 67.45413 
L 280.112203 67.105908 
L 282.565133 66.782198 
L 285.021178 66.483034 
L 287.480091 66.208444 
L 289.941626 65.958457 
L 292.145221 65.755734 
L 291.478289 58.132664 
L 289.206542 58.341657 
L 286.668876 58.599376 
L 284.133914 58.882458 
L 281.60191 59.190875 
L 279.073116 59.524596 
L 276.547786 59.883588 
L 274.026172 60.267815 
L 271.508526 60.677239 
L 268.995101 61.111818 
L 266.486147 61.571509 
z
" clip-path="url(#p6c7b2f459b)" style="fill: #800000"/>
   </g>
   <g id="PatchCollection_1">
    <path d="M 66.572334 300.389061 
L 66.572334 300.389061 
L 66.703148 297.918324 
L 66.777686 296.685576 
L 66.777686 296.685576 
Q 313.709362 312.234992 525.886035 439.506734 
L 525.886035 439.506734 
L 525.886035 439.506734 
L 524.60273 441.622102 
L 523.95427 442.67316 
L 523.95427 442.67316 
Q 313.709362 312.234992 66.572334 300.389061 
z
" clip-path="url(#p6c7b2f459b)" style="fill: #ff5900; fill-opacity: 0.5; stroke: #808080; stroke-opacity: 0.5; stroke-width: 0.1"/>
    <path d="M 66.920676 329.909304 
L 66.920676 329.909304 
L 66.812214 328.32335 
L 66.812214 328.32335 
Q 313.709362 312.234992 523.95427 442.67316 
L 523.95427 442.67316 
L 523.95427 442.67316 
L 523.11188 444.021267 
L 523.11188 444.021267 
Q 313.709362 312.234992 66.920676 329.909304 
z
" clip-path="url(#p6c7b2f459b)" style="fill: #ff9400; fill-opacity: 0.5; stroke: #808080; stroke-opacity: 0.5; stroke-width: 0.1"/>
    <path d="M 66.812214 328.32335 
L 66.812214 328.32335 
L 66.713944 326.736732 
L 66.713944 326.736732 
Q 313.709362 312.234992 313.709362 64.814223 
L 313.709362 64.814223 
L 313.709362 64.814223 
L 315.299012 64.81933 
L 315.299012 64.81933 
Q 313.709362 312.234992 66.812214 328.32335 
z
" clip-path="url(#p6c7b2f459b)" style="fill: #ff9400; fill-opacity: 0.5; stroke: #808080; stroke-opacity: 0.5; stroke-width: 0.1"/>
    <path d="M 70.43319 357.33201 
L 70.43319 357.33201 
L 70.072561 355.341211 
L 70.072561 355.341211 
Q 313.709362 312.234992 313.8389 559.655727 
L 313.8389 559.655727 
L 313.8389 559.655727 
L 311.815714 559.648515 
L 311.815714 559.648515 
Q 313.709362 312.234992 70.43319 357.33201 
z
" clip-path="url(#p6c7b2f459b)" style="fill: #ffd000; fill-opacity: 0.5; stroke: #808080; stroke-opacity: 0.5; stroke-width: 0.1"/>
    <path d="M 281.414471 557.539042 
L 281.414471 557.539042 
L 278.963086 557.203834 
L 276.515176 556.844128 
L 274.070985 556.459962 
L 271.630758 556.051374 
L 270.418419 555.839038 
L 270.418419 555.839038 
Q 313.709362 312.234992 427.568027 531.901197 
L 427.568027 531.901197 
L 427.568027 531.901197 
L 425.365708 533.028781 
L 423.152224 534.134287 
L 420.927796 535.217602 
L 418.692647 536.27862 
L 417.576847 536.798085 
L 417.576847 536.798085 
Q 313.709362 312.234992 281.414471 557.539042 
z
" clip-path="url(#p6c7b2f459b)" style="fill: #e4ff13; fill-opacity: 0.5; stroke: #808080; stroke-opacity: 0.5; stroke-width: 0.1"/>
    <path d="M 270.418419 555.839038 
L 270.418419 555.839038 
L 267.984583 555.393956 
L 265.555321 554.924558 
L 263.130873 554.430891 
L 260.711483 553.913005 
L 258.297393 553.370951 
L 255.888845 552.804784 
L 253.486078 552.21456 
L 251.089333 551.600338 
L 248.711025 550.965495 
L 248.711025 550.965495 
Q 313.709362 312.234992 523.11188 444.021267 
L 523.11188 444.021267 
L 523.11188 444.021267 
L 521.78357 446.108668 
L 520.434452 448.182682 
L 519.064661 450.243101 
L 517.674335 452.28972 
L 516.263613 454.322333 
L 514.832636 456.340737 
L 513.381546 458.344731 
L 511.91049 460.334114 
L 510.427266 462.298656 
L 510.427266 462.298656 
Q 313.709362 312.234992 270.418419 555.839038 
z
" clip-path="url(#p6c7b2f459b)" style="fill: #e4ff13; fill-opacity: 0.5; stroke: #808080; stroke-opacity: 0.5; stroke-width: 0.1"/>
    <path d="M 248.711025 550.965495 
L 248.711025 550.965495 
L 246.32701 550.303586 
L 243.949732 549.617871 
L 241.579431 548.908417 
L 239.216343 548.175296 
L 238.043584 547.801813 
L 238.043584 547.801813 
Q 313.709362 312.234992 437.815475 98.191282 
L 437.815475 98.191282 
L 437.815475 98.191282 
L 439.949671 99.443025 
L 442.071243 100.716046 
L 444.17998 102.01022 
L 446.275669 103.325415 
L 447.313245 103.987449 
L 447.313245 103.987449 
Q 313.709362 312.234992 248.711025 550.965495 
z
" clip-path="url(#p6c7b2f459b)" style="fill: #e4ff13; fill-opacity: 0.5; stroke: #808080; stroke-opacity: 0.5; stroke-width: 0.1"/>
    <path d="M 238.043584 547.801813 
L 238.043584 547.801813 
L 235.691738 547.033389 
L 233.347694 546.241486 
L 231.011686 545.426183 
L 228.683948 544.58756 
L 227.529167 544.161728 
L 227.529167 544.161728 
Q 313.709362 312.234992 315.299012 64.81933 
L 315.299012 64.81933 
L 315.299012 64.81933 
L 317.773048 64.847597 
L 320.246678 64.900602 
L 322.719653 64.978341 
L 325.191728 65.080805 
L 326.42105 65.140982 
L 326.42105 65.140982 
Q 313.709362 312.234992 238.043584 547.801813 
z
" clip-path="url(#p6c7b2f459b)" style="fill: #e4ff13; fill-opacity: 0.5; stroke: #808080; stroke-opacity: 0.5; stroke-width: 0.1"/>
    <path d="M 311.815714 559.648515 
L 311.815714 559.648515 
L 309.341714 559.617208 
L 306.868152 559.561163 
L 304.395273 559.480386 
L 302.91702 559.420272 
L 302.91702 559.420272 
Q 313.709362 312.234992 69.356857 273.390553 
L 69.356857 273.390553 
L 69.356857 273.390553 
L 69.757513 270.949011 
L 70.182563 268.511597 
L 70.631966 266.078556 
L 70.912307 264.625884 
L 70.912307 264.625884 
Q 313.709362 312.234992 311.815714 559.648515 
z
" clip-path="url(#p6c7b2f459b)" style="fill: #b1ff46; fill-opacity: 0.5; stroke: #808080; stroke-opacity: 0.5; stroke-width: 0.1"/>
    <path d="M 344.25441 557.76307 
L 344.25441 557.76307 
L 341.797643 558.056239 
L 339.338067 558.324826 
L 336.875928 558.568805 
L 335.402545 558.702927 
L 335.402545 558.702927 
Q 313.709362 312.234992 70.912307 264.625884 
L 70.912307 264.625884 
L 70.912307 264.625884 
L 71.40053 262.200334 
L 71.912984 259.779788 
L 72.449617 257.364487 
L 72.782032 255.92284 
L 72.782032 255.92284 
Q 313.709362 312.234992 344.25441 557.76307 
z
" clip-path="url(#p6c7b2f459b)" style="fill: #7dff7a; fill-opacity: 0.5; stroke: #808080; stroke-opacity: 0.5; stroke-width: 0.1"/>
    <path d="M 374.20654 552.14566 
L 374.20654 552.14566 
L 371.804449 552.738626 
L 369.396548 553.307542 
L 366.983078 553.852351 
L 365.537359 554.166585 
L 365.537359 554.166585 
Q 313.709362 312.234992 72.782032 255.92284 
L 72.782032 255.92284 
L 72.782032 255.92284 
L 73.35719 253.516422 
L 73.956384 251.115877 
L 74.579552 248.721443 
L 74.963611 247.292686 
L 74.963611 247.292686 
Q 313.709362 312.234992 374.20654 552.14566 
z
" clip-path="url(#p6c7b2f459b)" style="fill: #49ffad; fill-opacity: 0.5; stroke: #808080; stroke-opacity: 0.5; stroke-width: 0.1"/>
    <path d="M 417.576847 536.798085 
L 417.576847 536.798085 
L 415.55275 537.723266 
L 415.55275 537.723266 
Q 313.709362 312.234992 267.902843 69.091414 
L 267.902843 69.091414 
L 267.902843 69.091414 
L 270.091719 68.68923 
L 270.091719 68.68923 
Q 313.709362 312.234992 417.576847 536.798085 
z
" clip-path="url(#p6c7b2f459b)" style="fill: #16ffe1; fill-opacity: 0.5; stroke: #808080; stroke-opacity: 0.5; stroke-width: 0.1"/>
    <path d="M 415.55275 537.723266 
L 415.55275 537.723266 
L 413.292812 538.730408 
L 411.022917 539.714901 
L 408.74329 540.676647 
L 406.45416 541.615548 
L 404.155755 542.531512 
L 401.848306 543.424446 
L 399.532043 544.294261 
L 397.207198 545.140871 
L 394.885923 545.960051 
L 394.885923 545.960051 
Q 313.709362 312.234992 227.529167 544.161728 
L 227.529167 544.161728 
L 227.529167 544.161728 
L 225.214247 543.288344 
L 222.908177 542.391855 
L 220.611186 541.472351 
L 218.323506 540.529923 
L 216.045364 539.564666 
L 213.776988 538.576676 
L 211.518606 537.566052 
L 209.270442 536.532895 
L 207.044107 535.482748 
L 207.044107 535.482748 
Q 313.709362 312.234992 415.55275 537.723266 
z
" clip-path="url(#p6c7b2f459b)" style="fill: #16ffe1; fill-opacity: 0.5; stroke: #808080; stroke-opacity: 0.5; stroke-width: 0.1"/>
    <path d="M 510.427266 462.298656 
L 510.427266 462.298656 
L 508.916819 464.258299 
L 507.386851 466.20274 
L 506.306717 467.551753 
L 506.306717 467.551753 
Q 313.709362 312.234992 270.091719 68.68923 
L 270.091719 68.68923 
L 270.091719 68.68923 
L 272.529317 68.265238 
L 274.971033 67.865643 
L 276.678811 67.60103 
L 276.678811 67.60103 
Q 313.709362 312.234992 510.427266 462.298656 
z
" clip-path="url(#p6c7b2f459b)" style="fill: #00c0ff; fill-opacity: 0.5; stroke: #808080; stroke-opacity: 0.5; stroke-width: 0.1"/>
    <path d="M 506.306717 467.551753 
L 506.306717 467.551753 
L 504.743945 469.469928 
L 503.16207 471.372381 
L 501.56125 473.258919 
L 499.941645 475.129356 
L 498.303417 476.983503 
L 496.64673 478.821175 
L 494.971749 480.642189 
L 493.278642 482.446363 
L 491.567579 484.233515 
L 489.838729 486.003468 
L 488.092267 487.756044 
L 487.664136 488.180363 
L 487.664136 488.180363 
Q 313.709362 312.234992 158.470337 119.574975 
L 158.470337 119.574975 
L 158.470337 119.574975 
L 160.404667 118.032244 
L 162.354327 116.508933 
L 164.319123 115.005194 
L 166.298857 113.521178 
L 168.293333 112.057033 
L 170.30235 110.612906 
L 172.325707 109.18894 
L 174.363203 107.78528 
L 176.414634 106.402064 
L 178.479793 105.039431 
L 180.558476 103.697517 
L 181.066921 103.373747 
L 181.066921 103.373747 
Q 313.709362 312.234992 506.306717 467.551753 
z
" clip-path="url(#p6c7b2f459b)" style="fill: #00c0ff; fill-opacity: 0.5; stroke: #808080; stroke-opacity: 0.5; stroke-width: 0.1"/>
    <path d="M 487.664136 488.180363 
L 487.664136 488.180363 
L 485.896014 489.911085 
L 484.110673 491.624039 
L 482.308293 493.319054 
L 480.489053 494.995961 
L 478.653134 496.654593 
L 476.800722 498.294782 
L 476.248469 498.777416 
L 476.248469 498.777416 
Q 313.709362 312.234992 74.963611 247.292686 
L 74.963611 247.292686 
L 74.963611 247.292686 
L 75.62496 244.908515 
L 76.310118 242.531077 
L 77.019015 240.160609 
L 77.751581 237.797349 
L 78.507743 235.441532 
L 79.287425 233.093395 
L 79.523054 232.398846 
L 79.523054 232.398846 
Q 313.709362 312.234992 487.664136 488.180363 
z
" clip-path="url(#p6c7b2f459b)" style="fill: #00c0ff; fill-opacity: 0.5; stroke: #808080; stroke-opacity: 0.5; stroke-width: 0.1"/>
    <path d="M 476.248469 498.777416 
L 476.248469 498.777416 
L 474.374949 500.393453 
L 473.176086 501.410575 
L 473.176086 501.410575 
Q 313.709362 312.234992 70.072561 355.341211 
L 70.072561 355.341211 
L 70.072561 355.341211 
L 69.653688 352.902728 
L 69.400199 351.351099 
L 69.400199 351.351099 
Q 313.709362 312.234992 476.248469 498.777416 
z
" clip-path="url(#p6c7b2f459b)" style="fill: #00c0ff; fill-opacity: 0.5; stroke: #808080; stroke-opacity: 0.5; stroke-width: 0.1"/>
    <path d="M 473.176086 501.410575 
L 473.176086 501.410575 
L 471.276388 502.995757 
L 469.360934 504.561863 
L 467.429915 506.108736 
L 465.483524 507.636223 
L 463.521955 509.144169 
L 461.545406 510.632424 
L 459.554073 512.100841 
L 457.548156 513.54927 
L 455.527855 514.977568 
L 453.493372 516.385593 
L 451.444911 517.773202 
L 449.382676 519.140258 
L 447.306874 520.486623 
L 446.279931 521.141864 
L 446.279931 521.141864 
Q 313.709362 312.234992 207.044107 535.482748 
L 207.044107 535.482748 
L 207.044107 535.482748 
L 204.817 534.404951 
L 202.600782 533.304937 
L 200.395675 532.182816 
L 198.201899 531.038701 
L 196.019674 529.872705 
L 193.849217 528.684946 
L 191.690747 527.475542 
L 189.544478 526.244615 
L 187.410626 524.992286 
L 185.289403 523.718682 
L 183.181022 522.42393 
L 181.085694 521.108159 
L 179.003629 519.771501 
L 177.983458 519.105764 
L 177.983458 519.105764 
Q 313.709362 312.234992 473.176086 501.410575 
z
" clip-path="url(#p6c7b2f459b)" style="fill: #00c0ff; fill-opacity: 0.5; stroke: #808080; stroke-opacity: 0.5; stroke-width: 0.1"/>
    <path d="M 558.935615 345.115408 
L 558.935615 345.115408 
L 558.682265 346.952622 
L 558.682265 346.952622 
Q 313.709362 312.234992 66.777686 296.685576 
L 66.777686 296.685576 
L 66.777686 296.685576 
L 66.901177 294.835092 
L 66.901177 294.835092 
Q 313.709362 312.234992 558.935615 345.115408 
z
" clip-path="url(#p6c7b2f459b)" style="fill: #0080ff; fill-opacity: 0.5; stroke: #808080; stroke-opacity: 0.5; stroke-width: 0.1"/>
    <path d="M 558.682265 346.952622 
L 558.682265 346.952622 
L 558.454152 348.525828 
L 558.454152 348.525828 
Q 313.709362 312.234992 66.713944 326.736732 
L 66.713944 326.736732 
L 66.713944 326.736732 
L 66.62587 325.149516 
L 66.62587 325.149516 
Q 313.709362 312.234992 558.682265 346.952622 
z
" clip-path="url(#p6c7b2f459b)" style="fill: #0080ff; fill-opacity: 0.5; stroke: #808080; stroke-opacity: 0.5; stroke-width: 0.1"/>
    <path d="M 558.454152 348.525828 
L 558.454152 348.525828 
L 558.117823 350.725785 
L 558.117823 350.725785 
Q 313.709362 312.234992 276.678811 67.60103 
L 276.678811 67.60103 
L 276.678811 67.60103 
L 278.880737 67.277845 
L 278.880737 67.277845 
Q 313.709362 312.234992 558.454152 348.525828 
z
" clip-path="url(#p6c7b2f459b)" style="fill: #0080ff; fill-opacity: 0.5; stroke: #808080; stroke-opacity: 0.5; stroke-width: 0.1"/>
    <path d="M 558.117823 350.725785 
L 558.117823 350.725785 
L 557.720701 353.167904 
L 557.299179 355.60593 
L 556.853297 358.039619 
L 556.383101 360.468728 
L 555.888639 362.893013 
L 555.369958 365.312233 
L 554.827111 367.726145 
L 554.260153 370.134507 
L 553.66914 372.53708 
L 553.054132 374.933623 
L 552.415189 377.323896 
L 551.958147 378.977434 
L 551.958147 378.977434 
Q 313.709362 312.234992 79.523054 232.398846 
L 79.523054 232.398846 
L 79.523054 232.398846 
L 80.333112 230.061014 
L 81.166506 227.731399 
L 82.023155 225.410234 
L 82.902973 223.097752 
L 83.80587 220.794184 
L 84.731758 218.499759 
L 85.680544 216.214708 
L 86.652132 213.939259 
L 87.646426 211.673639 
L 88.663326 209.418075 
L 89.70273 207.172793 
L 90.436579 205.622135 
L 90.436579 205.622135 
Q 313.709362 312.234992 558.117823 350.725785 
z
" clip-path="url(#p6c7b2f459b)" style="fill: #0080ff; fill-opacity: 0.5; stroke: #808080; stroke-opacity: 0.5; stroke-width: 0.1"/>
    <path d="M 551.958147 378.977434 
L 551.958147 378.977434 
L 551.278821 381.356545 
L 550.575739 383.728744 
L 549.84897 386.093793 
L 549.098588 388.451457 
L 548.324666 390.801499 
L 547.527284 393.143685 
L 546.706519 395.47778 
L 545.862456 397.80355 
L 544.995177 400.120764 
L 544.10477 402.42919 
L 543.191323 404.728596 
L 542.254928 407.018752 
L 541.295679 409.299431 
L 540.313672 411.570403 
L 539.309004 413.831441 
L 538.281777 416.08232 
L 537.232092 418.322815 
L 536.171102 420.530011 
L 536.171102 420.530011 
Q 313.709362 312.234992 177.983458 519.105764 
L 177.983458 519.105764 
L 177.983458 519.105764 
L 175.921571 517.738184 
L 173.873463 516.350054 
L 171.839338 514.941512 
L 169.8194 513.512701 
L 167.813851 512.063761 
L 165.822892 510.594839 
L 163.84672 509.106081 
L 161.885535 507.597636 
L 159.939533 506.069655 
L 158.008907 504.522291 
L 156.093851 502.955698 
L 154.194556 501.370033 
L 152.311213 499.765455 
L 150.444009 498.142124 
L 148.593132 496.500202 
L 146.758767 494.839854 
L 144.941096 493.161246 
L 143.158583 491.481941 
L 143.158583 491.481941 
Q 313.709362 312.234992 551.958147 378.977434 
z
" clip-path="url(#p6c7b2f459b)" style="fill: #0080ff; fill-opacity: 0.5; stroke: #808080; stroke-opacity: 0.5; stroke-width: 0.1"/>
    <path d="M 546.150454 227.451882 
L 546.150454 227.451882 
L 546.903656 229.546068 
L 546.903656 229.546068 
Q 313.709362 312.234992 278.880737 67.277845 
L 278.880737 67.277845 
L 278.880737 67.277845 
L 281.085481 66.974479 
L 281.085481 66.974479 
Q 313.709362 312.234992 546.150454 227.451882 
z
" clip-path="url(#p6c7b2f459b)" style="fill: #0040ff; fill-opacity: 0.5; stroke: #808080; stroke-opacity: 0.5; stroke-width: 0.1"/>
    <path d="M 546.903656 229.546068 
L 546.903656 229.546068 
L 547.718872 231.882107 
L 548.510687 234.22618 
L 549.279022 236.578055 
L 550.023801 238.937495 
L 550.744948 241.304265 
L 551.442392 243.678128 
L 552.116062 246.058846 
L 552.765893 248.446182 
L 553.388686 250.827674 
L 553.388686 250.827674 
Q 313.709362 312.234992 181.066921 103.373747 
L 181.066921 103.373747 
L 181.066921 103.373747 
L 183.16213 102.057788 
L 185.270395 100.762846 
L 187.391503 99.489051 
L 189.525242 98.236531 
L 191.671401 97.00541 
L 193.829762 95.795812 
L 196.000112 94.607858 
L 198.182233 93.441667 
L 200.36469 92.303134 
L 200.36469 92.303134 
Q 313.709362 312.234992 546.903656 229.546068 
z
" clip-path="url(#p6c7b2f459b)" style="fill: #0040ff; fill-opacity: 0.5; stroke: #808080; stroke-opacity: 0.5; stroke-width: 0.1"/>
    <path d="M 553.388686 250.827674 
L 553.388686 250.827674 
L 553.990765 253.227498 
L 554.568816 255.633222 
L 555.122782 258.044607 
L 555.652606 260.46141 
L 556.158236 262.883391 
L 556.639622 265.310307 
L 557.096714 267.741915 
L 557.529468 270.177973 
L 557.937841 272.618236 
L 558.32179 275.062461 
L 558.681279 277.510403 
L 558.916158 279.209787 
L 558.916158 279.209787 
Q 313.709362 312.234992 90.436579 205.622135 
L 90.436579 205.622135 
L 90.436579 205.622135 
L 91.513853 203.394775 
L 92.613347 201.178299 
L 93.73495 198.972929 
L 94.87855 196.778884 
L 96.044034 194.596386 
L 97.231283 192.42565 
L 98.440181 190.266896 
L 99.670605 188.120339 
L 100.922432 185.986192 
L 102.195538 183.864671 
L 103.489796 181.755986 
L 104.399545 180.301534 
L 104.399545 180.301534 
Q 313.709362 312.234992 553.388686 250.827674 
z
" clip-path="url(#p6c7b2f459b)" style="fill: #0040ff; fill-opacity: 0.5; stroke: #808080; stroke-opacity: 0.5; stroke-width: 0.1"/>
    <path d="M 558.916158 279.209787 
L 558.916158 279.209787 
L 559.234145 281.663465 
L 559.527579 284.120201 
L 559.796431 286.579748 
L 560.040675 289.04186 
L 560.260286 291.506292 
L 560.455242 293.972796 
L 560.625524 296.441127 
L 560.771114 298.911037 
L 560.891998 301.38228 
L 560.988165 303.854608 
L 561.059603 306.327773 
L 561.106307 308.80153 
L 561.128271 311.27563 
L 561.125494 313.749826 
L 561.097975 316.22387 
L 561.045718 318.697515 
L 560.968727 321.170515 
L 560.868173 323.617412 
L 560.868173 323.617412 
Q 313.709362 312.234992 143.158583 491.481941 
L 143.158583 491.481941 
L 143.158583 491.481941 
L 141.374671 489.7675 
L 139.607992 488.035305 
L 137.858723 486.28553 
L 136.127039 484.518351 
L 134.413114 482.733943 
L 132.717117 480.932486 
L 131.03922 479.114158 
L 129.37959 477.279144 
L 127.738392 475.427624 
L 126.115791 473.559786 
L 124.51195 471.675816 
L 122.927028 469.775901 
L 121.361184 467.860232 
L 119.814575 465.929002 
L 118.287355 463.982401 
L 116.779677 462.020627 
L 115.291692 460.043873 
L 113.838423 458.072726 
L 113.838423 458.072726 
Q 313.709362 312.234992 558.916158 279.209787 
z
" clip-path="url(#p6c7b2f459b)" style="fill: #0040ff; fill-opacity: 0.5; stroke: #808080; stroke-opacity: 0.5; stroke-width: 0.1"/>
    <path d="M 528.674283 189.731442 
L 528.674283 189.731442 
L 529.88855 191.887181 
L 531.081199 194.054954 
L 532.252112 196.234545 
L 532.941837 197.54341 
L 532.941837 197.54341 
Q 313.709362 312.234992 104.399545 180.301534 
L 104.399545 180.301534 
L 104.399545 180.301534 
L 105.729323 178.215068 
L 107.079899 176.142003 
L 108.451137 174.082547 
L 109.280898 172.857662 
L 109.280898 172.857662 
Q 313.709362 312.234992 528.674283 189.731442 
z
" clip-path="url(#p6c7b2f459b)" style="fill: #0000ff; fill-opacity: 0.5; stroke: #808080; stroke-opacity: 0.5; stroke-width: 0.1"/>
    <path d="M 532.941837 197.54341 
L 532.941837 197.54341 
L 534.077772 199.741432 
L 535.19167 201.950704 
L 536.283421 204.171005 
L 537.352914 206.402111 
L 537.876611 207.515931 
L 537.876611 207.515931 
Q 313.709362 312.234992 113.838423 458.072726 
L 113.838423 458.072726 
L 113.838423 458.072726 
L 112.390063 456.066758 
L 110.961835 454.046407 
L 109.553882 452.011875 
L 108.166344 449.963365 
L 107.48376 448.939191 
L 107.48376 448.939191 
Q 313.709362 312.234992 532.941837 197.54341 
z
" clip-path="url(#p6c7b2f459b)" style="fill: #0000ff; fill-opacity: 0.5; stroke: #808080; stroke-opacity: 0.5; stroke-width: 0.1"/>
    <path d="M 447.313245 103.987449 
L 447.313245 103.987449 
L 449.389006 105.333877 
L 449.978093 105.721385 
L 449.978093 105.721385 
Q 313.709362 312.234992 66.62587 325.149516 
L 66.62587 325.149516 
L 66.62587 325.149516 
L 66.509081 322.678077 
L 66.480324 321.97355 
L 66.480324 321.97355 
Q 313.709362 312.234992 447.313245 103.987449 
z
" clip-path="url(#p6c7b2f459b)" style="fill: #0000c8; fill-opacity: 0.5; stroke: #808080; stroke-opacity: 0.5; stroke-width: 0.1"/>
    <path d="M 449.978093 105.721385 
L 449.978093 105.721385 
L 452.036381 107.094375 
L 453.670981 108.206116 
L 453.670981 108.206116 
Q 313.709362 312.234992 281.085481 66.974479 
L 281.085481 66.974479 
L 281.085481 66.974479 
L 283.539677 66.660508 
L 285.50271 66.427299 
L 285.50271 66.427299 
Q 313.709362 312.234992 449.978093 105.721385 
z
" clip-path="url(#p6c7b2f459b)" style="fill: #0000c8; fill-opacity: 0.5; stroke: #808080; stroke-opacity: 0.5; stroke-width: 0.1"/>
    <path d="M 453.670981 108.206116 
L 453.670981 108.206116 
L 455.704238 109.61591 
L 457.723295 111.045966 
L 459.727951 112.496141 
L 461.718006 113.966289 
L 463.693259 115.456265 
L 465.653515 116.965917 
L 467.598576 118.495097 
L 469.528248 120.04365 
L 471.442338 121.611423 
L 473.340656 123.198257 
L 475.22301 124.803995 
L 475.67916 125.19804 
L 475.67916 125.19804 
Q 313.709362 312.234992 200.36469 92.303134 
L 200.36469 92.303134 
L 200.36469 92.303134 
L 202.569639 91.180703 
L 204.785702 90.080377 
L 207.012657 89.002266 
L 209.250282 87.946478 
L 211.498353 86.913119 
L 213.756644 85.902292 
L 216.024931 84.914098 
L 218.302986 83.948636 
L 220.590582 83.006002 
L 222.88749 82.086291 
L 225.193479 81.189595 
L 225.756627 80.974634 
L 225.756627 80.974634 
Q 313.709362 312.234992 453.670981 108.206116 
z
" clip-path="url(#p6c7b2f459b)" style="fill: #0000c8; fill-opacity: 0.5; stroke: #808080; stroke-opacity: 0.5; stroke-width: 0.1"/>
    <path d="M 475.67916 125.19804 
L 475.67916 125.19804 
L 477.5414 126.827062 
L 479.387257 128.474626 
L 481.216546 130.140565 
L 483.029084 131.824714 
L 484.824691 133.526903 
L 486.603187 135.246963 
L 488.364393 136.984722 
L 490.108134 138.740005 
L 491.834235 140.512638 
L 493.542524 142.302444 
L 495.232829 144.109242 
L 496.39419 145.371903 
L 496.39419 145.371903 
Q 313.709362 312.234992 109.280898 172.857662 
L 109.280898 172.857662 
L 109.280898 172.857662 
L 110.68487 170.82038 
L 112.109143 168.79724 
L 113.553577 166.788443 
L 115.018026 164.794191 
L 116.502344 162.814683 
L 118.006382 160.850116 
L 119.529991 158.900688 
L 121.073017 156.966594 
L 122.635307 155.048026 
L 124.216704 153.145176 
L 125.81705 151.258236 
L 126.937723 149.959326 
L 126.937723 149.959326 
Q 313.709362 312.234992 475.67916 125.19804 
z
" clip-path="url(#p6c7b2f459b)" style="fill: #0000c8; fill-opacity: 0.5; stroke: #808080; stroke-opacity: 0.5; stroke-width: 0.1"/>
    <path d="M 496.39419 145.371903 
L 496.39419 145.371903 
L 498.053659 147.207064 
L 499.694694 149.058728 
L 501.31713 150.926709 
L 502.920806 152.81082 
L 504.505561 154.710874 
L 506.071236 156.626681 
L 507.617675 158.558048 
L 509.144723 160.504782 
L 510.652229 162.46669 
L 512.14004 164.443574 
L 513.608008 166.435237 
L 515.055986 168.44148 
L 516.48383 170.462103 
L 517.179389 171.462178 
L 517.179389 171.462178 
Q 313.709362 312.234992 107.48376 448.939191 
L 107.48376 448.939191 
L 107.48376 448.939191 
L 106.127052 446.870134 
L 104.791102 444.787614 
L 103.476044 442.691839 
L 102.182009 440.583018 
L 100.909126 438.461362 
L 99.657523 436.327084 
L 98.427326 434.180397 
L 97.218656 432.021515 
L 96.031635 429.850655 
L 94.866382 427.668033 
L 93.723013 425.473868 
L 92.601642 423.26838 
L 91.502382 421.051788 
L 90.969317 419.956436 
L 90.969317 419.956436 
Q 313.709362 312.234992 496.39419 145.371903 
z
" clip-path="url(#p6c7b2f459b)" style="fill: #0000c8; fill-opacity: 0.5; stroke: #808080; stroke-opacity: 0.5; stroke-width: 0.1"/>
    <path d="M 326.42105 65.140982 
L 326.42105 65.140982 
L 328.891313 65.280451 
L 331.360058 65.444616 
L 333.083371 65.573919 
L 333.083371 65.573919 
Q 313.709362 312.234992 285.50271 66.427299 
L 285.50271 66.427299 
L 285.50271 66.427299 
L 287.962156 66.157528 
L 290.424177 65.912364 
L 292.145221 65.755734 
L 292.145221 65.755734 
Q 313.709362 312.234992 326.42105 65.140982 
z
" clip-path="url(#p6c7b2f459b)" style="fill: #000080; fill-opacity: 0.5; stroke: #808080; stroke-opacity: 0.5; stroke-width: 0.1"/>
    <path d="M 333.083371 65.573919 
L 333.083371 65.573919 
L 335.548972 65.779989 
L 338.012389 66.010704 
L 340.473375 66.266042 
L 342.931686 66.545976 
L 345.387074 66.850478 
L 347.839294 67.179519 
L 350.288102 67.533066 
L 352.733251 67.911082 
L 355.162059 68.311416 
L 355.162059 68.311416 
Q 313.709362 312.234992 225.756627 80.974634 
L 225.756627 80.974634 
L 225.756627 80.974634 
L 228.073589 80.106684 
L 230.399116 79.261947 
L 232.732973 78.440507 
L 235.074927 77.642446 
L 237.424745 76.867844 
L 239.782192 76.116779 
L 242.147031 75.389326 
L 244.519026 74.685556 
L 246.885792 74.008949 
L 246.885792 74.008949 
Q 313.709362 312.234992 333.083371 65.573919 
z
" clip-path="url(#p6c7b2f459b)" style="fill: #000080; fill-opacity: 0.5; stroke: #808080; stroke-opacity: 0.5; stroke-width: 0.1"/>
    <path d="M 355.162059 68.311416 
L 355.162059 68.311416 
L 357.599182 68.738132 
L 360.031915 69.189198 
L 362.460016 69.664568 
L 364.883243 70.164195 
L 367.301352 70.688028 
L 369.714101 71.236017 
L 372.121251 71.808105 
L 374.522559 72.404235 
L 376.905587 73.021125 
L 376.905587 73.021125 
Q 313.709362 312.234992 126.937723 149.959326 
L 126.937723 149.959326 
L 126.937723 149.959326 
L 128.569791 148.099754 
L 130.220373 146.256596 
L 131.889304 144.430036 
L 133.576416 142.620256 
L 135.281542 140.827437 
L 137.00451 139.051759 
L 138.745149 137.293399 
L 140.503284 135.552533 
L 142.269641 133.838078 
L 142.269641 133.838078 
Q 313.709362 312.234992 355.162059 68.311416 
z
" clip-path="url(#p6c7b2f459b)" style="fill: #000080; fill-opacity: 0.5; stroke: #808080; stroke-opacity: 0.5; stroke-width: 0.1"/>
    <path d="M 376.905587 73.021125 
L 376.905587 73.021125 
L 379.294526 73.665037 
L 381.676907 74.332807 
L 384.05249 75.024366 
L 386.42104 75.739646 
L 388.782319 76.478575 
L 391.13609 77.24108 
L 393.482118 78.027084 
L 395.82017 78.836508 
L 398.15001 79.669273 
L 400.471407 80.525293 
L 402.784127 81.404485 
L 405.08794 82.306759 
L 407.382615 83.232026 
L 409.667923 84.180193 
L 411.943635 85.151165 
L 414.209524 86.144845 
L 416.465363 87.161135 
L 418.688075 88.189223 
L 418.688075 88.189223 
Q 313.709362 312.234992 90.969317 419.956436 
L 90.969317 419.956436 
L 90.969317 419.956436 
L 89.903258 417.723687 
L 88.859579 415.480388 
L 87.838384 413.226766 
L 86.839777 410.963044 
L 85.863856 408.68945 
L 84.91072 406.40621 
L 83.980463 404.113553 
L 83.073179 401.811709 
L 82.188959 399.500906 
L 81.32789 397.181378 
L 80.490059 394.853354 
L 79.67555 392.517069 
L 78.884445 390.172756 
L 78.116821 387.820649 
L 77.372757 385.460984 
L 76.652326 383.093996 
L 75.9556 380.719922 
L 75.289393 378.363318 
L 75.289393 378.363318 
Q 313.709362 312.234992 376.905587 73.021125 
z
" clip-path="url(#p6c7b2f459b)" style="fill: #000080; fill-opacity: 0.5; stroke: #808080; stroke-opacity: 0.5; stroke-width: 0.1"/>
   </g>
   <g id="patch_19">
    <path d="M 313.709362 64.814223 
L 316.183529 64.826594 
L 318.657448 64.863706 
L 321.130872 64.925554 
L 323.603554 65.012133 
L 326.075247 65.123435 
L 328.545703 65.259447 
L 331.014675 65.420156 
L 333.481917 65.605547 
L 335.947182 65.815601 
L 338.410223 66.050296 
L 340.870794 66.30961 
L 343.328649 66.593516 
L 345.783541 66.901986 
L 348.235227 67.234989 
L 350.68346 67.592492 
L 353.127995 67.974458 
L 355.568589 68.380851 
L 358.004997 68.811629 
L 360.436975 69.266749 
L 362.864281 69.746166 
L 365.286671 70.249831 
L 367.703903 70.777695 
L 370.115736 71.329704 
L 372.521929 71.905803 
L 374.92224 72.505936 
L 377.31643 73.13004 
L 379.704259 73.778056 
L 382.085489 74.449916 
L 384.459882 75.145555 
L 386.827199 75.864903 
L 389.187205 76.607888 
L 391.539663 77.374435 
L 393.884337 78.164468 
L 396.220995 78.977908 
L 398.549401 79.814673 
L 400.869324 80.67468 
L 403.18053 81.557843 
L 405.48279 82.464074 
L 407.775872 83.393281 
L 410.059548 84.345373 
L 412.333589 85.320253 
L 414.597767 86.317824 
L 416.851857 87.337987 
L 418.688075 88.189223 
L 421.93484 81.259972 
L 420.041831 80.38241 
L 417.718027 79.330695 
L 415.383823 78.302271 
L 413.039451 77.29724 
L 410.685146 76.315703 
L 408.321143 75.357757 
L 405.94768 74.423498 
L 403.564993 73.513021 
L 401.17332 72.626416 
L 398.772901 71.763771 
L 396.363976 70.925173 
L 393.946785 70.110706 
L 391.521571 69.320452 
L 389.088575 68.554488 
L 386.648042 67.812892 
L 384.200215 67.095739 
L 381.745339 66.403099 
L 379.283659 65.735042 
L 376.815422 65.091635 
L 374.340874 64.472942 
L 371.860263 63.879025 
L 369.373838 63.309943 
L 366.881845 62.765754 
L 364.384536 62.246511 
L 361.882159 61.752267 
L 359.374965 61.283071 
L 356.863204 60.83897 
L 354.347128 60.420009 
L 351.826989 60.026229 
L 349.303037 59.657669 
L 346.775526 59.314367 
L 344.244709 58.996357 
L 341.710838 58.70367 
L 339.174167 58.436337 
L 336.63495 58.194383 
L 334.09344 57.977833 
L 331.549891 57.786708 
L 329.004559 57.621028 
L 326.457697 57.480809 
L 323.90956 57.366065 
L 321.360403 57.276809 
L 318.810481 57.213047 
L 316.260049 57.174788 
L 313.709362 57.162034 
L 313.709362 64.814223 
z
" clip-path="url(#p6c7b2f459b)" style="fill: none; stroke: #000000; stroke-width: 0.5; stroke-linejoin: miter"/>
   </g>
   <g id="patch_20">
    <path d="M 437.815475 98.191282 
L 439.949671 99.443025 
L 442.071243 100.716046 
L 444.17998 102.01022 
L 446.275669 103.325415 
L 448.358101 104.661502 
L 450.427069 106.018345 
L 452.482366 107.39581 
L 454.523785 108.793759 
L 456.551122 110.212052 
L 458.564176 111.650546 
L 460.562745 113.1091 
L 462.546628 114.587565 
L 464.515627 116.085795 
L 466.469546 117.60364 
L 468.408189 119.140948 
L 470.331363 120.697565 
L 472.238874 122.273336 
L 474.130533 123.868103 
L 476.006149 125.481706 
L 477.865536 127.113984 
L 479.708508 128.764775 
L 481.534879 130.433912 
L 483.344469 132.121229 
L 485.137094 133.826557 
L 486.912578 135.549726 
L 488.670741 137.290564 
L 490.411408 139.048896 
L 492.134405 140.824546 
L 493.83956 142.617337 
L 495.526702 144.42709 
L 497.195662 146.253623 
L 498.846274 148.096755 
L 500.478372 149.9563 
L 502.091793 151.832073 
L 503.686377 153.723886 
L 505.261963 155.63155 
L 506.818394 157.554874 
L 508.355514 159.493666 
L 509.873169 161.447732 
L 511.371208 163.416877 
L 512.849482 165.400903 
L 514.307841 167.399613 
L 515.746141 169.412806 
L 517.164237 171.440281 
L 517.179389 171.462178 
L 523.472276 167.10838 
L 523.456656 167.085805 
L 521.994701 164.995625 
L 520.511918 162.920168 
L 519.008455 160.859642 
L 517.484461 158.814254 
L 515.940091 156.784208 
L 514.375498 154.769707 
L 512.790838 152.770953 
L 511.18627 150.788144 
L 509.561955 148.82148 
L 507.918054 146.871158 
L 506.254733 144.937371 
L 504.572158 143.020314 
L 502.870496 141.120179 
L 501.149918 139.237155 
L 499.410597 137.37143 
L 497.652705 135.523192 
L 495.87642 133.692625 
L 494.081918 131.879912 
L 492.269378 130.085234 
L 490.438983 128.308771 
L 488.590915 126.5507 
L 486.725359 124.811198 
L 484.842502 123.090438 
L 482.942531 121.388592 
L 481.025637 119.705831 
L 479.092012 118.042322 
L 477.141849 116.398233 
L 475.175342 114.773727 
L 473.192689 113.168967 
L 471.194088 111.584114 
L 469.179738 110.019325 
L 467.149842 108.474758 
L 465.104602 106.950567 
L 463.044222 105.446904 
L 460.968909 103.963919 
L 458.87887 102.501762 
L 456.774314 101.060578 
L 454.655452 99.640511 
L 452.522495 98.241703 
L 450.375658 96.864294 
L 448.215153 95.508422 
L 446.041198 94.174223 
L 443.854011 92.86183 
L 441.653808 91.571374 
L 437.815475 98.191282 
z
" clip-path="url(#p6c7b2f459b)" style="fill: none; stroke: #000000; stroke-width: 0.5; stroke-linejoin: miter"/>
   </g>
   <g id="patch_21">
    <path d="M 528.674283 189.731442 
L 529.88855 191.887181 
L 531.081199 194.054954 
L 532.252112 196.234545 
L 533.40117 198.425736 
L 534.528259 200.628308 
L 535.633266 202.842041 
L 536.716081 205.066712 
L 537.776596 207.302101 
L 537.876611 207.515931 
L 544.809618 204.277198 
L 544.70651 204.056753 
L 543.613196 201.752229 
L 542.496892 199.458753 
L 541.357709 197.176555 
L 540.195762 194.905862 
L 539.011166 192.646902 
L 537.80404 190.399901 
L 536.574504 188.165084 
L 535.322683 185.942673 
L 528.674283 189.731442 
z
" clip-path="url(#p6c7b2f459b)" style="fill: none; stroke: #000000; stroke-width: 0.5; stroke-linejoin: miter"/>
   </g>
   <g id="patch_22">
    <path d="M 546.150454 227.451882 
L 546.986649 229.780493 
L 547.799517 232.11735 
L 548.588975 234.462219 
L 549.354946 236.814864 
L 550.097353 239.175052 
L 550.816121 241.542545 
L 551.511178 243.917108 
L 552.182456 246.298502 
L 552.829886 248.68649 
L 553.453404 251.080833 
L 554.052949 253.481291 
L 554.628459 255.887625 
L 555.179877 258.299593 
L 555.707149 260.716954 
L 556.210221 263.139468 
L 556.689043 265.566891 
L 557.143567 267.99898 
L 557.573749 270.435494 
L 557.979543 272.876187 
L 558.360912 275.320816 
L 558.717815 277.769136 
L 559.050217 280.220903 
L 559.358086 282.675872 
L 559.64139 285.133796 
L 559.900101 287.59443 
L 560.134193 290.057529 
L 560.343643 292.522845 
L 560.528429 294.990132 
L 560.688534 297.459144 
L 560.823941 299.929633 
L 560.934637 302.401353 
L 561.020611 304.874056 
L 561.081853 307.347495 
L 561.118359 309.821424 
L 561.130124 312.295593 
L 561.117147 314.769756 
L 561.079429 317.243666 
L 561.016975 319.717075 
L 560.92979 322.189736 
L 560.868173 323.617412 
L 568.512259 323.969445 
L 568.575783 322.497615 
L 568.665664 319.94848 
L 568.73005 317.398574 
L 568.768934 314.848151 
L 568.782312 312.297467 
L 568.770184 309.746777 
L 568.732549 307.196336 
L 568.669412 304.646398 
L 568.58078 302.09722 
L 568.46666 299.549055 
L 568.327065 297.002159 
L 568.162008 294.456786 
L 567.971507 291.913191 
L 567.755579 289.371628 
L 567.514247 286.832351 
L 567.247535 284.295615 
L 566.955469 281.761672 
L 566.638079 279.230777 
L 566.295396 276.703182 
L 565.927454 274.17914 
L 565.534291 271.658904 
L 565.115946 269.142726 
L 564.67246 266.630856 
L 564.203879 264.123547 
L 563.710247 261.62105 
L 563.191617 259.123613 
L 562.648038 256.631488 
L 562.079565 254.144922 
L 561.486256 251.664166 
L 560.868169 249.189467 
L 560.225366 246.721073 
L 559.557912 244.259229 
L 558.865873 241.804184 
L 558.149319 239.356181 
L 557.408322 236.915466 
L 556.642954 234.482283 
L 555.853293 232.056875 
L 555.039418 229.639485 
L 554.201411 227.230354 
L 553.339354 224.829724 
L 546.150454 227.451882 
z
" clip-path="url(#p6c7b2f459b)" style="fill: none; stroke: #000000; stroke-width: 0.5; stroke-linejoin: miter"/>
   </g>
   <g id="patch_23">
    <path d="M 558.935615 345.115408 
L 558.594556 347.565986 
L 558.229007 350.01303 
L 557.839007 352.456297 
L 557.424595 354.895542 
L 556.985811 357.33052 
L 556.522699 359.760989 
L 556.035306 362.186706 
L 555.523681 364.607428 
L 554.987875 367.022912 
L 554.427941 369.432917 
L 553.843936 371.837203 
L 553.235917 374.235529 
L 552.603946 376.627654 
L 551.948085 379.013341 
L 551.268401 381.39235 
L 550.564961 383.764442 
L 549.837836 386.129383 
L 549.087098 388.486933 
L 548.312822 390.836859 
L 547.515087 393.178924 
L 546.693971 395.512895 
L 545.849556 397.838539 
L 544.981928 400.155622 
L 544.091173 402.463913 
L 543.17738 404.763181 
L 542.24064 407.053197 
L 541.281048 409.333731 
L 540.298698 411.604555 
L 539.293689 413.865442 
L 538.266123 416.116166 
L 537.216101 418.356502 
L 536.171102 420.530011 
L 543.051362 423.879342 
L 544.12868 421.638611 
L 545.211177 419.328986 
L 546.270524 417.008652 
L 547.306615 414.67784 
L 548.319347 412.336784 
L 549.308618 409.985719 
L 550.274329 407.624878 
L 551.216384 405.254498 
L 552.134688 402.874817 
L 553.02915 400.486071 
L 553.89968 398.088501 
L 554.746192 395.682345 
L 555.5686 393.267844 
L 556.366822 390.845241 
L 557.140778 388.414776 
L 557.890392 385.976694 
L 558.615588 383.531237 
L 559.316293 381.078651 
L 559.992438 378.61918 
L 560.643955 376.153071 
L 561.270778 373.680571 
L 561.872846 371.201925 
L 562.450097 368.717384 
L 563.002475 366.227194 
L 563.529923 363.731604 
L 564.03239 361.230866 
L 564.509824 358.725227 
L 564.962179 356.21494 
L 565.389409 353.700255 
L 565.791471 351.181423 
L 566.168324 348.658697 
L 566.519933 346.132328 
L 558.935615 345.115408 
z
" clip-path="url(#p6c7b2f459b)" style="fill: none; stroke: #000000; stroke-width: 0.5; stroke-linejoin: miter"/>
   </g>
   <g id="patch_24">
    <path d="M 525.886035 439.506734 
L 524.60273 441.622102 
L 523.298336 443.724531 
L 521.972983 445.813812 
L 520.626804 447.889734 
L 519.259934 449.952092 
L 517.872508 452.000677 
L 516.464667 454.035287 
L 515.03655 456.055716 
L 513.5883 458.061763 
L 512.120063 460.053228 
L 510.631985 462.029911 
L 509.124214 463.991615 
L 507.596903 465.938143 
L 506.050203 467.869301 
L 504.484269 469.784896 
L 502.899257 471.684736 
L 501.295327 473.568631 
L 499.672638 475.436392 
L 498.031353 477.287834 
L 496.371636 479.122771 
L 494.693653 480.941019 
L 492.997572 482.742396 
L 491.283562 484.526723 
L 489.551795 486.293821 
L 487.802443 488.043513 
L 486.035683 489.775625 
L 484.25169 491.489982 
L 482.450643 493.186414 
L 480.632722 494.864751 
L 478.798109 496.524826 
L 476.946987 498.166471 
L 475.079541 499.789524 
L 473.195959 501.393821 
L 471.296428 502.979203 
L 469.381138 504.54551 
L 467.450281 506.092586 
L 465.504051 507.620277 
L 463.542641 509.128429 
L 461.566248 510.616893 
L 459.575069 512.085518 
L 457.569304 513.534158 
L 455.549153 514.962669 
L 453.514818 516.370907 
L 451.466502 517.758731 
L 449.404411 519.126004 
L 447.328751 520.472587 
L 446.279931 521.141864 
L 450.380052 527.602902 
L 451.461309 526.912925 
L 453.601166 525.524695 
L 455.727032 524.115136 
L 457.838698 522.684389 
L 459.93595 521.232597 
L 462.01858 519.759906 
L 464.086379 518.266462 
L 466.139141 516.752415 
L 468.17666 515.217917 
L 470.198732 513.663121 
L 472.205155 512.088182 
L 474.195729 510.493258 
L 476.170254 508.878508 
L 478.128534 507.244094 
L 480.070371 505.59018 
L 481.995573 503.916929 
L 483.903946 502.224511 
L 485.7953 500.513095 
L 487.669445 498.78285 
L 489.526195 497.033951 
L 491.365363 495.266572 
L 493.186766 493.48089 
L 494.990221 491.677084 
L 496.775548 489.855333 
L 498.542568 488.015821 
L 500.291106 486.158731 
L 502.020985 484.284248 
L 503.732033 482.392561 
L 505.42408 480.483858 
L 507.096955 478.558331 
L 508.750491 476.616171 
L 510.384523 474.657573 
L 511.998888 472.682733 
L 513.593425 470.691849 
L 515.167973 468.685119 
L 516.722375 466.662744 
L 518.256476 464.624926 
L 519.770123 462.57187 
L 521.263164 460.503779 
L 522.735449 458.420863 
L 524.186832 456.323327 
L 525.617168 454.211383 
L 527.026313 452.085242 
L 528.414126 449.945116 
L 529.78047 447.791218 
L 531.125206 445.623765 
L 532.448201 443.442974 
L 525.886035 439.506734 
z
" clip-path="url(#p6c7b2f459b)" style="fill: none; stroke: #000000; stroke-width: 0.5; stroke-linejoin: miter"/>
   </g>
   <g id="patch_25">
    <path d="M 427.568027 531.901197 
L 425.365708 533.028781 
L 423.152224 534.134287 
L 420.927796 535.217602 
L 418.692647 536.27862 
L 416.446998 537.317233 
L 414.191077 538.333338 
L 411.925107 539.326834 
L 409.649316 540.29762 
L 407.36393 541.245601 
L 405.06918 542.17068 
L 402.765293 543.072767 
L 400.452501 543.951769 
L 398.131035 544.807601 
L 395.801127 545.640175 
L 394.885923 545.960051 
L 397.396538 553.188661 
L 398.340047 552.858892 
L 400.742015 552.000568 
L 403.135279 551.118268 
L 405.5196 550.212079 
L 407.894741 549.282093 
L 410.260463 548.328403 
L 412.616531 547.351104 
L 414.962707 546.350293 
L 417.298759 545.32607 
L 419.624451 544.278539 
L 421.939552 543.207804 
L 424.24383 542.113972 
L 426.537055 540.997151 
L 428.818997 539.857455 
L 431.089429 538.694997 
L 427.568027 531.901197 
z
" clip-path="url(#p6c7b2f459b)" style="fill: none; stroke: #000000; stroke-width: 0.5; stroke-linejoin: miter"/>
   </g>
   <g id="patch_26">
    <path d="M 374.20654 552.14566 
L 371.804449 552.738626 
L 369.396548 553.307542 
L 366.983078 553.852351 
L 365.537359 554.166585 
L 367.140287 561.649006 
L 368.630719 561.325053 
L 371.118832 560.763394 
L 373.601204 560.176883 
L 376.077587 559.565577 
L 374.20654 552.14566 
z
" clip-path="url(#p6c7b2f459b)" style="fill: none; stroke: #000000; stroke-width: 0.5; stroke-linejoin: miter"/>
   </g>
   <g id="patch_27">
    <path d="M 344.25441 557.76307 
L 341.797643 558.056239 
L 339.338067 558.324826 
L 336.875928 558.568805 
L 335.402545 558.702927 
L 336.073468 566.325646 
L 337.59242 566.187376 
L 340.130707 565.935852 
L 342.666353 565.658958 
L 345.199102 565.356722 
L 344.25441 557.76307 
z
" clip-path="url(#p6c7b2f459b)" style="fill: none; stroke: #000000; stroke-width: 0.5; stroke-linejoin: miter"/>
   </g>
   <g id="patch_28">
    <path d="M 313.8389 559.655727 
L 311.364727 559.644652 
L 308.890789 559.608835 
L 306.417333 559.548282 
L 303.944606 559.462997 
L 302.91702 559.420272 
L 302.583236 567.065177 
L 303.642603 567.109224 
L 306.191806 567.197147 
L 308.741761 567.259573 
L 311.292213 567.296497 
L 313.842906 567.307915 
L 313.8389 559.655727 
z
" clip-path="url(#p6c7b2f459b)" style="fill: none; stroke: #000000; stroke-width: 0.5; stroke-linejoin: miter"/>
   </g>
   <g id="patch_29">
    <path d="M 281.414471 557.539042 
L 278.963086 557.203834 
L 276.515176 556.844128 
L 274.070985 556.459962 
L 271.630758 556.051374 
L 269.194739 555.618404 
L 266.763171 555.161096 
L 264.336298 554.679496 
L 261.914362 554.173652 
L 259.497605 553.643613 
L 257.08627 553.089435 
L 254.680597 552.51117 
L 252.280826 551.908879 
L 249.887199 551.28262 
L 247.499953 550.632457 
L 245.119329 549.958454 
L 242.745563 549.260679 
L 240.378894 548.539202 
L 238.019558 547.794094 
L 235.667791 547.025431 
L 233.323828 546.233289 
L 230.987903 545.417747 
L 228.66025 544.578887 
L 226.341102 543.716793 
L 224.030691 542.831551 
L 221.729248 541.92325 
L 219.437003 540.991979 
L 217.154185 540.037834 
L 214.881022 539.060908 
L 212.617742 538.0613 
L 210.364571 537.039109 
L 208.121734 535.994439 
L 205.889457 534.927392 
L 203.667961 533.838076 
L 201.457469 532.726601 
L 199.258202 531.593076 
L 197.07038 530.437616 
L 194.894222 529.260335 
L 192.729946 528.061352 
L 190.577767 526.840787 
L 188.437901 525.598762 
L 186.310563 524.3354 
L 184.195964 523.050828 
L 182.094316 521.745175 
L 180.00583 520.418571 
L 177.930714 519.071149 
L 175.869176 517.703043 
L 173.821422 516.314391 
L 171.787656 514.905331 
L 169.768082 513.476004 
L 167.762903 512.026553 
L 165.772318 510.557124 
L 163.796526 509.067862 
L 161.835726 507.558917 
L 159.890113 506.03044 
L 157.959882 504.482583 
L 156.045225 502.915502 
L 154.146335 501.329353 
L 152.263401 499.724295 
L 150.396611 498.100488 
L 148.546153 496.458094 
L 146.712211 494.797279 
L 144.894968 493.118207 
L 143.094607 491.421047 
L 141.311307 489.705969 
L 139.545246 487.973143 
L 137.796602 486.222744 
L 136.065549 484.454947 
L 134.352261 482.669927 
L 132.656907 480.867864 
L 130.979659 479.048939 
L 129.320684 477.213331 
L 127.680148 475.361226 
L 126.058214 473.492809 
L 124.455045 471.608266 
L 122.870801 469.707786 
L 121.305642 467.791558 
L 119.759722 465.859776 
L 118.233197 463.91263 
L 116.72622 461.950317 
L 115.238941 459.973033 
L 113.771508 457.980975 
L 112.324069 455.974343 
L 110.896769 453.953336 
L 109.48975 451.918158 
L 108.103152 449.869012 
L 106.737115 447.806103 
L 105.391775 445.729636 
L 104.067267 443.63982 
L 102.763723 441.536864 
L 101.481273 439.420978 
L 100.220045 437.292373 
L 98.980167 435.151263 
L 97.761761 432.997861 
L 96.56495 430.832383 
L 95.389852 428.655045 
L 94.236587 426.466065 
L 93.105269 424.265663 
L 91.996011 422.054057 
L 90.908924 419.83147 
L 89.844118 417.598122 
L 88.801697 415.354239 
L 87.781767 413.100044 
L 86.78443 410.835763 
L 85.809784 408.561621 
L 84.857929 406.277847 
L 83.928959 403.984669 
L 83.022966 401.682316 
L 82.140042 399.371018 
L 81.280275 397.051006 
L 80.44375 394.722513 
L 79.630552 392.385772 
L 78.840761 390.041015 
L 78.074457 387.688478 
L 77.331717 385.328396 
L 76.612613 382.961004 
L 75.91722 380.58654 
L 75.289393 378.363318 
L 67.91558 380.408524 
L 68.562824 382.700505 
L 69.279724 385.148406 
L 70.021068 387.589016 
L 70.78678 390.022091 
L 71.576784 392.447387 
L 72.391001 394.864662 
L 73.22935 397.273674 
L 74.091746 399.674182 
L 74.978104 402.065946 
L 75.888335 404.448728 
L 76.822348 406.822288 
L 77.78005 409.186389 
L 78.761344 411.540795 
L 79.766133 413.885271 
L 80.794316 416.219582 
L 81.84579 418.543494 
L 82.92045 420.856776 
L 84.018189 423.159196 
L 85.138897 425.450523 
L 86.282462 427.730529 
L 87.448769 429.998985 
L 88.637703 432.255665 
L 89.849143 434.500343 
L 91.082969 436.732795 
L 92.339057 438.952797 
L 93.617283 441.160127 
L 94.917517 443.354565 
L 96.239631 445.535891 
L 97.583491 447.703887 
L 98.948963 449.858337 
L 100.335912 451.999024 
L 101.744197 454.125734 
L 103.173679 456.238256 
L 104.624215 458.336378 
L 106.095658 460.41989 
L 107.587863 462.488583 
L 109.10068 464.542251 
L 110.633958 466.580688 
L 112.187543 468.603691 
L 113.761279 470.611057 
L 115.355011 472.602586 
L 116.968578 474.578078 
L 118.601819 476.537336 
L 120.25457 478.480164 
L 121.926667 480.406368 
L 123.617941 482.315754 
L 125.328225 484.208133 
L 127.057347 486.083314 
L 128.805134 487.941111 
L 130.571411 489.781337 
L 132.356001 491.603809 
L 134.158727 493.408344 
L 135.979408 495.194762 
L 137.817862 496.962884 
L 139.673904 498.712533 
L 141.54735 500.443535 
L 143.438012 502.155716 
L 145.345702 503.848905 
L 147.270227 505.522933 
L 149.211396 507.177632 
L 151.169015 508.812837 
L 153.142887 510.428385 
L 155.132816 512.024113 
L 157.138603 513.599863 
L 159.160047 515.155476 
L 161.196945 516.690798 
L 163.249095 518.205674 
L 165.31629 519.699953 
L 167.398325 521.173486 
L 169.49499 522.626125 
L 171.606077 524.057725 
L 173.731374 525.468143 
L 175.870669 526.857238 
L 178.023748 528.224871 
L 180.190395 529.570905 
L 182.370394 530.895206 
L 184.563526 532.197641 
L 186.769573 533.47808 
L 188.988314 534.736394 
L 191.219527 535.972459 
L 193.462989 537.18615 
L 195.718475 538.377347 
L 197.985761 539.545929 
L 200.264618 540.69178 
L 202.55482 541.814786 
L 204.856138 542.914834 
L 207.16834 543.991814 
L 209.491197 545.045619 
L 211.824475 546.076143 
L 214.167942 547.083283 
L 216.521363 548.066938 
L 218.884502 549.02701 
L 221.257124 549.963403 
L 223.638991 550.876024 
L 226.029865 551.764781 
L 228.429507 552.629585 
L 230.837677 553.470349 
L 233.254134 554.286991 
L 235.678636 555.079427 
L 238.110942 555.847579 
L 240.550807 556.59137 
L 242.997988 557.310726 
L 245.45224 558.005574 
L 247.913317 558.675846 
L 250.380975 559.321473 
L 252.854965 559.942392 
L 255.33504 560.538541 
L 257.820953 561.109859 
L 260.312455 561.656291 
L 262.809296 562.17778 
L 265.311227 562.674275 
L 267.817998 563.145726 
L 270.329358 563.592087 
L 272.845056 564.013312 
L 275.36484 564.409359 
L 277.888459 564.78019 
L 280.41566 565.125766 
L 281.414471 557.539042 
z
" clip-path="url(#p6c7b2f459b)" style="fill: none; stroke: #000000; stroke-width: 0.5; stroke-linejoin: miter"/>
   </g>
   <g id="patch_30">
    <path d="M 70.43319 357.33201 
L 69.994391 354.897034 
L 69.579963 352.457792 
L 69.400199 351.351099 
L 61.844246 352.560875 
L 62.02957 353.701796 
L 62.456815 356.216479 
L 62.909185 358.726763 
L 70.43319 357.33201 
z
" clip-path="url(#p6c7b2f459b)" style="fill: none; stroke: #000000; stroke-width: 0.5; stroke-linejoin: miter"/>
   </g>
   <g id="patch_31">
    <path d="M 66.920676 329.909304 
L 66.756275 327.440574 
L 66.616569 324.970324 
L 66.501573 322.498801 
L 66.480324 321.97355 
L 58.834065 322.274742 
L 58.855971 322.816238 
L 58.974524 325.364201 
L 59.118551 327.91085 
L 59.288036 330.455932 
L 66.920676 329.909304 
z
" clip-path="url(#p6c7b2f459b)" style="fill: none; stroke: #000000; stroke-width: 0.5; stroke-linejoin: miter"/>
   </g>
   <g id="patch_32">
    <path d="M 66.572334 300.389061 
L 66.703148 297.918324 
L 66.858662 295.449019 
L 66.901177 294.835092 
L 59.267934 294.296951 
L 59.224104 294.929865 
L 59.06378 297.475541 
L 58.92892 300.022692 
L 66.572334 300.389061 
z
" clip-path="url(#p6c7b2f459b)" style="fill: none; stroke: #000000; stroke-width: 0.5; stroke-linejoin: miter"/>
   </g>
   <g id="patch_33">
    <path d="M 69.356857 273.390553 
L 69.757513 270.949011 
L 70.182563 268.511597 
L 70.631966 266.078556 
L 71.105677 263.65013 
L 71.603647 261.226563 
L 72.125828 258.808097 
L 72.672167 256.394973 
L 73.24261 253.987433 
L 73.837099 251.585718 
L 74.455575 249.190068 
L 75.097977 246.800722 
L 75.764239 244.41792 
L 76.454295 242.041899 
L 77.168077 239.672898 
L 77.905513 237.311152 
L 78.666529 234.956899 
L 79.451049 232.610374 
L 80.258995 230.271811 
L 81.090286 227.941444 
L 81.944838 225.619507 
L 82.822566 223.306231 
L 83.723383 221.001848 
L 84.647199 218.706588 
L 85.59392 216.420681 
L 86.563453 214.144355 
L 87.5557 211.877839 
L 88.570563 209.621358 
L 89.607939 207.375138 
L 90.667725 205.139404 
L 91.749815 202.914379 
L 92.854101 200.700287 
L 93.980472 198.497348 
L 95.128816 196.305782 
L 96.299017 194.12581 
L 97.49096 191.957648 
L 98.704524 189.801514 
L 99.939589 187.657623 
L 101.19603 185.52619 
L 102.473723 183.407427 
L 103.772538 181.301547 
L 105.092348 179.208761 
L 106.433019 177.129276 
L 107.794417 175.063303 
L 109.176407 173.011046 
L 110.57885 170.972712 
L 112.001605 168.948504 
L 113.444532 166.938624 
L 114.907484 164.943274 
L 116.390317 162.962653 
L 117.892881 160.996959 
L 119.415027 159.046388 
L 120.956602 157.111137 
L 122.517453 155.191397 
L 124.097422 153.287362 
L 125.696352 151.399222 
L 127.314084 149.527165 
L 128.950454 147.671378 
L 130.605301 145.832048 
L 132.278458 144.009358 
L 133.969758 142.20349 
L 135.679031 140.414626 
L 137.406108 138.642943 
L 139.150814 136.88862 
L 140.912977 135.15183 
L 142.269641 133.838078 
L 136.967382 128.320647 
L 135.568759 129.675032 
L 133.752096 131.465536 
L 131.95343 133.274117 
L 130.172939 135.100594 
L 128.410801 136.944784 
L 126.667193 138.806503 
L 124.942289 140.685565 
L 123.236261 142.581782 
L 121.549281 144.494964 
L 119.881517 146.42492 
L 118.233135 148.371456 
L 116.604301 150.334379 
L 114.995177 152.313492 
L 113.405924 154.308596 
L 111.836701 156.319494 
L 110.287666 158.345982 
L 108.758973 160.38786 
L 107.250774 162.444922 
L 105.763221 164.516963 
L 104.296463 166.603775 
L 102.850645 168.705151 
L 101.425914 170.820879 
L 100.02241 172.950749 
L 98.640275 175.094547 
L 97.279647 177.252059 
L 95.940662 179.423069 
L 94.623453 181.607361 
L 93.328152 183.804714 
L 92.05489 186.014911 
L 90.803793 188.23773 
L 89.574986 190.472948 
L 88.368593 192.720343 
L 87.184733 194.979689 
L 86.023526 197.25076 
L 84.885087 199.53333 
L 83.76953 201.827169 
L 82.676967 204.13205 
L 81.607507 206.44774 
L 80.561257 208.774009 
L 79.538322 211.110624 
L 78.538804 213.457352 
L 77.562802 215.813957 
L 76.610415 218.180204 
L 75.681738 220.555857 
L 74.776863 222.940678 
L 73.895881 225.334427 
L 73.038881 227.736867 
L 72.205947 230.147757 
L 71.397163 232.566855 
L 70.612611 234.99392 
L 69.852367 237.428709 
L 69.11651 239.870979 
L 68.405111 242.320485 
L 67.718243 244.776982 
L 67.055974 247.240225 
L 66.418369 249.709968 
L 65.805494 252.185962 
L 65.217409 254.667962 
L 64.654173 257.155719 
L 64.115842 259.648983 
L 63.60247 262.147506 
L 63.114109 264.651037 
L 62.650807 267.159327 
L 62.21261 269.672125 
L 61.799564 272.189179 
L 69.356857 273.390553 
z
" clip-path="url(#p6c7b2f459b)" style="fill: none; stroke: #000000; stroke-width: 0.5; stroke-linejoin: miter"/>
   </g>
   <g id="patch_34">
    <path d="M 158.470337 119.574975 
L 160.404667 118.032244 
L 162.354327 116.508933 
L 164.319123 115.005194 
L 166.298857 113.521178 
L 168.293333 112.057033 
L 170.30235 110.612906 
L 172.325707 109.18894 
L 174.363203 107.78528 
L 176.414634 106.402064 
L 178.479793 105.039431 
L 180.558476 103.697517 
L 182.650473 102.376457 
L 184.755576 101.076383 
L 186.873575 99.797425 
L 189.004257 98.53971 
L 191.147409 97.303364 
L 193.302818 96.088512 
L 195.470267 94.895273 
L 197.64954 93.723769 
L 199.840419 92.574116 
L 202.042684 91.446428 
L 204.256116 90.340819 
L 206.480494 89.2574 
L 208.715594 88.196278 
L 210.961193 87.157559 
L 213.217067 86.141349 
L 215.482991 85.147747 
L 217.758737 84.176854 
L 220.044077 83.228766 
L 222.338785 82.303579 
L 224.642629 81.401385 
L 226.95538 80.522274 
L 229.276806 79.666335 
L 231.606676 78.833651 
L 233.944755 78.024308 
L 236.290811 77.238386 
L 238.644609 76.475963 
L 241.005913 75.737116 
L 243.374488 75.021918 
L 245.750096 74.330442 
L 246.885792 74.008949 
L 244.819083 66.641134 
L 243.648263 66.972569 
L 241.199182 67.685431 
L 238.757353 68.422749 
L 236.323019 69.184447 
L 233.896423 69.97045 
L 231.477809 70.780679 
L 229.067417 71.615053 
L 226.66549 72.473489 
L 224.272267 73.355902 
L 221.887988 74.262202 
L 219.512891 75.192299 
L 217.147213 76.1461 
L 214.791191 77.123509 
L 212.445062 78.12443 
L 210.109058 79.148762 
L 207.783415 80.196402 
L 205.468364 81.267245 
L 203.164137 82.361185 
L 200.870964 83.478113 
L 198.589076 84.617916 
L 196.318699 85.78048 
L 194.060061 86.96569 
L 191.813388 88.173426 
L 189.578904 89.403569 
L 187.356834 90.655994 
L 185.147398 91.930577 
L 182.950819 93.227191 
L 180.767315 94.545705 
L 178.597105 95.885987 
L 176.440407 97.247905 
L 174.297435 98.631321 
L 172.168405 100.036097 
L 170.053528 101.462093 
L 167.953017 102.909166 
L 165.867081 104.377171 
L 163.79593 105.865962 
L 161.73977 107.37539 
L 159.698806 108.905303 
L 157.673244 110.455549 
L 155.663285 112.025973 
L 153.66913 113.616418 
L 158.470337 119.574975 
z
" clip-path="url(#p6c7b2f459b)" style="fill: none; stroke: #000000; stroke-width: 0.5; stroke-linejoin: miter"/>
   </g>
   <g id="patch_35">
    <path d="M 267.902843 69.091414 
L 270.336529 68.645513 
L 272.774552 68.223971 
L 275.216668 67.826831 
L 277.662633 67.45413 
L 280.112203 67.105908 
L 282.565133 66.782198 
L 285.021178 66.483034 
L 287.480091 66.208444 
L 289.941626 65.958457 
L 292.145221 65.755734 
L 291.478289 58.132664 
L 289.206542 58.341657 
L 286.668876 58.599376 
L 284.133914 58.882458 
L 281.60191 59.190875 
L 279.073116 59.524596 
L 276.547786 59.883588 
L 274.026172 60.267815 
L 271.508526 60.677239 
L 268.995101 61.111818 
L 266.486147 61.571509 
L 267.902843 69.091414 
z
" clip-path="url(#p6c7b2f459b)" style="fill: none; stroke: #000000; stroke-width: 0.5; stroke-linejoin: miter"/>
   </g>
   <g id="text_1">
    <text style="font: 10px 'DejaVu Sans', 'Bitstream Vera Sans', 'Computer Modern Sans Serif', 'Lucida Grande', 'Verdana', 'Geneva', 'Lucid', 'Arial', 'Helvetica', 'Avant Garde', sans-serif; text-anchor: middle" x="372.371211" y="48.780642" transform="rotate(-347.447064 372.371211 48.780642)">CA1v</text>
   </g>
   <g id="text_2">
    <text style="font: 10px 'DejaVu Sans', 'Bitstream Vera Sans', 'Computer Modern Sans Serif', 'Lucida Grande', 'Verdana', 'Geneva', 'Lucid', 'Arial', 'Helvetica', 'Avant Garde', sans-serif; text-anchor: middle" x="496.797483" y="113.921737" transform="rotate(-317.285972 496.797483 113.921737)">CA1d</text>
   </g>
   <g id="text_3">
    <text style="font: 10px 'DejaVu Sans', 'Bitstream Vera Sans', 'Computer Modern Sans Serif', 'Lucida Grande', 'Verdana', 'Geneva', 'Lucid', 'Arial', 'Helvetica', 'Avant Garde', sans-serif; text-anchor: middle" x="553.425894" y="188.197129" transform="rotate(-297.358654 553.425894 188.197129)">CA2</text>
   </g>
   <g id="text_4">
    <text style="font: 10px 'DejaVu Sans', 'Bitstream Vera Sans', 'Computer Modern Sans Serif', 'Lucida Grande', 'Verdana', 'Geneva', 'Lucid', 'Arial', 'Helvetica', 'Avant Garde', sans-serif; text-anchor: middle" x="580.509119" y="271.402443" transform="rotate(-278.701353 580.509119 271.402443)">CA3</text>
   </g>
   <g id="text_5">
    <text style="font: 10px 'DejaVu Sans', 'Bitstream Vera Sans', 'Computer Modern Sans Serif', 'Lucida Grande', 'Verdana', 'Geneva', 'Lucid', 'Arial', 'Helvetica', 'Avant Garde', sans-serif; text-anchor: middle" x="577.383477" y="391.827174" transform="rotate(-73.203132 577.383477 391.827174)">DG</text>
   </g>
   <g id="text_6">
    <text style="font: 10px 'DejaVu Sans', 'Bitstream Vera Sans', 'Computer Modern Sans Serif', 'Lucida Grande', 'Verdana', 'Geneva', 'Lucid', 'Arial', 'Helvetica', 'Avant Garde', sans-serif; text-anchor: middle" x="510.899421" y="504.523929" transform="rotate(-45.72096 510.899421 504.523929)">SUBv</text>
   </g>
   <g id="text_7">
    <text style="font: 10px 'DejaVu Sans', 'Bitstream Vera Sans', 'Computer Modern Sans Serif', 'Lucida Grande', 'Verdana', 'Geneva', 'Lucid', 'Arial', 'Helvetica', 'Avant Garde', sans-serif; text-anchor: middle" x="422.546151" y="565.243901" transform="rotate(-23.275915 422.546151 565.243901)">SUBd</text>
   </g>
   <g id="text_8">
    <text style="font: 10px 'DejaVu Sans', 'Bitstream Vera Sans', 'Computer Modern Sans Serif', 'Lucida Grande', 'Verdana', 'Geneva', 'Lucid', 'Arial', 'Helvetica', 'Avant Garde', sans-serif; text-anchor: middle" x="376.23882" y="580.46814" transform="rotate(-13.122216 376.23882 580.46814)">PAR</text>
   </g>
   <g id="text_9">
    <text style="font: 10px 'DejaVu Sans', 'Bitstream Vera Sans', 'Computer Modern Sans Serif', 'Lucida Grande', 'Verdana', 'Geneva', 'Lucid', 'Arial', 'Helvetica', 'Avant Garde', sans-serif; text-anchor: middle" x="342.78947" y="586.120555" transform="rotate(-6.060737 342.78947 586.120555)">PRE</text>
   </g>
   <g id="text_10">
    <text style="font: 10px 'DejaVu Sans', 'Bitstream Vera Sans', 'Computer Modern Sans Serif', 'Lucida Grande', 'Verdana', 'Geneva', 'Lucid', 'Arial', 'Helvetica', 'Avant Garde', sans-serif; text-anchor: middle" x="307.773079" y="587.596055" transform="rotate(-358.764999 307.773079 587.596055)">POST</text>
   </g>
   <g id="text_11">
    <text style="font: 10px 'DejaVu Sans', 'Bitstream Vera Sans', 'Computer Modern Sans Serif', 'Lucida Grande', 'Verdana', 'Geneva', 'Lucid', 'Arial', 'Helvetica', 'Avant Garde', sans-serif; text-anchor: middle" x="133.017764" y="520.103943" transform="rotate(-319.000961 133.017764 520.103943)">VTA</text>
   </g>
   <g id="text_12">
    <text style="font: 10px 'DejaVu Sans', 'Bitstream Vera Sans', 'Computer Modern Sans Serif', 'Lucida Grande', 'Verdana', 'Geneva', 'Lucid', 'Arial', 'Helvetica', 'Avant Garde', sans-serif; text-anchor: middle" x="42.30265" y="359.110904" transform="rotate(-279.799146 42.30265 359.110904)">VRA</text>
   </g>
   <g id="text_13">
    <text style="font: 10px 'DejaVu Sans', 'Bitstream Vera Sans', 'Computer Modern Sans Serif', 'Lucida Grande', 'Verdana', 'Geneva', 'Lucid', 'Arial', 'Helvetica', 'Avant Garde', sans-serif; text-anchor: middle" x="38.707373" y="327.494755" transform="rotate(-273.176065 38.707373 327.494755)">PAG</text>
   </g>
   <g id="text_14">
    <text style="font: 10px 'DejaVu Sans', 'Bitstream Vera Sans', 'Computer Modern Sans Serif', 'Lucida Grande', 'Verdana', 'Geneva', 'Lucid', 'Arial', 'Helvetica', 'Avant Garde', sans-serif; text-anchor: middle" x="44.274929" y="296.282142" transform="rotate(-86.61155 44.274929 296.282142)">OMA</text>
   </g>
   <g id="text_15">
    <text style="font: 10px 'DejaVu Sans', 'Bitstream Vera Sans', 'Computer Modern Sans Serif', 'Lucida Grande', 'Verdana', 'Geneva', 'Lucid', 'Arial', 'Helvetica', 'Avant Garde', sans-serif; text-anchor: middle" x="74.486839" y="187.247026" transform="rotate(-62.414024 74.486839 187.247026)">RAP</text>
   </g>
   <g id="text_16">
    <text style="font: 10px 'DejaVu Sans', 'Bitstream Vera Sans', 'Computer Modern Sans Serif', 'Lucida Grande', 'Verdana', 'Geneva', 'Lucid', 'Arial', 'Helvetica', 'Avant Garde', sans-serif; text-anchor: middle" x="190.06396" y="72.315794" transform="rotate(-27.264889 190.06396 72.315794)">SN</text>
   </g>
   <g id="text_17">
    <text style="font: 10px 'DejaVu Sans', 'Bitstream Vera Sans', 'Computer Modern Sans Serif', 'Lucida Grande', 'Verdana', 'Geneva', 'Lucid', 'Arial', 'Helvetica', 'Avant Garde', sans-serif; text-anchor: middle" x="276.917706" y="44.848042" transform="rotate(-7.834534 276.917706 44.848042)">RET</text>
   </g>
  </g>
 </g>
 <defs>
  <clipPath id="p6c7b2f459b">
   <path d="M 581.535968 312.234992 
C 581.535968 277.064325 574.608113 242.235647 561.148882 209.742187 
C 547.68965 177.248727 527.960789 147.722401 503.091371 122.852983 
C 478.221954 97.983565 448.695627 78.254705 416.202167 64.795473 
C 383.708707 51.336241 348.88003 44.408386 313.709362 44.408386 
C 278.538695 44.408386 243.710017 51.336241 211.216557 64.795473 
C 178.723097 78.254705 149.196771 97.983565 124.327353 122.852983 
C 99.457935 147.722401 79.729075 177.248727 66.269843 209.742187 
C 52.810611 242.235647 45.882756 277.064325 45.882756 312.234992 
C 45.882756 347.40566 52.810611 382.234337 66.269843 414.727797 
C 79.729075 447.221257 99.457935 476.747584 124.327353 501.617001 
C 149.196771 526.486419 178.723097 546.21528 211.216557 559.674511 
C 243.710017 573.133743 278.538695 580.061598 313.709362 580.061598 
C 348.88003 580.061598 383.708707 573.133743 416.202167 559.674511 
C 448.695627 546.21528 478.221954 526.486419 503.091371 501.617001 
C 527.960789 476.747584 547.68965 447.221257 561.148882 414.727797 
C 574.608113 382.234337 581.535968 347.40566 581.535968 312.234992 
M 313.709362 312.234992 
C 313.709362 312.234992 313.709362 312.234992 313.709362 312.234992 
C 313.709362 312.234992 313.709362 312.234992 313.709362 312.234992 
C 313.709362 312.234992 313.709362 312.234992 313.709362 312.234992 
C 313.709362 312.234992 313.709362 312.234992 313.709362 312.234992 
C 313.709362 312.234992 313.709362 312.234992 313.709362 312.234992 
C 313.709362 312.234992 313.709362 312.234992 313.709362 312.234992 
C 313.709362 312.234992 313.709362 312.234992 313.709362 312.234992 
C 313.709362 312.234992 313.709362 312.234992 313.709362 312.234992 
C 313.709362 312.234992 313.709362 312.234992 313.709362 312.234992 
C 313.709362 312.234992 313.709362 312.234992 313.709362 312.234992 
C 313.709362 312.234992 313.709362 312.234992 313.709362 312.234992 
C 313.709362 312.234992 313.709362 312.234992 313.709362 312.234992 
C 313.709362 312.234992 313.709362 312.234992 313.709362 312.234992 
C 313.709362 312.234992 313.709362 312.234992 313.709362 312.234992 
C 313.709362 312.234992 313.709362 312.234992 313.709362 312.234992 
C 313.709362 312.234992 313.709362 312.234992 313.709362 312.234992 
z
"/>
  </clipPath>
 </defs>
</svg>
